<svg xmlns="http://www.w3.org/2000/svg" viewBox="0 0 500 500"><g id="freepik--background-complete--inject-225"><rect y="382.4" width="500" height="0.25" style="fill:#ebebeb"></rect><rect x="416.78" y="398.49" width="33.12" height="0.25" style="fill:#ebebeb"></rect><rect x="322.53" y="401.21" width="8.69" height="0.25" style="fill:#ebebeb"></rect><rect x="396.59" y="389.21" width="19.19" height="0.25" style="fill:#ebebeb"></rect><rect x="52.46" y="390.89" width="43.19" height="0.25" style="fill:#ebebeb"></rect><rect x="104.56" y="390.89" width="6.33" height="0.25" style="fill:#ebebeb"></rect><rect x="131.47" y="395.11" width="93.68" height="0.25" style="fill:#ebebeb"></rect><path d="M237,337.8H43.91a5.71,5.71,0,0,1-5.7-5.71V60.66A5.71,5.71,0,0,1,43.91,55H237a5.71,5.71,0,0,1,5.71,5.71V332.09A5.71,5.71,0,0,1,237,337.8ZM43.91,55.2a5.46,5.46,0,0,0-5.45,5.46V332.09a5.46,5.46,0,0,0,5.45,5.46H237a5.47,5.47,0,0,0,5.46-5.46V60.66A5.47,5.47,0,0,0,237,55.2Z" style="fill:#ebebeb"></path><path d="M453.31,337.8H260.21a5.72,5.72,0,0,1-5.71-5.71V60.66A5.72,5.72,0,0,1,260.21,55h193.1A5.71,5.71,0,0,1,459,60.66V332.09A5.71,5.71,0,0,1,453.31,337.8ZM260.21,55.2a5.47,5.47,0,0,0-5.46,5.46V332.09a5.47,5.47,0,0,0,5.46,5.46h193.1a5.47,5.47,0,0,0,5.46-5.46V60.66a5.47,5.47,0,0,0-5.46-5.46Z" style="fill:#ebebeb"></path><polygon points="436.23 374.29 436.23 340.67 430.62 340.67 430.62 329.37 426.21 329.37 426.21 309.64 421.84 309.64 421.84 286.86 420.26 286.86 420.26 309.64 417.76 309.64 417.76 304.99 413.5 304.99 413.5 309.64 410.32 309.64 410.32 329.37 402.56 329.37 402.56 312.36 399.1 312.36 399.1 309.2 395.35 309.2 395.35 312.36 390.44 312.36 390.44 329.37 382.67 329.37 382.67 356.9 369.53 356.9 369.53 349.98 366.75 349.98 366.75 366.27 363.25 366.27 363.25 360.79 358.27 360.79 358.27 355.69 361.83 355.69 361.83 354.3 358.27 354.3 358.27 348.08 355.38 348.08 355.38 323.99 353.59 323.99 353.59 311.63 351.59 311.63 351.59 323.99 347.8 323.99 347.8 348.08 331.65 348.08 331.65 365.13 322 365.13 322 358.19 316.86 358.19 316.86 340.02 314.63 340.02 314.63 358.19 313.41 358.19 313.41 373.52 305.33 373.52 305.33 364.98 302.1 364.98 302.1 356.99 301.3 356.99 301.3 364.98 296.74 364.98 296.74 358.52 291.6 358.52 291.6 339.17 286.3 339.17 286.3 343.36 279.95 343.36 279.95 364.98 275.23 364.98 275.23 342.81 262.2 342.81 262.2 364.98 258.35 364.98 258.35 350.24 245.31 350.24 245.31 364.98 243.37 364.98 243.37 330.54 236.56 330.54 236.56 364.98 234.15 364.98 234.15 374.29 229.77 374.29 229.77 381.83 290.3 381.83 291.6 381.83 443.29 381.83 443.29 374.29 436.23 374.29" style="fill:#e6e6e6"></polygon><circle cx="351.36" cy="104.39" r="27.79" style="fill:#fafafa"></circle><path d="M361.41,118.1a4.83,4.83,0,0,1,4.83-4.83,4.59,4.59,0,0,1,1.39.21,10.45,10.45,0,0,1-.11-1.49,10.23,10.23,0,0,1,10.23-10.23,10.6,10.6,0,0,1,1.88.18,8.94,8.94,0,0,1,16.58,4.52h.15a8.24,8.24,0,1,1,0,16.48H366.11A4.82,4.82,0,0,1,361.41,118.1Z" style="fill:#f0f0f0"></path><path d="M61.29,171.72a4.83,4.83,0,0,1,4.83-4.83,4.92,4.92,0,0,1,1.39.2,10.21,10.21,0,0,1,10.12-11.71,10.6,10.6,0,0,1,1.88.17,8.94,8.94,0,0,1,16.58,4.52h.15a8.24,8.24,0,1,1,0,16.48H66A4.82,4.82,0,0,1,61.29,171.72Z" style="fill:#f0f0f0"></path><path d="M274.37,142.66a7.65,7.65,0,0,0-7.64-7.65,7.54,7.54,0,0,0-2.19.33,16.56,16.56,0,0,0,.17-2.35,16.17,16.17,0,0,0-19.17-15.9,14.14,14.14,0,0,0-26.23,7.15l-.23,0a13,13,0,0,0,0,26.08H267A7.64,7.64,0,0,0,274.37,142.66Z" style="fill:#f0f0f0"></path><path d="M305.5,92.25a3,3,0,0,1,3-3,2.71,2.71,0,0,1,.86.13,7.14,7.14,0,0,1-.07-.93,6.36,6.36,0,0,1,6.36-6.36,6.45,6.45,0,0,1,1.17.11A5.56,5.56,0,0,1,327.14,85h.09a5.13,5.13,0,1,1,0,10.25H308.42A3,3,0,0,1,305.5,92.25Z" style="fill:#f0f0f0"></path><path d="M128.08,93.77a3,3,0,0,0-3-3,3,3,0,0,0-.86.12,7,7,0,0,0,.07-.92,6.36,6.36,0,0,0-6.36-6.36,6.45,6.45,0,0,0-1.17.11,5.56,5.56,0,0,0-10.31,2.81h-.09a5.12,5.12,0,1,0,0,10.24h18.81A3,3,0,0,0,128.08,93.77Z" style="fill:#f0f0f0"></path><path d="M443.54,168a3,3,0,0,0-3-3,3.16,3.16,0,0,0-.87.13,5.62,5.62,0,0,0,.07-.92,6.36,6.36,0,0,0-6.36-6.36,6.45,6.45,0,0,0-1.17.11,5.56,5.56,0,0,0-10.31,2.81h-.09a5.13,5.13,0,0,0,0,10.25h18.81A3,3,0,0,0,443.54,168Z" style="fill:#f0f0f0"></path><path d="M236.1,381.83S220.52,367,216.16,366.69s-10.68,6.17-15.82,5.32-7.13,4.58-17.61,5.49-29.53-10.56-32.27-10.82-13.2,10.61-19.64,11.17S121,373.59,114.56,374s-15.49,3.83-16.68,2.26S84.43,361,79.68,360.17,65,376.1,62.46,374s-14.25,7.8-14.25,7.8Z" style="fill:#e6e6e6"></path></g><g id="freepik--Shadow--inject-225"><ellipse id="freepik--path--inject-225" cx="250" cy="416.24" rx="193.89" ry="11.32" style="fill:#f5f5f5"></ellipse></g><g id="freepik--Trees--inject-225"><path d="M342.2,381.49a299.46,299.46,0,0,0-8.4-49l1.43-1.07s6.17,10,12.35,48.79Z" style="fill:#4468E2"></path><path d="M332,326.06c-3.3-1.84-7.74,1.79-8,7a10.27,10.27,0,0,1,1.4-.79c.15-1.31.3-2.48.3-2.48v2.34c.28-.12.57-.24.89-.35l.13-1.27.19,1.16a11.38,11.38,0,0,1,1.34-.34l.32-3.69.57,3.56a9.27,9.27,0,0,1,1.4,0l.19-2.51.18,2.53a7.41,7.41,0,0,1,1.21.19l.16-3.74s.14,2.08.29,3.85a9.69,9.69,0,0,1,3.18,1.57v-.46S335,327.74,332,326.06Z" style="fill:#4468E2"></path><path d="M336.24,324.09c2.3-3,7.81-1.43,10.12,3.22a10.73,10.73,0,0,0-1.6-.17C344.1,326,343.5,325,343.5,325l.93,2.14c-.3,0-.62,0-1,0l-.62-1.12.29,1.14a12.08,12.08,0,0,0-1.36.23L340,324.16l.9,3.49a10.8,10.8,0,0,0-1.31.52l-1.16-2.23.84,2.4a9.35,9.35,0,0,0-1,.65l-1.64-3.36s.7,2,1.26,3.65a9.86,9.86,0,0,0-2.29,2.7l-.18-.42S334.13,326.83,336.24,324.09Z" style="fill:#4468E2"></path><path d="M339.14,330.61c-2.69-2.27-4.43,0-4.43,0a5.53,5.53,0,0,1,2.64,1.44l.31-.47v.76c.19.19.37.39.55.59l.48-1.35-.12,1.79c.26.32.5.66.72,1l.16-1.32.1,1.72c.24.38.46.75.65,1.09l.1-2.4.26,3.08c.47.92.73,1.57.73,1.57S341.83,332.88,339.14,330.61Z" style="fill:#4468E2"></path><path d="M332.77,336.9l.54.26c.05-.41.1-.83.17-1.27l-.4-.62.47.25c0-.15.05-.29.08-.43l-.55-1.24.72.46a5.84,5.84,0,0,1,1.22-2.73s-5.63,2.26-1.92,8.24c0,0,0-1,.17-2.3Z" style="fill:#4468E2"></path><path d="M338.07,331.4l.8-1.8-.25,1.84.28,0,1.09-1.58-.17,1.74a9.67,9.67,0,0,1,1.23.35c.43.16.87.34,1.29.54l.47-1.56-.15,1.72c.42.21.82.43,1.21.66l.19-1.36.08,1.53q.72.45,1.35.9l-.21-2.43.55,2.67c.42.32.81.62,1.14.89l-.08-1.69.58,2.11c.48.41.75.67.75.67-.66-5.88-3.11-8.05-6.93-8.41S335,332,335,332A6.33,6.33,0,0,1,338.07,331.4Z" style="fill:#4468E2"></path><path d="M327.57,339.4l.47,1.73c.13-.44.32-1,.56-1.66l-.49-2.55.71,2a19.9,19.9,0,0,1,1.34-2.76l-.66-1.74,1,1.26c.16-.24.33-.48.5-.71l-.39-1.1.54.91c.12-.15.24-.3.37-.44l-.48-1.47.68,1.25a6.89,6.89,0,0,1,1.15-1l-.73-1.78,1.06,1.59a4.14,4.14,0,0,1,1.86-.54,6.32,6.32,0,0,0-3.42-2.22c-2.15-.48-6.39,3.65-3.82,11.9,0,0,0-.19.14-.53Z" style="fill:#4468E2"></path><path d="M329.85,322.85l-.28,1.09.4,0,.33-1.41-.18,1.44a2.85,2.85,0,0,1,.8.3l.46-1.92-.2,2.07.3.21.55-1.81-.37,1.95a7.4,7.4,0,0,1,1.38,1.59V323.8l.55,3.49a21.31,21.31,0,0,1,1.43,3.32s-.31-9.38-2.64-10.28S329,324,329,324a1.77,1.77,0,0,1,.31-.07Z" style="fill:#4468E2"></path><path d="M333.83,333l.33,1.76.55-1.76,1,1.28L336,333l1.12.81a8.93,8.93,0,0,0-1.05-3.24C335.32,329.62,333.36,330.5,333.83,333Z" style="fill:#4468E2"></path><path d="M349.76,377.87s-2.18-30.4,9.88-60.81l-1.46-1.29s-13.19,22.7-14.39,62.52Z" style="fill:#4468E2"></path><path d="M362.9,309.09c3.76-2.1,8.82,2,9.12,8a10.61,10.61,0,0,0-1.59-.9c-.17-1.5-.35-2.82-.35-2.82V316c-.31-.14-.64-.27-1-.4l-.15-1.44-.21,1.32a12.18,12.18,0,0,0-1.53-.39l-.37-4.2-.64,4.05a12,12,0,0,0-1.6,0l-.21-2.86-.21,2.89a9.47,9.47,0,0,0-1.37.21l-.19-4.25s-.16,2.37-.33,4.38a11.08,11.08,0,0,0-3.62,1.79v-.52S359.46,311,362.9,309.09Z" style="fill:#4468E2"></path><path d="M358.06,306.85c-2.62-3.43-8.9-1.64-11.53,3.66a11.76,11.76,0,0,1,1.82-.19c.75-1.3,1.44-2.45,1.44-2.45l-1.06,2.44c.34,0,.7,0,1.09,0l.71-1.27-.33,1.3a13.44,13.44,0,0,1,1.55.25l2-3.71-1,4a10.79,10.79,0,0,1,1.49.6l1.32-2.54-.95,2.73a9.16,9.16,0,0,1,1.17.74l1.87-3.83s-.8,2.24-1.44,4.15a11.2,11.2,0,0,1,2.61,3.08l.2-.47S360.46,310,358.06,306.85Z" style="fill:#4468E2"></path><path d="M354.76,314.27c3.06-2.59,5,0,5,0a6.2,6.2,0,0,0-3,1.64l-.35-.53v.86c-.22.22-.43.44-.63.68l-.55-1.54.14,2c-.3.36-.57.74-.83,1.12l-.18-1.5-.12,2c-.27.43-.51.85-.73,1.24l-.12-2.73-.29,3.5c-.54,1.05-.83,1.8-.83,1.8S351.7,316.86,354.76,314.27Z" style="fill:#4468E2"></path><path d="M362,321.43l-.61.3c-.06-.46-.12-1-.2-1.44l.46-.71-.53.28-.09-.49.62-1.41-.82.52a6.69,6.69,0,0,0-1.39-3.1s6.41,2.57,2.19,9.38c0,0,0-1.13-.2-2.62Z" style="fill:#4468E2"></path><path d="M356,315.17l-.9-2.05.28,2.09-.32,0-1.24-1.8.19,2a13.19,13.19,0,0,0-1.4.4c-.49.18-1,.39-1.47.62l-.54-1.78.17,2c-.47.23-.93.49-1.37.75l-.22-1.55-.09,1.75c-.55.33-1.06.68-1.54,1l.24-2.77-.62,3c-.49.36-.93.71-1.3,1l.08-1.92-.66,2.4c-.54.47-.85.77-.85.77.75-6.7,3.54-9.17,7.9-9.58s7.14,4.28,7.14,4.28A7.2,7.2,0,0,0,356,315.17Z" style="fill:#4468E2"></path><path d="M367.94,324.29l-.54,2c-.15-.51-.37-1.17-.64-1.9l.56-2.91-.81,2.27a22.14,22.14,0,0,0-1.53-3.15l.76-2-1.1,1.43c-.18-.27-.37-.54-.57-.8l.45-1.26-.62,1a6.4,6.4,0,0,0-.42-.49l.55-1.67-.78,1.42a7.43,7.43,0,0,0-1.31-1.09l.84-2-1.21,1.81a4.6,4.6,0,0,0-2.12-.6,7.22,7.22,0,0,1,3.89-2.54c2.45-.54,7.29,4.17,4.36,13.56,0,0-.05-.22-.16-.6Z" style="fill:#4468E2"></path><path d="M365.33,305.44l.32,1.24a2.48,2.48,0,0,0-.45,0l-.38-1.61.21,1.64a3.44,3.44,0,0,0-.91.34l-.52-2.18.23,2.35a3.64,3.64,0,0,0-.35.24l-.62-2.05.42,2.21a8.45,8.45,0,0,0-1.57,1.81v-2.95l-.63,4a23.37,23.37,0,0,0-1.63,3.78s.35-10.69,3-11.71,3.81,4.22,3.81,4.22a1.71,1.71,0,0,0-.35-.08Z" style="fill:#4468E2"></path><path d="M360.81,317l-.38,2-.63-2-1.16,1.45-.3-1.45-1.28.92a10,10,0,0,1,1.19-3.69C359.1,313.15,361.34,314.14,360.81,317Z" style="fill:#4468E2"></path><path d="M240.17,380.15a245.82,245.82,0,0,1,6.92-40.37l-1.18-.88s-5.08,8.25-10.17,40.21Z" style="fill:#4468E2"></path><path d="M248.58,334.47c2.73-1.52,6.38,1.47,6.61,5.75a7.79,7.79,0,0,0-1.16-.65c-.12-1.09-.25-2-.25-2v1.92c-.22-.1-.47-.2-.73-.29l-.11-1-.15.95a10,10,0,0,0-1.11-.28l-.26-3-.47,2.94a7.4,7.4,0,0,0-1.16,0l-.15-2.07-.15,2.08a6.8,6.8,0,0,0-1,.16l-.14-3.08s-.11,1.72-.24,3.17a8.1,8.1,0,0,0-2.62,1.3v-.38S246.09,335.85,248.58,334.47Z" style="fill:#4468E2"></path><path d="M245.09,332.84c-1.9-2.47-6.45-1.18-8.35,2.66a7.28,7.28,0,0,1,1.32-.14c.54-.95,1-1.78,1-1.78l-.77,1.77.79,0,.51-.92-.24.94a8,8,0,0,1,1.13.18L242,332.9l-.74,2.88a6.94,6.94,0,0,1,1.08.43l1-1.84-.69,2a8.65,8.65,0,0,1,.85.54l1.35-2.77s-.58,1.62-1.05,3a8,8,0,0,1,1.89,2.24l.15-.35S246.82,335.1,245.09,332.84Z" style="fill:#4468E2"></path><path d="M242.7,338.22c2.21-1.88,3.64,0,3.64,0a4.48,4.48,0,0,0-2.17,1.18l-.26-.39v.63l-.45.49-.4-1.12.1,1.48c-.21.27-.41.54-.59.82l-.13-1.09-.09,1.42c-.2.31-.37.61-.53.9l-.09-2-.21,2.53c-.39.76-.6,1.3-.6,1.3S240.48,340.09,242.7,338.22Z" style="fill:#4468E2"></path><path d="M247.94,343.4l-.44.21c0-.33-.09-.68-.15-1l.33-.51-.38.2-.06-.36.44-1-.58.37a5,5,0,0,0-1-2.25s4.64,1.87,1.58,6.79c0,0,0-.81-.14-1.89Z" style="fill:#4468E2"></path><path d="M243.57,338.87l-.65-1.49.2,1.52-.23,0-.9-1.3.14,1.43a9.39,9.39,0,0,0-1,.3,8.92,8.92,0,0,0-1.07.44l-.39-1.29.13,1.42c-.34.17-.67.36-1,.55l-.16-1.12-.07,1.26c-.4.24-.77.49-1.11.73l.17-2-.45,2.19c-.35.27-.67.51-.94.74l.06-1.39-.48,1.73c-.39.34-.61.56-.61.56.54-4.85,2.56-6.64,5.71-6.94s5.17,3.11,5.17,3.11A5.12,5.12,0,0,0,243.57,338.87Z" style="fill:#4468E2"></path><path d="M252.23,345.46l-.39,1.43c-.11-.37-.26-.85-.46-1.38l.41-2.1-.59,1.64a15.88,15.88,0,0,0-1.11-2.28l.55-1.43-.8,1c-.13-.2-.26-.4-.41-.59l.32-.9-.44.74-.3-.36.39-1.21-.56,1a5.86,5.86,0,0,0-1-.79l.61-1.47-.88,1.31a3.39,3.39,0,0,0-1.53-.44,5.18,5.18,0,0,1,2.81-1.83c1.78-.39,5.28,3,3.16,9.81,0,0,0-.16-.12-.44Z" style="fill:#4468E2"></path><path d="M250.34,331.82l.24.9-.33,0-.28-1.16.16,1.19a2.32,2.32,0,0,0-.66.24l-.38-1.58.16,1.71-.25.17-.45-1.49.31,1.61a6.12,6.12,0,0,0-1.14,1.3V332.6l-.45,2.88a16,16,0,0,0-1.18,2.74s.25-7.74,2.17-8.48S251,332.8,251,332.8a1,1,0,0,0-.25-.06Z" style="fill:#4468E2"></path><path d="M247.07,340.22l-.27,1.45-.46-1.45-.84,1-.22-1-.92.67a7.24,7.24,0,0,1,.86-2.67C245.84,337.4,247.46,338.12,247.07,340.22Z" style="fill:#4468E2"></path><path d="M233.94,377.17s1.8-25.06-8.14-50.12L227,326s10.87,18.71,11.86,51.53Z" style="fill:#4468E2"></path><path d="M223.11,320.48c-3.1-1.73-7.27,1.68-7.52,6.55a9.44,9.44,0,0,1,1.31-.74c.14-1.24.29-2.33.29-2.33v2.2a7.18,7.18,0,0,1,.83-.33l.12-1.19.18,1.09a8.91,8.91,0,0,1,1.26-.32l.3-3.47.53,3.35a8.25,8.25,0,0,1,1.32,0l.17-2.35.18,2.37a7.79,7.79,0,0,1,1.13.18l.15-3.51s.13,2,.27,3.61a9.35,9.35,0,0,1,3,1.48v-.43S225.94,322.05,223.11,320.48Z" style="fill:#4468E2"></path><path d="M227.09,318.63c2.17-2.82,7.34-1.35,9.51,3a9.07,9.07,0,0,0-1.5-.16c-.62-1.07-1.19-2-1.19-2l.88,2-.9,0-.58-1,.27,1.07a10.32,10.32,0,0,0-1.28.21l-1.66-3.06.84,3.28a9.42,9.42,0,0,0-1.22.49l-1.1-2.09.79,2.25a7.81,7.81,0,0,0-1,.61l-1.53-3.16s.65,1.85,1.18,3.42a9.36,9.36,0,0,0-2.15,2.55l-.17-.4S225.12,321.2,227.09,318.63Z" style="fill:#4468E2"></path><path d="M229.82,324.75c-2.53-2.13-4.16,0-4.16,0a5,5,0,0,1,2.48,1.35l.29-.44v.71c.18.18.35.37.51.56l.46-1.27-.11,1.68c.24.3.46.62.67.93l.15-1.24.1,1.62c.22.35.43.69.61,1l.09-2.26.24,2.89c.45.87.69,1.48.69,1.48S232.34,326.88,229.82,324.75Z" style="fill:#4468E2"></path><path d="M223.84,330.65l.51.24c0-.38.09-.78.16-1.18l-.38-.58.44.22c0-.13.05-.27.07-.4l-.51-1.16.67.43a5.5,5.5,0,0,1,1.16-2.56s-5.29,2.12-1.81,7.73c0,0,0-.93.16-2.16Z" style="fill:#4468E2"></path><path d="M228.82,325.49l.74-1.69-.23,1.72.27,0,1-1.47-.16,1.62a10.37,10.37,0,0,1,1.15.34,11.59,11.59,0,0,1,1.22.5l.44-1.46-.14,1.61c.39.2.76.41,1.13.62l.18-1.27.08,1.43q.67.42,1.26.84l-.2-2.27.52,2.5c.4.3.76.58,1.07.83l-.07-1.58.54,2c.45.38.71.63.71.63-.62-5.52-2.92-7.56-6.51-7.9S226,326,226,326A5.84,5.84,0,0,1,228.82,325.49Z" style="fill:#4468E2"></path><path d="M219,333l.44,1.63c.13-.42.3-1,.53-1.57l-.47-2.39.67,1.86a18.61,18.61,0,0,1,1.26-2.59l-.62-1.64.91,1.19c.14-.23.3-.45.46-.67l-.36-1,.5.85c.11-.14.23-.28.35-.41l-.45-1.38.64,1.18a5.38,5.38,0,0,1,1.08-.9l-.69-1.68,1,1.49a4.11,4.11,0,0,1,1.76-.5,5.91,5.91,0,0,0-3.22-2.08c-2-.45-6,3.43-3.59,11.17l.13-.5Z" style="fill:#4468E2"></path><path d="M221.1,317.47l-.26,1a1.67,1.67,0,0,1,.37,0l.31-1.33-.17,1.35a2.8,2.8,0,0,1,.75.28l.43-1.8-.19,1.94.29.2.51-1.69-.34,1.82a6.93,6.93,0,0,1,1.29,1.49v-2.43l.52,3.28a20.94,20.94,0,0,1,1.35,3.12s-.3-8.81-2.49-9.66-3.14,3.48-3.14,3.48a1.19,1.19,0,0,1,.29-.06Z" style="fill:#4468E2"></path><path d="M224.83,327l.31,1.65.52-1.65,1,1.2.25-1.2,1,.76a8.16,8.16,0,0,0-1-3C226.24,323.82,224.39,324.64,224.83,327Z" style="fill:#4468E2"></path><path d="M418.28,380.19s2.24-34.75,13.72-80l-2.33-1.76s-10.07,16.35-20.17,79.71Z" style="fill:#4468E2"></path><path d="M435,289.65c5.4-3,12.65,2.92,13.09,11.4a16,16,0,0,0-2.29-1.29c-.24-2.15-.49-4.05-.49-4.05v3.82c-.45-.2-.93-.39-1.45-.58l-.21-2.07-.31,1.9a16.68,16.68,0,0,0-2.19-.55l-.53-6-.92,5.82a15.85,15.85,0,0,0-2.3-.07l-.3-4.09-.3,4.13a15.75,15.75,0,0,0-2,.31l-.27-6.1s-.22,3.4-.47,6.28a15.87,15.87,0,0,0-5.19,2.57v-.75S430,292.39,435,289.65Z" style="fill:#4468E2"></path><path d="M428,286.43c-3.76-4.9-12.77-2.34-16.54,5.26a16.63,16.63,0,0,1,2.61-.28c1.08-1.86,2.07-3.51,2.07-3.51l-1.52,3.5c.48,0,1,0,1.56.05l1-1.81-.47,1.86a17.18,17.18,0,0,1,2.23.36l2.88-5.32-1.46,5.71a15,15,0,0,1,2.13.85l1.9-3.64-1.36,3.91a14.75,14.75,0,0,1,1.68,1.07l2.67-5.49s-1.15,3.21-2.07,5.95a16,16,0,0,1,3.75,4.42l.3-.69S431.46,290.91,428,286.43Z" style="fill:#4468E2"></path><path d="M423.29,297.08c4.4-3.71,7.23,0,7.23,0a9,9,0,0,0-4.31,2.35l-.5-.77v1.25c-.31.3-.61.63-.9,1l-.78-2.21.19,2.93c-.42.53-.81,1.07-1.18,1.61l-.26-2.15-.17,2.82c-.39.61-.74,1.21-1.05,1.77l-.17-3.92-.42,5c-.77,1.5-1.19,2.57-1.19,2.57S418.9,300.79,423.29,297.08Z" style="fill:#4468E2"></path><path d="M433.69,307.35l-.88.42c-.08-.66-.17-1.35-.28-2.06l.65-1-.76.39c0-.23-.08-.47-.13-.7l.89-2-1.16.74a9.71,9.71,0,0,0-2-4.46s9.2,3.69,3.15,13.46c0,0-.06-1.62-.28-3.76Z" style="fill:#4468E2"></path><path d="M425,298.38l-1.3-2.95.41,3-.46.05-1.78-2.57.28,2.83a16.38,16.38,0,0,0-2,.58,21.38,21.38,0,0,0-2.11.88l-.77-2.55.24,2.81c-.67.34-1.33.7-2,1.08l-.31-2.22-.14,2.5c-.77.48-1.51,1-2.19,1.46l.34-4-.89,4.36c-.7.51-1.33,1-1.87,1.45l.12-2.75-.94,3.44c-.78.66-1.23,1.09-1.23,1.09,1.08-9.6,5.08-13.15,11.33-13.74S430,299.32,430,299.32A10.28,10.28,0,0,0,425,298.38Z" style="fill:#4468E2"></path><path d="M442.19,311.44l-.77,2.83c-.22-.73-.53-1.67-.92-2.73l.81-4.16-1.16,3.25a32.27,32.27,0,0,0-2.2-4.52l1.09-2.84-1.58,2.05c-.26-.39-.53-.78-.81-1.15l.63-1.79-.88,1.47c-.19-.24-.39-.48-.6-.71l.79-2.4-1.12,2.05a10.53,10.53,0,0,0-1.87-1.57l1.19-2.92s-.78,1.16-1.73,2.6A6.73,6.73,0,0,0,430,300a10.35,10.35,0,0,1,5.59-3.63c3.51-.78,10.45,6,6.25,19.43,0,0-.08-.31-.23-.86Z" style="fill:#4468E2"></path><path d="M438.46,284.41l.45,1.78a3.81,3.81,0,0,0-.64.05l-.55-2.32.31,2.36a4.75,4.75,0,0,0-1.31.49l-.75-3.13.33,3.37a5.05,5.05,0,0,0-.5.35l-.89-2.95.6,3.18a11.91,11.91,0,0,0-2.25,2.59V286l-.9,5.71a33.93,33.93,0,0,0-2.35,5.42s.51-15.33,4.32-16.8,5.47,6.06,5.47,6.06a1.94,1.94,0,0,0-.5-.12Z" style="fill:#4468E2"></path><path d="M432,301.05l-.54,2.88-.9-2.88-1.66,2.08-.44-2.08-1.83,1.33s.48-3.69,1.7-5.3S432.73,296.89,432,301.05Z" style="fill:#4468E2"></path><path d="M405.93,379.28S409.5,329.62,389.8,280l2.38-2.12S413.73,314.91,415.69,380Z" style="fill:#4468E2"></path><path d="M384.48,266.92c-6.15-3.42-14.41,3.33-14.91,13a18,18,0,0,1,2.6-1.47c.29-2.44.57-4.61.57-4.61v4.35q.75-.35,1.65-.66l.24-2.35.35,2.15a21.07,21.07,0,0,1,2.49-.62l.61-6.87,1.05,6.63a17.36,17.36,0,0,1,2.62-.08l.33-4.66.35,4.71a16.48,16.48,0,0,1,2.24.35l.31-6.95s.25,3.87.53,7.16a18,18,0,0,1,5.92,2.92v-.85S390.09,270.05,384.48,266.92Z" style="fill:#4468E2"></path><path d="M392.37,263.26c4.29-5.59,14.55-2.67,18.85,6a19.3,19.3,0,0,0-3-.32c-1.23-2.12-2.35-4-2.35-4l1.73,4c-.55,0-1.15,0-1.78.06l-1.15-2.07.53,2.12a20.73,20.73,0,0,0-2.53.41l-3.29-6.06,1.67,6.5a18.17,18.17,0,0,0-2.43,1l-2.16-4.15,1.55,4.46a15.32,15.32,0,0,0-1.92,1.21l-3-6.26s1.31,3.66,2.35,6.78a18.26,18.26,0,0,0-4.26,5l-.34-.78S388.46,268.36,392.37,263.26Z" style="fill:#4468E2"></path><path d="M397.77,275.39c-5-4.23-8.23,0-8.23,0a10.25,10.25,0,0,1,4.9,2.67l.58-.87v1.42c.35.35.69.72,1,1.1l.9-2.52-.22,3.34c.47.6.92,1.22,1.34,1.83l.29-2.45.2,3.21c.44.69.84,1.38,1.2,2l.19-4.47.48,5.73c.88,1.72,1.35,2.93,1.35,2.93S402.78,279.62,397.77,275.39Z" style="fill:#4468E2"></path><path d="M385.92,287.08l1,.49c.09-.75.19-1.55.32-2.35l-.74-1.15.86.45.15-.8-1-2.3,1.32.85c.53-2.17,1.26-4.11,2.29-5.08,0,0-10.48,4.21-3.59,15.33,0,0,.07-1.84.32-4.28Z" style="fill:#4468E2"></path><path d="M395.79,276.86l1.48-3.35-.46,3.42.52.05,2-2.93-.32,3.23a19.74,19.74,0,0,1,2.29.66c.81.29,1.61.63,2.4,1l.88-2.9-.27,3.2c.76.39,1.51.8,2.24,1.23l.35-2.53.16,2.85c.89.54,1.73,1.11,2.5,1.66l-.39-4.51,1,5c.8.58,1.51,1.15,2.13,1.65l-.15-3.14,1.08,3.92c.89.76,1.4,1.25,1.4,1.25-1.23-10.93-5.79-15-12.91-15.65s-11.65,7-11.65,7A11.65,11.65,0,0,1,395.79,276.86Z" style="fill:#4468E2"></path><path d="M376.24,291.75l.88,3.22c.25-.83.6-1.91,1.05-3.1l-.92-4.75,1.32,3.7a37.21,37.21,0,0,1,2.5-5.14l-1.24-3.24,1.8,2.34c.3-.45.6-.89.92-1.31l-.72-2.05,1,1.68c.22-.28.45-.54.68-.8l-.89-2.74,1.27,2.33A11.62,11.62,0,0,1,386,280.1l-1.37-3.32,2,3a7.71,7.71,0,0,1,3.47-1,11.81,11.81,0,0,0-6.37-4.13c-4-.89-11.9,6.8-7.12,22.14,0,0,.09-.36.26-1Z" style="fill:#4468E2"></path><path d="M380.5,261l-.52,2a4,4,0,0,1,.73.06l.62-2.64-.34,2.69a5.61,5.61,0,0,1,1.49.55l.86-3.56-.38,3.84a6.58,6.58,0,0,1,.57.4l1-3.36-.68,3.62a13.58,13.58,0,0,1,2.56,2.95v-4.82l1,6.5a40.1,40.1,0,0,1,2.67,6.18s-.58-17.47-4.92-19.13-6.23,6.89-6.23,6.89a2.64,2.64,0,0,1,.57-.13Z" style="fill:#4468E2"></path><path d="M387.9,279.91l.61,3.28,1-3.28,1.89,2.37.5-2.37,2.09,1.51s-.55-4.2-1.95-6S387,275.18,387.9,279.91Z" style="fill:#4468E2"></path><g style="opacity:0.6000000000000001"><path d="M342.2,381.49a299.46,299.46,0,0,0-8.4-49l1.43-1.07s6.17,10,12.35,48.79Z" style="fill:#fff"></path><path d="M332,326.06c-3.3-1.84-7.74,1.79-8,7a10.27,10.27,0,0,1,1.4-.79c.15-1.31.3-2.48.3-2.48v2.34c.28-.12.57-.24.89-.35l.13-1.27.19,1.16a11.38,11.38,0,0,1,1.34-.34l.32-3.69.57,3.56a9.27,9.27,0,0,1,1.4,0l.19-2.51.18,2.53a7.41,7.41,0,0,1,1.21.19l.16-3.74s.14,2.08.29,3.85a9.69,9.69,0,0,1,3.18,1.57v-.46S335,327.74,332,326.06Z" style="fill:#fff"></path><path d="M336.24,324.09c2.3-3,7.81-1.43,10.12,3.22a10.73,10.73,0,0,0-1.6-.17C344.1,326,343.5,325,343.5,325l.93,2.14c-.3,0-.62,0-1,0l-.62-1.12.29,1.14a12.08,12.08,0,0,0-1.36.23L340,324.16l.9,3.49a10.8,10.8,0,0,0-1.31.52l-1.16-2.23.84,2.4a9.35,9.35,0,0,0-1,.65l-1.64-3.36s.7,2,1.26,3.65a9.86,9.86,0,0,0-2.29,2.7l-.18-.42S334.13,326.83,336.24,324.09Z" style="fill:#fff"></path><path d="M339.14,330.61c-2.69-2.27-4.43,0-4.43,0a5.53,5.53,0,0,1,2.64,1.44l.31-.47v.76c.19.19.37.39.55.59l.48-1.35-.12,1.79c.26.32.5.66.72,1l.16-1.32.1,1.72c.24.38.46.75.65,1.09l.1-2.4.26,3.08c.47.92.73,1.57.73,1.57S341.83,332.88,339.14,330.61Z" style="fill:#fff"></path><path d="M332.77,336.9l.54.26c.05-.41.1-.83.17-1.27l-.4-.62.47.25c0-.15.05-.29.08-.43l-.55-1.24.72.46a5.84,5.84,0,0,1,1.22-2.73s-5.63,2.26-1.92,8.24c0,0,0-1,.17-2.3Z" style="fill:#fff"></path><path d="M338.07,331.4l.8-1.8-.25,1.84.28,0,1.09-1.58-.17,1.74a9.67,9.67,0,0,1,1.23.35c.43.16.87.34,1.29.54l.47-1.56-.15,1.72c.42.21.82.43,1.21.66l.19-1.36.08,1.53q.72.45,1.35.9l-.21-2.43.55,2.67c.42.32.81.62,1.14.89l-.08-1.69.58,2.11c.48.41.75.67.75.67-.66-5.88-3.11-8.05-6.93-8.41S335,332,335,332A6.33,6.33,0,0,1,338.07,331.4Z" style="fill:#fff"></path><path d="M327.57,339.4l.47,1.73c.13-.44.32-1,.56-1.66l-.49-2.55.71,2a19.9,19.9,0,0,1,1.34-2.76l-.66-1.74,1,1.26c.16-.24.33-.48.5-.71l-.39-1.1.54.91c.12-.15.24-.3.37-.44l-.48-1.47.68,1.25a6.89,6.89,0,0,1,1.15-1l-.73-1.78,1.06,1.59a4.14,4.14,0,0,1,1.86-.54,6.32,6.32,0,0,0-3.42-2.22c-2.15-.48-6.39,3.65-3.82,11.9,0,0,0-.19.14-.53Z" style="fill:#fff"></path><path d="M329.85,322.85l-.28,1.09.4,0,.33-1.41-.18,1.44a2.85,2.85,0,0,1,.8.3l.46-1.92-.2,2.07.3.21.55-1.81-.37,1.95a7.4,7.4,0,0,1,1.38,1.59V323.8l.55,3.49a21.31,21.31,0,0,1,1.43,3.32s-.31-9.38-2.64-10.28S329,324,329,324a1.77,1.77,0,0,1,.31-.07Z" style="fill:#fff"></path><path d="M333.83,333l.33,1.76.55-1.76,1,1.28L336,333l1.12.81a8.93,8.93,0,0,0-1.05-3.24C335.32,329.62,333.36,330.5,333.83,333Z" style="fill:#fff"></path><path d="M349.76,377.87s-2.18-30.4,9.88-60.81l-1.46-1.29s-13.19,22.7-14.39,62.52Z" style="fill:#fff"></path><path d="M362.9,309.09c3.76-2.1,8.82,2,9.12,8a10.61,10.61,0,0,0-1.59-.9c-.17-1.5-.35-2.82-.35-2.82V316c-.31-.14-.64-.27-1-.4l-.15-1.44-.21,1.32a12.18,12.18,0,0,0-1.53-.39l-.37-4.2-.64,4.05a12,12,0,0,0-1.6,0l-.21-2.86-.21,2.89a9.47,9.47,0,0,0-1.37.21l-.19-4.25s-.16,2.37-.33,4.38a11.08,11.08,0,0,0-3.62,1.79v-.52S359.46,311,362.9,309.09Z" style="fill:#fff"></path><path d="M358.06,306.85c-2.62-3.43-8.9-1.64-11.53,3.66a11.76,11.76,0,0,1,1.82-.19c.75-1.3,1.44-2.45,1.44-2.45l-1.06,2.44c.34,0,.7,0,1.09,0l.71-1.27-.33,1.3a13.44,13.44,0,0,1,1.55.25l2-3.71-1,4a10.79,10.79,0,0,1,1.49.6l1.32-2.54-.95,2.73a9.16,9.16,0,0,1,1.17.74l1.87-3.83s-.8,2.24-1.44,4.15a11.2,11.2,0,0,1,2.61,3.08l.2-.47S360.46,310,358.06,306.85Z" style="fill:#fff"></path><path d="M354.76,314.27c3.06-2.59,5,0,5,0a6.2,6.2,0,0,0-3,1.64l-.35-.53v.86c-.22.22-.43.44-.63.68l-.55-1.54.14,2c-.3.36-.57.74-.83,1.12l-.18-1.5-.12,2c-.27.43-.51.85-.73,1.24l-.12-2.73-.29,3.5c-.54,1.05-.83,1.8-.83,1.8S351.7,316.86,354.76,314.27Z" style="fill:#fff"></path><path d="M362,321.43l-.61.3c-.06-.46-.12-1-.2-1.44l.46-.71-.53.28-.09-.49.62-1.41-.82.52a6.69,6.69,0,0,0-1.39-3.1s6.41,2.57,2.19,9.38c0,0,0-1.13-.2-2.62Z" style="fill:#fff"></path><path d="M356,315.17l-.9-2.05.28,2.09-.32,0-1.24-1.8.19,2a13.19,13.19,0,0,0-1.4.4c-.49.18-1,.39-1.47.62l-.54-1.78.17,2c-.47.23-.93.49-1.37.75l-.22-1.55-.09,1.75c-.55.33-1.06.68-1.54,1l.24-2.77-.62,3c-.49.36-.93.71-1.3,1l.08-1.92-.66,2.4c-.54.47-.85.77-.85.77.75-6.7,3.54-9.17,7.9-9.58s7.14,4.28,7.14,4.28A7.2,7.2,0,0,0,356,315.17Z" style="fill:#fff"></path><path d="M367.94,324.29l-.54,2c-.15-.51-.37-1.17-.64-1.9l.56-2.91-.81,2.27a22.14,22.14,0,0,0-1.53-3.15l.76-2-1.1,1.43c-.18-.27-.37-.54-.57-.8l.45-1.26-.62,1a6.4,6.4,0,0,0-.42-.49l.55-1.67-.78,1.42a7.43,7.43,0,0,0-1.31-1.09l.84-2-1.21,1.81a4.6,4.6,0,0,0-2.12-.6,7.22,7.22,0,0,1,3.89-2.54c2.45-.54,7.29,4.17,4.36,13.56,0,0-.05-.22-.16-.6Z" style="fill:#fff"></path><path d="M365.33,305.44l.32,1.24a2.48,2.48,0,0,0-.45,0l-.38-1.61.21,1.64a3.44,3.44,0,0,0-.91.34l-.52-2.18.23,2.35a3.64,3.64,0,0,0-.35.24l-.62-2.05.42,2.21a8.45,8.45,0,0,0-1.57,1.81v-2.95l-.63,4a23.37,23.37,0,0,0-1.63,3.78s.35-10.69,3-11.71,3.81,4.22,3.81,4.22a1.71,1.71,0,0,0-.35-.08Z" style="fill:#fff"></path><path d="M360.81,317l-.38,2-.63-2-1.16,1.45-.3-1.45-1.28.92a10,10,0,0,1,1.19-3.69C359.1,313.15,361.34,314.14,360.81,317Z" style="fill:#fff"></path></g><g style="opacity:0.6000000000000001"><path d="M240.17,380.15a245.82,245.82,0,0,1,6.92-40.37l-1.18-.88s-5.08,8.25-10.17,40.21Z" style="fill:#fff"></path><path d="M248.58,334.47c2.73-1.52,6.38,1.47,6.61,5.75a7.79,7.79,0,0,0-1.16-.65c-.12-1.09-.25-2-.25-2v1.92c-.22-.1-.47-.2-.73-.29l-.11-1-.15.95a10,10,0,0,0-1.11-.28l-.26-3-.47,2.94a7.4,7.4,0,0,0-1.16,0l-.15-2.07-.15,2.08a6.8,6.8,0,0,0-1,.16l-.14-3.08s-.11,1.72-.24,3.17a8.1,8.1,0,0,0-2.62,1.3v-.38S246.09,335.85,248.58,334.47Z" style="fill:#fff"></path><path d="M245.09,332.84c-1.9-2.47-6.45-1.18-8.35,2.66a7.28,7.28,0,0,1,1.32-.14c.54-.95,1-1.78,1-1.78l-.77,1.77.79,0,.51-.92-.24.94a8,8,0,0,1,1.13.18L242,332.9l-.74,2.88a6.94,6.94,0,0,1,1.08.43l1-1.84-.69,2a8.65,8.65,0,0,1,.85.54l1.35-2.77s-.58,1.62-1.05,3a8,8,0,0,1,1.89,2.24l.15-.35S246.82,335.1,245.09,332.84Z" style="fill:#fff"></path><path d="M242.7,338.22c2.21-1.88,3.64,0,3.64,0a4.48,4.48,0,0,0-2.17,1.18l-.26-.39v.63l-.45.49-.4-1.12.1,1.48c-.21.27-.41.54-.59.82l-.13-1.09-.09,1.42c-.2.31-.37.61-.53.9l-.09-2-.21,2.53c-.39.76-.6,1.3-.6,1.3S240.48,340.09,242.7,338.22Z" style="fill:#fff"></path><path d="M247.94,343.4l-.44.21c0-.33-.09-.68-.15-1l.33-.51-.38.2-.06-.36.44-1-.58.37a5,5,0,0,0-1-2.25s4.64,1.87,1.58,6.79c0,0,0-.81-.14-1.89Z" style="fill:#fff"></path><path d="M243.57,338.87l-.65-1.49.2,1.52-.23,0-.9-1.3.14,1.43a9.39,9.39,0,0,0-1,.3,8.92,8.92,0,0,0-1.07.44l-.39-1.29.13,1.42c-.34.17-.67.36-1,.55l-.16-1.12-.07,1.26c-.4.24-.77.49-1.11.73l.17-2-.45,2.19c-.35.27-.67.51-.94.74l.06-1.39-.48,1.73c-.39.34-.61.56-.61.56.54-4.85,2.56-6.64,5.71-6.94s5.17,3.11,5.17,3.11A5.12,5.12,0,0,0,243.57,338.87Z" style="fill:#fff"></path><path d="M252.23,345.46l-.39,1.43c-.11-.37-.26-.85-.46-1.38l.41-2.1-.59,1.64a15.88,15.88,0,0,0-1.11-2.28l.55-1.43-.8,1c-.13-.2-.26-.4-.41-.59l.32-.9-.44.74-.3-.36.39-1.21-.56,1a5.86,5.86,0,0,0-1-.79l.61-1.47-.88,1.31a3.39,3.39,0,0,0-1.53-.44,5.18,5.18,0,0,1,2.81-1.83c1.78-.39,5.28,3,3.16,9.81,0,0,0-.16-.12-.44Z" style="fill:#fff"></path><path d="M250.34,331.82l.24.9-.33,0-.28-1.16.16,1.19a2.32,2.32,0,0,0-.66.24l-.38-1.58.16,1.71-.25.17-.45-1.49.31,1.61a6.12,6.12,0,0,0-1.14,1.3V332.6l-.45,2.88a16,16,0,0,0-1.18,2.74s.25-7.74,2.17-8.48S251,332.8,251,332.8a1,1,0,0,0-.25-.06Z" style="fill:#fff"></path><path d="M247.07,340.22l-.27,1.45-.46-1.45-.84,1-.22-1-.92.67a7.24,7.24,0,0,1,.86-2.67C245.84,337.4,247.46,338.12,247.07,340.22Z" style="fill:#fff"></path><path d="M233.94,377.17s1.8-25.06-8.14-50.12L227,326s10.87,18.71,11.86,51.53Z" style="fill:#fff"></path><path d="M223.11,320.48c-3.1-1.73-7.27,1.68-7.52,6.55a9.44,9.44,0,0,1,1.31-.74c.14-1.24.29-2.33.29-2.33v2.2a7.18,7.18,0,0,1,.83-.33l.12-1.19.18,1.09a8.91,8.91,0,0,1,1.26-.32l.3-3.47.53,3.35a8.25,8.25,0,0,1,1.32,0l.17-2.35.18,2.37a7.79,7.79,0,0,1,1.13.18l.15-3.51s.13,2,.27,3.61a9.35,9.35,0,0,1,3,1.48v-.43S225.94,322.05,223.11,320.48Z" style="fill:#fff"></path><path d="M227.09,318.63c2.17-2.82,7.34-1.35,9.51,3a9.07,9.07,0,0,0-1.5-.16c-.62-1.07-1.19-2-1.19-2l.88,2-.9,0-.58-1,.27,1.07a10.32,10.32,0,0,0-1.28.21l-1.66-3.06.84,3.28a9.42,9.42,0,0,0-1.22.49l-1.1-2.09.79,2.25a7.81,7.81,0,0,0-1,.61l-1.53-3.16s.65,1.85,1.18,3.42a9.36,9.36,0,0,0-2.15,2.55l-.17-.4S225.12,321.2,227.09,318.63Z" style="fill:#fff"></path><path d="M229.82,324.75c-2.53-2.13-4.16,0-4.16,0a5,5,0,0,1,2.48,1.35l.29-.44v.71c.18.18.35.37.51.56l.46-1.27-.11,1.68c.24.3.46.62.67.93l.15-1.24.1,1.62c.22.35.43.69.61,1l.09-2.26.24,2.89c.45.87.69,1.48.69,1.48S232.34,326.88,229.82,324.75Z" style="fill:#fff"></path><path d="M223.84,330.65l.51.24c0-.38.09-.78.16-1.18l-.38-.58.44.22c0-.13.05-.27.07-.4l-.51-1.16.67.43a5.5,5.5,0,0,1,1.16-2.56s-5.29,2.12-1.81,7.73c0,0,0-.93.16-2.16Z" style="fill:#fff"></path><path d="M228.82,325.49l.74-1.69-.23,1.72.27,0,1-1.47-.16,1.62a10.37,10.37,0,0,1,1.15.34,11.59,11.59,0,0,1,1.22.5l.44-1.46-.14,1.61c.39.2.76.41,1.13.62l.18-1.27.08,1.43q.67.42,1.26.84l-.2-2.27.52,2.5c.4.3.76.58,1.07.83l-.07-1.58.54,2c.45.38.71.63.71.63-.62-5.52-2.92-7.56-6.51-7.9S226,326,226,326A5.84,5.84,0,0,1,228.82,325.49Z" style="fill:#fff"></path><path d="M219,333l.44,1.63c.13-.42.3-1,.53-1.57l-.47-2.39.67,1.86a18.61,18.61,0,0,1,1.26-2.59l-.62-1.64.91,1.19c.14-.23.3-.45.46-.67l-.36-1,.5.85c.11-.14.23-.28.35-.41l-.45-1.38.64,1.18a5.38,5.38,0,0,1,1.08-.9l-.69-1.68,1,1.49a4.11,4.11,0,0,1,1.76-.5,5.91,5.91,0,0,0-3.22-2.08c-2-.45-6,3.43-3.59,11.17l.13-.5Z" style="fill:#fff"></path><path d="M221.1,317.47l-.26,1a1.67,1.67,0,0,1,.37,0l.31-1.33-.17,1.35a2.8,2.8,0,0,1,.75.28l.43-1.8-.19,1.94.29.2.51-1.69-.34,1.82a6.93,6.93,0,0,1,1.29,1.49v-2.43l.52,3.28a20.94,20.94,0,0,1,1.35,3.12s-.3-8.81-2.49-9.66-3.14,3.48-3.14,3.48a1.19,1.19,0,0,1,.29-.06Z" style="fill:#fff"></path><path d="M224.83,327l.31,1.65.52-1.65,1,1.2.25-1.2,1,.76a8.16,8.16,0,0,0-1-3C226.24,323.82,224.39,324.64,224.83,327Z" style="fill:#fff"></path></g><g style="opacity:0.6000000000000001"><path d="M418.28,380.19s2.24-34.75,13.72-80l-2.33-1.76s-10.07,16.35-20.17,79.71Z" style="fill:#fff"></path><path d="M435,289.65c5.4-3,12.65,2.92,13.09,11.4a16,16,0,0,0-2.29-1.29c-.24-2.15-.49-4.05-.49-4.05v3.82c-.45-.2-.93-.39-1.45-.58l-.21-2.07-.31,1.9a16.68,16.68,0,0,0-2.19-.55l-.53-6-.92,5.82a15.85,15.85,0,0,0-2.3-.07l-.3-4.09-.3,4.13a15.75,15.75,0,0,0-2,.31l-.27-6.1s-.22,3.4-.47,6.28a15.87,15.87,0,0,0-5.19,2.57v-.75S430,292.39,435,289.65Z" style="fill:#fff"></path><path d="M428,286.43c-3.76-4.9-12.77-2.34-16.54,5.26a16.63,16.63,0,0,1,2.61-.28c1.08-1.86,2.07-3.51,2.07-3.51l-1.52,3.5c.48,0,1,0,1.56.05l1-1.81-.47,1.86a17.18,17.18,0,0,1,2.23.36l2.88-5.32-1.46,5.71a15,15,0,0,1,2.13.85l1.9-3.64-1.36,3.91a14.75,14.75,0,0,1,1.68,1.07l2.67-5.49s-1.15,3.21-2.07,5.95a16,16,0,0,1,3.75,4.42l.3-.69S431.46,290.91,428,286.43Z" style="fill:#fff"></path><path d="M423.29,297.08c4.4-3.71,7.23,0,7.23,0a9,9,0,0,0-4.31,2.35l-.5-.77v1.25c-.31.3-.61.63-.9,1l-.78-2.21.19,2.93c-.42.53-.81,1.07-1.18,1.61l-.26-2.15-.17,2.82c-.39.61-.74,1.21-1.05,1.77l-.17-3.92-.42,5c-.77,1.5-1.19,2.57-1.19,2.57S418.9,300.79,423.29,297.08Z" style="fill:#fff"></path><path d="M433.69,307.35l-.88.42c-.08-.66-.17-1.35-.28-2.06l.65-1-.76.39c0-.23-.08-.47-.13-.7l.89-2-1.16.74a9.71,9.71,0,0,0-2-4.46s9.2,3.69,3.15,13.46c0,0-.06-1.62-.28-3.76Z" style="fill:#fff"></path><path d="M425,298.38l-1.3-2.95.41,3-.46.05-1.78-2.57.28,2.83a16.38,16.38,0,0,0-2,.58,21.38,21.38,0,0,0-2.11.88l-.77-2.55.24,2.81c-.67.34-1.33.7-2,1.08l-.31-2.22-.14,2.5c-.77.48-1.51,1-2.19,1.46l.34-4-.89,4.36c-.7.51-1.33,1-1.87,1.45l.12-2.75-.94,3.44c-.78.66-1.23,1.09-1.23,1.09,1.08-9.6,5.08-13.15,11.33-13.74S430,299.32,430,299.32A10.28,10.28,0,0,0,425,298.38Z" style="fill:#fff"></path><path d="M442.19,311.44l-.77,2.83c-.22-.73-.53-1.67-.92-2.73l.81-4.16-1.16,3.25a32.27,32.27,0,0,0-2.2-4.52l1.09-2.84-1.58,2.05c-.26-.39-.53-.78-.81-1.15l.63-1.79-.88,1.47c-.19-.24-.39-.48-.6-.71l.79-2.4-1.12,2.05a10.53,10.53,0,0,0-1.87-1.57l1.19-2.92s-.78,1.16-1.73,2.6A6.73,6.73,0,0,0,430,300a10.35,10.35,0,0,1,5.59-3.63c3.51-.78,10.45,6,6.25,19.43,0,0-.08-.31-.23-.86Z" style="fill:#fff"></path><path d="M438.46,284.41l.45,1.78a3.81,3.81,0,0,0-.64.05l-.55-2.32.31,2.36a4.75,4.75,0,0,0-1.31.49l-.75-3.13.33,3.37a5.05,5.05,0,0,0-.5.35l-.89-2.95.6,3.18a11.91,11.91,0,0,0-2.25,2.59V286l-.9,5.71a33.93,33.93,0,0,0-2.35,5.42s.51-15.33,4.32-16.8,5.47,6.06,5.47,6.06a1.94,1.94,0,0,0-.5-.12Z" style="fill:#fff"></path><path d="M432,301.05l-.54,2.88-.9-2.88-1.66,2.08-.44-2.08-1.83,1.33s.48-3.69,1.7-5.3S432.73,296.89,432,301.05Z" style="fill:#fff"></path><path d="M405.93,379.28S409.5,329.62,389.8,280l2.38-2.12S413.73,314.91,415.69,380Z" style="fill:#fff"></path><path d="M384.48,266.92c-6.15-3.42-14.41,3.33-14.91,13a18,18,0,0,1,2.6-1.47c.29-2.44.57-4.61.57-4.61v4.35q.75-.35,1.65-.66l.24-2.35.35,2.15a21.07,21.07,0,0,1,2.49-.62l.61-6.87,1.05,6.63a17.36,17.36,0,0,1,2.62-.08l.33-4.66.35,4.71a16.48,16.48,0,0,1,2.24.35l.31-6.95s.25,3.87.53,7.16a18,18,0,0,1,5.92,2.92v-.85S390.09,270.05,384.48,266.92Z" style="fill:#fff"></path><path d="M392.37,263.26c4.29-5.59,14.55-2.67,18.85,6a19.3,19.3,0,0,0-3-.32c-1.23-2.12-2.35-4-2.35-4l1.73,4c-.55,0-1.15,0-1.78.06l-1.15-2.07.53,2.12a20.73,20.73,0,0,0-2.53.41l-3.29-6.06,1.67,6.5a18.17,18.17,0,0,0-2.43,1l-2.16-4.15,1.55,4.46a15.32,15.32,0,0,0-1.92,1.21l-3-6.26s1.31,3.66,2.35,6.78a18.26,18.26,0,0,0-4.26,5l-.34-.78S388.46,268.36,392.37,263.26Z" style="fill:#fff"></path><path d="M397.77,275.39c-5-4.23-8.23,0-8.23,0a10.25,10.25,0,0,1,4.9,2.67l.58-.87v1.42c.35.35.69.72,1,1.1l.9-2.52-.22,3.34c.47.6.92,1.22,1.34,1.83l.29-2.45.2,3.21c.44.69.84,1.38,1.2,2l.19-4.47.48,5.73c.88,1.72,1.35,2.93,1.35,2.93S402.78,279.62,397.77,275.39Z" style="fill:#fff"></path><path d="M385.92,287.08l1,.49c.09-.75.19-1.55.32-2.35l-.74-1.15.86.45.15-.8-1-2.3,1.32.85c.53-2.17,1.26-4.11,2.29-5.08,0,0-10.48,4.21-3.59,15.33,0,0,.07-1.84.32-4.28Z" style="fill:#fff"></path><path d="M395.79,276.86l1.48-3.35-.46,3.42.52.05,2-2.93-.32,3.23a19.74,19.74,0,0,1,2.29.66c.81.29,1.61.63,2.4,1l.88-2.9-.27,3.2c.76.39,1.51.8,2.24,1.23l.35-2.53.16,2.85c.89.54,1.73,1.11,2.5,1.66l-.39-4.51,1,5c.8.58,1.51,1.15,2.13,1.65l-.15-3.14,1.08,3.92c.89.76,1.4,1.25,1.4,1.25-1.23-10.93-5.79-15-12.91-15.65s-11.65,7-11.65,7A11.65,11.65,0,0,1,395.79,276.86Z" style="fill:#fff"></path><path d="M376.24,291.75l.88,3.22c.25-.83.6-1.91,1.05-3.1l-.92-4.75,1.32,3.7a37.21,37.21,0,0,1,2.5-5.14l-1.24-3.24,1.8,2.34c.3-.45.6-.89.92-1.31l-.72-2.05,1,1.68c.22-.28.45-.54.68-.8l-.89-2.74,1.27,2.33A11.62,11.62,0,0,1,386,280.1l-1.37-3.32,2,3a7.71,7.71,0,0,1,3.47-1,11.81,11.81,0,0,0-6.37-4.13c-4-.89-11.9,6.8-7.12,22.14,0,0,.09-.36.26-1Z" style="fill:#fff"></path><path d="M380.5,261l-.52,2a4,4,0,0,1,.73.06l.62-2.64-.34,2.69a5.61,5.61,0,0,1,1.49.55l.86-3.56-.38,3.84a6.58,6.58,0,0,1,.57.4l1-3.36-.68,3.62a13.58,13.58,0,0,1,2.56,2.95v-4.82l1,6.5a40.1,40.1,0,0,1,2.67,6.18s-.58-17.47-4.92-19.13-6.23,6.89-6.23,6.89a2.64,2.64,0,0,1,.57-.13Z" style="fill:#fff"></path><path d="M387.9,279.91l.61,3.28,1-3.28,1.89,2.37.5-2.37,2.09,1.51s-.55-4.2-1.95-6S387,275.18,387.9,279.91Z" style="fill:#fff"></path></g><path d="M427.52,376.28H219.31a5.56,5.56,0,0,0-5.55,5.55H433.07A5.55,5.55,0,0,0,427.52,376.28Z" style="fill:#4468E2"></path><path d="M427.52,376.28H219.31a5.56,5.56,0,0,0-5.55,5.55H433.07A5.55,5.55,0,0,0,427.52,376.28Z" style="fill:#fff;opacity:0.4"></path></g><g id="freepik--burj-al-arab--inject-225"><path d="M170.82,293.47c.08-5.6,0-11-.2-16.32h0a1.94,1.94,0,0,0,1.86-2V275a2,2,0,0,0-2.05-1.83h0q-.44-8.4-1.31-16.27h0a2,2,0,0,0,1.71-2.16l0-.15a1.94,1.94,0,0,0-2.17-1.69q-1-8.42-2.53-16.18h0a2,2,0,0,0,1.51-2.35,1.94,1.94,0,0,0-2.27-1.56h0c-1.13-5.54-2.41-10.83-3.79-15.87h0a1.94,1.94,0,0,0,1.35-2.4l0-.14A1.94,1.94,0,0,0,160.5,213h0c-1.62-5.54-3.36-10.75-5.18-15.66,4-.41,6.76-1.19,6.76-2.1,0-1.32-5.83-2.39-13-2.39s-13,1.07-13,2.39,5.83,2.39,13,2.39h.81c14.57,38.31,24.47,96.89,4.76,177.07l5,1.23c1.5-6.09,2.81-12,4-17.88h0a1.69,1.69,0,0,0,.38,0,2,2,0,0,0,1.91-1.57l0-.14a2,2,0,0,0-1.55-2.28h0q1.56-8.22,2.7-16.1h0a1.23,1.23,0,0,0,.27,0,2,2,0,0,0,1.93-1.67l0-.13a2,2,0,0,0-1.65-2.21h0q1.11-8.29,1.83-16.22h.17a1.94,1.94,0,0,0,1.94-1.78v-.14a1.94,1.94,0,0,0-1.77-2.1h0q.64-8.35.86-16.3h.06a2,2,0,0,0,1.95-1.89v-.17A1.94,1.94,0,0,0,170.82,293.47Z" style="fill:#4468E2"></path><path d="M170.82,293.47c.08-5.6,0-11-.2-16.32h0a1.94,1.94,0,0,0,1.86-2V275a2,2,0,0,0-2.05-1.83h0q-.44-8.4-1.31-16.27h0a2,2,0,0,0,1.71-2.16l0-.15a1.94,1.94,0,0,0-2.17-1.69q-1-8.42-2.53-16.18h0a2,2,0,0,0,1.51-2.35,1.94,1.94,0,0,0-2.27-1.56h0c-1.13-5.54-2.41-10.83-3.79-15.87h0a1.94,1.94,0,0,0,1.35-2.4l0-.14A1.94,1.94,0,0,0,160.5,213h0c-1.62-5.54-3.36-10.75-5.18-15.66,4-.41,6.76-1.19,6.76-2.1,0-1.32-5.83-2.39-13-2.39s-13,1.07-13,2.39,5.83,2.39,13,2.39h.81c14.57,38.31,24.47,96.89,4.76,177.07l5,1.23c1.5-6.09,2.81-12,4-17.88h0a1.69,1.69,0,0,0,.38,0,2,2,0,0,0,1.91-1.57l0-.14a2,2,0,0,0-1.55-2.28h0q1.56-8.22,2.7-16.1h0a1.23,1.23,0,0,0,.27,0,2,2,0,0,0,1.93-1.67l0-.13a2,2,0,0,0-1.65-2.21h0q1.11-8.29,1.83-16.22h.17a1.94,1.94,0,0,0,1.94-1.78v-.14a1.94,1.94,0,0,0-1.77-2.1h0q.64-8.35.86-16.3h.06a2,2,0,0,0,1.95-1.89v-.17A1.94,1.94,0,0,0,170.82,293.47Z" style="fill:#fff;opacity:0.5"></path><path d="M91.23,195.62V375.33h60.69c25.27-102.08.48-166.09-5.68-179.71Z" style="fill:#4468E2"></path><g style="opacity:0.25"><path d="M155,221.32H90.43v-6.4h62.8C153.81,216.92,154.41,219.06,155,221.32Z" style="fill:#fff"></path><path d="M157.93,234.12H90.43v-6.41h66.12C157,229.77,157.49,231.9,157.93,234.12Z" style="fill:#fff"></path><path d="M160.12,246.91H90.43v-6.4h68.68C159.48,242.57,159.81,244.72,160.12,246.91Z" style="fill:#fff"></path><path d="M161.68,259.7H90.43v-6.4H161C161.24,255.38,161.48,257.52,161.68,259.7Z" style="fill:#fff"></path><path d="M162.63,272.5H90.43v-6.41h71.8C162.38,268.19,162.53,270.32,162.63,272.5Z" style="fill:#fff"></path><path d="M163,285.29H90.43v-6.4H162.9Q163,282,163,285.29Z" style="fill:#fff"></path><path d="M163,291.7q0,3.15-.13,6.4H90.43v-6.4Z" style="fill:#fff"></path><path d="M162.63,304.49c-.1,2.1-.22,4.25-.37,6.4H90.43v-6.4Z" style="fill:#fff"></path><path d="M161.75,317.28q-.27,3.17-.62,6.41H90.43v-6.41Z" style="fill:#fff"></path><path d="M160.38,330.08c-.26,2.1-.54,4.24-.85,6.4H90.43v-6.4Z" style="fill:#fff"></path><path d="M158.55,342.87c-.33,2.12-.7,4.25-1.07,6.4h-67v-6.4Z" style="fill:#fff"></path><path d="M156.28,355.66c-.42,2.12-.86,4.25-1.31,6.41H90.43v-6.41Z" style="fill:#fff"></path><path d="M153.55,368.47c-.48,2.12-1,4.25-1.52,6.4H90.43v-6.4Z" style="fill:#fff"></path><path d="M151.21,208.52H90.43v-6.41h58.5C149.64,204,150.41,206.1,151.21,208.52Z" style="fill:#fff"></path></g><path d="M146.53,196.27H91.23v-.65h55C146.33,195.83,146.43,196,146.53,196.27Z" style="fill:#4468E2"></path><path d="M149.14,202.67H91.23v-1.3h57.41Z" style="fill:#4468E2"></path><path d="M151.4,209.07H91.23v-1.29H151C151.11,208.2,151.25,208.63,151.4,209.07Z" style="fill:#4468E2"></path><path d="M153.38,215.46H91.23v-1.29H153C153.14,214.59,153.25,215,153.38,215.46Z" style="fill:#4468E2"></path><path d="M155.14,221.87H91.23v-1.3H154.8C154.92,221,155,221.43,155.14,221.87Z" style="fill:#4468E2"></path><path d="M156.68,228.26H91.23V227h65.15C156.49,227.39,156.58,227.82,156.68,228.26Z" style="fill:#4468E2"></path><path d="M158,234.66H91.23v-1.3h66.54C157.86,233.79,158,234.22,158,234.66Z" style="fill:#4468E2"></path><path d="M159.2,241.07h-68v-1.3H159C159.06,240.19,159.14,240.62,159.2,241.07Z" style="fill:#4468E2"></path><path d="M160.2,247.46h-69v-1.3H160C160.09,246.59,160.15,247,160.2,247.46Z" style="fill:#4468E2"></path><path d="M161.05,253.86H91.23v-1.3h69.66C160.94,253,161,253.42,161.05,253.86Z" style="fill:#4468E2"></path><path d="M161.74,260.25H91.23V259h70.38C161.66,259.38,161.7,259.81,161.74,260.25Z" style="fill:#4468E2"></path><path d="M162.27,266.65h-71v-1.3h71C162.2,265.78,162.24,266.21,162.27,266.65Z" style="fill:#4468E2"></path><path d="M162.66,273H91.23v-1.3h71.36C162.62,272.17,162.64,272.6,162.66,273Z" style="fill:#4468E2"></path><path d="M162.92,279.45H91.23v-1.3h71.65C162.89,278.58,162.9,279,162.92,279.45Z" style="fill:#4468E2"></path><path d="M163,285.85H91.23v-1.3H163C163,285,163,285.41,163,285.85Z" style="fill:#4468E2"></path><path d="M163,290.94c0,.43,0,.87,0,1.3H91.23v-1.3Z" style="fill:#4468E2"></path><path d="M162.92,297.35c0,.42,0,.85,0,1.29H91.23v-1.29Z" style="fill:#4468E2"></path><path d="M162.67,303.74c0,.42,0,.87,0,1.29H91.23v-1.29Z" style="fill:#4468E2"></path><path d="M162.31,310.14c0,.43-.07.86-.09,1.3h-71v-1.3Z" style="fill:#4468E2"></path><path d="M161.81,316.54c0,.43-.07.87-.11,1.3H91.23v-1.3Z" style="fill:#4468E2"></path><path d="M161.22,322.93c-.06.43-.11.86-.15,1.3H91.23v-1.3Z" style="fill:#4468E2"></path><path d="M160.48,329.34c-.06.42-.11.87-.17,1.3H91.23v-1.3Z" style="fill:#4468E2"></path><path d="M159.63,335.73c0,.43-.12.85-.18,1.3H91.23v-1.3Z" style="fill:#4468E2"></path><path d="M158.67,342.13c-.06.43-.13.86-.21,1.3H91.23v-1.3Z" style="fill:#4468E2"></path><path d="M157.6,348.52c-.07.43-.15.86-.23,1.3H91.23v-1.3Z" style="fill:#4468E2"></path><path d="M156.42,354.92c-.09.43-.17.86-.26,1.3H91.23v-1.3Z" style="fill:#4468E2"></path><path d="M155.12,361.33c-.09.43-.18.85-.27,1.3H91.23v-1.3Z" style="fill:#4468E2"></path><path d="M153.72,367.72c-.09.43-.19.87-.3,1.3H91.23v-1.3Z" style="fill:#4468E2"></path><path d="M152.21,374.12c-.1.4-.19.81-.29,1.21H91.23v-1.21Z" style="fill:#4468E2"></path><g style="opacity:0.4"><path d="M146.53,196.27H91.23v-.65h55C146.33,195.83,146.43,196,146.53,196.27Z" style="fill:#fff"></path><path d="M149.14,202.67H91.23v-1.3h57.41Z" style="fill:#fff"></path><path d="M151.4,209.07H91.23v-1.29H151C151.11,208.2,151.25,208.63,151.4,209.07Z" style="fill:#fff"></path><path d="M153.38,215.46H91.23v-1.29H153C153.14,214.59,153.25,215,153.38,215.46Z" style="fill:#fff"></path><path d="M155.14,221.87H91.23v-1.3H154.8C154.92,221,155,221.43,155.14,221.87Z" style="fill:#fff"></path><path d="M156.68,228.26H91.23V227h65.15C156.49,227.39,156.58,227.82,156.68,228.26Z" style="fill:#fff"></path><path d="M158,234.66H91.23v-1.3h66.54C157.86,233.79,158,234.22,158,234.66Z" style="fill:#fff"></path><path d="M159.2,241.07h-68v-1.3H159C159.06,240.19,159.14,240.62,159.2,241.07Z" style="fill:#fff"></path><path d="M160.2,247.46h-69v-1.3H160C160.09,246.59,160.15,247,160.2,247.46Z" style="fill:#fff"></path><path d="M161.05,253.86H91.23v-1.3h69.66C160.94,253,161,253.42,161.05,253.86Z" style="fill:#fff"></path><path d="M161.74,260.25H91.23V259h70.38C161.66,259.38,161.7,259.81,161.74,260.25Z" style="fill:#fff"></path><path d="M162.27,266.65h-71v-1.3h71C162.2,265.78,162.24,266.21,162.27,266.65Z" style="fill:#fff"></path><path d="M162.66,273H91.23v-1.3h71.36C162.62,272.17,162.64,272.6,162.66,273Z" style="fill:#fff"></path><path d="M162.92,279.45H91.23v-1.3h71.65C162.89,278.58,162.9,279,162.92,279.45Z" style="fill:#fff"></path><path d="M163,285.85H91.23v-1.3H163C163,285,163,285.41,163,285.85Z" style="fill:#fff"></path><path d="M163,290.94c0,.43,0,.87,0,1.3H91.23v-1.3Z" style="fill:#fff"></path><path d="M162.92,297.35c0,.42,0,.85,0,1.29H91.23v-1.29Z" style="fill:#fff"></path><path d="M162.67,303.74c0,.42,0,.87,0,1.29H91.23v-1.29Z" style="fill:#fff"></path><path d="M162.31,310.14c0,.43-.07.86-.09,1.3h-71v-1.3Z" style="fill:#fff"></path><path d="M161.81,316.54c0,.43-.07.87-.11,1.3H91.23v-1.3Z" style="fill:#fff"></path><path d="M161.22,322.93c-.06.43-.11.86-.15,1.3H91.23v-1.3Z" style="fill:#fff"></path><path d="M160.48,329.34c-.06.42-.11.87-.17,1.3H91.23v-1.3Z" style="fill:#fff"></path><path d="M159.63,335.73c0,.43-.12.85-.18,1.3H91.23v-1.3Z" style="fill:#fff"></path><path d="M158.67,342.13c-.06.43-.13.86-.21,1.3H91.23v-1.3Z" style="fill:#fff"></path><path d="M157.6,348.52c-.07.43-.15.86-.23,1.3H91.23v-1.3Z" style="fill:#fff"></path><path d="M156.42,354.92c-.09.43-.17.86-.26,1.3H91.23v-1.3Z" style="fill:#fff"></path><path d="M155.12,361.33c-.09.43-.18.85-.27,1.3H91.23v-1.3Z" style="fill:#fff"></path><path d="M153.72,367.72c-.09.43-.19.87-.3,1.3H91.23v-1.3Z" style="fill:#fff"></path><path d="M152.21,374.12c-.1.4-.19.81-.29,1.21H91.23v-1.21Z" style="fill:#fff"></path></g><path d="M142.6,179.56c-14.3-29.94-31.31-48-40-56v-2.72h0V79.54h-2.57v41.28H95.43V375.33h7.19V327.39H158.1a390.5,390.5,0,0,1-8.68,47.33l5.05,1.23C177.48,282.38,160.71,217.5,142.6,179.56Zm-40-48.76c9,9,23.34,25.88,35.42,51.3a214,214,0,0,1,10.81,27.57H102.62Zm47.28,82.29a253.25,253.25,0,0,1,9.73,53.73h-57V213.09ZM158.49,324H102.62V270.24h57.25A315,315,0,0,1,158.49,324Z" style="fill:#4468E2"></path><g style="opacity:0.6000000000000001"><path d="M142.6,179.56c-14.3-29.94-31.31-48-40-56v-2.72h0V79.54h-2.57v41.28H95.43V375.33h7.19V327.39H158.1a390.5,390.5,0,0,1-8.68,47.33l5.05,1.23C177.48,282.38,160.71,217.5,142.6,179.56Zm-40-48.76c9,9,23.34,25.88,35.42,51.3a214,214,0,0,1,10.81,27.57H102.62Zm47.28,82.29a253.25,253.25,0,0,1,9.73,53.73h-57V213.09ZM158.49,324H102.62V270.24h57.25A315,315,0,0,1,158.49,324Z" style="fill:#fff"></path></g><ellipse cx="91.1" cy="207.82" rx="10.13" ry="2.39" style="fill:#4468E2"></ellipse><ellipse cx="91.1" cy="207.82" rx="10.13" ry="2.39" style="fill:#fff;opacity:0.7000000000000001"></ellipse><path d="M91.1,209.17a27.41,27.41,0,0,1-7.92-.94.43.43,0,0,1,0-.81,27.32,27.32,0,0,1,7.92-.95,27.32,27.32,0,0,1,7.92.95.43.43,0,0,1,0,.81A27.41,27.41,0,0,1,91.1,209.17Z" style="fill:#4468E2"></path><path d="M75.94,371.12H177.76a1.68,1.68,0,0,1,1.68,1.68v7.35a0,0,0,0,1,0,0H74.26a0,0,0,0,1,0,0V372.8A1.68,1.68,0,0,1,75.94,371.12Z" style="fill:#4468E2"></path><path d="M75.94,371.12H177.76a1.68,1.68,0,0,1,1.68,1.68v7.35a0,0,0,0,1,0,0H74.26a0,0,0,0,1,0,0V372.8A1.68,1.68,0,0,1,75.94,371.12Z" style="fill:#fff;opacity:0.5"></path><polygon points="182.77 378.07 70.92 378.07 65.92 380.84 65.92 381.83 187.77 381.83 187.77 380.84 182.77 378.07" style="fill:#4468E2"></polygon><polygon points="182.77 378.07 70.92 378.07 65.92 380.84 65.92 381.83 187.77 381.83 187.77 380.84 182.77 378.07" style="fill:#fff;opacity:0.7000000000000001"></polygon></g><g id="freepik--Character--inject-225"><g id="freepik--group--inject-225"><path d="M302.65,314s-24-4-35.27,1.09-16.85,51-16.85,51h6.92s11.23-29.37,13.93-32.89,37.81,8.87,51.74,8S302.65,314,302.65,314Z" style="fill:#263238"></path><path d="M302.65,314s-24-4-35.27,1.09-16.85,51-16.85,51h6.92s11.23-29.37,13.93-32.89,37.81,8.87,51.74,8S302.65,314,302.65,314Z" style="opacity:0.2;isolation:isolate"></path><polygon points="257.45 315.05 269.12 315.05 271.31 331.7 248.97 331.7 257.45 315.05" style="fill:#263238"></polygon><path d="M275.6,328.88,267,321a3,3,0,0,0-1.87-.77l-10.64-.4a2.93,2.93,0,0,0-2.36,1.05l-10.73,12.82,35.36,2.71Z" style="fill:#263238"></path><path d="M275.6,328.88,267,321a3,3,0,0,0-1.87-.77l-10.64-.4a2.93,2.93,0,0,0-2.36,1.05l-10.73,12.82,35.36,2.71Z" style="fill:#fff;opacity:0.5;isolation:isolate"></path><path d="M300.2,358l10.2-14.18a10.53,10.53,0,0,1,8.55-4.38h27a10.54,10.54,0,0,1,7.46,3.09l3.6,3.61-18.75,10-18.63,14Z" style="fill:#263238"></path><path d="M300.2,358l10.2-14.18a10.53,10.53,0,0,1,8.55-4.38h27a10.54,10.54,0,0,1,7.46,3.09l3.6,3.61-18.75,10-18.63,14Z" style="fill:#fff;opacity:0.2;isolation:isolate"></path><path d="M215.57,361.37h-15c-11.71,0-21.2,12.34-21.2,27.56s9.49,27.56,21.2,27.56h15c11.71,0,21.2-12.34,21.2-27.56S227.28,361.37,215.57,361.37Z" style="fill:#263238"></path><path d="M215.57,361.37c-11.71,0-21.2,12.34-21.2,27.56s9.49,27.56,21.2,27.56,21.2-12.34,21.2-27.56S227.28,361.37,215.57,361.37Zm2.67,43.77c-6.89,0-12.47-7.26-12.47-16.21s5.58-16.21,12.47-16.21,12.47,7.26,12.47,16.21S225.13,405.14,218.24,405.14Z" style="fill:#fff;opacity:0.1"></path><polygon points="243 391.11 220.21 396.94 220.74 400.84 220.74 399.37 244.85 393.27 243 391.11" style="fill:#263238"></polygon><polygon points="223.35 370.98 226.71 391.36 244.91 398.84 341.26 398.84 365.48 348.8 327.84 350.8 320.73 360.3 309.99 360.3 288.85 340.39 228.1 356.74 223.35 370.98" style="fill:#263238"></polygon><path d="M322.12,378.65h7.29l23.26-24.84a9.49,9.49,0,0,1,6.93-3h10.29a1.33,1.33,0,0,0,1.16-2h0a5.27,5.27,0,0,0-4.59-2.69h-31.6A5.29,5.29,0,0,0,331,347.8L313.09,367Z" style="fill:#4468E2"></path><path d="M310.57,363.43l11.83,13.36a2.07,2.07,0,0,0,1.55.7h10.37a2.08,2.08,0,0,1,2,2.77L335,383.83a2.08,2.08,0,0,1-2,1.38H313.77a2.08,2.08,0,0,1-1.69-.88l-11.86-16.76a2.07,2.07,0,0,1,1.25-3.22l7.1-1.57A2.08,2.08,0,0,1,310.57,363.43Z" style="fill:#263238"></path><path d="M310.57,363.43l11.83,13.36a2.07,2.07,0,0,0,1.55.7h10.37a2.08,2.08,0,0,1,2,2.77L335,383.83a2.08,2.08,0,0,1-2,1.38H313.77a2.08,2.08,0,0,1-1.69-.88l-11.86-16.76a2.07,2.07,0,0,1,1.25-3.22l7.1-1.57A2.08,2.08,0,0,1,310.57,363.43Z" style="fill:#fff;opacity:0.2"></path><path d="M209.77,340.39l6-9.49a2.31,2.31,0,0,1,1.51-1,158.47,158.47,0,0,1,30.42-2.81c15.8,0,27,1,29.84,1.29a2.33,2.33,0,0,1,1.25.53l5.42,4.51h7.95a6.92,6.92,0,0,1,5.07,2.22l12.42,13.47a6.88,6.88,0,0,1,1.19,7.58l-1.7,3.65-20.27-19.91-55.14,10.53-19.47-3.17Z" style="fill:#4468E2"></path><polygon points="207.18 346.13 213.77 356.14 247.88 356.14 290.24 343.68 309.76 362.52 311.65 361.13 289.66 336.89 242.2 346.13 217.33 346.13 209.77 338.76 198.76 346.13 199.62 347.75 207.18 346.13" style="fill:#263238"></polygon><polygon points="207.18 346.13 213.77 356.14 247.88 356.14 290.24 343.68 309.76 362.52 311.65 361.13 289.66 336.89 242.2 346.13 217.33 346.13 209.77 338.76 198.76 346.13 199.62 347.75 207.18 346.13" style="fill:#fff;opacity:0.30000000000000004;isolation:isolate"></polygon><path d="M291.57,361.37h-15c-11.71,0-21.2,12.34-21.2,27.56s9.49,27.56,21.2,27.56h15c11.71,0,21.2-12.34,21.2-27.56S303.28,361.37,291.57,361.37Z" style="fill:#263238"></path><path d="M291.57,361.37c-11.71,0-21.2,12.34-21.2,27.56s9.49,27.56,21.2,27.56,21.2-12.34,21.2-27.56S303.28,361.37,291.57,361.37Zm2.67,43.77c-6.89,0-12.47-7.26-12.47-16.21s5.58-16.21,12.47-16.21,12.47,7.26,12.47,16.21S301.13,405.14,294.24,405.14Z" style="fill:#fff;opacity:0.1"></path><ellipse cx="292.17" cy="388.93" rx="9.61" ry="12.49" style="fill:#fff;opacity:0.2"></ellipse><path d="M248.27,342.61l3.07-5.54a.57.57,0,0,1,.29-.26L270,329.44a.57.57,0,0,1,.67.18l6,7.73a.57.57,0,0,1-.34.92l-27.39,5.18A.58.58,0,0,1,248.27,342.61Z" style="fill:#fff;opacity:0.7000000000000001;isolation:isolate"></path><path d="M217.43,342.59l.57-6.22a.55.55,0,0,0,0-.22l-1-3.39a.58.58,0,0,0-1.06-.11l-3.5,6.3a.58.58,0,0,0,.13.72l4,3.31A.58.58,0,0,0,217.43,342.59Z" style="fill:#fff;opacity:0.7000000000000001;isolation:isolate"></path><circle cx="267.86" cy="335.01" r="3.76" style="fill:#fff;opacity:0.4;isolation:isolate"></circle><path d="M216.51,337.55c-.54,1.69-1.49,2.89-2.13,2.68s-.71-1.73-.17-3.41,1.49-2.89,2.13-2.68S217.05,335.87,216.51,337.55Z" style="fill:#fff;opacity:0.4;isolation:isolate"></path><path d="M216.9,340.27c-.29.91-.81,1.55-1.15,1.44s-.38-.93-.09-1.84.8-1.56,1.15-1.45S217.19,339.36,216.9,340.27Z" style="fill:#fff;opacity:0.4;isolation:isolate"></path><circle cx="260.34" cy="337.67" r="2.89" style="fill:#fff;opacity:0.4;isolation:isolate"></circle><path d="M372.57,361.37h-15c-11.71,0-21.2,12.34-21.2,27.56s9.49,27.56,21.2,27.56h15c11.71,0,21.2-12.34,21.2-27.56S384.28,361.37,372.57,361.37Z" style="fill:#263238"></path><path d="M372.57,361.37c-11.71,0-21.2,12.34-21.2,27.56s9.49,27.56,21.2,27.56,21.2-12.34,21.2-27.56S384.28,361.37,372.57,361.37Zm2.67,43.77c-6.89,0-12.47-7.26-12.47-16.21s5.58-16.21,12.47-16.21,12.47,7.26,12.47,16.21S382.13,405.14,375.24,405.14Z" style="fill:#fff;opacity:0.1"></path><ellipse cx="373.17" cy="388.93" rx="9.61" ry="12.49" style="fill:#fff;opacity:0.2"></ellipse><path d="M228.87,381.94l-11.14-.34-24.48-12.47a4.37,4.37,0,0,1-1.72-6.23l1.42-2.26a4.37,4.37,0,0,1,4.63-1.94l19.89,4.3,48.1-3.5a4.54,4.54,0,0,1,4.42,2.6l1,2.09a4.51,4.51,0,0,1-2.82,6.22Zm-10.12-4.31,9.61.29L267,366.57a.47.47,0,0,0,.32-.27.49.49,0,0,0,0-.43l-1-2.09a.5.5,0,0,0-.5-.29L217.18,367l-20.45-4.43a.4.4,0,0,0-.4.17L194.91,365a.37.37,0,0,0,0,.3.36.36,0,0,0,.19.23Z" style="fill:#263238"></path><g style="opacity:0.30000000000000004;isolation:isolate"><path d="M228.87,381.94l-11.14-.34-24.48-12.47a4.37,4.37,0,0,1-1.72-6.23l1.42-2.26a4.37,4.37,0,0,1,4.63-1.94l19.89,4.3,48.1-3.5a4.54,4.54,0,0,1,4.42,2.6l1,2.09a4.51,4.51,0,0,1-2.82,6.22Zm-10.12-4.31,9.61.29L267,366.57a.47.47,0,0,0,.32-.27.49.49,0,0,0,0-.43l-1-2.09a.5.5,0,0,0-.5-.29L217.18,367l-20.45-4.43a.4.4,0,0,0-.4.17L194.91,365a.37.37,0,0,0,0,.3.36.36,0,0,0,.19.23Z" style="fill:#fff"></path></g><path d="M208.38,351.11l5.24,36.77a1.23,1.23,0,0,0,1.22,1.05h15.81a1.22,1.22,0,0,0,1-.59l22.36-36.78a1.23,1.23,0,0,0-1.18-1.86l-10.61,1.22H216.39a.82.82,0,0,1-.22,0l-6.35-1.17A1.23,1.23,0,0,0,208.38,351.11Z" style="fill:#263238"></path><path d="M208.38,351.11l5.24,36.77a1.23,1.23,0,0,0,1.22,1.05h15.81a1.22,1.22,0,0,0,1-.59l22.36-36.78a1.23,1.23,0,0,0-1.18-1.86l-10.61,1.22H216.39a.82.82,0,0,1-.22,0l-6.35-1.17A1.23,1.23,0,0,0,208.38,351.11Z" style="fill:#fff;opacity:0.5;isolation:isolate"></path><path d="M263.61,305.25l-2.84.13a4.37,4.37,0,0,0-1.43-.68c-1.28-.5-8.81-.1-8.81-.1s.57,6.28,1.45,6.45a47.51,47.51,0,0,0,7.35-.33,7.47,7.47,0,0,0,2.45-1.29l2.06-.4Z" style="fill:#b97964"></path><path d="M293.47,283.88c-6,7.38-10.83,14.15-16.74,16.51s-13.82,4.46-13.82,4.46v4.71s15.32,0,19.65-2.67,19-13.54,19-13.54Z" style="fill:#4468E2"></path><path d="M293.47,283.88c-6,7.38-10.83,14.15-16.74,16.51s-13.82,4.46-13.82,4.46v4.71s15.32,0,19.65-2.67,19-13.54,19-13.54Z" style="fill:#fff;opacity:0.5;isolation:isolate"></path><path d="M284.49,264.24s-2.78,6,1,8.34,5.34,6.38,3.09,8.3.54,4.33.54,4.33-1.23-5,5.17-4.33,14.52,3.91,16.78-1.52,12.94-7.53,14.62-6.53c0,0-6.83-6.38-14.54-6.72A17.07,17.07,0,0,1,299.42,261S291.35,259.08,284.49,264.24Z" style="fill:#4468E2"></path><path d="M284.49,264.24s-2.78,6,1,8.34,5.34,6.38,3.09,8.3.54,4.33.54,4.33-1.23-5,5.17-4.33,14.52,3.91,16.78-1.52,12.94-7.53,14.62-6.53c0,0-6.83-6.38-14.54-6.72A17.07,17.07,0,0,1,299.42,261S291.35,259.08,284.49,264.24Z" style="fill:#fff;opacity:0.5;isolation:isolate"></path><path d="M306.3,276.9s5.76-1.53,12.5,3.52,16.45,30.61,32.57,34.63c20.78,5.18,29.33,23.82,29.33,23.82s-10-7.4-28.25-8.53S314,322,314,322C299.84,315.4,285.21,276.77,306.3,276.9Z" style="fill:#4468E2"></path><path d="M306.3,276.9s5.76-1.53,12.5,3.52,16.45,30.61,32.57,34.63c20.78,5.18,29.33,23.82,29.33,23.82s-10-7.4-28.25-8.53S314,322,314,322C299.84,315.4,285.21,276.77,306.3,276.9Z" style="fill:#fff;opacity:0.5;isolation:isolate"></path><polygon points="329.71 373.88 324.41 376.24 316.53 365.03 321.83 362.69 329.71 373.88" style="fill:#b97964"></polygon><path d="M322.58,375.15h-.1c0-.09-.29-1.71-1-2.1a.66.66,0,0,0-.58,0,.52.52,0,0,0-.36.53,2.21,2.21,0,0,0,.86,1.18,2.33,2.33,0,0,0-1.63,0,.48.48,0,0,0-.19.45.69.69,0,0,0,.36.68,1.55,1.55,0,0,0,1.12,0,6.61,6.61,0,0,0,1.42-.61h.05s0,0,0-.05A.14.14,0,0,0,322.58,375.15Zm-1.74-1.62c0-.08,0-.18.2-.26l.06,0a.41.41,0,0,1,.31,0c.42.23.71,1.11.85,1.64l-.13,0C321.56,374.57,320.89,373.92,320.84,373.53Zm-.76,2.12a.5.5,0,0,1-.22-.44A.23.23,0,0,1,320,375c.33-.25,1.39,0,2.15.2C321.16,375.66,320.41,375.83,320.08,375.65Z" style="fill:#4468E2"></path><polygon points="321.83 362.69 316.53 365.04 321.04 371.44 326.18 368.85 321.83 362.69" style="opacity:0.2;isolation:isolate"></polygon><path d="M322.8,374.37l6.27-1.73a.41.41,0,0,1,.52.26h0l1.68,4.88a1,1,0,0,1-.7,1.26c-2.2.57-3.28.73-6.05,1.47a53.48,53.48,0,0,1-7.42,1.81c-2.42.27-2.62-2.13-1.62-2.46a15.87,15.87,0,0,0,6.44-4.91A1.61,1.61,0,0,1,322.8,374.37Z" style="fill:#263238"></path><path d="M292.05,304.92l-2.83.12a4.6,4.6,0,0,0-1.44-.68c-1.28-.5-8.81-.09-8.81-.09s.57,6.27,1.45,6.44a48.74,48.74,0,0,0,7.35-.32,7.62,7.62,0,0,0,2.45-1.3l2.06-.39Z" style="fill:#b97964"></path><path d="M331.57,306.89s11.43,21.17,7.36,32c-1.2,3.17-14.58,3-19.22,1.69s-17.06-8.83-17.06-8.83l24,35.94-8.5,2.45S282,333.38,281.77,320.23,313.09,314,313.09,314Z" style="fill:#263238"></path><path d="M293.47,283.88s4.09-6,9.18-7.2,13.4.17,15.12,1.18S330,297,343.64,302.09c14.48,5.44,31.23,20.05,37.06,36.78,0,0-14.78-16.1-26.13-20.31s-9.1,2.42-19.19,2.2-22.29-6.8-22.29-6.8l-9.69-1.53S291.87,293,293.47,283.88Z" style="fill:#4468E2"></path><path d="M293.47,283.88s4.09-6,9.18-7.2,13.4.17,15.12,1.18S330,297,343.64,302.09c14.48,5.44,31.23,20.05,37.06,36.78,0,0-14.78-16.1-26.13-20.31s-9.1,2.42-19.19,2.2-22.29-6.8-22.29-6.8l-9.69-1.53S291.87,293,293.47,283.88Z" style="fill:#fff;opacity:0.7000000000000001;isolation:isolate"></path><path d="M306.3,276.9l-4,5.51-3-1.58a4.89,4.89,0,0,0-.11-1.92,6.15,6.15,0,0,0-1.5-2.82l2.62-6.71.92-2.36C302.37,270.8,303.69,274.43,306.3,276.9Z" style="fill:#b97964"></path><path d="M299.17,278.91a6.15,6.15,0,0,0-1.5-2.82l2.62-6.71S302.56,275.28,299.17,278.91Z" style="opacity:0.2;isolation:isolate"></path><path d="M290.51,261.58c2.49.77,2.27,3.42-1.27,8.55-2.64-1.88-4.4-6.55-3.26-8.21S288.35,260.91,290.51,261.58Z" style="fill:#263238"></path><path d="M300.54,262.72c1.31,5.11,2.33,8,.63,11.41-2.55,5.09-9.47,4.79-12.28.18-2.51-4.14-4.23-11.8,0-15.36a7.19,7.19,0,0,1,10.13.83A7.28,7.28,0,0,1,300.54,262.72Z" style="fill:#b97964"></path><path d="M293.51,266.51c.13.4,0,.8-.25.89s-.58-.17-.71-.58,0-.81.24-.9S293.35,266.11,293.51,266.51Z" style="fill:#263238"></path><path d="M288.88,268c.13.4,0,.8-.24.89s-.59-.17-.73-.58,0-.81.25-.9S288.75,267.6,288.88,268Z" style="fill:#263238"></path><path d="M290.45,267.71a15.15,15.15,0,0,1-.82,4.11,2.47,2.47,0,0,0,2.07-.26Z" style="fill:#a24e3f"></path><path d="M294.3,264.64a.22.22,0,0,0,.14-.08.27.27,0,0,0-.05-.36,2.49,2.49,0,0,0-2.27-.35.23.23,0,0,0-.15.3v0a.25.25,0,0,0,.33.14h0a2,2,0,0,1,1.78.3A.26.26,0,0,0,294.3,264.64Z" style="fill:#263238"></path><path d="M286.27,267.13a.25.25,0,0,0,.17-.21,2,2,0,0,1,1-1.52.24.24,0,0,0,.12-.33.25.25,0,0,0-.33-.13,2.49,2.49,0,0,0-1.28,1.91.24.24,0,0,0,.21.28h.11Z" style="fill:#263238"></path><path d="M297.11,258.93c-2.08,1.56-1,4,4.07,7.62,1.86-2.66,1.95-7.65.31-8.82S298.93,257.58,297.11,258.93Z" style="fill:#263238"></path><path d="M304.21,266a5,5,0,0,1-1.34,3.58c-1.21,1.27-2.71.4-3.13-1.21-.37-1.45-.18-3.86,1.39-4.53A2.23,2.23,0,0,1,304.21,266Z" style="fill:#b97964"></path><path d="M292.89,274.09a.26.26,0,0,1-.25-.2.26.26,0,0,1,.19-.32,3.42,3.42,0,0,0,2.64-2.38.26.26,0,0,1,.31-.2.25.25,0,0,1,.2.3,3.9,3.9,0,0,1-3,2.79Z" style="fill:#263238"></path><path d="M293.25,272.29s1.27-3.6,3.13-3.19,5.2,4.09,5.2,4.09.39,3.53-3.66,4.94-7.41-2.35-7.71-4,2.55-1.42,2.55-1.42l.33.44s-2.12.31-1.66,1.18,2.49,3,3.89,2.73-.24-2.35-.24-2.35l1.52-1s1.93,2,2.78,1.06-2.37-4-3.24-4.12-2.37,2-2.37,2Z" style="fill:#263238"></path><path d="M284.77,263.08l-1.41,1.8s3.42.27,3.94-1.3,3.22.31,4.27-.45a3.4,3.4,0,0,1,3.54-.78c1.91.46,2.81,1.23,4.54.51s3.15,5.13,4.93,6,2.83,4.4,9.72,2.31,12.25,3.54,12.25,3.54.48-4.05-4.51-7-16.91-5.17-18.21-7.34-2-7-9-7.2S283.38,259,284.77,263.08Z" style="fill:#4468E2"></path><path d="M284.77,263.08l-1.41,1.8s3.42.27,3.94-1.3,3.22.31,4.27-.45a3.4,3.4,0,0,1,3.54-.78c1.91.46,2.81,1.23,4.54.51s3.15,5.13,4.93,6,2.83,4.4,9.72,2.31,12.25,3.54,12.25,3.54.48-4.05-4.51-7-16.91-5.17-18.21-7.34-2-7-9-7.2S283.38,259,284.77,263.08Z" style="fill:#fff;opacity:0.7000000000000001;isolation:isolate"></path><path d="M284.77,263.08s7.39-5.66,19.54-2.21c0,0,1.12-1.42-2.79-2.38-6.22-1.52-11.81-.73-16.36,2A1.5,1.5,0,0,0,284.77,263.08Z" style="fill:#4468E2"></path><path d="M285.64,266.93a5.73,5.73,0,0,1,3.42-1.06h0a2.59,2.59,0,0,1,2-.59,11.71,11.71,0,0,1,4.23-.91l4.73-.19.19.45-4.6.69c.09,1.17-.18,3.12-1.7,3.43-2,.41-2.73-1.57-3-2.53-.58-.29-1.36,0-1.36.38.19.86.46,2.92-1.53,3.64S285.64,266.93,285.64,266.93Z" style="fill:#263238"></path><g style="opacity:0.30000000000000004"><path d="M286.44,266.89l2.11,2.68s-1,.88-1.69.09a6.15,6.15,0,0,1-1-2.53A1.83,1.83,0,0,1,286.44,266.89Z" style="fill:#fff"></path><path d="M286.7,266.75l2.11,2.71s.45-.38.38-.58l-1.79-2.32Z" style="fill:#fff"></path><path d="M292,265.42l2.11,2.68s-1,.88-1.7.09a6.19,6.19,0,0,1-1-2.53A1.71,1.71,0,0,1,292,265.42Z" style="fill:#fff"></path><path d="M292.23,265.28l2.11,2.71s.45-.38.37-.58l-1.78-2.32Z" style="fill:#fff"></path></g><path d="M318.29,277.88C314.72,275.66,312.4,295,309,298S289.63,304,289.63,304l2.7,4.74s13.2,2.53,20.27,1.13S323.17,280.93,318.29,277.88Z" style="fill:#4468E2"></path><path d="M318.29,277.88C314.72,275.66,312.4,295,309,298S289.63,304,289.63,304l2.7,4.74s13.2,2.53,20.27,1.13S323.17,280.93,318.29,277.88Z" style="fill:#fff;opacity:0.5;isolation:isolate"></path><path d="M267.27,316.17h-9.86a1.51,1.51,0,0,1-1.47-1.22l-1.12-5.79-4,1a1.5,1.5,0,1,1-.75-2.9l5.54-1.44a1.51,1.51,0,0,1,1.17.19,1.52,1.52,0,0,1,.68,1l1.18,6.15h8.06l8.08-7a1.52,1.52,0,0,1,1.26-.34l13,2.41a1.5,1.5,0,0,1-.55,2.95l-12.31-2.28-8,6.89A1.48,1.48,0,0,1,267.27,316.17Z" style="fill:#263238"></path><g style="opacity:0.2;isolation:isolate"><path d="M267.27,316.17h-9.86a1.51,1.51,0,0,1-1.47-1.22l-1.12-5.79-4,1a1.5,1.5,0,1,1-.75-2.9l5.54-1.44a1.51,1.51,0,0,1,1.17.19,1.52,1.52,0,0,1,.68,1l1.18,6.15h8.06l8.08-7a1.52,1.52,0,0,1,1.26-.34l13,2.41a1.5,1.5,0,0,1-.55,2.95l-12.31-2.28-8,6.89A1.48,1.48,0,0,1,267.27,316.17Z" style="fill:#fff"></path></g><path d="M361,416.49l28.15-4.39a21.32,21.32,0,0,1,11.52-16.86c11.05-5.78,13.8,5.6,13.8,5.6s3.1-2.6,11.25-2.35,4.36,9.92,4.36,9.92,4.22-2.64,8,0-8,8.08-8,8.08Z" style="fill:#4468E2"></path><path d="M361,416.49l28.15-4.39a21.32,21.32,0,0,1,11.52-16.86c11.05-5.78,13.8,5.6,13.8,5.6s3.1-2.6,11.25-2.35,4.36,9.92,4.36,9.92,4.22-2.64,8,0-8,8.08-8,8.08Z" style="fill:#fff;opacity:0.7000000000000001;isolation:isolate"></path><path d="M281,416.49l28.15-4.39a21.3,21.3,0,0,1,11.51-16.86c11.05-5.78,13.81,5.6,13.81,5.6s3.1-2.6,11.25-2.35,4.36,9.92,4.36,9.92,4.22-2.64,8,0-8,8.08-8,8.08Z" style="fill:#4468E2"></path><path d="M281,416.49l28.15-4.39a21.3,21.3,0,0,1,11.51-16.86c11.05-5.78,13.81,5.6,13.81,5.6s3.1-2.6,11.25-2.35,4.36,9.92,4.36,9.92,4.22-2.64,8,0-8,8.08-8,8.08Z" style="fill:#fff;opacity:0.7000000000000001;isolation:isolate"></path><path d="M204.55,416.49,176.4,412.1a21.32,21.32,0,0,0-11.52-16.86c-11-5.78-13.8,5.6-13.8,5.6s-3.1-2.6-11.25-2.35-4.36,9.92-4.36,9.92-4.22-2.64-8,0,8,8.08,8,8.08Z" style="fill:#4468E2"></path><path d="M204.55,416.49,176.4,412.1a21.32,21.32,0,0,0-11.52-16.86c-11-5.78-13.8,5.6-13.8,5.6s-3.1-2.6-11.25-2.35-4.36,9.92-4.36,9.92-4.22-2.64-8,0,8,8.08,8,8.08Z" style="fill:#fff;opacity:0.7000000000000001;isolation:isolate"></path></g></g></svg>