<svg xmlns="http://www.w3.org/2000/svg" viewBox="0 0 500 500"><g id="freepik--background-simple--inject-191"><path d="M314.66,16.42a248,248,0,0,0-47.37.8c-21.61,2.41-43.23,9.2-60.17,22.84-26.46,21.32-39.67,60.48-72,74-19.2,8-41,5.17-60.42,12.62-37.68,14.46-57.54,60.78-58.54,98.66-1.12,42.4,25.17,80.61,58.67,104.43,50.35,35.8,110.82,36.84,167.61,15.2,19.66-7.49,40.41-15.13,61.86-11.85,24.64,3.77,47.08,15.64,72.24,17.06,25.34,1.43,52-3.64,72.14-20,35.16-28.52,34.14-71.19,31.74-112.41-1.72-29.56-5-59.26-13.49-87.72C446.71,62.22,383.33,22,314.66,16.42Z" style="fill:#4468E2"></path><path d="M314.66,16.42a248,248,0,0,0-47.37.8c-21.61,2.41-43.23,9.2-60.17,22.84-26.46,21.32-39.67,60.48-72,74-19.2,8-41,5.17-60.42,12.62-37.68,14.46-57.54,60.78-58.54,98.66-1.12,42.4,25.17,80.61,58.67,104.43,50.35,35.8,110.82,36.84,167.61,15.2,19.66-7.49,40.41-15.13,61.86-11.85,24.64,3.77,47.08,15.64,72.24,17.06,25.34,1.43,52-3.64,72.14-20,35.16-28.52,34.14-71.19,31.74-112.41-1.72-29.56-5-59.26-13.49-87.72C446.71,62.22,383.33,22,314.66,16.42Z" style="fill:#fff;opacity:0.7000000000000001"></path></g><g id="freepik--Clouds--inject-191"><path d="M149.61,57.41c-5.57-3-8.1-.51-10.12-3s5.57-9.1-9.61-15.68c0,0-1-14.17-21.76-14.68S92.94,38.18,87.37,41.72s-7.08-2-12.65,1.52-3,10.63-7.59,11.64-10.63-4.55-16.19-1-5.57,6.58-8.1,6.58-7.59-2-10.62,0S25.64,65,25.64,65h128S155.18,60.45,149.61,57.41Z" style="fill:none;stroke:#999;stroke-linecap:round;stroke-linejoin:round"></path><path d="M73.88,55.33a17.42,17.42,0,0,1-2.26,1.07" style="fill:none;stroke:#999;stroke-linecap:round;stroke-linejoin:round"></path><path d="M101.27,31.69a8.67,8.67,0,0,0-5,6.18c-.92,4.63-3.08,7.72-5.55,8S79,45.28,77.49,48.68a13.18,13.18,0,0,0-.87,3.1" style="fill:none;stroke:#999;stroke-linecap:round;stroke-linejoin:round"></path><path d="M375.89,136.17c-5.57-3-8.1-.51-10.12-3s5.57-9.11-9.61-15.68c0,0-1-14.17-21.76-14.68s-15.18,14.17-20.75,17.71-7.08-2-12.65,1.52-3,10.63-7.59,11.64-10.63-4.56-16.19-1-5.57,6.57-8.1,6.57-7.59-2-10.63,0-6.57,4.56-6.57,4.56h128S381.46,139.2,375.89,136.17Z" style="fill:none;stroke:#999;stroke-linecap:round;stroke-linejoin:round"></path><path d="M300.16,134.09a17.42,17.42,0,0,1-2.26,1.07" style="fill:none;stroke:#999;stroke-linecap:round;stroke-linejoin:round"></path><path d="M327.55,110.45a8.67,8.67,0,0,0-4.95,6.18c-.92,4.63-3.08,7.72-5.55,8s-11.74-.62-13.28,2.78a13.18,13.18,0,0,0-.87,3.1" style="fill:none;stroke:#999;stroke-linecap:round;stroke-linejoin:round"></path><path d="M389.69,78.92c-2.82-1.54-4.1-.26-5.13-1.54s2.82-4.61-4.87-7.94c0,0-.51-7.18-11-7.43s-7.69,7.17-10.51,9-3.58-1-6.4.77-1.54,5.38-3.84,5.89-5.39-2.3-8.2-.51-2.82,3.33-4.1,3.33-3.85-1-5.38,0-3.33,2.31-3.33,2.31h64.82S392.5,80.45,389.69,78.92Z" style="fill:none;stroke:#999;stroke-linecap:round;stroke-linejoin:round"></path><path d="M351.34,77.86a7.7,7.7,0,0,1-1.14.54" style="fill:none;stroke:#999;stroke-linecap:round;stroke-linejoin:round"></path><path d="M365.21,65.9a4.37,4.37,0,0,0-2.5,3.12c-.47,2.35-1.57,3.91-2.82,4.07s-5.94-.32-6.72,1.4a6.71,6.71,0,0,0-.44,1.58" style="fill:none;stroke:#999;stroke-linecap:round;stroke-linejoin:round"></path><path d="M433.69,261.92c-2.82-1.54-4.1-.26-5.13-1.54s2.82-4.61-4.87-7.94c0,0-.51-7.18-11-7.43s-7.69,7.17-10.51,9-3.58-1-6.4.77-1.54,5.38-3.84,5.89-5.39-2.3-8.2-.51-2.82,3.33-4.1,3.33-3.85-1-5.38,0-3.33,2.31-3.33,2.31h64.82S436.5,263.45,433.69,261.92Z" style="fill:none;stroke:#999;stroke-linecap:round;stroke-linejoin:round"></path><path d="M395.34,260.86a7.7,7.7,0,0,1-1.14.54" style="fill:none;stroke:#999;stroke-linecap:round;stroke-linejoin:round"></path><path d="M409.21,248.9a4.37,4.37,0,0,0-2.5,3.12c-.47,2.35-1.57,3.91-2.82,4.07s-5.94-.32-6.72,1.4a6.71,6.71,0,0,0-.44,1.58" style="fill:none;stroke:#999;stroke-linecap:round;stroke-linejoin:round"></path></g><g id="freepik--sugarloaf-mountain--inject-191"><polygon points="172.44 67.81 172.44 60.66 190.88 60.66 190.16 57.37 194.45 49.65 205.89 49.65 210.46 58.66 207.03 72.95 172.15 72.95 172.44 67.81" style="fill:#fff;stroke:#263238;stroke-linecap:round;stroke-linejoin:round"></polygon><rect x="196.31" y="51.22" width="8.15" height="8.58" style="fill:#263238;stroke:#263238;stroke-linecap:round;stroke-linejoin:round"></rect><polygon points="195.45 51.65 192.59 57.23 195.6 57.23 195.6 59.52 199.31 59.52 199.31 57.37 202.17 57.37 202.17 59.94 205.89 59.94 205.89 57.51 207.6 57.51 204.89 51.65 195.45 51.65" style="fill:none;stroke:#263238;stroke-linecap:round;stroke-linejoin:round"></polygon><path d="M172.72,66.64s-9.73,2.43-14.84,7.54-8,10.46-9.74,12.41-8.51,14.11-10,16.79-12.9,12.65-16.06,19.7-10.46,25.55-11.19,26.28-9.25,17.52-11,23.11-4.62,19.95-5.35,23.85S90,225.51,89.27,236.46s-2,20.92-1.71,24.82-1.46,13.87-1.46,13.87,38.93-9,82.72,6.08,84.67,46.22,91,48.9,28,16.79,74.93,42.09S400,397,407.26,392.66s10.21-5.35,10.21-5.35-3.89,1.7-17.76-5.6-39.17-34.55-42.82-39.41-17.76-28-18.49-29.93,1.71-6.57,1-10.22-4.87-13.14-4.87-15.57,2.19-9.25,2.19-13.14-3.41-11.92-3.41-14.11-2.43-27.73-3.4-30.9-5.36-17.76-5.36-17.76-7.78-20.44-9.24-24.81-5.11-12.17-5.11-12.17l-12.65-29.2s-23.6-33.08-27-36.49-19-14.6-19-14.6-17-13.38-21.41-16.54-18-6.33-24.33-8-21.17-3.41-25.06-3.41A32.92,32.92,0,0,0,172.72,66.64Z" style="fill:#ebebeb"></path><path d="M122.11,123.08c1,8.31-10.37,28-11.12,32.49s-3.78,6.8-9.83,21.91-12.09,43.07-9.06,43.07,14.35-47.6,14.35-34-6.8,58.18-6.8,58.18,0-21.15-3.78-14.35-4.53,52.89-4.53,52.89l12-7.85,5.38-47.31s6.52-30.64,6.8-44.58,3.78-36.27,5.29-40.05S135.17,114,135.17,114l15.58-25.26-15.58,20S121.15,114.78,122.11,123.08Z" style="fill:#cfcfcf"></path><path d="M324.83,288.56c-7.56,4.53-18.79,1.91-16.58-9.25s.71-37.6-1.55-46.67-6.05-23.42-6.05-23.42,0,9.07-2.27-4.53-5.29-28-8.31-36.27-6-11.34-9.07-22.67-21.15-39.3-21.15-39.3l4.53,21.92s15.87,35.51,21.16,65.74,6.8,38.53,12.84,62S311,309.7,310.47,312.74s6,17.38,10.58,24.94,7.56,14.35,7.56-.76v-34C328.61,296.12,332.39,284,324.83,288.56Z" style="fill:#cfcfcf"></path><path d="M242.47,181.26c0-5.29-.76,24.18-.76,24.18s-5.29-33.25-5.29-49.11-3-26.45-4.53-35.52-7.49-20.25-10.53-11.66-.81,10.15,2.22,19.22,3.77,15.11,5.29,24.93a67.16,67.16,0,0,1,0,18.89s-7.54-37.86-13.54-35.86,2.11-24.81,3.71-27.61,5.54-4.41,3-15.32-6.27-13.6-6.27-13.6l-6.59,30.43-3-15.11-.76,32.49,5.29-7.56s-1.56,19.17-8.31,18.9-8.86-25.16-12.09-36.28A45.09,45.09,0,0,1,188.82,83s-2.88-12.34,16.62-6.8l.95-4.85s-19.08-4.22-29.66-1.95-15.12,15.11-15.12,15.11S173,95.12,176.73,107.21s3,21.16,3,21.16S182,157.84,182,166.15s1.51,15.87,0,33.25-12.85,43.82-1.51,77.83c0,0,14.17,21.23,18,22.7s1.6-43.11,1.6-50.66,3.78-18.14,3.78,2.26,8.35,45.93,8.35,45.93,5.25-5.12,6-10.41,4.11-15.49,6.8-7.56.75,15.12,2.26,19.65S237.92,309,237.92,309l5.64,12,26.87,11.38s-12.85-72.54-18.14-95.21S242.47,186.55,242.47,181.26Z" style="fill:#cfcfcf"></path><path d="M226.91,75c1.79,0,10.74,7.7,10.74,7.7L252,94.11l18.26,13.25-.36,3.4-.36.71a25.56,25.56,0,0,0-1.25,3.4c-.36,1.44.54,1.61.71,2.51a15.5,15.5,0,0,1-.53,3.76s2.32,6.44,2.68,7.51,1.61,3.58,2.15,4.66,2,4.11,3.58,7.34S281,153,281.49,155.5s-7.69-12.53-8.23-13.42-3.76-5.55-6.8-9.49-6.26-8-6.26-8-4.66-5.91-6.27-6.44.18.53,1.79,1.25.54,1.79.18,3.58-2.15.71-2.15.71l-.36.9s2,1.07,1.44,1.79a6,6,0,0,1-2.33,1.25l-.54-.72s-2.86-2-2.86-3.4,2.51-2.14,2.51-2.14-2.69-1.61-3.23-3a2.81,2.81,0,0,1,0-2.32l-1.25-3.58s-3.4-3.58-5.73-3.76-5.54-2.68-6.26-3.58-2.51-3.22-5.37-2.33-7.34,9-9.13,10.56a9.07,9.07,0,0,0-2.32,4.48s0,4.11-.18,5.55-2,3-2.87,4.29-3.57-1.79-3.57-2.33,3.57-3.4,4.29-5.19-.18-.71-.18-.71-.18-2.51-.18-3.22a3.54,3.54,0,0,1,2.15-2.51,5.65,5.65,0,0,0,2.15-2.15l1.43-2.32s0-2.69-.72-3.22-.71-.54-1.07-2.33a2.1,2.1,0,0,1,2.15-2.51,23.1,23.1,0,0,0,4.11.36c1.61-.18,1.61-.89,1.26-2S226,98.77,224,98.23,222.79,97,222.79,97l-.71-3.58a7.84,7.84,0,0,0,3,.36c2.32,0,1.25-.18,3-.36s0-1.61-.54-2.51-.71-.71-2.68-2.68-.18-.9-.18-.9-3.76-3.4-5.19-4.83a19.09,19.09,0,0,0-3.76-2.68s-3.4-6.8-2.5-6.8,3.4,1.78,7.15,4.29,1.44,2.15,3,4.83,1.43-.36,1.43-.36l-1.43-3.4-1.61-4.47A21.94,21.94,0,0,0,226.91,75ZM182.63,89.21s.58.19,0-2.15-5.26-5.25-5.26-4.67.39,4.48.39,4.48,1.56,1.95.78,2.14-2.73-.39-3.12.2,0,2.33,0,2.33l-2.91-1,.58,2.14,1.75,1.17s.39-.2.2.78S172.7,96,172.7,96l1.75,2.72s1,1.17.59,2-2.15,1.17-.39,1.36a32.69,32.69,0,0,0,3.3.2v1.55l2.34.2,2-.2.77-1.75-.19-2.14s-.39-.19,0-1.36a12.55,12.55,0,0,0,.39-3.12s-.78-1,.39-1.36,3.11-1.17,3.11-1.17,1.56,0,.39-1.36a5.84,5.84,0,0,0-2.53-1.75Zm102.18,85s-.87,5.79-2,16.79,3.18,14.18,2.6,19.1-1.16,9,1.45,11.29,2.89,4,2.6,6.36.87,7.82,2,8.4,2,2.6,2.6,5.5,4.05,7.81,4.05,7.81-.28-11.29,0-15.34-1.44-10.71-2.31-12.15-.87-2.61-.87-6.08a41.05,41.05,0,0,0-1.16-8.11,43.67,43.67,0,0,1-.58-6.65c0-2.32.58-4.34-1.15-6.66s-2.9-4-2.9-4-.29-2.9-.58-4.92-2.31-8.69-2.31-8.69Zm17.95,101s-2.61-1.45.57,7.53,2.32,7.81,2.32,13.89,1.74,8.39,2.6,10.71a25.39,25.39,0,0,1,1.74,8.39c0,2.89,4.05,8.1,4.05,8.1v5.5c0,2.9.58,3.48,3.19,6.66s2.89,6.95,3.47,8.39,4.92,5.79,4.92,5.79l3.76,2.9s2.9,5.21,5.79,0,2.32-20.26,2-26.05-8.69-8.69-9.84-8.4-1.16,3.77-4.34.87-7.82-9.26-8.69-11.57-3.47-5.79-3.47-7a51.4,51.4,0,0,0-.87-8.1,32.48,32.48,0,0,1-.87-6.37c0-1.45-.87-7.24-.87-7.24l-.28-2.6S301.6,270.92,302.76,275.26Z" style="fill:#4468E2"></path><path d="M226.91,75c1.79,0,10.74,7.7,10.74,7.7L252,94.11l18.26,13.25-.36,3.4-.36.71a25.56,25.56,0,0,0-1.25,3.4c-.36,1.44.54,1.61.71,2.51a15.5,15.5,0,0,1-.53,3.76s2.32,6.44,2.68,7.51,1.61,3.58,2.15,4.66,2,4.11,3.58,7.34S281,153,281.49,155.5s-7.69-12.53-8.23-13.42-3.76-5.55-6.8-9.49-6.26-8-6.26-8-4.66-5.91-6.27-6.44.18.53,1.79,1.25.54,1.79.18,3.58-2.15.71-2.15.71l-.36.9s2,1.07,1.44,1.79a6,6,0,0,1-2.33,1.25l-.54-.72s-2.86-2-2.86-3.4,2.51-2.14,2.51-2.14-2.69-1.61-3.23-3a2.81,2.81,0,0,1,0-2.32l-1.25-3.58s-3.4-3.58-5.73-3.76-5.54-2.68-6.26-3.58-2.51-3.22-5.37-2.33-7.34,9-9.13,10.56a9.07,9.07,0,0,0-2.32,4.48s0,4.11-.18,5.55-2,3-2.87,4.29-3.57-1.79-3.57-2.33,3.57-3.4,4.29-5.19-.18-.71-.18-.71-.18-2.51-.18-3.22a3.54,3.54,0,0,1,2.15-2.51,5.65,5.65,0,0,0,2.15-2.15l1.43-2.32s0-2.69-.72-3.22-.71-.54-1.07-2.33a2.1,2.1,0,0,1,2.15-2.51,23.1,23.1,0,0,0,4.11.36c1.61-.18,1.61-.89,1.26-2S226,98.77,224,98.23,222.79,97,222.79,97l-.71-3.58a7.84,7.84,0,0,0,3,.36c2.32,0,1.25-.18,3-.36s0-1.61-.54-2.51-.71-.71-2.68-2.68-.18-.9-.18-.9-3.76-3.4-5.19-4.83a19.09,19.09,0,0,0-3.76-2.68s-3.4-6.8-2.5-6.8,3.4,1.78,7.15,4.29,1.44,2.15,3,4.83,1.43-.36,1.43-.36l-1.43-3.4-1.61-4.47A21.94,21.94,0,0,0,226.91,75ZM182.63,89.21s.58.19,0-2.15-5.26-5.25-5.26-4.67.39,4.48.39,4.48,1.56,1.95.78,2.14-2.73-.39-3.12.2,0,2.33,0,2.33l-2.91-1,.58,2.14,1.75,1.17s.39-.2.2.78S172.7,96,172.7,96l1.75,2.72s1,1.17.59,2-2.15,1.17-.39,1.36a32.69,32.69,0,0,0,3.3.2v1.55l2.34.2,2-.2.77-1.75-.19-2.14s-.39-.19,0-1.36a12.55,12.55,0,0,0,.39-3.12s-.78-1,.39-1.36,3.11-1.17,3.11-1.17,1.56,0,.39-1.36a5.84,5.84,0,0,0-2.53-1.75Zm102.18,85s-.87,5.79-2,16.79,3.18,14.18,2.6,19.1-1.16,9,1.45,11.29,2.89,4,2.6,6.36.87,7.82,2,8.4,2,2.6,2.6,5.5,4.05,7.81,4.05,7.81-.28-11.29,0-15.34-1.44-10.71-2.31-12.15-.87-2.61-.87-6.08a41.05,41.05,0,0,0-1.16-8.11,43.67,43.67,0,0,1-.58-6.65c0-2.32.58-4.34-1.15-6.66s-2.9-4-2.9-4-.29-2.9-.58-4.92-2.31-8.69-2.31-8.69Zm17.95,101s-2.61-1.45.57,7.53,2.32,7.81,2.32,13.89,1.74,8.39,2.6,10.71a25.39,25.39,0,0,1,1.74,8.39c0,2.89,4.05,8.1,4.05,8.1v5.5c0,2.9.58,3.48,3.19,6.66s2.89,6.95,3.47,8.39,4.92,5.79,4.92,5.79l3.76,2.9s2.9,5.21,5.79,0,2.32-20.26,2-26.05-8.69-8.69-9.84-8.4-1.16,3.77-4.34.87-7.82-9.26-8.69-11.57-3.47-5.79-3.47-7a51.4,51.4,0,0,0-.87-8.1,32.48,32.48,0,0,1-.87-6.37c0-1.45-.87-7.24-.87-7.24l-.28-2.6S301.6,270.92,302.76,275.26Z" style="opacity:0.26"></path><path d="M211.75,79s-8.75-3.75-13.5-4.25a39.37,39.37,0,0,0-10.5.75" style="fill:none;stroke:#263238;stroke-linecap:round;stroke-linejoin:round"></path><line x1="185.5" y1="76.75" x2="182" y2="77.5" style="fill:none;stroke:#263238;stroke-linecap:round;stroke-linejoin:round"></line><path d="M241.29,280.54,242,287" style="fill:none;stroke:#263238;stroke-linecap:round;stroke-linejoin:round"></path><path d="M230.7,187c3.09,26.18,7.38,64.6,9.68,85.38" style="fill:none;stroke:#263238;stroke-linecap:round;stroke-linejoin:round"></path><path d="M217.5,130.5s-.25,6,2.25,9.75,5.75,11,7.5,19.75c.42,2.11,1.49,10.55,2.88,22.16" style="fill:none;stroke:#263238;stroke-linecap:round;stroke-linejoin:round"></path><path d="M169.47,81.41A9.11,9.11,0,0,1,173,82.75" style="fill:none;stroke:#263238;stroke-linecap:round;stroke-linejoin:round"></path><path d="M116.45,165.9C119.53,149.6,126,130,126,130s7.5-13.5,12.5-20,11-19.75,12.25-21.25,12.25-6.25,15-7" style="fill:none;stroke:#263238;stroke-linecap:round;stroke-linejoin:round"></path><path d="M108.69,217.94a83.05,83.05,0,0,0,.06-10.44c-.5-6,4.5-17,6.5-34,.15-1.26.33-2.57.55-3.92" style="fill:none;stroke:#263238;stroke-linecap:round;stroke-linejoin:round"></path><path d="M108.25,225c0-.54.13-2.17.27-4.32" style="fill:none;stroke:#263238;stroke-linecap:round;stroke-linejoin:round"></path><path d="M277.5,118.5s-6,2.25-7,8" style="fill:none;stroke:#263238;stroke-linecap:round;stroke-linejoin:round"></path><path d="M176,252v5.67l.67,4V263" style="fill:none;stroke:#263238;stroke-linecap:round;stroke-linejoin:round"></path><path d="M179.67,147.24V158c0,6,3.33,21,3.33,25.33s-1.33,13.34-2,20.67-1,13.67-2.67,18.67A48.06,48.06,0,0,0,176,237.33v3.33" style="fill:none;stroke:#263238;stroke-linecap:round;stroke-linejoin:round"></path><path d="M179.67,136.33v7.39" style="fill:none;stroke:#263238;stroke-linecap:round;stroke-linejoin:round"></path><path d="M193.33,75s-5,13.33-5,15.67,2,9.33,2,12,3,13,3,15.33.67,7.67,1,10.33.67,8.34,1.34,10.34.33,4.66.66,7,1,9.66,1,9.66,5-7.66,6.34-10a59.74,59.74,0,0,1,5.66-7l2-2s2.67-.66,4,0,5.19,5.66,5.19,5.66" style="fill:none;stroke:#263238;stroke-linecap:round;stroke-linejoin:round"></path><path d="M172.72,66.64s-9.73,2.43-14.84,7.54-8,10.46-9.74,12.41-8.51,14.11-10,16.79-12.9,12.65-16.06,19.7-10.46,25.55-11.19,26.28-9.25,17.52-11,23.11-4.62,19.95-5.35,23.85S90,225.51,89.27,236.46s-2,20.92-1.71,24.82-1.46,13.87-1.46,13.87,38.93-9,82.72,6.08,84.67,46.22,91,48.9,28,16.79,74.93,42.09S400,397,407.26,392.66s10.21-5.35,10.21-5.35-3.89,1.7-17.76-5.6-39.17-34.55-42.82-39.41-17.76-28-18.49-29.93,1.71-6.57,1-10.22-4.87-13.14-4.87-15.57,2.19-9.25,2.19-13.14-3.41-11.92-3.41-14.11-2.43-27.73-3.4-30.9-5.36-17.76-5.36-17.76-7.78-20.44-9.24-24.81-5.11-12.17-5.11-12.17l-12.65-29.2s-23.6-33.08-27-36.49-19-14.6-19-14.6-17-13.38-21.41-16.54-18-6.33-24.33-8-21.17-3.41-25.06-3.41A32.92,32.92,0,0,0,172.72,66.64Z" style="fill:none;stroke:#263238;stroke-linecap:round;stroke-linejoin:round"></path><rect x="207.32" y="62.09" width="6.58" height="4.86" style="fill:#263238;stroke:#263238;stroke-linecap:round;stroke-linejoin:round;stroke-width:0.5px"></rect><path d="M222.76,70.66l-1.43.58v2.14L206.6,69.81V65.66a51.65,51.65,0,0,1,10.15,1.72c3.86,1.28,6,2.14,6,2.14Z" style="fill:#263238;stroke:#263238;stroke-linecap:round;stroke-linejoin:round;stroke-width:0.5px"></path><path d="M222.76,69.52v1.14A30,30,0,0,0,206.46,67l-.07-1.29S215.47,64.8,222.76,69.52Z" style="fill:#fff;stroke:#263238;stroke-linecap:round;stroke-linejoin:round"></path><polygon points="207.89 64.23 207.89 69.81 189.16 65.95 189.02 64.52 207.89 64.23" style="fill:#263238;stroke:#263238;stroke-linecap:round;stroke-linejoin:round;stroke-width:0.5px"></polygon><rect x="197.45" y="65.66" width="0.71" height="4.43" style="fill:#fff;stroke:#263238;stroke-linecap:round;stroke-linejoin:round;stroke-width:0.5px"></rect><rect x="205.67" y="65.66" width="0.71" height="5.72" style="fill:#fff;stroke:#263238;stroke-linecap:round;stroke-linejoin:round;stroke-width:0.5px"></rect><rect x="188.31" y="64.23" width="19.58" height="1.86" style="fill:#fff;stroke:#263238;stroke-linecap:round;stroke-linejoin:round"></rect><rect x="207.32" y="62.09" width="6.58" height="1.86" style="fill:#fff;stroke:#263238;stroke-linecap:round;stroke-linejoin:round"></rect><path d="M285.54,410.9a8.16,8.16,0,0,1,7.93,8.38,8.73,8.73,0,0,1-.6,3.21q5.29,1.8,10.57,3.43a7.57,7.57,0,0,1,4.39-1.4,7.9,7.9,0,0,1,7.11,4.67q6.12,1.62,12.2,2.91a7.93,7.93,0,1,1,15.83.8,9.26,9.26,0,0,1-.22,1.92l.27,0c.51-7.89,6.71-14.12,14.3-14.12,7.93,0,14.36,6.79,14.36,15.17,0,.1,0,.2,0,.3,3.37-.18,6.7-.49,9.95-.95a14.43,14.43,0,0,1,13.48-10,13.84,13.84,0,0,1,9.48,3.8c1.07-.45,2.12-.93,3.17-1.42a8.61,8.61,0,0,1-.56-3.06,8.18,8.18,0,0,1,7.94-8.39,7.79,7.79,0,0,1,6.18,3.13q1.95-1.5,3.82-3.15a8.53,8.53,0,0,1-3.2-6.72,8.16,8.16,0,0,1,7.93-8.38,7.77,7.77,0,0,1,6.41,3.46C455,381,425.44,383,415,388.26c0,0-38,10.16-71.78-8.35s-97.87-65.38-111.65-70.38-100.63-34.39-123-34.39-41.28,5.35-60.38,20.64c-13.95,11.16-26.66,31.67-28.06,47.59a19.45,19.45,0,0,1,5.78-3.15,6.17,6.17,0,0,1-2.25-4.81,5.93,5.93,0,0,1,5.76-6.08,5.92,5.92,0,0,1,5.75,6.08,6.27,6.27,0,0,1-1.31,3.87c8.49.8,15.44,7.2,17.55,15.68A19.39,19.39,0,0,1,65.27,349c9.67,0,17.73,7.24,19.61,16.86A14.79,14.79,0,0,1,93,357.52a8.5,8.5,0,0,1-3.57-7,7.95,7.95,0,1,1,15.87,0,8.52,8.52,0,0,1-3.08,6.62,14.34,14.34,0,0,1,6.5,4.33c.19-8.2,6.53-14.78,14.34-14.78,7.37,0,13.43,5.87,14.25,13.42a13.5,13.5,0,0,1,9.48.62,7.92,7.92,0,0,1,7.25-5,8.16,8.16,0,0,1,7.93,8.38,9,9,0,0,1-.14,1.57,7.57,7.57,0,0,1,4.68-1.62,8.16,8.16,0,0,1,7.93,8.38,8.93,8.93,0,0,1-.07,1c1.92.6,3.84,1.22,5.77,1.88,0-.22,0-.44,0-.67a7.95,7.95,0,1,1,15.87,0,8.57,8.57,0,0,1-2.18,5.75l.76.31a7.89,7.89,0,0,1,7.08-4.62,8.18,8.18,0,0,1,7.94,8.39,8.77,8.77,0,0,1-.34,2.41c2.78,1.21,5.58,2.46,8.4,3.72a8.38,8.38,0,0,1,2-3.16,6,6,0,0,1-4.85-6,5.76,5.76,0,1,1,11.51,0,6.28,6.28,0,0,1-1.2,3.71,8.17,8.17,0,0,1,7.91,8.38,8.81,8.81,0,0,1-.81,3.68l2,.91a14.64,14.64,0,0,1,6-5.51,6,6,0,0,1-4.29-5.88,5.76,5.76,0,1,1,11.51,0,6.23,6.23,0,0,1-1.91,4.52c.23,0,.45,0,.68,0,7.93,0,14.36,6.79,14.36,15.17a16,16,0,0,1-.36,3.34l.9.39a7.88,7.88,0,0,1,7-4.49,8.17,8.17,0,0,1,7.93,8.39,8.82,8.82,0,0,1-.27,2.13l.85.34,1.24.48A8,8,0,0,1,285.54,410.9Zm-235-64.12a6.09,6.09,0,1,1,5.75-6.08A5.93,5.93,0,0,1,50.54,346.78Zm31.07,3.74a6.09,6.09,0,1,1,5.75-6.08A5.93,5.93,0,0,1,81.61,350.52Z" style="fill:#4468E2"></path><path d="M285.54,410.9a8.16,8.16,0,0,1,7.93,8.38,8.73,8.73,0,0,1-.6,3.21q5.29,1.8,10.57,3.43a7.57,7.57,0,0,1,4.39-1.4,7.9,7.9,0,0,1,7.11,4.67q6.12,1.62,12.2,2.91a7.93,7.93,0,1,1,15.83.8,9.26,9.26,0,0,1-.22,1.92l.27,0c.51-7.89,6.71-14.12,14.3-14.12,7.93,0,14.36,6.79,14.36,15.17,0,.1,0,.2,0,.3,3.37-.18,6.7-.49,9.95-.95a14.43,14.43,0,0,1,13.48-10,13.84,13.84,0,0,1,9.48,3.8c1.07-.45,2.12-.93,3.17-1.42a8.61,8.61,0,0,1-.56-3.06,8.18,8.18,0,0,1,7.94-8.39,7.79,7.79,0,0,1,6.18,3.13q1.95-1.5,3.82-3.15a8.53,8.53,0,0,1-3.2-6.72,8.16,8.16,0,0,1,7.93-8.38,7.77,7.77,0,0,1,6.41,3.46C455,381,425.44,383,415,388.26c0,0-38,10.16-71.78-8.35s-97.87-65.38-111.65-70.38-100.63-34.39-123-34.39-41.28,5.35-60.38,20.64c-13.95,11.16-26.66,31.67-28.06,47.59a19.45,19.45,0,0,1,5.78-3.15,6.17,6.17,0,0,1-2.25-4.81,5.93,5.93,0,0,1,5.76-6.08,5.92,5.92,0,0,1,5.75,6.08,6.27,6.27,0,0,1-1.31,3.87c8.49.8,15.44,7.2,17.55,15.68A19.39,19.39,0,0,1,65.27,349c9.67,0,17.73,7.24,19.61,16.86A14.79,14.79,0,0,1,93,357.52a8.5,8.5,0,0,1-3.57-7,7.95,7.95,0,1,1,15.87,0,8.52,8.52,0,0,1-3.08,6.62,14.34,14.34,0,0,1,6.5,4.33c.19-8.2,6.53-14.78,14.34-14.78,7.37,0,13.43,5.87,14.25,13.42a13.5,13.5,0,0,1,9.48.62,7.92,7.92,0,0,1,7.25-5,8.16,8.16,0,0,1,7.93,8.38,9,9,0,0,1-.14,1.57,7.57,7.57,0,0,1,4.68-1.62,8.16,8.16,0,0,1,7.93,8.38,8.93,8.93,0,0,1-.07,1c1.92.6,3.84,1.22,5.77,1.88,0-.22,0-.44,0-.67a7.95,7.95,0,1,1,15.87,0,8.57,8.57,0,0,1-2.18,5.75l.76.31a7.89,7.89,0,0,1,7.08-4.62,8.18,8.18,0,0,1,7.94,8.39,8.77,8.77,0,0,1-.34,2.41c2.78,1.21,5.58,2.46,8.4,3.72a8.38,8.38,0,0,1,2-3.16,6,6,0,0,1-4.85-6,5.76,5.76,0,1,1,11.51,0,6.28,6.28,0,0,1-1.2,3.71,8.17,8.17,0,0,1,7.91,8.38,8.81,8.81,0,0,1-.81,3.68l2,.91a14.64,14.64,0,0,1,6-5.51,6,6,0,0,1-4.29-5.88,5.76,5.76,0,1,1,11.51,0,6.23,6.23,0,0,1-1.91,4.52c.23,0,.45,0,.68,0,7.93,0,14.36,6.79,14.36,15.17a16,16,0,0,1-.36,3.34l.9.39a7.88,7.88,0,0,1,7-4.49,8.17,8.17,0,0,1,7.93,8.39,8.82,8.82,0,0,1-.27,2.13l.85.34,1.24.48A8,8,0,0,1,285.54,410.9Zm-235-64.12a6.09,6.09,0,1,1,5.75-6.08A5.93,5.93,0,0,1,50.54,346.78Zm31.07,3.74a6.09,6.09,0,1,1,5.75-6.08A5.93,5.93,0,0,1,81.61,350.52Z" style="opacity:0.16"></path><path d="M44.45,299.87s8.35.83,12.59,6A16.16,16.16,0,0,1,69.55,300a16.24,16.24,0,1,0-25.11-.12Z" style="fill:#4468E2"></path><path d="M44.45,299.87s8.35.83,12.59,6A16.16,16.16,0,0,1,69.55,300a16.24,16.24,0,1,0-25.11-.12Z" style="opacity:0.4"></path><polygon points="57.44 312.68 56.76 274.53 56.6 312.68 57.44 312.68" style="fill:#263238"></polygon><path d="M57.19,304.3s2.82-5.08,7.9-6.63c0,0-5.36,1.27-8,5.64Z" style="fill:#263238"></path><path d="M57.19,289.91s2.82-5.08,7.9-6.63c0,0-5.36,1.27-8,5.64Z" style="fill:#263238"></path><path d="M57.19,297.1s2.82-5.08,7.9-6.63c0,0-5.36,1.27-8,5.65Z" style="fill:#263238"></path><path d="M56.77,293.58s-2.72-5.08-7.62-6.63c0,0,5.17,1.27,7.76,5.64Z" style="fill:#263238"></path><path d="M56.77,300.63s-2.72-5.08-7.62-6.63c0,0,5.17,1.27,7.76,5.64Z" style="fill:#263238"></path><path d="M70.73,286.54s7.33.73,11,5.27a14.2,14.2,0,0,1,11-5.16,14.26,14.26,0,1,0-22-.1Z" style="fill:#4468E2"></path><path d="M70.73,286.54s7.33.73,11,5.27a14.2,14.2,0,0,1,11-5.16,14.26,14.26,0,1,0-22-.1Z" style="opacity:0.31"></path><polygon points="82.13 297.79 81.53 264.31 81.39 297.79 82.13 297.79" style="fill:#263238"></polygon><path d="M81.91,290.43s2.47-4.46,6.93-5.82c0,0-4.71,1.11-7.06,4.95Z" style="fill:#263238"></path><path d="M81.91,277.8s2.47-4.45,6.93-5.82c0,0-4.71,1.12-7.06,5Z" style="fill:#263238"></path><path d="M81.91,284.11s2.47-4.45,6.93-5.81c0,0-4.71,1.11-7.06,4.95Z" style="fill:#263238"></path><path d="M81.54,281s-2.39-4.46-6.69-5.82a12,12,0,0,1,6.81,4.95Z" style="fill:#263238"></path><path d="M81.54,287.21s-2.39-4.46-6.69-5.82a12,12,0,0,1,6.81,4.95Z" style="fill:#263238"></path><path d="M98,283s6.64.65,10,4.77a12.83,12.83,0,0,1,9.94-4.67A12.9,12.9,0,1,0,98,283Z" style="fill:#4468E2"></path><path d="M98,283s6.64.65,10,4.77a12.83,12.83,0,0,1,9.94-4.67A12.9,12.9,0,1,0,98,283Z" style="opacity:0.4"></path><polygon points="108.3 293.2 107.76 262.91 107.63 293.2 108.3 293.2" style="fill:#263238"></polygon><path d="M108.1,286.54s2.24-4,6.27-5.26a11.28,11.28,0,0,0-6.38,4.48Z" style="fill:#263238"></path><path d="M108.1,275.12s2.24-4,6.27-5.27a11.28,11.28,0,0,0-6.38,4.48Z" style="fill:#263238"></path><path d="M108.1,280.83s2.24-4,6.27-5.26a11.22,11.22,0,0,0-6.38,4.48Z" style="fill:#263238"></path><path d="M107.77,278s-2.17-4-6.06-5.26a10.81,10.81,0,0,1,6.16,4.48Z" style="fill:#263238"></path><path d="M107.77,283.63s-2.17-4-6.06-5.26a10.81,10.81,0,0,1,6.16,4.48Z" style="fill:#263238"></path><path d="M106.84,323.86s6.64.65,10,4.77a12.83,12.83,0,0,1,9.94-4.67,12.91,12.91,0,1,0-19.94-.09Z" style="fill:#4468E2"></path><path d="M106.84,323.86s6.64.65,10,4.77a12.83,12.83,0,0,1,9.94-4.67,12.91,12.91,0,1,0-19.94-.09Z" style="opacity:0.4"></path><polygon points="117.15 334.03 116.62 303.74 116.49 334.03 117.15 334.03" style="fill:#263238"></polygon><path d="M117,327.37s2.24-4,6.27-5.26a11.32,11.32,0,0,0-6.39,4.48Z" style="fill:#263238"></path><path d="M117,316s2.24-4,6.27-5.27a11.32,11.32,0,0,0-6.39,4.48Z" style="fill:#263238"></path><path d="M117,321.66s2.24-4,6.27-5.26a11.26,11.26,0,0,0-6.39,4.48Z" style="fill:#263238"></path><path d="M116.62,318.86s-2.16-4-6.05-5.26a10.81,10.81,0,0,1,6.16,4.48Z" style="fill:#263238"></path><path d="M116.62,324.46s-2.16-4-6.05-5.26a10.87,10.87,0,0,1,6.16,4.48Z" style="fill:#263238"></path><path d="M120.85,281.68s7.35.72,11.07,5.28a14.22,14.22,0,0,1,11-5.17,14.29,14.29,0,1,0-22.07-.1Z" style="fill:#4468E2"></path><path d="M120.85,281.68s7.35.72,11.07,5.28a14.22,14.22,0,0,1,11-5.17,14.29,14.29,0,1,0-22.07-.1Z" style="opacity:0.31"></path><polygon points="132.27 292.94 131.68 259.4 131.53 292.94 132.27 292.94" style="fill:#263238"></polygon><path d="M132.05,285.57s2.48-4.47,6.94-5.83c0,0-4.71,1.12-7.06,5Z" style="fill:#263238"></path><path d="M132.05,272.92s2.48-4.47,6.94-5.83c0,0-4.71,1.12-7.06,5Z" style="fill:#263238"></path><path d="M132.05,279.24s2.48-4.46,6.94-5.82c0,0-4.71,1.11-7.06,5Z" style="fill:#263238"></path><path d="M131.68,276.14s-2.39-4.46-6.7-5.83a12,12,0,0,1,6.82,5Z" style="fill:#263238"></path><path d="M131.68,282.35s-2.39-4.47-6.7-5.83a12,12,0,0,1,6.82,5Z" style="fill:#263238"></path><path d="M144.37,287.38s6.74.66,10.15,4.84a13,13,0,0,1,10.09-4.74,13.1,13.1,0,1,0-20.24-.09Z" style="fill:#4468E2"></path><path d="M144.37,287.38s6.74.66,10.15,4.84a13,13,0,0,1,10.09-4.74,13.1,13.1,0,1,0-20.24-.09Z" style="opacity:0.4"></path><polygon points="154.84 297.71 154.3 266.95 154.16 297.71 154.84 297.71" style="fill:#263238"></polygon><path d="M154.64,291s2.27-4.1,6.37-5.35a11.5,11.5,0,0,0-6.48,4.55Z" style="fill:#263238"></path><path d="M154.64,279.35s2.27-4.1,6.37-5.35a11.44,11.44,0,0,0-6.48,4.55Z" style="fill:#263238"></path><path d="M154.64,285.15s2.27-4.1,6.37-5.35a11.5,11.5,0,0,0-6.48,4.55Z" style="fill:#263238"></path><path d="M154.3,282.3s-2.19-4.09-6.14-5.34a11,11,0,0,1,6.25,4.55Z" style="fill:#263238"></path><path d="M154.3,288s-2.19-4.09-6.14-5.34a11,11,0,0,1,6.25,4.55Z" style="fill:#263238"></path><path d="M163.26,296.66s7,.69,10.55,5a13.56,13.56,0,0,1,10.49-4.92,13.62,13.62,0,1,0-21-.1Z" style="fill:#4468E2"></path><path d="M163.26,296.66s7,.69,10.55,5a13.56,13.56,0,0,1,10.49-4.92,13.62,13.62,0,1,0-21-.1Z" style="opacity:0.4"></path><polygon points="174.15 307.4 173.58 275.42 173.44 307.4 174.15 307.4" style="fill:#263238"></polygon><path d="M173.94,300.37s2.36-4.26,6.62-5.56c0,0-4.49,1.07-6.74,4.73Z" style="fill:#263238"></path><path d="M173.94,288.31s2.36-4.26,6.62-5.56c0,0-4.49,1.07-6.74,4.73Z" style="fill:#263238"></path><path d="M173.94,294.34s2.36-4.26,6.62-5.56c0,0-4.49,1.07-6.74,4.73Z" style="fill:#263238"></path><path d="M173.59,291.38s-2.29-4.25-6.39-5.55a11.45,11.45,0,0,1,6.5,4.73Z" style="fill:#263238"></path><path d="M173.59,297.3s-2.29-4.26-6.39-5.56a11.45,11.45,0,0,1,6.5,4.73Z" style="fill:#263238"></path><path d="M245,321.43s5.14.51,7.75,3.7a10,10,0,0,1,7.7-3.62,10,10,0,1,0-15.45-.07Z" style="fill:#4468E2"></path><path d="M245,321.43s5.14.51,7.75,3.7a10,10,0,0,1,7.7-3.62,10,10,0,1,0-15.45-.07Z" style="opacity:0.31"></path><polygon points="252.98 329.32 252.57 305.84 252.47 329.32 252.98 329.32" style="fill:#263238"></polygon><path d="M252.83,324.16a9.48,9.48,0,0,1,4.86-4.08,8.75,8.75,0,0,0-4.95,3.47Z" style="fill:#263238"></path><path d="M252.83,315.3a9.53,9.53,0,0,1,4.86-4.08,8.75,8.75,0,0,0-4.95,3.47Z" style="fill:#263238"></path><path d="M252.83,319.73a9.48,9.48,0,0,1,4.86-4.08,8.75,8.75,0,0,0-4.95,3.47Z" style="fill:#263238"></path><path d="M252.57,317.56a9.23,9.23,0,0,0-4.69-4.08,8.45,8.45,0,0,1,4.78,3.47Z" style="fill:#263238"></path><path d="M252.57,321.9a9.28,9.28,0,0,0-4.69-4.08,8.45,8.45,0,0,1,4.78,3.47Z" style="fill:#263238"></path><path d="M241.29,359.17s5.14.51,7.75,3.7a10,10,0,0,1,7.7-3.62,10,10,0,1,0-15.45-.07Z" style="fill:#4468E2"></path><path d="M241.29,359.17s5.14.51,7.75,3.7a10,10,0,0,1,7.7-3.62,10,10,0,1,0-15.45-.07Z" style="opacity:0.31"></path><polygon points="249.28 367.06 248.87 343.57 248.77 367.06 249.28 367.06" style="fill:#263238"></polygon><path d="M249.13,361.9a9.53,9.53,0,0,1,4.86-4.09,8.8,8.8,0,0,0-5,3.48Z" style="fill:#263238"></path><path d="M249.13,353A9.48,9.48,0,0,1,254,349a8.75,8.75,0,0,0-5,3.47Z" style="fill:#263238"></path><path d="M249.13,357.47a9.48,9.48,0,0,1,4.86-4.08,8.75,8.75,0,0,0-5,3.47Z" style="fill:#263238"></path><path d="M248.87,355.3a9.23,9.23,0,0,0-4.69-4.08,8.42,8.42,0,0,1,4.78,3.47Z" style="fill:#263238"></path><path d="M248.87,359.64a9.23,9.23,0,0,0-4.69-4.08A8.42,8.42,0,0,1,249,359Z" style="fill:#263238"></path><path d="M357.5,389.88s5.15.51,7.76,3.7A10,10,0,0,1,373,390a10,10,0,1,0-15.46-.07Z" style="fill:#4468E2"></path><path d="M357.5,389.88s5.15.51,7.76,3.7A10,10,0,0,1,373,390a10,10,0,1,0-15.46-.07Z" style="opacity:0.31"></path><polygon points="365.5 397.77 365.09 374.29 364.98 397.77 365.5 397.77" style="fill:#263238"></polygon><path d="M365.35,392.61a9.43,9.43,0,0,1,4.86-4.08,8.75,8.75,0,0,0-4.95,3.47Z" style="fill:#263238"></path><path d="M365.35,383.75a9.43,9.43,0,0,1,4.86-4.08,8.75,8.75,0,0,0-4.95,3.47Z" style="fill:#263238"></path><path d="M365.35,388.18a9.43,9.43,0,0,1,4.86-4.08,8.75,8.75,0,0,0-4.95,3.47Z" style="fill:#263238"></path><path d="M365.09,386a9.28,9.28,0,0,0-4.69-4.08,8.41,8.41,0,0,1,4.77,3.47Z" style="fill:#263238"></path><path d="M365.09,390.35a9.28,9.28,0,0,0-4.69-4.08,8.41,8.41,0,0,1,4.77,3.47Z" style="fill:#263238"></path><path d="M373.92,391.1s4.35.43,6.55,3.13a8.43,8.43,0,0,1,6.51-3.06,8.44,8.44,0,1,0-13.06-.06Z" style="fill:#4468E2"></path><path d="M373.92,391.1s4.35.43,6.55,3.13a8.43,8.43,0,0,1,6.51-3.06,8.44,8.44,0,1,0-13.06-.06Z" style="opacity:0.31"></path><polygon points="380.68 397.77 380.33 377.93 380.24 397.77 380.68 397.77" style="fill:#263238"></polygon><path d="M380.55,393.41a8,8,0,0,1,4.11-3.45,7.39,7.39,0,0,0-4.18,2.93Z" style="fill:#263238"></path><path d="M380.55,385.92a8,8,0,0,1,4.11-3.44,7.39,7.39,0,0,0-4.18,2.93Z" style="fill:#263238"></path><path d="M380.55,389.67a8,8,0,0,1,4.11-3.45,7.39,7.39,0,0,0-4.18,2.93Z" style="fill:#263238"></path><path d="M380.33,387.83a7.83,7.83,0,0,0-4-3.45,7.09,7.09,0,0,1,4,2.94Z" style="fill:#263238"></path><path d="M380.33,391.5a7.83,7.83,0,0,0-4-3.45,7.09,7.09,0,0,1,4,2.94Z" style="fill:#263238"></path><path d="M257.69,329.08s4.37.43,6.58,3.14a8.43,8.43,0,0,1,6.53-3.07,8.48,8.48,0,1,0-13.11-.06Z" style="fill:#4468E2"></path><path d="M257.69,329.08s4.37.43,6.58,3.14a8.43,8.43,0,0,1,6.53-3.07,8.48,8.48,0,1,0-13.11-.06Z" style="opacity:0.4"></path><polygon points="264.48 335.77 264.12 315.85 264.04 335.77 264.48 335.77" style="fill:#263238"></polygon><path d="M264.34,331.39a8.08,8.08,0,0,1,4.13-3.46,7.41,7.41,0,0,0-4.2,2.95Z" style="fill:#263238"></path><path d="M264.34,323.88a8.08,8.08,0,0,1,4.13-3.46,7.42,7.42,0,0,0-4.2,2.94Z" style="fill:#263238"></path><path d="M264.34,327.64a8.08,8.08,0,0,1,4.13-3.47,7.47,7.47,0,0,0-4.2,2.95Z" style="fill:#263238"></path><path d="M264.13,325.79a7.92,7.92,0,0,0-4-3.46,7.12,7.12,0,0,1,4.05,2.95Z" style="fill:#263238"></path><path d="M264.13,329.48a8,8,0,0,0-4-3.47A7.18,7.18,0,0,1,264.2,329Z" style="fill:#263238"></path><path d="M299.89,354.7s3.51.35,5.29,2.52a6.8,6.8,0,0,1,5.26-2.47,6.83,6.83,0,1,0-10.55-.05Z" style="fill:#4468E2"></path><path d="M299.89,354.7s3.51.35,5.29,2.52a6.8,6.8,0,0,1,5.26-2.47,6.83,6.83,0,1,0-10.55-.05Z" style="opacity:0.4"></path><polygon points="305.35 360.08 305.06 344.06 304.99 360.08 305.35 360.08" style="fill:#263238"></polygon><path d="M305.24,356.56a6.49,6.49,0,0,1,3.32-2.79,6,6,0,0,0-3.38,2.37Z" style="fill:#263238"></path><path d="M305.24,350.51a6.49,6.49,0,0,1,3.32-2.78,6,6,0,0,0-3.38,2.37Z" style="fill:#263238"></path><path d="M305.24,353.54a6.49,6.49,0,0,1,3.32-2.79,6,6,0,0,0-3.38,2.37Z" style="fill:#263238"></path><path d="M305.07,352.06a6.35,6.35,0,0,0-3.21-2.79,5.71,5.71,0,0,1,3.26,2.37Z" style="fill:#263238"></path><path d="M305.07,355a6.35,6.35,0,0,0-3.21-2.79,5.77,5.77,0,0,1,3.26,2.37Z" style="fill:#263238"></path><path d="M279.73,346.35s4,.39,6,2.87a7.77,7.77,0,0,1,6-2.81,7.78,7.78,0,1,0-12-.06Z" style="fill:#4468E2"></path><path d="M279.73,346.35s4,.39,6,2.87a7.77,7.77,0,0,1,6-2.81,7.78,7.78,0,1,0-12-.06Z" style="opacity:0.4"></path><polygon points="285.95 352.48 285.63 334.21 285.55 352.48 285.95 352.48" style="fill:#263238"></polygon><path d="M285.83,348.47a7.41,7.41,0,0,1,3.79-3.18,6.82,6.82,0,0,0-3.85,2.7Z" style="fill:#263238"></path><path d="M285.83,341.58a7.41,7.41,0,0,1,3.79-3.18,6.82,6.82,0,0,0-3.85,2.7Z" style="fill:#263238"></path><path d="M285.83,345a7.41,7.41,0,0,1,3.79-3.17,6.76,6.76,0,0,0-3.85,2.7Z" style="fill:#263238"></path><path d="M285.63,343.33a7.19,7.19,0,0,0-3.65-3.17,6.52,6.52,0,0,1,3.72,2.7Z" style="fill:#263238"></path><path d="M285.63,346.71a7.24,7.24,0,0,0-3.65-3.18,6.56,6.56,0,0,1,3.72,2.71Z" style="fill:#263238"></path><path d="M308.29,358.68s3.86.38,5.81,2.77a7.5,7.5,0,0,1,5.77-2.71,7.49,7.49,0,1,0-11.58-.05Z" style="fill:#4468E2"></path><path d="M308.29,358.68s3.86.38,5.81,2.77a7.5,7.5,0,0,1,5.77-2.71,7.49,7.49,0,1,0-11.58-.05Z" style="opacity:0.4"></path><polygon points="314.29 364.59 313.98 347 313.9 364.59 314.29 364.59" style="fill:#263238"></polygon><path d="M314.17,360.72a7.08,7.08,0,0,1,3.64-3.05,6.55,6.55,0,0,0-3.71,2.6Z" style="fill:#263238"></path><path d="M314.17,354.09a7.13,7.13,0,0,1,3.64-3.06,6.6,6.6,0,0,0-3.71,2.6Z" style="fill:#263238"></path><path d="M314.17,357.41a7.13,7.13,0,0,1,3.64-3.06,6.55,6.55,0,0,0-3.71,2.6Z" style="fill:#263238"></path><path d="M314,355.78a7,7,0,0,0-3.52-3.06,6.32,6.32,0,0,1,3.58,2.61Z" style="fill:#263238"></path><path d="M314,359a7,7,0,0,0-3.52-3,6.28,6.28,0,0,1,3.58,2.6Z" style="fill:#263238"></path><path d="M283,384.94s3.85.38,5.81,2.77a7.44,7.44,0,0,1,5.77-2.71,7.49,7.49,0,1,0-11.58-.06Z" style="fill:#4468E2"></path><path d="M283,384.94s3.85.38,5.81,2.77a7.44,7.44,0,0,1,5.77-2.71,7.49,7.49,0,1,0-11.58-.06Z" style="opacity:0.4"></path><polygon points="288.97 390.85 288.66 373.25 288.58 390.85 288.97 390.85" style="fill:#263238"></polygon><path d="M288.85,387a7.12,7.12,0,0,1,3.65-3.06,6.57,6.57,0,0,0-3.71,2.6Z" style="fill:#263238"></path><path d="M288.85,380.34a7.08,7.08,0,0,1,3.65-3,6.51,6.51,0,0,0-3.71,2.6Z" style="fill:#263238"></path><path d="M288.85,383.66a7.12,7.12,0,0,1,3.65-3.06,6.56,6.56,0,0,0-3.71,2.61Z" style="fill:#263238"></path><path d="M288.66,382a6.91,6.91,0,0,0-3.51-3,6.27,6.27,0,0,1,3.57,2.6Z" style="fill:#263238"></path><path d="M288.66,385.29a7,7,0,0,0-3.51-3.06,6.33,6.33,0,0,1,3.57,2.6Z" style="fill:#263238"></path><path d="M84.6,326.59s3.86.38,5.81,2.77a7.44,7.44,0,0,1,5.77-2.71,7.49,7.49,0,1,0-11.58,0Z" style="fill:#4468E2"></path><path d="M84.6,326.59s3.86.38,5.81,2.77a7.44,7.44,0,0,1,5.77-2.71,7.49,7.49,0,1,0-11.58,0Z" style="opacity:0.4"></path><polygon points="90.59 332.5 90.28 314.9 90.2 332.5 90.59 332.5" style="fill:#263238"></polygon><path d="M90.48,328.63a7.13,7.13,0,0,1,3.64-3.06,6.59,6.59,0,0,0-3.71,2.61Z" style="fill:#263238"></path><path d="M90.48,322a7.08,7.08,0,0,1,3.64-3.06,6.55,6.55,0,0,0-3.71,2.6Z" style="fill:#263238"></path><path d="M90.48,325.31a7.08,7.08,0,0,1,3.64-3.05,6.55,6.55,0,0,0-3.71,2.6Z" style="fill:#263238"></path><path d="M90.28,323.69a7,7,0,0,0-3.51-3.06,6.37,6.37,0,0,1,3.58,2.6Z" style="fill:#263238"></path><path d="M90.28,326.94a7,7,0,0,0-3.51-3.06,6.35,6.35,0,0,1,3.58,2.61Z" style="fill:#263238"></path><path d="M385.59,392.69s3.85.39,5.8,2.77a7.5,7.5,0,0,1,5.77-2.71,7.42,7.42,0,0,0,1.73-4.77,7.5,7.5,0,1,0-13.31,4.72Z" style="fill:#4468E2"></path><path d="M385.59,392.69s3.85.39,5.8,2.77a7.5,7.5,0,0,1,5.77-2.71,7.42,7.42,0,0,0,1.73-4.77,7.5,7.5,0,1,0-13.31,4.72Z" style="opacity:0.4"></path><polygon points="391.58 398.6 391.27 381.01 391.19 398.6 391.58 398.6" style="fill:#263238"></polygon><path d="M391.46,394.74a7.08,7.08,0,0,1,3.64-3.06,6.51,6.51,0,0,0-3.7,2.6Z" style="fill:#263238"></path><path d="M391.46,388.1A7.13,7.13,0,0,1,395.1,385a6.55,6.55,0,0,0-3.7,2.61Z" style="fill:#263238"></path><path d="M391.46,391.42a7.13,7.13,0,0,1,3.64-3.06,6.56,6.56,0,0,0-3.7,2.6Z" style="fill:#263238"></path><path d="M391.27,389.79a7,7,0,0,0-3.52-3.06,6.32,6.32,0,0,1,3.58,2.61Z" style="fill:#263238"></path><path d="M391.27,393a7,7,0,0,0-3.52-3.05,6.28,6.28,0,0,1,3.58,2.6Z" style="fill:#263238"></path><path d="M396.88,394.75s3.85.39,5.81,2.78a7.47,7.47,0,0,1,5.77-2.72,7.49,7.49,0,1,0-11.58-.05Z" style="fill:#4468E2"></path><path d="M396.88,394.75s3.85.39,5.81,2.78a7.47,7.47,0,0,1,5.77-2.72,7.49,7.49,0,1,0-11.58-.05Z" style="opacity:0.4"></path><polygon points="402.87 400.66 402.56 383.07 402.48 400.66 402.87 400.66" style="fill:#263238"></polygon><path d="M402.75,396.8a7.17,7.17,0,0,1,3.65-3.06,6.6,6.6,0,0,0-3.71,2.6Z" style="fill:#263238"></path><path d="M402.75,390.16a7.17,7.17,0,0,1,3.65-3.06,6.59,6.59,0,0,0-3.71,2.61Z" style="fill:#263238"></path><path d="M402.75,393.48a7.17,7.17,0,0,1,3.65-3.06,6.6,6.6,0,0,0-3.71,2.6Z" style="fill:#263238"></path><path d="M402.56,391.85a6.91,6.91,0,0,0-3.51-3.05,6.27,6.27,0,0,1,3.57,2.6Z" style="fill:#263238"></path><path d="M402.56,395.11a6.91,6.91,0,0,0-3.51-3.06,6.27,6.27,0,0,1,3.57,2.6Z" style="fill:#263238"></path><path d="M410.5,389.13s3.85.38,5.81,2.77a7.44,7.44,0,0,1,5.77-2.71,7.49,7.49,0,1,0-11.58-.06Z" style="fill:#4468E2"></path><path d="M410.5,389.13s3.85.38,5.81,2.77a7.44,7.44,0,0,1,5.77-2.71,7.49,7.49,0,1,0-11.58-.06Z" style="opacity:0.4"></path><polygon points="416.49 395.04 416.18 377.44 416.1 395.04 416.49 395.04" style="fill:#263238"></polygon><path d="M416.37,391.17a7.12,7.12,0,0,1,3.65-3.06,6.57,6.57,0,0,0-3.71,2.6Z" style="fill:#263238"></path><path d="M416.37,384.53a7.08,7.08,0,0,1,3.65-3,6.51,6.51,0,0,0-3.71,2.6Z" style="fill:#263238"></path><path d="M416.37,387.85a7.12,7.12,0,0,1,3.65-3.06,6.56,6.56,0,0,0-3.71,2.61Z" style="fill:#263238"></path><path d="M416.18,386.23a6.91,6.91,0,0,0-3.51-3.06,6.27,6.27,0,0,1,3.57,2.6Z" style="fill:#263238"></path><path d="M416.18,389.48a7,7,0,0,0-3.51-3.06,6.33,6.33,0,0,1,3.57,2.6Z" style="fill:#263238"></path><path d="M316.81,372.18s4.33.43,6.53,3.12a8.4,8.4,0,0,1,6.49-3.05,8.42,8.42,0,1,0-14.91-5.38,8.28,8.28,0,0,0,1.89,5.32Z" style="fill:#4468E2"></path><path d="M316.81,372.18s4.33.43,6.53,3.12a8.4,8.4,0,0,1,6.49-3.05,8.42,8.42,0,1,0-14.91-5.38,8.28,8.28,0,0,0,1.89,5.32Z" style="opacity:0.4"></path><polygon points="323.55 378.83 323.2 359.04 323.11 378.83 323.55 378.83" style="fill:#263238"></polygon><path d="M323.42,374.48a8,8,0,0,1,4.09-3.44,7.38,7.38,0,0,0-4.17,2.93Z" style="fill:#263238"></path><path d="M323.42,367a8,8,0,0,1,4.09-3.44,7.4,7.4,0,0,0-4.17,2.92Z" style="fill:#263238"></path><path d="M323.42,370.75a8,8,0,0,1,4.09-3.44,7.38,7.38,0,0,0-4.17,2.93Z" style="fill:#263238"></path><path d="M323.2,368.92a7.79,7.79,0,0,0-4-3.44,7.1,7.1,0,0,1,4,2.93Z" style="fill:#263238"></path><path d="M323.2,372.58a7.79,7.79,0,0,0-4-3.44,7.1,7.1,0,0,1,4,2.93Z" style="fill:#263238"></path><path d="M233.78,332.56s4.33.42,6.53,3.11a8.4,8.4,0,0,1,6.49-3.05,8.42,8.42,0,1,0-13-.06Z" style="fill:#4468E2"></path><path d="M233.78,332.56s4.33.42,6.53,3.11a8.4,8.4,0,0,1,6.49-3.05,8.42,8.42,0,1,0-13-.06Z" style="opacity:0.4"></path><polygon points="240.52 339.2 240.17 319.41 240.08 339.2 240.52 339.2" style="fill:#263238"></polygon><path d="M240.39,334.85a8,8,0,0,1,4.09-3.44,7.38,7.38,0,0,0-4.17,2.93Z" style="fill:#263238"></path><path d="M240.39,327.39a8,8,0,0,1,4.09-3.44,7.38,7.38,0,0,0-4.17,2.93Z" style="fill:#263238"></path><path d="M240.39,331.12a8,8,0,0,1,4.09-3.44,7.38,7.38,0,0,0-4.17,2.93Z" style="fill:#263238"></path><path d="M240.17,329.29a7.84,7.84,0,0,0-3.95-3.44,7.1,7.1,0,0,1,4,2.93Z" style="fill:#263238"></path><path d="M240.17,333a7.84,7.84,0,0,0-3.95-3.44,7.1,7.1,0,0,1,4,2.93Z" style="fill:#263238"></path><path d="M336.45,379s4.34.43,6.53,3.12a8.36,8.36,0,0,1,6.49-3,8.42,8.42,0,1,0-13-.06Z" style="fill:#4468E2"></path><path d="M336.45,379s4.34.43,6.53,3.12a8.36,8.36,0,0,1,6.49-3,8.42,8.42,0,1,0-13-.06Z" style="opacity:0.4"></path><polygon points="343.19 385.62 342.84 365.82 342.75 385.62 343.19 385.62" style="fill:#263238"></polygon><path d="M343.06,381.27a8,8,0,0,1,4.1-3.44,7.4,7.4,0,0,0-4.17,2.92Z" style="fill:#263238"></path><path d="M343.06,373.8a8,8,0,0,1,4.1-3.44,7.38,7.38,0,0,0-4.17,2.93Z" style="fill:#263238"></path><path d="M343.06,377.53a8,8,0,0,1,4.1-3.44A7.38,7.38,0,0,0,343,377Z" style="fill:#263238"></path><path d="M342.84,375.7a7.79,7.79,0,0,0-3.95-3.43,7.05,7.05,0,0,1,4,2.92Z" style="fill:#263238"></path><path d="M342.84,379.36a7.84,7.84,0,0,0-3.95-3.44,7.1,7.1,0,0,1,4,2.93Z" style="fill:#263238"></path><path d="M346.29,386s4.34.43,6.54,3.12a8.36,8.36,0,0,1,6.49-3.05,8.43,8.43,0,1,0-13-.06Z" style="fill:#4468E2"></path><path d="M346.29,386s4.34.43,6.54,3.12a8.36,8.36,0,0,1,6.49-3.05,8.43,8.43,0,1,0-13-.06Z" style="opacity:0.4"></path><polygon points="353.03 392.65 352.69 372.86 352.6 392.65 353.03 392.65" style="fill:#263238"></polygon><path d="M352.9,388.3a8,8,0,0,1,4.1-3.44,7.38,7.38,0,0,0-4.17,2.93Z" style="fill:#263238"></path><path d="M352.9,380.83a8.05,8.05,0,0,1,4.1-3.44,7.38,7.38,0,0,0-4.17,2.93Z" style="fill:#263238"></path><path d="M352.9,384.57a8,8,0,0,1,4.1-3.44,7.4,7.4,0,0,0-4.17,2.92Z" style="fill:#263238"></path><path d="M352.69,382.74a7.84,7.84,0,0,0-4-3.44,7.1,7.1,0,0,1,4,2.93Z" style="fill:#263238"></path><path d="M352.69,386.4a7.84,7.84,0,0,0-4-3.44,7.12,7.12,0,0,1,4,2.92Z" style="fill:#263238"></path><path d="M308.44,411.63s4.34.43,6.53,3.11a8.43,8.43,0,0,1,6.5-3.05,8.43,8.43,0,1,0-13-.06Z" style="fill:#4468E2"></path><path d="M308.44,411.63s4.34.43,6.53,3.11a8.43,8.43,0,0,1,6.5-3.05,8.43,8.43,0,1,0-13-.06Z" style="opacity:0.4"></path><polygon points="315.18 418.27 314.83 398.48 314.74 418.27 315.18 418.27" style="fill:#263238"></polygon><path d="M315.05,413.92a8,8,0,0,1,4.1-3.44,7.38,7.38,0,0,0-4.17,2.93Z" style="fill:#263238"></path><path d="M315.05,406.46a8,8,0,0,1,4.1-3.44A7.38,7.38,0,0,0,315,406Z" style="fill:#263238"></path><path d="M315.05,410.19a8,8,0,0,1,4.1-3.44,7.38,7.38,0,0,0-4.17,2.93Z" style="fill:#263238"></path><path d="M314.83,408.36a7.84,7.84,0,0,0-3.95-3.44,7.1,7.1,0,0,1,4,2.93Z" style="fill:#263238"></path><path d="M314.83,412a7.84,7.84,0,0,0-3.95-3.44,7.1,7.1,0,0,1,4,2.93Z" style="fill:#263238"></path><path d="M326.45,374.13s3.33.33,5,2.39a6.44,6.44,0,0,1,5-2.34,6.48,6.48,0,1,0-10-.05Z" style="fill:#4468E2"></path><path d="M326.45,374.13s3.33.33,5,2.39a6.44,6.44,0,0,1,5-2.34,6.48,6.48,0,1,0-10-.05Z" style="opacity:0.31"></path><polygon points="331.63 379.24 331.36 364.02 331.29 379.24 331.63 379.24" style="fill:#263238"></polygon><path d="M331.53,375.89a6.13,6.13,0,0,1,3.15-2.64,5.7,5.7,0,0,0-3.21,2.25Z" style="fill:#263238"></path><path d="M331.53,370.15a6.13,6.13,0,0,1,3.15-2.64,5.7,5.7,0,0,0-3.21,2.25Z" style="fill:#263238"></path><path d="M331.53,373a6.13,6.13,0,0,1,3.15-2.64,5.7,5.7,0,0,0-3.21,2.25Z" style="fill:#263238"></path><path d="M331.36,371.62a6,6,0,0,0-3-2.65,5.47,5.47,0,0,1,3.09,2.25Z" style="fill:#263238"></path><path d="M331.36,374.43a6,6,0,0,0-3-2.64,5.42,5.42,0,0,1,3.09,2.25Z" style="fill:#263238"></path><path d="M333.66,406.21s3.83.38,5.76,2.75a7.4,7.4,0,0,1,5.73-2.69,7.43,7.43,0,1,0-11.49-.06Z" style="fill:#4468E2"></path><path d="M333.66,406.21s3.83.38,5.76,2.75a7.4,7.4,0,0,1,5.73-2.69,7.43,7.43,0,1,0-11.49-.06Z" style="opacity:0.31"></path><polygon points="339.61 412.07 339.3 394.62 339.22 412.07 339.61 412.07" style="fill:#263238"></polygon><path d="M339.49,408.23a7.05,7.05,0,0,1,3.61-3,6.48,6.48,0,0,0-3.67,2.58Z" style="fill:#263238"></path><path d="M339.49,401.65a7.05,7.05,0,0,1,3.61-3,6.48,6.48,0,0,0-3.67,2.58Z" style="fill:#263238"></path><path d="M339.49,404.94a7.05,7.05,0,0,1,3.61-3,6.48,6.48,0,0,0-3.67,2.58Z" style="fill:#263238"></path><path d="M339.3,403.33a6.92,6.92,0,0,0-3.49-3,6.25,6.25,0,0,1,3.55,2.58Z" style="fill:#263238"></path><path d="M339.3,406.56a6.92,6.92,0,0,0-3.49-3,6.25,6.25,0,0,1,3.55,2.58Z" style="fill:#263238"></path><path d="M300.38,376.2s3.82.38,5.76,2.75a7.36,7.36,0,0,1,5.72-2.69,7.43,7.43,0,1,0-11.48-.05Z" style="fill:#4468E2"></path><path d="M300.38,376.2s3.82.38,5.76,2.75a7.36,7.36,0,0,1,5.72-2.69,7.43,7.43,0,1,0-11.48-.05Z" style="opacity:0.31"></path><polygon points="306.32 382.06 306.01 364.61 305.93 382.06 306.32 382.06" style="fill:#263238"></polygon><path d="M306.2,378.23a7.1,7.1,0,0,1,3.62-3,6.52,6.52,0,0,0-3.68,2.58Z" style="fill:#263238"></path><path d="M306.2,371.65a7.1,7.1,0,0,1,3.62-3,6.52,6.52,0,0,0-3.68,2.58Z" style="fill:#263238"></path><path d="M306.2,374.94a7.1,7.1,0,0,1,3.62-3,6.56,6.56,0,0,0-3.68,2.59Z" style="fill:#263238"></path><path d="M306,373.32a6.88,6.88,0,0,0-3.48-3,6.28,6.28,0,0,1,3.55,2.58Z" style="fill:#263238"></path><path d="M306,376.55a6.88,6.88,0,0,0-3.48-3,6.28,6.28,0,0,1,3.55,2.58Z" style="fill:#263238"></path><path d="M373,411.87s3.83.38,5.76,2.75a7.43,7.43,0,0,1,5.73-2.69,7.35,7.35,0,0,0,1.71-4.74,7.43,7.43,0,1,0-13.2,4.69Z" style="fill:#4468E2"></path><path d="M373,411.87s3.83.38,5.76,2.75a7.43,7.43,0,0,1,5.73-2.69,7.35,7.35,0,0,0,1.71-4.74,7.43,7.43,0,1,0-13.2,4.69Z" style="opacity:0.31"></path><polygon points="378.92 417.74 378.61 400.29 378.53 417.74 378.92 417.74" style="fill:#263238"></polygon><path d="M378.8,413.9a7,7,0,0,1,3.62-3,6.49,6.49,0,0,0-3.68,2.58Z" style="fill:#263238"></path><path d="M378.8,407.32a7,7,0,0,1,3.62-3,6.49,6.49,0,0,0-3.68,2.58Z" style="fill:#263238"></path><path d="M378.8,410.61a7,7,0,0,1,3.62-3,6.49,6.49,0,0,0-3.68,2.58Z" style="fill:#263238"></path><path d="M378.61,409a6.87,6.87,0,0,0-3.49-3,6.25,6.25,0,0,1,3.55,2.58Z" style="fill:#263238"></path><path d="M378.61,412.22a6.87,6.87,0,0,0-3.49-3,6.25,6.25,0,0,1,3.55,2.58Z" style="fill:#263238"></path><path d="M403.78,405.8s3.82.38,5.76,2.75a7.39,7.39,0,0,1,5.72-2.69,7.43,7.43,0,1,0-11.48-.05Z" style="fill:#4468E2"></path><path d="M403.78,405.8s3.82.38,5.76,2.75a7.39,7.39,0,0,1,5.72-2.69,7.43,7.43,0,1,0-11.48-.05Z" style="opacity:0.31"></path><polygon points="409.72 411.66 409.41 394.21 409.34 411.66 409.72 411.66" style="fill:#263238"></polygon><path d="M409.61,407.83a7.05,7.05,0,0,1,3.61-3,6.5,6.5,0,0,0-3.68,2.59Z" style="fill:#263238"></path><path d="M409.61,401.25a7.05,7.05,0,0,1,3.61-3,6.52,6.52,0,0,0-3.68,2.58Z" style="fill:#263238"></path><path d="M409.61,404.54a7.05,7.05,0,0,1,3.61-3,6.52,6.52,0,0,0-3.68,2.58Z" style="fill:#263238"></path><path d="M409.42,402.92a6.92,6.92,0,0,0-3.49-3,6.25,6.25,0,0,1,3.55,2.58Z" style="fill:#263238"></path><path d="M409.42,406.15a6.92,6.92,0,0,0-3.49-3,6.25,6.25,0,0,1,3.55,2.58Z" style="fill:#263238"></path><path d="M291.58,351s3.12.31,4.7,2.24a6,6,0,0,1,4.66-2.19,6.06,6.06,0,1,0-10.72-3.87,6,6,0,0,0,1.36,3.82Z" style="fill:#4468E2"></path><path d="M291.58,351s3.12.31,4.7,2.24a6,6,0,0,1,4.66-2.19,6.06,6.06,0,1,0-10.72-3.87,6,6,0,0,0,1.36,3.82Z" style="opacity:0.31"></path><polygon points="296.42 355.76 296.17 341.53 296.11 355.76 296.42 355.76" style="fill:#263238"></polygon><path d="M296.33,352.63a5.74,5.74,0,0,1,2.95-2.47,5.29,5.29,0,0,0-3,2.1Z" style="fill:#263238"></path><path d="M296.33,347.26a5.74,5.74,0,0,1,2.95-2.47,5.34,5.34,0,0,0-3,2.11Z" style="fill:#263238"></path><path d="M296.33,350a5.74,5.74,0,0,1,2.95-2.48,5.34,5.34,0,0,0-3,2.11Z" style="fill:#263238"></path><path d="M296.17,348.63a5.61,5.61,0,0,0-2.84-2.47,5.07,5.07,0,0,1,2.89,2.1Z" style="fill:#263238"></path><path d="M296.17,351.26a5.61,5.61,0,0,0-2.84-2.47,5.07,5.07,0,0,1,2.89,2.1Z" style="fill:#263238"></path><path d="M269.31,339.31s4.13.41,6.23,3a8,8,0,0,1,6.18-2.9,8,8,0,1,0-12.41-.06Z" style="fill:#4468E2"></path><path d="M269.31,339.31s4.13.41,6.23,3a8,8,0,0,1,6.18-2.9,8,8,0,1,0-12.41-.06Z" style="opacity:0.31"></path><polygon points="275.73 345.65 275.4 326.8 275.32 345.65 275.73 345.65" style="fill:#263238"></polygon><path d="M275.61,341.5a7.57,7.57,0,0,1,3.9-3.27,7,7,0,0,0-4,2.79Z" style="fill:#263238"></path><path d="M275.61,334.39a7.57,7.57,0,0,1,3.9-3.27,7,7,0,0,0-4,2.79Z" style="fill:#263238"></path><path d="M275.61,338a7.61,7.61,0,0,1,3.9-3.28,7,7,0,0,0-4,2.79Z" style="fill:#263238"></path><path d="M275.4,336.21a7.45,7.45,0,0,0-3.76-3.28,6.78,6.78,0,0,1,3.83,2.79Z" style="fill:#263238"></path><path d="M275.4,339.69a7.45,7.45,0,0,0-3.76-3.28,6.78,6.78,0,0,1,3.83,2.79Z" style="fill:#263238"></path><path d="M199.05,351.8s4.13.41,6.22,3a8,8,0,0,1,6.18-2.91,8,8,0,1,0-12.4-.05Z" style="fill:#4468E2"></path><path d="M199.05,351.8s4.13.41,6.22,3a8,8,0,0,1,6.18-2.91,8,8,0,1,0-12.4-.05Z" style="opacity:0.31"></path><polygon points="205.47 358.13 205.13 339.28 205.05 358.13 205.47 358.13" style="fill:#263238"></polygon><path d="M205.34,354a7.66,7.66,0,0,1,3.91-3.28,7.06,7.06,0,0,0-4,2.79Z" style="fill:#263238"></path><path d="M205.34,346.88a7.66,7.66,0,0,1,3.91-3.28,7.06,7.06,0,0,0-4,2.79Z" style="fill:#263238"></path><path d="M205.34,350.43a7.61,7.61,0,0,1,3.91-3.27,7,7,0,0,0-4,2.78Z" style="fill:#263238"></path><path d="M205.14,348.69a7.49,7.49,0,0,0-3.77-3.28,6.75,6.75,0,0,1,3.83,2.79Z" style="fill:#263238"></path><path d="M205.14,352.17a7.45,7.45,0,0,0-3.77-3.27,6.75,6.75,0,0,1,3.83,2.79Z" style="fill:#263238"></path><path d="M205.74,311s6,.6,9,4.3a11.55,11.55,0,0,1,8.94-4.2,11.62,11.62,0,1,0-17.94-.09Z" style="fill:#4468E2"></path><path d="M205.74,311s6,.6,9,4.3a11.55,11.55,0,0,1,8.94-4.2,11.62,11.62,0,1,0-17.94-.09Z" style="opacity:0.31"></path><polygon points="215.02 320.18 214.54 292.92 214.42 320.18 215.02 320.18" style="fill:#263238"></polygon><path d="M214.84,314.19a11,11,0,0,1,5.65-4.74,10.2,10.2,0,0,0-5.75,4Z" style="fill:#263238"></path><path d="M214.84,303.91a11,11,0,0,1,5.65-4.74,10.2,10.2,0,0,0-5.75,4Z" style="fill:#263238"></path><path d="M214.84,309.05a11,11,0,0,1,5.65-4.74,10.2,10.2,0,0,0-5.75,4Z" style="fill:#263238"></path><path d="M214.54,306.53s-1.94-3.63-5.44-4.74a9.8,9.8,0,0,1,5.54,4Z" style="fill:#263238"></path><path d="M214.54,311.57s-1.94-3.63-5.44-4.74a9.8,9.8,0,0,1,5.54,4Z" style="fill:#263238"></path><path d="M182.77,329.78s6,.59,9,4.29a11.53,11.53,0,0,1,8.94-4.2,11.61,11.61,0,1,0-18-.08Z" style="fill:#4468E2"></path><path d="M182.77,329.78s6,.59,9,4.29a11.53,11.53,0,0,1,8.94-4.2,11.61,11.61,0,1,0-18-.08Z" style="opacity:0.31"></path><polygon points="192.05 338.94 191.57 311.67 191.45 338.94 192.05 338.94" style="fill:#263238"></polygon><path d="M191.87,332.94a11,11,0,0,1,5.65-4.74,10.19,10.19,0,0,0-5.75,4Z" style="fill:#263238"></path><path d="M191.87,322.66a11,11,0,0,1,5.65-4.74,10.2,10.2,0,0,0-5.75,4Z" style="fill:#263238"></path><path d="M191.87,327.8a11,11,0,0,1,5.65-4.74,10.2,10.2,0,0,0-5.75,4Z" style="fill:#263238"></path><path d="M191.57,325.28s-1.94-3.63-5.45-4.74a9.81,9.81,0,0,1,5.55,4Z" style="fill:#263238"></path><path d="M191.57,330.32s-1.94-3.63-5.45-4.74a9.8,9.8,0,0,1,5.55,4Z" style="fill:#263238"></path><path d="M182.87,330.48s6,.59,9,4.3a11.53,11.53,0,0,1,8.94-4.2,11.61,11.61,0,1,0-17.95-.09Z" style="fill:#4468E2"></path><path d="M182.87,330.48s6,.59,9,4.3a11.53,11.53,0,0,1,8.94-4.2,11.61,11.61,0,1,0-17.95-.09Z" style="opacity:0.31"></path><polygon points="192.15 339.64 191.67 312.38 191.55 339.64 192.15 339.64" style="fill:#263238"></polygon><path d="M192,333.65a11,11,0,0,1,5.65-4.74,10.2,10.2,0,0,0-5.75,4Z" style="fill:#263238"></path><path d="M192,323.36a11,11,0,0,1,5.65-4.73,10.14,10.14,0,0,0-5.75,4Z" style="fill:#263238"></path><path d="M192,328.51a11,11,0,0,1,5.65-4.74,10.2,10.2,0,0,0-5.75,4Z" style="fill:#263238"></path><path d="M191.67,326s-1.94-3.63-5.44-4.74a9.8,9.8,0,0,1,5.54,4Z" style="fill:#263238"></path><path d="M191.67,331s-1.94-3.63-5.44-4.74a9.8,9.8,0,0,1,5.54,4Z" style="fill:#263238"></path><path d="M184.4,303.59s7,.69,10.55,5a13.54,13.54,0,0,1,10.49-4.92,13.62,13.62,0,1,0-21-.1Z" style="fill:#4468E2"></path><path d="M184.4,303.59s7,.69,10.55,5a13.54,13.54,0,0,1,10.49-4.92,13.62,13.62,0,1,0-21-.1Z" style="opacity:0.31"></path><polygon points="195.29 314.33 194.72 282.36 194.58 314.33 195.29 314.33" style="fill:#263238"></polygon><path d="M195.08,307.3s2.36-4.26,6.62-5.56c0,0-4.49,1.07-6.74,4.73Z" style="fill:#263238"></path><path d="M195.08,295.24s2.36-4.25,6.62-5.55c0,0-4.49,1.06-6.74,4.72Z" style="fill:#263238"></path><path d="M195.08,301.27s2.36-4.25,6.62-5.55c0,0-4.49,1.06-6.74,4.72Z" style="fill:#263238"></path><path d="M194.73,298.32s-2.29-4.26-6.39-5.56a11.45,11.45,0,0,1,6.5,4.73Z" style="fill:#263238"></path><path d="M194.73,304.23s-2.29-4.26-6.39-5.56a11.45,11.45,0,0,1,6.5,4.73Z" style="fill:#263238"></path><path d="M130.25,313.22s7,.69,10.55,5a13.54,13.54,0,0,1,10.49-4.92,13.62,13.62,0,1,0-21-.1Z" style="fill:#4468E2"></path><path d="M130.25,313.22s7,.69,10.55,5a13.54,13.54,0,0,1,10.49-4.92,13.62,13.62,0,1,0-21-.1Z" style="opacity:0.31"></path><polygon points="141.14 323.96 140.57 291.99 140.43 323.96 141.14 323.96" style="fill:#263238"></polygon><path d="M140.93,316.93s2.36-4.26,6.62-5.56c0,0-4.5,1.07-6.74,4.73Z" style="fill:#263238"></path><path d="M140.93,304.87s2.36-4.25,6.62-5.56c0,0-4.5,1.07-6.74,4.73Z" style="fill:#263238"></path><path d="M140.93,310.9s2.36-4.26,6.62-5.56c0,0-4.5,1.07-6.74,4.73Z" style="fill:#263238"></path><path d="M140.58,308s-2.29-4.26-6.39-5.56a11.45,11.45,0,0,1,6.5,4.73Z" style="fill:#263238"></path><path d="M140.58,313.86s-2.29-4.26-6.39-5.56a11.45,11.45,0,0,1,6.5,4.73Z" style="fill:#263238"></path><path d="M225.91,317.65s6,.6,9.07,4.33a11.69,11.69,0,0,1,9-4.24,11.71,11.71,0,1,0-18.09-.08Z" style="fill:#4468E2"></path><path d="M225.91,317.65s6,.6,9.07,4.33a11.69,11.69,0,0,1,9-4.24,11.71,11.71,0,1,0-18.09-.08Z" style="opacity:0.4"></path><polygon points="235.27 326.89 234.78 299.39 234.66 326.89 235.27 326.89" style="fill:#263238"></polygon><path d="M235.09,320.84a11.06,11.06,0,0,1,5.69-4.77,10.22,10.22,0,0,0-5.79,4.06Z" style="fill:#263238"></path><path d="M235.09,310.47a11.11,11.11,0,0,1,5.69-4.77,10.22,10.22,0,0,0-5.79,4.06Z" style="fill:#263238"></path><path d="M235.09,315.66a11.1,11.1,0,0,1,5.69-4.78A10.27,10.27,0,0,0,235,315Z" style="fill:#263238"></path><path d="M234.79,313.12s-2-3.66-5.5-4.78a9.86,9.86,0,0,1,5.6,4.07Z" style="fill:#263238"></path><path d="M234.79,318.2s-2-3.66-5.5-4.78a9.91,9.91,0,0,1,5.6,4.07Z" style="fill:#263238"></path></g><g id="freepik--Character--inject-191"><path d="M170.67,479.34c0,2.24-16.36,4.06-36.53,4.06s-36.54-1.82-36.54-4.06,16.36-4.06,36.54-4.06S170.67,477.1,170.67,479.34Z" style="fill:#263238"></path><path d="M144.47,301.61l10.22-5.48,11.46,4,19.18-9.72s-15,37.37-16.19,41.6a25.79,25.79,0,0,0-1.25,6.48l-18.43-4L141,336.74l-3-32.14Z" style="fill:#fff"></path><path d="M147.28,305.57l6.07-3.84,8.91,5.26s9.12-.61,12.76-5.26,4.46-8.1,4.46-8.1" style="fill:none;stroke:#4468E2;stroke-miterlimit:10"></path><path d="M168.14,306.18s-.81,8.51,4.65,15" style="fill:none;stroke:#4468E2;stroke-miterlimit:10"></path><polyline points="156.8 304.15 157 318.74 162.87 337.16" style="fill:none;stroke:#4468E2;stroke-miterlimit:10"></polyline><line x1="168.54" y1="313.27" x2="158.21" y2="322.79" style="fill:none;stroke:#4468E2;stroke-miterlimit:10"></line><line x1="157" y1="314.69" x2="149.1" y2="316.91" style="fill:none;stroke:#4468E2;stroke-miterlimit:10"></line><line x1="166.15" y1="300.12" x2="149.46" y2="334.49" style="fill:none;stroke:#263238;stroke-miterlimit:10"></line><line x1="154.69" y1="296.13" x2="140.99" y2="337.73" style="fill:none;stroke:#263238;stroke-miterlimit:10"></line><path d="M144.47,301.61l10.22-5.48,11.46,4,19.18-9.72s-15,37.37-16.19,41.6a25.79,25.79,0,0,0-1.25,6.48l-18.43-4L141,336.74l-3-32.14Z" style="fill:none;stroke:#263238;stroke-miterlimit:10"></path><path d="M111.68,422.92s.47,3.13-.16,4.39-3.76,9.72-3.76,16.15-1.88,30.9-2,31.84-.94,2.82.31,3.61,8-.32,8-.32,6.74-.78,7.53-1.25-1.1-1.73-1.73-2-4.7-3.29-5.33-4.39a3.23,3.23,0,0,1-.78-2.51c0-1.57,3.76-17.41,6-23.53s4.39-13.33,4.7-16.15a47.79,47.79,0,0,0,.32-4.86Z" style="fill:#fff;stroke:#263238;stroke-miterlimit:10"></path><path d="M119.83,475.3c-.62-.31-4.7-3.29-5.33-4.39l-.13-.23a4,4,0,0,1-1.12,1.48c-1,.82-5.26.45-7.28.34-.13,1.59-.22,2.62-.25,2.8-.16.94-.94,2.82.31,3.61s8-.32,8-.32,6.74-.78,7.53-1.25S120.46,475.61,119.83,475.3Z" style="fill:#4468E2;stroke:#263238;stroke-miterlimit:10"></path><path d="M105.34,477.34a1.62,1.62,0,0,0,.69,1.57c1.26.78,8-.32,8-.32s6.74-.78,7.53-1.25c.36-.22.16-.59-.22-1a56.69,56.69,0,0,1-9.35,1.28A24.12,24.12,0,0,1,105.34,477.34Z" style="fill:#fff;stroke:#263238;stroke-miterlimit:10"></path><path d="M134.89,425.43s-.47,3.6-.78,4.86-2.51,8.94-2.51,14,2.82,15.37,2.82,19-.16,14.43-.16,15.37,1.1,1.26,2,1.41,10.67-.31,12.71-.47,5.48-.94,5-1.88-3.6-.63-5.64-2-5.81-4.23-5.81-4.23-.31-2.82-.31-4.08.94-16.15,2.82-22.11,2-14.43,2.2-16.31.63-6.12.63-6.12Z" style="fill:#fff;stroke:#263238;stroke-miterlimit:10"></path><path d="M148.38,475.61c-2-1.41-5.81-4.23-5.81-4.23a3.39,3.39,0,0,0-.31,1.72v1.26l-7.95.4c0,2-.05,3.51-.05,3.83,0,.94,1.1,1.26,2,1.41s10.67-.31,12.71-.47,5.48-.94,5-1.88S150.42,477,148.38,475.61Z" style="fill:#4468E2;stroke:#263238;stroke-miterlimit:10"></path><path d="M154,477.65a.84.84,0,0,0-.31-.31c-6.23,1.29-16.15,1.09-19.45,1v.27c0,.94,1.1,1.26,2,1.41s10.67-.31,12.71-.47S154.49,478.59,154,477.65Z" style="fill:#fff;stroke:#263238;stroke-miterlimit:10"></path><path d="M112.16,337.36s-2.14,7.7-4.7,16.25-1.43,15.25,1.28,23.09a96.52,96.52,0,0,1,3.78,17.56c1.11,9.68.75,19.7-2.07,29.05a70.72,70.72,0,0,0-2.14,9.83l-.85,6.13L106,453.81a18.5,18.5,0,0,0,6.56,1.14h5.13s4.7-14.54,6.41-20.53a149.37,149.37,0,0,0,5-27.93s1.85,10.4,1.85,16-2.14,15-2.14,20.53-.42,14.11-.42,14.11a25.76,25.76,0,0,0,8.12,1.71,53.42,53.42,0,0,0,6.84-.43s5.13-30.79,5.13-38.91.63-42.26-1.51-52.1-2.84-15.36-4.12-19.63a71.27,71.27,0,0,1-2-9.43S118.14,339.5,112.16,337.36Z" style="fill:#263238;stroke:#263238;stroke-miterlimit:10"></path><path d="M143,308.29c-.38-8.27,0-7.09-2.36-9.47s-8.4-2.73-10.08-2.94-18.69.63-18.69.63l-.73.84a4.15,4.15,0,0,0-1.37.84,1.22,1.22,0,0,0-.86.15c-7.71,4.06,1.43,29.53,2.44,35.6.92,5.49.62,5.44,3.85,7.27S127,344,133.05,343.6c1.86-.12,7.8,0,8.61-3.67C143.47,331.72,143.79,313.18,143,308.29Z" style="fill:#b2b2b2;stroke:#263238;stroke-miterlimit:10"></path><path d="M137.23,297.35s6.51-2.73,9.45,3.15,4.42,27.3,4.42,27.3,9.45-5,13-6.72a22,22,0,0,0,6.09-4.41l2.73-6.09,2.94-2.52,1.26-1.89s1.47-.21.42,1.47a19.35,19.35,0,0,0-1.47,2.73l4.62-2.94s1.68,1.26.63,1.89a4.55,4.55,0,0,0-1.68,1.89c-.42.63-.21,5-1.47,5.67s-2.1,1.68-3.57,2.31a14.51,14.51,0,0,0-2.1,1.05s-15.54,14.91-18.9,16.81-5.89,3.57-7.57,3.36-5-17.23-5.67-23.32-2.31-7.35-2.31-7.35" style="fill:#b2b2b2;stroke:#263238;stroke-miterlimit:10"></path><path d="M180.71,307.43l-4.62,2.94a19.35,19.35,0,0,1,1.47-2.73c1.05-1.68-.42-1.47-.42-1.47l-1.26,1.89-2.94,2.52-2.73,6.09a22,22,0,0,1-6.09,4.41c-1.85.87-5.29,2.65-8.17,4.16a31,31,0,0,1,1.53,4.43,31.6,31.6,0,0,1,.76,3.73c5.79-5,14.28-13.16,14.28-13.16a14.51,14.51,0,0,1,2.1-1.05c1.47-.63,2.31-1.68,3.57-2.31s1.05-5,1.47-5.67a4.55,4.55,0,0,1,1.68-1.89C182.39,308.69,180.71,307.43,180.71,307.43Z" style="fill:#fff;stroke:#263238;stroke-miterlimit:10"></path><path d="M158.13,324.3s1,.23,2.14,3.09a10.26,10.26,0,0,1,.95,4.76l-4.45,3.05a.51.51,0,0,1-.8-.4c-.11-2.31-.64-8.17-3.32-8.36C152.65,326.44,153.85,324.12,158.13,324.3Z" style="fill:#fff;stroke:#263238;stroke-miterlimit:10"></path><path d="M134.59,362.68c1.53-6,1.34-13.94.85-20,0-9.8-.19-22.88-.19-29.49,0-10.26-6.62-12.64-6.62-12.64s-17.13-5.51-25.45-2.18c-8.73,3.48-4.28,9.12-3.85,14.82.21,2.78.72,6.38,1,10a21.48,21.48,0,0,1-1.48,6.81c-1.71,3.42-10.26,16.25-7.27,26.94,2.51,9,5.62,10.41,14.34,12.65a22.08,22.08,0,0,0,2.77.93c.48.1,1.83.39,3.66.7,8.87,2.28,14,3.28,17.58.14C132.86,370.08,134,366.45,134.59,362.68Z" style="fill:#4468E2;stroke:#263238;stroke-miterlimit:10"></path><path d="M95.41,340.9s7,10.26,34.28,7.58" style="fill:none;stroke:#263238;stroke-miterlimit:10"></path><path d="M128.63,300.59c1.06-5.3,4.12,21.07,1.06,47.89A233.88,233.88,0,0,0,128.41,372a13.14,13.14,0,0,0,6.84,1.71c4.27,0,8.55-4.28,8.55-4.28s-2.57-28.65-2.14-34.63,2.81-33.19,2.81-33.19A23.91,23.91,0,0,0,128.63,300.59Z" style="fill:#fff;stroke:#263238;stroke-miterlimit:10"></path><path d="M130.79,320.42a28.39,28.39,0,0,0,11.9,0l-.45,7.1s-7.33,3-11.45-.23Z" style="fill:#263238"></path><path d="M129.64,345.38s2.29,2.75,11.91,1.14l.69,8.93s-8.25,2.29-13.06-.68Z" style="fill:#263238"></path><path d="M103.75,318.12a38.16,38.16,0,0,1-2.28,16c-3.14,8.27-5.13,12-5.13,17.68a75.79,75.79,0,0,0,.57,9.69l2.85.85s-.86-10.26,0-15.1,6.27-12.26,6.55-17.11a102.35,102.35,0,0,1,1.43-10.83Z" style="fill:#263238;stroke:#263238;stroke-miterlimit:10"></path><path d="M119.43,319.55a38.18,38.18,0,0,1-2.28,16c-3.14,8.27-5.13,12-5.13,17.67a66.65,66.65,0,0,0,1.14,11.4l2.85,1.15s-1.43-12.26-.57-17.11,6.27-12.26,6.55-17.1,1.14-12.26,1.14-12.26Z" style="fill:#263238;stroke:#263238;stroke-miterlimit:10"></path><path d="M129.34,303.83a36.93,36.93,0,0,0,.35,17.14" style="fill:none;stroke:#263238;stroke-miterlimit:10"></path><path d="M100.59,316.59s6.14,2.5,8.87,3.18,18.41-1.36,18.41-1.36" style="fill:none;stroke:#263238;stroke-miterlimit:10"></path><path d="M141.64,278.65s-.84,5.67-2.1,7.35a12.57,12.57,0,0,1-3.78,2.94l-2.31-8.19Z" style="fill:#fff;stroke:#263238;stroke-miterlimit:10"></path><path d="M115.39,280.12a23.32,23.32,0,0,1-4.41,7.56c-3.36,4-5,5.26-4.42,8.62s5.47,6.51,5.47,6.51l1.47-4.62s-1.47,6.51,1.89,9.87a32.58,32.58,0,0,0,6.93,5.25s-.63-4.2,1.68-6.72a56.19,56.19,0,0,0,4.2-5.25l-.21,4.41a28.78,28.78,0,0,0,8-5.88c3.15-3.57,2.31-10.72,1.68-13.66s-1.05-7.14-1.05-7.14S119.8,280.75,115.39,280.12Z" style="fill:#263238"></path><path d="M107.41,277s3.78,6.51,19.74,6.09,22.26-8.19,24.16-10.71a37.13,37.13,0,0,0,3.36-5.67l-12.82-2.94s-2.94-9.45-5-11.13-10.5-2.52-14.7-1.05-4.41,6.51-4.41,8-1.47,9.24-1.47,9.24Z" style="fill:#fff;stroke:#263238;stroke-miterlimit:10"></path><path d="M141.85,263.74l-.09-.28c-1,1.74-3.77,4.88-10.25,6.67a19.42,19.42,0,0,1-15.14-2.1c-.09.47-.14.75-.14.75l-1,.91A21.05,21.05,0,0,0,132,272.05c7.42-2.05,10.47-5.85,11.62-7.9Z" style="fill:#263238"></path></g><g id="freepik--cablle-car--inject-191"><path d="M435.83,194.64h-2.16a1.27,1.27,0,0,0-.34,0h-10v-2.72a1.5,1.5,0,0,0-1.5-1.5H399.58a1.5,1.5,0,0,0-1.5,1.5v2.72h-10a1.19,1.19,0,0,0-.33,0h-1.11a1.46,1.46,0,1,0,0,2.91h1.11a1.2,1.2,0,0,0,.33,0h10v1.18a1.5,1.5,0,0,0,1.5,1.5h22.25a1.5,1.5,0,0,0,1.5-1.5V197.6h10a1.27,1.27,0,0,0,.34,0h2.16a1.46,1.46,0,1,0,0-2.91Zm-34.75,2.64v-3.9h.8l6.29,2-6.29,1.95Zm9.62-2.74-3.76-1.16h7.52Zm0,1.57,3.76,1.17h-7.52Zm2.53-.78,6.29-2h.81v3.9h-.81Z" style="fill:#263238"></path><path d="M418,197.1H406.48a1,1,0,0,1,0-2H418a1,1,0,0,1,0,2Z" style="fill:#fff;stroke:#263238;stroke-linecap:round;stroke-linejoin:round"></path><path d="M451.75,197.1H440.24a1,1,0,0,1,0-2h11.51a1,1,0,0,1,0,2Z" style="fill:#fff;stroke:#263238;stroke-linecap:round;stroke-linejoin:round"></path><path d="M440.24,199.28l-.15,0-22.25-6.91a.5.5,0,0,1-.33-.62.49.49,0,0,1,.63-.33l22.25,6.9a.51.51,0,0,1,.33.63A.51.51,0,0,1,440.24,199.28Z" style="fill:#fff;stroke:#263238;stroke-linecap:round;stroke-linejoin:round;stroke-width:0.5px"></path><path d="M418,199.28a.51.51,0,0,1-.48-.35.51.51,0,0,1,.33-.63l22.25-6.9a.5.5,0,1,1,.3.95l-22.25,6.91Z" style="fill:#fff;stroke:#263238;stroke-linecap:round;stroke-linejoin:round;stroke-width:0.5px"></path><path d="M440.24,199.78H418a1,1,0,0,1-1-1v-6.9a1,1,0,0,1,1-1h22.25a1,1,0,0,1,1,1v6.9A1,1,0,0,1,440.24,199.78Zm-21.25-2h20.25v-4.9H419Z" style="fill:#fff;stroke:#263238;stroke-linecap:round;stroke-linejoin:round"></path><path d="M454.24,197.05h-5.18a1,1,0,0,1-1-1h0a1,1,0,0,1,1-1h5.18a1,1,0,0,1,1,1h0A1,1,0,0,1,454.24,197.05Z" style="fill:#263238;stroke:#263238;stroke-linecap:round;stroke-linejoin:round"></path><path d="M410.22,197.05H405a1,1,0,0,1-1-1h0a1,1,0,0,1,1-1h5.18a1,1,0,0,1,1,1h0A1,1,0,0,1,410.22,197.05Z" style="fill:#263238;stroke:#263238;stroke-linecap:round;stroke-linejoin:round"></path><rect x="384.35" y="144.99" width="68.61" height="47.29" rx="18.98" style="fill:#263238;stroke:#263238;stroke-linecap:round;stroke-linejoin:round"></rect><rect x="384.35" y="167.31" width="68.61" height="2.66" style="fill:#fff;stroke:#263238;stroke-linecap:round;stroke-linejoin:round"></rect><rect x="404" y="144.99" width="48.96" height="47.29" rx="18.98" style="fill:#263238;stroke:#263238;stroke-linecap:round;stroke-linejoin:round"></rect><rect x="405" y="167.31" width="47.6" height="2.66" style="fill:#fff"></rect><path d="M436.64,191.2a20,20,0,0,0,2.33-.46v-44.2a18.11,18.11,0,0,0-2.33-.46Z" style="fill:#fff"></path><path d="M421,191.3a18.67,18.67,0,0,0,2,.1h.34V145.88H423a18.67,18.67,0,0,0-2,.1Z" style="fill:#fff"></path><path d="M394.1,151.4A18.92,18.92,0,0,0,389.35,164v9.32a18.94,18.94,0,0,0,5.06,12.91" style="fill:none;stroke:#fff;stroke-linecap:round;stroke-linejoin:round"></path><path d="M401.1,151.4A18.93,18.93,0,0,0,396.34,164v9.32a18.94,18.94,0,0,0,5.06,12.91" style="fill:none;stroke:#fff;stroke-linecap:round;stroke-linejoin:round"></path><path d="M409.42,151.4A18.92,18.92,0,0,0,404.67,164v9.32a18.94,18.94,0,0,0,5.06,12.91" style="fill:none;stroke:#fff;stroke-linecap:round;stroke-linejoin:round"></path><path d="M388.62,185.29a18.93,18.93,0,0,0,14.71,7H434a18.93,18.93,0,0,0,14.72-7Z" style="fill:#fff;stroke:#263238;stroke-linecap:round;stroke-linejoin:round"></path><path d="M408.27,185.29a18.93,18.93,0,0,0,14.71,7h11a18.93,18.93,0,0,0,14.72-7Z" style="fill:#fff;stroke:#263238;stroke-linecap:round;stroke-linejoin:round"></path><path d="M388.91,151.65H448.4A18.94,18.94,0,0,0,434,145H403.33A18.93,18.93,0,0,0,388.91,151.65Z" style="fill:#fff;stroke:#263238;stroke-linecap:round;stroke-linejoin:round"></path><path d="M408.56,151.65H448.4A18.94,18.94,0,0,0,434,145H423A18.93,18.93,0,0,0,408.56,151.65Z" style="fill:none;stroke:#263238;stroke-linecap:round;stroke-linejoin:round"></path><rect x="388.62" y="185.29" width="14.71" height="2.71" style="fill:#fff;stroke:#263238;stroke-linecap:round;stroke-linejoin:round"></rect><rect x="397.44" y="185.29" width="5.89" height="2.71" style="fill:#fff;stroke:#263238;stroke-linecap:round;stroke-linejoin:round"></rect><path d="M439.62,145.82l-7.23-34.26.12-3.37h6.25v-3.06h-6.14l.25-6.73h1.32c.47,1.46,1.34,2.45,2.36,2.45,1.51,0,2.73-2.15,2.73-4.8s-1.22-4.79-2.73-4.79a2,2,0,0,0-1.42.72H403.57a2,2,0,0,0-1.42-.72c-1.51,0-2.73,2.14-2.73,4.79s1.22,4.8,2.73,4.8c1,0,1.89-1,2.36-2.45h2.4l.24,6.73h-8.52v3.06h8.63l.13,3.37-7.23,34.26h3.33s-1.11-2.76-.55-4c.46-1,5.57-19.08,7.25-25,.33-1.15,1-1.89,1.8-1.89h.81c.77,0,1.47.74,1.79,1.89.8,2.81,2.36,8.33,3.83,13.48l-3.27,15.53h3.33s-1.11-2.76-.55-4c.17-.37.95-3,2-6.47,1,3.47,1.79,6.1,2,6.47.55,1.22-.56,4-.56,4h3.34l-3.28-15.53c1.48-5.15,3-10.67,3.83-13.48.33-1.15,1-1.89,1.8-1.89h.81c.77,0,1.47.74,1.79,1.89,1.68,6,6.79,24,7.26,25,.55,1.22-.56,4-.56,4Zm-26.39-37h-1.68a1.72,1.72,0,0,1-1.23-.61h1.16v-3.06h-2.23l-.66-6.73h3.5v2.45H416l-.47,4.79C415.31,107.46,414.35,108.8,413.23,108.8Zm6.66,14.55-2.49-11.79.22-6.12h4.53l.23,6.12Zm8.33-14.55h-1.68c-1.12,0-2.07-1.34-2.25-3.16l-.27-2.76v-2h4V98.4h3.2l-.66,6.73h-4.62v3.06h3.55A1.72,1.72,0,0,1,428.22,108.8Z" style="fill:#263238"></path><path d="M198.17,65.66s104.26,43,221.87,30.75c27.73-2.89,50.63-7.61,69.33-11.47" style="fill:none;stroke:#263238;stroke-miterlimit:10"></path><path d="M312.52,178.86s86.18,57.91,172.36,66.95" style="fill:none;stroke:#263238;stroke-miterlimit:10"></path><path d="M315.29,185.86S395.92,236.77,487,234.69" style="fill:none;stroke:#263238;stroke-miterlimit:10"></path><line x1="213.31" y1="73" x2="487.66" y2="31.76" style="fill:none;stroke:#263238;stroke-miterlimit:10"></line><path d="M437.53,98.4s32.84-4.27,51.51-9.11" style="fill:none;stroke:#263238;stroke-miterlimit:10"></path></g></svg>