<svg xmlns="http://www.w3.org/2000/svg" viewBox="0 0 500 500"><g id="freepik--background-complete--inject-53"><path d="M38.24,382.82S162.17,155,230,155s191.7,227.82,191.7,227.82Z" style="fill:#f5f5f5"></path><path d="M228.62,160.48c-8.2,1.82-45.29,28.41-43.67,48.43,2.64,32.76,74.06,17.36,76.74,50.12,3.59,44-99.92,25.65-102.48,69.86-1.69,29.11,28,44.69,59.56,53.93H389C349.12,298.61,279.5,149.19,228.62,160.48Z" style="fill:#e6e6e6"></path><path d="M253.44,382.82s66.15-121.6,102.32-121.6,102.32,121.6,102.32,121.6Z" style="fill:#f5f5f5"></path><path d="M355.05,264.15c-4.37,1-24.17,15.16-23.31,25.85,1.42,17.48,39.54,9.26,41,26.75,1.92,23.5-53.32,13.69-54.69,37.29-.9,15.53,15,23.85,31.79,28.78h90.88C419.37,337.87,382.21,258.12,355.05,264.15Z" style="fill:#ebebeb"></path><path d="M81.53,299.44s-10.3-30,15.09-30.5-7.32,3.34-7.32,3.34,31,2.75-1.75,2.76c0,0,28.83,5.78-2.08,3.79,0,0,28,7.37-1.37,3.8,0,0,25.15,7.72-1.27,3.72,0,0,21.67,7.71-.24,3.64,0,0,18,7.67.65,3.89,0,0,14.39,8.25-.62,2.59Z" style="fill:#ebebeb"></path><path d="M81.19,298.73s9.33-30.27-16.06-30,7.43,3.1,7.43,3.1-30.95,3.75,1.83,2.7c0,0-28.63,6.71,2.2,3.73,0,0-27.75,8.27,1.5,3.75,0,0-24.89,8.53,1.38,3.67,0,0-21.41,8.41.37,3.63,0,0-17.76,8.25-.54,3.91,0,0-14.11,8.71.71,2.57Z" style="fill:#f5f5f5"></path><path d="M82.68,299.59S72,269.77,51.83,285.23s7.81-2,7.81-2-22.51,21.56,3.09,1.07c0,0-18.89,22.54,4,1.66,0,0-17.25,23.26,3.45,2.1,0,0-14.8,21.75,3.31,2.11,0,0-12.09,19.57,2.47,2.69,0,0-9.26,17.24,1.92,3.45,0,0-6.07,15.43,2.1,1.63Z" style="fill:#ebebeb"></path><path d="M80.7,299.59s10.7-29.82,30.85-14.36-7.8-2-7.8-2,22.51,21.56-3.09,1.07c0,0,18.88,22.54-4,1.66,0,0,17.24,23.26-3.45,2.1,0,0,14.79,21.75-3.32,2.11,0,0,12.09,19.57-2.46,2.69,0,0,9.26,17.24-1.93,3.45,0,0,6.07,15.43-2.1,1.63Z" style="fill:#f5f5f5"></path><path d="M88.25,361.37c-.55-4,.56-13.57.56-21.39,0-31.32-3.23-43.5-7.22-43.5s-7.22,12.18-7.22,43.5c0,7.82,1.12,17.39.57,21.39-.62,4.45-2.55,9-2.55,13.26,0,8.84,4.12,8.18,9.2,8.18s9.2.66,9.2-8.18C90.79,370.34,88.86,365.82,88.25,361.37Z" style="fill:#ebebeb"></path><path d="M76.78,309.33s1.09-2,1.63-2,1.55,2,1.55,2,1.21-2,1.78-2,1.67,2,1.67,2,1.09-2,1.63-2,1.36,2,1.36,2-1.07-.8-1.45-.7-1.45,1.8-1.45,1.8-1.21-1.75-1.76-1.76-1.84,1.76-1.84,1.76-1-1.65-1.46-1.8S76.78,309.33,76.78,309.33Z" style="fill:#fafafa"></path><path d="M78.06,302.94s.79-1.45,1.2-1.44,1.13,1.44,1.13,1.44.89-1.45,1.31-1.44,1.23,1.44,1.23,1.44.8-1.47,1.2-1.44,1,1.44,1,1.44-.79-.59-1.07-.51S83,303.75,83,303.75s-.89-1.29-1.29-1.29-1.35,1.29-1.35,1.29-.72-1.22-1.07-1.32S78.06,302.94,78.06,302.94Z" style="fill:#fafafa"></path><path d="M76.13,315.87s1.23-2.24,1.86-2.23,1.75,2.23,1.75,2.23,1.37-2.24,2-2.23,1.89,2.23,1.89,2.23,1.24-2.26,1.86-2.23,1.54,2.23,1.54,2.23-1.22-.91-1.65-.79-1.64,2-1.64,2-1.38-2-2-2-2.09,2-2.09,2-1.11-1.88-1.65-2S76.13,315.87,76.13,315.87Z" style="fill:#fafafa"></path><path d="M76.13,356s1.23-2.23,1.86-2.22S79.74,356,79.74,356s1.37-2.23,2-2.22S83.65,356,83.65,356s1.24-2.26,1.86-2.22S87.05,356,87.05,356s-1.22-.9-1.65-.78-1.64,2-1.64,2-1.38-2-2-2-2.09,2-2.09,2-1.11-1.87-1.65-2S76.13,356,76.13,356Z" style="fill:#fafafa"></path><path d="M75.4,322.62s1.4-2.53,2.11-2.52,2,2.52,2,2.52,1.56-2.53,2.3-2.52,2.14,2.52,2.14,2.52,1.4-2.56,2.1-2.52,1.75,2.52,1.75,2.52-1.38-1-1.87-.89S84,324,84,324s-1.55-2.25-2.25-2.26S79.41,324,79.41,324s-1.25-2.12-1.87-2.31S75.4,322.62,75.4,322.62Z" style="fill:#fafafa"></path><path d="M75.4,350.13s1.4-2.53,2.11-2.52,2,2.52,2,2.52,1.56-2.54,2.3-2.52,2.14,2.52,2.14,2.52,1.4-2.56,2.1-2.52,1.75,2.52,1.75,2.52-1.38-1-1.87-.89-1.87,2.3-1.87,2.3-1.55-2.24-2.25-2.25-2.38,2.25-2.38,2.25-1.25-2.12-1.87-2.3S75.4,350.13,75.4,350.13Z" style="fill:#fafafa"></path><path d="M75.4,329.54S76.8,327,77.51,327s2,2.52,2,2.52,1.56-2.53,2.3-2.52,2.14,2.52,2.14,2.52S85.33,327,86,327s1.75,2.52,1.75,2.52-1.38-1-1.87-.89S84,331,84,331s-1.55-2.25-2.25-2.26S79.41,331,79.41,331s-1.25-2.12-1.87-2.31S75.4,329.54,75.4,329.54Z" style="fill:#fafafa"></path><path d="M75.4,343.38s1.4-2.53,2.11-2.52,2,2.52,2,2.52,1.56-2.53,2.3-2.52,2.14,2.52,2.14,2.52,1.4-2.56,2.1-2.52,1.75,2.52,1.75,2.52-1.38-1-1.87-.89S84,344.8,84,344.8s-1.55-2.25-2.25-2.26-2.38,2.26-2.38,2.26-1.25-2.12-1.87-2.31S75.4,343.38,75.4,343.38Z" style="fill:#fafafa"></path><path d="M75.4,362.05s1.4-2.53,2.11-2.52,2,2.52,2,2.52,1.56-2.54,2.3-2.52,2.14,2.52,2.14,2.52,1.4-2.56,2.1-2.52,1.75,2.52,1.75,2.52-1.38-1-1.87-.89-1.87,2.3-1.87,2.3-1.55-2.24-2.25-2.25-2.38,2.25-2.38,2.25-1.25-2.12-1.87-2.3S75.4,362.05,75.4,362.05Z" style="fill:#fafafa"></path><path d="M74.13,369.62s1.69-3.05,2.54-3,2.39,3,2.39,3,1.87-3.06,2.77-3,2.58,3,2.58,3,1.68-3.09,2.53-3,2.11,3,2.11,3-1.67-1.24-2.25-1.08c-.75.21-2.25,2.78-2.25,2.78s-1.88-2.7-2.72-2.71S79,371.32,79,371.32s-1.5-2.55-2.25-2.78S74.13,369.62,74.13,369.62Z" style="fill:#fafafa"></path><path d="M73.32,376.18s1.87-3.38,2.81-3.36,2.65,3.36,2.65,3.36,2.08-3.39,3.07-3.36,2.86,3.36,2.86,3.36,1.88-3.42,2.82-3.36,2.34,3.36,2.34,3.36S88,374.81,87.37,375c-.83.23-2.5,3.09-2.5,3.09s-2.08-3-3-3-3.17,3-3.17,3S77,375.24,76.18,375,73.32,376.18,73.32,376.18Z" style="fill:#fafafa"></path><path d="M74.86,336.51s1.52-2.75,2.29-2.74,2.16,2.74,2.16,2.74,1.69-2.76,2.49-2.74,2.33,2.74,2.33,2.74,1.52-2.79,2.29-2.74,1.9,2.74,1.9,2.74-1.5-1.12-2-1-2,2.51-2,2.51-1.69-2.44-2.46-2.45-2.58,2.45-2.58,2.45-1.36-2.31-2-2.51S74.86,336.51,74.86,336.51Z" style="fill:#fafafa"></path><path d="M416.31,299.44s-10.3-30,15.09-30.5-7.32,3.34-7.32,3.34,31,2.75-1.74,2.76c0,0,28.82,5.78-2.08,3.79,0,0,28,7.37-1.38,3.8,0,0,25.15,7.72-1.27,3.72,0,0,21.67,7.71-.24,3.64,0,0,18,7.67.65,3.89,0,0,14.39,8.25-.61,2.59Z" style="fill:#ebebeb"></path><path d="M416,298.73s9.32-30.27-16.07-30,7.43,3.1,7.43,3.1-30.94,3.75,1.83,2.7c0,0-28.63,6.71,2.2,3.73,0,0-27.75,8.27,1.5,3.75,0,0-24.89,8.53,1.39,3.67,0,0-21.42,8.41.36,3.63,0,0-17.76,8.25-.53,3.91,0,0-14.11,8.71.7,2.57Z" style="fill:#f5f5f5"></path><path d="M417.46,299.59s-10.69-29.82-30.85-14.36,7.81-2,7.81-2-22.51,21.56,3.09,1.07c0,0-18.88,22.54,4,1.66,0,0-17.25,23.26,3.45,2.1,0,0-14.8,21.75,3.31,2.11,0,0-12.08,19.57,2.47,2.69,0,0-9.26,17.24,1.92,3.45,0,0-6.07,15.43,2.1,1.63Z" style="fill:#ebebeb"></path><path d="M415.49,299.59s10.69-29.82,30.84-14.36-7.8-2-7.8-2,22.51,21.56-3.09,1.07c0,0,18.88,22.54-4,1.66,0,0,17.24,23.26-3.45,2.1,0,0,14.79,21.75-3.32,2.11,0,0,12.09,19.57-2.46,2.69,0,0,9.26,17.24-1.92,3.45,0,0,6.06,15.43-2.11,1.63Z" style="fill:#f5f5f5"></path><path d="M423,361.37c-.55-4,.56-13.57.56-21.39,0-31.32-3.23-43.5-7.22-43.5s-7.22,12.18-7.22,43.5c0,7.82,1.12,17.39.57,21.39-.62,4.45-2.55,9-2.55,13.26,0,8.84,4.12,8.18,9.2,8.18s9.2.66,9.2-8.18C425.57,370.34,423.64,365.82,423,361.37Z" style="fill:#ebebeb"></path><path d="M411.56,309.33s1.09-2,1.64-2,1.54,2,1.54,2,1.21-2,1.78-2,1.67,2,1.67,2,1.09-2,1.63-2,1.36,2,1.36,2-1.07-.8-1.45-.7-1.45,1.8-1.45,1.8-1.21-1.75-1.76-1.76-1.84,1.76-1.84,1.76-1-1.65-1.45-1.8S411.56,309.33,411.56,309.33Z" style="fill:#fafafa"></path><path d="M412.84,302.94s.8-1.45,1.2-1.44,1.13,1.44,1.13,1.44.89-1.45,1.31-1.44,1.23,1.44,1.23,1.44.8-1.47,1.2-1.44,1,1.44,1,1.44-.79-.59-1.07-.51-1.07,1.32-1.07,1.32-.88-1.29-1.29-1.29-1.35,1.29-1.35,1.29-.72-1.22-1.07-1.32S412.84,302.94,412.84,302.94Z" style="fill:#fafafa"></path><path d="M410.91,315.87s1.24-2.24,1.86-2.23,1.75,2.23,1.75,2.23,1.37-2.24,2-2.23,1.89,2.23,1.89,2.23,1.24-2.26,1.86-2.23,1.54,2.23,1.54,2.23-1.22-.91-1.64-.79-1.65,2-1.65,2-1.38-2-2-2-2.09,2-2.09,2-1.1-1.88-1.65-2S410.91,315.87,410.91,315.87Z" style="fill:#fafafa"></path><path d="M410.91,356s1.24-2.23,1.86-2.22,1.75,2.22,1.75,2.22,1.37-2.23,2-2.22,1.89,2.22,1.89,2.22,1.24-2.26,1.86-2.22,1.54,2.22,1.54,2.22-1.22-.9-1.64-.78-1.65,2-1.65,2-1.38-2-2-2-2.09,2-2.09,2-1.1-1.87-1.65-2S410.91,356,410.91,356Z" style="fill:#fafafa"></path><path d="M410.19,322.62s1.39-2.53,2.1-2.52,2,2.52,2,2.52,1.56-2.53,2.3-2.52,2.14,2.52,2.14,2.52,1.4-2.56,2.1-2.52,1.75,2.52,1.75,2.52-1.38-1-1.87-.89-1.87,2.31-1.87,2.31-1.55-2.25-2.25-2.26-2.38,2.26-2.38,2.26-1.25-2.12-1.86-2.31S410.19,322.62,410.19,322.62Z" style="fill:#fafafa"></path><path d="M410.19,350.13s1.39-2.53,2.1-2.52,2,2.52,2,2.52,1.56-2.54,2.3-2.52,2.14,2.52,2.14,2.52,1.4-2.56,2.1-2.52,1.75,2.52,1.75,2.52-1.38-1-1.87-.89-1.87,2.3-1.87,2.3-1.55-2.24-2.25-2.25-2.38,2.25-2.38,2.25-1.25-2.12-1.86-2.3S410.19,350.13,410.19,350.13Z" style="fill:#fafafa"></path><path d="M410.19,329.54s1.39-2.53,2.1-2.52,2,2.52,2,2.52,1.56-2.53,2.3-2.52,2.14,2.52,2.14,2.52,1.4-2.56,2.1-2.52,1.75,2.52,1.75,2.52-1.38-1-1.87-.89-1.87,2.31-1.87,2.31-1.55-2.25-2.25-2.26-2.38,2.26-2.38,2.26-1.25-2.12-1.86-2.31S410.19,329.54,410.19,329.54Z" style="fill:#fafafa"></path><path d="M410.19,343.38s1.39-2.53,2.1-2.52,2,2.52,2,2.52,1.56-2.53,2.3-2.52,2.14,2.52,2.14,2.52,1.4-2.56,2.1-2.52,1.75,2.52,1.75,2.52-1.38-1-1.87-.89-1.87,2.31-1.87,2.31-1.55-2.25-2.25-2.26-2.38,2.26-2.38,2.26-1.25-2.12-1.86-2.31S410.19,343.38,410.19,343.38Z" style="fill:#fafafa"></path><path d="M410.19,362.05s1.39-2.53,2.1-2.52,2,2.52,2,2.52,1.56-2.54,2.3-2.52,2.14,2.52,2.14,2.52,1.4-2.56,2.1-2.52,1.75,2.52,1.75,2.52-1.38-1-1.87-.89-1.87,2.3-1.87,2.3-1.55-2.24-2.25-2.25-2.38,2.25-2.38,2.25-1.25-2.12-1.86-2.3S410.19,362.05,410.19,362.05Z" style="fill:#fafafa"></path><path d="M408.91,369.62s1.69-3.05,2.54-3,2.39,3,2.39,3,1.88-3.06,2.77-3,2.58,3,2.58,3,1.68-3.09,2.53-3,2.11,3,2.11,3-1.66-1.24-2.25-1.08c-.75.21-2.25,2.78-2.25,2.78s-1.88-2.7-2.72-2.71-2.86,2.71-2.86,2.71-1.51-2.55-2.26-2.78S408.91,369.62,408.91,369.62Z" style="fill:#fafafa"></path><path d="M408.1,376.18s1.87-3.38,2.81-3.36,2.65,3.36,2.65,3.36,2.08-3.39,3.07-3.36,2.87,3.36,2.87,3.36,1.87-3.42,2.81-3.36,2.34,3.36,2.34,3.36-1.85-1.37-2.5-1.19c-.83.23-2.5,3.09-2.5,3.09s-2.08-3-3-3-3.17,3-3.17,3-1.67-2.84-2.5-3.09S408.1,376.18,408.1,376.18Z" style="fill:#fafafa"></path><path d="M409.64,336.51s1.52-2.75,2.29-2.74,2.16,2.74,2.16,2.74,1.69-2.76,2.49-2.74,2.33,2.74,2.33,2.74,1.53-2.79,2.29-2.74,1.91,2.74,1.91,2.74-1.51-1.12-2-1-2,2.51-2,2.51-1.69-2.44-2.46-2.45-2.58,2.45-2.58,2.45-1.36-2.31-2-2.51S409.64,336.51,409.64,336.51Z" style="fill:#fafafa"></path><rect x="416.78" y="398.49" width="33.12" height="0.25" style="fill:#ebebeb"></rect><rect x="322.53" y="401.21" width="8.69" height="0.25" style="fill:#ebebeb"></rect><rect x="396.59" y="389.21" width="19.19" height="0.25" style="fill:#ebebeb"></rect><rect x="52.46" y="390.89" width="43.19" height="0.25" style="fill:#ebebeb"></rect><rect x="104.56" y="390.89" width="6.33" height="0.25" style="fill:#ebebeb"></rect><rect x="131.47" y="395.11" width="93.68" height="0.25" style="fill:#ebebeb"></rect><path d="M237,337.8H43.92a5.71,5.71,0,0,1-5.71-5.71V60.66A5.71,5.71,0,0,1,43.92,55H237a5.71,5.71,0,0,1,5.71,5.71V332.09A5.71,5.71,0,0,1,237,337.8ZM43.92,55.2a5.47,5.47,0,0,0-5.46,5.46V332.09a5.47,5.47,0,0,0,5.46,5.46H237a5.47,5.47,0,0,0,5.46-5.46V60.66A5.47,5.47,0,0,0,237,55.2Z" style="fill:#ebebeb"></path><path d="M453.31,337.8H260.21a5.72,5.72,0,0,1-5.71-5.71V60.66A5.72,5.72,0,0,1,260.21,55h193.1A5.71,5.71,0,0,1,459,60.66V332.09A5.71,5.71,0,0,1,453.31,337.8ZM260.21,55.2a5.47,5.47,0,0,0-5.46,5.46V332.09a5.47,5.47,0,0,0,5.46,5.46h193.1a5.47,5.47,0,0,0,5.46-5.46V60.66a5.47,5.47,0,0,0-5.46-5.46Z" style="fill:#ebebeb"></path><rect y="382.4" width="500" height="0.25" style="fill:#ebebeb"></rect><path d="M122.76,213.42s20.93-60.87-30.66-62S107,158.24,107,158.24s-63.08,5.58,3.54,5.61c0,0-58.57,11.74,4.22,7.7,0,0-56.89,15,2.81,7.71,0,0-51.1,15.7,2.57,7.56,0,0-44,15.67.49,7.39,0,0-36.59,15.59-1.33,7.91,0,0-29.23,16.76,1.26,5.27Z" style="fill:#ebebeb"></path><path d="M123.45,212s-19-61.52,32.65-61-15.1,6.31-15.1,6.31,62.86,7.61-3.72,5.49c0,0,58.16,13.63-4.47,7.56,0,0,56.38,16.8-3.05,7.62,0,0,50.56,17.34-2.82,7.47,0,0,43.5,17.09-.73,7.37,0,0,36.07,16.76,1.08,7.95,0,0,28.67,17.7-1.43,5.22Z" style="fill:#f5f5f5"></path><path d="M120.43,213.73s21.73-60.59,62.67-29.19-15.86-4-15.86-4S213,224.33,161,182.7c0,0,38.36,45.78-8.11,3.37,0,0,35,47.26-7,4.26,0,0,30.06,44.2-6.73,4.29,0,0,24.56,39.76-5,5.46,0,0,18.81,35-3.91,7,0,0,12.33,31.35-4.27,3.32Z" style="fill:#ebebeb"></path><path d="M124.45,213.73s-21.74-60.59-62.68-29.19,15.86-4,15.86-4-45.74,43.8,6.27,2.17c0,0-38.36,45.78,8.12,3.37,0,0-35,47.26,7,4.26,0,0-30.07,44.2,6.73,4.29,0,0-24.56,39.76,5,5.46,0,0-18.81,35,3.9,7,0,0-12.32,31.35,4.27,3.32Z" style="fill:#f5f5f5"></path><path d="M109.12,339.24c1.12-8.12-1.15-27.57-1.15-43.46,0-63.63,6.57-88.37,14.67-88.37s14.67,24.74,14.67,88.37c0,15.89-2.26,35.34-1.15,43.46,1.25,9,5.17,18.23,5.17,26.94,0,18-8.37,16.62-18.69,16.62S104,384.14,104,366.18C104,357.47,107.88,348.28,109.12,339.24Z" style="fill:#e0e0e0"></path><path d="M132.42,233.5s-2.21-4-3.32-4-3.14,4-3.14,4-2.46-4-3.63-4-3.38,4-3.38,4-2.21-4-3.32-4-2.76,4-2.76,4,2.18-1.62,2.95-1.41c1,.27,3,3.65,3,3.65s2.46-3.54,3.56-3.56,3.75,3.56,3.75,3.56,2-3.35,3-3.65S132.42,233.5,132.42,233.5Z" style="fill:#fafafa"></path><path d="M129.83,220.52s-1.63-2.94-2.44-2.92-2.31,2.92-2.31,2.92-1.8-2.94-2.66-2.92-2.49,2.92-2.49,2.92-1.62-3-2.44-2.92-2,2.92-2,2.92,1.6-1.19,2.17-1c.72.19,2.17,2.68,2.17,2.68s1.8-2.61,2.62-2.62,2.75,2.62,2.75,2.62,1.45-2.47,2.17-2.68S129.83,220.52,129.83,220.52Z" style="fill:#fafafa"></path><path d="M133.74,246.79s-2.51-4.54-3.77-4.51-3.56,4.51-3.56,4.51-2.79-4.54-4.12-4.51-3.84,4.51-3.84,4.51-2.5-4.59-3.76-4.51-3.14,4.51-3.14,4.51,2.48-1.84,3.35-1.6c1.11.31,3.35,4.14,3.35,4.14s2.78-4,4-4,4.26,4,4.26,4,2.24-3.8,3.35-4.14S133.74,246.79,133.74,246.79Z" style="fill:#fafafa"></path><path d="M133.74,328.38s-2.51-4.54-3.77-4.52-3.56,4.52-3.56,4.52-2.79-4.55-4.12-4.52-3.84,4.52-3.84,4.52-2.5-4.59-3.76-4.52-3.14,4.52-3.14,4.52,2.48-1.84,3.35-1.6c1.11.3,3.35,4.14,3.35,4.14s2.78-4,4-4.05,4.26,4.05,4.26,4.05,2.24-3.81,3.35-4.14S133.74,328.38,133.74,328.38Z" style="fill:#fafafa"></path><path d="M135.21,260.51s-2.84-5.14-4.27-5.11-4,5.11-4,5.11-3.16-5.15-4.66-5.11-4.35,5.11-4.35,5.11-2.84-5.2-4.27-5.11-3.56,5.11-3.56,5.11,2.81-2.08,3.8-1.81c1.26.35,3.79,4.69,3.79,4.69s3.16-4.56,4.59-4.58,4.82,4.58,4.82,4.58,2.54-4.31,3.79-4.69S135.21,260.51,135.21,260.51Z" style="fill:#fafafa"></path><path d="M135.21,316.4s-2.84-5.14-4.27-5.11-4,5.11-4,5.11-3.16-5.15-4.66-5.11-4.35,5.11-4.35,5.11-2.84-5.2-4.27-5.11-3.56,5.11-3.56,5.11,2.81-2.08,3.8-1.81c1.26.35,3.79,4.69,3.79,4.69s3.16-4.56,4.59-4.58,4.82,4.58,4.82,4.58,2.54-4.31,3.79-4.69S135.21,316.4,135.21,316.4Z" style="fill:#fafafa"></path><path d="M135.21,274.57s-2.84-5.14-4.27-5.11-4,5.11-4,5.11-3.16-5.15-4.66-5.11-4.35,5.11-4.35,5.11-2.84-5.2-4.27-5.11-3.56,5.11-3.56,5.11,2.81-2.08,3.8-1.81c1.26.35,3.79,4.69,3.79,4.69s3.16-4.56,4.59-4.58,4.82,4.58,4.82,4.58,2.54-4.31,3.79-4.69S135.21,274.57,135.21,274.57Z" style="fill:#fafafa"></path><path d="M135.21,302.69s-2.84-5.14-4.27-5.11-4,5.11-4,5.11-3.16-5.15-4.66-5.11-4.35,5.11-4.35,5.11-2.84-5.2-4.27-5.11-3.56,5.11-3.56,5.11,2.81-2.08,3.8-1.81c1.26.35,3.79,4.69,3.79,4.69s3.16-4.56,4.59-4.58,4.82,4.58,4.82,4.58,2.54-4.31,3.79-4.69S135.21,302.69,135.21,302.69Z" style="fill:#fafafa"></path><path d="M135.21,340.62s-2.84-5.14-4.27-5.12-4,5.12-4,5.12-3.16-5.15-4.66-5.12-4.35,5.12-4.35,5.12-2.84-5.2-4.27-5.12-3.56,5.12-3.56,5.12,2.81-2.08,3.8-1.81c1.26.34,3.79,4.68,3.79,4.68s3.16-4.55,4.59-4.58,4.82,4.58,4.82,4.58,2.54-4.3,3.79-4.68S135.21,340.62,135.21,340.62Z" style="fill:#fafafa"></path><path d="M137.8,356s-3.43-6.2-5.15-6.17-4.86,6.17-4.86,6.17-3.81-6.21-5.62-6.17-5.25,6.17-5.25,6.17-3.42-6.27-5.14-6.17-4.29,6.17-4.29,6.17,3.38-2.51,4.57-2.19c1.52.42,4.58,5.65,4.58,5.65s3.81-5.49,5.53-5.52,5.81,5.52,5.81,5.52,3.06-5.19,4.57-5.65C133.89,353.41,137.8,356,137.8,356Z" style="fill:#fafafa"></path><path d="M139.46,369.33s-3.8-6.87-5.71-6.83-5.4,6.83-5.4,6.83-4.23-6.88-6.24-6.83-5.81,6.83-5.81,6.83-3.8-6.95-5.71-6.83c-1.74.1-4.76,6.83-4.76,6.83s3.76-2.78,5.07-2.42c1.69.46,5.08,6.27,5.08,6.27s4.22-6.09,6.13-6.13,6.45,6.13,6.45,6.13,3.4-5.76,5.08-6.27C135.12,366.46,139.46,369.33,139.46,369.33Z" style="fill:#fafafa"></path><path d="M136.32,288.73s-3.09-5.59-4.65-5.56-4.38,5.56-4.38,5.56-3.44-5.6-5.08-5.56-4.73,5.56-4.73,5.56-3.09-5.66-4.64-5.56-3.88,5.56-3.88,5.56,3.06-2.26,4.13-2c1.38.38,4.13,5.1,4.13,5.1s3.44-5,5-5,5.25,5,5.25,5,2.76-4.69,4.13-5.1C132.8,286.4,136.32,288.73,136.32,288.73Z" style="fill:#fafafa"></path><path d="M382.5,250.38s-16.36-47.59,24-48.44-11.63,5.3-11.63,5.3,49.31,4.36-2.77,4.39c0,0,45.79,9.18-3.31,6,0,0,44.49,11.71-2.19,6,0,0,39.95,12.27-2,5.91,0,0,34.43,12.25-.38,5.78,0,0,28.6,12.18,1,6.18,0,0,22.85,13.1-1,4.12Z" style="fill:#ebebeb"></path><path d="M382,249.26s14.81-48.09-25.53-47.64,11.81,4.92,11.81,4.92-49.15,6,2.9,4.3c0,0-45.46,10.65,3.5,5.91,0,0-44.08,13.14,2.38,6,0,0-39.53,13.55,2.2,5.84,0,0-34,13.35.58,5.76,0,0-28.2,13.1-.85,6.21,0,0-22.41,13.84,1.12,4.08Z" style="fill:#f5f5f5"></path><path d="M384.33,250.62s-17-47.36-49-22.81,12.4-3.14,12.4-3.14-35.76,34.24,4.9,1.69c0,0-30,35.8,6.35,2.64,0,0-27.4,36.95,5.47,3.33,0,0-23.5,34.56,5.27,3.36,0,0-19.2,31.08,3.91,4.27,0,0-14.7,27.39,3.06,5.47,0,0-9.64,24.52,3.34,2.6Z" style="fill:#ebebeb"></path><path d="M381.19,250.62s17-47.36,49-22.81-12.4-3.14-12.4-3.14,35.75,34.24-4.91,1.69c0,0,30,35.8-6.34,2.64,0,0,27.39,36.95-5.48,3.33,0,0,23.5,34.56-5.26,3.36,0,0,19.2,31.08-3.92,4.27,0,0,14.71,27.39-3.05,5.47,0,0,9.64,24.52-3.34,2.6Z" style="fill:#f5f5f5"></path><path d="M393.17,348.75c-.87-6.35.9-21.56.9-34,0-49.74-5.14-69.09-11.47-69.09S371.13,265,371.13,314.77c0,12.42,1.77,27.63.9,34-1,7.06-4,14.25-4,21.06,0,14,6.54,13,14.61,13s14.61,1.05,14.61-13C397.21,363,394.14,355.81,393.17,348.75Z" style="fill:#e0e0e0"></path><path d="M375,266.08s1.72-3.12,2.59-3.1,2.45,3.1,2.45,3.1,1.92-3.13,2.84-3.1,2.64,3.1,2.64,3.1,1.73-3.16,2.6-3.1,2.16,3.1,2.16,3.1-1.71-1.26-2.31-1.1c-.76.21-2.3,2.85-2.3,2.85s-1.92-2.77-2.79-2.78-2.93,2.78-2.93,2.78-1.55-2.62-2.31-2.85S375,266.08,375,266.08Z" style="fill:#fafafa"></path><path d="M377,255.94s1.27-2.3,1.91-2.29,1.8,2.29,1.8,2.29,1.41-2.31,2.08-2.29,2,2.29,2,2.29,1.27-2.33,1.9-2.29,1.59,2.29,1.59,2.29-1.25-.93-1.69-.81-1.7,2.09-1.7,2.09-1.41-2-2.05-2.05-2.15,2.05-2.15,2.05-1.14-1.92-1.7-2.09S377,255.94,377,255.94Z" style="fill:#fafafa"></path><path d="M373.92,276.47s2-3.54,2.95-3.53,2.78,3.53,2.78,3.53,2.18-3.55,3.22-3.53,3,3.53,3,3.53,2-3.59,2.95-3.53,2.45,3.53,2.45,3.53-1.94-1.43-2.62-1.25c-.87.24-2.62,3.24-2.62,3.24s-2.17-3.15-3.16-3.16-3.33,3.16-3.33,3.16-1.75-3-2.62-3.24S373.92,276.47,373.92,276.47Z" style="fill:#fafafa"></path><path d="M373.92,340.26s2-3.55,2.95-3.53,2.78,3.53,2.78,3.53,2.18-3.56,3.22-3.53,3,3.53,3,3.53,2-3.59,2.95-3.53,2.45,3.53,2.45,3.53-1.94-1.44-2.62-1.25c-.87.24-2.62,3.23-2.62,3.23s-2.17-3.14-3.16-3.16-3.33,3.16-3.33,3.16-1.75-3-2.62-3.23S373.92,340.26,373.92,340.26Z" style="fill:#fafafa"></path><path d="M372.77,287.2s2.22-4,3.34-4,3.15,4,3.15,4,2.47-4,3.65-4,3.4,4,3.4,4,2.22-4.07,3.33-4,2.79,4,2.79,4-2.2-1.63-3-1.42c-1,.28-3,3.67-3,3.67s-2.47-3.56-3.58-3.58-3.77,3.58-3.77,3.58-2-3.37-3-3.67S372.77,287.2,372.77,287.2Z" style="fill:#fafafa"></path><path d="M372.77,330.89s2.22-4,3.34-4,3.15,4,3.15,4,2.47-4,3.65-4,3.4,4,3.4,4,2.22-4.06,3.33-4,2.79,4,2.79,4-2.2-1.62-3-1.41c-1,.27-3,3.66-3,3.66s-2.47-3.56-3.58-3.58-3.77,3.58-3.77,3.58-2-3.37-3-3.66S372.77,330.89,372.77,330.89Z" style="fill:#fafafa"></path><path d="M372.77,298.19s2.22-4,3.34-4,3.15,4,3.15,4,2.47-4,3.65-4,3.4,4,3.4,4,2.22-4.06,3.33-4,2.79,4,2.79,4-2.2-1.62-3-1.41c-1,.27-3,3.66-3,3.66s-2.47-3.56-3.58-3.58-3.77,3.58-3.77,3.58-2-3.37-3-3.66S372.77,298.19,372.77,298.19Z" style="fill:#fafafa"></path><path d="M372.77,320.18s2.22-4,3.34-4,3.15,4,3.15,4,2.47-4,3.65-4,3.4,4,3.4,4,2.22-4.07,3.33-4,2.79,4,2.79,4-2.2-1.63-3-1.42c-1,.27-3,3.67-3,3.67s-2.47-3.57-3.58-3.59-3.77,3.59-3.77,3.59-2-3.37-3-3.67S372.77,320.18,372.77,320.18Z" style="fill:#fafafa"></path><path d="M372.77,349.83s2.22-4,3.34-4,3.15,4,3.15,4,2.47-4,3.65-4,3.4,4,3.4,4,2.22-4.07,3.33-4,2.79,4,2.79,4-2.2-1.63-3-1.42c-1,.27-3,3.67-3,3.67s-2.47-3.57-3.58-3.59-3.77,3.59-3.77,3.59-2-3.37-3-3.67S372.77,349.83,372.77,349.83Z" style="fill:#fafafa"></path><path d="M370.75,361.85s2.68-4.85,4-4.82,3.8,4.82,3.8,4.82,3-4.85,4.4-4.82,4.1,4.82,4.1,4.82,2.68-4.9,4-4.82,3.35,4.82,3.35,4.82-2.64-2-3.57-1.71c-1.19.33-3.58,4.42-3.58,4.42s-3-4.29-4.32-4.32-4.54,4.32-4.54,4.32-2.4-4.06-3.58-4.42S370.75,361.85,370.75,361.85Z" style="fill:#fafafa"></path><path d="M369.45,372.28s3-5.38,4.47-5.35,4.21,5.35,4.21,5.35,3.31-5.39,4.88-5.35,4.55,5.35,4.55,5.35,3-5.44,4.46-5.35,3.72,5.35,3.72,5.35-2.93-2.18-4-1.9c-1.31.36-4,4.9-4,4.9s-3.31-4.76-4.8-4.79-5,4.79-5,4.79-2.66-4.5-4-4.9S369.45,372.28,369.45,372.28Z" style="fill:#fafafa"></path><path d="M371.9,309.26s2.42-4.37,3.64-4.35,3.43,4.35,3.43,4.35,2.69-4.38,4-4.35,3.7,4.35,3.7,4.35,2.42-4.42,3.63-4.35,3,4.35,3,4.35-2.39-1.77-3.23-1.54c-1.07.3-3.23,4-3.23,4s-2.68-3.88-3.9-3.9-4.1,3.9-4.1,3.9-2.16-3.67-3.23-4S371.9,309.26,371.9,309.26Z" style="fill:#fafafa"></path><path d="M157.39,125a8.79,8.79,0,0,0-7.85-12.74,8.63,8.63,0,0,0-3.3.65,12.71,12.71,0,0,0-12-8.51H134A20.76,20.76,0,0,0,94.63,101a14.78,14.78,0,0,0-9.28,8.48,10.33,10.33,0,0,0-12.94,8.1,6.35,6.35,0,0,0-8.67,5.92,6.39,6.39,0,0,0,.19,1.52Z" style="fill:#f0f0f0"></path><path d="M304.6,138.3c0-.41.07-.84.07-1.26a11.46,11.46,0,0,0-11.46-11.46,11.28,11.28,0,0,0-4.16.79,18.31,18.31,0,0,0-20.34-14.43A30.1,30.1,0,0,0,212,105.82a21.2,21.2,0,0,0-7.93,1.81,22.91,22.91,0,0,0-37.17,18A11.47,11.47,0,0,0,155.4,137a10.52,10.52,0,0,0,.08,1.26Z" style="fill:#f0f0f0"></path><path d="M355.14,119.14q0-.31,0-.63a5.73,5.73,0,0,1,7.81-5.34A9.15,9.15,0,0,1,373.09,106a15,15,0,0,1,28.37-3.06,10.67,10.67,0,0,1,4,.9,11.46,11.46,0,0,1,18.59,9,5.73,5.73,0,0,1,5.73,5.73,4.44,4.44,0,0,1,0,.63Z" style="fill:#f5f5f5"></path><path d="M305.9,89.11c3.77,0,8.71-12.31,8.71-12.31s-1.88,13.13,1.39,15,13.7-6.31,13.7-6.31-8.2,10.43-6.31,13.7,15,1.38,15,1.38-12.32,4.94-12.32,8.71S338.41,118,338.41,118s-13.14-1.88-15,1.38,6.31,13.7,6.31,13.7-10.44-8.19-13.7-6.31-1.39,15-1.39,15-4.94-12.31-8.71-12.31-8.7,12.31-8.7,12.31,1.88-13.13-1.39-15-13.7,6.31-13.7,6.31,8.2-10.43,6.31-13.7-15-1.38-15-1.38,12.32-4.94,12.32-8.71-12.32-8.71-12.32-8.71,13.14,1.88,15-1.38-6.31-13.7-6.31-13.7,10.44,8.19,13.7,6.31,1.39-15,1.39-15S302.13,89.11,305.9,89.11Z" style="fill:#f5f5f5"></path><circle cx="305.9" cy="109.3" r="17.2" transform="translate(12.31 248.32) rotate(-45)" style="fill:#fff"></circle><path d="M383.39,145.05a8.06,8.06,0,0,0,.4-2.52,8.21,8.21,0,0,0-8.22-8.21h-.18a14.27,14.27,0,0,0-28.3.6,8.2,8.2,0,0,0-3.1-.61l-.38,0a20.67,20.67,0,0,0,.38-3.88,20.28,20.28,0,0,0-38.8-8.26,14.28,14.28,0,0,0-13.65,12.48,8.45,8.45,0,0,0-2.43-.36,8.21,8.21,0,0,0-8.22,8.21,8.06,8.06,0,0,0,.4,2.52Z" style="fill:#f0f0f0"></path></g><g id="freepik--Shadow--inject-53"><ellipse id="freepik--path--inject-53" cx="245.18" cy="412.39" rx="193.89" ry="11.32" style="fill:#f5f5f5"></ellipse></g><g id="freepik--Plant--inject-53"><path d="M392,397.33a8.12,8.12,0,0,0-1.26-7.67s3.42-3.84.27-10.37c0,0,3.86-6.14.9-9a10.67,10.67,0,0,0,0-10.55,9.72,9.72,0,0,0-1-10s3-4.8-.21-9.41c0,0,1.8-4.6,0-8.06a9,9,0,0,0,4.32-5.95,6.4,6.4,0,0,0,5.21,5.18s-1.26,4.23.9,6.91c0,0-.72,5.95,1.26,8.06,0,0-1.8,4.23,0,8.07,0,0-1.62,4.79,0,8.63a10.15,10.15,0,0,0,0,9.21,9.81,9.81,0,0,0-.9,8.45s-1.8,5,0,9.4c0,0-3.41,1.92-2.52,7.1L396,401h-2.58Z" style="fill:#4468E2"></path><path d="M392,397.33a8.12,8.12,0,0,0-1.26-7.67s3.42-3.84.27-10.37c0,0,3.86-6.14.9-9a10.67,10.67,0,0,0,0-10.55,9.72,9.72,0,0,0-1-10s3-4.8-.21-9.41c0,0,1.8-4.6,0-8.06a9,9,0,0,0,4.32-5.95,6.4,6.4,0,0,0,5.21,5.18s-1.26,4.23.9,6.91c0,0-.72,5.95,1.26,8.06,0,0-1.8,4.23,0,8.07,0,0-1.62,4.79,0,8.63a10.15,10.15,0,0,0,0,9.21,9.81,9.81,0,0,0-.9,8.45s-1.8,5,0,9.4c0,0-3.41,1.92-2.52,7.1L396,401h-2.58Z" style="fill:#fff;opacity:0.5"></path><g style="opacity:0.2"><path d="M394.3,333.83c3.4,20.72,2.22,42.76,0,63.5-.11,1,1.4,1,1.51,0,2.27-20.9,3.4-43.05,0-63.93-.17-1-1.63-.59-1.46.43Z"></path></g><path d="M400.92,399.17a8.42,8.42,0,0,0-.25-6.66s2.66-3,1-8.82c0,0,3.16-4.92,1.34-7.62a11,11,0,0,0,.87-9,10,10,0,0,0,.11-8.6,9.08,9.08,0,0,0,.61-8s1.61-3.78.64-6.88a7.35,7.35,0,0,0,3.46-4.71s0,3.65,3.19,4.86c0,0-1.21,3.49.07,6,0,0-1,5,.22,7a11.36,11.36,0,0,0-.64,6.88s-1.5,4-.69,7.38a10.47,10.47,0,0,0-.74,7.86,9.94,9.94,0,0,0-1.29,7.13,15.45,15.45,0,0,0-.75,8s-2.52,1.35-2.31,5.85l-2.36,2.86-1.79-.22Z" style="fill:#4468E2"></path><path d="M400.92,399.17a8.42,8.42,0,0,0-.25-6.66s2.66-3,1-8.82c0,0,3.16-4.92,1.34-7.62a11,11,0,0,0,.87-9,10,10,0,0,0,.11-8.6,9.08,9.08,0,0,0,.61-8s1.61-3.78.64-6.88a7.35,7.35,0,0,0,3.46-4.71s0,3.65,3.19,4.86c0,0-1.21,3.49.07,6,0,0-1,5,.22,7a11.36,11.36,0,0,0-.64,6.88s-1.5,4-.69,7.38a10.47,10.47,0,0,0-.74,7.86,9.94,9.94,0,0,0-1.29,7.13,15.45,15.45,0,0,0-.75,8s-2.52,1.35-2.31,5.85l-2.36,2.86-1.79-.22Z" style="fill:#fff;opacity:0.30000000000000004"></path><g style="opacity:0.2"><path d="M407.61,345.16c.69,18-1.88,36.69-5.1,54.2-.16.87.89,1,1.05.13,3.24-17.65,5.79-36.46,5.09-54.57,0-.88-1.08-.64-1,.24Z"></path></g><path d="M393.9,400a8.44,8.44,0,0,1,.26-6.66s-2.67-3-1-8.82c0,0-3.15-4.92-1.34-7.63a10.94,10.94,0,0,1-.87-9,10.08,10.08,0,0,1-.11-8.61,9.08,9.08,0,0,1-.6-8s-1.61-3.78-.65-6.88a7.39,7.39,0,0,1-3.46-4.72s0,3.65-3.18,4.86c0,0,1.2,3.5-.07,6,0,0,1,5-.23,7a11.34,11.34,0,0,1,.64,6.88s1.51,4,.7,7.37a10.45,10.45,0,0,1,.73,7.86,9.93,9.93,0,0,1,1.3,7.14,15.42,15.42,0,0,1,.75,8s2.51,1.36,2.31,5.85l2.36,2.87,1.78-.22Z" style="fill:#4468E2"></path><path d="M393.9,400a8.44,8.44,0,0,1,.26-6.66s-2.67-3-1-8.82c0,0-3.15-4.92-1.34-7.63a10.94,10.94,0,0,1-.87-9,10.08,10.08,0,0,1-.11-8.61,9.08,9.08,0,0,1-.6-8s-1.61-3.78-.65-6.88a7.39,7.39,0,0,1-3.46-4.72s0,3.65-3.18,4.86c0,0,1.2,3.5-.07,6,0,0,1,5-.23,7a11.34,11.34,0,0,1,.64,6.88s1.51,4,.7,7.37a10.45,10.45,0,0,1,.73,7.86,9.93,9.93,0,0,1,1.3,7.14,15.42,15.42,0,0,1,.75,8s2.51,1.36,2.31,5.85l2.36,2.87,1.78-.22Z" style="fill:#fff;opacity:0.30000000000000004"></path><g style="opacity:0.2"><path d="M387.22,346c-.7,18,1.88,36.69,5.09,54.2.16.87-.88,1-1,.13-3.24-17.66-5.79-36.46-5.09-54.57,0-.89,1.07-.64,1,.24Z"></path></g><path d="M384.9,403.78a6.84,6.84,0,0,0-2.58-5s1-3.54-2.38-7.26c0,0,.66-5.25-1.71-6.49a9.3,9.3,0,0,0-2.56-7.33,8.33,8.33,0,0,0-3-6.67s.52-4.1-2.42-6.46c0,0-.12-3.66-2-5.6a7.34,7.34,0,0,0,1-5.23s1.34,2.79,4.2,2.26c0,0,.32,3.25,2.19,4.56,0,0,1.05,4.31,2.68,5.27a9.58,9.58,0,0,0,2,5.59s.27,3.74,2.11,6a8.88,8.88,0,0,0,2.26,6.39,8.69,8.69,0,0,0,1.56,6.09,13,13,0,0,0,2.3,6.52s-1.45,2.21.32,5.57l-.79,3.3-1.45.66Z" style="fill:#4468E2"></path><path d="M384.9,403.78a6.84,6.84,0,0,0-2.58-5s1-3.54-2.38-7.26c0,0,.66-5.25-1.71-6.49a9.3,9.3,0,0,0-2.56-7.33,8.33,8.33,0,0,0-3-6.67s.52-4.1-2.42-6.46c0,0-.12-3.66-2-5.6a7.34,7.34,0,0,0,1-5.23s1.34,2.79,4.2,2.26c0,0,.32,3.25,2.19,4.56,0,0,1.05,4.31,2.68,5.27a9.58,9.58,0,0,0,2,5.59s.27,3.74,2.11,6a8.88,8.88,0,0,0,2.26,6.39,8.69,8.69,0,0,0,1.56,6.09,13,13,0,0,0,2.3,6.52s-1.45,2.21.32,5.57l-.79,3.3-1.45.66Z" style="fill:#fff;opacity:0.5"></path><g style="opacity:0.2"><path d="M370.68,359.14c7,13.5,11.71,29.09,15.52,44.05.18.74,1,.35.84-.39-3.83-15.08-8.62-30.73-15.65-44.33-.34-.67-1.05,0-.71.67Z"></path></g><path d="M411.52,391.63A5,5,0,0,1,413.4,388a5.94,5.94,0,0,1,1.72-5.26s-.48-3.8,1.23-4.7a6.75,6.75,0,0,1,1.86-5.31,6,6,0,0,1,2.17-4.83,5.55,5.55,0,0,1,1.75-4.68,7.16,7.16,0,0,1,1.43-4.05,5.35,5.35,0,0,1-.7-3.79,3,3,0,0,1-3,1.64s-.24,2.35-1.59,3.3c0,0-.76,3.12-1.94,3.82a7,7,0,0,1-1.43,4.05,8.87,8.87,0,0,1-1.53,4.33,6.39,6.39,0,0,1-1.63,4.63,6.3,6.3,0,0,1-1.13,4.41,9.45,9.45,0,0,1-1.66,4.73,4.07,4.07,0,0,1-.24,4l.57,2.39,1.05.48Z" style="fill:#4468E2"></path><path d="M411.52,391.63A5,5,0,0,1,413.4,388a5.94,5.94,0,0,1,1.72-5.26s-.48-3.8,1.23-4.7a6.75,6.75,0,0,1,1.86-5.31,6,6,0,0,1,2.17-4.83,5.55,5.55,0,0,1,1.75-4.68,7.16,7.16,0,0,1,1.43-4.05,5.35,5.35,0,0,1-.7-3.79,3,3,0,0,1-3,1.64s-.24,2.35-1.59,3.3c0,0-.76,3.12-1.94,3.82a7,7,0,0,1-1.43,4.05,8.87,8.87,0,0,1-1.53,4.33,6.39,6.39,0,0,1-1.63,4.63,6.3,6.3,0,0,1-1.13,4.41,9.45,9.45,0,0,1-1.66,4.73,4.07,4.07,0,0,1-.24,4l.57,2.39,1.05.48Z" style="fill:#fff;opacity:0.5"></path><g style="opacity:0.2"><path d="M421.83,359.3c-5.06,9.78-8.48,21.07-11.24,31.91-.14.53-.75.25-.62-.28,2.78-10.93,6.25-22.26,11.34-32.12.25-.48.76,0,.52.49Z"></path></g><path d="M426.54,404.27c0,6.4-6.71,7.73-15,7.73s-15-1.33-15-7.73S399.84,386,408.12,386,426.54,397.86,426.54,404.27Z" style="fill:#263238"></path><path d="M426.54,404.27c0,6.4-6.71,7.73-15,7.73s-15-1.33-15-7.73S399.84,386,408.12,386,426.54,397.86,426.54,404.27Z" style="fill:#fff;opacity:0.5"></path><path d="M408.12,386a8,8,0,0,0-2.33.34c-3.11,4.32-1.83,13.3-.07,18.25,2.15,6,7.76,5.44,14.13,3.17a22.94,22.94,0,0,0,6.68-3.4s0-.08,0-.13C426.54,397.86,416.4,386,408.12,386Z" style="fill:#fff;opacity:0.30000000000000004"></path><path d="M406.43,407.61c0,3.64-7.7,4.39-17.19,4.39s-17.18-.75-17.18-4.39,8.79-11,18.28-11S406.43,404,406.43,407.61Z" style="fill:#263238"></path><path d="M406.43,407.61c0,3.64-7.7,4.39-17.19,4.39s-17.18-.75-17.18-4.39,8.79-11,18.28-11S406.43,404,406.43,407.61Z" style="fill:#fff;opacity:0.6000000000000001"></path><path d="M390.34,408.43a74,74,0,0,0-16.4,1.7c2.84,1.49,8.62,1.87,15.3,1.87s12.68-.39,15.46-1.95A54,54,0,0,0,390.34,408.43Z" style="opacity:0.2"></path></g><g id="freepik--character-2--inject-53"><path d="M342.2,263.38s8.34,14.51,22.73,14.51c20.08,0,25-55.89,25-55.89l26.3,14s-6.26,4-12.66,31.43c-10.05,43-48.38,52-64.22,36.13Z" style="fill:#4468E2"></path><path d="M342.2,263.38s8.34,14.51,22.73,14.51c20.08,0,25-55.89,25-55.89l26.3,14s-6.26,4-12.66,31.43c-10.05,43-48.38,52-64.22,36.13Z" style="fill:#fff;opacity:0.2"></path><path d="M403.61,267.46C410,240.07,416.27,236,416.27,236L404.9,230l-5.16-.72-1,9.51c12.23,7.26,4,36.74-11,54.22s-38.7,7.74-38.7,7.74l-7.14,5C359,318.44,394.05,308.32,403.61,267.46Z" style="opacity:0.1"></path><path d="M436.29,227.41a4.52,4.52,0,0,0,.9,0,.17.17,0,0,0,.18-.17h0a.2.2,0,0,0-.2-.17,4.86,4.86,0,0,1-4-1.75.19.19,0,0,0-.25-.05.2.2,0,0,0,0,.26A5,5,0,0,0,436.29,227.41Z" style="fill:#263238"></path><path d="M397.89,214.65c-4.93,1.87-12.85,7-4.51,18.59s15.82,7.83,24.5,2.89,8.77-3.57,12.17-3.23,9.45,1.1,9.36-1.62l-3.32-.85,3.07-.85a1.63,1.63,0,0,0,.93-2.21,5.76,5.76,0,0,1-2.3-3c-.68-2-1.1-4.77-5.19-5,0,0-.68-2.55-7.4-2.3s-12.93.77-16.25-1S401.33,213.34,397.89,214.65Z" style="fill:#4468E2"></path><path d="M397.89,214.65c-4.93,1.87-12.85,7-4.51,18.59s15.82,7.83,24.5,2.89,8.77-3.57,12.17-3.23,9.45,1.1,9.36-1.62l-3.32-.85,3.07-.85a1.63,1.63,0,0,0,.93-2.21,5.76,5.76,0,0,1-2.3-3c-.68-2-1.1-4.77-5.19-5,0,0-.68-2.55-7.4-2.3s-12.93.77-16.25-1S401.33,213.34,397.89,214.65Z" style="fill:#fff;opacity:0.2"></path><path d="M397.29,220.56c1.7-1.16,3.32-6.38-4.25-7.06s-2.81,3.32-.85,5.36S396.18,221.32,397.29,220.56Z" style="fill:#4468E2"></path><path d="M388.92,214.68a8.27,8.27,0,0,1,2.18,0c5.79.52,4.56,4.52,3.25,5.41a1.79,1.79,0,0,1-.42.19,7.79,7.79,0,0,1-1.74-1.39C391.07,217.69,389,215.89,388.92,214.68Z" style="opacity:0.2"></path><path d="M411.5,217.13a.44.44,0,0,0,.07-.22.44.44,0,0,0-.42-.46h0a5.2,5.2,0,0,0-4.39,1.93.47.47,0,0,0,.11.62.46.46,0,0,0,.62-.1,4.34,4.34,0,0,1,3.64-1.56A.45.45,0,0,0,411.5,217.13Z" style="fill:#263238"></path><path d="M409.13,221.33c.05.9.58,1.61,1.18,1.58s1-.8,1-1.72-.59-1.61-1.18-1.57S409.08,220.41,409.13,221.33Z" style="fill:#263238"></path><path d="M409.84,219.68l2.15-.76S411,220.69,409.84,219.68Z" style="fill:#263238"></path><path d="M323.83,363.27c-2.31,7.76-5,18.15-4.72,25.42s3.32,11.34.23,12.93c0,0,9.42,3.53,9.23,5.67-.28,3.18-19.08,3.18-18.72-.91.28-3.17,3.52-3.85,3.18-5.21s-2.36-1.59-1.18-7.27,3.85-26.12,1-32c-.9-1.83-1.72-1.79.73-8.44,3.61-9.76,9.65-44,2.86-55.59,0,0,17.25-15.66,32.61-4.54,0,0-10.76,14.25-20.06,45.15-1.16,3.86-4.52,15.43-4.52,15.43A19.52,19.52,0,0,1,323.83,363.27Z" style="fill:#4468E2"></path><path d="M223.87,268s1.14,17.47,7.72,33.58,6.58,18.6,4.54,26.77,0,30.09,4.53,42.34,17.48,23.24,16.57,26.87c0,0,10,4.95,10,7.49s-13.61,4.53-17.24,2.72.9-5.9.22-7.49-2.49-.45-3.17-3.63-11.35-22.24-16.79-28.13-7-7.72-6.36-11.8-.9-22.92-8.17-36.08-16.11-32-15.43-38.8S223.87,268,223.87,268Z" style="fill:#4468E2"></path><path d="M351.73,279.39s-5.44-14.82-17.35-24-19.06-4.42-27.57-17.7-28.48-4.76-39.6,2.39-40.39,5.44-58.77,22.12-10.21,30.63-15.31,42.2-8.06,9.65-11.69,13.73l4.09-1.13s-7.72,7.26-16.34,4.08c0,0,1.81,2.5,6.81,2.5,0,0-6.58,1.81-11.12,0A21.2,21.2,0,0,0,178,326.06s1.59,2.27,6.81,1.14c0,0-1.82,2.95-8.63,3.18a11.85,11.85,0,0,0,12.94-4.09,27.72,27.72,0,0,0,7.94-20.42c-.49-25.05,3.17-24.05,3.17-24.05s35.63,22,51.06,32.67,71,5.67,71,5.67S357.29,317.13,351.73,279.39Z" style="fill:#4468E2"></path><path d="M351.73,279.39s-5.44-14.82-17.35-24-19.06-4.42-27.57-17.7-28.48-4.76-39.6,2.39-40.39,5.44-58.77,22.12-10.21,30.63-15.31,42.2-8.06,9.65-11.69,13.73l4.09-1.13s-7.72,7.26-16.34,4.08c0,0,1.81,2.5,6.81,2.5,0,0-6.58,1.81-11.12,0A21.2,21.2,0,0,0,178,326.06s1.59,2.27,6.81,1.14c0,0-1.82,2.95-8.63,3.18a11.85,11.85,0,0,0,12.94-4.09,27.72,27.72,0,0,0,7.94-20.42c-.49-25.05,3.17-24.05,3.17-24.05s35.63,22,51.06,32.67,71,5.67,71,5.67S357.29,317.13,351.73,279.39Z" style="fill:#fff;opacity:0.2"></path><path d="M232.32,290s-8.45,32.42-19.34,39.46-19.51,23.14-21.33,30.86-3.4,18.15-2.49,25.41,4.31,11.35,1.36,12.93c0,0,9.72,3.53,9.72,5.68,0,3.17-18.8,3.17-18.8-.91,0-3.18,3.18-3.86,2.72-5.22s-2.49-1.59-1.81-7.26-.23-25.41-1.82-32-1.13-8,3.41-13.17,14.35-12.22,15.88-36.75c.42-6.8.45-27.23.45-27.23S222.79,266.19,232.32,290Z" style="fill:#4468E2"></path><path d="M232.32,290s-8.45,32.42-19.34,39.46-19.51,23.14-21.33,30.86-3.4,18.15-2.49,25.41,4.31,11.35,1.36,12.93c0,0,9.72,3.53,9.72,5.68,0,3.17-18.8,3.17-18.8-.91,0-3.18,3.18-3.86,2.72-5.22s-2.49-1.59-1.81-7.26-.23-25.41-1.82-32-1.13-8,3.41-13.17,14.35-12.22,15.88-36.75c.42-6.8.45-27.23.45-27.23S222.79,266.19,232.32,290Z" style="fill:#fff;opacity:0.2"></path><path d="M220.67,271.87a33.63,33.63,0,0,1-6.91-14.08c18.3-12.38,43.46-11.56,53.58-18.06,11.12-7.15,31.09-15.66,39.59-2.39,3.48,5.42,6.73,7.84,10.16,9.42-3.41,2.77-11.34,10.85-14.5,27.91C298.5,296.68,236.33,291.08,220.67,271.87Z" style="fill:#263238"></path><path d="M220.67,271.87a33.63,33.63,0,0,1-6.91-14.08c18.3-12.38,43.46-11.56,53.58-18.06,11.12-7.15,31.09-15.66,39.59-2.39,3.48,5.42,6.73,7.84,10.16,9.42-3.41,2.77-11.34,10.85-14.5,27.91C298.5,296.68,236.33,291.08,220.67,271.87Z" style="fill:#fff;opacity:0.6000000000000001"></path><path d="M216.85,255.87a45.37,45.37,0,0,0,7,13.42c9.58,11.76,42.24,19,62.4,13.87,5.08-1.3,11.35-4,12.33-9.23A63,63,0,0,1,312.67,244a20.33,20.33,0,0,0,4.42,2.75c-3.41,2.77-11.34,10.85-14.5,27.91-4.09,22-66.26,16.41-81.92-2.8a33.63,33.63,0,0,1-6.91-14.08Q215.28,256.77,216.85,255.87Z" style="fill:#263238"></path><path d="M216.85,255.87a45.37,45.37,0,0,0,7,13.42c9.58,11.76,42.24,19,62.4,13.87,5.08-1.3,11.35-4,12.33-9.23A63,63,0,0,1,312.67,244a20.33,20.33,0,0,0,4.42,2.75c-3.41,2.77-11.34,10.85-14.5,27.91-4.09,22-66.26,16.41-81.92-2.8a33.63,33.63,0,0,1-6.91-14.08Q215.28,256.77,216.85,255.87Z" style="fill:#fff;opacity:0.30000000000000004"></path><path d="M297.74,283a1.87,1.87,0,1,0,1.87-1.87A1.87,1.87,0,0,0,297.74,283Z" style="fill:#263238"></path><path d="M299.61,286.57l-.11,0a.8.8,0,0,1-1-.48.82.82,0,0,1,.49-1l2.69-1a.81.81,0,1,1,.55,1.52l-.09,0a3.67,3.67,0,0,1,1.28,2.8c.17,2.47,1.12,3.28,1.12,3.28s-.72.83-1.86-1.07a5.22,5.22,0,0,0,1.28,2.3,3.28,3.28,0,0,1-2.66-2.48,3.64,3.64,0,0,0,1.23,2.27,2.65,2.65,0,0,1-2.27-2.66C300.19,288.18,299.12,288.53,299.61,286.57Z" style="fill:#263238"></path><path d="M261.77,289.22a1.87,1.87,0,1,0,2.42-1.08A1.86,1.86,0,0,0,261.77,289.22Z" style="fill:#263238"></path><path d="M262.25,293.19h-.11a.81.81,0,1,1,0-1.62l2.86.06a.81.81,0,0,1,0,1.62h-.1a3.62,3.62,0,0,1,.19,3.08c-.73,2.36-.14,3.46-.14,3.46s-1,.51-1.34-1.67a5.22,5.22,0,0,0,.37,2.61,3.26,3.26,0,0,1-1.59-3.27,3.63,3.63,0,0,0,.32,2.56,2.66,2.66,0,0,1-1.16-3.3C262.22,294.89,261.09,294.84,262.25,293.19Z" style="fill:#263238"></path><path d="M313.8,250.37a1.87,1.87,0,1,0,1.77-2A1.88,1.88,0,0,0,313.8,250.37Z" style="fill:#263238"></path><path d="M315.86,253.8l-.1,0a.81.81,0,0,1-.63-1.49l2.64-1.12a.81.81,0,1,1,.63,1.49l-.09,0a3.61,3.61,0,0,1,1.43,2.72c.31,2.46,1.3,3.22,1.3,3.22s-.68.86-1.91-1a5.21,5.21,0,0,0,1.4,2.23,3.26,3.26,0,0,1-2.79-2.33,3.6,3.6,0,0,0,1.35,2.2,2.65,2.65,0,0,1-2.41-2.54C316.53,255.37,315.48,255.78,315.86,253.8Z" style="fill:#263238"></path><path d="M226.56,278.63a1.87,1.87,0,1,0,2.59-.52A1.88,1.88,0,0,0,226.56,278.63Z" style="fill:#263238"></path><path d="M226.16,282.62l-.1,0a.81.81,0,1,1,.38-1.57l2.79.68a.8.8,0,0,1,.59,1,.81.81,0,0,1-1,.6l-.09,0a3.62,3.62,0,0,1-.48,3c-1.22,2.15-.88,3.35-.88,3.35s-1.06.29-1-1.92a5.31,5.31,0,0,0-.2,2.62,3.24,3.24,0,0,1-.84-3.53,3.61,3.61,0,0,0-.24,2.57,2.65,2.65,0,0,1-.42-3.47C225.77,284.28,224.68,284,226.16,282.62Z" style="fill:#263238"></path><path d="M310.92,314.69c-7.25,0-43.75,9.25-77.2-11.81h0c6.67,4.29,13,8.46,17.61,11.62,15.43,10.67,71,5.67,71,5.67a32.72,32.72,0,0,0,5.21-1l1.2-7.14-15-15.86-.92,7.68S318.17,314.69,310.92,314.69Z" style="opacity:0.1"></path><path d="M329.54,268s1.13,12.47,7.71,28.58,5.58,9.6,3.54,17.77,1,42.09,5.54,54.34,17.47,25.24,16.56,28.87c0,0,8,5.95,8,8.49s-11.62,2.53-15.25.72.91-4.9.23-6.49-2.5-.45-3.18-3.63-11.34-22.24-16.79-28.13-5-7.72-4.35-11.8-2.91-22.92-10.17-36.08-16.11-32-15.43-38.8S329.54,268,329.54,268Z" style="fill:#4468E2"></path><path d="M329.54,268s1.13,12.47,7.71,28.58,5.58,9.6,3.54,17.77,1,42.09,5.54,54.34,17.47,25.24,16.56,28.87c0,0,8,5.95,8,8.49s-11.62,2.53-15.25.72.91-4.9.23-6.49-2.5-.45-3.18-3.63-11.34-22.24-16.79-28.13-5-7.72-4.35-11.8-2.91-22.92-10.17-36.08-16.11-32-15.43-38.8S329.54,268,329.54,268Z" style="fill:#fff;opacity:0.2"></path><path d="M434.37,230.64a4.52,4.52,0,0,0,.9,0,.17.17,0,0,0,.18-.17h0a.2.2,0,0,0-.2-.17,4.85,4.85,0,0,1-4-1.75.19.19,0,0,0-.25,0,.18.18,0,0,0-.05.25A5,5,0,0,0,434.37,230.64Z" style="fill:#263238"></path><path d="M427.27,232.49c-1.41-6-.55-12.35,0-15.4-.46,0-1,0-1.53,0a45.42,45.42,0,0,0-.78,8.58c-12.72.65-32,.09-34.91-3.89a8,8,0,0,0-.32,1.73c2.62,2,8.55,3.26,18,3.7,2.71.12,5.41.17,7.88.17,4.35,0,7.94-.14,9.44-.21a31.46,31.46,0,0,0,.71,5.44A5.85,5.85,0,0,1,427.27,232.49Z" style="fill:#263238"></path><path d="M219.61,239.73v-.44l-3.5-.5-5.81,2-2.62,3.81-.82,3.82-.28.76h3.25a8.76,8.76,0,1,0,9.78-9.45Z" style="fill:#263238"></path><path d="M218.76,258.87a9.72,9.72,0,0,1-9.51-7.78,7.82,7.82,0,0,1,7.25-9.56,7.66,7.66,0,0,1,7.85,7.53,5.48,5.48,0,0,1-3.58,5.36,5.63,5.63,0,0,1-7.23-3.22,1.5,1.5,0,0,1,1.41-2h0a1.54,1.54,0,0,1,1.41,1,2.59,2.59,0,0,0,2.48,1.59,2.78,2.78,0,0,0,2.45-3.36,4.65,4.65,0,0,0-4.68-3.88c-3.25.07-5.11,3-4.37,6.18a6.7,6.7,0,0,0,13.19-2.09,8.74,8.74,0,0,0-17.36-.76,1.52,1.52,0,0,1-1.49,1.32h0a1.49,1.49,0,0,1-1.49-1.67,11.75,11.75,0,0,1,10.52-10,11.93,11.93,0,0,1,11.92,7.43A9.76,9.76,0,0,1,218.76,258.87Z" style="fill:#4468E2"></path><rect x="228.29" y="252.61" width="35.32" height="24.6" rx="5.27" transform="translate(29.16 -24.35) rotate(6.02)" style="fill:#4468E2"></rect><rect x="229.71" y="267.6" width="13.22" height="4.03" transform="translate(-56.59 476.35) rotate(-83.98)" style="fill:#fff;opacity:0.6000000000000001"></rect><rect x="248.1" y="269.54" width="13.22" height="4.03" transform="translate(-42.07 496.36) rotate(-83.98)" style="fill:#fff;opacity:0.6000000000000001"></rect><path d="M261.08,254.14l-27.67-2.92a3.74,3.74,0,0,0-4.12,3.33l-.2,1.9A7.75,7.75,0,0,0,236,265l19.71,2.08a7.75,7.75,0,0,0,8.52-6.9l.2-1.9A3.73,3.73,0,0,0,261.08,254.14Z" style="fill:#4468E2"></path><path d="M237.8,272.21l-3.46-.36a1.42,1.42,0,0,1-1.26-1.56l.2-1.91a1.42,1.42,0,0,1,1.55-1.26l3.47.37a1.41,1.41,0,0,1,1.26,1.55l-.2,1.91A1.42,1.42,0,0,1,237.8,272.21Zm-3.07-4.09a.41.41,0,0,0-.45.37l-.2,1.91a.42.42,0,0,0,.36.45l3.47.36a.41.41,0,0,0,.45-.36l.2-1.91a.41.41,0,0,0-.37-.45Z" style="fill:#263238"></path><path d="M256.19,274.15l-3.47-.36a1.42,1.42,0,0,1-1.25-1.56l.2-1.91a1.41,1.41,0,0,1,1.55-1.25l3.47.36A1.42,1.42,0,0,1,258,271l-.21,1.92A1.41,1.41,0,0,1,256.19,274.15Zm-3.07-4.08a.39.39,0,0,0-.45.36l-.2,1.91a.41.41,0,0,0,.36.45l3.47.36a.4.4,0,0,0,.44-.36l.21-1.91a.41.41,0,0,0-.37-.45Z" style="fill:#263238"></path><path d="M261.08,254.14l-27.67-2.92a3.74,3.74,0,0,0-4.12,3.33l-.2,1.9A7.75,7.75,0,0,0,236,265l19.71,2.08a7.75,7.75,0,0,0,8.52-6.9l.2-1.9A3.73,3.73,0,0,0,261.08,254.14Z" style="opacity:0.2"></path><path d="M337.22,264.12a85.62,85.62,0,0,1-11.8-.81c-26.54-3.74-49.16-20.14-67.24-48.76L259,214c17.91,28.36,40.29,44.61,66.53,48.3,50.76,7.13,99.32-35.55,99.81-36l.66.74C425.58,227.48,383.9,264.12,337.22,264.12Z" style="fill:#4468E2"></path><path d="M229.4,166.45s-1,16-4.18,21.15,2.09,10,2.09,10l9.94-8.12-1.2-16.1.75-5Z" style="fill:#4468E2"></path><path d="M229.4,166.45s-1,16-4.18,21.15,2.09,10,2.09,10l9.94-8.12-1.2-16.1.75-5Z" style="fill:#fff;opacity:0.4"></path><path d="M233.72,176.67c0,3.94.7,9.66-2.45,11.7,0,0-.6,3.91,9.38,10.17,4.95-4.83,3.16-8.57,3.16-8.57-4.07-1.83-2.89-6-2-8.69Z" style="fill:#b55b52"></path><polygon points="277.21 292.4 276.38 307.85 281.06 308.4 284.82 293.28 277.21 292.4" style="fill:#b55b52"></polygon><polygon points="276.77 300.5 282.94 300.83 284.82 293.28 277.21 292.4 276.77 300.5" style="opacity:0.2"></polygon><path d="M230.55,226.58s-6.8,23,3.9,24.28,38.72,4.79,41.37,10.62-1,36.34-1,36.34l10.81.67s9-35.17,2.66-46.34-36.16-18-36.83-19.5-.71-6.05-.71-6.05Z" style="fill:#263238"></path><path d="M263.89,236.1s-11.08-1.48-12.1-8.13,1.64-38.38-14.1-41.51-11.88,20.46-11,27.8c1,8.83,1.71,28.37.61,38.39C227.29,252.65,248.93,252.08,263.89,236.1Z" style="fill:#263238"></path><path d="M263.89,236.1s-11.08-1.48-12.1-8.13,1.64-38.38-14.1-41.51-11.88,20.46-11,27.8c1,8.83,1.71,28.37.61,38.39C227.29,252.65,248.93,252.08,263.89,236.1Z" style="fill:#fff;opacity:0.30000000000000004"></path><path d="M245.18,214.47l7.6.79,5.64-4.84s2.82,1.5,3.19,2.42.29,4-.73,4.51c-.44.23-1.81-.78-1.81-.78s-3.05,2.54-4.61,2.91c-2.18.53-10.06,0-10.06,0Z" style="fill:#b55b52"></path><path d="M282.39,305.77l-6.53-.13a.52.52,0,0,0-.5.39l-1.25,5.14a.85.85,0,0,0,.83,1.05c2.28,0,3.39-.11,6.26-.05,1.77,0,8,.34,10.4.39s2.81-2.36,1.81-2.6c-4.45-1.06-8.68-2.5-10.08-3.81A1.43,1.43,0,0,0,282.39,305.77Z" style="fill:#263238"></path><path d="M285.74,306v-.13a.47.47,0,0,0-.24-.42c-.64-.34-2.42.69-2.77.9a.15.15,0,0,0-.08.16.17.17,0,0,0,.12.14c.74.19,2.06.44,2.66,0A.81.81,0,0,0,285.74,306Zm-2.49.43c.79-.43,1.8-.85,2.09-.69,0,0,.07.05.07.14a.53.53,0,0,1-.18.47A2.71,2.71,0,0,1,283.25,306.39Z" style="fill:#4468E2"></path><path d="M284.59,304.49a.66.66,0,0,0,0-.14.47.47,0,0,0-.45-.39.81.81,0,0,0-.61.17c-.69.55-.86,2.23-.87,2.3a.16.16,0,0,0,.07.16.2.2,0,0,0,.17,0A3.89,3.89,0,0,0,284.59,304.49ZM283,306.12a3.34,3.34,0,0,1,.7-1.73.47.47,0,0,1,.37-.1c.16,0,.17.09.17.12C284.32,304.76,283.61,305.67,283,306.12Z" style="fill:#4468E2"></path><path d="M244.85,171.26c-.44,5.61-.51,8-3.4,10.8-4.34,4.26-11.13,2.48-12.37-3.14-1.1-5.06-.19-13.41,5.35-15.5a7.66,7.66,0,0,1,9.93,4.34A7.75,7.75,0,0,1,244.85,171.26Z" style="fill:#b55b52"></path><path d="M235.89,172.56c0,.46-.27.83-.56.83s-.54-.39-.53-.84.26-.83.55-.82S235.87,172.13,235.89,172.56Z" style="fill:#263238"></path><path d="M230.73,172.48c0,.47-.26.82-.56.82s-.54-.38-.53-.84.26-.82.56-.81S230.73,172,230.73,172.48Z" style="fill:#263238"></path><path d="M232.3,173.34a12.32,12.32,0,0,1-1.68,2.89,2,2,0,0,0,1.62.33Z" style="fill:#a02724"></path><path d="M238,171.56a.26.26,0,0,1-.28-.14,3.13,3.13,0,0,0-2.13-1.39.27.27,0,0,1-.22-.31.26.26,0,0,1,.3-.22h0a3.6,3.6,0,0,1,2.52,1.69.26.26,0,0,1-.12.35h0A.11.11,0,0,1,238,171.56Z" style="fill:#263238"></path><path d="M229.22,170.07a.24.24,0,0,1-.25-.1.28.28,0,0,1,0-.38,2.65,2.65,0,0,1,2.42-.52.25.25,0,0,1,.17.32v0a.27.27,0,0,1-.34.16h0a2.15,2.15,0,0,0-1.89.44A.2.2,0,0,1,229.22,170.07Z" style="fill:#263238"></path><path d="M226.26,197.56c.4-3.11,1.85-11.73,6.44-11.38s4.86,5.4,3.46,13-1.73,13.41,13.73,15.07l-.91,6.1S222.79,224.53,226.26,197.56Z" style="fill:#263238"></path><path d="M240.92,167.11s1,4.54-.29,8-5.71.42-8.31,2.25c0,0-.67-.54-2,.84s-1.63-2.36-1.63-2.36-.08,1-.08,1.71c0,1.79,1.13,7.23,2.3,5.19,0,0,1.83,3.54,2.71,1.64,0,0,1.29,2.32,2.85.32,0,0,1.15,1.29,3-.88a3.45,3.45,0,0,0,2.29-1.66c.83-1.45,1.67-7.8,1.67-7.8l.46-5.75Z" style="fill:#263238"></path><path d="M240.92,167.11s1,4.54-.29,8-5.71.42-8.31,2.25c0,0-.67-.54-2,.84s-1.63-2.36-1.63-2.36-.08,1-.08,1.71c0,1.79,1.13,7.23,2.3,5.19,0,0,1.83,3.54,2.71,1.64,0,0,1.29,2.32,2.85.32,0,0,1.15,1.29,3-.88a3.45,3.45,0,0,0,2.29-1.66c.83-1.45,1.67-7.8,1.67-7.8l.46-5.75Z" style="fill:#fff;opacity:0.2"></path><path d="M245.42,175.47a4,4,0,0,1-2.09,2.26c-1.29.58-2.15-.52-2-1.86s1-3,2.42-3a1.81,1.81,0,0,1,1.81,1.82A1.84,1.84,0,0,1,245.42,175.47Z" style="fill:#b97964"></path><path d="M245.59,171.4s1.75-8.08-6.38-9.79c0,0-6.91-2.46-9.57,4.63C229.64,166.24,235.34,164.9,245.59,171.4Z" style="fill:#4468E2"></path><path d="M245.59,171.4s1.75-8.08-6.38-9.79c0,0-6.91-2.46-9.57,4.63C229.64,166.24,235.34,164.9,245.59,171.4Z" style="fill:#fff;opacity:0.5"></path><path d="M245,171.65a31.79,31.79,0,0,1,2.75,10.5c.25,5.25,4.67,15.84,4.67,15.84s-5.75-1.67-8.75,1.16-2.1-10-3.51-16.91a26.52,26.52,0,0,1,.93-13.16Z" style="fill:#4468E2"></path><path d="M245,171.65a31.79,31.79,0,0,1,2.75,10.5c.25,5.25,4.67,15.84,4.67,15.84s-5.75-1.67-8.75,1.16-2.1-10-3.51-16.91a26.52,26.52,0,0,1,.93-13.16Z" style="fill:#fff;opacity:0.6000000000000001"></path><path d="M230.18,166.24s-2.57,2.13-1.56,2.37,2.42-.91,3.51-.29,2.68.4,3.76.33,2.15,2.3,4.2,2.09,1.67,3.79,3.37,3.08,2.63,2.42,3,.92-1.19-1.61-1.57-3L243,169.82l-6.26-2.71-4.21-.66Z" style="fill:#4468E2"></path><path d="M230.18,166.24s-2.57,2.13-1.56,2.37,2.42-.91,3.51-.29,2.68.4,3.76.33,2.15,2.3,4.2,2.09,1.67,3.79,3.37,3.08,2.63,2.42,3,.92-1.19-1.61-1.57-3L243,169.82l-6.26-2.71-4.21-.66Z" style="fill:#fff;opacity:0.5"></path><path d="M244.81,172.12c-3.64-3.79-10-4.83-14.93-5.05-1,0-1-1.54,0-1.5,5.36.24,12.06,1.4,16,5.49.67.7-.39,1.76-1.06,1.06Z" style="fill:#263238"></path><path d="M236.5,172.34a2.56,2.56,0,0,1,1.93.26A5,5,0,0,1,236.5,172.34Z" style="opacity:0.2"></path><path d="M236.46,172.8a2.09,2.09,0,0,1,1.64.68A4.24,4.24,0,0,1,236.46,172.8Z" style="opacity:0.2"></path><path d="M231.26,179a22.55,22.55,0,0,1,4.24-.9,2.55,2.55,0,0,1-2.42,2.11A1.49,1.49,0,0,1,231.26,179Z" style="fill:#263238"></path><path d="M233.72,179.3A3,3,0,0,0,232,180a1.76,1.76,0,0,0,1.05.14,3,3,0,0,0,1.69-.73A1.78,1.78,0,0,0,233.72,179.3Z" style="fill:#a02724"></path><path d="M231.4,178.9a.67.67,0,0,0,.56.4,17.79,17.79,0,0,0,2.76-.66.87.87,0,0,0,.64-.57A26.56,26.56,0,0,0,231.4,178.9Z" style="fill:#fff"></path></g><g id="freepik--character-1--inject-53"><path d="M303.13,248.9s-9.87-4.35-18.38,10.12S271,288.29,258.88,288.29s-22-8.06-29.72-18.5-15,17-15.37,29.56S233,313,242.55,314.83s28.93,5.19,48.16-18.34,16-21.16,21.78-22.33C312.49,274.16,317.77,260.39,303.13,248.9Z" style="fill:#4468E2"></path><path d="M303.13,248.9s-9.87-4.35-18.38,10.12S271,288.29,258.88,288.29s-22-8.06-29.72-18.5-15,17-15.37,29.56S233,313,242.55,314.83s28.93,5.19,48.16-18.34,16-21.16,21.78-22.33C312.49,274.16,317.77,260.39,303.13,248.9Z" style="fill:#fff;opacity:0.7000000000000001"></path><path d="M296.67,276.36c-3.69-6.69-4-16.49-4-16.49l5.67,2.21h8.76l5.68.66a20.46,20.46,0,0,1-.25,11.42c-5.77,1.17-2.55-1.19-21.78,22.33-6.15,7.52-12.31,12.29-18.16,15.25C285.21,303.71,299.24,281,296.67,276.36Z" style="opacity:0.1"></path><path d="M242.14,314.76c-4.16-.79-10.06-1.45-15.4-2.95l4-11.31,2.89-6.09,2.72,6.09a95.46,95.46,0,0,1-1.53,9.57C234.07,313,240.46,314.43,242.14,314.76Z" style="opacity:0.1"></path><path d="M210.07,370.42c-1.63,7.75-3.4,18.15-2.5,25.41s4.31,11.34,1.36,12.93c0,0,9.72,3.53,9.72,5.67,0,3.18-18.79,3.18-18.79-.9,0-3.18,3.17-3.86,2.72-5.22s-2.49-1.59-1.81-7.26,1.56-26.13-1.82-32c-1-1.83-1.87-1.79,0-8.44,2.75-9.75,5.8-44-2-55.59,0,0,15.88-15.66,32.22-4.54,0,0-9.52,14.25-16.11,45.16-.82,3.85-3.18,15.43-3.18,15.43A19.5,19.5,0,0,1,210.07,370.42Z" style="fill:#4468E2"></path><path d="M210.07,370.42c-1.63,7.75-3.4,18.15-2.5,25.41s4.31,11.34,1.36,12.93c0,0,9.72,3.53,9.72,5.67,0,3.18-18.79,3.18-18.79-.9,0-3.18,3.17-3.86,2.72-5.22s-2.49-1.59-1.81-7.26,1.56-26.13-1.82-32c-1-1.83-1.87-1.79,0-8.44,2.75-9.75,5.8-44-2-55.59,0,0,15.88-15.66,32.22-4.54,0,0-9.52,14.25-16.11,45.16-.82,3.85-3.18,15.43-3.18,15.43A19.5,19.5,0,0,1,210.07,370.42Z" style="fill:#fff;opacity:0.4"></path><path d="M114.35,306.16S108.9,326.58,98,333.61s-19.52,23.14-21.33,30.86-3.4,18.15-2.5,25.41,4.31,11.35,1.36,12.94c0,0,9.72,3.53,9.72,5.67,0,3.18-18.79,3.18-18.79-.91,0-3.18,3.17-3.86,2.72-5.22s-2.5-1.59-1.81-7.26-.23-25.41-1.82-32S64.43,355.17,69,350s14.36-12.22,15.89-36.76c.42-6.8.45-27.23.45-27.23S104.82,282.33,114.35,306.16Z" style="fill:#4468E2"></path><path d="M114.35,306.16S108.9,326.58,98,333.61s-19.52,23.14-21.33,30.86-3.4,18.15-2.5,25.41,4.31,11.35,1.36,12.94c0,0,9.72,3.53,9.72,5.67,0,3.18-18.79,3.18-18.79-.91,0-3.18,3.17-3.86,2.72-5.22s-2.5-1.59-1.81-7.26-.23-25.41-1.82-32S64.43,355.17,69,350s14.36-12.22,15.89-36.76c.42-6.8.45-27.23.45-27.23S104.82,282.33,114.35,306.16Z" style="fill:#fff;opacity:0.4"></path><path d="M236.76,283.54s-5.45-14.82-17.36-24-19.06-4.43-27.57-17.7-28.47-4.77-39.59,2.38-40.39,5.45-58.77,22.12S83.26,297,78.15,308.54s-8.05,9.64-11.68,13.73l4.08-1.14s-7.71,7.26-16.33,4.09c0,0,1.81,2.49,6.8,2.49,0,0-6.58,1.82-11.12,0a21.24,21.24,0,0,0,13.16,2.5s1.59,2.27,6.81,1.13c0,0-1.81,3-8.62,3.18a11.83,11.83,0,0,0,12.93-4.09A27.68,27.68,0,0,0,82.12,310C81.64,285,85.3,286,85.3,286s35.63,22,51.05,32.67,71,5.68,71,5.68S242.32,321.27,236.76,283.54Z" style="fill:#4468E2"></path><path d="M236.76,283.54s-5.45-14.82-17.36-24-19.06-4.43-27.57-17.7-28.47-4.77-39.59,2.38-40.39,5.45-58.77,22.12S83.26,297,78.15,308.54s-8.05,9.64-11.68,13.73l4.08-1.14s-7.71,7.26-16.33,4.09c0,0,1.81,2.49,6.8,2.49,0,0-6.58,1.82-11.12,0a21.24,21.24,0,0,0,13.16,2.5s1.59,2.27,6.81,1.13c0,0-1.81,3-8.62,3.18a11.83,11.83,0,0,0,12.93-4.09A27.68,27.68,0,0,0,82.12,310C81.64,285,85.3,286,85.3,286s35.63,22,51.05,32.67,71,5.68,71,5.68S242.32,321.27,236.76,283.54Z" style="fill:#fff;opacity:0.7000000000000001"></path><path d="M207.38,324.31s-55.6,5-71-5.68c-8.63-6-23.58-15.48-35.08-22.71,2.88-8,7.46-17.68,10.15-7.29,4.14,16,17.35,20.93,29.27,26.55s46.5,4.13,48.33-7.49c1.14-7.29,32.68-.56,28.28,6.84-3.23,5.45,8.47,2.21,8.74,2.14A38.94,38.94,0,0,1,207.38,324.31Z" style="opacity:0.1"></path><path d="M85.2,299.59c.09-7,.1-13.63.1-13.63a16.1,16.1,0,0,1,2-.18l5.09,7.27,13.45,11.74,5.32,10.48c-2.68,6.38-7.05,14.43-13.11,18.34a33.62,33.62,0,0,0-3.73,2.83h0s3.74-2.83-.89-13.61C90.16,315.35,86.9,305.13,85.2,299.59Z" style="opacity:0.1"></path><path d="M108.9,272.12s1.13,17.47,7.71,33.58,6.58,18.61,4.54,26.78,0,31.08,4.54,43.33,17.47,22.24,16.56,25.87c0,0,10,4.95,10,7.49s-13.62,4.54-17.25,2.72.91-5.9.23-7.49-2.5-.45-3.18-3.63-11.34-22.23-16.79-28.13-7-7.72-6.35-11.8-.91-22.92-8.17-36.08-16.11-32-15.43-38.8S108.9,272.12,108.9,272.12Z" style="fill:#4468E2"></path><path d="M108.9,272.12s1.13,17.47,7.71,33.58,6.58,18.61,4.54,26.78,0,31.08,4.54,43.33,17.47,22.24,16.56,25.87c0,0,10,4.95,10,7.49s-13.62,4.54-17.25,2.72.91-5.9.23-7.49-2.5-.45-3.18-3.63-11.34-22.23-16.79-28.13-7-7.72-6.35-11.8-.91-22.92-8.17-36.08-16.11-32-15.43-38.8S108.9,272.12,108.9,272.12Z" style="fill:#fff;opacity:0.7000000000000001"></path><path d="M223.26,311.15s-15.66,7-13.84,17.7,8.62,22,12.7,27.45,8.63,10.21-1.13,16.79-14.29,15.29-15.2,19-4.31,5.52-3.63,8.69,1.31,5.47,0,8.17c-1.61,3.32-9.08-1.36-12.48-7.48s1.59-7.41,5.67-9.38a11.66,11.66,0,0,1,6.35-6.74s12.94-14.52,11.8-22-18.15-28.82-22.91-32.68-4.31-7.94-2-18.61-3-16.11-3-16.11S227.57,263,223.26,311.15Z" style="fill:#4468E2"></path><path d="M223.26,311.15s-15.66,7-13.84,17.7,8.62,22,12.7,27.45,8.63,10.21-1.13,16.79-14.29,15.29-15.2,19-4.31,5.52-3.63,8.69,1.31,5.47,0,8.17c-1.61,3.32-9.08-1.36-12.48-7.48s1.59-7.41,5.67-9.38a11.66,11.66,0,0,1,6.35-6.74s12.94-14.52,11.8-22-18.15-28.82-22.91-32.68-4.31-7.94-2-18.61-3-16.11-3-16.11S227.57,263,223.26,311.15Z" style="fill:#fff;opacity:0.7000000000000001"></path><path d="M300.75,248.12c-4.93,1.88-12.85,9-4.51,20.6s15.82,7.82,24.5,2.89,8.77-3.58,12.17-3.23,9.45,1.1,9.36-1.62l-3.32-.85,3.07-.85a1.63,1.63,0,0,0,.93-2.22,5.76,5.76,0,0,1-2.3-3c-.68-2.05-1.1-4.77-5.19-5,0,0-.68-2.56-7.4-2.3s-12.93.76-16.25-1S304.19,246.81,300.75,248.12Z" style="fill:#4468E2"></path><path d="M300.75,248.12c-4.93,1.88-12.85,9-4.51,20.6s15.82,7.82,24.5,2.89,8.77-3.58,12.17-3.23,9.45,1.1,9.36-1.62l-3.32-.85,3.07-.85a1.63,1.63,0,0,0,.93-2.22,5.76,5.76,0,0,1-2.3-3c-.68-2.05-1.1-4.77-5.19-5,0,0-.68-2.56-7.4-2.3s-12.93.76-16.25-1S304.19,246.81,300.75,248.12Z" style="fill:#fff;opacity:0.7000000000000001"></path><path d="M300.15,256c1.7-1.17,3.32-6.38-4.25-7.07s-2.81,3.32-.85,5.37S299,256.8,300.15,256Z" style="fill:#4468E2"></path><path d="M300.15,256c1.7-1.17,3.32-6.38-4.25-7.07s-2.81,3.32-.85,5.37S299,256.8,300.15,256Z" style="fill:#fff;opacity:0.30000000000000004"></path><path d="M291.78,250.16a7.85,7.85,0,0,1,2.18,0c5.79.52,4.56,4.51,3.25,5.4a1.48,1.48,0,0,1-.42.2,8.41,8.41,0,0,1-1.74-1.39C293.93,253.17,291.9,251.36,291.78,250.16Z" style="opacity:0.2"></path><path d="M314.36,252.61a.44.44,0,0,0-.35-.68h0a5.2,5.2,0,0,0-4.39,1.93.47.47,0,0,0,.11.62.46.46,0,0,0,.62-.1,4.34,4.34,0,0,1,3.64-1.57A.42.42,0,0,0,314.36,252.61Z" style="fill:#263238"></path><path d="M312,256.81c.05.9.58,1.6,1.18,1.57s1-.79,1-1.71-.59-1.61-1.18-1.58S311.94,255.89,312,256.81Z" style="fill:#263238"></path><path d="M312.7,255.16l2.15-.76S313.83,256.17,312.7,255.16Z" style="fill:#263238"></path><path d="M337.15,265.89a4.52,4.52,0,0,0,.9,0,.18.18,0,0,0,.18-.17h0a.2.2,0,0,0-.2-.17,4.87,4.87,0,0,1-4-1.76.18.18,0,0,0-.25,0,.19.19,0,0,0-.05.25A5.08,5.08,0,0,0,337.15,265.89Z" style="fill:#263238"></path><path d="M105.7,276a33.6,33.6,0,0,1-6.91-14.09c18.29-12.38,43.45-11.55,53.58-18.06,11.11-7.15,31.08-15.66,39.59-2.38,3.48,5.42,6.72,7.83,10.16,9.41-3.41,2.78-11.34,10.86-14.51,27.91C183.53,300.82,121.36,295.23,105.7,276Z" style="fill:#263238"></path><path d="M101.87,260a45.45,45.45,0,0,0,7,13.43c9.58,11.75,42.24,19,62.4,13.86,5.08-1.3,11.35-3.95,12.33-9.23a63.15,63.15,0,0,1,14.09-29.92,20.63,20.63,0,0,0,4.43,2.75c-3.41,2.78-11.34,10.86-14.51,27.91-4.08,22-66.25,16.42-81.91-2.79a33.6,33.6,0,0,1-6.91-14.09C99.8,261.25,100.83,260.62,101.87,260Z" style="fill:#4468E2"></path><path d="M182.76,287.18a1.88,1.88,0,1,0,1.87-1.87A1.87,1.87,0,0,0,182.76,287.18Z" style="fill:#4468E2"></path><path d="M184.63,290.72l-.1,0a.79.79,0,0,1-1-.48.81.81,0,0,1,.48-1l2.7-1a.81.81,0,0,1,.55,1.52l-.09,0a3.67,3.67,0,0,1,1.28,2.8c.17,2.48,1.11,3.29,1.11,3.29s-.72.82-1.85-1.08a5.22,5.22,0,0,0,1.28,2.3,3.25,3.25,0,0,1-2.66-2.48,3.59,3.59,0,0,0,1.23,2.27,2.66,2.66,0,0,1-2.28-2.66C185.22,292.32,184.15,292.68,184.63,290.72Z" style="fill:#4468E2"></path><path d="M146.8,293.36a1.87,1.87,0,1,0,2.42-1.08A1.87,1.87,0,0,0,146.8,293.36Z" style="fill:#4468E2"></path><path d="M147.28,297.33h-.11a.81.81,0,0,1,0-1.62l2.87.06a.81.81,0,1,1,0,1.62h-.09a3.67,3.67,0,0,1,.19,3.07c-.73,2.37-.14,3.46-.14,3.46s-1,.52-1.35-1.66a5.31,5.31,0,0,0,.37,2.6,3.26,3.26,0,0,1-1.59-3.27,3.65,3.65,0,0,0,.33,2.56,2.65,2.65,0,0,1-1.16-3.3C147.25,299,146.12,299,147.28,297.33Z" style="fill:#4468E2"></path><path d="M198.83,254.51a1.87,1.87,0,1,0,1.77-2A1.88,1.88,0,0,0,198.83,254.51Z" style="fill:#4468E2"></path><path d="M200.89,257.94l-.1,0a.8.8,0,0,1-1.06-.43.82.82,0,0,1,.43-1.06l2.64-1.11a.8.8,0,0,1,1.06.43.82.82,0,0,1-.43,1.06l-.09,0a3.65,3.65,0,0,1,1.43,2.73c.3,2.46,1.29,3.21,1.29,3.21s-.67.87-1.91-1a5.24,5.24,0,0,0,1.41,2.22,3.26,3.26,0,0,1-2.79-2.33,3.6,3.6,0,0,0,1.35,2.2,2.66,2.66,0,0,1-2.42-2.53C201.56,259.51,200.51,259.92,200.89,257.94Z" style="fill:#4468E2"></path><path d="M111.58,282.78a1.88,1.88,0,1,0,2.6-.53A1.87,1.87,0,0,0,111.58,282.78Z" style="fill:#4468E2"></path><path d="M111.19,286.76l-.1,0a.8.8,0,0,1-.6-1,.81.81,0,0,1,1-.6l2.78.68a.81.81,0,1,1-.38,1.57l-.09,0a3.66,3.66,0,0,1-.48,3c-1.23,2.15-.88,3.35-.88,3.35s-1.06.29-1-1.92a5.22,5.22,0,0,0-.2,2.63,3.26,3.26,0,0,1-.85-3.54,3.63,3.63,0,0,0-.23,2.57,2.65,2.65,0,0,1-.42-3.47C110.79,288.42,109.7,288.12,111.19,286.76Z" style="fill:#4468E2"></path><path d="M286.56,256.26q.63-.87,1.26-1.62c7.31,7.87,32.14,6.79,37.18,6.48a37,37,0,0,1,.55-8.47l2.11-.08a37.21,37.21,0,0,0,.38,15.61,13.93,13.93,0,0,0-1.94.68,41.89,41.89,0,0,1-1-5.7c-1.44.09-4.38.25-8.07.25C307.39,263.41,292.61,262.34,286.56,256.26Z" style="fill:#263238"></path><path d="M107,239.73v-.44l-3.5-.5-5.81,2-2.63,3.81-.81,3.82-.28.76h3.25a8.76,8.76,0,1,0,9.78-9.45Z" style="fill:#263238"></path><path d="M106.18,258.87a9.71,9.71,0,0,1-9.51-7.78,7.82,7.82,0,0,1,7.24-9.56,7.66,7.66,0,0,1,7.86,7.53,5.49,5.49,0,0,1-3.58,5.36A5.65,5.65,0,0,1,101,251.2a1.51,1.51,0,0,1,1.42-2h0a1.55,1.55,0,0,1,1.41,1,2.59,2.59,0,0,0,2.48,1.59,2.78,2.78,0,0,0,2.45-3.36,4.66,4.66,0,0,0-4.69-3.88c-3.24.07-5.1,3-4.36,6.18a6.7,6.7,0,0,0,13.19-2.09,8.74,8.74,0,0,0-17.37-.76A1.51,1.51,0,0,1,94,249.18h0a1.5,1.5,0,0,1-1.5-1.67,11.76,11.76,0,0,1,10.53-10A11.94,11.94,0,0,1,115,244.92,9.76,9.76,0,0,1,106.18,258.87Z" style="fill:#4468E2"></path><rect x="111.66" y="253.56" width="35.32" height="24.6" rx="5.27" transform="translate(36.02 -14.67) rotate(7.54)" style="fill:#263238"></rect><rect x="111.66" y="253.56" width="35.32" height="24.6" rx="5.27" transform="translate(36.02 -14.67) rotate(7.54)" style="fill:#fff;opacity:0.5"></rect><rect x="112.96" y="268.3" width="13.22" height="4.03" transform="matrix(0.13, -0.99, 0.99, 0.13, -164.1, 353.37)" style="fill:#4468E2"></rect><rect x="131.29" y="270.72" width="13.22" height="4.03" transform="translate(-150.58 373.64) rotate(-82.46)" style="fill:#4468E2"></rect><path d="M144.73,255.5l-27.59-3.66a3.74,3.74,0,0,0-4.2,3.23l-.25,1.89a7.74,7.74,0,0,0,6.66,8.7l19.65,2.6a7.75,7.75,0,0,0,8.7-6.66l.25-1.9A3.74,3.74,0,0,0,144.73,255.5Z" style="fill:#4468E2"></path><path d="M121,273l-3.45-.46a1.41,1.41,0,0,1-1.22-1.58l.25-1.91a1.41,1.41,0,0,1,1.59-1.21l3.45.45a1.42,1.42,0,0,1,1.22,1.59l-.25,1.9A1.42,1.42,0,0,1,121,273Zm-3-4.17a.41.41,0,0,0-.46.35l-.25,1.91a.41.41,0,0,0,.35.46l3.45.45a.41.41,0,0,0,.46-.35l.25-1.9a.41.41,0,0,0-.35-.46Z" style="fill:#263238"></path><path d="M139.31,275.38l-3.45-.46a1.42,1.42,0,0,1-1.22-1.59l.25-1.9a1.43,1.43,0,0,1,1.59-1.22l3.45.46a1.41,1.41,0,0,1,1.22,1.59l-.25,1.9A1.43,1.43,0,0,1,139.31,275.38Zm-3-4.17a.41.41,0,0,0-.46.35l-.25,1.9a.4.4,0,0,0,.35.46l3.45.46a.41.41,0,0,0,.46-.35l.25-1.91a.4.4,0,0,0-.35-.45Z" style="fill:#263238"></path><path d="M144.73,255.5l-27.59-3.66a3.74,3.74,0,0,0-4.2,3.23l-.25,1.89a7.74,7.74,0,0,0,6.66,8.7l19.65,2.6a7.75,7.75,0,0,0,8.7-6.66l.25-1.9A3.74,3.74,0,0,0,144.73,255.5Z" style="fill:#fff;opacity:0.7000000000000001"></path><path d="M253.71,281.45a115.3,115.3,0,0,1-48.16-10.07c-21.52-9.8-40-26.74-54.92-50.37l.84-.54c14.82,23.46,33.15,40.28,54.48,50,17.06,7.76,36.08,11,56.53,9.71a164.62,164.62,0,0,0,62.42-17.45l.49.88a165.82,165.82,0,0,1-62.81,17.56C259.6,281.36,256.64,281.45,253.71,281.45Z" style="fill:#4468E2"></path><path d="M136.15,170.45s1,16,4.18,21.15-2.09,10-2.09,10l-9.93-8.12,1.2-16.1-.75-5Z" style="fill:#4468E2"></path><path d="M136.15,170.45s1,16,4.18,21.15-2.09,10-2.09,10l-9.93-8.12,1.2-16.1-.75-5Z" style="fill:#fff;opacity:0.4"></path><path d="M126.53,180.67c0,3.94-.3,9.66-3.45,11.7,0,0-.59,3.91,9.39,10.17,4.94-4.83,3.16-8.57,3.16-8.57-4.07-1.83-3.9-3-3-5.69Z" style="fill:#b97964"></path><path d="M128.31,186.24a5.15,5.15,0,0,1,1-2.16l3.37,4.2a8.59,8.59,0,0,0-.54,2.18C130.53,189.88,128.32,188.05,128.31,186.24Z" style="isolation:isolate;opacity:0.2"></path><polygon points="169.03 296.4 168.19 311.85 172.87 312.4 176.63 297.28 169.03 296.4" style="fill:#b97964"></polygon><polygon points="168.59 304.5 174.75 304.83 176.63 297.28 169.03 296.4 168.59 304.5" style="opacity:0.2"></polygon><path d="M122.37,230.58s-6.8,23,3.9,24.28,38.72,4.79,41.36,10.62-1,36.34-1,36.34l10.81.67s9-35.17,2.67-46.34-36.17-18-36.83-19.5-.71-6.05-.71-6.05Z" style="fill:#263238"></path><path d="M122.37,230.58s-6.8,23,3.9,24.28,38.72,4.79,41.36,10.62-1,36.34-1,36.34l10.81.67s9-35.17,2.67-46.34-36.17-18-36.83-19.5-.71-6.05-.71-6.05Z" style="fill:#fff;opacity:0.5"></path><path d="M119.49,218.26c1.05,8.83.45,27.39-4.38,35.39,0,0,9.55,1.84,11.28-1.66s4.12-19.21,4.12-19.21,4.39,14.87,14,14.21,11.2-6.89,11.2-6.89-11.08-1.48-12.1-8.13,1.64-38.38-14.09-41.51S118.63,210.92,119.49,218.26Z" style="fill:#4468E2"></path><path d="M119.49,218.26c1.05,8.83.45,27.39-4.38,35.39,0,0,9.55,1.84,11.28-1.66s4.12-19.21,4.12-19.21,4.39,14.87,14,14.21,11.2-6.89,11.2-6.89-11.08-1.48-12.1-8.13,1.64-38.38-14.09-41.51S118.63,210.92,119.49,218.26Z" style="opacity:0.5"></path><path d="M138,218.73l7.15.76,5.3-4.64s2.65,1.44,3,2.32.27,3.8-.69,4.32c-.41.22-1.7-.75-1.7-.75s-2.87,2.43-4.33,2.79c-2.05.51-9.46,0-9.46,0Z" style="fill:#b97964"></path><path d="M174.21,309.77l-6.53-.13a.51.51,0,0,0-.5.39l-1.25,5.14a.85.85,0,0,0,.83,1.05c2.28,0,3.39-.11,6.26-.05,1.76,0,8,.34,10.4.39s2.8-2.36,1.81-2.6c-4.46-1.06-8.68-2.5-10.09-3.81A1.41,1.41,0,0,0,174.21,309.77Z" style="fill:#263238"></path><path d="M177.55,310a.57.57,0,0,0,0-.13.46.46,0,0,0-.25-.42c-.63-.34-2.42.69-2.77.9a.17.17,0,0,0-.08.16.17.17,0,0,0,.12.14c.74.19,2.07.44,2.67,0A.8.8,0,0,0,177.55,310Zm-2.48.43c.79-.43,1.79-.85,2.09-.69a.14.14,0,0,1,.07.14.51.51,0,0,1-.19.47A2.68,2.68,0,0,1,175.07,310.39Z" style="fill:#4468E2"></path><path d="M176.41,308.49a.66.66,0,0,0,0-.14A.48.48,0,0,0,176,308a.8.8,0,0,0-.61.17c-.7.55-.87,2.23-.88,2.3a.19.19,0,0,0,.07.16.2.2,0,0,0,.17,0A3.91,3.91,0,0,0,176.41,308.49Zm-1.57,1.63a3.18,3.18,0,0,1,.7-1.73.44.44,0,0,1,.36-.1c.16,0,.17.09.18.12C176.14,308.76,175.42,309.67,174.84,310.12Z" style="fill:#4468E2"></path><path d="M123.87,175.26c.44,5.61.51,8,3.4,10.8,4.34,4.26,11.13,2.48,12.37-3.14,1.11-5.06.19-13.41-5.35-15.5a7.66,7.66,0,0,0-9.93,4.34A7.75,7.75,0,0,0,123.87,175.26Z" style="fill:#b97964"></path><path d="M132.83,176.56c0,.46.27.83.56.83s.54-.39.53-.84-.26-.83-.55-.82S132.85,176.13,132.83,176.56Z" style="fill:#263238"></path><path d="M138,176.48c0,.47.27.82.56.82s.54-.38.53-.84-.26-.82-.56-.81S138,176,138,176.48Z" style="fill:#263238"></path><path d="M136.42,177.34a12.36,12.36,0,0,0,1.69,2.89,2,2,0,0,1-1.63.33Z" style="fill:#a24e3f"></path><path d="M130.74,175.56a.26.26,0,0,0,.28-.14,3.17,3.17,0,0,1,2.13-1.39.27.27,0,0,0,.22-.31.26.26,0,0,0-.3-.22h0a3.62,3.62,0,0,0-2.52,1.69.26.26,0,0,0,.12.35h0A.12.12,0,0,0,130.74,175.56Z" style="fill:#263238"></path><path d="M139.5,174.07a.24.24,0,0,0,.25-.1.28.28,0,0,0,0-.38,2.65,2.65,0,0,0-2.42-.52.25.25,0,0,0-.17.32v0a.27.27,0,0,0,.34.16h0a2.15,2.15,0,0,1,1.89.44A.2.2,0,0,0,139.5,174.07Z" style="fill:#263238"></path><path d="M120.2,202.54c.37-3,1.75-11.23,6.06-10.89s4.56,5.17,3.25,12.44-1.62,12.84,12.9,14.43l-.84,5.84S116.94,228.36,120.2,202.54Z" style="fill:#263238"></path><path d="M120.2,202.54c.37-3,1.75-11.23,6.06-10.89s4.56,5.17,3.25,12.44-1.62,12.84,12.9,14.43l-.84,5.84S116.94,228.36,120.2,202.54Z" style="fill:#fff;opacity:0.5"></path><path d="M127.8,171.11s-1,4.54.29,8,4.71.42,7.31,2.25a3,3,0,0,1,3,.84c1.33,1.37,1.64-2.36,1.64-2.36s.07,1,.07,1.71c0,1.79-1.13,7.23-2.3,5.19,0,0-1.83,3.54-2.71,1.64,0,0-1.28,2.32-2.85.32,0,0-1.15,1.29-3-.88a3.45,3.45,0,0,1-2.29-1.66c-.83-1.45-1.67-7.8-1.67-7.8l-.46-5.75Z" style="fill:#263238"></path><path d="M127.8,171.11s-1,4.54.29,8,4.71.42,7.31,2.25a3,3,0,0,1,3,.84c1.33,1.37,1.64-2.36,1.64-2.36s.07,1,.07,1.71c0,1.79-1.13,7.23-2.3,5.19,0,0-1.83,3.54-2.71,1.64,0,0-1.28,2.32-2.85.32,0,0-1.15,1.29-3-.88a3.45,3.45,0,0,1-2.29-1.66c-.83-1.45-1.67-7.8-1.67-7.8l-.46-5.75Z" style="fill:#fff;opacity:0.5"></path><path d="M135.36,183.12a3.71,3.71,0,0,0,.67,0,.13.13,0,0,0,.12-.14h0a.13.13,0,0,0-.15-.11,3.63,3.63,0,0,1-3.12-1,.13.13,0,0,0-.19,0,.13.13,0,0,0,0,.18A3.7,3.7,0,0,0,135.36,183.12Z" style="fill:#263238"></path><path d="M123.3,179.47a4,4,0,0,0,2.09,2.26c1.29.58,2.15-.52,2-1.86s-1-3-2.42-3a1.81,1.81,0,0,0-1.81,1.82A1.84,1.84,0,0,0,123.3,179.47Z" style="fill:#b97964"></path><path d="M123.13,175.4s-1.74-8.08,6.38-9.79c0,0,6.91-2.46,9.57,4.63C139.08,170.24,133.38,168.9,123.13,175.4Z" style="fill:#4468E2"></path><path d="M123.13,175.4s-1.74-8.08,6.38-9.79c0,0,6.91-2.46,9.57,4.63C139.08,170.24,133.38,168.9,123.13,175.4Z" style="fill:#fff;opacity:0.5"></path><path d="M123.47,175.65a31.79,31.79,0,0,0-2.75,10.5c-.25,5.25-4.67,15.84-4.67,15.84s5.75-1.67,8.75,1.16,2.1-10,3.51-16.91a26.59,26.59,0,0,0-.92-13.16Z" style="fill:#4468E2"></path><path d="M123.47,175.65a31.79,31.79,0,0,0-2.75,10.5c-.25,5.25-4.67,15.84-4.67,15.84s5.75-1.67,8.75,1.16,2.1-10,3.51-16.91a26.59,26.59,0,0,0-.92-13.16Z" style="fill:#fff;opacity:0.6000000000000001"></path><path d="M138.54,170.24s2.57,2.13,1.56,2.37-2.42-.91-3.51-.29-2.68.4-3.76.33-2.15,2.3-4.19,2.09-1.68,3.79-3.38,3.08-2.62,2.42-3,.92,1.19-1.61,1.57-3l1.85-1.91,6.26-2.71,4.21-.66Z" style="fill:#4468E2"></path><path d="M138.54,170.24s2.57,2.13,1.56,2.37-2.42-.91-3.51-.29-2.68.4-3.76.33-2.15,2.3-4.19,2.09-1.68,3.79-3.38,3.08-2.62,2.42-3,.92,1.19-1.61,1.57-3l1.85-1.91,6.26-2.71,4.21-.66Z" style="fill:#fff;opacity:0.5"></path><path d="M123.91,176.12c3.64-3.79,10-4.83,14.93-5.05,1,0,1-1.54,0-1.5-5.36.24-12,1.4-16,5.49-.67.7.39,1.76,1.06,1.06Z" style="fill:#263238"></path></g></svg>
