<svg version="1.2" xmlns="http://www.w3.org/2000/svg" viewBox="0 0 506 597" width="506" height="597">
	<title>undraw_confirmed_re_sef7-svg</title>
	<style>
		.s0 { fill: #9f616a } 
		.s1 { fill: #3f3d56 } 
		.s2 { fill: #ffffff } 
		.s3 { fill: #2f2fb3 } 
		.s4 { fill: #e5e5e5 } 
		.s5 { opacity: .2;fill: #000000 } 
	</style>
	<path id="Layer" class="s0" d="m359.5 500.9l5 96c0 0-211.5-201.2-237.9-260.1-26.3-58.9 23.3-204.6 23.3-204.6l110 60.4z"/>
	<path id="Layer" class="s0" d="m35.2 91.9l-32.6 3.1c0 0-17 37.2 35.7 40.3z"/>
	<path id="Layer" class="s0" d="m35.2 149.2l-32.6 3.1c0 0-17 37.2 35.7 40.3z"/>
	<path id="Layer" class="s0" d="m35.2 211.2l-32.6 3.1c0 0-17 37.2 35.7 40.3z"/>
	<path id="Layer" class="s0" d="m44.5 273.2l-32.6 3.1c0 0-17 37.2 35.7 40.3z"/>
	<path id="Layer" class="s1" d="m19.3 106.8h2.5v-67.6c0-5.2 1-10.3 3-15 2-4.8 4.8-9.1 8.5-12.7 3.6-3.7 7.9-6.6 12.7-8.5 4.7-2 9.8-3 15-3h143.3c5.1 0 10.2 1 15 3 4.7 1.9 9.1 4.8 12.7 8.5 3.6 3.6 6.5 7.9 8.5 12.7 1.9 4.7 3 9.8 3 15v371.1c0 5.2-1.1 10.3-3 15-2 4.8-4.9 9.1-8.5 12.7-3.6 3.6-8 6.5-12.7 8.5-4.8 2-9.9 3-15 3h-143.3c-5.2 0-10.3-1-15-3-4.8-2-9.1-4.9-12.7-8.5-3.7-3.6-6.5-7.9-8.5-12.7-2-4.7-3-9.8-3-15v-255.3h-2.5z"/>
	<path id="Layer" class="s2" d="m59.4 10.2h18.7c-0.9 2.1-1.2 4.4-1 6.7 0.3 2.2 1.1 4.4 2.3 6.3 1.3 1.9 3 3.4 5 4.5 2 1.1 4.3 1.6 6.6 1.6h82.1c2.2 0 4.5-0.5 6.5-1.6 2-1.1 3.7-2.6 5-4.5 1.3-1.9 2.1-4.1 2.3-6.3 0.2-2.3-0.1-4.6-1-6.7h17.5c3.8 0 7.7 0.7 11.2 2.2 3.5 1.5 6.8 3.6 9.5 6.4 2.7 2.7 4.9 5.9 6.3 9.4 1.5 3.6 2.3 7.4 2.3 11.2v370.6c0 3.9-0.8 7.7-2.3 11.2-1.4 3.6-3.6 6.8-6.3 9.5-2.7 2.7-6 4.9-9.5 6.4-3.5 1.4-7.4 2.2-11.2 2.2h-144c-3.9 0-7.7-0.8-11.2-2.2-3.6-1.5-6.8-3.7-9.5-6.4-2.7-2.7-4.9-5.9-6.3-9.5-1.5-3.5-2.3-7.3-2.3-11.2v-370.6c0-3.8 0.8-7.6 2.3-11.2 1.4-3.5 3.6-6.7 6.3-9.4 2.7-2.8 5.9-4.9 9.5-6.4 3.5-1.5 7.3-2.2 11.2-2.2z"/>
	<path id="Layer" class="s3" d="m100.5 114h61.8v14.9h-61.8z"/>
	<path id="Layer" class="s4" d="m97.6 178h67.6v14.9h-67.6z"/>
	<path id="Layer" class="s4" d="m56 210h150.8v14.9h-150.8z"/>
	<path id="Layer" class="s4" d="m56 242h150.8v14.9h-150.8z"/>
	<path id="Layer" class="s0" d="m501.5 596.9l-173.5-197.9-6.2-127.1-65.1-108.5-18.6-46.5c0 0-43.4 4.7-7.8 93l14.8 47.3q-5 10.7-8.8 21.9-3.7 11.1-6.3 22.6-2.5 11.5-3.8 23.3-1.3 11.7-1.3 23.5v108.3c0 25.5 121.6 164.4 135.7 185.6z"/>
	<path id="Layer" class="s5" d="m247.2 126.6l12.9-6.3-0.4-0.9-12 5.9-18-47.4-0.9 0.4 18.4 48.3z"/>
	<path id="Layer" class="s5" d="m2.5 95.4l0.3-0.9 19.2 7.1-0.4 0.9z"/>
	<path id="Layer" class="s5" d="m2.5 153.4l0.3-0.9 19.2 7.1-0.4 0.9z"/>
	<path id="Layer" class="s5" d="m2.5 215.4l0.3-0.9 19.2 7.1-0.4 0.9z"/>
	<path id="Layer" class="s5" d="m12.4 277.4l0.4-0.9 9.4 4.5-0.5 0.9z"/>
	<path id="Layer" class="s3" d="m131.5 385.4c-23.9 0-43.3-19.3-43.3-43.2 0-23.9 19.4-43.3 43.3-43.3 23.9 0 43.2 19.4 43.2 43.3 0 23.9-19.3 43.2-43.2 43.2z"/>
	<path id="Layer" class="s2" d="m127.4 360.4l-13-16.6 7.5-5.9 6.2 7.9 20.7-21.8 6.9 6.5-28.3 29.9z"/>
</svg>