<svg version="1.2" xmlns="http://www.w3.org/2000/svg" viewBox="0 0 1368 1252" width="1368" height="1252"><style>.s0{fill:#ebebeb}.s1{fill:#e0e0e0}.s2{fill:#f5f5f5}.s3{fill:#fafafa}.s4{fill:#ffffff}.s5{fill:none;stroke:#fbfbfb;stroke-width:.8}.s6{fill:#263238}.s7{fill:#1a78f1}.s8{fill:#455a64}.s9{fill:#000000}.s10{fill:#e8505b}.s11{fill:#b78876}.s12{fill:#aa6550}.s13{fill:none;stroke:#4e585d;stroke-width:.4}</style><path class="s0" d="m247 850.8h127.8c16.5 0 29.8 13.3 29.8 29.8v42.8c0 9.7-7.9 17.7-17.7 17.7h-138.9z" /><path class="s0" d="m384.6 968h-273.1c-7.4 0-13.5-6-13.5-13.5c0-7.4 6.1-13.4 13.5-13.4h273.1c7.4 0 13.5 6 13.5 13.4c0 7.5-6.1 13.5-13.5 13.5z" /><path class="s1" d="m55.8 582.5l150.3-2.7l95.4 360.5l-203.5 2l-76.6-316c-5.4-22.3 11.5-43.8 34.4-43.8z" /><path class="s0" d="m157.1 968l-59.1 261.2h-12.3l45-261.2z" /><path class="s1" d="m263.1 968l-61.9 261.2h-12.3l47.8-261.2z" /><path class="s0" d="m353.9 968l53.3 261.2h-12.3l-67.5-261.2z" /><path class="s0" d="m210.2 579.8c24.7 0 45.9 17.7 50.4 42l59.7 318.9h-57.1l-74.3-360.9z" /><path class="s0" d="m419.6 701.1h205.6v10h-205.6z" /><path class="s0" d="m500.1 711.1l35-144.6h160.5l-38.5 144.6z" /><path class="s1" d="m542.4 573.2h144.2l-33.4 126.9h-143.4z" /><path class="s2" d="m389.2 1236.5h-10.4v-495.8h10.4z" /><path class="s0" d="m399.6 1236.5h-10.4v-494.4h10.4z" /><path class="s0" d="m1029 1236.5h-10.4v-495.8h10.4z" /><path class="s1" d="m1039.4 1236.5h-10.4v-494.4h10.4z" /><path class="s1" d="m1122.8 752.5h-788.8v-40.6h788.8z" /><path class="s0" d="m1023.8 819.8h-347.2v-67.3h347.2z" /><path class="s1" d="m865.7 781.5c0 4.3-3.5 7.8-7.8 7.8c-4.2 0-7.7-3.5-7.7-7.8c0-4.2 3.5-7.7 7.7-7.7c4.3 0 7.8 3.5 7.8 7.7z" /><path class="s1" d="m464.2 266.4h-432.3v-19.3h432.3z" /><path class="s1" d="m120.2 322.1h-17.5v-65.7h17.5z" /><path class="s1" d="m382.2 322.1h-17.5v-65.7h17.5z" /><path class="s0" d="m300.4 81.1c0.7-0.7 5.5 2.8 11.8 10c3.1 3.6 6.6 8.2 10 13.5c3.4 5.4 6.7 11.6 9.6 18.3c2.9 6.8 5.1 13.5 6.6 19.6c1.5 6.2 2.5 11.9 2.9 16.7c0.9 9.6 0.1 15.5-0.9 15.5c-2.3 0.2-4.3-23-15.5-48.7c-10.9-25.9-26.2-43.3-24.5-44.9z" /><path class="s0" d="m347.9 194c-1 0.2-3.7-12.6-6.2-33.4c-2.6-20.8-4.7-49.7-5.5-81.6c-0.9-31.9-0.5-60.8 0.1-81.7c0.6-20.9 1.6-33.9 2.7-33.9c1 0 1.9 13 2.7 33.9c0.7 20.8 1.2 49.7 2.1 81.5c0.8 31.8 2 60.5 3.2 81.4c1.2 20.8 2 33.7 0.9 33.8z" /><path class="s0" d="m393.9 12.5c1 0.6-3 9.5-8.2 24.3c-5.3 14.8-11.8 35.5-18.2 58.6c-6.3 23.2-11.3 44.4-14.3 59.8c-3 15.4-4.2 25.1-5.3 25.1c-1 0-1.7-10 0-25.9c1.7-15.9 5.9-37.6 12.2-61c6.5-23.4 14-44.2 20.6-58.7c6.6-14.5 12.4-22.7 13.2-22.2z" /><path class="s1" d="m395.8 167.5v25.4c0 29.9-24 54.2-53.5 54.2c-29.6 0-53.6-24.3-53.6-54.2v-25.4z" /><path class="s3" d="m396.8 189c0 0.4-24.2 0.7-54.1 0.7c-29.8 0-54-0.3-54-0.7c0-0.5 24.2-0.8 54-0.8c29.9 0 54.1 0.3 54.1 0.8z" /><path class="s3" d="m396.8 196c0 0.5-24.2 0.8-54.1 0.8c-29.8 0-54-0.3-54-0.8c0-0.4 24.2-0.7 54-0.7c29.9 0 54.1 0.3 54.1 0.7z" /><path class="s1" d="m86.5 185.3l-0.1-24l118-0.6l0.1 24z" /><path class="s2" d="m87.2 247.8l-0.2-37.4l131.5-0.7l0.2 37.4z" /><path class="s1" d="m193.4 246.8c-0.4 0-0.7-8.3-0.7-18.7c0-10.3 0.3-18.6 0.7-18.6c0.3 0 0.6 8.3 0.6 18.6c0 10.4-0.3 18.7-0.6 18.7z" /><path class="s1" d="m198.9 246.8c-0.4 0-0.6-8.3-0.6-18.7c0-10.3 0.2-18.6 0.6-18.6c0.4 0 0.6 8.3 0.6 18.6c0 10.4-0.2 18.7-0.6 18.7z" /><path class="s1" d="m107 246.8c-0.4 0-0.7-8.3-0.7-18.7c0-10.3 0.3-18.6 0.7-18.6c0.3 0 0.6 8.3 0.6 18.6c0 10.4-0.3 18.7-0.6 18.7z" /><path class="s1" d="m112.5 246.8c-0.4 0-0.6-8.3-0.6-18.7c0-10.3 0.2-18.6 0.6-18.6c0.4 0 0.6 8.3 0.6 18.6c0 10.4-0.2 18.7-0.6 18.7z" /><path class="s1" d="m124.6 228.7c0-0.3 13.2-0.6 29.6-0.6c16.4 0 29.6 0.3 29.6 0.6c0 0.4-13.2 0.7-29.6 0.7c-16.4 0-29.6-0.3-29.6-0.7z" /><path class="s0" d="m105.8 209l-0.1-24l162.3-0.9l0.1 24.1z" /><path class="s1" d="m244.9 205.2c-4.3 0-7.7-3.5-7.7-7.8c0-4.3 3.4-7.8 7.7-7.8c4.2 0 7.6 3.5 7.6 7.8c0 4.3-3.4 7.8-7.6 7.8z" /><path class="s1" d="m115.1 199.8v-4.8h108.7v4.8z" /><path class="s1" d="m1317.7 326h-215v-311.6h215z" /><path class="s2" d="m1307 326h-215v-311.6h215z" /><path class="s4" d="m1280.3 292.2h-161.6v-244.1h161.6z" /><path class="s1" d="m1280.3 292.2q-0.1-0.4-0.1-1.2q0-1.2 0-3.4c0-3.1 0-7.6-0.1-13.4c0-11.7-0.1-28.8-0.1-50.3c-0.1-43-0.2-104-0.3-175.8l0.6 0.6c-49.4 0-104.1 0-161.6 0l0.6-0.6c-0.1 92.1-0.1 177-0.1 244.1l-0.5-0.4c49.2 0.1 89.5 0.2 117.6 0.2c14 0.1 25 0.1 32.5 0.1q5.6 0.1 8.5 0.1q1.9 0 3 0q-1 0.1-2.9 0.1q-2.9 0-8.4 0c-7.5 0.1-18.4 0.1-32.4 0.2c-28.2 0-68.6 0.1-117.9 0.2h-0.5v-0.5c0-67.1-0.1-152-0.1-244.1v-0.6h0.6c57.5 0.1 112.2 0.1 161.6 0.1h0.5v0.5c-0.1 71.9-0.2 133-0.3 176.2c0 21.4-0.1 38.5-0.1 50.1c0 5.8-0.1 10.3-0.1 13.3q0 2.2 0 3.4q0 0.8 0 1.1z" /><path class="s5" d="" /><path class="s1" d="m1307.6 14.4c0.1 0.1-1.4 2.2-3.9 5.5c-2.5 3.4-6 7.9-10.1 12.8c-4 4.9-7.8 9.3-10.6 12.4c-2.8 3.1-4.6 4.9-4.7 4.8c-0.1-0.1 1.5-2.1 4.1-5.4c2.9-3.4 6.4-7.8 10.3-12.5c4-4.8 7.5-9.1 10.4-12.6c2.6-3.2 4.3-5.1 4.5-5z" /><path class="s4" d="m1281.1 291.5c8 12.7 17.5 24.6 28.2 35.2" /><path class="s1" d="m1309.3 326.7c-0.1 0.1-2.1-1.6-5-4.5c-2.8-2.9-6.7-7.1-10.6-12c-3.9-4.9-7.1-9.5-9.3-13c-2.2-3.4-3.5-5.7-3.3-5.7c0.1-0.1 1.6 1.9 3.9 5.3c2.4 3.3 5.7 7.8 9.6 12.7c3.9 4.9 7.6 9.1 10.3 12.2c2.8 3 4.5 4.9 4.4 5z" /><path class="s4" d="m1091.9 325.7q14.1-17.3 28.2-34.7" /><path class="s1" d="m1120.1 291c0.3 0.2-5.8 8.1-13.6 17.7c-7.8 9.6-14.3 17.2-14.6 17c-0.2-0.2 5.9-8.1 13.7-17.7c7.7-9.6 14.3-17.2 14.5-17z" /><path class="s1" d="m1092 14.4c0.2-0.2 6.4 7.1 13.6 16.3c7.3 9.2 13.1 16.9 12.8 17.1c-0.3 0.2-6.4-7.1-13.7-16.4c-7.3-9.2-13-16.8-12.7-17z" /><path class="s1" d="m1229.9 251.3h-54.1v-153.6h54.1z" /><path class="s6" d="m1359.6 1231.8c0 0.4-299.6 0.7-669.1 0.7c-369.6 0-669.1-0.3-669.1-0.7c0-0.5 299.5-0.8 669.1-0.8c369.5 0 669.1 0.3 669.1 0.8z" /><path class="s7" d="m1236.8 817.2c17.6-10.1 41.4-16.7 56.9-3.6c9.9 8.4 13.1 22.8 10.9 35.7c-2.1 12.9-8.6 24.5-15.4 35.7c-15.7 26.2-33.5 52-58.1 70.1c-24.7 18-62.4 27-91.2 16.9c4.1-63.3 41.8-123.4 96.9-154.8z" /><path class="s7" d="m1245.3 1000.1c27.8-7.2 58-6.7 84.3 4.5c7.3 3.1 14.4 7.1 19.4 13.2c5 6.1 7.6 14.6 5.1 22.1c-3.4 9.8-14 14.9-23.7 18.7c-26.8 10.2-55.1 18.2-83.8 16.8c-28.6-1.3-58.4-11.5-75.7-34.3c22.5-17.8 46.7-33.8 74.4-41z" /><path class="s7" d="m1135.8 718.1c3.7-12.1 8.8-24.2 18.1-32.7c9.3-8.5 23.7-12.4 34.8-6.5c11 5.9 15.6 19.1 17.8 31.3c5.8 32.5 0.7 67-14.3 96.5c-10.8 21.3-28.9 42.2-52.7 41.7c-13.8-41.2-16.5-88.9-3.7-130.3z" /><path class="s7" d="m1024.8 902.2c-3-50.5-6-102.3 8-151c3.9-13.9 13-29.9 27.4-29c13 0.8 20.4 15.1 24.3 27.5c24 76.7 17.2 161.5-23.5 230.8c-23.5-20.5-34.3-47.1-36.2-78.3z" /><path class="s7" d="m961.4 1009.7c-15.2-6.6-27.8-18.2-39.8-29.6c-13.3-12.7-26.6-25.8-34.8-42.2c-5.1-10.1-7.5-23.7 0.4-31.8c8.1-8.3 21.8-5.9 32.6-1.9c46.6 17.5 84.1 57.4 98.9 104.8c-14 9.1-42 7.4-57.3 0.7z" /><path class="s6" d="m1271.1 831q0.1 0-0.7 0.6q-0.8 0.7-2.2 1.7q-3.1 2.3-8.5 6.4q-2.8 2.1-6.2 4.5c-2.2 1.8-4.5 3.8-7.1 5.8c-5 4.2-11 8.8-17 14.5q-4.6 4.2-9.6 8.7c-3.3 3.1-6.5 6.5-10 9.9c-7 6.8-13.8 14.6-21.1 22.7c-14.1 16.7-28.6 35.9-42 57.3c-13.1 21.5-23.8 43.1-32.4 63.2c-4 10.1-8 19.7-10.9 29c-1.5 4.6-3.2 9-4.4 13.4q-1.8 6.5-3.5 12.4c-2.4 8-3.8 15.3-5.3 21.7c-0.7 3.2-1.5 6.2-2 8.9q-0.8 4.2-1.4 7.6q-1.2 6.7-1.8 10.5q-0.4 1.7-0.6 2.7q-0.2 0.9-0.2 0.9q-0.1 0 0-0.9q0.2-1.1 0.4-2.7q0.5-3.9 1.5-10.6q0.5-3.5 1.2-7.6c0.5-2.8 1.2-5.8 1.8-9c1.4-6.4 2.7-13.8 5.1-21.8q1.6-6 3.4-12.6c1.2-4.3 2.8-8.8 4.3-13.4c2.8-9.3 6.8-19 10.8-29.2c8.5-20.2 19.2-41.9 32.4-63.5c13.4-21.5 28-40.8 42.3-57.4c7.4-8.1 14.2-16 21.3-22.7c3.5-3.4 6.7-6.8 10.1-9.9q5.1-4.5 9.7-8.6c6.1-5.7 12.1-10.2 17.2-14.3c2.6-2 5-4 7.3-5.7q3.4-2.4 6.3-4.4q5.5-3.9 8.7-6.1q1.4-1 2.3-1.6q0.8-0.5 0.8-0.4z" /><path class="s6" d="m1325.1 1023.1c0 0.1-1-0.1-2.8-0.5c-1.8-0.3-4.5-1-8-1.6c-6.8-1.3-16.9-2.9-29.4-3.6c-25-1.6-60.4 1.4-95.8 16.1c-35.4 14.8-62.5 37.8-78.9 56.6c-8.3 9.4-14.4 17.6-18.3 23.5c-2 2.8-3.3 5.2-4.4 6.7c-1 1.6-1.6 2.4-1.6 2.3c-0.1 0 0.4-0.9 1.3-2.5c0.9-1.6 2.2-4 4.1-7c3.7-5.9 9.6-14.3 17.8-23.9c16.3-19.1 43.5-42.6 79.3-57.5c35.7-14.8 71.5-17.6 96.5-15.6c12.6 0.9 22.7 2.6 29.6 4.2c3.4 0.7 6.1 1.5 7.9 1.9c1.8 0.5 2.7 0.8 2.7 0.9z" /><path class="s6" d="m1174.7 706.6q0 0-0.2 1.1q-0.2 1.2-0.6 3.1q-1 4.3-2.7 11.9c-2.4 10.4-5.9 25.3-10.4 43.8c-9 36.9-22 87.7-35.6 144c-6.8 28.1-12.9 55-18.2 79.6c-5.1 24.5-9.5 46.7-12.8 65.4c-1.8 9.3-3.1 17.8-4.3 25.2c-1.3 7.5-2.3 13.9-3.1 19.1q-1.2 7.7-1.9 12.1q-0.3 1.9-0.5 3.1q-0.2 1.1-0.2 1.1q-0.1 0 0-1.1q0.2-1.2 0.4-3.1q0.5-4.4 1.5-12.2c0.6-5.2 1.5-11.7 2.7-19.1c1.2-7.5 2.4-16 4.1-25.3c3.1-18.8 7.3-41 12.4-65.6c5.2-24.6 11.3-51.5 18-79.7c13.6-56.3 26.8-107.1 36.1-143.9c4.7-18.3 8.4-33.1 11.1-43.6q1.9-7.5 3-11.8q0.5-1.9 0.8-3.1q0.3-1 0.4-1z" /><path class="s6" d="m1081.2 1110.5q-0.1 0-0.3-0.8q-0.2-1-0.6-2.5q-0.7-3.6-2-9.7c-1.7-8.3-4-20.5-6.6-35.6c-5.2-30.2-11.4-72-15.2-118.6c-1.9-23.3-2.9-45.5-3.3-65.8c-0.4-20.2-0.2-38.5 0.4-53.8c0.2-7.6 0.7-14.5 1.1-20.6c0.3-6.1 0.7-11.3 1.1-15.5q0.6-6.3 0.9-9.9q0.2-1.5 0.3-2.5q0.1-0.9 0.1-0.9q0.1 0 0.1 0.9q-0.1 1-0.1 2.6q-0.2 3.6-0.6 9.8c-0.2 4.3-0.6 9.5-0.8 15.6c-0.2 6-0.6 12.9-0.7 20.6c-0.5 15.3-0.5 33.5-0.1 53.7c0.6 20.2 1.6 42.4 3.5 65.6c3.8 46.5 9.8 88.4 14.6 118.6c2.5 15.1 4.6 27.3 6.1 35.7q1 6.1 1.6 9.7q0.2 1.5 0.4 2.6q0.1 0.8 0.1 0.8z" /><path class="s6" d="m1084.2 1119.3c-0.1 0-0.5-0.8-1.1-2.4q-1-2.6-2.7-6.9q-0.9-2.3-1.9-5.1q-1.2-2.7-2.6-5.8q-1.4-3.2-3-6.8c-1-2.4-2.4-4.8-3.7-7.3q-2-3.9-4.2-8.1q-2.3-4.1-4.9-8.5c-3.3-6-7.5-12-11.6-18.4c-8.7-12.6-19-26-30.7-39.2c-11.8-13.2-23.8-25-35.2-35.3c-5.8-4.9-11.2-9.8-16.6-14q-4-3.2-7.7-6.1q-3.8-2.8-7.3-5.4c-4.6-3.5-9-6.5-12.8-9c-3.8-2.6-7.1-4.8-9.9-6.5q-3.9-2.5-6.3-4c-1.4-0.9-2.2-1.4-2.1-1.5c0-0.1 0.8 0.4 2.3 1.2q2.5 1.4 6.5 3.7c2.9 1.5 6.2 3.6 10.1 6.2c3.9 2.5 8.3 5.3 13 8.8q3.5 2.5 7.4 5.3q3.8 2.9 7.8 6.1c5.5 4.1 10.9 9 16.8 13.9c11.5 10.3 23.6 22.1 35.5 35.3c11.7 13.3 22 26.8 30.7 39.5c4 6.5 8.2 12.5 11.5 18.6q2.5 4.4 4.8 8.6q2.2 4.2 4.1 8.1c1.3 2.7 2.6 5.1 3.6 7.5q1.5 3.6 2.9 6.8q1.3 3.2 2.5 6q0.9 2.8 1.7 5.1q1.5 4.4 2.4 7.1c0.5 1.6 0.7 2.5 0.7 2.5z" /><path class="s6" d="m1256 911.3c0 0.4-4.9 0.4-12.8 0.8c-8 0.4-18.9 1.5-30.8 3.7c-11.9 2.3-22.4 5.3-29.9 7.8c-7.6 2.5-12.2 4.3-12.3 4c0-0.1 1.1-0.7 3.1-1.6c2-1 5-2.2 8.7-3.7c7.5-2.8 18.1-6.1 30.1-8.4c12-2.2 23-3.1 31-3.2c4 0 7.3 0.1 9.5 0.2c2.2 0.2 3.4 0.3 3.4 0.4z" /><path class="s6" d="m1286.8 1061.4c-0.6 0.3-5.2-13-16.8-25.3c-11.4-12.4-24.3-18-24-18.6c0.1-0.2 3.4 0.9 8.3 3.7c4.9 2.7 11.2 7.3 17.1 13.6c5.8 6.3 10 13 12.3 18.1c2.4 5.1 3.3 8.4 3.1 8.5z" /><path class="s6" d="m1182 762.9c0.4 0.4-7.1 7.8-15.3 17.9c-8.2 10-14 18.9-14.5 18.6c-0.4-0.3 4.7-9.7 13-19.8c8.3-10.2 16.5-17.1 16.8-16.7z" /><path class="s6" d="m1157.4 720.4c0.5-0.1 2.2 7.1 3.7 16.1c1.5 8.9 2.3 16.3 1.8 16.3c-0.5 0.1-2.2-7.1-3.7-16c-1.5-9-2.3-16.3-1.8-16.4z" /><path class="s6" d="m1081.2 853.7c0.5 0.3-4.9 11.5-11.9 25.1c-7.1 13.6-13.2 24.5-13.6 24.2c-0.5-0.2 4.8-11.5 11.9-25.1c7-13.6 13.1-24.4 13.6-24.2z" /><path class="s6" d="m1035.9 808.5c0.4-0.3 5 7.8 10.1 18.1c5.1 10.3 8.8 18.8 8.3 19c-0.4 0.2-4.9-7.9-10.1-18.1c-5.1-10.3-8.8-18.8-8.3-19z" /><path class="s6" d="m969.2 963.3c-0.1 0.5-8.2-1-18.3-1.7c-10.1-0.8-18.3-0.4-18.3-0.9c-0.1-0.5 8.2-1.8 18.5-1.1c10.2 0.8 18.2 3.2 18.1 3.7z" /><path class="s6" d="m1157 1100.1l-19.7 118.9c-1.4 8.1-8.3 14-16.5 14h-67c-8 0-14.9-5.7-16.4-13.6l-22.7-119.3z" /><path class="s8" d="m1014.7 1100.1h142.3l-6.8 38.8h-128.1z" /><path class="s3" d="m1150.2 1138.9l-2 14.1h-123.4l-2.7-14.1z" /><path class="s7" d="m500.8 1216.1l7.7-33l64.3 1.6l-5.4 46.9l-4.1 0.4c-18.2 1.2-92.6 4.9-104.8 1.4q-13.7-4 42.3-17.3z" /><g style="opacity: .4"><path class="s9" d="m543.5 1231.4c0.9-5.5 3.9-10.7 8.2-14.2c4.4-3.4 9.8-5.3 15.4-4.9l0.2 18.4z" /></g><g style="opacity: .4"><path class="s9" d="m479.4 1232l87.9-1.8l0.1 1.4c-33.2 3.4-108.5 4.3-111 1.1q-2.5-3.2 17.1-9.1q3.8 0.1 5.9 8.4z" /></g><path class="s6" d="m568.3 1230.1q0 0.1-1.1 0.2q-1.5 0.1-3.3 0.2q-4.8 0.3-11.9 0.7c-10.2 0.5-24.2 1-39.6 1.2c-15.5 0.2-29.5 0.1-39.7-0.2q-7.1-0.2-12-0.3q-1.8-0.1-3.2-0.2q-1.2 0-1.2-0.1q0 0 1.2 0q1.4 0 3.2 0q4.9 0 12 0.1c10.2 0 24.2 0.1 39.6-0.1c15.5-0.2 29.5-0.6 39.6-1q7.1-0.2 12-0.4q1.8-0.1 3.3-0.1q1.1 0 1.1 0z" /><path class="s6" d="m479.4 1233.1c-0.2 0-0.4-2.9-2.3-5.7c-1.8-2.9-4.3-4.4-4.1-4.6c0-0.2 2.9 1 4.8 4.1c2 3.1 1.8 6.2 1.6 6.2z" /><path class="s6" d="m498.8 1222.9c-0.2 0.2-1.1-1-2.1-2.5c-1-1.5-1.7-2.8-1.5-2.9c0.2-0.1 1.2 1 2.1 2.5c1 1.5 1.7 2.8 1.5 2.9z" /><path class="s6" d="m504.1 1220c-0.2 0.2-1.2-0.5-2.4-1.5c-1.1-1-1.9-1.9-1.8-2.1c0.2-0.2 1.2 0.5 2.4 1.5c1.1 1 1.9 2 1.8 2.1z" /><path class="s6" d="m507.4 1213.8c0 0.2-1.5 0.4-3.4 0.5c-1.9 0-3.5-0.1-3.5-0.4c0-0.2 1.5-0.4 3.4-0.4c1.9-0.1 3.5 0.1 3.5 0.3z" /><path class="s6" d="m508.5 1209.4c0.1 0.2-1.6 0.9-3.8 1.1c-2.3 0.2-4-0.2-4-0.4c0-0.3 1.8-0.2 3.9-0.4c2.1-0.1 3.8-0.6 3.9-0.3z" /><path class="s6" d="m496.5 1217.2c0 0.1-1.6 0.3-4.3 0c-1.3-0.1-2.8-0.4-4.5-0.9c-0.8-0.3-1.7-0.5-2.6-1c-0.4-0.3-0.9-0.7-1.1-1.3c-0.1-0.7 0.2-1.4 0.7-1.7c4-2.2 8.1 0 9.6 2.1c0.8 1.1 1.2 2.1 1.4 2.8c0.2 0.7 0.2 1.2 0.2 1.2c-0.2 0-0.4-1.7-2-3.6c-0.9-1-2.1-1.9-3.7-2.3c-1.5-0.5-3.6-0.5-5 0.4c-0.7 0.5-0.4 1.3 0.3 1.7c0.7 0.5 1.6 0.7 2.4 1c1.6 0.5 3.1 0.9 4.4 1.1c2.6 0.4 4.2 0.4 4.2 0.5z" /><path class="s6" d="m495.4 1217.4c-0.1 0.1-0.7-1-0.6-2.9c0.1-0.9 0.5-2.1 1.2-3.1c0.7-1 1.7-2.3 3.5-2.2c1 0.1 1.5 1.2 1.3 1.9c-0.1 0.8-0.4 1.4-0.7 1.9c-0.6 1.1-1.3 2-2 2.6c-1.3 1.3-2.3 1.8-2.4 1.8c0-0.1 0.9-0.8 2-2.2c0.6-0.6 1.2-1.5 1.8-2.5c0.5-0.9 0.9-2.6-0.2-2.7c-1-0.1-2.1 0.9-2.7 1.8c-0.7 0.9-1 1.9-1.2 2.8c-0.3 1.7 0.1 2.8 0 2.8z" /><path class="s6" d="m566.8 1212.1c-0.1 0.1-1.9-0.2-4.9 0.2c-3 0.4-7.1 1.6-10.6 4.5c-3.5 2.9-5.6 6.7-6.5 9.5c-1 2.9-1.1 4.8-1.2 4.7c-0.1 0-0.1-0.4 0-1.3c0-0.8 0.2-2.1 0.6-3.6c0.9-2.9 2.9-6.9 6.6-9.9c3.7-3 8-4.2 11-4.4c1.6-0.2 2.8-0.1 3.7 0c0.8 0.1 1.3 0.2 1.3 0.3z" /><path class="s6" d="m559.6 1184.7c0.2 0 0.5 6.1 0.7 13.5c0.2 7.5 0.2 13.6 0 13.6c-0.3 0-0.6-6-0.8-13.5c-0.2-7.5-0.2-13.6 0.1-13.6z" /><path class="s6" d="m535.1 1225.1c0 0.2-4.3 1-9.6 1.1c-5.4 0.1-9.7-0.5-9.7-0.7c0-0.2 4.3 0 9.7-0.1c5.3-0.1 9.6-0.5 9.6-0.3z" /><path class="s6" d="m548 1224.9c0.2 0.2-0.3 0.9-0.7 1.9c-0.5 1-0.7 1.9-0.9 1.9c-0.2 0-0.4-1.1 0.1-2.2c0.5-1.1 1.4-1.8 1.5-1.6z" /><path class="s6" d="m552.8 1218.8c0.2 0.1-0.2 0.8-0.9 1.5c-0.7 0.7-1.3 1.2-1.5 1c-0.2-0.1 0.2-0.8 0.9-1.5c0.7-0.7 1.4-1.2 1.5-1z" /><path class="s6" d="m559.8 1215.9c-0.1 0.2-0.9 0.2-1.9 0.6c-1 0.3-1.7 0.9-1.8 0.7c-0.2-0.1 0.3-1 1.5-1.5c1.2-0.4 2.2 0 2.2 0.2z" /><path class="s6" d="m564.7 1214.5c0.1 0.3-0.3 0.6-0.8 0.8c-0.6 0.2-1.1 0.2-1.1 0c-0.1-0.2 0.2-0.5 0.8-0.7c0.5-0.2 1-0.3 1.1-0.1z" /><path class="s10" d="m806.1 1233.6c-12.2 3.5-86.6-0.2-104.8-1.5l-4.1-0.3l0.8-51.5l66 0.8l-0.2 35.2q56 13.3 42.3 17.3z" /><g style="opacity: .4"><path class="s9" d="m697.3 1230.9l0.2-18.5c5.6-0.4 11 1.5 15.4 5c4.3 3.5 7.4 8.7 8.2 14.2z" /></g><g style="opacity: .4"><path class="s9" d="m791.2 1223.8q19.5 5.9 17.1 9.1c-2.5 3.2-77.9 2.2-111.1-1.1l0.1-1.5l87.9 1.9q2.1-8.3 6-8.4z" /></g><path class="s6" d="m697.4 1230.3q1.5 0 3.3 0q4.9 0.2 12 0.5c10.1 0.3 24.1 0.7 39.6 0.9c15.4 0.2 29.4 0.2 39.6 0.1q7.1 0 12-0.1q1.8 0 3.2 0q1.2 0 1.2 0.1q0 0-1.1 0.1q-1.5 0.1-3.3 0.1q-4.9 0.2-12 0.4c-10.2 0.2-24.2 0.3-39.6 0.1c-15.5-0.2-29.5-0.7-39.6-1.2q-7.1-0.4-12-0.6q-1.8-0.2-3.3-0.3q-1.1-0.1-1.1-0.1q0-0.1 1.1 0z" /><path class="s6" d="m786.8 1227.1c2-3.1 4.8-4.3 4.8-4.1c0.2 0.2-2.3 1.6-4.1 4.5c-1.9 2.9-2.1 5.8-2.3 5.7c-0.2 0.1-0.4-3 1.6-6.1z" /><path class="s6" d="m767.3 1220.2c1-1.5 1.9-2.7 2.1-2.6c0.2 0.2-0.5 1.5-1.5 3c-0.9 1.5-1.9 2.6-2.1 2.5c-0.2-0.1 0.5-1.4 1.5-2.9z" /><path class="s6" d="m762.3 1218.1c1.2-1 2.2-1.7 2.4-1.5c0.1 0.1-0.7 1.1-1.8 2.1c-1.2 1-2.2 1.7-2.4 1.5c-0.1-0.2 0.7-1.1 1.8-2.1z" /><path class="s6" d="m760.7 1213.6c1.9 0.1 3.4 0.3 3.4 0.5c0 0.2-1.5 0.4-3.4 0.3c-1.9 0-3.5-0.2-3.5-0.5c0-0.2 1.6-0.3 3.5-0.3z" /><path class="s6" d="m760 1209.9c2.1 0.2 3.9 0.1 3.9 0.3c0.1 0.2-1.7 0.7-4 0.5c-2.2-0.2-3.9-1-3.8-1.2c0.1-0.2 1.8 0.2 3.9 0.4z" /><path class="s6" d="m772.3 1216.8c1.3-0.2 2.8-0.5 4.4-1c0.8-0.3 1.7-0.6 2.4-1c0.7-0.5 1-1.3 0.3-1.8c-1.4-0.9-3.5-0.8-5-0.4c-1.6 0.5-2.8 1.4-3.7 2.3c-1.6 2-1.8 3.7-1.9 3.6c-0.1 0-0.1-0.4 0.1-1.1c0.2-0.7 0.6-1.8 1.4-2.8c1.5-2.1 5.6-4.3 9.7-2.2c0.4 0.4 0.8 1.1 0.6 1.7c-0.2 0.7-0.7 1-1.1 1.3c-0.9 0.6-1.8 0.8-2.6 1.1c-1.7 0.5-3.2 0.8-4.5 0.9c-2.6 0.3-4.3 0.1-4.3 0c0-0.2 1.7-0.1 4.2-0.6z" /><path class="s6" d="m769.2 1214.7c-0.1-0.8-0.5-1.8-1.2-2.7c-0.6-0.9-1.7-2-2.7-1.9c-1.1 0.2-0.7 1.8-0.1 2.7c0.5 1.1 1.1 1.9 1.7 2.6c1.1 1.3 2.1 2 2 2.1c-0.1 0.1-1.1-0.4-2.4-1.7c-0.7-0.7-1.4-1.6-2-2.6c-0.3-0.5-0.6-1.2-0.7-1.9c-0.1-0.7 0.4-1.9 1.3-2c1.9 0 2.8 1.3 3.5 2.2c0.7 1.1 1.1 2.2 1.2 3.2c0.1 1.9-0.5 2.9-0.6 2.9c-0.1 0 0.3-1.1 0-2.9z" /><path class="s6" d="m699.2 1212c0.8-0.2 2.1-0.2 3.6-0.1c3 0.2 7.3 1.5 11 4.5c3.7 3 5.7 7 6.6 9.9c0.4 1.5 0.6 2.7 0.7 3.6c0 0.8 0 1.3-0.1 1.3c-0.1 0-0.2-1.9-1.2-4.7c-0.9-2.8-3-6.6-6.5-9.5c-3.5-2.9-7.6-4.2-10.6-4.5c-3-0.4-4.8-0.1-4.8-0.3c-0.1 0 0.4-0.1 1.3-0.2z" /><path class="s6" d="m705.1 1198.4c-0.2 7.5-0.5 13.6-0.7 13.6c-0.3 0-0.3-6.1-0.1-13.6c0.2-7.5 0.5-13.6 0.7-13.5c0.3 0 0.3 6 0.1 13.5z" /><path class="s6" d="m739.2 1225.5c5.3 0.2 9.6-0.1 9.6 0.2c0 0.2-4.3 0.8-9.7 0.6c-5.3-0.1-9.6-0.8-9.6-1.1c0-0.2 4.3 0.2 9.7 0.3z" /><path class="s6" d="m718.1 1226.7c0.5 1.1 0.3 2.1 0.1 2.1c-0.2 0.1-0.4-0.8-0.9-1.8c-0.4-1-0.9-1.8-0.7-1.9c0.1-0.2 1 0.4 1.5 1.6z" /><path class="s6" d="m713.3 1219.9c0.7 0.7 1.1 1.4 0.9 1.6c-0.1 0.1-0.8-0.3-1.5-1c-0.7-0.7-1.1-1.4-0.9-1.6c0.1-0.1 0.8 0.3 1.5 1z" /><path class="s6" d="m707 1215.9c1.2 0.4 1.7 1.4 1.6 1.5c-0.2 0.1-0.9-0.4-1.9-0.7c-0.9-0.4-1.8-0.4-1.9-0.6c0-0.2 1-0.6 2.2-0.2z" /><path class="s6" d="m701 1214.7c0.6 0.2 0.9 0.6 0.9 0.8c-0.1 0.2-0.6 0.2-1.2 0c-0.5-0.2-0.9-0.6-0.8-0.8c0.1-0.2 0.6-0.2 1.1 0z" /><path class="s6" d="m801.4 573l-30 635l-82.5 1.9l6.5-550.6l-123.3 551.7l-70.2-3.2l110-633.5z" /><path class="s8" d="m715.6 581.5c0.3 0.1 0 4.1-0.7 10.5c-0.7 6.4-1.8 15.3-3 25c-0.7 4.9-1.1 9.6-2.3 13.8c-1.2 4.3-3.5 7.8-6.1 9.9c-2.5 2.2-5.2 3.1-7 3.4c-1.8 0.4-2.8 0.2-2.8 0.1c-0.2-0.3 4.3-0.1 9-4.4c2.3-2.1 4.3-5.4 5.3-9.4c1.1-4 1.5-8.7 2.1-13.6c1.3-9.8 2.6-18.6 3.6-25c0.9-6.4 1.7-10.3 1.9-10.3z" /><path class="s8" d="m695.3 585.3c0.3 0.2-0.5 1.2 0 2.9c0.3 0.7 0.8 1.6 1.7 2c0.9 0.4 2.1 0.1 2.9-0.7c0.9-0.8 1.2-2 0.9-2.8c-0.4-0.9-1.2-1.6-2-1.9c-1.6-0.6-2.7 0.1-2.8-0.1c-0.2-0.1 0.8-1.5 3.2-1c1 0.2 2.4 0.9 3 2.4c0.8 1.5 0.2 3.5-1.1 4.7c-1.2 1.2-3.3 1.7-4.8 0.8c-1.4-0.7-2-2.1-2.2-3.2c-0.3-2.3 1.2-3.3 1.2-3.1z" /><path class="s8" d="m643 596.3c-0.4 0.1-2-3.8-1.6-9c0.3-5.1 2.4-8.8 2.8-8.6c0.5 0.2-0.8 3.9-1.1 8.7c-0.3 4.8 0.4 8.7-0.1 8.9z" /><path class="s8" d="m654.8 595.1c-0.5 0.1-2-4-1.8-9.2c0.2-5.3 2-9.3 2.4-9.1c0.5 0.1-0.5 4.1-0.7 9.1c-0.1 5 0.6 9.1 0.1 9.2z" /><path class="s8" d="m756.2 593.9c-0.5-0.1 0.1-4.3 0.2-9.5c0.1-5.2-0.4-9.4 0.1-9.5c0.4-0.1 1.7 4.1 1.6 9.5c0 5.4-1.5 9.6-1.9 9.5z" /><path class="s8" d="m769 592.7c-0.5-0.2 0.9-4.3 1-9.6c0.2-5.4-0.9-9.6-0.4-9.8c0.4-0.1 2.3 4.1 2.1 9.8c-0.1 5.7-2.3 9.8-2.7 9.6z" /><path class="s10" d="m660 286.2q0 0 0 0q0 0 0 0z" /><path class="s6" d="m688.3 212.6c-4.8 6.8-13.4 10.8-21.6 10.2c-5.8-0.5-11.5-3.1-15.5-7.3c-5.9-6.2-8-14.9-9.8-23.2c-1.5-6.8-3-13.6-2.3-20.5c0.6-6.9 3.7-13.9 9.6-17.5c-2.6-6.1-2.1-13.4 1.3-19.1c3.4-5.7 9.6-9.6 16.2-10.2c4.1-0.4 8.4 0.4 12-1.6c2.2-1.2 3.7-3.2 5.5-4.9c9.6-9.5 27.5-8.3 35.7 2.5c5.7-4.6 14.2-4.3 20.6-0.9c6.5 3.4 11.1 9.4 14.5 15.8c2.2 4 3.9 8.3 3.9 12.9c0 4.5-0.3 8-4.3 10.1c2 4.8-0.6 11.9-4 15.9" /><path class="s11" d="m655.5 164.2l3.7-2.8c25.2-19.4 58.8-23.6 88-11.1q4.4 57.9 4.1 83.1q-0.4 25.2-25.6 29.1q3.7 43.7 3.3 50.8l-66.7 3.1z" /><path class="s12" d="m725.8 268.6q-25.1 2.3-32.9-15.8q17 10.6 32.9 9.3z" /><path class="s11" d="m659.6 215.1c0 0.5-17.2 4.6-17.8-12.7c-0.5-17.2 16.4-12.2 16.8-12.1q1 24.3 1 24.8z" /><path class="s12" d="m653.6 209.6c-0.5 0.4-1.5 0.8-2.8 0.5c-2.5-0.6-4.4-3.8-4.6-7.3c-0.1-1.7 0.3-3.4 0.9-4.8c0.6-1.4 1.7-2.7 3.1-2.8c0.6-0.1 1.2 0.1 1.6 0.4c0.4 0.3 0.7 0.7 0.7 1.1c0.2 0.7-0.1 1-0.2 1c-0.1-0.1 0-0.4-0.2-0.9c-0.2-0.5-0.9-1-1.8-0.8c-0.9 0.2-1.7 1.1-2.2 2.4c-0.5 1.3-0.8 2.8-0.7 4.3c0.2 3.1 1.8 6 3.7 6.6c0.9 0.3 1.7 0.1 2.2-0.1c0.5-0.3 0.7-0.5 0.8-0.5c0.1 0 0 0.4-0.5 0.9z" /><path class="s6" d="m741.6 189.8c0.1 1.9-1.4 3.5-3.4 3.6c-2 0.1-3.7-1.3-3.7-3.2c-0.1-1.9 1.5-3.5 3.4-3.7c2-0.1 3.7 1.4 3.7 3.3z" /><path class="s6" d="m742.4 185.7c-0.4 0.5-3.1-1.5-7-1.5c-3.9 0-6.7 2-7.1 1.5c-0.2-0.2 0.2-1.1 1.4-2c1.3-0.9 3.3-1.7 5.8-1.7c2.4 0 4.4 0.9 5.6 1.8c1.1 0.9 1.6 1.7 1.3 1.9z" /><path class="s6" d="m703.7 190.7c0.1 1.9-1.5 3.5-3.4 3.6c-2 0.1-3.7-1.3-3.7-3.2c-0.1-1.9 1.4-3.5 3.4-3.6c2-0.1 3.7 1.3 3.7 3.2z" /><path class="s6" d="m704.4 186.5c-0.5 0.4-3.2-1.6-7.1-1.6c-3.8 0-6.7 2-7.1 1.5c-0.2-0.2 0.2-1 1.5-2c1.2-0.8 3.3-1.7 5.7-1.7c2.4 0 4.4 0.9 5.6 1.8c1.2 0.9 1.6 1.8 1.4 2z" /><path class="s6" d="m718.4 215.2c0-0.2 2.4-0.6 6.3-1.1c1-0.2 1.9-0.3 2.1-1c0.2-0.7-0.2-1.8-0.7-3q-1.3-3.5-2.9-7.5c-4-10.7-7-19.5-6.5-19.7c0.4-0.1 4 8.4 8.1 19.1q1.5 4 2.8 7.6c0.4 1.1 1 2.4 0.5 3.9c-0.3 0.7-1 1.3-1.6 1.4c-0.7 0.2-1.2 0.2-1.7 0.3c-3.9 0.2-6.4 0.2-6.4 0z" /><path class="s6" d="m707 217.9c0.7-0.1 0.7 4.1 4.3 7.1c3.6 3 8 2.5 8.1 3.1c0 0.3-1 0.8-2.9 0.9c-1.9 0.1-4.6-0.5-6.8-2.4c-2.2-1.8-3.1-4.2-3.3-6c-0.1-1.7 0.3-2.8 0.6-2.7z" /><path class="s6" d="m705.4 171.3c-0.4 1.1-4.3 0.6-8.8 1.1c-4.6 0.5-8.2 1.8-8.8 0.8c-0.3-0.4 0.3-1.4 1.8-2.4c1.5-1 3.8-2 6.6-2.3c2.7-0.3 5.2 0.1 6.8 0.8c1.7 0.7 2.5 1.5 2.4 2z" /><path class="s6" d="m741 174.5c-0.7 0.9-3.3 0-6.5 0c-3.3-0.2-6 0.6-6.6-0.4c-0.3-0.4 0.2-1.3 1.3-2.1c1.2-0.9 3.2-1.5 5.4-1.5c2.2 0.1 4.1 0.9 5.2 1.8c1.1 0.9 1.5 1.8 1.2 2.2z" /><path class="s6" d="m654.1 163.9c0.1-3.6 3.5-6.8 6-9.5c2.4-2.7 5.5-4.7 8.7-6.5c21.5-12.7 48-18.2 72-11.1c6.1 1.8 12.7 5.1 14.4 11.2c1.2 4.1-0.4 8.9-4.1 11.2c-3.6 2.2-8.9 1.2-11.2-2.4c-4.4 4.2-10.7 6.3-16.8 5.5c-6-0.8-11.6-4.5-14.7-9.7c-3 5.9-9.8 9.3-16.4 9.7c-6.6 0.4-13.1-1.8-19.1-4.6q-2.3 11.7-4.6 23.3c-0.6 2.9-1.5 9.9-3 12.4c-3.8 6.6-6.4 3.9-7.9-2.5c-0.3-1.1-3.1-4-3.3-5.1c-1.3-7.2 0.4-15.4 0-22.7" /><path class="s8" d="m711.2 204.5c-0.1-0.1 0.9-1.1 2.1-3.2c1.2-2.1 2.4-5.6 1.8-9.9c-0.6-4.2-3.5-9.1-8.6-11.5c-5.1-2.4-12.3-1.7-16.9 3c-4.7 4.6-5.4 11.8-3 16.8c2.4 5.2 7.3 8.1 11.5 8.7c4.3 0.6 7.8-0.6 9.9-1.8c2.1-1.2 3.1-2.2 3.2-2.1q0.1 0.1-0.6 0.8c-0.5 0.5-1.2 1.1-2.3 1.8c-2.1 1.4-5.7 2.9-10.3 2.4c-4.6-0.5-10-3.5-12.7-9.1c-1.3-2.8-1.9-6.1-1.4-9.5c0.5-3.3 2.1-6.5 4.6-9.1c2.6-2.5 5.8-4.1 9.2-4.6c3.3-0.5 6.6 0.1 9.4 1.4c5.6 2.7 8.6 8.1 9.1 12.7c0.5 4.6-1 8.2-2.4 10.3c-0.7 1.1-1.3 1.8-1.8 2.3q-0.7 0.6-0.8 0.6z" /><path class="s8" d="m751.1 204.5c-0.2-0.1 0.8-1.1 2-3.2c1.2-2.1 2.5-5.6 1.8-9.9c-0.5-4.2-3.4-9.1-8.6-11.5c-5-2.4-12.2-1.7-16.8 3c-4.7 4.6-5.5 11.8-3 16.8c2.3 5.2 7.3 8.1 11.5 8.7c4.2 0.6 7.8-0.6 9.8-1.8c2.2-1.2 3.1-2.2 3.3-2.1q0 0.1-0.7 0.8c-0.4 0.5-1.2 1.1-2.2 1.8c-2.1 1.4-5.8 2.9-10.4 2.4c-4.5-0.5-10-3.5-12.6-9.1c-1.4-2.8-1.9-6.1-1.4-9.5c0.4-3.3 2.1-6.5 4.6-9.1c2.5-2.5 5.8-4.1 9.1-4.6c3.3-0.5 6.7 0.1 9.4 1.4c5.7 2.7 8.7 8.1 9.1 12.7c0.6 4.6-1 8.2-2.3 10.3c-0.7 1.1-1.4 1.8-1.9 2.3q-0.7 0.6-0.7 0.6z" /><path class="s8" d="m724.6 192.2c0 0.4-2 0.8-4.4 0.8c-2.5 0-4.5-0.4-4.5-0.8c0-0.4 2-0.8 4.5-0.8c2.4 0 4.4 0.4 4.4 0.8z" /><path class="s8" d="m657.4 190.9c0-0.4 6.1-1 13.7-1.2c7.6-0.3 13.8-0.1 13.8 0.3c0 0.4-6.1 1-13.7 1.2c-7.6 0.3-13.8 0.1-13.8-0.3z" /><path class="s11" d="m671.9 187.1c-2 2.3-4.3 2.7-7.3 2.1l-12.6-3.9l-0.1 4.6l4.1 15.6l4.3-5.7q4.5-6.5 8.6-4.5l-14.3 27l-25.3 17.2l-15.9 6.3l-30.1-13.3l18.4-17.5l28.2-29.5l20.4-7.1l21.6 7.8z" /><path class="s12" d="m631.5 209c0.1-0.1 1 1.1 1.8 3.4c0.8 2.2 1.5 5.6 1.3 9.3c-0.3 3.7-1.4 6.9-2.5 9.1c-1.1 2.1-2.1 3.2-2.3 3.1c-0.4-0.2 2.8-5.2 3.2-12.3c0.5-7.1-2-12.5-1.5-12.6z" /><path class="s12" d="m631.7 209.3c-0.1-0.2 2.9-0.9 7.8-1.9h0.2l0.1 0.1c1.2 0.5 1.5 1.9 1.3 3c-0.1 1.2-0.8 2.2-1.3 3.1c-0.6 0.9-0.9 1.9-0.6 2.8c0.3 0.9 1.2 1.7 2.1 2.5l-0.9-0.1c2-1.4 4.2-3 5.5-5.2c2.1-3.4-0.3-6.9-1.6-10.1c-0.4-0.8-0.7-1.7-1.1-2.1c-0.3-0.3-0.9-0.4-1.6-0.3q-2.3 0.3-4.3 0.6c-5.2 0.8-8.5 1.2-8.5 1c-0.1-0.2 3.1-1 8.3-2q2.1-0.4 4.3-0.9c0.8-0.1 2-0.2 2.8 0.7c0.8 0.9 1 1.6 1.4 2.4c0.7 1.6 1.6 3.2 2.2 5.1c0.8 1.9 0.6 4.4-0.6 6.3c-1.4 2.7-3.9 4.3-5.9 5.8l-0.5 0.3l-0.4-0.4c-1-0.8-2.1-1.8-2.5-3.2c-0.6-1.5 0.1-2.9 0.7-3.9c0.6-1 1.2-1.7 1.3-2.6c0.2-0.8 0-1.6-0.6-1.9l0.4 0.1c-5 0.7-8 1-8 0.8z" /><path class="s12" d="m647.6 211.6c0.1-0.1 0.3 0.6 1.4 1c1 0.3 2.7-0.1 3.3-1.9c0.8-1.8-0.1-4.1-1.2-6.7c-1.1-2.5-2.2-5.5-3.5-8.2c-1.3-2.8-4.6-2.3-7.3-2c-2.8 0.3-5.2 0.6-7.3 0.9c-4.2 0.7-6.7 1.3-6.8 1c0-0.1 2.4-1.1 6.6-2c2-0.5 4.5-1 7.3-1.3c1.4-0.2 2.9-0.5 4.5-0.3c1.7 0.1 3.6 1.3 4.4 2.9c1.4 3.1 2.4 5.9 3.4 8.5c0.5 1.3 1 2.5 1.3 3.9c0.2 1.3 0.2 2.6-0.3 3.7c-0.5 1.1-1.4 1.9-2.3 2.2c-0.9 0.3-1.8 0.1-2.4-0.2c-1.2-0.6-1.2-1.6-1.1-1.5z" /><path class="s12" d="m656 205.5c-0.2 0.1-1-2.1-2.1-5.7q-0.9-3-1.8-6.4c-0.4-1.1-0.7-2.5-1.1-3.7c-0.4-1.1-1.2-2-2.3-2.5c-2.4-0.8-5.1 0.1-7.4 0.8q-3.4 0.9-6.4 1.7c-3.7 0.9-6 1.4-6 1.1c-0.1-0.2 2.1-1 5.7-2.2q2.9-0.9 6.2-2c2.4-0.6 5.2-1.9 8.4-0.8c1.6 0.6 2.8 2 3.2 3.4c0.5 1.4 0.7 2.6 1 3.9q0.8 3.3 1.6 6.4c0.8 3.7 1.2 6 1 6z" /><path class="s12" d="m601.7 215q0 0 0.5-0.6q0.5-0.6 1.4-1.5q2.1-2.3 5.6-6c5-5.3 12-12.7 20.4-21.7h0.1l0.1-0.1c6.2-2.1 13-4.5 20.4-7.1l0.1-0.1l0.2 0.1c6.7 2.4 14 5 21.5 7.7l0.3 0.1v0.4q0 0.4 0 0.9v0.1l-0.1 0.2c-0.8 1-2 1.9-3.4 2.2c-1.4 0.4-2.9 0.3-4.2 0h-0.1c-2.8-0.8-5.8-1.8-8.9-2.7q-1.8-0.6-3.7-1.1l0.6-0.5q-0.1 2.3-0.2 4.6v-0.1q2.1 8 4.1 15.6l-0.8-0.2c1.9-2.4 3.6-4.8 5.5-7.2c1.9-2.2 4.8-4.2 8-3.1l0.4 0.1l-0.2 0.5c-5.4 10.1-10.2 19.2-14.4 26.9v0.1l-0.1 0.1c-7.7 5.2-14.1 9.4-18.6 12.4q-3.1 2.1-5.1 3.4q-1.1 0.7-1.8 1.1q0.6-0.5 1.7-1.3q1.9-1.3 5-3.5c4.5-3.1 10.8-7.4 18.4-12.7l-0.1 0.1c4.1-7.8 8.9-16.9 14.2-27l0.2 0.5c-1.1-0.4-2.5-0.2-3.7 0.4c-1.3 0.6-2.3 1.5-3.3 2.6c-1.8 2.2-3.5 4.8-5.4 7.2l-0.5 0.7l-0.3-0.9q-2-7.6-4.1-15.6v-0.1q0.1-2.3 0.1-4.6l0.1-0.6l0.5 0.2q1.9 0.5 3.8 1.1c3.1 0.9 6.1 1.9 8.9 2.7h-0.1c1.3 0.3 2.7 0.4 3.9 0c1.1-0.3 2.1-1 2.9-1.9l-0.1 0.3q0-0.5 0-0.9l0.3 0.4c-7.6-2.7-14.8-5.4-21.5-7.8h0.3c-7.4 2.5-14.3 4.9-20.5 7l0.2-0.1c-8.6 8.9-15.7 16.2-20.7 21.5q-3.6 3.6-5.7 5.8q-0.9 0.9-1.6 1.5q-0.5 0.5-0.5 0.5z" /><path class="s7" d="m610.4 404.9l-1.4-103.6l27-9.1c8.5-1.6 16.8-4.7 26.7-5.1q0 0 0.1 0c18.7 14.8 45.1 15.2 64.2 0.8l0.9-0.7c2.6 0.3 6 0.7 10.3 1.2q0.4 0 0.8 0.1c11 1.3 21.1 5.6 29.5 11.7l134.2 80.1l78.7-59.9l39.9 31.2q-103.2 103.3-113.2 105.7c-6.9 1.7-75.8-35.9-117.5-59.2c1.7 25 11 163.9 10.6 182.9h-191.7l-0.2-87.6l0.1-23.8z" /><path class="s6" d="m788.7 343.3q0.4 5.1 0.9 12.5c0.8 10.5 1.7 25.1 2.5 41.2c0.9 16.1 1.6 30.6 2 41.2q0.2 7.4 0.3 12.5c0.1 2.9 0 4.6-0.1 4.6c-0.1 0-0.4-1.7-0.6-4.6q-0.4-5-1-12.5c-0.7-10.5-1.6-25.1-2.5-41.1c-0.9-16.1-1.5-30.7-1.9-41.2q-0.2-7.5-0.4-12.5c0-3 0-4.6 0.1-4.6c0.2 0 0.4 1.6 0.7 4.5z" /><path class="s6" d="m966.6 342.1c3.7 3 8.8 7.3 14.3 12.2c11.1 9.6 19.8 17.8 19.4 18.2c-0.3 0.4-9.6-7.1-20.6-16.8c-11.1-9.6-19.8-17.8-19.3-18.3c0.1-0.2 2.5 1.6 6.2 4.7z" /><path class="s6" d="m957.6 348.9c3.8 3.1 8.9 7.4 14.4 12.4c5.6 4.9 10.5 9.4 14.1 12.8c3.5 3.3 5.6 5.5 5.4 5.7c-0.2 0.2-2.6-1.6-6.3-4.7c-3.8-3.1-8.9-7.5-14.5-12.4c-11.1-9.8-19.9-18.1-19.5-18.5c0.2-0.2 2.6 1.6 6.4 4.7z" /><path class="s7" d="m626.2 248.2l-65 68l55.8-17.4l-7 76.8l-92.3 6.2c-13.7 0.9-26.8-5.9-33.8-17.7c-8.8-14.8-6.3-34.5 4.6-47.7q24.2-29.3 100.9-101.1z" /><path class="s6" d="m609.4 436.4c-0.4 0-0.5-16.5-0.2-36.8c0.2-20.3 0.8-36.8 1.2-36.8c0.5 0 0.6 16.5 0.3 36.8c-0.3 20.3-0.8 36.8-1.3 36.8z" /><path class="s6" d="m586.4 289.8c0.1 0-0.7 1.1-2.3 2.8q-2.6 3-6.7 7.6c-5.8 6.4-14 15.3-23.4 25.3l0.2-0.3c-0.9 3.3-2 6.6-3.3 9.9c-2.8 7.6-6.1 14.7-10.1 20.6c-4.2 5.8-9.1 10.1-13.6 12.9c-4.6 2.9-8.8 4.2-11.8 4.7c-1.5 0.3-2.6 0.4-3.4 0.4q-1.2 0-1.2 0c0-0.2 1.6-0.3 4.5-1c2.8-0.7 6.9-2.1 11.3-5c4.3-2.9 9.1-7.1 13-12.8c3.8-5.8 7.1-12.8 9.9-20.3c1.2-3.3 2.3-6.6 3.2-9.8l0.1-0.2l0.1-0.1c9.4-10 17.7-18.8 23.7-25q4.3-4.4 7.1-7.2c1.7-1.7 2.7-2.6 2.7-2.5z" /><path class="s6" d="m549.5 337.1c0.4-0.1 2.3 6.4 1.2 14.5c-0.9 8.2-4.3 14-4.6 13.8c-0.4-0.2 2.2-6.1 3.1-14c1-7.8-0.1-14.2 0.3-14.3z" /><path class="s3" d="m637.3 579.1q-0.1 0-0.5-0.6q-0.4-0.7-1.1-1.8q-1.6-2.7-4.3-7.3c-1.9-3.1-4.3-6.9-6.4-11.7c-2.1-4.7-4.1-10.7-2.7-17.4c1.2-6.6 5.1-12.8 8-19.8c1.4-3.5 2.4-7.3 2.5-11.3c0.1-4-0.4-8.2-1.3-12.4c-1.7-8.3-5-16.9-5.8-26.4c-1-9.5 0.4-19.4 2.5-29.1c2.2-9.8 4.9-19.1 6.8-28.3q1.5-6.8 2.2-13.5c0.1-2.3 0.3-4.5 0.3-6.7c0-2.2 0.1-4.3 0-6.5c-0.7-17.1-4.7-32.3-7.5-45c-3.1-12.7-5.2-23.1-6.1-30.3c-0.5-3.6-0.8-6.4-0.9-8.4q-0.1-1.3-0.2-2.1q0-0.8 0-0.8q0.1 0 0.2 0.7q0.1 0.9 0.3 2.2c0.2 1.9 0.6 4.7 1.2 8.3c1.1 7.2 3.4 17.5 6.5 30.2c3 12.6 7.1 27.8 7.9 45.2c0.1 2.1 0.1 4.3 0.1 6.6c-0.1 2.2-0.2 4.4-0.4 6.7q-0.6 6.8-2.1 13.7c-1.9 9.3-4.6 18.6-6.7 28.3c-2.1 9.7-3.5 19.4-2.6 28.6c0.8 9.3 4 17.8 5.7 26.3c0.9 4.3 1.4 8.6 1.3 12.7c-0.1 4.2-1.2 8.2-2.7 11.8c-3 7.1-6.9 13.2-8.1 19.5c-1.4 6.4 0.4 12.2 2.4 16.9c2 4.7 4.3 8.5 6.1 11.7q2.6 4.7 4.1 7.4q0.6 1.2 1 1.9q0.3 0.7 0.3 0.7z" /><path class="s3" d="m679 298.7q0.1 0 0.2 0.7q0.2 0.9 0.5 2.2c0.4 1.8 0.9 4.6 1.5 8.2c1.1 7.2 2.4 17.6 2.6 30.6c0.3 13-0.7 28.5-3.9 45.4c-3 16.9-8 35.2-9.6 54.8c-1.5 19.7 1.4 38.5 3.7 55.4c2.5 17 4.5 32.3 4.6 45.4c0 13-1.5 23.5-3.7 30.5q-0.3 1.3-0.6 2.4q-0.4 1.2-0.8 2.2q-0.7 1.9-1.2 3.3q-0.5 1.2-0.8 2q-0.3 0.7-0.3 0.7q0 0 0.2-0.7q0.2-0.9 0.6-2.1q0.5-1.4 1.1-3.4q0.3-1 0.7-2.1q0.2-1.2 0.5-2.5c2-7 3.4-17.4 3.2-30.3c-0.3-13-2.4-28.2-4.9-45.2c-2.4-16.9-5.3-35.8-3.8-55.7c1.6-19.8 6.6-38.1 9.7-54.9c3.2-16.8 4.3-32.2 4.2-45.2c0-12.9-1.1-23.3-2.1-30.5c-0.5-3.6-0.9-6.4-1.2-8.3q-0.2-1.3-0.3-2.1q-0.1-0.8-0.1-0.8z" /><path class="s3" d="m749.5 579.2q-0.1 0.1-0.4-0.6q-0.5-0.8-1.2-1.9c-0.5-0.9-1-2-1.5-3.3c-0.2-0.7-0.6-1.4-0.8-2.2q-0.3-1.2-0.6-2.6c-0.9-3.6-1.4-8.2-1-13.5c0.3-5.3 1.2-11.3 2.3-17.8c1.1-6.5 2.5-13.7 2.7-21.4c0.4-7.8-1.3-15.9-4.2-24.2c-2.8-8.3-6.5-16.8-8.4-26.3c-1.8-9.5-1-19.7 0.6-29.7c1.6-10 3.6-19.7 4.2-29.1c0.6-9.5-0.5-18.7-2.1-27.2c-3.4-17.2-8.1-32.4-9.6-45.7c-1.8-13.2-1-24.2 0.9-31.4q1.8-7.2 4-10.8q0 0-0.2 0.7q-0.4 0.8-0.8 2.1c-0.7 1.8-1.6 4.5-2.4 8.2c-1.7 7.1-2.3 18-0.4 31.1c1.7 13.1 6.4 28.2 9.9 45.5c1.6 8.6 2.8 17.9 2.2 27.5c-0.5 9.7-2.6 19.4-4.2 29.4c-1.5 9.9-2.3 19.8-0.6 29.1c1.8 9.3 5.5 17.8 8.3 26.2c1.4 4.1 2.5 8.3 3.3 12.4c0.7 4.2 1 8.3 0.8 12.2c-0.3 7.9-1.7 15.1-2.9 21.6c-1.2 6.5-2.2 12.4-2.5 17.6c-0.5 5.3-0.1 9.8 0.6 13.4c1.6 7.2 4.3 10.6 4 10.7z" /><path class="s3" d="m774.8 309.7q0.1 0 0.3 0.7q0.2 0.8 0.5 2c0.6 1.7 1.2 4.4 1.8 7.8c1.2 6.9 2 17.1 1.2 29.6c-0.8 12.5-3.2 27.2-5.4 43.5c-2.2 16.4-3.5 34.5-3.3 53.5c0.3 38 5.1 72.3 8.6 96.9c1.8 12.3 3.3 22.2 4.4 29.3q0.7 5 1.1 7.9q0.2 1.3 0.3 2.1q0.1 0.7 0 0.7q0 0-0.2-0.7q-0.1-0.8-0.4-2q-0.5-2.9-1.4-7.9c-1.2-6.9-3-16.8-4.9-29.2c-3.8-24.6-8.8-58.9-9.1-97.1c-0.2-19.1 1.2-37.3 3.5-53.6c2.3-16.4 4.8-31 5.7-43.5c0.9-12.4 0.3-22.5-0.7-29.4c-0.6-3.4-1-6.1-1.5-7.8q-0.2-1.3-0.4-2.1q-0.1-0.7-0.1-0.7z" /><path class="s3" d="m821 416.9c-0.1 0-0.2-1.1-0.4-3.1c-0.2-1.9-0.4-4.8-0.6-8.4c-0.4-7.1-0.7-16.9-0.8-27.8c0-10.9 0.2-20.7 0.6-27.9c0.1-3.5 0.3-6.4 0.5-8.4c0.1-2 0.3-3.1 0.4-3.1c0.1 0 0.1 1.1 0.2 3.1q0 3.5 0 8.5c0 7.5-0.1 17.1-0.1 27.8c0.1 10.6 0.2 20.3 0.3 27.8q0.1 4.9 0.1 8.4c0 2-0.1 3.1-0.2 3.1z" /><path class="s3" d="m850 349.4c0.1 0.1-0.5 1-1.4 2.7c-0.8 1.8-1.7 4.4-1.7 7.9c0 3.5 0.7 7.7 1.2 12.3c0.6 4.6 1.6 9.6 2.3 15c0.7 5.4 0.7 10.7 0.3 15.4c-0.4 4.7-1.5 8.9-2.9 12.2c-1.5 3.3-3.2 5.7-4.5 7.2c-1.2 1.6-2 2.3-2.1 2.3c-0.3-0.2 2.9-3.5 5.5-9.9c2.7-6.5 3.4-16.4 2.1-27c-0.6-5.3-1.6-10.4-2.1-15c-0.4-4.7-1.1-8.9-0.9-12.5c0.1-3.7 1.3-6.5 2.3-8.2c1.1-1.7 1.9-2.5 1.9-2.4z" /><path class="s3" d="m526.9 376.8c0-0.1 1.4-0.1 4-0.1c2.5 0 6.3 0.1 10.7-1c4.4-1 9-4.1 12.9-8.6c4-4.6 8-10 12.4-15.5c8.8-11 16.8-20.9 22.6-28c2.8-3.4 5.1-6.2 7-8.4c1.7-2 2.6-3 2.7-3c0.1 0.1-0.7 1.3-2.2 3.3c-1.8 2.3-4 5.3-6.6 8.8c-5.7 7.3-13.5 17.3-22.2 28.3c-4.5 5.5-8.5 10.8-12.6 15.4c-4.1 4.6-9.1 7.9-13.8 8.8c-4.6 1-8.4 0.7-11 0.5c-2.5-0.2-4-0.4-3.9-0.5z" /><path class="s3" d="m603 233.3q0.1 0-0.7 1.7c-0.6 1.1-1.2 2.9-2.5 4.8c-2.4 4.1-6.9 9.5-13.4 14.9c-6.4 5.5-14.9 11-23.8 17.6c-8.9 6.4-18.5 14.5-24.2 25.9c-3 5.7-5.4 11.6-8.9 16.7c-3.4 5.1-8.1 9-12.7 12.2c-4.6 3.2-9.2 5.9-13.2 8.7c-4 2.8-7.4 5.8-10 9.1c-5.4 6.4-6.3 13.7-5.6 18.2c0.7 4.6 2.7 6.6 2.5 6.7q-0.1 0-0.4-0.3c-0.1-0.3-0.5-0.7-0.8-1.2c-0.7-1.1-1.4-2.8-1.9-5.1c-1-4.7-0.1-12.2 5.3-19c2.6-3.4 6.2-6.5 10.2-9.4c4-3 8.6-5.7 13.1-8.9c4.5-3.2 9-6.9 12.3-11.9c3.3-4.9 5.7-10.7 8.7-16.5c5.9-11.7 15.7-20 24.7-26.4c9.1-6.5 17.5-11.9 24-17.2c6.5-5.3 11-10.5 13.5-14.4c1.5-1.9 2.2-3.6 2.8-4.6c0.6-1.1 1-1.6 1-1.6z" /><g style="opacity: .3"><path class="s9" d="m516.1 374.5c19-8.5 33.4-26.7 37.3-47.1c0.3-1.4 0.5-2.9 1.4-4.1c0.8-1.1 2.4-1.9 3.7-1.3c1.4 0.8 1.7 2.7 1.7 4.2c-0.1 12.5-5.3 24.8-14.1 33.5c-8.9 8.7-21.3 13.7-33.7 13.6" /></g><g style="opacity: .3"><path class="s9" d="m887.3 372.9q-18.3 28.5-36.6 56.9l-14.1-6.4c0-9.3 5.3-17 11.9-23.6c8.6-8.6 21.4-12.7 27.9-22.9c1.4-2.2 2.6-4.7 4.7-6c2.2-1.3 5.9-0.5 6.2 2z" /></g><path class="s1" d="m339.1 1079.8l-11.9 150.9l-135.3 0.9c17.7-4.2 32.9-20.6 7.4-80.6q-25.6-60 23.6-70.6z" /><path class="s2" d="m321.4 1231.5c-9.6 0-18.9-3.4-26.1-9.7c-11.1-9.8-24.8-28.1-27.6-59.9q-5.7-67.2-44.8-81.5l116.2-0.5q37.6 0 40.7 59.6c3.2 62.5 89.9 98.4 143.3 91.4z" /><path class="s0" d="m621.1 976.6q-71.6 110.4-67.5 150.3q9.9 95.2-32.4 104.6h-203.2q101.9 7.3 108.7-127.5q6.7-134.7 67.5-127.4z" /><path class="s1" d="m520.9 995.9q19.7 31 26.3 142.8c-2-15.6-4.1-31.3-9.2-46.1c-5-14.9-13.3-29.1-25.8-38.6c-8.1-6.2-17.5-10.1-26.5-14.8c-9-4.7-17.9-10.3-23.5-18.8c-5.7-8.4-8.3-20.8-1.8-28.6c12.4-14.9 40.9-26.9 60.5 4.1z" /><path class="s2" d="m617 1231.5q-60 3.1-68.4-66.7c-8.3-69.7-15.3-184-54.4-188.2l122.9-0.1c17.3 0 32.9 10.5 39.2 26.6c5.3 13.8 10.8 34.1 14.1 63.7c7.1 62.5 42.5 165.4 131.2 164.5z" /><path class="s6" d="m657.3 1174.1c0 0.5-17.9 0.8-40 0.8c-22.1 0-40.1-0.3-40.1-0.8c0-0.4 18-0.8 40.1-0.8c22.1 0 40 0.4 40 0.8z" /><path class="s6" d="m677.8 1179c-0.2-0.3-0.5-5.1-0.7-11.8l0.7 0.6c-3.6 0.1-7.6 0.1-11.8 0.1c-0.2 0.2 1.5-1.4 0.8-0.7v0.1v0.1v0.2v0.4v0.8v1.6q-0.1 1.5-0.1 3q0 2.9 0 5.6l-0.7-0.7c6.7 0.2 11.6 0.5 11.8 0.7c0.2 0.1-4.4 0.5-11.8 0.6l-0.7 0.1v-0.7q0-2.7-0.1-5.6q0-1.5 0-3v-1.6v-0.8v-0.4v-0.2v-0.1v-0.1c-0.7 0.7 1-1 0.8-0.8c4.2 0 8.2 0.1 11.8 0.1h0.7v0.7c-0.2 7.4-0.6 12-0.7 11.8z" /><path class="s6" d="m675.7 1200c0 0.4-17.9 0.8-40 0.8c-22.1 0-40.1-0.4-40.1-0.8c0-0.5 18-0.8 40.1-0.8c22.1 0 40 0.3 40 0.8z" /><path class="s6" d="m696.2 1204.8c-0.2-0.2-0.5-5-0.7-11.8l0.7 0.7c-3.6 0-7.6 0.1-11.8 0.1c-0.2 0.2 1.5-1.5 0.8-0.8v0.1v0.1v0.2v0.4v0.8v1.6q0 1.6-0.1 3.1q0 2.9 0 5.5l-0.7-0.7c6.7 0.2 11.6 0.6 11.8 0.7c0.2 0.2-4.4 0.5-11.8 0.7h-0.7v-0.7q0-2.6-0.1-5.5q0-1.5 0-3.1v-1.6v-0.8v-0.4v-0.2v-0.1v-0.1c-0.7 0.7 1-0.9 0.8-0.8c4.2 0.1 8.2 0.1 11.8 0.1l0.7 0.1v0.6c-0.2 7.4-0.6 12-0.7 11.8z" /><path class="s6" d="m641.9 1109c0 0.5-17.9 0.8-40 0.8c-22.2 0-40.1-0.3-40.1-0.8c0-0.4 17.9-0.8 40.1-0.8c22.1 0 40 0.4 40 0.8z" /><path class="s6" d="m662.3 1113.9c-0.1-0.3-0.5-5.1-0.6-11.8l0.6 0.6c-3.6 0.1-7.5 0.1-11.8 0.2c-0.1 0.1 1.5-1.5 0.8-0.8v0.1v0.1v0.2v0.4v0.8v1.6q0 1.5 0 3q0 2.9-0.1 5.6l-0.7-0.7c6.8 0.2 11.6 0.5 11.8 0.7c0.3 0.1-4.3 0.5-11.8 0.6l-0.6 0.1v-0.7q-0.1-2.7-0.1-5.6q0-1.5 0-3v-1.6v-0.8v-0.4v-0.2v-0.1v-0.1c-0.7 0.7 0.9-1 0.7-0.8c4.3 0 8.2 0.1 11.8 0.1h0.7v0.7c-0.2 7.4-0.5 12-0.7 11.8z" /><path class="s6" d="m637.5 1075c0 0.5-17.9 0.8-40 0.8c-22.2 0-40.1-0.3-40.1-0.8c0-0.4 17.9-0.7 40.1-0.7c22.1 0 40 0.3 40 0.7z" /><path class="s6" d="m657.9 1079.9c-0.1-0.2-0.5-5.1-0.6-11.8l0.6 0.7c-3.6 0-7.5 0-11.7 0.1c-0.2 0.1 1.4-1.5 0.7-0.8v0.1v0.1v0.2v0.4v0.8v1.6q0 1.5 0 3q0 2.9-0.1 5.6l-0.6-0.7c6.7 0.2 11.5 0.5 11.7 0.7c0.3 0.1-4.3 0.5-11.7 0.7h-0.7v-0.7q-0.1-2.7-0.1-5.6q0-1.5 0-3v-1.6v-0.8v-0.4v-0.2v-0.1v-0.1c-0.7 0.7 0.9-1 0.8-0.8c4.2 0 8.1 0.1 11.7 0.1h0.7v0.7c-0.1 7.4-0.5 12-0.7 11.8z" /><path class="s6" d="m631.7 1043.9c0 0.5-18 0.8-40.1 0.8c-22.1 0-40-0.3-40-0.8c0-0.4 17.9-0.8 40-0.8c22.1 0 40.1 0.4 40.1 0.8z" /><path class="s6" d="m652.1 1048.8c-0.1-0.3-0.5-5.1-0.7-11.8l0.7 0.6c-3.6 0.1-7.5 0.1-11.8 0.2c-0.1 0.1 1.5-1.5 0.8-0.8v0.1v0.1v0.2v0.4v0.8v1.6q0 1.5 0 3q-0.1 2.9-0.1 5.6l-0.7-0.7c6.8 0.2 11.6 0.5 11.8 0.7c0.2 0.1-4.4 0.5-11.8 0.6l-0.6 0.1l-0.1-0.7q0-2.7 0-5.6q0-1.5 0-3l-0.1-1.6v-0.8v-0.4v-0.2v-0.1v-0.1c-0.7 0.7 1-1 0.8-0.8c4.3 0 8.2 0.1 11.8 0.1h0.7v0.7c-0.2 7.4-0.5 12-0.7 11.8z" /><path class="s6" d="m623.4 1015.4c0 0.4-17.9 0.8-40 0.8c-22.1 0-40.1-0.4-40.1-0.8c0-0.4 18-0.8 40.1-0.8c22.1 0 40 0.4 40 0.8z" /><path class="s6" d="m643.9 1020.2c-0.2-0.2-0.5-5-0.7-11.8l0.7 0.7c-3.6 0-7.6 0.1-11.8 0.1c-0.2 0.2 1.5-1.5 0.8-0.8v0.1v0.1v0.2v0.4v0.8v1.6q-0.1 1.6-0.1 3.1q0 2.9 0 5.5l-0.7-0.6c6.7 0.1 11.6 0.5 11.8 0.6c0.2 0.2-4.4 0.5-11.8 0.7h-0.7v-0.7q0-2.6-0.1-5.5q0-1.5 0-3.1v-1.6v-0.8v-0.4v-0.2v-0.1v-0.1c-0.7 0.7 1-0.9 0.8-0.7c4.2 0 8.2 0 11.8 0.1h0.7v0.6c-0.2 7.5-0.6 12.1-0.7 11.8z" /><path class="s6" d="m609.5 991.5c0 0.4-17.9 0.7-40 0.7c-22.1 0-40-0.3-40-0.7c0-0.5 17.9-0.8 40-0.8c22.1 0 40 0.3 40 0.8z" /><path class="s6" d="m630 996.3c-0.2-0.2-0.5-5.1-0.7-11.8l0.7 0.7c-3.6 0-7.6 0.1-11.8 0.1c-0.2 0.2 1.5-1.5 0.8-0.8v0.1v0.1v0.2v0.4v0.8v1.6q0 1.5-0.1 3q0 2.9 0 5.6l-0.7-0.7c6.7 0.2 11.6 0.5 11.8 0.7c0.2 0.2-4.4 0.5-11.8 0.7h-0.7v-0.7q0-2.7-0.1-5.6q0-1.5 0-3v-1.6v-0.8v-0.4v-0.2v-0.1v-0.1c-0.7 0.7 1-0.9 0.8-0.8c4.2 0.1 8.2 0.1 11.8 0.1h0.7v0.7c-0.2 7.4-0.6 12-0.7 11.8z" /><path class="s10" d="m637.5 1052.6c-0.4-0.3 2.1-3.8 5.4-7.8c0.7-0.8 1.3-1.6 2-2.4l0.5-0.6l0.5 0.5c2.8 2.5 4.6 4.5 4.4 4.7c-0.2 0.3-2.4-1.2-5.3-3.6l1-0.1c-0.6 0.9-1.3 1.7-1.9 2.5c-3.3 4-6.3 7.1-6.6 6.8z" /><path class="s10" d="m643.7 1082.3c-0.4-0.3 2-3.8 5.4-7.8c0.6-0.8 1.3-1.6 2-2.4l0.5-0.6l0.5 0.5c2.8 2.5 4.6 4.5 4.4 4.7c-0.3 0.3-2.5-1.2-5.3-3.6l1-0.1c-0.7 0.9-1.3 1.7-1.9 2.5c-3.3 4-6.3 7.1-6.6 6.8z" /><path class="s10" d="m661.2 1183.9c-0.3-0.3 2.1-3.8 5.4-7.9c0.7-0.8 1.4-1.5 2-2.3l0.6-0.6l0.5 0.5c2.7 2.5 4.6 4.4 4.3 4.7c-0.2 0.2-2.4-1.3-5.3-3.6l1.1-0.1c-0.7 0.8-1.3 1.6-1.9 2.4c-3.4 4.1-6.3 7.1-6.7 6.9z" /><path class="s10" d="m648.1 1116.5c-0.3-0.3 2.1-3.8 5.4-7.8c0.7-0.8 1.3-1.6 2-2.4l0.5-0.6l0.6 0.5c2.7 2.5 4.5 4.5 4.3 4.7c-0.2 0.3-2.4-1.2-5.3-3.6l1-0.1c-0.6 0.9-1.2 1.7-1.9 2.5c-3.3 4-6.3 7.1-6.6 6.8z" /><path class="s6" d="m649.6 1141.6c0 0.4-17.9 0.8-40 0.8c-22.1 0-40.1-0.4-40.1-0.8c0-0.5 18-0.8 40.1-0.8c22.1 0 40 0.3 40 0.8z" /><path class="s6" d="m670.1 1146.4c-0.2-0.2-0.5-5-0.7-11.8l0.7 0.7c-3.6 0-7.6 0.1-11.8 0.1c-0.2 0.2 1.4-1.5 0.7-0.8v0.1v0.1v0.2v0.4v0.8v1.6q0 1.6 0 3.1q0 2.9-0.1 5.5l-0.6-0.7c6.7 0.2 11.5 0.6 11.8 0.7c0.2 0.2-4.4 0.5-11.8 0.7h-0.7v-0.7q0-2.6-0.1-5.5q0-1.5 0-3.1v-1.6v-0.8v-0.4v-0.2v-0.1v-0.1c-0.7 0.7 0.9-0.9 0.8-0.8c4.2 0.1 8.2 0.1 11.8 0.1l0.6 0.1v0.6c-0.1 7.4-0.5 12-0.6 11.8z" /><path class="s10" d="m654.1 1150.4c-0.3-0.2 2.1-3.7 5.4-7.8c0.7-0.8 1.4-1.6 2.1-2.4l0.5-0.6l0.5 0.5c2.7 2.6 4.6 4.5 4.3 4.8c-0.2 0.2-2.4-1.3-5.3-3.6l1.1-0.1c-0.7 0.8-1.3 1.6-1.9 2.4c-3.4 4-6.3 7.1-6.7 6.8z" /><path class="s6" d="m316.7 1192.3c0-0.5 16.3-0.8 36.4-0.8c20 0 36.3 0.3 36.3 0.8c0 0.4-16.3 0.8-36.3 0.8c-20.1 0-36.4-0.4-36.4-0.8z" /><path class="s6" d="m298.2 1187.9c0.1 0.2 0.5 4.6 0.6 10.7l-0.6-0.7q4.9 0 10.7-0.1c0.1-0.2-1.5 1.5-0.8 0.8v-0.1v-0.1v-0.2v-0.3v-0.8v-1.4q0-1.4 0-2.8q0.1-2.6 0.1-5l0.7 0.7c-6.1-0.2-10.5-0.6-10.7-0.7c-0.3-0.2 3.9-0.5 10.7-0.7h0.6l0.1 0.7q0 2.4 0 5q0 1.4 0.1 2.8v1.4v0.8v0.3v0.2v0.1v0.1c0.7-0.7-1 0.9-0.8 0.8q-5.8-0.1-10.7-0.1h-0.7v-0.7c0.2-6.8 0.5-10.9 0.7-10.7z" /><path class="s10" d="m312.6 1184.2c0.4 0.3-1.8 3.5-4.8 7.2c-0.6 0.7-1.2 1.4-1.9 2.1l-0.5 0.6l-0.5-0.5c-2.5-2.3-4.1-4.1-3.9-4.3c0.2-0.3 2.2 1.1 4.9 3.2l-1.1 0.1c0.6-0.8 1.2-1.5 1.8-2.2c3-3.7 5.7-6.4 6-6.2z" /><path class="s6" d="m302.3 1170.9c0-0.4 16.2-0.7 36.3-0.7c20.1 0 36.4 0.3 36.4 0.7c0 0.5-16.3 0.8-36.4 0.8c-20.1 0-36.3-0.3-36.3-0.8z" /><path class="s6" d="m283.7 1166.5c0.2 0.3 0.5 4.7 0.7 10.8l-0.7-0.7q5-0.1 10.7-0.1c0.2-0.2-1.5 1.5-0.8 0.8v-0.1v-0.1v-0.2v-0.4v-0.7v-1.4q0.1-1.4 0.1-2.8q0-2.6 0-5l0.7 0.6c-6.1-0.1-10.5-0.5-10.7-0.7c-0.2-0.1 4-0.5 10.7-0.6h0.7v0.7q0 2.4 0.1 5q0 1.4 0 2.8v1.4v0.7v0.4v0.2v0.1v0.1c0.7-0.7-0.9 0.9-0.8 0.7q-5.7 0-10.7-0.1h-0.7v-0.6c0.2-6.8 0.6-11 0.7-10.8z" /><path class="s10" d="m298.2 1162.9c0.3 0.3-1.9 3.5-4.9 7.2c-0.6 0.7-1.2 1.4-1.8 2.1l-0.5 0.6l-0.6-0.5c-2.4-2.3-4.1-4.1-3.9-4.3c0.3-0.3 2.3 1.1 4.9 3.2l-1 0.1c0.6-0.8 1.1-1.5 1.7-2.2c3-3.7 5.7-6.5 6.1-6.2z" /><path class="s6" d="m297.3 1146.9c0-0.5 16.3-0.8 36.4-0.8c20.1 0 36.3 0.3 36.3 0.8c0 0.4-16.2 0.7-36.3 0.7c-20.1 0-36.4-0.3-36.4-0.7z" /><path class="s6" d="m278.8 1142.5c0.2 0.2 0.5 4.6 0.7 10.7l-0.7-0.7q5-0.1 10.7-0.1c0.2-0.2-1.5 1.5-0.8 0.8v-0.1v-0.1v-0.2v-0.4v-0.7v-1.4q0-1.4 0-2.8q0.1-2.6 0.1-5l0.7 0.6c-6.1-0.1-10.5-0.5-10.7-0.6c-0.2-0.2 3.9-0.5 10.7-0.7h0.7v0.7q0 2.4 0 5q0.1 1.4 0.1 2.8v1.4v0.7v0.4v0.2v0.1v0.1c0.7-0.7-1 0.9-0.8 0.7q-5.7 0-10.7-0.1h-0.7v-0.6c0.2-6.8 0.5-11 0.7-10.7z" /><path class="s10" d="m293.2 1138.8c0.4 0.3-1.8 3.5-4.8 7.2c-0.6 0.7-1.2 1.4-1.8 2.1l-0.5 0.6l-0.6-0.5c-2.5-2.3-4.1-4.1-3.9-4.3c0.2-0.3 2.3 1.1 4.9 3.2l-1.1 0.1c0.6-0.8 1.2-1.5 1.8-2.2c3-3.7 5.7-6.5 6-6.2z" /><path class="s6" d="m292 1122.2c0-0.4 16.3-0.8 36.4-0.8c20 0 36.3 0.4 36.3 0.8c0 0.4-16.3 0.8-36.3 0.8c-20.1 0-36.4-0.4-36.4-0.8z" /><path class="s6" d="m273.5 1117.8c0.1 0.2 0.5 4.6 0.6 10.7l-0.6-0.7q4.9 0 10.7-0.1c0.1-0.1-1.5 1.5-0.8 0.8v-0.1v-0.1v-0.1v-0.4v-0.7v-1.5q0-1.4 0-2.7q0.1-2.7 0.1-5.1l0.7 0.7c-6.1-0.2-10.5-0.5-10.7-0.7c-0.3-0.1 3.9-0.5 10.7-0.7h0.6v0.7q0.1 2.4 0.1 5.1q0 1.3 0 2.7v1.5v0.7v0.4l0.1 0.1v0.1v0.1c0.6-0.7-1 1-0.8 0.8q-5.8-0.1-10.7-0.1h-0.7v-0.7c0.2-6.7 0.5-10.9 0.7-10.7z" /><path class="s10" d="m287.9 1114.2c0.4 0.3-1.8 3.5-4.8 7.1c-0.6 0.7-1.2 1.4-1.9 2.2l-0.5 0.6l-0.5-0.5c-2.5-2.3-4.1-4.1-3.9-4.4c0.2-0.2 2.2 1.1 4.9 3.3h-1.1c0.6-0.7 1.2-1.4 1.8-2.2c3-3.6 5.7-6.4 6-6.1z" /><path class="s6" d="m278.3 1097.9c0-0.4 16.2-0.8 36.3-0.8c20.1 0 36.3 0.4 36.3 0.8c0 0.4-16.2 0.8-36.3 0.8c-20.1 0-36.3-0.4-36.3-0.8z" /><path class="s6" d="m259.7 1093.5c0.2 0.2 0.5 4.6 0.7 10.7l-0.7-0.7q5 0 10.7-0.1c0.2-0.1-1.5 1.5-0.8 0.8v-0.1v-0.1v-0.2v-0.3v-0.7v-1.5q0-1.4 0.1-2.7q0-2.7 0-5.1l0.7 0.7c-6.1-0.2-10.5-0.5-10.7-0.7c-0.2-0.2 3.9-0.5 10.7-0.7h0.7v0.7q0 2.4 0.1 5.1q0 1.3 0 2.7v1.5v0.7v0.3v0.2v0.1v0.1c0.7-0.7-1 1-0.8 0.8q-5.7-0.1-10.7-0.1h-0.7v-0.7c0.2-6.7 0.5-10.9 0.7-10.7z" /><path class="s10" d="m274.2 1089.9c0.3 0.2-1.9 3.4-4.9 7.1c-0.6 0.7-1.2 1.4-1.8 2.2l-0.5 0.6l-0.6-0.5c-2.5-2.3-4.1-4.1-3.9-4.4c0.2-0.2 2.3 1.1 4.9 3.2l-1.1 0.1c0.6-0.7 1.2-1.4 1.8-2.2c3-3.7 5.7-6.4 6.1-6.1z" /><path class="s6" d="m492.2 976.4q0 0 0.7 0q0.7 0 1.8-0.1q2.6 0 7.2-0.1c6.4 0 15.5-0.1 26.8-0.2c23 0 55 0 91.8 0h-0.1c6.3-0.9 13 0.5 18.9 3.6c5.9 3.1 11 7.8 14.9 13.4c6.7 9.8 9.7 21 11.7 31.7c2.2 10.7 3.7 21.1 5 31c2.7 19.9 4.3 37.9 7.5 52.6c3.3 14.7 7.9 26.1 11.6 33.7c1.9 3.8 3.5 6.7 4.6 8.6q0.8 1.3 1.3 2.2q0.4 0.7 0.4 0.7q-0.1 0.1-0.6-0.6q-0.5-0.8-1.4-2.1c-1.2-1.9-2.9-4.7-4.8-8.5c-3.9-7.6-8.7-18.9-12.2-33.7c-3.4-14.9-5.1-32.9-7.8-52.7c-1.4-9.9-2.9-20.2-5.1-30.9c-2-10.6-5-21.6-11.5-31.1c-3.7-5.5-8.7-10-14.3-13c-5.7-2.9-12-4.3-18-3.4h-0.1c-36.8-0.2-68.8-0.4-91.8-0.5c-11.3-0.1-20.4-0.2-26.8-0.3q-4.6-0.1-7.2-0.1q-1.1-0.1-1.8-0.1q-0.7 0-0.7-0.1z" /><path class="s6" d="m191.9 1231.6q0.9-0.2 2.6-0.7c1.6-0.5 4.1-1.5 6.9-3.4c2.7-2 5.7-5.1 7.9-9.6c2.1-4.5 3.2-10.2 3.1-16.7c-0.1-6.4-1-13.7-3-21.3c-2-7.6-5.5-15.5-9-24c-1.7-4.3-3.4-8.8-4.9-13.5c-1.5-4.7-2.8-9.7-3.6-14.9c-1.5-10.4-0.2-22.2 6-32.3c3.1-5 7.4-9.5 13-12.2c1.5-0.6 2.9-1.4 4.4-1.7c0.8-0.2 1.5-0.4 2.3-0.6l2.4-0.3c3.2-0.5 6.5 0.4 9.4 2c5.7 3.1 10.2 8 14.3 13.2c4.1 5.2 7.6 11 10.8 17.1c3.2 6.1 6 12.5 8.3 19.2c1.2 3.4 2.2 6.8 2.9 10.4c0.6 3.6 0.9 7.1 1.5 10.7c1 7.2 2.2 14.5 4 21.7c1.8 7.3 4.1 14.5 6.7 21.7c1.3 3.6 2.6 7.2 4.7 10.4c2 3.2 4.6 6.1 7.5 8.7c2.9 2.5 6.2 4.8 9.5 6.8c3.5 2 6.9 3.9 10.6 5.3c3.7 1.4 7.7 2.2 11.6 2.3c4 0 8.1-0.4 12.2-0.8c8.1-0.7 16.3-2 24-5c7.8-2.8 15.1-7 22-12c7-4.7 12.7-11.1 17.7-18c10.1-14 17.1-30.2 21.9-47.2c2-7.6 3.6-15.3 4.6-23.1c0.9-7.8 1.4-15.6 2-23.3c1.4-15.4 2.9-30.7 5.9-45.5c1.5-7.4 3.4-14.7 5.5-21.8c2.2-7 4.3-14.1 7.4-20.8c3.1-6.6 6.9-12.9 11.5-18.3c4.7-5.5 10-10.3 16.5-13.5l-0.1 0.1c5.4-3.1 11.4-5.1 17.6-5c6.2 0 12.2 2.3 16.8 6.2c4.6 4 7.8 9.1 10.3 14.3c2.5 5.3 4.3 10.7 6.1 16c7.3 21.3 11.5 42.5 14.4 62.5c2.8 20.1 4.2 39.1 5.5 56.7c1.2 17.6 3.1 33.8 7.6 47.9c4.3 14 11 25.8 19 34.1c7.9 8.3 16.8 13.1 24.4 15.6c7.6 2.4 13.9 2.6 18 2.4c2.1-0.2 3.7-0.4 4.7-0.6q1.1-0.2 1.6-0.2q-0.5 0.1-1.6 0.3c-1 0.3-2.6 0.5-4.7 0.7c-4.1 0.3-10.4 0.3-18.1-2.2c-7.7-2.4-16.8-7.1-24.8-15.5c-8.1-8.4-15-20.2-19.4-34.3c-4.6-14.2-6.5-30.5-7.8-48.1c-1.3-17.6-2.8-36.6-5.6-56.6c-2.9-20-7.2-41-14.5-62.3c-1.8-5.3-3.6-10.6-6.1-15.8c-2.4-5.1-5.5-10.1-9.9-13.8c-4.4-3.8-10.1-5.9-15.9-5.9c-5.9 0-11.7 1.9-16.9 4.8l-0.1 0.1c-6 2.9-11.3 7.7-15.8 13c-4.6 5.4-8.3 11.5-11.3 18.1c-3.1 6.5-5.2 13.5-7.3 20.5c-2.1 7.1-4 14.3-5.5 21.7c-3 14.7-4.5 29.9-5.8 45.3c-0.7 7.8-1.1 15.6-2.1 23.4c-1 7.8-2.6 15.6-4.6 23.3c-4.8 17.2-11.9 33.6-22.1 47.7c-5.1 7-11 13.5-18.1 18.4c-7 5-14.4 9.3-22.3 12.2c-8 3-16.3 4.3-24.5 5c-4.1 0.4-8.1 0.8-12.3 0.8c-4.2-0.1-8.2-1-12.1-2.4c-3.8-1.4-7.4-3.4-10.8-5.4c-3.5-2.1-6.8-4.4-9.7-7c-3-2.7-5.7-5.7-7.8-9c-2.2-3.4-3.5-7.1-4.8-10.7c-2.6-7.3-5-14.5-6.8-21.8c-1.8-7.3-3-14.7-4-21.9c-1-14.6-6.2-27.8-12.4-39.9c-3.2-6-6.7-11.8-10.7-17c-4-5.1-8.4-9.9-13.9-12.9c-5.4-3.3-12-1.8-17.4 0.6c-5.3 2.6-9.6 7-12.6 11.8c-6 9.8-7.3 21.4-5.9 31.6c0.7 5.1 2 10 3.5 14.7c1.5 4.7 3.1 9.2 4.8 13.5c3.5 8.5 6.9 16.4 8.9 24.1c2 7.7 2.9 15 2.9 21.5c0.1 6.5-1.1 12.4-3.3 16.9c-2.2 4.6-5.3 7.7-8.2 9.6c-2.8 2-5.3 2.9-7 3.4q-1.7 0.4-2.6 0.5z" /><path class="s6" d="m402.6 1188.4q-0.1 0-0.6-0.3c-0.3-0.3-0.9-0.7-1.5-1.3c-1.3-1.1-3.1-2.8-5.3-5.1c-2.2-2.4-4.8-5.3-7.5-9.1c-2.6-3.7-5.4-8.2-7.4-13.7c-1.8-5.5-3-11.7-4.1-18.4c-1-6.7-1.9-13.9-3.2-21.3c-1.3-7.4-3.3-15.2-7.2-22.4c-1.9-3.6-4.2-7-7.2-10c-1.4-1.5-3-2.9-4.8-3.7c-1.9-0.9-4-1.4-6.1-1.8c-8.5-1.5-17.1-1.4-25.3-1.3c-8.2 0.1-16.2 0.5-23.8 0.6c-15.2 0.1-28.8 0.2-40.4 0.3c-11.3 0.1-20.6 0.1-27.1 0.1q-4.7 0-7.4 0c-1.7 0-2.6-0.1-2.6-0.1c0-0.1 0.9-0.1 2.6-0.2q2.7-0.1 7.3-0.3c6.6-0.1 15.9-0.3 27.2-0.6c11.6-0.2 25.2-0.4 40.4-0.6c7.5-0.1 15.5-0.6 23.8-0.7c8.2-0.2 16.9-0.3 25.6 1.2c2.2 0.5 4.4 1 6.5 2c1 0.4 2 1.1 2.9 1.8c0.8 0.7 1.6 1.4 2.3 2.2c3.1 3.1 5.5 6.7 7.5 10.4c3.9 7.4 5.9 15.3 7.2 22.8c1.3 7.6 2.1 14.7 3.1 21.4c1 6.6 2.2 12.8 3.9 18.2c1.8 5.4 4.5 9.9 7 13.6c2.6 3.8 5.1 6.8 7.2 9.2c2.1 2.4 3.9 4.1 5.1 5.3c1.2 1.2 1.9 1.8 1.9 1.8z" /><path class="s11" d="m1033 281.4c0-7.2 4.3-14.1 10.7-17.4c1.1-0.5 2.2-1 3.4-0.9c1.1 0 2.3 0.7 2.7 1.8c0.5 1.1-0.1 2.4-0.9 3.4c-0.9 0.9-2 1.5-2.9 2.3c-3 2.4-4.5 6.5-3.7 10.3" /><path class="s0" d="m1033.1 148.4q10.3 69.9 9 93c-1.3 23.2 5.9 91.3-46.4 153.4c-34.7 41.2-38.2 76.4-38.2 94.6c0.1 19 3.8 124.8-6.5 190.1c-10.3 65.4-77.3 94.3-90.1 122.7c-12.9 28.3-20.7 360.2-20.7 383.7c0 14-5.9 24.1-13.2 31.3c-10 9.9-23.8 15.1-38 15.1h-166.4q29.6 2.5 58-24.5c34.7-36.1 19.3-377.3 41.2-445.6c21.9-68.2 72.1-52.7 95.3-82.7c23.1-29.9 18-42.2 14.1-158.1c-3.8-115.8 46.4-126.1 79.9-184.1c19.3-33.5 20.2-88.5 17.4-129c-1.9-28.5 19.4-53.4 47.9-55.6z" /><path class="s1" d="m943.1 167.5q10.1-13.7 93.4-6.4l3.8 54.7c-17.1 4-34.6 6.2-52.1 6.5c-5.6 0.1-11.7-0.1-16-3.8c-6.6-5.6-5.5-16.4-10.4-23.7c-3.5-5-9.9-7.7-15.9-6.7c-6 1-11.2 5.7-12.8 11.5q-0.1-18.5 10-32.1z" /><path class="s2" d="m929.3 220.8c-4.4-45.9 14-58.4 31.9-67c17.9-8.5 38.4-9.2 58.2-9.7c11.1-0.3 22.3-0.6 33.1 1.7c10.8 2.4 25.9 21.7 28 29.1q-28.7 2.2-89 10.9q-15.3-22.4-30.8-20.2c-12.3 1.8-22.4 12.4-25.9 26.9c-2.9 12-5.7 22.9-5.7 35.3" /><path class="s6" d="m1046.5 147.2c0 0-1.1 0.2-3 0.3q-3.5 0.3-8.2 0.7c-6.9 0.5-16.4 1.2-26.9 2.3c-10.5 1.1-20 2.5-26.8 3.7q-4.7 0.8-8.1 1.4c-1.9 0.4-2.9 0.5-2.9 0.5c-0.1-0.1 1-0.4 2.9-0.8c1.8-0.5 4.6-1.1 8-1.8c6.8-1.4 16.2-2.8 26.8-3.9c10.5-1.1 20-1.7 26.9-2.1q4.8-0.2 8.2-0.3c2-0.1 3.1-0.1 3.1 0z" /><path class="s6" d="m859.6 805.8c0.1 0.5-25.5 4.6-57.1 9.3c-31.6 4.7-57.3 8.1-57.4 7.7c0-0.4 25.5-4.6 57.2-9.3c31.6-4.6 57.3-8.1 57.3-7.7z" /><path class="s6" d="m865.6 793.3c0.1 0.5-23.4 1-52.4 1.1c-29 0.2-52.5 0-52.5-0.4c0-0.5 23.5-0.9 52.5-1.1c28.9-0.2 52.4 0 52.4 0.4z" /><path class="s13" d="" /><path class="s6" d="m630 1232.6q1-0.1 2.9-0.4c1.9-0.2 4.7-0.7 8.3-1.7c7.2-1.9 17.6-6.2 29.1-14.5c2.9-2.1 5.9-4.4 8.9-7c2.9-2.5 4.9-6.2 6.6-10.2c3.3-7.9 5.4-17.2 7.2-27.1c3.6-19.9 5.8-42.8 7.6-68.2c3.5-50.9 4.9-111.5 7-178.9c1.1-33.6 2.2-69 5-105.6c0.8-9.1 1.7-18.3 2.8-27.6c1.3-9.2 2.6-18.6 5.3-27.8c1.5-4.5 3.3-8.9 5-13.4l3.2-6.5l1.6-3.2c0.6-1.1 1.3-2.1 2-3.1c4.8-8.4 11.7-15.6 19.5-21.4c7.9-5.9 16.8-10.1 25.7-13.7c8.9-3.6 18-6.8 25.9-11.7l3-1.8c0.9-0.7 1.8-1.5 2.7-2.2l2.7-2.2l2.3-2.6c0.8-0.8 1.6-1.7 2.4-2.6l2-2.8c1.5-1.8 2.7-3.7 4-5.7c2.5-3.8 4.6-8 6.3-12.2c1.5-4.3 2.7-8.7 3.3-13.2c1.4-9 1.6-18.1 1.6-27.1c-0.1-8.9-0.4-17.8-0.7-26.7q-1-26.4-2-51.7c-0.2-8.4-0.7-16.7-0.7-24.9q0-6.2 0-12.3c0.1-4 0.4-8 0.6-12c0.2-8 1.6-15.8 2.5-23.5c1.7-7.6 3-15.2 5.4-22.3c4.5-14.4 11.1-27.5 19-39c8-11.5 16.9-21.5 25.2-31.1c8.3-9.6 15.8-19.2 22.2-28.7q2.2-3.6 4.4-7.2c1.5-2.3 2.7-4.8 4-7.1c2.2-4.9 4.2-9.8 5.8-14.6c6.1-19.2 7.9-36.7 9-50.9c1-14.2 0.9-25.2 0.9-32.7q-0.1-5.6-0.2-8.6q0-1.9 0-2.9q0.3 4 0.5 11.5c0.2 7.5 0.3 18.5-0.6 32.8c-1 14.2-2.7 31.7-8.8 51.1c-1.5 4.8-3.5 9.7-5.8 14.7c-1.3 2.3-2.4 4.9-3.9 7.2q-2.2 3.6-4.5 7.2c-6.3 9.7-13.9 19.2-22.2 28.9c-8.2 9.7-17.1 19.7-25 31.1c-7.8 11.4-14.4 24.4-18.7 38.7c-2.5 7-3.7 14.5-5.3 22.1c-0.9 7.6-2.3 15.4-2.5 23.4c-0.2 3.9-0.6 7.9-0.6 12q0 6 0.1 12.2c-0.1 8.2 0.4 16.5 0.6 24.9q1.1 25.2 2.1 51.7c0.3 8.8 0.6 17.7 0.7 26.7c0 9-0.2 18.2-1.6 27.3c-0.6 4.6-1.8 9.1-3.4 13.5c-1.7 4.4-3.8 8.6-6.4 12.5c-1.3 2-2.6 4-4 5.8l-2.1 2.9c-0.8 0.9-1.6 1.8-2.4 2.7l-2.4 2.6l-2.8 2.3c-0.9 0.7-1.8 1.5-2.8 2.2l-3 1.9c-8.2 5.1-17.3 8.3-26.2 11.9c-8.8 3.5-17.6 7.6-25.3 13.4c-7.7 5.8-14.4 12.8-19.2 21.1c-0.7 1-1.3 1.9-1.9 3l-1.6 3.1l-3.2 6.4c-1.7 4.4-3.4 8.8-4.9 13.3c-2.6 9-4 18.3-5.2 27.5c-1.2 9.2-2.1 18.4-2.8 27.6c-2.9 36.5-4 71.8-5.2 105.5c-2.1 67.3-3.7 128-7.3 178.8c-1.9 25.4-4.2 48.4-7.8 68.4c-1.9 9.9-4 19.2-7.4 27.2c-1.7 4-3.8 7.8-6.9 10.4c-3 2.6-6 4.9-8.9 7c-11.7 8.3-22.2 12.4-29.4 14.3c-3.7 0.9-6.5 1.4-8.4 1.6q-1.9 0.2-2.9 0.2z" /><path class="s6" d="m929.3 222q-0.1-1.3-0.3-3.8q-0.2-3.8-0.7-11.1c-0.1-2.5 0-5.2 0.3-8.3c0.3-3 1.2-6.2 1.9-9.7c1.6-7 4.7-15 11.2-21.9c6.4-7 15.7-12.1 26.3-16.3c10.7-4 22.9-6.4 36.2-7.6c6.6-0.6 13.5-0.8 20.5-1c7.1-0.1 14.6 0.3 21.9 2.3c3.7 1 7.3 2.3 10.9 3.9c3.5 1.8 6.8 4.1 9.9 6.6c3 2.6 5.9 5.5 8.5 8.8c1.2 1.6 2.4 3.3 3.4 5.2c0.9 1.9 1.8 3.9 1.8 6.2v0.5l-0.5 0.1c-13.5 1.1-27.9 4.1-43 6l0.5-0.7c1.8 14.7 3.6 29.9 4.5 45.7c0.2 4 0.4 7.9 0.3 12c-0.1 4.1-0.3 8-0.3 12.1c0 8.2-0.1 16.5-0.6 24.9c-1.1 16.8-3.5 34-8.6 51c-5.1 17-12.7 33.8-22.8 49.3c-9.9 15.8-23.7 29.1-33 45.9c-9.6 16.4-16.6 35.1-18.6 54.7c-1.1 9.8-0.4 19.8-0.4 29.9q0.2 15.1 0.4 30.4c0.2 20.4 0 41.1-0.7 62c-0.8 24.1-2.1 47.9-5.1 71.2c-1.3 11.7-4 23.2-8.3 34c-4.4 10.8-10.7 20.6-17.6 29.6c-14.1 18.1-31.6 32.3-47.6 47.1q-2.9 2.8-5.9 5.6c-1.8 2-3.6 4-5.4 6l-2.4 3.2c-0.9 1-1.7 2.1-2.3 3.3l-1.9 3.4c-0.6 1.2-0.9 2.4-1.3 3.6c-2.5 10.3-3.5 20.9-4.7 31.2c-4 41.6-5.8 81.2-7.6 118.3c-1.8 37.1-3 71.6-4.1 103.2c-1.1 31.6-1.9 60.1-2.5 85.2q-0.5 18.8-0.8 34.9c-0.2 5.4 0.1 10.6-0.9 15.4c-0.8 4.9-2.5 9.4-4.7 13.2c-4.4 7.8-10.5 13.2-16.2 16.8c-5.8 3.7-11.3 5.6-15.9 6.7c-4.5 1.2-8 1.5-10.4 1.6q-2.4 0.1-3.6 0q0.3 0 0.9 0c0.6-0.1 1.5-0.1 2.7-0.2c2.3-0.1 5.9-0.5 10.4-1.7c4.4-1.1 9.9-3.1 15.6-6.7c5.7-3.7 11.6-9.1 16-16.8c2.1-3.8 3.7-8.2 4.6-13c0.9-4.8 0.6-9.9 0.7-15.3q0.3-16.1 0.7-34.9c0.5-25.1 1.3-53.7 2.3-85.2c1-31.6 2.2-66.2 3.9-103.3c1.7-37.1 3.5-76.7 7.5-118.3c1.1-10.4 2.1-20.9 4.6-31.5c0.5-1.2 0.9-2.6 1.5-3.8l2-3.6c0.6-1.2 1.4-2.3 2.3-3.4l2.5-3.3c1.8-2 3.6-4 5.5-6q2.9-2.8 5.9-5.7c16.1-14.8 33.5-29 47.4-46.9c6.8-9 13-18.6 17.4-29.3c4.2-10.7 6.9-21.9 8.1-33.6c3.1-23.2 4.3-47 5.2-71.1c0.7-20.8 0.8-41.5 0.7-61.9q-0.2-15.3-0.4-30.4c-0.1-10-0.7-20.1 0.4-30c2-20 9.1-38.8 18.8-55.4c9.5-17 23.3-30.3 33.1-45.9c10-15.4 17.5-32 22.6-48.9c5.1-16.9 7.5-34 8.6-50.7c0.5-8.4 0.7-16.6 0.7-24.8c0-4 0.2-8.2 0.3-12.1c0.1-4-0.1-8-0.3-11.9c-0.9-15.8-2.6-31-4.4-45.6l-0.1-0.6l0.6-0.1c15.1-1.9 29.5-4.8 43.1-6l-0.5 0.6c-0.2-4-2.6-7.6-5-10.8c-2.5-3.1-5.3-6-8.3-8.5c-3.1-2.6-6.2-4.9-9.7-6.5c-3.4-1.6-7-2.9-10.6-3.9c-7.3-2-14.6-2.4-21.6-2.3c-7.1 0.1-14 0.4-20.6 0.9c-13.2 1.1-25.3 3.5-35.9 7.5c-10.5 4.1-19.8 9.1-26.2 15.9c-6.4 6.8-9.5 14.7-11.2 21.6c-0.7 3.5-1.5 6.7-1.9 9.7c-0.3 3-0.4 5.7-0.3 8.1q0.3 7.4 0.5 11.2q0.1 2.5 0.1 3.8z" /><path class="s6" d="m1080.6 175.3q-0.1 0.1-1.7 0.4q-2 0.2-4.9 0.7c-4.5 0.6-10.6 1.4-18.1 2.4c-15.4 1.9-36.4 4.4-59.5 7.2c-1.7 0.2-3.3 0.4-4.8 0.6l-0.5 0.1l-0.2-0.5c-3.1-4.6-6.3-8.9-10-12.5c-3.7-3.6-8-6.3-12.6-7.2c-4.6-1-9.2-0.5-13.1 0.7c-3.9 1.3-7.2 3.6-9.7 6.1c-4.9 5.1-7.3 10.5-8.8 14.2q-1.1 2.8-1.6 4.3c-0.3 1-0.4 1.6-0.5 1.5c0 0 0-0.5 0.2-1.6q0.4-1.5 1.3-4.4c1.4-3.8 3.6-9.4 8.7-14.8c2.5-2.6 5.9-5.1 10-6.5c4.2-1.3 8.9-1.9 13.8-0.9c4.9 0.9 9.5 3.8 13.3 7.5c3.8 3.7 7.2 8.1 10.3 12.8l-0.8-0.4c1.5-0.1 3.2-0.3 4.8-0.5c23.2-2.7 44.1-5.1 59.6-6.8c7.5-0.8 13.6-1.4 18.1-1.9q3-0.3 4.9-0.5q1.7-0.1 1.8 0z" /><path class="s11" d="m1042 286.8c0 1.5-1 2.9-2.4 3.4l-18 6.8c-2.8 1-6.5 1.8-8.2-0.6c-1.2-1.6-0.6-4 0.7-5.5c1.4-1.5 3.3-2.3 5.1-3.1c7-2.9 14.6-5.8 21.6-8.7c0.7-0.3 1.4 0.2 1.4 1z" /><path class="s11" d="m1042.7 292.8c0.8 3.7-1.2 7.4-4.7 8.8c-5.3 2-12.7 4.8-16.7 6.4c-2.8 1-6.5 1.8-8.2-0.6c-1.2-1.6-0.6-4 0.7-5.5c1.4-1.5 3.3-2.4 5.1-3.1c6.6-2.8 13.9-5.6 20.6-8.4c1.3-0.5 2.7 0.3 3 1.6z" /><path class="s11" d="m1039.7 301.8c1.3 5.4-1.6 10.9-6.8 12.9c-4.9 1.8-9.9 3.8-14 5.3c-2.7 1-6.4 1.8-8.1-0.6c-1.2-1.6-0.6-4 0.7-5.5c1.3-1.5 3.3-2.3 5.1-3.1c7.4-3.1 15.6-6.2 23-9.3z" /><path class="s6" d="m966.1 444.1c0.2 0.4-21.9 8.5-49.2 18.1c-27.4 9.7-49.7 17.1-49.8 16.7c-0.2-0.4 21.9-8.5 49.2-18.1c27.4-9.7 49.7-17.2 49.8-16.7z" /><path class="s6" d="m954.3 456.1c0.1 0.1-2.9 2.3-8 5.6c-5 3.4-12.1 7.8-20 12.5c-8 4.7-15.3 8.8-20.6 11.6c-5.4 2.9-8.7 4.5-8.8 4.3c-0.1-0.2 3-2.1 8.2-5.2c5.6-3.3 12.6-7.4 20.4-12c7.7-4.6 14.7-8.8 20.3-12.1c5.2-3.1 8.4-4.9 8.5-4.7z" /><path class="s6" d="m492 87.9q0 0.1 0.1 1q0 1.1 0 2.7q0.1 3.8 0.2 10.1c0.1 8.7 0.2 20.9 0.4 35.4l-0.7-0.6c14.3-0.1 31.2-0.1 49.2-0.2c0.2-0.1-1.5 1.5-0.8 0.8v-0.1v-0.1v-0.2v-0.4v-0.9v-1.6v-3.4q0-3.3 0-6.5q0-6.6 0-12.8c0.1-8.2 0.1-16 0.1-23.2l0.7 0.7c-14.5-0.1-26.7-0.3-35.5-0.3q-6.3-0.2-10-0.2q-1.6-0.1-2.7-0.1q-1 0-1-0.1c-0.1 0 1.1-0.1 3.4-0.1q3.7-0.1 9.9-0.2c8.9-0.1 21.2-0.2 35.9-0.4h0.7v0.7c0 7.2 0 15 0.1 23.2q0 6.2 0 12.8q0 3.2 0 6.5v3.4v1.6v0.9v0.4v0.2v0.1v0.1c0.7-0.7-1 1-0.8 0.8c-18 0-34.9-0.1-49.2-0.1h-0.7v-0.7c0.2-14.7 0.3-27 0.4-35.9q0.1-6.2 0.1-9.9c0.1-2.2 0.1-3.4 0.2-3.4z" /><path class="s10" d="m551.5 76.9c1 0.9-9.5 15.2-23.3 32.1c-2.9 3.5-5.7 6.9-8.4 9.9l-1.5 1.8l-1.6-1.5c-11.5-10.4-19.4-18.3-18.7-19c0.7-0.8 9.6 5.8 21.6 15.7l-3.2 0.2c2.5-3.1 5.2-6.5 8.1-10.1c13.9-16.9 26-29.9 27-29.1z" /><path class="s8" d="m520.5 41q-1.3 0.1-3.6 0.3c-0.8 0.1-1.7 0.1-2.6 0.2q-1.5 0.2-3.2 0.5q-1.7 0.3-3.6 0.6q-2 0.5-4.1 1.1c-5.8 1.6-12.7 4.2-19.8 8.9c-7.1 4.6-14.4 11.2-20.3 20.1c-5.8 8.9-10.3 20.1-11.4 32.5c-0.1 3.2-0.5 6.3-0.1 9.6c0.1 1.6 0 3.2 0.3 4.8q0.4 2.5 0.7 4.9c1.4 6.5 3.4 13.2 6.7 19.4c3.3 6.2 7.5 12.1 12.7 17.3c5.3 5.2 11.4 9.6 18.2 13.1c6.8 3.4 14.3 5.8 22.2 6.7c1.9 0.4 3.9 0.4 5.9 0.5c2 0.2 4 0.2 6 0.1q6-0.2 11.9-1.5c8.6-1.8 16.7-5.3 23.9-10l0.3-0.2l0.4 0.1q12.7 5.1 24.8 10l-1 1q-3.8-13.7-7.3-26.6l-0.1-0.3l0.2-0.3c6.9-9.1 11.3-19.4 13.1-29.7c0.9-5.1 1.3-10.3 1-15.2c-0.1-2.5-0.2-5-0.6-7.4q-0.3-1.8-0.6-3.5c-0.2-1.2-0.5-2.3-0.8-3.5c-4.6-18.3-15.8-32-27-39.9c-11.2-8.2-22.2-11.1-29.5-12.4c-1.8-0.3-3.5-0.7-4.9-0.8q-2.1-0.1-3.6-0.2q-1.4-0.1-2.2-0.2q-0.8-0.1-0.8-0.1q0 0 0.8 0q0.8 0 2.2 0q1.5 0.1 3.6 0.1c1.5 0.1 3.1 0.4 5 0.7c1 0.1 2 0.2 3 0.4q1.5 0.4 3.2 0.8q1.7 0.4 3.5 0.9q1.8 0.7 3.7 1.3c5.2 1.8 10.8 4.7 16.5 8.7c11.4 7.9 22.9 21.7 27.7 40.4c0.3 1.2 0.7 2.3 0.9 3.5q0.3 1.8 0.6 3.7c0.4 2.4 0.6 4.9 0.7 7.4c0.3 5.1-0.1 10.3-1 15.6c-1.8 10.4-6.3 21-13.3 30.3l0.2-0.7q3.5 12.9 7.3 26.6l0.4 1.5l-1.5-0.6q-12.1-4.9-24.8-10h0.7c-7.2 4.8-15.5 8.3-24.3 10.2c-4.1 0.9-8.2 1.4-12.3 1.6c-2 0.1-4.1 0-6.1-0.2c-2-0.1-4-0.1-6-0.5c-8-0.9-15.7-3.4-22.7-6.9c-7-3.5-13.2-8.1-18.6-13.4c-5.3-5.4-9.6-11.4-12.9-17.7c-3.4-6.4-5.4-13.2-6.7-19.8q-0.4-2.5-0.8-5c-0.2-1.7-0.2-3.3-0.3-5c-0.3-3.3 0.1-6.5 0.2-9.7c1.2-12.7 5.8-24 11.8-33c6-9 13.5-15.6 20.7-20.2c7.2-4.7 14.3-7.3 20.1-8.8q2.2-0.5 4.2-1q1.9-0.3 3.7-0.6q1.7-0.2 3.1-0.4c1-0.1 1.9-0.1 2.7-0.1q2.3-0.1 3.6-0.1q1.2-0.1 1.2 0q0 0-1.2 0.1z" /></svg>