<?xml version="1.0" encoding="utf-8"?>
<svg viewBox="153.333 495.756 3693.333 1717.153" width="3693.333px" height="1717.153px" xmlns="http://www.w3.org/2000/svg">
  <path d="m 4602.93,11789.2 c 1312.09,451.4 1769.79,6771.4 7597.87,3611.4 1255,-680.5 2809,-546.6 4477.5,-412.7 1413,113.3 2908.2,226.7 4373.6,-154.4 2935.2,-763.4 3002.7,-2965.4 2631.6,-3758.1 -405.5,-866.2 1211.5,-1901.8 2867.6,-2613 2597.8,-1115.7 687.5,-5036.6 -1766.6,-5055.4 -2454.1,-18.7 -20484.14,37.3 -20484.14,37.3 0,0 -4906.419,6552.7 302.57,8344.9" style="fill-opacity: 1; fill-rule: nonzero; stroke: none; fill: rgb(198, 223, 255);" id="path16" transform="matrix(0.133333, 0, 0, -0.133333, 0, 2666.666748)"/>
  <path d="m 18511,9682.7 h 5468 V 13539 H 18511 V 9682.7" style="fill-opacity: 1; fill-rule: nonzero; stroke: none; fill: rgb(231, 241, 255);" id="path18" transform="matrix(0.133333, 0, 0, -0.133333, 0, 2666.666748)"/>
  <path d="m 18700.3,9883.2 h 5089.4 v 3455.4 H 18700.3 V 9883.2" style="fill-opacity: 1; fill-rule: nonzero; stroke: none; fill: rgb(255, 255, 255);" id="path20" transform="matrix(0.133333, 0, 0, -0.133333, 0, 2666.666748)"/>
  <path d="m 19131.5,11447 h 1038.2 c 28.1,0 51.1,-23 51.1,-51.1 0,-28.1 -23,-51.2 -51.1,-51.2 h -1038.2 c -28.1,0 -51.1,23.1 -51.1,51.2 0,28.1 23,51.1 51.1,51.1" style="fill-opacity: 1; fill-rule: nonzero; stroke: none; fill: rgb(26, 120, 241);" id="path26" transform="matrix(0.133333, 0, 0, -0.133333, 0, 2666.666748)"/>
  <path d="m 19131.5,11235.3 h 1038.2 c 28.1,0 51.1,-23.1 51.1,-51.2 0,-28.1 -23,-51.1 -51.1,-51.1 h -1038.2 c -28.1,0 -51.1,23 -51.1,51.1 0,28.1 23,51.2 51.1,51.2" style="fill-opacity: 1; fill-rule: nonzero; stroke: none; fill: rgb(26, 120, 241);" id="path28" transform="matrix(0.133333, 0, 0, -0.133333, 0, 2666.666748)"/>
  <path d="m 19131.5,10999.9 h 1038.2 c 28.1,0 51.1,-23 51.1,-51.2 0,-28.1 -23,-51.1 -51.1,-51.1 h -1038.2 c -28.1,0 -51.1,23 -51.1,51.1 0,28.2 23,51.2 51.1,51.2" style="fill-opacity: 1; fill-rule: nonzero; stroke: none; fill: rgb(26, 120, 241);" id="path30" transform="matrix(0.133333, 0, 0, -0.133333, 0, 2666.666748)"/>
  <path d="m 19131.5,10764.5 h 1038.2 c 28.1,0 51.1,-23 51.1,-51.2 0,-28.1 -23,-51.1 -51.1,-51.1 h -1038.2 c -28.1,0 -51.1,23 -51.1,51.1 0,28.2 23,51.2 51.1,51.2" style="fill-opacity: 1; fill-rule: nonzero; stroke: none; fill: rgb(26, 120, 241);" id="path32" transform="matrix(0.133333, 0, 0, -0.133333, 0, 2666.666748)"/>
  <path d="m 19131.5,12559.6 h 1038.2 c 28.1,0 51.1,-23 51.1,-51.2 0,-28.1 -23,-51.1 -51.1,-51.1 h -1038.2 c -28.1,0 -51.1,23 -51.1,51.1 0,28.2 23,51.2 51.1,51.2" style="fill-opacity: 1; fill-rule: nonzero; stroke: none; fill: rgb(26, 120, 241);" id="path34" transform="matrix(0.133333, 0, 0, -0.133333, 0, 2666.666748)"/>
  <path d="m 19131.5,12347.8 h 1038.2 c 28.1,0 51.1,-23 51.1,-51.1 0,-28.1 -23,-51.2 -51.1,-51.2 h -1038.2 c -28.1,0 -51.1,23.1 -51.1,51.2 0,28.1 23,51.1 51.1,51.1" style="fill-opacity: 1; fill-rule: nonzero; stroke: none; fill: rgb(26, 120, 241);" id="path36" transform="matrix(0.133333, 0, 0, -0.133333, 0, 2666.666748)"/>
  <path d="m 19131.5,12112.4 h 1038.2 c 28.1,0 51.1,-23 51.1,-51.1 0,-28.1 -23,-51.1 -51.1,-51.1 h -1038.2 c -28.1,0 -51.1,23 -51.1,51.1 0,28.1 23,51.1 51.1,51.1" style="fill-opacity: 1; fill-rule: nonzero; stroke: none; fill: rgb(26, 120, 241);" id="path38" transform="matrix(0.133333, 0, 0, -0.133333, 0, 2666.666748)"/>
  <path d="m 19131.5,11877.1 h 1038.2 c 28.1,0 51.1,-23.1 51.1,-51.2 0,-28.1 -23,-51.1 -51.1,-51.1 h -1038.2 c -28.1,0 -51.1,23 -51.1,51.1 0,28.1 23,51.2 51.1,51.2" style="fill-opacity: 1; fill-rule: nonzero; stroke: none; fill: rgb(26, 120, 241);" id="path40" transform="matrix(0.133333, 0, 0, -0.133333, 0, 2666.666748)"/>
  <path d="m 20431.2,12149.2 h 256.6 c 42.3,0 76.9,34.6 76.9,76.9 v 256.6 c 0,42.3 -34.6,76.9 -76.9,76.9 h -256.6 c -42.3,0 -76.9,-34.6 -76.9,-76.9 v -256.6 c 0,-42.3 34.6,-76.9 76.9,-76.9" style="fill-opacity: 1; fill-rule: nonzero; stroke: none; fill: rgb(26, 120, 241);" id="path42" transform="matrix(0.133333, 0, 0, -0.133333, 0, 2666.666748)"/>
  <path d="m 20431.2,11036.7 h 256.6 c 42.3,0 76.9,34.6 76.9,76.8 v 256.6 c 0,42.3 -34.6,76.9 -76.9,76.9 h -256.6 c -42.3,0 -76.9,-34.6 -76.9,-76.9 v -256.6 c 0,-42.2 34.6,-76.8 76.9,-76.8" style="fill-opacity: 1; fill-rule: nonzero; stroke: none; fill: rgb(26, 120, 241);" id="path44" transform="matrix(0.133333, 0, 0, -0.133333, 0, 2666.666748)"/>
  <path d="m 20681.9,11259.3 -75.4,-165.4 -182.6,288.5 194.8,-163.9 63.2,40.8" style="fill-opacity: 1; fill-rule: nonzero; stroke: none; fill: rgb(255, 255, 255);" id="path46" transform="matrix(0.133333, 0, 0, -0.133333, 0, 2666.666748)"/>
  <path d="m 20681.9,12375.6 -75.4,-165.4 -182.6,288.5 194.8,-163.9 63.2,40.8" style="fill-opacity: 1; fill-rule: nonzero; stroke: none; fill: rgb(255, 255, 255);" id="path48" transform="matrix(0.133333, 0, 0, -0.133333, 0, 2666.666748)"/>
  <path d="M 19410.9,13131.3 H 23079 c 24.7,0 44.6,19.9 44.6,44.5 0,24.6 -19.9,44.6 -44.6,44.6 h -3668.1 c -24.6,0 -44.5,-20 -44.5,-44.6 0,-24.6 19.9,-44.5 44.5,-44.5" style="fill-opacity: 1; fill-rule: nonzero; stroke: none; fill: rgb(26, 120, 241);" id="path50" transform="matrix(0.133333, 0, 0, -0.133333, 0, 2666.666748)"/>
  <path d="m 10734.8,3423.2 h 6076.5 v 10582.9 h -6076.5 z" style="fill-opacity: 1; fill-rule: nonzero; stroke: none; fill: rgb(222, 237, 255);" id="path52" transform="matrix(0.133333, 0, 0, -0.133333, 0, 2666.666748)"/>
  <path d="m 11168.9,3423.2 h 5208.3 v 10131.4 h -5208.3 z" style="fill-opacity: 1; fill-rule: nonzero; stroke: none; fill: rgb(189, 217, 255);" id="path54" transform="matrix(0.133333, 0, 0, -0.133333, 0, 2666.666748)"/>
  <path d="m 18746.2,5446.8 h 7511.3 c 50.4,0 91.6,41.2 91.6,91.6 v 2696.1 h -7184.2 c -280.7,0 -510.3,-229.6 -510.3,-510.3 V 5538.4 c 0,-50.4 41.2,-91.6 91.6,-91.6" style="fill-opacity: 1; fill-rule: nonzero; stroke: none; fill: rgb(133, 175, 232);" id="path56" transform="matrix(0.133333, 0, 0, -0.133333, 0, 2666.666748)"/>
  <path d="m 18220.4,5619.3 h 7615.1 c 276.6,0 503,-226.4 503,-503 V 3943.9 c 0,-276.7 -226.4,-503 -503,-503 h -7615.1 c -276.7,0 -503,226.3 -503,503 v 1172.4 c 0,276.6 226.3,503 503,503" style="fill-opacity: 1; fill-rule: nonzero; stroke: none; fill: rgb(133, 175, 232);" id="path58" transform="matrix(0.133333, 0, 0, -0.133333, 0, 2666.666748)"/>
  <path d="m 25296.8,5579.5 h 590 v 2250.9 c 0,222.3 181.9,404.1 404.1,404.1 h 55.9 c 13.6,0 24.8,-11.1 24.8,-24.7 v -2669 -509.1 -1552.1 c 0,-21.3 -17.4,-38.7 -38.7,-38.7 H 24625 c -21.2,0 -38.6,17.4 -38.6,38.7 v 1389.5 c 0,390.7 319.7,710.4 710.4,710.4" style="fill-opacity: 1; fill-rule: nonzero; stroke: none; fill: rgb(37, 63, 100);" id="path60" transform="matrix(0.133333, 0, 0, -0.133333, 0, 2666.666748)"/>
  <path d="m 24590,8215.4 c 0,0 563.1,54.1 758.3,-270 195.3,-324 0,-1543 165.2,-1759 165.2,-216 360.4,-347.2 352.9,-601.8 l -1211,-12.9 c 0,0 -1064.7,-38.3 -1057,-605.6 7.8,-567.2 0,-1548.4 0,-1548.4 H 22989 c 0,0 -27.4,2518 589.4,2665.9 1352.6,324.3 1011.6,2131.8 1011.6,2131.8" style="fill-opacity: 1; fill-rule: nonzero; stroke: none; fill: rgb(85, 115, 159);" id="path62" transform="matrix(0.133333, 0, 0, -0.133333, 0, 2666.666748)"/>
  <path d="m 18621.6,5709 33,-1.2 v 2107.6 c 0,231.2 187.4,418.7 418.7,418.7 h 1291.8 c 0,0 266.1,-879.9 300.8,-1177.1 34.8,-297.1 1053.1,-308.5 1192,-674.2 138.8,-365.7 162,-777.1 162,-777.1 H 21503 c 0,0 -20.2,-6.8 -54.7,-21.8 -203.5,-88.3 -904.1,-462.7 -894.2,-1424.4 v -711.6 h -2557.3 c 0,0 -405.1,2089 624.8,2261.1" style="fill-opacity: 1; fill-rule: nonzero; stroke: none; fill: rgb(37, 63, 100);" id="path64" transform="matrix(0.133333, 0, 0, -0.133333, 0, 2666.666748)"/>
  <path d="m 22992.1,6611.5 c 0,0 -106.3,32.4 -143.6,13.2 -37.2,-19.2 -137.3,-79.2 -128.8,-124.8 8.6,-45.6 185.7,-73.8 292,-2.9 106.4,70.8 -19.6,114.5 -19.6,114.5" style="fill-opacity: 1; fill-rule: nonzero; stroke: none; fill: rgb(228, 153, 99);" id="path66" transform="matrix(0.133333, 0, 0, -0.133333, 0, 2666.666748)"/>
  <path d="m 23346.5,3585.5 c 0,-29.9 -14.8,-50.5 -39.9,-64.3 l -0.3,-0.2 c -46.4,-25.5 -120.4,-5.9 -209,-2 -11.3,0.4 -129,-49.9 -295.5,-64.2 -189.9,-16.2 -259.9,41.9 -271,68.3 -9.5,22.5 72,47.9 163,77 4.4,1.4 8.8,2.9 13.3,4.3 12.1,3.8 24.3,7.8 36.4,11.8 108.4,36 215.1,78.7 241.7,188.4 28.3,116.4 -56.6,441.1 -56.6,441.1 l 300.9,32.5 c 0,0 29,-339.5 47.9,-445.2 10.2,-56.5 35.8,-101.4 50.8,-149.8 1,-3.4 2,-6.8 3,-10.2 7.7,-28.4 15.4,-57.4 15.3,-87.5" style="fill-opacity: 1; fill-rule: nonzero; stroke: none; fill: rgb(211, 137, 87);" id="path68" transform="matrix(0.133333, 0, 0, -0.133333, 0, 2666.666748)"/>
  <path d="m 23346.5,3585.5 c 0,-29.9 -14.8,-50.5 -39.9,-64.3 l -0.3,-0.2 c -67.2,-43.2 -186.6,16.9 -381,-72.7 -8.3,-3.9 -73.6,0.6 -118.9,1.2 -59,0.9 -144,-4.5 -164,-1.2 -91.7,14.7 -105.4,60 -111.6,74.8 -9.5,22.5 72,47.9 163,77 25.6,-9.9 147.3,-52.1 291.4,-24.8 126.6,23.8 252.5,86.8 343,107.9 1,-3.4 2,-6.8 3,-10.2 7.7,-28.4 15.4,-57.4 15.3,-87.5" style="fill-opacity: 1; fill-rule: nonzero; stroke: none; fill: rgb(47, 87, 145);" id="path70" transform="matrix(0.133333, 0, 0, -0.133333, 0, 2666.666748)"/>
  <path d="m 23316.2,3532.6 -44.4,-82.9 h -96.4 v 60.7 l 140.8,22.2" style="fill-opacity: 1; fill-rule: nonzero; stroke: none; fill: rgb(47, 87, 145);" id="path72" transform="matrix(0.133333, 0, 0, -0.133333, 0, 2666.666748)"/>
  <path d="m 24901.1,6479.3 -974,92.9 c 0,0 -1490.8,-6.8 -1629.6,-203.6 0,0 -266.2,-184.5 34.7,-947.1 300.8,-762.5 654.2,-1524.7 654.2,-1524.7 0,0 90,-24.6 213.4,-15 48.8,3.8 114.5,20.5 114.5,20.5 0,0 -67.9,1138 -218.4,1580.7 -150.4,442.8 -196.7,356.7 69.5,332.1 266.1,-24.6 1122.4,-221.4 1515.9,-172.2 393.4,49.2 219.8,836.4 219.8,836.4" style="fill-opacity: 1; fill-rule: nonzero; stroke: none; fill: rgb(44, 58, 100);" id="path74" transform="matrix(0.133333, 0, 0, -0.133333, 0, 2666.666748)"/>
  <path d="m 23534.3,3585.5 c -0.1,-29.9 -14.9,-50.5 -39.9,-64.3 l -0.4,-0.2 c -46.4,-25.5 -122.4,30.4 -468.9,-51.6 -185.4,-43.9 -295.4,27.3 -306.6,53.7 -9.4,22.5 72,47.9 163.1,77 4.4,1.4 8.8,2.9 13.2,4.3 12.2,3.8 24.4,7.8 36.5,11.8 108.3,36 215,78.7 241.7,188.4 28.2,116.4 -56.7,441.1 -56.7,441.1 l 300.9,32.5 c 0,0 29,-339.5 47.9,-445.2 10.2,-56.5 35.8,-101.4 50.8,-149.8 1.1,-3.4 2.1,-6.8 3,-10.2 7.7,-28.4 15.4,-57.4 15.4,-87.5" style="fill-opacity: 1; fill-rule: nonzero; stroke: none; fill: rgb(228, 153, 99);" id="path76" transform="matrix(0.133333, 0, 0, -0.133333, 0, 2666.666748)"/>
  <path d="m 20206.3,3585.5 c -0.1,-29.9 -14.8,-50.5 -39.9,-64.3 l -0.4,-0.2 c -46.3,-25.5 -127.7,-28 -216.3,-24.2 -11.3,0.5 -21.5,0.8 -30.6,0.8 -2.4,0 -4.8,0 -7.1,-0.1 -1.9,0 -3.7,-0.1 -5.5,-0.1 -87.6,-2.1 -78.4,-28.3 -244.9,-42.6 -189.9,-16.2 -259.9,41.9 -271.1,68.3 -9.4,22.5 72.1,47.9 163.1,77 4.4,1.4 8.8,2.9 13.3,4.3 12.1,3.8 24.3,7.8 36.4,11.8 108.4,36 215.1,78.7 241.7,188.4 28.3,116.4 -56.6,441.1 -56.6,441.1 l 300.9,32.5 c 0,0 29,-339.5 47.9,-445.2 10.2,-56.5 35.8,-101.4 50.7,-149.8 1.1,-3.4 2.1,-6.8 3.1,-10.2 7.7,-28.4 15.4,-57.4 15.3,-87.5" style="fill-opacity: 1; fill-rule: nonzero; stroke: none; fill: rgb(228, 153, 99);" id="path78" transform="matrix(0.133333, 0, 0, -0.133333, 0, 2666.666748)"/>
  <path d="m 20206.3,3585.5 c -0.1,-29.9 -14.8,-50.5 -39.9,-64.3 l -0.4,-0.2 c -49.3,-22.8 -129.4,-26.1 -216.1,-23.6 -11.4,0.3 -21.6,0.3 -30.8,0.2 -2.4,0 -4.8,0 -7.1,-0.1 -1.9,0 -3.7,-0.1 -5.5,-0.1 -87.6,-2.1 -78.4,-28.3 -244.9,-42.6 -189.9,-16.2 -259.9,41.9 -271.1,68.3 -9.4,22.5 72.1,47.9 163.1,77 25.6,-9.9 147.3,-52.1 291.3,-24.8 126.7,23.8 252.6,86.8 343,107.9 1.1,-3.4 2.1,-6.8 3.1,-10.2 7.7,-28.4 15.4,-57.4 15.3,-87.5" style="fill-opacity: 1; fill-rule: nonzero; stroke: none; fill: rgb(198, 84, 71);" id="path80" transform="matrix(0.133333, 0, 0, -0.133333, 0, 2666.666748)"/>
  <path d="m 18253.9,3969.6 c -16.7,-83.6 -135.8,-69.6 -268.9,-37.1 -133.1,32.5 -101.4,-6.1 -290.8,14.8 -189.4,21 -246.8,91.6 -252.6,119.8 -5.1,25 88.4,33.8 188.8,45.3 12.6,1.4 25.3,3 38,4.6 113.3,14.2 196.3,87.3 299.3,147.4 97.5,56.9 243,288.6 243,288.6 l 259.7,-20.5 c 0,0 -136.3,-207 -189,-297.1 -31,-52.9 -29.4,-122.9 -25.5,-177 2,-29.3 3.9,-59.4 -2,-88.8" style="fill-opacity: 1; fill-rule: nonzero; stroke: none; fill: rgb(228, 153, 99);" id="path82" transform="matrix(0.133333, 0, 0, -0.133333, 0, 2666.666748)"/>
  <path d="m 17985,3932.5 c -133.1,32.5 -101.4,-6.1 -290.8,14.8 -189.4,21 -246.8,91.6 -252.6,119.8 -5.1,25 88.4,33.8 188.8,45.3 l 0.9,-1.9 c 0,0 113.6,-80.5 271.3,-84.3 128.5,-3.1 264.6,33.7 353.3,32.2 2,-29.3 3.9,-59.4 -2,-88.8 -16.7,-83.6 -135.8,-69.6 -268.9,-37.1" style="fill-opacity: 1; fill-rule: nonzero; stroke: none; fill: rgb(198, 84, 71);" id="path84" transform="matrix(0.133333, 0, 0, -0.133333, 0, 2666.666748)"/>
  <path d="m 18831.8,7784.5 c 0,0 -61.8,151.6 -129.9,157.8 -68.1,6.2 -284.7,40.2 -300.2,9.3 -15.4,-31 0,-142.3 46.5,-182.6 46.4,-40.2 334.1,-105.2 334.1,-105.2 l 49.5,120.7" style="fill-opacity: 1; fill-rule: nonzero; stroke: none; fill: rgb(228, 153, 99);" id="path86" transform="matrix(0.133333, 0, 0, -0.133333, 0, 2666.666748)"/>
  <path d="m 19249.3,5630.4 559.8,-1506.5 c 0,0 86,-8.3 168.4,15.5 75.9,21.8 162.8,79.3 162.8,79.3 0,0 -138.8,1446.4 -393.4,1747.3 -254.6,300.9 -497.6,-335.6 -497.6,-335.6" style="fill-opacity: 1; fill-rule: nonzero; stroke: none; fill: rgb(54, 93, 164);" id="path88" transform="matrix(0.133333, 0, 0, -0.133333, 0, 2666.666748)"/>
  <path d="m 21642.6,6311.6 c -114.7,-45.9 -241.8,-50.5 -359.4,-12.9 -430.2,137.5 -1502.3,461.2 -1787,369.3 -358.8,-115.7 -1435.9,-2258.6 -1435.9,-2258.6 0,0 24.3,-32.3 90.7,-57.2 61.7,-23.2 211.1,-21.7 211.1,-21.7 0,0 972,833.2 1087.8,1076.2 115.7,243 162,474.4 277.7,451.3 115.7,-23.1 1492.8,-567 1805.2,-243 312.4,324 230.7,745 230.7,745 l -120.9,-48.4" style="fill-opacity: 1; fill-rule: nonzero; stroke: none; fill: rgb(70, 106, 165);" id="path90" transform="matrix(0.133333, 0, 0, -0.133333, 0, 2666.666748)"/>
  <path d="m 20480.4,8770 c -25.7,53.1 -54.4,147.3 -68.4,315.2 2.1,-16.7 31.1,-228.5 112.5,-348.3 334.5,-219.7 975.7,-953 963,-1092 0,0 225.8,383.1 229.7,385.4 0,0 416.6,529.7 -77.1,833.2 -251,154.2 -249.7,352.2 -239.2,524.1 10.6,172 -68.4,912.2 -571.1,718.5 0,0 -80.7,35.8 -116.8,30.4 0,0 29.5,-5.6 44.5,-21.1 -58.3,3.4 -141.6,-0.9 -211.2,-40.4 -184.2,-104.7 -349.2,-1044.2 -65.9,-1305" style="fill-opacity: 1; fill-rule: nonzero; stroke: none; fill: rgb(26, 120, 241);" id="path92" transform="matrix(0.133333, 0, 0, -0.133333, 0, 2666.666748)"/>
  <path d="m 20544.3,8725.9 c -1.7,-0.7 161.5,-85.5 284.3,-51.9 115.4,31.5 190.9,181.2 189.3,181.5 -48.9,9.8 -63,77 -62,365.7 l -22.1,-4.4 -371.7,-73.5 c 0,0 8.5,-117 8.7,-227.2 0.3,-92.5 -5.3,-180.3 -26.5,-190.2" style="fill-opacity: 1; fill-rule: nonzero; stroke: none; fill: rgb(228, 153, 99);" id="path94" transform="matrix(0.133333, 0, 0, -0.133333, 0, 2666.666748)"/>
  <path d="m 20562.1,9143.3 c 0,0 8.5,-117 8.7,-227.2 208,5.9 318,195.6 363,300.7 l -371.7,-73.5" style="fill-opacity: 1; fill-rule: nonzero; stroke: none; fill: rgb(214, 141, 93);" id="path96" transform="matrix(0.133333, 0, 0, -0.133333, 0, 2666.666748)"/>
  <path d="m 20972.2,9257.3 c 0,0 109,172.2 135.2,319.5 18.6,105.1 -34.9,494.8 -426.5,438.7 0,0 -113.8,-11.2 -220.7,-83.4 -85,-57.4 -207.7,-181.4 -70.5,-521.5 l 35.6,-114.9 546.9,-38.4" style="fill-opacity: 1; fill-rule: nonzero; stroke: none; fill: rgb(26, 120, 241);" id="path98" transform="matrix(0.133333, 0, 0, -0.133333, 0, 2666.666748)"/>
  <path d="m 20492.7,9038.9 c 0,0 492.1,-8.1 492.4,298.4 0.3,306.5 64.1,511.9 -250.1,530.1 -314.2,18.1 -375.3,-98.8 -400.3,-201.1 -25,-102.2 30,-617.4 158,-627.4" style="fill-opacity: 1; fill-rule: nonzero; stroke: none; fill: rgb(228, 153, 99);" id="path100" transform="matrix(0.133333, 0, 0, -0.133333, 0, 2666.666748)"/>
  <path d="m 20957.3,9810.3 c 0,0 -336.1,229.8 -442.4,70.9 -32.2,27.6 -89.7,47.6 -165.6,-44.4 -114.1,-138.3 -12.6,-382.7 -12.6,-382.7 46.9,-5.5 57.9,155.2 82.4,233.3 18.5,58.8 80.3,118.9 109.5,144.9 43,-96.7 161.1,-328.4 323.8,-370.2 206.8,-53.2 296.5,2.2 296.5,2.2 0,0 -158.6,126 -191.6,346" style="fill-opacity: 1; fill-rule: nonzero; stroke: none; fill: rgb(26, 120, 241);" id="path102" transform="matrix(0.133333, 0, 0, -0.133333, 0, 2666.666748)"/>
  <path d="m 21640.1,7402.1 c 48.5,203.5 -116.6,598.4 -288.9,925.4 -156.4,296.3 -318.7,536.7 -333.3,528.1 -412.5,-244.8 -449.7,-41.3 -449.7,-41.3 0,0 -374.7,-49.8 -480.7,-232.4 -146.8,-252.5 -306.6,-1010.3 -463.6,-999.1 -72,5.2 -797.2,277.8 -797.2,277.8 0,0 -120.8,-113.2 -97.7,-252.1 0,0 358.1,-239.8 660.9,-392.8 160.1,-80.9 304.9,-137.5 372.9,-121.5 138,32.5 353.4,352.3 469.8,540.5 l 0.8,1.3 c 148.6,-841.1 -53.4,-1032.7 48.9,-1121.4 108,-93.7 262.3,44.6 601.7,-102.5 222.7,-96.6 531.7,-236.3 739.7,-260.6 109,-12.8 190.4,6.2 217,79.9 77.1,214.1 -293.2,782.7 -200.6,1170.7" style="fill-opacity: 1; fill-rule: nonzero; stroke: none; fill: rgb(105, 157, 238);" id="path104" transform="matrix(0.133333, 0, 0, -0.133333, 0, 2666.666748)"/>
  <path d="m 20602.1,9224.7 c 0,0 -9.2,-38.9 -106.1,-32.9 0,0 -81.3,5 -78.8,47.8 0,0 78.8,30.5 184.9,-14.9" style="fill-opacity: 1; fill-rule: nonzero; stroke: none; fill: rgb(255, 255, 255);" id="path106" transform="matrix(0.133333, 0, 0, -0.133333, 0, 2666.666748)"/>
  <path d="m 21840.7,6231.4 c -26.6,-73.7 -108,-92.7 -217,-79.9 -144,62.8 -765.9,303.7 -759,466.9 10.4,241.8 119.6,249.5 42.5,547.8 -62,239.6 512.7,685 604.3,781.8 172.4,-327 177.1,-342.4 128.6,-545.9 -92.6,-388 277.7,-956.6 200.6,-1170.7" style="fill-opacity: 1; fill-rule: nonzero; stroke: none; fill: rgb(59, 118, 202);" id="path108" transform="matrix(0.133333, 0, 0, -0.133333, 0, 2666.666748)"/>
  <path d="m 20232.6,7634.7 c -116.4,-188.2 -331.8,-508 -469.8,-540.5 -68,-16 -212.8,40.6 -372.9,121.5 116.8,-30.1 230.4,-29.3 340.7,-18.6 119.6,11.5 154.3,158.1 343.4,378 122.5,142.6 152.6,106.7 158.6,59.6" style="fill-opacity: 1; fill-rule: nonzero; stroke: none; fill: rgb(59, 118, 202);" id="path110" transform="matrix(0.133333, 0, 0, -0.133333, 0, 2666.666748)"/>
  <path d="m 20808.8,7172 c 0,0 -104.2,81 -202.5,61.7 -98.4,-19.3 -146.6,-86.8 -142.7,-117.6 3.8,-30.9 55.9,-117.7 131.1,-125.4 75.2,-7.7 289.3,46.3 289.3,46.3 l -75.2,135" style="fill-opacity: 1; fill-rule: nonzero; stroke: none; fill: rgb(228, 153, 99);" id="path112" transform="matrix(0.133333, 0, 0, -0.133333, 0, 2666.666748)"/>
  <path d="m 21017.9,8855.5 c 0,0 401.1,-24.7 539.9,-218.3 195.4,-272.6 664.5,-1485.1 442.3,-1640.1 -250.2,-174.5 -1220.2,5.2 -1220.2,5.2 0,0 -29.6,138.2 11.5,205.1 41.2,66.8 709.8,174.8 740.7,205.7 30.8,30.9 -385.8,601.8 -385.8,694.3 0,92.6 -128.4,748.1 -128.4,748.1" style="fill-opacity: 1; fill-rule: nonzero; stroke: none; fill: rgb(105, 157, 238);" id="path114" transform="matrix(0.133333, 0, 0, -0.133333, 0, 2666.666748)"/>
  <path d="m 25037.3,6410.1 -913.5,77.2 c 0,0 -1490.8,-6.5 -1629.6,-197.1 0,0 -225.3,-141.1 75.6,-879.7 300.9,-738.5 605.6,-1551.3 605.6,-1551.3 0,0 67.5,-9.3 149.2,-2.6 102.7,8.3 136.9,41.7 136.9,41.7 0,0 -21.2,1010.6 -171.7,1439.4 -150.4,428.9 -208.2,385.2 57.9,361.4 266.2,-23.9 1014.5,-210.5 1530.3,-111.7 389.5,74.5 159.3,822.7 159.3,822.7" style="fill-opacity: 1; fill-rule: nonzero; stroke: none; fill: rgb(53, 72, 139);" id="path116" transform="matrix(0.133333, 0, 0, -0.133333, 0, 2666.666748)"/>
  <path d="m 22718.5,3523.1 c 6.1,-14.3 19,-57.1 102.6,-73.3 h 295.5 c 101.8,46.3 182.8,51.5 246.5,52.6 56.6,0.8 99.4,-1.6 130.9,18.6 l 0.4,0.2 c 1.4,0.9 3,1.7 4.4,2.6 22.4,13.8 35.4,33.6 35.5,61.7 0,30 -7.7,59.1 -15.4,87.5 -0.9,3.4 -1.9,6.9 -3,10.2 -90.5,-21 -216.3,-84.1 -343,-107.9 -144,-27.3 -265.8,14.9 -291.3,24.8 -91.1,-29.1 -172.6,-54.5 -163.1,-77" style="fill-opacity: 1; fill-rule: nonzero; stroke: none; fill: rgb(54, 93, 164);" id="path118" transform="matrix(0.133333, 0, 0, -0.133333, 0, 2666.666748)"/>
  <path d="m 23503.9,3532.5 -44.3,-82.9 h -96.5 v 60.7 l 140.8,22.2" style="fill-opacity: 1; fill-rule: nonzero; stroke: none; fill: rgb(54, 93, 164);" id="path120" transform="matrix(0.133333, 0, 0, -0.133333, 0, 2666.666748)"/>
  <path d="m 23328.2,7087.5 c 65.7,93.1 69.6,1266.8 108.2,1444.3 38.5,177.4 371.6,282.5 371.6,282.5 0,0 -61.7,-598.1 -133.9,-1142 -58.3,-440 -65.2,-859.1 -110.1,-883.2 -100.2,-54 -388.9,-272.4 -519.4,-253.8 l -78.8,70.1 c -14.9,13.1 -11.4,36.8 6.2,45.8 140.1,71.3 307.4,367 356.2,436.3" style="fill-opacity: 1; fill-rule: nonzero; stroke: none; fill: rgb(14, 74, 152);" id="path122" transform="matrix(0.133333, 0, 0, -0.133333, 0, 2666.666748)"/>
  <path d="m 23786.2,10075 c 62.3,50.1 152.8,43.8 211.1,40.4 -15,15.5 -44.5,21.1 -44.5,21.1 36.1,5.4 116.8,-30.4 116.8,-30.4 0,0 305.5,156.4 446.9,-244.8 0,0 -24.3,30.3 -57.8,64.7 81.8,-230.8 -0.9,-579.9 -258.5,-642 -167.5,-40.4 -1053.1,277.7 -414,791" style="fill-opacity: 1; fill-rule: nonzero; stroke: none; fill: rgb(22, 53, 96);" id="path124" transform="matrix(0.133333, 0, 0, -0.133333, 0, 2666.666748)"/>
  <path d="m 23784.1,8725.9 c -1.7,-0.7 161.5,-85.5 284.3,-51.9 115.4,31.5 190.9,181.2 189.3,181.5 -48.9,9.8 -63,77 -62,365.7 l -22.1,-4.4 -371.7,-73.5 c 0,0 8.5,-117 8.7,-227.2 0.3,-92.5 -5.3,-180.3 -26.5,-190.2" style="fill-opacity: 1; fill-rule: nonzero; stroke: none; fill: rgb(228, 153, 99);" id="path126" transform="matrix(0.133333, 0, 0, -0.133333, 0, 2666.666748)"/>
  <path d="m 23801.9,9143.3 c 0,0 8.5,-117 8.7,-227.2 208,5.9 318,195.6 363,300.7 l -371.7,-73.5" style="fill-opacity: 1; fill-rule: nonzero; stroke: none; fill: rgb(214, 141, 93);" id="path128" transform="matrix(0.133333, 0, 0, -0.133333, 0, 2666.666748)"/>
  <path d="m 24212,9257.3 c 0,0 109,172.2 135.2,319.5 18.6,105.1 -34.9,494.8 -426.5,438.7 0,0 -113.8,-11.2 -220.7,-83.4 -85,-57.4 -207.7,-181.4 -70.5,-521.5 l 35.6,-114.9 546.9,-38.4" style="fill-opacity: 1; fill-rule: nonzero; stroke: none; fill: rgb(22, 53, 96);" id="path130" transform="matrix(0.133333, 0, 0, -0.133333, 0, 2666.666748)"/>
  <path d="m 23732.5,9038.9 c 0,0 492.1,-8.1 492.4,298.4 0.3,306.5 64.1,511.9 -250.1,530.1 -314.2,18.1 -375.3,-98.8 -400.3,-201.1 -25,-102.2 30,-617.4 158,-627.4" style="fill-opacity: 1; fill-rule: nonzero; stroke: none; fill: rgb(228, 153, 99);" id="path132" transform="matrix(0.133333, 0, 0, -0.133333, 0, 2666.666748)"/>
  <path d="m 23612.1,8360.2 c 8.6,35 -65,61.2 -83.1,30.1 -33.8,-58.3 -40.5,-131.7 -54,-190.3 -38.6,-167.1 0,-396 0,-396 l 137.1,556.2" style="fill-opacity: 1; fill-rule: nonzero; stroke: none; fill: rgb(14, 74, 152);" id="path134" transform="matrix(0.133333, 0, 0, -0.133333, 0, 2666.666748)"/>
  <path d="m 23589.1,9836.8 c 75.9,92 133.4,72 165.6,44.4 106.3,158.9 442.4,-70.9 442.4,-70.9 32.9,-220 191.6,-346 191.6,-346 0,0 -89.7,-55.4 -296.5,-2.2 -162.7,41.8 -280.8,273.5 -323.8,370.2 -29.2,-26 -91,-86.1 -109.5,-144.9 -24.5,-78.1 -35.5,-238.8 -82.4,-233.3 0,0 -101.5,244.4 12.6,382.7" style="fill-opacity: 1; fill-rule: nonzero; stroke: none; fill: rgb(22, 53, 96);" id="path136" transform="matrix(0.133333, 0, 0, -0.133333, 0, 2666.666748)"/>
  <path d="m 23841.9,9224.7 c 0,0 -9.2,-38.9 -106.1,-32.9 0,0 -81.3,5 -78.8,47.8 0,0 78.8,30.5 184.9,-14.9" style="fill-opacity: 1; fill-rule: nonzero; stroke: none; fill: rgb(255, 255, 255);" id="path138" transform="matrix(0.133333, 0, 0, -0.133333, 0, 2666.666748)"/>
  <path d="m 23453.8,7740 c 0,0 62.4,-893 -120.4,-1094.5 l 374.8,236.5 -254.4,858" style="fill-opacity: 1; fill-rule: nonzero; stroke: none; fill: rgb(14, 74, 152);" id="path140" transform="matrix(0.133333, 0, 0, -0.133333, 0, 2666.666748)"/>
  <path d="m 23444.9,7783.4 c 199.5,-961.4 32.6,-1109 136.2,-1203.5 l 92.6,-40.5 c 108,-93.7 110.7,19.8 450.1,-127.3 161.7,-70.2 369,-163 550.1,-218 68.2,-20.6 132.6,-35.9 189.6,-42.6 109.1,-12.8 190.4,6.2 217,79.9 77.1,214.1 -293.2,782.7 -200.6,1170.7 0.8,3.3 1.5,6.7 2.2,10 6.7,33.9 8,72.9 4.5,115.6 -17.3,216.5 -154,531.1 -295.6,799.8 -156.4,296.3 -318.7,536.7 -333.3,528.1 -412.5,-244.8 -449.7,-41.3 -449.7,-41.3 0,0 -431.1,-703 -363.1,-1030.9" style="fill-opacity: 1; fill-rule: nonzero; stroke: none; fill: rgb(26, 120, 241);" id="path142" transform="matrix(0.133333, 0, 0, -0.133333, 0, 2666.666748)"/>
  <path d="m 23640.9,6552.9 v 0 c 108,-93.7 143.5,6.3 482.9,-140.8 161.7,-70.2 369,-163 550.1,-218 92.5,-16.1 161.4,-30.3 189.6,-42.6 109.1,-12.8 190.4,6.2 217,79.9 77.1,214.1 -293.2,782.7 -200.6,1170.7 0.8,3.3 1.5,6.7 2.2,10 8,38.3 9.1,76.6 4.5,115.6 -19.5,164.5 -140.5,343 -277.5,602.9 -91.6,-96.8 -780,15.4 -617.2,-941.2 49.9,-293.3 -308.2,-408.9 -351,-636.5" style="fill-opacity: 1; fill-rule: nonzero; stroke: none; fill: rgb(26, 120, 241);" id="path144" transform="matrix(0.133333, 0, 0, -0.133333, 0, 2666.666748)"/>
  <path d="m 23674.3,6504 c 0,0 -151.7,36 -221.2,7.7 -69.4,-28.3 -208.3,-100.3 -195.4,-138.8 12.9,-38.6 177.4,-59.2 246.9,-20.6 69.4,38.6 120.8,-10.3 205.7,18 84.9,28.3 -36,133.7 -36,133.7" style="fill-opacity: 1; fill-rule: nonzero; stroke: none; fill: rgb(228, 153, 99);" id="path146" transform="matrix(0.133333, 0, 0, -0.133333, 0, 2666.666748)"/>
  <path d="m 24257.7,8855.6 c 0,0 559.6,-7.5 659.9,-277.6 100.3,-270 69.5,-1218.9 -77.1,-1504.4 -146.6,-285.4 -979.8,-671.2 -1072.4,-686.6 -92.6,-15.4 -150.4,127.3 -146.6,142.7 3.9,15.5 875.7,721.4 871.8,794.7 -3.9,73.3 -235.6,1531.2 -235.6,1531.2" style="fill-opacity: 1; fill-rule: nonzero; stroke: none; fill: rgb(14, 74, 152);" id="path148" transform="matrix(0.133333, 0, 0, -0.133333, 0, 2666.666748)"/>
  <path d="m 9322.04,9056.2 c 0,0 114.31,133.4 7.05,218.1 0,0 -78.35,47.4 -142.23,43.6 0,0 90.52,-151.8 61.24,-166.9 -29.3,-15.1 -88.68,176.4 -88.68,176.4 0,0 -178.3,17.3 -235.66,-10.3 0,0 152.43,-124.7 120.33,-132.1 -32.11,-7.5 -196.74,115 -196.74,115 0,0 -165.94,-28.3 -157.09,-129.5 8.85,-101.2 66.02,-132.5 91.16,-129.8 25.12,2.7 172.13,58.8 175.33,38.2 3.21,-20.6 -85.29,-87.9 -147.25,-91 0,0 116.99,-129 194.75,-91.8 77.75,37.2 84.39,96.3 132.85,118.4 48.47,22.1 89.85,22.1 69.84,-0.5 -20.01,-22.6 -107.73,-44.5 -135.45,-93.6 -27.72,-49 -52.59,-82.1 27.86,-70 80.44,12.2 211.21,71 216.95,138.4 5.74,67.4 5.74,67.4 5.74,67.4" style="fill-opacity: 1; fill-rule: nonzero; stroke: none; fill: rgb(133, 175, 232);" id="path150" transform="matrix(0.133333, 0, 0, -0.133333, 0, 2666.666748)"/>
  <path d="m 8771.79,9167.8 c 0,0 450.71,17.3 550.25,-111.6 0,0 22.01,-65.9 89.75,-125.9 l 10.56,-28.8 c 0,0 -78.1,82.3 -106.05,87.3 0,0 43.7,159.7 -544.51,179" style="fill-opacity: 1; fill-rule: nonzero; stroke: none; fill: rgb(72, 96, 130);" id="path152" transform="matrix(0.133333, 0, 0, -0.133333, 0, 2666.666748)"/>
  <path d="m 9411.79,8930.3 c 0,0 96.74,-71.6 103.46,-199.4 l -17.55,-1.6 c 0,0 -30.9,132.2 -86.75,183.9 -55.85,51.7 0.84,17.1 0.84,17.1" style="fill-opacity: 1; fill-rule: nonzero; stroke: none; fill: rgb(72, 96, 130);" id="path154" transform="matrix(0.133333, 0, 0, -0.133333, 0, 2666.666748)"/>
  <path d="m 9721.71,9223.9 c 0,0 -181.84,101.9 -96.98,240.1 0,0 67.89,84.8 140.62,106.7 0,0 -38.79,-206.1 0,-211 38.8,-4.8 26.67,232.8 26.67,232.8 0,0 191.54,92.1 266.68,84.8 0,0 -118.78,-201.2 -79.99,-196.4 38.79,4.9 172.09,208.6 172.09,208.6 0,0 196.4,36.3 228,-80.1 31.5,-116.3 -19.4,-174.5 -48.5,-181.8 -29.1,-7.3 -215.8,-4.8 -211,-29.1 4.9,-24.2 131,-63 201.3,-41.2 0,0 -77.6,-191.5 -179.4,-181.9 -101.9,9.7 -133.4,72.8 -196.43,77.6 -63.04,4.9 -109.11,-12.1 -77.59,-29.1 31.52,-16.9 138.22,-5.5 189.12,-48.8 50.9,-43.3 92.1,-70 -2.4,-89.4 -94.58,-19.4 -264.31,-7.2 -298.25,65.5 -33.94,72.7 -33.94,72.7 -33.94,72.7" style="fill-opacity: 1; fill-rule: nonzero; stroke: none; fill: rgb(133, 175, 232);" id="path156" transform="matrix(0.133333, 0, 0, -0.133333, 0, 2666.666748)"/>
  <path d="m 10289.1,9573.1 c 0,0 -509.2,-164.9 -567.39,-349.2 0,0 2.43,-82.4 -48.49,-176.9 v -36.4 c 0,0 53.34,123.6 82.43,140.6 0,0 -113.95,160 533.45,421.9" style="fill-opacity: 1; fill-rule: nonzero; stroke: none; fill: rgb(72, 96, 130);" id="path158" transform="matrix(0.133333, 0, 0, -0.133333, 0, 2666.666748)"/>
  <path d="m 9673.22,9047 c 0,0 -78.52,-119.3 -33.76,-264.4 l 20.21,5.4 c 0,0 -19.61,159.9 21.47,240.3 41.08,80.4 -7.92,18.7 -7.92,18.7" style="fill-opacity: 1; fill-rule: nonzero; stroke: none; fill: rgb(72, 96, 130);" id="path160" transform="matrix(0.133333, 0, 0, -0.133333, 0, 2666.666748)"/>
  <path d="m 9432.42,9364.4 c 0,0 239.69,134.2 127.84,316.4 0,0 -89.49,111.8 -185.37,140.6 0,0 51.14,-271.7 0,-278 -51.14,-6.4 -35.15,306.8 -35.15,306.8 0,0 -252.49,121.4 -351.56,111.8 0,0 156.6,-265.2 105.46,-258.8 -51.13,6.4 -226.91,274.8 -226.91,274.8 0,0 -258.87,47.9 -300.42,-105.5 -41.55,-153.4 25.57,-230.1 63.92,-239.7 38.35,-9.5 284.44,-6.3 278.05,-38.3 -6.4,-32 -172.59,-83.1 -265.27,-54.3 0,0 102.27,-252.5 236.51,-239.7 134.23,12.7 175.77,95.8 258.87,102.2 83.09,6.4 143.82,-16 102.27,-38.3 -41.55,-22.4 -182.17,-7.3 -249.29,-64.4 -67.11,-57.1 -121.44,-92.2 3.2,-117.8 124.64,-25.6 348.36,-9.6 393.11,86.3 44.74,95.9 44.74,95.9 44.74,95.9" style="fill-opacity: 1; fill-rule: nonzero; stroke: none; fill: rgb(133, 175, 232);" id="path162" transform="matrix(0.133333, 0, 0, -0.133333, 0, 2666.666748)"/>
  <path d="m 8684.56,9824.6 c 0,0 671.15,-217.3 747.86,-460.2 0,0 -3.2,-108.7 63.92,-233.3 v -48 c 0,0 -70.31,163 -108.66,185.4 0,0 150.21,210.9 -703.12,556.1" style="fill-opacity: 1; fill-rule: nonzero; stroke: none; fill: rgb(72, 96, 130);" id="path164" transform="matrix(0.133333, 0, 0, -0.133333, 0, 2666.666748)"/>
  <path d="m 9496.34,9131.1 c 0,0 103.5,-157.2 44.49,-348.5 l -26.63,7.1 c 0,0 25.85,210.8 -28.3,316.7 -54.15,106 10.44,24.7 10.44,24.7" style="fill-opacity: 1; fill-rule: nonzero; stroke: none; fill: rgb(72, 96, 130);" id="path166" transform="matrix(0.133333, 0, 0, -0.133333, 0, 2666.666748)"/>
  <path d="m 9440.49,8367.7 c -259.31,0 -469.53,210.2 -469.53,469.5 h 939.06 c 0,-259.3 -210.21,-469.5 -469.53,-469.5" style="fill-opacity: 1; fill-rule: nonzero; stroke: none; fill: rgb(26, 120, 241);" id="path168" transform="matrix(0.133333, 0, 0, -0.133333, 0, 2666.666748)"/>
  <path d="m 9324.96,8371.3 c 19.09,-2.4 38.57,-3.6 58.34,-3.6 259.3,0 469.5,210.2 469.5,469.5 h -116.65 c 0,-239.6 -179.4,-437.2 -411.19,-465.9" style="fill-opacity: 1; fill-rule: nonzero; stroke: none; fill: rgb(24, 97, 191);" id="path170" transform="matrix(0.133333, 0, 0, -0.133333, 0, 2666.666748)"/>
  <path d="m 8964.48,8343.8 h 952.03 c 0,32 -25.93,57.9 -57.93,57.9 h -836.17 c -31.99,0 -57.93,-25.9 -57.93,-57.9" style="fill-opacity: 1; fill-rule: nonzero; stroke: none; fill: rgb(5, 71, 156);" id="path172" transform="matrix(0.133333, 0, 0, -0.133333, 0, 2666.666748)"/>
  <path d="m 8960.28,8822.8 h 965.19 v 14.4 h -965.19 v -14.4" style="fill-opacity: 1; fill-rule: nonzero; stroke: none; fill: rgb(12, 62, 128);" id="path174" transform="matrix(0.133333, 0, 0, -0.133333, 0, 2666.666748)"/>
  <path d="m 7728.98,8463.6 c 0,0 109.67,36.5 162.65,25.5 52.96,-10.9 217.35,-87.7 221.01,-104.1 3.65,-16.4 0,-28.3 0,-28.3 h -383.66 c 0,0 -85.77,16.7 -100.38,67.3 -14.61,50.5 100.38,39.6 100.38,39.6" style="fill-opacity: 1; fill-rule: nonzero; stroke: none; fill: rgb(255, 178, 125);" id="path176" transform="matrix(0.133333, 0, 0, -0.133333, 0, 2666.666748)"/>
  <path d="m 6297.55,3629.4 c 2.94,-31.4 20.36,-51.6 47.99,-63.7 l 0.42,-0.1 c 51.1,-22.4 136.77,-17.3 229.37,-4.9 11.86,1.6 22.52,2.9 32.08,3.8 2.5,0.2 5.01,0.4 7.45,0.5 1.95,0.2 3.89,0.3 5.76,0.5 92.19,6.1 84.97,-22.3 261.16,-21.5 200.83,1.1 268.75,68.7 277.97,97.6 7.74,24.4 -80.19,43.4 -178.51,65.3 -4.76,1 -9.51,2.1 -14.34,3.1 -13.08,2.9 -26.26,6 -39.34,9 -117.2,27.5 -233.26,62.2 -271.64,174.8 -40.71,119.4 -31.07,473.8 -31.07,473.8 h -355.68 c 0,0 93.36,-391.5 83.59,-504.3 -5.31,-60.3 -34.13,-77.4 -45.23,-129.6 -0.81,-3.7 -1.54,-7.3 -2.19,-11 -5.39,-30.5 -10.73,-61.8 -7.79,-93.3" style="fill-opacity: 1; fill-rule: nonzero; stroke: none; fill: rgb(173, 112, 65);" id="path178" transform="matrix(0.133333, 0, 0, -0.133333, 0, 2666.666748)"/>
  <path d="m 5883.68,7459.7 c 30.02,-168.6 72.84,-342.7 110.04,-523.8 59.76,-291.2 104.86,-600.6 58.69,-933.7 -5.9,-42.9 -9.11,-90.2 -9.81,-141.1 -8.97,-588.8 254.12,-1655.8 254.12,-1655.8 0,0 71.45,-30.8 191.2,-24.9 61.65,3.1 156.27,42.8 156.27,42.8 0,0 24.89,661.6 26.39,1551.3 1.08,644.9 127.7,1494 153.28,1993 15.49,301.9 -18.13,704.2 -18.13,704.2 0,0 -524.4,421.7 -712.77,205.9 -186.09,-213.2 -321.6,-587.5 -209.28,-1217.9" style="fill-opacity: 1; fill-rule: nonzero; stroke: none; fill: rgb(65, 93, 165);" id="path180" transform="matrix(0.133333, 0, 0, -0.133333, 0, 2666.666748)"/>
  <path d="m 6052.41,6002.2 c -5.9,-42.9 -9.11,-90.2 -9.81,-141.1 392.73,569 479.58,1809.8 479.58,1809.8 l -431.36,-209.3 c 0,0 -47.3,-232.7 -97.1,-525.7 59.76,-291.2 104.86,-600.6 58.69,-933.7" style="fill-opacity: 1; fill-rule: nonzero; stroke: none; fill: rgb(53, 84, 147);" id="path182" transform="matrix(0.133333, 0, 0, -0.133333, 0, 2666.666748)"/>
  <path d="m 5162.95,3629.4 c 2.93,-31.4 20.36,-51.6 47.99,-63.7 l 0.42,-0.1 c 51.1,-22.4 136.77,-17.3 229.36,-4.9 11.86,1.6 22.52,2.9 32.08,3.8 2.51,0.2 5.02,0.4 7.45,0.5 1.95,0.2 3.9,0.3 5.76,0.5 92.2,6.1 84.98,-22.3 261.16,-21.5 200.83,1.1 268.75,68.7 277.97,97.6 7.75,24.4 -80.19,43.4 -178.51,65.3 -4.75,1 -9.5,2.1 -14.34,3.1 -13.08,2.9 -26.25,6 -39.34,9 -117.2,27.5 -233.26,62.2 -271.64,174.8 -40.71,119.4 17.46,468.3 17.46,468.3 l -329.5,27.6 c 0,0 20.44,-397.6 10.66,-510.4 -5.31,-60.3 -35.9,-93.4 -47.01,-145.6 -0.81,-3.7 -1.53,-7.3 -2.18,-11 -5.4,-30.5 -10.73,-61.8 -7.79,-93.3" style="fill-opacity: 1; fill-rule: nonzero; stroke: none; fill: rgb(173, 112, 65);" id="path184" transform="matrix(0.133333, 0, 0, -0.133333, 0, 2666.666748)"/>
  <path d="m 5209.4,4175.2 c 0,0 84.7,-40.1 145.69,-52.3 60.99,-12.2 187.68,11.6 187.68,11.6 22.85,256.2 75.95,656.9 179.12,1108.9 117.5,514.7 292.32,1122.9 536.06,1698.9 52.06,123 266.75,705.2 303.17,852.2 110.17,443.9 -0.43,396.1 -0.43,396.1 l -962.9,113 c 0,0 -118.63,-61 -173.26,-687.9 -16.35,-187.7 -18.36,-998.4 -43,-1152 -23.33,-145.6 -50.65,-266.6 -82.69,-345.2 -178.88,-439.1 -89.44,-1943.3 -89.44,-1943.3" style="fill-opacity: 1; fill-rule: nonzero; stroke: none; fill: rgb(65, 93, 165);" id="path186" transform="matrix(0.133333, 0, 0, -0.133333, 0, 2666.666748)"/>
  <path d="m 5162.95,3629.4 c 2.93,-31.4 20.36,-51.6 47.99,-63.7 l 0.42,-0.1 c 54,-19.3 138.37,-15.2 229.15,-4.3 11.88,1.4 22.56,2.4 32.29,3.2 2.51,0.2 5.02,0.4 7.45,0.5 1.95,0.2 3.9,0.3 5.76,0.5 92.2,6.1 84.98,-22.3 261.16,-21.5 200.83,1.1 268.75,68.7 277.97,97.6 7.75,24.4 -80.19,43.4 -178.51,65.3 -25.86,-12.8 -149.62,-68.8 -303.41,-53.8 -135.23,12.9 -273.3,67.1 -370.3,80.6 -0.81,-3.7 -1.53,-7.3 -2.18,-11 -5.4,-30.5 -10.73,-61.8 -7.79,-93.3" style="fill-opacity: 1; fill-rule: nonzero; stroke: none; fill: rgb(184, 76, 66);" id="path188" transform="matrix(0.133333, 0, 0, -0.133333, 0, 2666.666748)"/>
  <path d="m 6297.55,3629.4 c 2.94,-31.4 20.36,-51.6 47.99,-63.7 l 0.42,-0.1 c 54,-19.3 138.38,-15.2 229.16,-4.3 11.87,1.4 22.55,2.4 32.29,3.2 2.5,0.2 5.01,0.4 7.45,0.5 1.95,0.2 3.89,0.3 5.76,0.5 92.19,6.1 84.97,-22.3 261.16,-21.5 200.83,1.1 268.75,68.7 277.97,97.6 7.74,24.4 -80.19,43.4 -178.51,65.3 -25.87,-12.8 -149.63,-68.8 -303.41,-53.8 -135.23,12.9 -273.31,67.1 -370.3,80.6 -0.81,-3.7 -1.54,-7.3 -2.19,-11 -5.39,-30.5 -10.73,-61.8 -7.79,-93.3" style="fill-opacity: 1; fill-rule: nonzero; stroke: none; fill: rgb(184, 76, 66);" id="path190" transform="matrix(0.133333, 0, 0, -0.133333, 0, 2666.666748)"/>
  <path d="m 6682.75,11186.8 c 32.53,265.6 -50.43,690.6 -580.57,622.7 -530.14,-67.9 -697.2,-588.9 -590.29,-820.6 106.92,-231.6 -153.91,-287.5 -235.8,-536.6 -70.34,-214 -94.85,-479.7 -208.69,-599 -366.99,-384.5 352.35,-975.7 785.99,-851 789.88,227.1 891.62,261 863.58,881.6 -14.37,318 -261.76,441.2 -104.68,533.2 379.44,222.2 -3.13,168.7 70.46,769.7" style="fill-opacity: 1; fill-rule: nonzero; stroke: none; fill: rgb(43, 71, 139);" id="path192" transform="matrix(0.133333, 0, 0, -0.133333, 0, 2666.666748)"/>
  <path d="m 5903.75,10491.2 145.76,-377.3 315.56,-15.4 157.14,235.4 c -178.27,135.1 -170.73,393.8 -161.98,484.1 2,20.4 3.98,32.2 3.98,32.2 l -394.44,120.1 c -4.77,-104.3 -10.6,-185.9 -16.86,-249.7 -22.05,-224 -49.16,-229.4 -49.16,-229.4" style="fill-opacity: 1; fill-rule: nonzero; stroke: none; fill: rgb(255, 178, 125);" id="path194" transform="matrix(0.133333, 0, 0, -0.133333, 0, 2666.666748)"/>
  <path d="m 6523.39,10504.8 c -20.28,0 -364.55,70.1 -945.96,-78.6 0,0 318.41,-1458.9 210.24,-1733.9 -108.17,-274.9 -149.28,-519 -149.28,-519 l 1173.47,-14.5 c 0,0 -16.41,943.8 37.68,1277.8 54.08,334 -326.15,1068.2 -326.15,1068.2" style="fill-opacity: 1; fill-rule: nonzero; stroke: none; fill: rgb(255, 178, 125);" id="path196" transform="matrix(0.133333, 0, 0, -0.133333, 0, 2666.666748)"/>
  <path d="m 5658.25,8877.6 c -17.16,-193.1 -197.58,-634.4 -158.55,-728.4 40.9,-98.7 97.73,-148.7 222.05,-177.3 85.71,-19.7 203.44,-29.2 370.13,-37.5 353.53,-17.6 732.37,26.8 783.92,194.9 24.71,80.7 15.19,392.8 2.1,536.9 -27.08,298.1 29.67,726 37.97,1002.8 6.83,231 -132.46,756.5 -132.46,756.5 0,0 -62.83,39.6 -260.02,79.3 0,0 -20.74,-272.9 -163.19,-296.4 -246.29,-40.7 -444.77,184.9 -502.74,275.8 0,0 -282.88,-71.4 -365.89,-166.1 -78.63,-89.6 28.94,-753.5 52.85,-817.1 20.65,-54.7 40.16,-108 57.16,-161.6 44.96,-141.4 72.45,-285 56.67,-461.8" style="fill-opacity: 1; fill-rule: nonzero; stroke: none; fill: rgb(122, 151, 243);" id="path198" transform="matrix(0.133333, 0, 0, -0.133333, 0, 2666.666748)"/>
  <path d="m 4651.04,8462.7 c 0,0 -109.67,36.1 -162.64,25.3 -52.97,-10.9 -217.36,-86.9 -221.01,-103.2 -3.65,-16.3 0,-28.1 0,-28.1 h 383.65 c 0,0 85.77,16.6 100.39,66.7 14.61,50.1 -100.39,39.3 -100.39,39.3" style="fill-opacity: 1; fill-rule: nonzero; stroke: none; fill: rgb(255, 178, 125);" id="path200" transform="matrix(0.133333, 0, 0, -0.133333, 0, 2666.666748)"/>
  <path d="m 5952.91,10695.6 c 143.91,96.5 324.8,101.3 407.32,97.4 2,20.4 3.98,32.2 3.98,32.2 l -394.44,120.1 c -4.77,-104.3 -10.6,-185.9 -16.86,-249.7" style="fill-opacity: 1; fill-rule: nonzero; stroke: none; fill: rgb(232, 148, 91);" id="path202" transform="matrix(0.133333, 0, 0, -0.133333, 0, 2666.666748)"/>
  <path d="m 6467.2,10823.4 c 0,0 -472.2,-94.9 -526.73,200.1 -54.53,295 -152.2,481.4 146.98,554.4 299.19,73 378.74,-28.6 420.88,-122.7 42.15,-94 80.29,-599.6 -41.13,-631.8" style="fill-opacity: 1; fill-rule: nonzero; stroke: none; fill: rgb(255, 178, 125);" id="path204" transform="matrix(0.133333, 0, 0, -0.133333, 0, 2666.666748)"/>
  <path d="m 5849.04,11558.4 c 79.91,89.9 195.18,107.4 279.21,105.9 -50.65,61.4 153.08,196 386.02,-33.5 100.36,-98.9 85.2,-293.4 31.44,-406.1 0,0 -82.55,241.7 -232.8,294.4 -33.45,11.7 -65.2,31.3 -94.36,54.6 -18.3,-46 -55.11,-111 -129.14,-191.9 -155.3,-169.8 -125.03,-513.1 -125.03,-513.1 0,0 -254.97,532.6 -115.34,689.7" style="fill-opacity: 1; fill-rule: nonzero; stroke: none; fill: rgb(43, 71, 139);" id="path206" transform="matrix(0.133333, 0, 0, -0.133333, 0, 2666.666748)"/>
  <path d="m 6320.08,10968.5 c 0,0 12.63,-35 101.53,-19.1 0,0 74.64,13.3 67.77,52.6 0,0 -76.14,19.7 -169.3,-33.5" style="fill-opacity: 1; fill-rule: nonzero; stroke: none; fill: rgb(255, 255, 255);" id="path208" transform="matrix(0.133333, 0, 0, -0.133333, 0, 2666.666748)"/>
  <path d="m 5024.55,9169 c 178.64,689.3 276.62,1082.9 422.98,1202 129.43,105.3 408.54,115 408.54,115 4.33,-82.9 0.42,-166.1 -9.74,-248.5 l 343.35,-654.3 c 0,0 175.92,-348.1 238.44,-728.8 47.21,378.1 94.09,728.8 94.09,728.8 0,0 44.28,223.7 58.23,428.4 -41.38,159.7 -37.06,326.3 -56.48,493.2 l 21.6,-1.2 c 67.8,-4.8 279.18,-26.3 386.94,-114.8 146.36,-120.1 179.19,-647.8 422.98,-1212.6 0,0 295.4,-496.7 389.44,-693.8 0,0 -17.62,-26.9 -52.85,-47.2 -34.15,-19.7 -77.25,-27.5 -77.25,-27.5 0,0 -532.89,524.7 -567.9,607.7 -11.52,27.3 -76,123 -156.03,263.8 0,0 -21.24,-749.8 25.31,-1073.4 9.86,-68.5 -22.97,-136.1 -83.23,-170.1 -329.11,-185.9 -1315.04,-692.3 -1498.51,-200.5 -20.57,55.2 339.74,991.8 290.42,1194.6 -15.78,64.8 -36.6,212.8 -57.63,383.9 -112.9,-216.5 -219.03,-368.6 -234.14,-404.1 -35.02,-82.2 -567.9,-602.4 -567.9,-602.4 0,0 -43.1,7.8 -77.25,27.3 -35.24,20.1 -52.85,46.8 -52.85,46.8 94.04,195.3 389.44,687.7 389.44,687.7" style="fill-opacity: 1; fill-rule: nonzero; stroke: none; fill: rgb(233, 242, 255);" id="path210" transform="matrix(0.133333, 0, 0, -0.133333, 0, 2666.666748)"/>
  <path d="m 5874.65,10488 315.03,-904.8 -314.99,297.9 23.82,92.6 c 0,0 -72.4,-6.5 -101.78,12.5 -29.38,19 -97.79,481.5 -97.79,481.5 0,0 64.1,10.8 85.36,13.2 22.67,2.6 90.35,7.1 90.35,7.1" style="fill-opacity: 1; fill-rule: nonzero; stroke: none; fill: rgb(178, 203, 253);" id="path212" transform="matrix(0.133333, 0, 0, -0.133333, 0, 2666.666748)"/>
  <path d="m 6523.96,10504.8 c 0,0 66.32,-715.2 -1.75,-921.6 0,0 194.94,308.7 158.42,372.6 l -70.65,46.6 c 0,0 136.4,17.7 110.83,96.1 -25.57,78.4 -135.17,396.2 -135.17,396.2 l -61.68,10.1" style="fill-opacity: 1; fill-rule: nonzero; stroke: none; fill: rgb(178, 203, 253);" id="path214" transform="matrix(0.133333, 0, 0, -0.133333, 0, 2666.666748)"/>
  <path d="M 10113.4,3427.1 H 2601.39 v 2467 l 7512.01,24.6 V 3427.1" style="fill-opacity: 1; fill-rule: nonzero; stroke: none; fill: rgb(105, 159, 240);" id="path216" transform="matrix(0.133333, 0, 0, -0.133333, 0, 2666.666748)"/>
  <path d="m 2601.39,7246.6 h 7512.01 v 645.098 H 2601.39 Z" style="fill-opacity: 1; fill-rule: nonzero; stroke: none; fill: rgb(105, 159, 240);" id="path218" transform="matrix(0.133333, 0, 0, -0.133333, 0, 2666.666748)"/>
  <path d="M 2429.48,7891.7 H 10271 c 114.7,0 207.7,93 207.7,207.7 v 49.6 c 0,114.7 -93,207.7 -207.7,207.7 H 2429.48 c -114.71,0 -207.7,-93 -207.7,-207.7 v -49.6 c 0,-114.7 92.99,-207.7 207.7,-207.7" style="fill-opacity: 1; fill-rule: nonzero; stroke: none; fill: rgb(70, 106, 165);" id="path220" transform="matrix(0.133333, 0, 0, -0.133333, 0, 2666.666748)"/>
  <path d="m 5696.56,9600.5 216.62,13.4 c 14.58,0.9 25.68,13.4 24.77,28 l -5.96,96.9 c -0.9,14.6 -13.45,25.7 -28.03,24.8 l -216.61,-13.4 c -14.59,-0.9 -25.68,-13.4 -24.78,-28 l 5.97,-96.9 c 0.89,-14.6 13.44,-25.7 28.02,-24.8" style="fill-opacity: 1; fill-rule: nonzero; stroke: none; fill: rgb(43, 71, 139);" id="path222" transform="matrix(0.133333, 0, 0, -0.133333, 0, 2666.666748)"/>
  <path d="m 5834.08,9637.9 70.57,4.4 -5.82,94.6 -70.58,-4.4 5.83,-94.6" style="fill-opacity: 1; fill-rule: nonzero; stroke: none; fill: rgb(233, 242, 255);" id="path224" transform="matrix(0.133333, 0, 0, -0.133333, 0, 2666.666748)"/>
  <path d="m 5705.26,9701.2 87.85,5.4 c 6.5,0.4 11.49,6.1 11.09,12.6 -0.4,6.5 -6.05,11.5 -12.55,11.1 l -87.85,-5.4 c -6.5,-0.4 -11.49,-6.1 -11.09,-12.6 0.4,-6.5 6.05,-11.5 12.55,-11.1" style="fill-opacity: 1; fill-rule: nonzero; stroke: none; fill: rgb(233, 242, 255);" id="path226" transform="matrix(0.133333, 0, 0, -0.133333, 0, 2666.666748)"/>
  <path d="m 5699.95,9668.1 102.49,6.3 c 2.48,0.2 4.38,2.3 4.22,4.8 -0.15,2.5 -2.3,4.4 -4.78,4.2 l -102.48,-6.3 c -2.48,-0.1 -4.38,-2.3 -4.23,-4.8 0.15,-2.4 2.31,-4.4 4.78,-4.2" style="fill-opacity: 1; fill-rule: nonzero; stroke: none; fill: rgb(233, 242, 255);" id="path228" transform="matrix(0.133333, 0, 0, -0.133333, 0, 2666.666748)"/>
  <path d="m 5700.85,9653.5 102.48,6.3 c 2.49,0.1 4.39,2.3 4.23,4.8 -0.15,2.4 -2.3,4.3 -4.78,4.2 l -102.48,-6.3 c -2.48,-0.2 -4.38,-2.3 -4.23,-4.8 0.16,-2.5 2.31,-4.4 4.78,-4.2" style="fill-opacity: 1; fill-rule: nonzero; stroke: none; fill: rgb(233, 242, 255);" id="path230" transform="matrix(0.133333, 0, 0, -0.133333, 0, 2666.666748)"/>
  <path d="m 6384.91,8821.3 c 0,18.8 -15.23,34 -34.02,34 -18.79,0 -34.02,-15.2 -34.02,-34 0,-18.8 15.23,-34 34.02,-34 18.79,0 34.02,15.2 34.02,34" style="fill-opacity: 1; fill-rule: nonzero; stroke: none; fill: rgb(43, 71, 139);" id="path232" transform="matrix(0.133333, 0, 0, -0.133333, 0, 2666.666748)"/>
  <path d="m 6384.91,8607.8 c 0,18.8 -15.23,34.1 -34.02,34.1 -18.79,0 -34.02,-15.3 -34.02,-34.1 0,-18.7 15.23,-34 34.02,-34 18.79,0 34.02,15.3 34.02,34" style="fill-opacity: 1; fill-rule: nonzero; stroke: none; fill: rgb(43, 71, 139);" id="path234" transform="matrix(0.133333, 0, 0, -0.133333, 0, 2666.666748)"/>
  <path d="m 2701.13,5894.4 v 467 c 61.12,-158.8 125.66,-314.4 192.53,-466.4 l -192.53,-0.6" style="fill-opacity: 1; fill-rule: nonzero; stroke: none; fill: rgb(183, 210, 251);" id="path236" transform="matrix(0.133333, 0, 0, -0.133333, 0, 2666.666748)"/>
  <path d="m 2893.66,5895 c -66.87,152 -131.41,307.6 -192.53,466.4 v 885.2 h 2709.96 c -7.06,-303.9 -13.51,-682.8 -29.56,-782.9 -23.33,-145.6 -50.65,-266.6 -82.69,-345.2 -22.92,-56.3 -41.42,-130 -56.29,-215.8 L 2893.66,5895 m 2999.51,9.9 c 51.47,176.9 108.9,357.9 172.69,539.4 3.59,-53.1 5.57,-106.7 5.56,-160.9 -0.02,-91.9 -5.75,-185.6 -19.01,-281.2 -4.15,-30.2 -6.97,-62.6 -8.52,-96.8 l -150.72,-0.5 m 779.27,2.5 c 10.8,426.5 66.29,920.5 108.01,1339.2 H 10013.6 V 5918.7 l -3341.16,-11.3" style="fill-opacity: 1; fill-rule: nonzero; stroke: none; fill: rgb(179, 207, 251);" id="path238" transform="matrix(0.133333, 0, 0, -0.133333, 0, 2666.666748)"/>
  <path d="m 6071.75,5905.4 c 226.03,360.4 344.36,944.4 401.99,1341.2 h 306.71 c -41.72,-418.7 -97.21,-912.7 -108.01,-1339.2 l -315.07,-1 -285.62,-1" style="fill-opacity: 1; fill-rule: nonzero; stroke: none; fill: rgb(164, 194, 242);" id="path240" transform="matrix(0.133333, 0, 0, -0.133333, 0, 2666.666748)"/>
  <path d="m 6043.89,5905.4 c 1.55,34.2 4.37,66.6 8.52,96.8 13.26,95.6 18.99,189.3 19.01,281.2 0.01,54.2 -1.97,107.8 -5.56,160.9 58.59,166.6 122.54,333.6 192.09,498 20.5,48.4 66.22,168.1 116.33,304.3 h 99.46 c -57.63,-396.8 -175.96,-980.8 -401.99,-1341.2 h -27.86" style="fill-opacity: 1; fill-rule: nonzero; stroke: none; fill: rgb(163, 193, 240);" id="path242" transform="matrix(0.133333, 0, 0, -0.133333, 0, 2666.666748)"/>
  <path d="m 5242.55,5902.7 c 14.87,85.8 33.37,159.5 56.29,215.8 32.04,78.6 59.36,199.6 82.69,345.2 16.05,100.1 22.5,479 29.56,782.9 h 963.19 c -50.11,-136.2 -95.83,-255.9 -116.33,-304.3 -69.55,-164.4 -133.5,-331.4 -192.09,-498 -63.79,-181.5 -121.22,-362.5 -172.69,-539.4 l -650.62,-2.2" style="fill-opacity: 1; fill-rule: nonzero; stroke: none; fill: rgb(164, 194, 242);" id="path244" transform="matrix(0.133333, 0, 0, -0.133333, 0, 2666.666748)"/>
  <path d="m 2701.13,5894.1 v 0.3 l 192.53,0.6 2348.89,7.7 650.62,2.2 150.72,0.5 h 27.86 l 285.62,1 -3656.24,-12.3" style="fill-opacity: 1; fill-rule: nonzero; stroke: none; fill: rgb(168, 200, 250);" id="path246" transform="matrix(0.133333, 0, 0, -0.133333, 0, 2666.666748)"/>
  <path d="m 3341.59,9475.3 240.74,-1118.6 h -938.29 l -209.88,1118.6 h 907.43" style="fill-opacity: 1; fill-rule: nonzero; stroke: none; fill: rgb(105, 159, 240);" id="path248" transform="matrix(0.133333, 0, 0, -0.133333, 0, 2666.666748)"/>
  <path d="m 3309.33,9439.7 217.45,-1010.3 h -847.49 l -189.57,1010.3 h 819.61" style="fill-opacity: 1; fill-rule: nonzero; stroke: none; fill: rgb(255, 255, 255);" id="path250" transform="matrix(0.133333, 0, 0, -0.133333, 0, 2666.666748)"/>
  <path d="m 2600.83,9358.6 h 645.08 c 11.88,0 21.6,-9.8 21.6,-21.6 0,-11.9 -9.72,-21.6 -21.6,-21.6 h -645.08 c -11.88,0 -21.6,9.7 -21.6,21.6 0,11.8 9.72,21.6 21.6,21.6" style="fill-opacity: 1; fill-rule: nonzero; stroke: none; fill: rgb(105, 159, 240);" id="path252" transform="matrix(0.133333, 0, 0, -0.133333, 0, 2666.666748)"/>
  <path d="m 2633.75,9256.7 h 645.08 c 11.88,0 21.6,-9.7 21.6,-21.6 0,-11.9 -9.72,-21.6 -21.6,-21.6 h -645.08 c -11.87,0 -21.6,9.7 -21.6,21.6 0,11.9 9.73,21.6 21.6,21.6" style="fill-opacity: 1; fill-rule: nonzero; stroke: none; fill: rgb(105, 159, 240);" id="path254" transform="matrix(0.133333, 0, 0, -0.133333, 0, 2666.666748)"/>
  <path d="m 2654.34,9159 h 645.06 c 11.89,0 21.61,-9.8 21.61,-21.6 0,-11.9 -9.72,-21.6 -21.61,-21.6 h -645.06 c -11.89,0 -21.61,9.7 -21.61,21.6 0,11.8 9.72,21.6 21.61,21.6" style="fill-opacity: 1; fill-rule: nonzero; stroke: none; fill: rgb(105, 159, 240);" id="path256" transform="matrix(0.133333, 0, 0, -0.133333, 0, 2666.666748)"/>
  <path d="m 2684.17,8957.4 h 645.07 c 11.89,0 21.61,-9.7 21.61,-21.6 0,-11.8 -9.72,-21.6 -21.61,-21.6 h -645.07 c -11.88,0 -21.61,9.8 -21.61,21.6 0,11.9 9.73,21.6 21.61,21.6" style="fill-opacity: 1; fill-rule: nonzero; stroke: none; fill: rgb(105, 159, 240);" id="path258" transform="matrix(0.133333, 0, 0, -0.133333, 0, 2666.666748)"/>
  <path d="m 2717.09,8855.6 h 645.07 c 11.89,0 21.61,-9.7 21.61,-21.6 0,-11.9 -9.72,-21.6 -21.61,-21.6 h -645.07 c -11.88,0 -21.61,9.7 -21.61,21.6 0,11.9 9.73,21.6 21.61,21.6" style="fill-opacity: 1; fill-rule: nonzero; stroke: none; fill: rgb(105, 159, 240);" id="path260" transform="matrix(0.133333, 0, 0, -0.133333, 0, 2666.666748)"/>
  <path d="m 2737.67,8757.9 h 645.07 c 11.88,0 21.61,-9.8 21.61,-21.7 0,-11.8 -9.73,-21.6 -21.61,-21.6 h -645.07 c -11.89,0 -21.61,9.8 -21.61,21.6 0,11.9 9.72,21.7 21.61,21.7" style="fill-opacity: 1; fill-rule: nonzero; stroke: none; fill: rgb(105, 159, 240);" id="path262" transform="matrix(0.133333, 0, 0, -0.133333, 0, 2666.666748)"/>
  <path d="m 3740.9,8852 139.67,-462.9 -25.61,-7.8 -139.67,463 25.61,7.7" style="fill-opacity: 1; fill-rule: nonzero; stroke: none; fill: rgb(165, 61, 56);" id="path264" transform="matrix(0.133333, 0, 0, -0.133333, 0, 2666.666748)"/>
  <path d="m 3862.7,8433.7 c 47.96,0 87.47,-33.6 93.53,-77 h -187.06 c 6.05,43.4 45.57,77 93.53,77" style="fill-opacity: 1; fill-rule: nonzero; stroke: none; fill: rgb(182, 76, 65);" id="path266" transform="matrix(0.133333, 0, 0, -0.133333, 0, 2666.666748)"/>
  <path d="m 3740.12,8369.1 c 35.79,0 71.39,6 74.22,6.5 l -1.04,6 c -35.77,-6.1 -130.97,-15.3 -141.63,14.6 -4.74,13.3 -0.31,35.7 5.82,66.7 11.15,56.3 28,141.5 8.2,260.4 -15.51,93 -3.99,121.2 8.41,128.4 12.97,7.6 30.43,-6.3 30.61,-6.4 l 3.87,4.8 c -0.86,0.7 -21.02,16.6 -37.59,6.9 -20.47,-11.9 -24.31,-57.3 -11.4,-134.8 19.63,-117.7 2.91,-202.2 -8.15,-258.1 -6.33,-32 -10.89,-55.1 -5.6,-69.9 7.07,-19.9 40.76,-25.1 74.28,-25.1" style="fill-opacity: 1; fill-rule: nonzero; stroke: none; fill: rgb(182, 76, 65);" id="path268" transform="matrix(0.133333, 0, 0, -0.133333, 0, 2666.666748)"/>
  <path d="m 12525.3,4080.2 c 0,0 -131.3,-121.6 -105.7,-208.1 25.6,-86.4 144.1,-144 160.1,-249.7 16,-105.6 80,-163.2 137.7,-163.2 57.6,0 274.7,0 274.7,0 0,0 42.4,74.3 -60,96.7 -102.5,22.4 -141.1,146.6 -134.7,261.8 6.4,115.3 -9.6,268.9 -9.6,268.9 l -217.7,51.2 -44.8,-57.6" style="fill-opacity: 1; fill-rule: nonzero; stroke: none; fill: rgb(44, 58, 100);" id="path270" transform="matrix(0.133333, 0, 0, -0.133333, 0, 2666.666748)"/>
  <path d="m 14161.2,3463.6 c 2.1,-1.1 5,-2 8.6,-3 h 734.9 c -6.4,26 -30,75.5 -116,89.5 -114.8,18.6 -313.6,85.3 -358,232 -1.4,4.7 -2.7,9.6 -3.8,14.5 -35.2,156.8 -291.3,-48.1 -291.3,-48.1 0,0 -0.8,-6.2 -1.9,-16.9 -5.9,-57.5 -21.1,-243.7 27.5,-268" style="fill-opacity: 1; fill-rule: nonzero; stroke: none; fill: rgb(44, 58, 100);" id="path272" transform="matrix(0.133333, 0, 0, -0.133333, 0, 2666.666748)"/>
  <path d="m 14758.2,7659.4 c 0,0 -38.9,-485.3 -84.6,-1068.7 -62.1,-792.4 -136.9,-1765.8 -144.3,-1950.2 -12.7,-320.2 -64,-832.4 -64,-832.4 0,0 -121.6,-121.7 -365,-70.4 0,0 -216.8,731.2 -278.8,1504.8 -0.9,12.7 -1.9,25.5 -2.9,38.2 -57.6,787.6 -147.2,2445.9 -147.2,2445.9 l 1086.8,-67.2" style="fill-opacity: 1; fill-rule: nonzero; stroke: none; fill: rgb(53, 72, 139);" id="path274" transform="matrix(0.133333, 0, 0, -0.133333, 0, 2666.666748)"/>
  <path d="m 14758.2,7659.4 c 0,0 -38.9,-485.3 -84.6,-1068.7 l -852.1,-1348.2 c -0.9,12.7 -1.9,25.5 -2.9,38.2 -57.6,787.6 -147.2,2445.9 -147.2,2445.9 l 1086.8,-67.2" style="fill-opacity: 1; fill-rule: nonzero; stroke: none; fill: rgb(44, 58, 100);" id="path276" transform="matrix(0.133333, 0, 0, -0.133333, 0, 2666.666748)"/>
  <path d="m 14580.6,7601.8 c 0,0 -701.1,-1757.6 -1162.1,-2583.6 -461,-825.9 -605.1,-1056.4 -605.1,-1056.4 0,0 -264.1,105.6 -288.1,177.7 0,0 176.3,1594.5 485,1983.2 174.4,219.7 379.4,878.8 389,1109.3 9.6,230.5 62.4,686.7 62.4,686.7 l 1118.9,-316.9" style="fill-opacity: 1; fill-rule: nonzero; stroke: none; fill: rgb(53, 72, 139);" id="path278" transform="matrix(0.133333, 0, 0, -0.133333, 0, 2666.666748)"/>
  <path d="m 14365.8,10856 c -261.3,-82.4 -713.3,140.1 -713.3,140.1 0,0 203.8,152.9 226.6,470.2 0.4,4.4 0.7,8.7 0.9,13.1 1.3,23.6 1.6,48 0.8,73.3 l 71.5,-57.5 267.6,-215.8 c 0,0 -13.7,-106.4 -19.2,-283.7 42.4,-23.2 76.4,-48.9 102.1,-71.8 42.5,-37.7 63,-67.9 63,-67.9" style="fill-opacity: 1; fill-rule: nonzero; stroke: none; fill: rgb(244, 172, 117);" id="path280" transform="matrix(0.133333, 0, 0, -0.133333, 0, 2666.666748)"/>
  <path d="m 13362.6,11029.9 c 0,0 690.5,109 1145.4,-192.2 0,0 309,-2020.3 39.9,-2211.5 -269.1,-191.2 -1185.3,0 -1185.3,0 v 2403.7" style="fill-opacity: 1; fill-rule: nonzero; stroke: none; fill: rgb(244, 172, 117);" id="path282" transform="matrix(0.133333, 0, 0, -0.133333, 0, 2666.666748)"/>
  <path d="m 14284,6452.7 h -1247.7 c 0,0 145,2129.1 186.4,2647.3 33.6,420.4 104.7,1428.3 130.4,1794.2 6,85.3 9.5,135.7 9.5,135.7 l 297.9,50.8 511.6,-663.1 c 0,0 80.9,-1768.3 77.9,-2047 -2.8,-278.7 32.3,-1364.7 34,-1547.3 1.6,-182.5 0,-370.6 0,-370.6" style="fill-opacity: 1; fill-rule: nonzero; stroke: none; fill: rgb(233, 242, 255);" id="path284" transform="matrix(0.133333, 0, 0, -0.133333, 0, 2666.666748)"/>
  <path d="M 14172.1,10417.6 14284,6452.7 h 587.8 c 0,0 -27.2,2607.7 -29.2,2847.3 -2,239.6 63.9,1271.7 -119.5,1431.8 -153.4,133.9 -522.4,263.9 -522.4,263.9 l -28.6,-578.1" style="fill-opacity: 1; fill-rule: nonzero; stroke: none; fill: rgb(233, 242, 255);" id="path286" transform="matrix(0.133333, 0, 0, -0.133333, 0, 2666.666748)"/>
  <path d="m 14204.5,11087.2 c 0,0 167.6,-115.4 161.3,-156.9 -6.3,-41.4 -29.3,-107 -29.3,-107 l -102.5,20.8 86.5,-60.8 c 0,0 -98.1,-286.1 -148.4,-365.7 l 32.4,669.6" style="fill-opacity: 1; fill-rule: nonzero; stroke: none; fill: rgb(233, 242, 255);" id="path288" transform="matrix(0.133333, 0, 0, -0.133333, 0, 2666.666748)"/>
  <path d="m 13036.3,6452.7 v 0 l 193.1,2705.6 c 327.7,20.2 695.4,98.5 695.4,98.5 0,0 22.5,72.5 25.5,120.6 2.8,46 -22.3,97.2 -22.3,97.2 0,0 -514.9,88.4 -665.2,150.5 l 11.3,159 c 34,76.2 79.9,174.5 123.5,266.5 12.1,2.7 24.8,4 38.2,4 261.9,0 752.1,-499.9 697.8,-955.3 C 14003.2,8005 13447.9,6784.9 13036.3,6452.7" style="fill-opacity: 1; fill-rule: nonzero; stroke: none; fill: rgb(222, 234, 255);" id="path290" transform="matrix(0.133333, 0, 0, -0.133333, 0, 2666.666748)"/>
  <path d="m 13879.1,11466.3 c -1.1,8.1 -3.7,12.1 -3.7,12.1 l 4.6,1 72.3,15.8 267.6,-215.8 c 0,0 -11.5,-100.5 -19.8,-284.2 -0.7,1 -275.8,153.2 -321,471.1" style="fill-opacity: 1; fill-rule: nonzero; stroke: none; fill: rgb(201, 124, 71);" id="path292" transform="matrix(0.133333, 0, 0, -0.133333, 0, 2666.666748)"/>
  <path d="m 14329,11213.8 c 0,0 -466,13 -453.4,303.1 12.6,290 -39,487 259,491 298,3.9 351,-109.3 370.3,-207.1 19.3,-97.8 -54.4,-582.9 -175.9,-587" style="fill-opacity: 1; fill-rule: nonzero; stroke: none; fill: rgb(244, 172, 117);" id="path294" transform="matrix(0.133333, 0, 0, -0.133333, 0, 2666.666748)"/>
  <path d="m 13875.4,11478.4 c 0,0 60.6,-16 108.7,48.1 48,64.1 128.1,310.7 233.8,326.7 105.8,16.1 245.1,-62.4 290.1,-17.6 65.5,65.4 150,172.4 150,172.4 0,0 -524.4,373.8 -733.7,200.8 -209.3,-173 -282.6,-426 -48.9,-730.4" style="fill-opacity: 1; fill-rule: nonzero; stroke: none; fill: rgb(44, 58, 100);" id="path296" transform="matrix(0.133333, 0, 0, -0.133333, 0, 2666.666748)"/>
  <path d="m 14504.7,10442.6 c -9.9,179.6 -107.9,472.3 -108.8,475.1 l 28,-12.4 c 3.5,-11.7 81.4,-278.8 91.5,-462.3 l -10.7,-0.4" style="fill-opacity: 1; fill-rule: nonzero; stroke: none; fill: rgb(44, 58, 100);" id="path298" transform="matrix(0.133333, 0, 0, -0.133333, 0, 2666.666748)"/>
  <path d="m 13826.1,9906.2 c -9.9,10.2 -249.7,240.9 -198.6,402.5 20,63 56.7,87.8 95.6,106.1 36.3,13.3 121.1,27.1 164.9,-0.5 79.9,-50.3 120.2,-189.2 132,-420.3 l -9.7,-0.5 c -14.1,274.1 -84.8,373.3 -137.5,395.7 -66.4,28.1 -182.8,16.5 -219.5,-89.7 -25.2,-73.1 24.3,-175.4 70.2,-245.6 51.1,-78 106.6,-147.1 107.2,-147.7 h -4.6" style="fill-opacity: 1; fill-rule: nonzero; stroke: none; fill: rgb(44, 58, 100);" id="path300" transform="matrix(0.133333, 0, 0, -0.133333, 0, 2666.666748)"/>
  <path d="m 13851,9881.3 v 0 c -9.2,-9.2 -24.2,-9.2 -33.4,0 l -16.5,16.4 c -9.1,9.2 -9.1,24.2 0,33.4 9.2,9.2 24.3,9.2 33.5,0 l 16.4,-16.4 c 9.2,-9.2 9.2,-24.2 0,-33.4" style="fill-opacity: 1; fill-rule: nonzero; stroke: none; fill: rgb(182, 76, 65);" id="path302" transform="matrix(0.133333, 0, 0, -0.133333, 0, 2666.666748)"/>
  <path d="m 14016,9949.9 v 0 c -13,0 -23.6,10.6 -23.6,23.6 v 23.2 c 0,13 10.6,23.6 23.6,23.6 13,0 23.7,-10.6 23.7,-23.6 v -23.2 c 0,-13 -10.7,-23.6 -23.7,-23.6" style="fill-opacity: 1; fill-rule: nonzero; stroke: none; fill: rgb(182, 76, 65);" id="path304" transform="matrix(0.133333, 0, 0, -0.133333, 0, 2666.666748)"/>
  <path d="m 14443.9,10442.6 c 0,35.4 28.7,64.1 64.1,64.1 35.3,0 64,-28.7 64,-64.1 0,-35.4 -28.7,-64.1 -64,-64.1 -35.4,0 -64.1,28.7 -64.1,64.1" style="fill-opacity: 1; fill-rule: nonzero; stroke: none; fill: rgb(44, 58, 100);" id="path306" transform="matrix(0.133333, 0, 0, -0.133333, 0, 2666.666748)"/>
  <path d="m 14477.8,10442.6 c 0,18 14.6,32.6 32.6,32.6 18,0 32.5,-14.6 32.5,-32.6 0,-18 -14.5,-32.6 -32.5,-32.6 -18,0 -32.6,14.6 -32.6,32.6" style="fill-opacity: 1; fill-rule: nonzero; stroke: none; fill: rgb(214, 113, 107);" id="path308" transform="matrix(0.133333, 0, 0, -0.133333, 0, 2666.666748)"/>
  <path d="m 14217.6,6452.7 c -0.4,4 -40.8,403.4 -29.1,750.5 4.9,146.7 0.7,319.1 -3.3,485.8 -5.7,237.9 -18.5,466.9 0.7,616.3 32.9,255.6 26.3,1417.3 12.8,1543.2 -13.1,122.8 -0.5,257.4 11.6,298 12.4,41.4 -40.7,268 -41.3,270.3 l 6.2,1.6 c 2.5,-9.5 59.8,-232.6 46.9,-275.7 -12.1,-40.2 -30,-171.6 -17,-293.5 13.5,-126 39.4,-1287.5 6.4,-1543.4 -19.1,-148.8 -25.6,-379 -19.9,-616.6 4,-166.8 8.2,-339.4 3.3,-486.2 -11.7,-346.7 47.2,-746.3 47.6,-750.3 h -24.9" style="fill-opacity: 1; fill-rule: nonzero; stroke: none; fill: rgb(178, 203, 253);" id="path310" transform="matrix(0.133333, 0, 0, -0.133333, 0, 2666.666748)"/>
  <path d="m 15250.8,9642 c 0,0 157.9,-271.8 -7.7,-343.3 -165.5,-71.5 -183.4,3.9 -183.4,3.9 l 191.1,339.4" style="fill-opacity: 1; fill-rule: nonzero; stroke: none; fill: rgb(233, 242, 255);" id="path312" transform="matrix(0.133333, 0, 0, -0.133333, 0, 2666.666748)"/>
  <path d="m 13928,9474.6 c 0,0 25.1,-51.2 22.3,-97.2 -3,-48.1 -25.5,-120.6 -25.5,-120.6 0,0 -974.6,-207.5 -1164,-34.1 -203.4,186.2 173.9,1585.2 335.4,1722.1 69.6,59 216.3,95 351.7,116.5 74.7,11.9 145.9,19.4 198.9,24 54.5,4.7 89.9,6.3 89.9,6.3 l -22,-81.3 -85.4,-315.9 -99.7,-368.4 c 0,0 -297.9,-613.2 -307.5,-670.9 -9.6,-57.6 705.9,-180.5 705.9,-180.5" style="fill-opacity: 1; fill-rule: nonzero; stroke: none; fill: rgb(233, 242, 255);" id="path314" transform="matrix(0.133333, 0, 0, -0.133333, 0, 2666.666748)"/>
  <path d="m 14063.7,10515.6 c 0,0 -248.3,108.1 -426.9,206.6 l 77.9,288.1 349,-494.7" style="fill-opacity: 1; fill-rule: nonzero; stroke: none; fill: rgb(222, 234, 255);" id="path316" transform="matrix(0.133333, 0, 0, -0.133333, 0, 2666.666748)"/>
  <path d="m 13636.8,10722.2 c -0.1,0.1 -0.2,0.1 -0.3,0.2 -116.6,64.4 -176.3,184.9 -188.6,338.9 74.7,11.9 145.9,19.4 198.9,24 8.5,-2.8 13.7,-4.6 13.7,-4.6 l 54.2,-70.4 -77.9,-288.1" style="fill-opacity: 1; fill-rule: nonzero; stroke: none; fill: rgb(222, 234, 255);" id="path318" transform="matrix(0.133333, 0, 0, -0.133333, 0, 2666.666748)"/>
  <path d="m 14172.1,10417.6 -387.1,738.2 c 0,0 -144.4,-29.3 -192.9,-74.7 0,0 24.6,-222 43.9,-271.2 0,0 74.7,8.6 85.4,2.2 0,0 -36.3,-55.5 -47,-61.9 0,0 336.5,-156.9 497.7,-332.6" style="fill-opacity: 1; fill-rule: nonzero; stroke: none; fill: rgb(233, 242, 255);" id="path320" transform="matrix(0.133333, 0, 0, -0.133333, 0, 2666.666748)"/>
  <path d="m 13724.2,10389.2 c -26.5,58.5 -259.6,556.4 -200.2,683.1 l 22.8,2.8 c -45,-96 116.6,-528.8 186.8,-683.9 l -9.4,-2" style="fill-opacity: 1; fill-rule: nonzero; stroke: none; fill: rgb(44, 58, 100);" id="path322" transform="matrix(0.133333, 0, 0, -0.133333, 0, 2666.666748)"/>
  <path d="m 14269,9927.1 c -17.1,0 -31.1,13.9 -31.1,31.1 0,17.2 14,31.1 31.1,31.1 17.2,0 31.1,-13.9 31.1,-31.1 0,-17.2 -13.9,-31.1 -31.1,-31.1" style="fill-opacity: 1; fill-rule: nonzero; stroke: none; fill: rgb(205, 222, 254);" id="path324" transform="matrix(0.133333, 0, 0, -0.133333, 0, 2666.666748)"/>
  <path d="m 14269,8186.1 c -17.1,0 -31.1,13.9 -31.1,31.1 0,17.2 14,31.1 31.1,31.1 17.2,0 31.1,-13.9 31.1,-31.1 0,-17.2 -13.9,-31.1 -31.1,-31.1" style="fill-opacity: 1; fill-rule: nonzero; stroke: none; fill: rgb(205, 222, 254);" id="path326" transform="matrix(0.133333, 0, 0, -0.133333, 0, 2666.666748)"/>
  <path d="m 14284.7,8981.8 c -17.1,0 -31.1,13.9 -31.1,31.1 0,17.1 14,31 31.1,31 17.2,0 31.1,-13.9 31.1,-31 0,-17.2 -13.9,-31.1 -31.1,-31.1" style="fill-opacity: 1; fill-rule: nonzero; stroke: none; fill: rgb(205, 222, 254);" id="path328" transform="matrix(0.133333, 0, 0, -0.133333, 0, 2666.666748)"/>
  <path d="m 14255.9,7449.2 c -1.5,3.5 -2.3,7.4 -2.3,11.5 0,3.5 0.6,6.8 1.7,9.9 l 0.6,-21.4" style="fill-opacity: 1; fill-rule: nonzero; stroke: none; fill: rgb(205, 222, 254);" id="path330" transform="matrix(0.133333, 0, 0, -0.133333, 0, 2666.666748)"/>
  <path d="m 14284.7,7429.7 c -13.1,0 -24.3,8 -28.8,19.5 l -0.6,21.4 c 4.1,12.3 15.7,21.2 29.4,21.2 17.2,0 31.1,-13.9 31.1,-31.1 0,-17.1 -13.9,-31 -31.1,-31" style="fill-opacity: 1; fill-rule: nonzero; stroke: none; fill: rgb(205, 222, 254);" id="path332" transform="matrix(0.133333, 0, 0, -0.133333, 0, 2666.666748)"/>
  <path d="m 13909.8,10917.7 c 0,0 107.8,-53 281.9,-20.2 l -19.6,-479.9 -262.3,500.1" style="fill-opacity: 1; fill-rule: nonzero; stroke: none; fill: rgb(122, 151, 243);" id="path334" transform="matrix(0.133333, 0, 0, -0.133333, 0, 2666.666748)"/>
  <path d="m 14590.4,10349.9 1008,-90.3 -615.1,-1092.7 -948.8,54.5 555.9,1128.5" style="fill-opacity: 1; fill-rule: nonzero; stroke: none; fill: rgb(53, 72, 139);" id="path336" transform="matrix(0.133333, 0, 0, -0.133333, 0, 2666.666748)"/>
  <path d="m 14683.3,10354.9 c 0,0 0.4,154.5 85.8,143.8 85.3,-10.7 111.1,-165.8 111.1,-165.8 l -196.9,22" style="fill-opacity: 1; fill-rule: nonzero; stroke: none; fill: rgb(178, 203, 253);" id="path338" transform="matrix(0.133333, 0, 0, -0.133333, 0, 2666.666748)"/>
  <path d="m 15591.8,10273.4 -1008,90.3 -555.9,-1128.5 6.9,-14 555.8,1128.5 1008.1,-90.3 -6.9,14" style="fill-opacity: 1; fill-rule: nonzero; stroke: none; fill: rgb(122, 151, 243);" id="path340" transform="matrix(0.133333, 0, 0, -0.133333, 0, 2666.666748)"/>
  <path d="m 14769.1,10498.7 c 0,0 142.4,-69.9 92.1,-294 -50.4,-224.1 -113.1,-347 -76.5,-479.5 l 679,-62.4 c 0,0 -73.8,176.2 8.2,354.6 82,178.3 23.7,382.1 -51.5,399.9 l -651.3,81.4" style="fill-opacity: 1; fill-rule: nonzero; stroke: none; fill: rgb(233, 242, 255);" id="path342" transform="matrix(0.133333, 0, 0, -0.133333, 0, 2666.666748)"/>
  <path d="m 15108.2,9370.3 c 0,0 -103.2,124.1 -81.9,213.8 21.4,89.7 98.3,110.4 145.2,78.7 47,-31.7 115.4,-104.3 102.6,-159.9 -12.9,-55.5 -113.9,-158.4 -165.9,-132.6" style="fill-opacity: 1; fill-rule: nonzero; stroke: none; fill: rgb(244, 172, 117);" id="path344" transform="matrix(0.133333, 0, 0, -0.133333, 0, 2666.666748)"/>
  <path d="m 13876.5,9444.2 c 0,0 174.9,76.8 255,54.4 80,-22.4 188.1,-38.4 196.5,-67.3 8.5,-28.8 -57.6,-135.5 -155.9,-140.9 -98.3,-5.4 -271.3,-51.3 -312.9,0 -41.7,51.3 17.3,153.8 17.3,153.8" style="fill-opacity: 1; fill-rule: nonzero; stroke: none; fill: rgb(244, 172, 117);" id="path346" transform="matrix(0.133333, 0, 0, -0.133333, 0, 2666.666748)"/>
  <path d="M 1170.71,3417.7 H 28829.3 c 11.4,0 20.7,9.3 20.7,20.7 0,11.4 -9.3,20.8 -20.7,20.8 H 1170.71 c -11.39,0 -20.71,-9.4 -20.71,-20.8 0,-11.4 9.32,-20.7 20.71,-20.7" style="fill-opacity: 1; fill-rule: nonzero; stroke: none; fill: rgb(40, 50, 80);" id="path348" transform="matrix(0.133333, 0, 0, -0.133333, 0, 2666.666748)"/>
  <path d="m 11168.9,11102.3 v 0 c 33.8,0 61.1,27.4 61.1,61.1 v 697.2 c 0,33.8 -27.3,61.2 -61.1,61.2 -33.8,0 -61.1,-27.4 -61.1,-61.2 v -697.2 c 0,-33.7 27.3,-61.1 61.1,-61.1" style="fill-opacity: 1; fill-rule: nonzero; stroke: none; fill: rgb(70, 106, 165);" id="path350" transform="matrix(0.133333, 0, 0, -0.133333, 0, 2666.666748)"/>
  <path d="m 11168.9,5099.2 v 0 c 33.8,0 61.1,27.4 61.1,61.1 v 697.2 c 0,33.8 -27.3,61.2 -61.1,61.2 -33.8,0 -61.1,-27.4 -61.1,-61.2 v -697.2 c 0,-33.7 27.3,-61.1 61.1,-61.1" style="fill-opacity: 1; fill-rule: nonzero; stroke: none; fill: rgb(70, 106, 165);" id="path352" transform="matrix(0.133333, 0, 0, -0.133333, 0, 2666.666748)"/>
  <path d="m 15873.4,9231 c 0,-103.3 83.7,-187.1 187,-187.1 103.3,0 187.1,83.8 187.1,187.1 0,103.2 -83.8,187 -187.1,187 -103.3,0 -187,-83.8 -187,-187" style="fill-opacity: 1; fill-rule: nonzero; stroke: none; fill: rgb(105, 159, 240);" id="path354" transform="matrix(0.133333, 0, 0, -0.133333, 0, 2666.666748)"/>
  <path d="m 15872.5,7494.7 c 0,-103.3 83.7,-187.1 187,-187.1 103.3,0 187,83.8 187,187.1 0,103.3 -83.7,187 -187,187 -103.3,0 -187,-83.7 -187,-187" style="fill-opacity: 1; fill-rule: nonzero; stroke: none; fill: rgb(105, 159, 240);" id="path356" transform="matrix(0.133333, 0, 0, -0.133333, 0, 2666.666748)"/>
  <path d="m 16059.5,7501.8 v 0 c 40.3,0 73,32.7 73,73 V 9195 c 0,40.2 -32.7,72.9 -73,72.9 -40.3,0 -73,-32.7 -73,-72.9 V 7574.8 c 0,-40.3 32.7,-73 73,-73" style="fill-opacity: 1; fill-rule: nonzero; stroke: none; fill: rgb(70, 106, 165);" id="path358" transform="matrix(0.133333, 0, 0, -0.133333, 0, 2666.666748)"/>
</svg>