<?xml version="1.0" encoding="utf-8"?>
<svg viewBox="83.531 301.36 2499.606 2063.933" width="2499.606px" height="2063.933px" xmlns="http://www.w3.org/2000/svg">
  <g id="g10" transform="matrix(1.333333, 0, 0, -1.333333, 0, 2666.666748)">
    <g id="g12" transform="scale(0.1)">
      <path d="m 3867.32,2277.4 c 0,0 -3130.289,818.2 -2740.25,5476.3 390.04,4658 5088.31,2677.8 7869.69,5498.1 2781.34,2820.3 2742.74,5370.6 6947.44,3450.4 4204.8,-1920.2 454.4,-6795.7 874.4,-7868.3 420.1,-1072.6 2670.3,-2415 2550.3,-3829 -120,-1414 -1080.1,-2575.1 -1710.2,-2729.6 l -13791.38,2.1 v 0" style="fill:#d7e9f4;fill-opacity:1;fill-rule:nonzero;stroke:none" id="path16"/>
      <path d="m 15141.3,14833.2 c 47.5,-150.4 39.9,-294 19,-403.5 218.7,450.3 377.5,738.3 381.8,746.1 4,7.2 13.2,9.8 20.4,5.8 7.3,-4 9.9,-13.1 5.8,-20.4 -4.8,-8.7 -204.4,-370.8 -464.9,-919.2 -3,-6.8 -5,-11 -5.6,-12.3 -0.2,-0.3 -0.4,-0.5 -0.6,-0.8 -134.3,-283.2 -284.3,-615.2 -431.9,-973.3 120.5,172.1 347.3,469 527.4,547.8 l 61.9,27.1 c 106.6,46.6 254.5,111.2 389.1,173.8 315.3,649.4 747.2,1424.4 300.5,1770.7 -408,316.4 -696.5,-162.4 -884.9,-643 21.8,-91.3 49.1,-194.9 82,-298.8" style="fill:#ffffff;fill-opacity:1;fill-rule:nonzero;stroke:none" id="path18"/>
      <path d="m 15623.1,13961.7 c -109.4,-50.3 -232.6,-104.6 -356.5,-158.7 l -61.9,-27.1 c -231.5,-101.4 -558.8,-600.4 -594.7,-656.1 -246.9,-612.8 -480.5,-1291.6 -614.6,-1928.8 -1.5,-7.1 -7.7,-11.9 -14.7,-11.9 -1,0 -2,0.1 -3.1,0.3 -8.1,1.7 -13.3,9.7 -11.6,17.8 134,636.4 366.8,1314 613.1,1926.2 0.1,2.6 0.8,5.1 2.3,7.4 0.4,0.7 1.1,1.8 1.9,3.1 166.7,413.5 339.2,796.8 491.2,1117.1 21.1,47.8 123.4,303.2 38.1,573.1 -28.1,89.1 -52.2,177.7 -72.2,258.8 -108.7,-287.2 -181.8,-565.4 -223.3,-664.4 -113.4,-269.9 -381.7,-389.9 -891.6,-789 -510,-399 -270,-1921.5 -270,-1921.5 l -56.4,-61.7 c 0,0 461.4,-1727.5 1465.2,-1560.5 1003.9,167.1 376.1,2532.8 317.1,3117.8 -18.6,184.1 96.3,456 241.7,758.1" style="fill:#ffffff;fill-opacity:1;fill-rule:nonzero;stroke:none" id="path20"/>
      <path d="m 4626.47,5006.8 c -2.92,-4.2 -7.57,-6.4 -12.3,-6.4 -2.97,0 -5.97,0.9 -8.58,2.7 -407.05,284.9 -886.7,366.7 -1217.41,385.2 -358.66,20.1 -623.8,-27.9 -626.44,-28.4 -8.12,-1.6 -15.96,3.8 -17.47,12 -1.51,8.1 3.87,16 12.02,17.5 2.68,0.5 271.36,49.1 633.56,28.9 334.6,-18.7 820.11,-101.7 1232.93,-390.6 6.79,-4.8 8.45,-14.1 3.69,-20.9 z m -120.66,841.4 c -509.31,988.7 -974.21,1752.5 -978.85,1760.1 -4.31,7 -2.08,16.3 4.99,20.6 7.06,4.3 16.3,2 20.62,-5 4.64,-7.6 470.11,-772.3 979.91,-1762 401.35,-779.1 900.91,-1837.7 1171.62,-2749.3 l 413.68,2698.2 c 0,0 -1093.69,1418.4 -1277.79,1972.2 -184.11,553.8 -1845.98,540.3 -1845.98,540.3 235.45,-617.7 -333.96,-1873.5 -333.96,-1873.5 l 188.05,-589.2 h -391.61 c -234.94,-697.4 134.25,-1665 134.25,-1665 L 2994.01,3956.7 2659.4,3855.3 C 2868.14,2517.1 5584.29,2331.1 5584.29,2331.1 l 109.06,711.4 c -265.29,922.8 -777.7,2010 -1187.54,2805.7" style="fill:#ffffff;fill-opacity:1;fill-rule:nonzero;stroke:none" id="path22"/>
      <path d="m 17587.2,5134 c -32.1,-3.1 -64.7,-6.2 -97.9,-9.3 -1051.4,-97.2 -1438.4,-269.1 -1579.8,-373.8 l -1808.1,-2077 c -3,-3.4 -7.2,-5.1 -11.4,-5.1 -3.4,0 -7,1.2 -9.8,3.6 -6.2,5.5 -6.9,15 -1.5,21.2 l 1722.1,1978.1 c 4.1,13.6 21.2,52.4 90.2,103.6 l 250.2,287.4 c 40.8,46.9 67.2,548.6 -19.9,946.5 -13,59.4 -17.5,121.8 -15.8,184.7 -51.8,-30.7 -105.5,-60.8 -161.3,-89.5 -655.6,-337.5 -844.4,245.3 -1147,157.3 -302.6,-88.1 -897.4,-1262.9 -897.4,-1262.9 0,0 -1100,-2269.1 154.6,-2657.2 0,0 2656.4,-342.4 3008.7,645.4 173.7,486.9 -372.5,787.3 44.6,1361.2 150.5,206.9 340,485 479.5,785.8" style="fill:#ffffff;fill-opacity:1;fill-rule:nonzero;stroke:none" id="path24"/>
      <path d="M 17493.9,6570.8 16163.9,5043 h -0.1 v 0 l -185.4,-213 c 199.2,107.3 620,242.5 1508.2,324.6 39.4,3.7 77.7,7.3 115,11 215.3,479 297.4,1011.2 -107.7,1405.2" style="fill:#ffffff;fill-opacity:1;fill-rule:nonzero;stroke:none" id="path26"/>
      <path d="m 16150.6,6015.6 c 69,-315 71.2,-725.2 38.9,-897.4 l 1282.6,1473.2 c -33.6,30.9 -70.2,61 -110.1,90 -349.1,253.6 -685.7,-141.2 -1225.3,-468.8 -3.4,-67.5 0.2,-134.2 13.9,-197" style="fill:#ffffff;fill-opacity:1;fill-rule:nonzero;stroke:none" id="path28"/>
      <path d="m 15025.3,8208.8 c -169.2,0 -319.5,43.5 -450.4,130.5 -444,295.3 -511.7,990.5 -201.1,2066.3 242.5,840 659.7,1730.5 967,2329.6 82.8,161.3 227,279.1 395.7,323.1 150,39.1 300.6,15.4 424.2,-66.7 l 243.5,-162 -105.2,-158.2 -243.6,161.9 c -77.8,51.8 -174.1,66.4 -271,41.1 -116.4,-30.3 -216.4,-112.7 -274.5,-226 -303.5,-591.6 -715.3,-1470 -953.6,-2295.5 -132.9,-460.6 -194.6,-848.9 -183.2,-1153.9 12.7,-338.4 116,-574.4 307,-701.5 191.1,-127 448.7,-131 765.6,-11.8 285.8,107.4 620,314.4 993.3,615.2 669.1,538.9 1320,1258.4 1748.2,1767 82,97.4 119.3,221.5 102.3,340.6 -14.2,99.2 -64.9,182.3 -142.7,234 l -213.1,141.7 105.2,158.2 213.1,-141.6 c 123.5,-82.2 203.6,-211.9 225.6,-365.4 24.6,-172.6 -28.2,-351.1 -145,-489.9 -433.7,-515 -1093.5,-1244.1 -1774.4,-1792.6 -614.9,-495.4 -1128.1,-744.1 -1532.9,-744.1" style="fill:#2e6b99;fill-opacity:1;fill-rule:nonzero;stroke:none" id="path30"/>
      <path d="m 17652.8,11479.4 55.3,-36.8 c 55,-36.6 129.9,-21.5 166.4,33.4 l 230.6,346.8 c 36.6,55 21.5,129.8 -33.4,166.4 l -55.4,36.8 c -55,36.6 -129.8,21.5 -166.4,-33.5 l -230.6,-346.7 c -36.5,-55 -21.5,-129.9 33.5,-166.4" style="fill:#0e2549;fill-opacity:1;fill-rule:nonzero;stroke:none" id="path32"/>
      <path d="m 16256.8,12407.8 55.4,-36.9 c 54.9,-36.5 129.8,-21.5 166.3,33.5 l 230.7,346.8 c 36.5,54.9 21.4,129.8 -33.5,166.4 l -55.4,36.8 c -54.9,36.5 -129.8,21.5 -166.4,-33.5 l -230.6,-346.8 c -36.5,-54.9 -21.5,-129.8 33.5,-166.3" style="fill:#0e2549;fill-opacity:1;fill-rule:nonzero;stroke:none" id="path34"/>
      <path d="m 16291.3,3790.5 c -33.7,0 -67.2,14.7 -90.1,43 -40.2,49.7 -32.5,122.7 17.2,162.9 5.8,4.7 588.7,486.1 595.7,1121.6 4.2,379.1 -197,744.2 -597.9,1085.3 -899.1,765.1 -1553.6,1702.5 -1581,1742.1 -36.5,52.5 -23.4,124.7 29.1,161.1 52.6,36.5 124.7,23.5 161.2,-29.1 6.6,-9.4 665.5,-952.8 1540.8,-1697.6 456.5,-388.4 685,-814.3 679.4,-1266.1 -9.2,-745.1 -654.1,-1275.2 -681.6,-1297.4 -21.4,-17.3 -47.2,-25.8 -72.8,-25.8" style="fill:#0e2549;fill-opacity:1;fill-rule:nonzero;stroke:none" id="path36"/>
      <path d="m 15250.9,3136.4 c 0,-475.6 385.5,-861.1 861.1,-861.1 475.6,0 861.2,385.5 861.2,861.1 0,475.6 -385.6,861.2 -861.2,861.2 -475.6,0 -861.1,-385.6 -861.1,-861.2" style="fill:#2e6b99;fill-opacity:1;fill-rule:nonzero;stroke:none" id="path38"/>
      <path d="m 15513.3,3117.6 c 0,-330.7 268.1,-598.8 598.7,-598.8 330.7,0 598.8,268.1 598.8,598.8 0,330.6 -268.1,598.7 -598.8,598.7 -330.6,0 -598.7,-268.1 -598.7,-598.7" style="fill:#ffffff;fill-opacity:1;fill-rule:nonzero;stroke:none" id="path40"/>
      <path d="m 16112,3701.3 c -321.8,0 -583.7,-261.9 -583.7,-583.7 0,-321.9 261.9,-583.8 583.7,-583.8 321.9,0 583.8,261.9 583.8,583.8 0,321.8 -261.9,583.7 -583.8,583.7 z m 0,-1197.5 c -338.4,0 -613.7,275.3 -613.7,613.8 0,338.4 275.3,613.7 613.7,613.7 338.5,0 613.8,-275.3 613.8,-613.7 0,-338.5 -275.3,-613.8 -613.8,-613.8" style="fill:#0e2549;fill-opacity:1;fill-rule:nonzero;stroke:none" id="path42"/>
      <path d="m 11998.9,17022.4 889.3,-936.3 710.5,674.9 -889.3,936.3 z m 888.2,-978.7 -930.7,979.8 754.1,716.3 930.7,-979.9 -754.1,-716.2" style="fill:#0e2549;fill-opacity:1;fill-rule:nonzero;stroke:none" id="path44"/>
      <path d="m 12382.9,17080.7 c -13.5,0 -26.9,-4.9 -37.4,-14.9 -21.7,-20.6 -22.6,-55 -2,-76.7 20.6,-21.8 55.1,-22.6 76.8,-2 21.7,20.6 22.6,55.1 2,76.8 v 0 c -10.7,11.2 -25,16.8 -39.4,16.8 z m 0,-138.5 c -22.3,0 -44.6,8.8 -61.1,26.2 -15.5,16.3 -23.8,37.7 -23.2,60.2 0.6,22.5 9.9,43.5 26.2,59 33.7,32 87.2,30.6 119.2,-3.1 v 0 c 32,-33.7 30.7,-87.1 -3,-119.2 -16.3,-15.4 -37.2,-23.1 -58.1,-23.1" style="fill:#0e2549;fill-opacity:1;fill-rule:nonzero;stroke:none" id="path46"/>
      <path d="m 12647.4,16802.3 c -14,0 -27.2,-5.3 -37.4,-15 -21.7,-20.6 -22.6,-55 -1.9,-76.7 9.9,-10.6 23.4,-16.6 37.9,-16.9 14.4,-0.5 28.3,4.9 38.8,14.9 10.5,10 16.5,23.5 16.9,38 0.4,14.5 -4.9,28.2 -14.9,38.8 v 0 c -10,10.5 -23.5,16.5 -38,16.8 -0.5,0.1 -0.9,0.1 -1.4,0.1 z m 0.1,-138.6 c -0.8,0 -1.5,0 -2.2,0 -22.6,0.6 -43.5,9.9 -59,26.2 -15.5,16.3 -23.7,37.7 -23.1,60.2 0.5,22.5 9.8,43.5 26.2,59 16.3,15.5 37.5,23.7 60.2,23.1 22.5,-0.5 43.4,-9.9 59,-26.2 15.5,-16.3 23.7,-37.7 23.1,-60.2 -0.6,-22.5 -9.9,-43.5 -26.2,-59 -15.8,-15 -36.3,-23.1 -58,-23.1" style="fill:#0e2549;fill-opacity:1;fill-rule:nonzero;stroke:none" id="path48"/>
      <path d="m 12911.9,16523.8 c -13.9,0 -27.2,-5.3 -37.3,-15 -21.7,-20.6 -22.6,-55 -2,-76.7 10,-10.6 23.5,-16.6 38,-16.9 14.6,-0.4 28.2,4.9 38.8,14.9 10.5,10 16.5,23.5 16.9,38 0.3,14.5 -5,28.2 -15,38.8 v 0 c -10,10.5 -23.4,16.5 -37.9,16.8 -0.5,0.1 -1,0.1 -1.5,0.1 z m 0.1,-138.7 c -0.7,0 -1.5,0.1 -2.2,0.1 -22.5,0.6 -43.5,9.9 -59,26.2 -15.5,16.3 -23.7,37.7 -23.1,60.2 0.6,22.5 9.9,43.5 26.2,59 16.3,15.5 37.4,23.7 60.2,23.1 22.6,-0.5 43.5,-9.9 59,-26.2 15.5,-16.3 23.7,-37.7 23.2,-60.2 -0.6,-22.5 -9.9,-43.5 -26.3,-59 -15.8,-15 -36.3,-23.2 -58,-23.2" style="fill:#0e2549;fill-opacity:1;fill-rule:nonzero;stroke:none" id="path50"/>
      <path d="m 12677.3,17360.4 c -13.5,0 -26.9,-5 -37.4,-14.9 -21.7,-20.6 -22.6,-55.1 -2,-76.8 20.6,-21.7 55.1,-22.6 76.8,-2 21.7,20.7 22.6,55.1 2,76.8 -10.7,11.2 -25,16.9 -39.4,16.9 z m 0,-138.6 c -22.3,0 -44.6,8.8 -61.1,26.2 -32,33.8 -30.7,87.2 3,119.2 33.8,32.1 87.2,30.7 119.2,-3 v 0 c 32,-33.7 30.7,-87.2 -3,-119.2 -16.3,-15.5 -37.2,-23.2 -58.1,-23.2" style="fill:#0e2549;fill-opacity:1;fill-rule:nonzero;stroke:none" id="path52"/>
      <path d="m 12941.8,17081.9 c -13.4,0 -26.9,-5 -37.4,-14.9 -10.5,-10 -16.5,-23.5 -16.9,-38 -0.3,-14.5 5,-28.3 15,-38.8 20.6,-21.7 55,-22.6 76.7,-2 21.7,20.7 22.6,55.1 2,76.8 -10.6,11.2 -25,16.9 -39.4,16.9 z m 0.1,-138.6 c -22.4,0 -44.6,8.8 -61.2,26.2 -15.5,16.4 -23.7,37.8 -23.1,60.3 0.5,22.5 9.9,43.4 26.2,58.9 33.7,32 87.1,30.7 119.2,-3 v 0 c 32,-33.8 30.6,-87.2 -3.1,-119.2 -16.3,-15.5 -37.2,-23.2 -58,-23.2" style="fill:#0e2549;fill-opacity:1;fill-rule:nonzero;stroke:none" id="path54"/>
      <path d="m 13206.4,16803.4 c -13.5,0 -26.9,-5 -37.4,-14.9 -10.5,-10 -16.5,-23.5 -16.9,-38 -0.4,-14.5 4.9,-28.3 14.9,-38.8 20.6,-21.7 55.1,-22.6 76.8,-2 21.7,20.6 22.6,55.1 2,76.8 -10.7,11.2 -25.1,16.9 -39.4,16.9 z m 0,-138.6 c -22.3,0 -44.6,8.8 -61.1,26.2 -15.6,16.4 -23.8,37.8 -23.2,60.3 0.6,22.5 9.9,43.4 26.2,58.9 33.7,32 87.2,30.7 119.2,-3 v 0 c 32,-33.8 30.6,-87.2 -3.1,-119.2 -16.2,-15.5 -37.1,-23.2 -58,-23.2" style="fill:#0e2549;fill-opacity:1;fill-rule:nonzero;stroke:none" id="path56"/>
      <path d="m 666.176,5537.5 892.784,-404.1 532.46,1176.6 -892.78,404 z m 907.744,-443.8 -947.44,428.8 557.2,1231.2 947.44,-428.8 -557.2,-1231.2" style="fill:#0e2549;fill-opacity:1;fill-rule:nonzero;stroke:none" id="path58"/>
      <path d="m 1410.12,6331.2 h 0.1 z m -63.11,82.9 c -6.47,0 -12.95,-1.2 -19.18,-3.5 -13.57,-5.1 -24.34,-15.2 -30.32,-28.5 -5.98,-13.2 -6.46,-27.9 -1.34,-41.5 5.11,-13.6 15.21,-24.3 28.42,-30.3 27.26,-12.4 59.52,-0.2 71.87,27.1 v 0 c 12.34,27.2 0.2,59.5 -27.08,71.8 -7.15,3.3 -14.76,4.9 -22.37,4.9 z m -0.15,-138.7 c -11.61,0 -23.39,2.5 -34.64,7.5 -42.35,19.2 -61.21,69.3 -42.04,111.6 19.16,42.4 69.2,61.2 111.57,42.1 42.34,-19.2 61.2,-69.3 42.04,-111.6 v 0 c -14.08,-31.1 -44.83,-49.6 -76.93,-49.6" style="fill:#0e2549;fill-opacity:1;fill-rule:nonzero;stroke:none" id="path60"/>
      <path d="m 1251.75,5981.2 h 0.1 z m -63.12,82.9 c -6.46,0 -12.94,-1.1 -19.18,-3.5 -13.57,-5.1 -24.34,-15.2 -30.32,-28.4 -5.98,-13.2 -6.46,-28 -1.34,-41.5 5.12,-13.6 15.21,-24.4 28.43,-30.4 27.28,-12.3 59.51,-0.2 71.86,27.1 12.34,27.3 0.19,59.5 -27.08,71.9 -7.15,3.2 -14.75,4.8 -22.37,4.8 z m -0.15,-138.6 c -11.61,0 -23.39,2.4 -34.64,7.5 -42.35,19.2 -61.21,69.2 -42.04,111.6 19.17,42.3 69.22,61.2 111.57,42 42.34,-19.2 61.21,-69.2 42.05,-111.6 v 0 c -14.09,-31.1 -44.83,-49.5 -76.94,-49.5" style="fill:#0e2549;fill-opacity:1;fill-rule:nonzero;stroke:none" id="path62"/>
      <path d="m 1030.31,5714.2 c -20.69,0 -40.486,-11.9 -49.552,-31.9 -5.988,-13.3 -6.461,-28 -1.348,-41.6 5.117,-13.6 15.207,-24.3 28.43,-30.3 13.22,-6 27.97,-6.5 41.54,-1.4 13.57,5.2 24.35,15.2 30.32,28.5 5.98,13.2 6.46,27.9 1.34,41.5 -5.11,13.6 -15.21,24.3 -28.42,30.3 -7.24,3.3 -14.84,4.9 -22.31,4.9 z m -0.2,-138.6 c -11.61,0 -23.4,2.4 -34.645,7.5 -20.516,9.2 -36.188,26 -44.125,47 -7.942,21.1 -7.203,44 2.082,64.5 19.172,42.4 69.208,61.2 111.568,42.1 42.35,-19.2 61.21,-69.2 42.05,-111.6 -14.08,-31.1 -44.82,-49.5 -76.93,-49.5" style="fill:#0e2549;fill-opacity:1;fill-rule:nonzero;stroke:none" id="path64"/>
      <path d="m 1780.05,6163.7 h 0.1 z m -63.12,83 c -6.46,0 -12.94,-1.2 -19.17,-3.6 -13.57,-5.1 -24.34,-15.2 -30.32,-28.4 -5.98,-13.2 -6.46,-27.9 -1.34,-41.5 5.12,-13.6 15.21,-24.4 28.43,-30.3 27.25,-12.4 59.51,-0.2 71.86,27 v 0 c 5.98,13.3 6.46,28 1.34,41.6 -5.12,13.5 -15.21,24.3 -28.43,30.3 -7.15,3.2 -14.74,4.9 -22.37,4.9 z m -0.14,-138.7 c -11.6,0 -23.39,2.4 -34.64,7.5 -42.35,19.2 -61.21,69.2 -42.04,111.6 9.28,20.5 26,36.2 47.07,44.1 21.08,8 43.97,7.2 64.49,-2.1 42.35,-19.1 61.22,-69.2 42.05,-111.5 v 0 c -14.08,-31.1 -44.82,-49.6 -76.93,-49.6" style="fill:#0e2549;fill-opacity:1;fill-rule:nonzero;stroke:none" id="path66"/>
      <path d="m 1558.56,5896.7 c -6.46,0 -12.94,-1.2 -19.18,-3.5 -13.57,-5.1 -24.34,-15.2 -30.32,-28.4 -5.98,-13.2 -6.46,-28 -1.34,-41.6 5.12,-13.5 15.21,-24.3 28.43,-30.3 13.21,-6 27.97,-6.4 41.54,-1.3 13.57,5.1 24.34,15.2 30.32,28.4 v 0 c 12.35,27.3 0.2,59.5 -27.08,71.9 -7.15,3.2 -14.75,4.8 -22.37,4.8 z m -0.15,-138.6 c -11.61,0 -23.39,2.4 -34.64,7.5 -42.34,19.1 -61.21,69.2 -42.04,111.5 19.17,42.4 69.21,61.2 111.57,42.1 42.35,-19.2 61.21,-69.2 42.04,-111.6 -14.08,-31.1 -44.82,-49.5 -76.93,-49.5" style="fill:#0e2549;fill-opacity:1;fill-rule:nonzero;stroke:none" id="path68"/>
      <path d="m 1400.24,5546.7 c -20.68,0 -40.48,-11.8 -49.56,-31.9 -12.35,-27.3 -0.19,-59.5 27.09,-71.8 13.22,-6 27.97,-6.5 41.54,-1.4 13.58,5.1 24.35,15.2 30.32,28.4 5.99,13.3 6.46,28 1.35,41.6 -5.12,13.6 -15.21,24.3 -28.43,30.3 -7.24,3.3 -14.83,4.8 -22.31,4.8 z m -0.2,-138.6 c -11.61,0 -23.39,2.4 -34.64,7.5 -42.35,19.2 -61.22,69.2 -42.05,111.6 19.17,42.3 69.22,61.2 111.57,42 42.35,-19.1 61.21,-69.2 42.05,-111.5 -14.08,-31.1 -44.82,-49.6 -76.93,-49.6" style="fill:#0e2549;fill-opacity:1;fill-rule:nonzero;stroke:none" id="path70"/>
      <path d="m 3911.81,11176.9 -28.84,-163.8 -310.36,54.7 28.84,163.8 c 15.06,85.5 96.96,142.9 182.5,127.8 85.56,-15 142.92,-96.9 127.86,-182.5 z m -245.38,-485 c -85.57,15 -142.92,96.9 -127.87,182.5 l 28.84,163.8 310.36,-54.6 -28.83,-163.8 c -15.08,-85.6 -96.94,-143 -182.5,-127.9 z m 122.72,697.1 c -101.92,17.9 -199.32,-50.4 -217.25,-152.2 l -62.88,-357.2 c -17.93,-101.9 50.35,-199.3 152.2,-217.3 10.96,-1.9 21.85,-2.8 32.61,-2.8 89.28,0 168.63,64.1 184.64,155.1 l 62.88,357.1 c 17.93,101.9 -50.34,199.3 -152.2,217.3" style="fill:#0e2549;fill-opacity:1;fill-rule:nonzero;stroke:none" id="path72"/>
      <path d="m 18606.2,6235.7 -214.4,-251.6 -412.4,351.4 214.4,251.6 c 80.8,94.7 223.6,106.1 318.3,25.4 l 68.7,-58.5 c 45.7,-39 73.5,-93.6 78.3,-154 4.9,-60.3 -13.9,-118.6 -52.9,-164.3 z m -448.3,-526.1 c -80.7,-94.7 -223.5,-106.1 -318.3,-25.4 l -68.6,58.6 c -94.8,80.7 -106.2,223.5 -25.4,318.3 l 214.4,251.6 412.3,-351.5 z m 531.1,692.8 c -5.4,68.3 -36.9,130.3 -88.7,174.4 l -68.7,58.5 c -107.4,91.5 -269.1,78.6 -360.6,-28.8 l -448.3,-526 c -91.5,-107.3 -78.5,-269.1 28.8,-360.6 l 68.7,-58.5 c 48,-40.9 107,-61 165.7,-61 72.4,0 144.3,30.5 194.9,89.8 l 448.2,526 c 44.2,51.8 65.5,117.9 60,186.2" style="fill:#0e2549;fill-opacity:1;fill-rule:nonzero;stroke:none" id="path74"/>
      <path d="m 17460.3,7623.1 c -29.3,-37.2 -71,-60.7 -117.6,-66.3 -46.7,-5.5 -92.7,7.5 -129.9,36.7 -37.2,29.2 -60.7,71 -66.3,117.6 l -22.1,184.8 350.4,42 22.1,-184.9 c 5.6,-46.6 -7.4,-92.7 -36.6,-129.9 z m -207.3,683.6 c 7.1,0.9 14.1,1.3 21.1,1.3 88,0 164.3,-66 175.1,-155.5 l 22.1,-184.9 -350.4,-41.9 -22.1,184.9 c -11.6,96.6 57.6,184.6 154.2,196.1 z m 273.7,-550.2 -47.8,399.6 c -13.5,113 -116.6,193.9 -229.5,180.4 -113,-13.5 -194,-116.5 -180.4,-229.5 l 23.9,-199.7 v 0 -0.1 l 23.8,-199.7 c 6.6,-54.5 34.1,-103.4 77.6,-137.6 36.9,-29 81.3,-44.3 127.2,-44.3 8.2,0 16.5,0.5 24.8,1.4 54.5,6.6 103.4,34.1 137.5,77.6 34.2,43.4 49.4,97.4 42.9,151.9" style="fill:#0e2549;fill-opacity:1;fill-rule:nonzero;stroke:none" id="path76"/>
      <path d="M 14314.8,2275.7 H 5546.61 V 14786.6 H 14314.8 V 2275.7" style="fill:#2e6b99;fill-opacity:1;fill-rule:nonzero;stroke:none" id="path78"/>
      <path d="M 13410.8,3094.5 H 6375.37 V 13941.9 H 13410.8 V 3094.5" style="fill:#ffffff;fill-opacity:1;fill-rule:nonzero;stroke:none" id="path80"/>
      <path d="M 6390.37,3109.5 H 13395.8 V 13926.9 H 6390.37 Z m 7035.43,-30 H 6360.37 V 13956.9 H 13425.8 V 3079.5" style="fill:#0e2549;fill-opacity:1;fill-rule:nonzero;stroke:none" id="path82"/>
      <path d="m 8015.28,11101.8 c 0,-315 -256.29,-571.3 -571.31,-571.3 -315.01,0 -571.3,256.3 -571.3,571.3 0,109.2 30.87,211.4 84.28,298.3 l 395.52,-424.4 555.85,458.3 c 67.22,-93.7 106.96,-208.4 106.96,-332.2 z m -571.31,571.3 c 180.41,0 341.45,-84.2 446.23,-215.2 l -535.03,-441.1 -381.29,409.1 c 103.18,149.2 275.37,247.2 470.09,247.2 z m 821.42,74.7 c -5.27,6.4 -14.72,7.3 -21.11,2 L 7913.33,11477 c -110.28,137.7 -279.64,226.1 -469.36,226.1 -202.58,0 -381.96,-100.8 -490.96,-254.8 l -42.46,45.6 c -5.65,6 -15.15,6.4 -21.2,0.7 -6.06,-5.7 -6.4,-15.1 -0.75,-21.2 l 47.25,-50.7 c -58.91,-92.9 -93.18,-203 -93.18,-320.9 0,-331.6 269.74,-601.3 601.3,-601.3 331.56,0 601.31,269.7 601.31,601.3 0,131.1 -42.29,252.4 -113.77,351.3 l 331.85,273.6 c 6.39,5.3 7.3,14.7 2.03,21.1" style="fill:#0e2549;fill-opacity:1;fill-rule:nonzero;stroke:none" id="path84"/>
      <path d="m 7930.64,9006.1 c 0,-315 -256.28,-571.3 -571.3,-571.3 -315.02,0 -571.31,256.3 -571.31,571.3 0,109.3 30.88,211.4 84.29,298.3 l 395.52,-424.3 555.85,458.2 c 67.21,-93.6 106.95,-208.3 106.95,-332.2 z m -571.3,571.3 c 180.41,0 341.45,-84.1 446.22,-215.1 l -535.03,-441.1 -381.29,409.1 c 103.19,149.2 275.38,247.1 470.1,247.1 z m 821.42,74.8 c -5.27,6.4 -14.73,7.3 -21.12,2 L 7828.7,9381.4 c -110.29,137.6 -279.65,226 -469.36,226 -202.59,0 -381.96,-100.8 -490.96,-254.7 l -42.47,45.5 c -5.65,6.1 -15.14,6.4 -21.2,0.8 -6.06,-5.7 -6.39,-15.2 -0.74,-21.2 l 47.25,-50.7 c -58.92,-93 -93.19,-203 -93.19,-321 0,-331.5 269.75,-601.3 601.31,-601.3 331.56,0 601.3,269.8 601.3,601.3 0,131.1 -42.29,252.5 -113.76,351.4 l 331.85,273.6 c 6.39,5.2 7.3,14.7 2.03,21.1" style="fill:#0e2549;fill-opacity:1;fill-rule:nonzero;stroke:none" id="path86"/>
      <path d="m 7903.51,6910.5 c 0,-315 -256.28,-571.3 -571.3,-571.3 -315.02,0 -571.31,256.3 -571.31,571.3 0,109.2 30.87,211.4 84.29,298.3 l 395.51,-424.3 555.85,458.2 c 67.22,-93.7 106.96,-208.4 106.96,-332.2 z m -571.3,571.3 c 180.41,0 341.44,-84.1 446.22,-215.1 l -535.04,-441.1 -381.28,409 c 103.18,149.2 275.38,247.2 470.1,247.2 z m 821.41,74.7 c -5.27,6.4 -14.72,7.3 -21.12,2.1 l -330.94,-272.9 c -110.28,137.7 -279.64,226.1 -469.35,226.1 -202.59,0 -381.97,-100.8 -490.97,-254.8 l -42.46,45.6 c -5.65,6 -15.14,6.4 -21.2,0.7 -6.06,-5.6 -6.39,-15.1 -0.74,-21.2 l 47.24,-50.7 c -58.91,-92.9 -93.18,-203 -93.18,-320.9 0,-331.6 269.74,-601.3 601.31,-601.3 331.55,0 601.3,269.7 601.3,601.3 0,131.1 -42.29,252.4 -113.77,351.3 l 331.85,273.6 c 6.39,5.3 7.3,14.7 2.03,21.1" style="fill:#0e2549;fill-opacity:1;fill-rule:nonzero;stroke:none" id="path88"/>
      <path d="M 12871.6,11578.8 H 8603.82 c -8.29,0 -15,6.7 -15,15 0,8.3 6.71,15 15,15 h 4267.78 c 8.3,0 15,-6.7 15,-15 0,-8.3 -6.7,-15 -15,-15" style="fill:#0e2549;fill-opacity:1;fill-rule:nonzero;stroke:none" id="path90"/>
      <path d="M 11707.2,10887.9 H 8567.81 c -8.29,0 -15,6.8 -15,15 0,8.3 6.71,15 15,15 h 3139.39 c 8.2,0 15,-6.7 15,-15 0,-8.2 -6.8,-15 -15,-15" style="fill:#0e2549;fill-opacity:1;fill-rule:nonzero;stroke:none" id="path92"/>
      <path d="M 12828,9403.4 H 8513.81 c -8.29,0 -15,6.8 -15,15 0,8.3 6.71,15 15,15 H 12828 c 8.3,0 15,-6.7 15,-15 0,-8.2 -6.7,-15 -15,-15" style="fill:#0e2549;fill-opacity:1;fill-rule:nonzero;stroke:none" id="path94"/>
      <path d="M 10539.4,8712.6 H 8477.8 c -8.29,0 -15,6.7 -15,15 0,8.2 6.71,15 15,15 h 2061.6 c 8.3,0 15,-6.8 15,-15 0,-8.3 -6.7,-15 -15,-15" style="fill:#0e2549;fill-opacity:1;fill-rule:nonzero;stroke:none" id="path96"/>
      <path d="M 12871.6,7228.1 H 8433.81 c -8.29,0 -15,6.7 -15,15 0,8.2 6.71,15 15,15 h 4437.79 c 8.3,0 15,-6.8 15,-15 0,-8.3 -6.7,-15 -15,-15" style="fill:#0e2549;fill-opacity:1;fill-rule:nonzero;stroke:none" id="path98"/>
      <path d="m 11879.8,6537.2 h -3482 c -8.29,0 -15,6.7 -15,15 0,8.3 6.71,15 15,15 h 3482 c 8.2,0 15,-6.7 15,-15 0,-8.3 -6.8,-15 -15,-15" style="fill:#0e2549;fill-opacity:1;fill-rule:nonzero;stroke:none" id="path100"/>
      <path d="M 11196.1,5601.3 H 7037.9 c -8.29,0 -15,6.7 -15,15 0,8.2 6.71,15 15,15 h 4158.2 c 8.3,0 15,-6.8 15,-15 0,-8.3 -6.7,-15 -15,-15" style="fill:#0e2549;fill-opacity:1;fill-rule:nonzero;stroke:none" id="path102"/>
      <path d="M 11159.9,4893.3 H 7001.7 c -8.28,0 -15,6.7 -15,15 0,8.3 6.72,15 15,15 h 4158.2 c 8.3,0 15,-6.7 15,-15 0,-8.3 -6.7,-15 -15,-15" style="fill:#0e2549;fill-opacity:1;fill-rule:nonzero;stroke:none" id="path104"/>
      <path d="m 8226.06,14715.2 c 0,-1514.6 -705.07,-2742.4 -1574.82,-2742.4 -869.75,0 -1574.81,1227.8 -1574.81,2742.4 0,0 579.91,194.9 764.44,279.2 215.87,98.7 837.12,452.7 837.12,452.7 0,0 607.21,-356.8 809.94,-452.7 184.29,-87.1 738.13,-279.2 738.13,-279.2" style="fill:#d2ebfc;fill-opacity:1;fill-rule:nonzero;stroke:none" id="path106"/>
      <path d="m 5091.44,14704.4 c 3.32,-1499 701.76,-2716.6 1559.81,-2716.6 858.03,0 1556.48,1217.8 1559.8,2716.7 -76.14,26.6 -560.36,196.4 -729.53,276.4 -188.82,89.3 -733.24,407.6 -803.64,448.9 -71.54,-40.7 -629.64,-357.1 -830.77,-449 -169.61,-77.5 -677.09,-249.8 -755.67,-276.4 z m 1559.81,-2746.6 c -426.25,0 -826.35,287.9 -1126.58,810.7 -298.73,520.3 -463.24,1211.6 -463.24,1946.7 v 10.8 l 10.22,3.4 c 5.79,1.9 581.28,195.6 762.99,278.7 212.79,97.2 829.72,448.5 835.93,452 l 7.54,4.3 7.48,-4.4 c 6.07,-3.5 608.95,-357.5 808.76,-452 181.44,-85.8 731.09,-276.7 736.63,-278.6 l 10.08,-3.5 v -10.7 c 0,-735.1 -164.52,-1426.4 -463.25,-1946.7 -300.23,-522.8 -700.31,-810.7 -1126.56,-810.7" style="fill:#0e2549;fill-opacity:1;fill-rule:nonzero;stroke:none" id="path108"/>
      <path d="m 7939.31,14504.8 c 0,-1238.8 -576.69,-2243.1 -1288.07,-2243.1 -711.38,0 -1288.06,1004.3 -1288.06,2243.1 0,0 514.19,165.8 676.81,240.4 166.3,76.3 638.9,363.2 638.9,363.2 0,0 467.77,-300.6 634.51,-380.5 148.36,-71 625.91,-223.1 625.91,-223.1" style="fill:#ffffff;fill-opacity:1;fill-rule:nonzero;stroke:none" id="path110"/>
      <path d="m 5378.19,14493.9 c 3.41,-1223.5 573.18,-2217.2 1273.06,-2217.2 699.86,0 1269.64,993.6 1273.04,2217.1 -72.53,23.3 -480.18,154.9 -617.37,220.6 -155.8,74.6 -564.2,335.3 -628.26,376.4 -63.07,-38.2 -479.16,-288.9 -632.42,-359.3 -150.72,-69.1 -592.35,-213.1 -668.05,-237.6 z m 1273.06,-2247.2 c -349.66,0 -677.74,236 -923.81,664.5 -244.57,425.9 -379.26,991.9 -379.26,1593.6 v 10.9 l 10.39,3.4 c 5.14,1.6 515.21,166.3 675.16,239.7 163.63,75.1 632.65,359.6 637.37,362.5 l 8.01,4.8 7.89,-5 c 4.67,-3 468.89,-301.1 632.88,-379.6 145.73,-69.8 619.21,-220.9 623.98,-222.4 l 10.45,-3.4 v -10.9 c 0,-601.7 -134.69,-1167.7 -379.26,-1593.6 -246.07,-428.5 -574.15,-664.5 -923.8,-664.5" style="fill:#0e2549;fill-opacity:1;fill-rule:nonzero;stroke:none" id="path112"/>
      <path d="m 16891,14545.9 c -46.1,0 -88.7,-14.6 -127.1,-43.6 -95.7,-72.3 -150.3,-171.3 -162.2,-294.2 -46.3,-476 549.6,-1178.1 623.8,-1263.4 100.6,50.1 910.4,464.7 1067.6,917.1 39.2,113 34.5,220.8 -14.1,320.2 -21.6,44.2 -56.4,73 -106.4,88 -233.5,70 -694.1,-199.7 -698.7,-202.4 l -12.6,-7.4 -7.7,12.3 c -2.7,4.3 -269.1,423.5 -519.9,469.4 -14.5,2.7 -28.7,4 -42.7,4 z m 327.1,-1638.1 -7.5,8.4 c -28.1,31.5 -689.2,776.9 -638.8,1294.8 12.8,131.6 71.3,237.7 174,315.2 57,43.1 122,58.3 193.3,45.2 241.9,-44.3 484.9,-398.7 532,-470.7 77.9,44.4 483.5,266 710.1,198 57.7,-17.3 99.6,-52.1 124.7,-103.5 52.3,-106.9 57.5,-222.4 15.5,-343.3 -170.9,-491.8 -1055.5,-921.2 -1093.1,-939.2 l -10.2,-4.9" style="fill:#0e2549;fill-opacity:1;fill-rule:nonzero;stroke:none" id="path118"/>
      <path d="m 14698.8,16258.5 -108.3,-151.5 -287,205.3 108.3,151.4 c 27.3,38.2 68,63.5 114.6,71.2 9.9,1.7 19.8,2.5 29.6,2.5 36.4,0 71.8,-11.2 101.9,-32.7 38.2,-27.3 63.5,-68 71.2,-114.7 7.8,-46.6 -3,-93.3 -30.3,-131.5 z m -234,-327.3 c -56.6,-79.1 -167,-97.5 -246.1,-40.9 -79.2,56.6 -97.5,167 -41,246.1 l 108.3,151.5 287.1,-205.3 z m 293.9,463.7 c -9,54.6 -38.6,102.2 -83.3,134.2 -44.7,31.9 -99.3,44.5 -153.9,35.4 -54.6,-9 -102.2,-38.6 -134.1,-83.3 l -234.1,-327.3 c -66.2,-92.6 -44.7,-221.8 47.9,-288 35.2,-25.2 76.7,-38.4 119.3,-38.4 11.5,0 23,1 34.6,2.9 54.5,9 102.2,38.7 134.1,83.3 l 234,327.3 c 32,44.7 44.6,99.4 35.5,153.9" style="fill:#0e2549;fill-opacity:1;fill-rule:nonzero;stroke:none" id="path120"/>
      <path d="m 2521.06,9835.5 58.28,-1154.8 770.36,267.1 -643.19,949.7 c -57.6,85.1 -190.63,40.6 -185.45,-62" style="fill:#d2ebfc;fill-opacity:1;fill-rule:nonzero;stroke:none" id="path122"/>
      <path d="m 2623.5,9927.2 c -10.24,0 -20,-1.7 -28.5,-4.5 -28.73,-9.6 -61.4,-38 -58.96,-86.5 l 57.27,-1134.8 733.01,254.2 -632.23,933.5 c -19.14,28.3 -46.22,38.1 -70.59,38.1 z M 2565.36,8660 2506.08,9834.7 c -2.71,53.7 28.46,99.4 79.4,116.4 50.95,17.1 103.33,-0.7 133.45,-45.1 L 3373.08,8940.1 2565.36,8660" style="fill:#0e2549;fill-opacity:1;fill-rule:nonzero;stroke:none" id="path124"/>
      <path d="m 5212.57,2332.2 v 0 c -253.72,-88 -530.73,46.4 -618.72,300.1 l -2011.3,5799.4 c -87.99,253.7 46.36,530.7 300.07,618.7 v 0 c 253.72,88 530.73,-46.4 618.72,-300.1 L 5512.64,2951 c 87.99,-253.8 -46.36,-530.8 -300.07,-618.8" style="fill:#d2ebfc;fill-opacity:1;fill-rule:nonzero;stroke:none" id="path126"/>
      <path d="m 3041.53,9062.3 c -51.11,0 -103.05,-8.4 -153.99,-26.1 -245.5,-85.1 -375.96,-354.1 -290.82,-599.6 l 2011.3,-5799.4 c 41.24,-118.9 126.33,-214.6 239.59,-269.6 113.25,-54.9 241.12,-62.4 360.04,-21.2 v 0 c 118.93,41.3 214.67,126.3 269.6,239.6 54.92,113.3 62.46,241.1 21.22,360 l -2011.3,5799.4 c -67.47,194.6 -250.44,316.9 -445.64,316.9 z M 5052.84,2290.1 c -74.75,0 -149.09,17 -218.32,50.5 -120.47,58.5 -210.98,160.3 -254.84,286.8 l -2011.3,5799.4 c -90.56,261.1 48.2,547.2 309.33,637.8 261.12,90.5 547.24,-48.2 637.8,-309.4 l 2011.3,-5799.3 c 43.87,-126.5 35.86,-262.5 -22.57,-383 -58.42,-120.5 -160.27,-211 -286.75,-254.8 v 0 c -53.8,-18.7 -109.34,-28 -164.65,-28" style="fill:#0e2549;fill-opacity:1;fill-rule:nonzero;stroke:none" id="path128"/>
      <path d="m 4213.21,6000.5 c -2.71,7.8 -11.25,11.9 -19.08,9.2 l -174.79,-60.6 -75.36,217.3 68.79,23.9 c 7.83,2.7 11.97,11.2 9.26,19 -2.72,7.9 -11.28,12 -19.09,9.3 l -68.79,-23.9 -75.37,217.4 174.99,60.6 c 7.83,2.7 11.97,11.3 9.25,19.1 -2.72,7.8 -11.25,12 -19.08,9.3 l -174.98,-60.7 -75.37,217.3 68.79,23.9 c 7.83,2.7 11.97,11.2 9.26,19 -2.72,7.9 -11.27,12 -19.09,9.3 l -68.79,-23.9 -75.36,217.3 174.89,60.7 c 7.82,2.7 11.96,11.3 9.25,19.1 -2.72,7.8 -11.25,12 -19.09,9.2 l -174.88,-60.6 -75.37,217.3 68.89,23.9 c 7.83,2.7 11.97,11.2 9.26,19.1 -2.72,7.8 -11.27,12 -19.09,9.2 l -68.89,-23.9 -75.36,217.3 175.09,60.8 c 7.82,2.7 11.96,11.2 9.25,19 -2.72,7.9 -11.26,12 -19.09,9.3 l -175.08,-60.7 -75.36,217.3 68.89,23.9 c 7.83,2.7 11.97,11.2 9.25,19.1 -2.71,7.8 -11.26,11.9 -19.08,9.2 l -68.89,-23.9 -75.36,217.3 174.98,60.7 c 7.83,2.7 11.97,11.3 9.26,19.1 -2.72,7.8 -11.25,12 -19.09,9.3 l -174.98,-60.7 -75.37,217.3 68.99,23.9 c 7.83,2.7 11.97,11.3 9.25,19.1 -2.71,7.8 -11.26,12 -19.08,9.2 l -68.99,-23.9 -75.36,217.3 175.18,60.8 c 7.83,2.7 11.97,11.2 9.25,19.1 -2.71,7.8 -11.25,11.9 -19.08,9.2 l -175.18,-60.7 -75.36,217.3 68.99,23.9 c 7.82,2.7 11.96,11.2 9.25,19.1 -2.72,7.8 -11.26,12 -19.09,9.2 l -68.98,-23.9 -138.8,400.2 c 33.84,34.3 47.45,86 30.58,134.7 l -130.54,376.4 c -23.67,68.2 -98.19,104.4 -166.43,80.7 v 0 c -68.25,-23.7 -104.38,-98.2 -80.72,-166.4 l 130.56,-376.4 c 16.77,-48.4 59.1,-80.5 106.61,-86.8 l 138.9,-400.5 -68.32,-23.7 c -7.82,-2.7 -11.97,-11.2 -9.25,-19.1 2.15,-6.2 7.96,-10.1 14.17,-10.1 1.63,0 3.29,0.3 4.92,0.9 l 68.31,23.7 75.37,-217.3 -174.79,-60.7 c -7.83,-2.7 -11.97,-11.2 -9.25,-19 2.14,-6.2 7.95,-10.1 14.17,-10.1 1.63,0 3.28,0.2 4.91,0.8 l 174.79,60.6 75.36,-217.3 -68.32,-23.7 c -7.83,-2.7 -11.97,-11.2 -9.25,-19.1 2.14,-6.2 7.95,-10 14.17,-10 1.63,0 3.28,0.2 4.91,0.8 l 68.32,23.7 75.36,-217.3 -174.98,-60.7 c -7.83,-2.7 -11.97,-11.3 -9.25,-19.1 2.14,-6.2 7.95,-10.1 14.17,-10.1 1.63,0 3.28,0.3 4.91,0.8 l 174.98,60.7 75.37,-217.3 -68.42,-23.7 c -7.83,-2.7 -11.97,-11.3 -9.26,-19.1 2.15,-6.2 7.96,-10.1 14.17,-10.1 1.63,0 3.29,0.3 4.92,0.9 l 68.42,23.7 75.36,-217.3 -174.89,-60.7 c -7.83,-2.7 -11.97,-11.2 -9.25,-19.1 2.15,-6.2 7.96,-10 14.17,-10 1.63,0 3.29,0.2 4.92,0.8 l 174.88,60.6 75.36,-217.3 -68.42,-23.7 c -7.83,-2.7 -11.97,-11.3 -9.25,-19.1 2.15,-6.2 7.96,-10.1 14.17,-10.1 1.63,0 3.29,0.3 4.92,0.9 l 68.41,23.7 75.37,-217.3 -175.09,-60.7 c -7.82,-2.7 -11.97,-11.3 -9.25,-19.1 2.15,-6.2 7.96,-10.1 14.17,-10.1 1.63,0 3.29,0.3 4.92,0.8 l 175.07,60.8 75.37,-217.4 -68.52,-23.7 c -7.83,-2.7 -11.97,-11.3 -9.25,-19.1 2.15,-6.2 7.96,-10.1 14.17,-10.1 1.63,0 3.28,0.3 4.91,0.8 l 68.52,23.8 75.37,-217.3 -174.99,-60.7 c -7.83,-2.7 -11.97,-11.2 -9.26,-19.1 2.15,-6.2 7.96,-10.1 14.17,-10.1 1.63,0 3.29,0.3 4.92,0.9 l 174.99,60.7 75.36,-217.3 -68.52,-23.8 c -7.83,-2.7 -11.97,-11.3 -9.26,-19.1 2.15,-6.2 7.96,-10.1 14.17,-10.1 1.63,0 3.29,0.3 4.92,0.9 l 68.52,23.7 75.36,-217.3 -175.18,-60.8 c -7.83,-2.7 -11.97,-11.2 -9.26,-19 2.15,-6.2 7.96,-10.1 14.17,-10.1 1.63,0 3.29,0.2 4.92,0.8 l 175.18,60.8 75.36,-217.3 -68.08,-23.7 c -7.83,-2.7 -11.97,-11.2 -9.26,-19 2.15,-6.2 7.96,-10.1 14.17,-10.1 1.63,0 3.29,0.2 4.92,0.8 l 68.08,23.6 56.25,-162.2 109.84,38.1 -56.25,162.2 69.22,24 c 7.82,2.7 11.97,11.3 9.25,19.1 -2.71,7.8 -11.24,12 -19.09,9.3 l -69.21,-24.1 -75.37,217.4 174.79,60.6 c 7.83,2.7 11.97,11.2 9.25,19.1" style="fill:#0e2549;fill-opacity:1;fill-rule:nonzero;stroke:none" id="path130"/>
      <path d="m 5031.45,2920.2 -40.95,-14.2 -14.2,40.9 40.95,14.2 z m -140.34,272.4 40.94,14.2 75.37,-217.3 -40.95,-14.2 z m -85.19,245.6 40.94,14.2 75.36,-217.3 -40.94,-14.2 z m -85.2,245.7 40.95,14.2 75.36,-217.3 -40.95,-14.2 z m -85.19,245.6 40.94,14.2 75.37,-217.3 -40.95,-14.2 z m -85.19,245.7 40.94,14.2 75.36,-217.3 -40.94,-14.2 z m -85.2,245.6 40.94,14.2 75.37,-217.3 -40.94,-14.2 z m -85.19,245.6 40.94,14.2 75.36,-217.3 -40.94,-14.2 z m -85.19,245.7 40.94,14.2 75.36,-217.3 -40.94,-14.2 z m -85.2,245.6 40.94,14.2 75.37,-217.3 -40.94,-14.2 z m -85.19,245.7 40.94,14.2 75.36,-217.3 -40.94,-14.2 z m -372.74,1074.7 40.94,14.2 362.91,-1046.4 -40.94,-14.2 z M 5236.2,3052.9 c -2.71,7.9 -11.26,12 -19.09,9.3 l -181.35,-62.9 -75.36,217.3 75.36,26.1 c 7.82,2.7 11.96,11.3 9.25,19.1 -2.72,7.8 -11.26,12 -19.09,9.3 l -75.35,-26.2 -75.37,217.3 181.56,63 c 7.82,2.7 11.97,11.3 9.25,19.1 -2.71,7.8 -11.26,12 -19.09,9.3 l -181.55,-63 -75.37,217.3 75.37,26.1 c 7.82,2.7 11.97,11.3 9.25,19.1 -2.71,7.8 -11.23,12 -19.08,9.3 l -75.36,-26.2 -75.37,217.3 181.37,62.9 c 7.82,2.8 11.96,11.3 9.25,19.1 -2.72,7.8 -11.26,12 -19.09,9.3 l -181.35,-62.9 -75.37,217.3 75.37,26.1 c 7.82,2.7 11.96,11.3 9.25,19.1 -2.72,7.8 -11.25,12 -19.09,9.3 l -75.36,-26.2 -75.36,217.3 181.56,63 c 7.82,2.7 11.96,11.3 9.25,19.1 -2.71,7.8 -11.26,12 -19.09,9.2 l -181.55,-62.9 -75.37,217.3 75.37,26.1 c 7.83,2.7 11.97,11.3 9.25,19.1 -2.71,7.8 -11.24,12 -19.08,9.3 l -75.37,-26.2 -75.36,217.3 181.13,62.8 c 7.82,2.8 11.96,11.3 9.25,19.1 -2.72,7.8 -11.25,12 -19.09,9.3 l -181.12,-62.8 -75.36,217.3 75.12,26 c 7.83,2.7 11.97,11.3 9.26,19.1 -2.72,7.8 -11.26,12 -19.09,9.3 l -75.12,-26.1 -75.37,217.3 181.33,62.9 c 7.82,2.7 11.96,11.3 9.25,19.1 -2.72,7.8 -11.25,12 -19.09,9.2 l -181.32,-62.8 -367.82,1060.5 -4.91,14.2 -97.63,-33.8 372.74,-1074.8 -180.86,-62.7 c -7.83,-2.7 -11.97,-11.3 -9.25,-19.1 2.15,-6.2 7.96,-10.1 14.17,-10.1 1.63,0 3.28,0.3 4.92,0.8 l 180.85,62.8 75.36,-217.4 -74.39,-25.8 c -7.83,-2.7 -11.97,-11.2 -9.25,-19 2.15,-6.2 7.96,-10.1 14.17,-10.1 1.63,0 3.29,0.2 4.92,0.8 l 74.38,25.8 75.36,-217.3 -181.05,-62.8 c -7.82,-2.7 -11.97,-11.2 -9.25,-19.1 2.15,-6.2 7.96,-10.1 14.17,-10.1 1.63,0 3.29,0.3 4.92,0.9 l 181.05,62.8 75.36,-217.3 -74.15,-25.8 c -7.83,-2.7 -11.97,-11.2 -9.26,-19 2.15,-6.2 7.96,-10.1 14.17,-10.1 1.63,0 3.29,0.2 4.92,0.8 l 74.15,25.7 75.36,-217.3 -180.62,-62.6 c -7.82,-2.7 -11.97,-11.3 -9.25,-19.1 2.15,-6.2 7.96,-10.1 14.17,-10.1 1.63,0 3.29,0.3 4.92,0.8 l 180.61,62.7 75.36,-217.3 -74.15,-25.8 c -7.82,-2.7 -11.97,-11.2 -9.25,-19 2.15,-6.2 7.96,-10.1 14.17,-10.1 1.63,0 3.29,0.2 4.92,0.8 l 74.14,25.7 75.37,-217.3 -180.82,-62.7 c -7.82,-2.7 -11.96,-11.2 -9.25,-19.1 2.15,-6.2 7.96,-10.1 14.17,-10.1 1.63,0 3.29,0.3 4.92,0.9 l 180.81,62.7 75.36,-217.3 -74.15,-25.7 c -7.82,-2.8 -11.97,-11.3 -9.25,-19.1 2.14,-6.2 7.95,-10.1 14.17,-10.1 1.63,0 3.28,0.3 4.91,0.8 l 74.15,25.7 75.36,-217.3 -180.62,-62.6 c -7.82,-2.7 -11.96,-11.3 -9.25,-19.1 2.15,-6.2 7.96,-10.1 14.17,-10.1 1.63,0 3.29,0.3 4.92,0.8 l 180.61,62.7 75.37,-217.3 -74.16,-25.7 c -7.82,-2.8 -11.96,-11.3 -9.25,-19.1 2.15,-6.2 7.96,-10.1 14.17,-10.1 1.63,0 3.29,0.3 4.92,0.8 l 74.15,25.7 75.36,-217.3 -180.82,-62.7 c -7.82,-2.7 -11.96,-11.2 -9.25,-19.1 2.15,-6.2 7.96,-10 14.17,-10 1.63,0 3.29,0.2 4.92,0.8 l 180.81,62.7 19.12,-55.1 4.91,-14.2 97.63,33.9 -24.03,69.2 181.36,62.9 c 7.83,2.8 11.97,11.3 9.25,19.1" style="fill:#0e2549;fill-opacity:1;fill-rule:nonzero;stroke:none" id="path132"/>
      <path d="m 10524,2332.5 v 0 c -173.3,105.7 -228.7,334 -123.1,507.3 l 403.7,662.4 c 105.7,173.3 333.9,228.7 507.3,123 v 0 c 173.3,-105.6 228.7,-333.9 123.1,-507.2 l -403.7,-662.4 c -105.7,-173.3 -333.9,-228.7 -507.3,-123.1" style="fill:#a1c5e2;fill-opacity:1;fill-rule:nonzero;stroke:none" id="path134"/>
      <path d="m 11422.1,3125.8 -194,-318.4 -604.7,368.6 194.1,318.4 c 66.6,109.3 183.4,169.7 302.9,169.7 62.7,0 126.3,-16.7 183.7,-51.7 80.4,-49 137,-126.7 159.4,-218.9 22.3,-92.2 7.7,-187.3 -41.4,-267.7 z m -403.6,-662.4 c -101.6,-166.7 -319.9,-219.7 -486.7,-118 -80.4,49 -137,126.7 -159.3,218.9 -22.4,92.2 -7.8,187.3 41.3,267.7 l 194,318.4 604.7,-368.6 z m 474.1,937.1 c -24.2,100 -85.7,184.4 -172.9,237.5 -180.9,110.3 -417.6,52.8 -527.9,-128 l -403.7,-662.4 c -53.1,-87.3 -69.1,-190.4 -44.8,-290.4 24.3,-99.9 85.7,-184.3 172.9,-237.5 62.3,-37.9 131.2,-56 199.3,-56 129.6,0 256.3,65.5 328.6,184.1 l 403.7,662.4 c 53.1,87.3 69.1,190.4 44.8,290.3" style="fill:#0e2549;fill-opacity:1;fill-rule:nonzero;stroke:none" id="path136"/>
      <path d="m 11071.8,2522.1 c 0,0 -101.1,-194.4 -224.1,-218.7 -122.9,-24.2 -298.9,-51.6 -447.2,153.6 -148.2,205.2 51,465.7 51,465.7 l 151.3,248.3 630.3,-384.2 -161.3,-264.7" style="fill:#0e2549;fill-opacity:1;fill-rule:nonzero;stroke:none" id="path138"/>
      <path d="m 12047.1,5024.3 v 832.4 h 1921.8 v -832.4 c 302.9,-31.8 539.6,-303.3 539.6,-633.5 V 2277 h -3000.9 v 2113.8 c 0,330.2 238,605.4 539.5,633.5" style="fill:#d2ebfc;fill-opacity:1;fill-rule:nonzero;stroke:none" id="path140"/>
      <path d="m 11507.6,2827.6 h 1632.8 l 18.3,1305 h -1651.1 v -1305" style="fill:#ffffff;fill-opacity:1;fill-rule:nonzero;stroke:none" id="path142"/>
      <path d="m 14493.5,2292 h -2970.9 v 520.6 h 1632.6 l 18.7,1335 h -1651.3 v 243.2 c 0,319.1 230.7,590.7 525.3,618.5 h 1527.5 v 30 h -67.3 v 802.4 h 445.8 v -830.9 l 13.4,-1.4 c 300,-31.5 526.2,-297.5 526.2,-618.6 z m -2970.9,1825.6 h 1620.8 l -17.8,-1275 h -1603 z m 539.5,1724.1 h 182.7 v -802.4 h -182.7 z m 212.7,0 h 200 v -802.4 h -200 z m 230,0 h 190 v -802.4 h -190 z m 220,0 h 183.3 v -802.4 h -183.3 z m 213.3,0 h 167.1 v -802.4 h -167.1 z m 197.1,0 h 150.5 v -802.4 h -150.5 z m 180.5,0 h 162.4 v -802.4 h -162.4 z m 668.2,-804 v 834 h -1951.8 v -833.9 c -303.6,-35.8 -539.5,-317.2 -539.5,-647 V 2262 h 3030.9 v 2128.8 c 0,331.7 -231.1,607.3 -539.6,646.9" style="fill:#0e2549;fill-opacity:1;fill-rule:nonzero;stroke:none" id="path144"/>
      <path d="m 13410.8,2978.9 0.5,-314.1 h 435.2 l 36.3,298 -472,16.1" style="fill:#ffffff;fill-opacity:1;fill-rule:nonzero;stroke:none" id="path146"/>
      <path d="m 13426.3,2679.8 h 406.9 l 32.7,268.6 -440.1,15 z m 433.5,-30 h -463.4 l -0.7,344.6 504,-17.2 -39.9,-327.4" style="fill:#0e2549;fill-opacity:1;fill-rule:nonzero;stroke:none" id="path148"/>
      <path d="m 14942.6,6619.7 c 0,-15 0,-612.7 0,-612.7 l -535,32.7 77.3,555.1 457.7,24.9" style="fill:#8daec4;fill-opacity:1;fill-rule:nonzero;stroke:none" id="path150"/>
      <path d="m 13387.5,2683.8 c 0,0 -629,-199.7 -650.7,-364.2 h 1127.8 v 364.2 h -477.1" style="fill-opacity: 1; fill-rule: nonzero; stroke: none; fill: rgb(26, 120, 241);" id="path152"/>
      <path d="m 15165,2972 11.8,-317.7 h 435.2 l 20.6,324.6 -467.6,-6.9" style="fill:#ffffff;fill-opacity:1;fill-rule:nonzero;stroke:none" id="path154"/>
      <path d="m 15191.3,2669.3 h 406.6 l 18.7,294.4 -436.1,-6.4 z m 434.8,-30 h -463.7 l -13,347.5 499.2,7.3 -22.5,-354.8" style="fill:#0e2549;fill-opacity:1;fill-rule:nonzero;stroke:none" id="path156"/>
      <path d="m 15153,2673.3 c 0,0 -629,-199.7 -650.7,-364.2 h 1127.8 v 364.2 H 15153" style="fill-opacity: 1; fill-rule: nonzero; stroke: none; fill: rgb(26, 120, 241);" id="path158"/>
      <path d="M 14461.3,2371.6 V 2277 h 1198.2 v 108.2 l -1198.2,-13.6" style="fill:#0e2549;fill-opacity:1;fill-rule:nonzero;stroke:none" id="path160"/>
      <path d="m 13899.8,2388.4 v -100.9 h -1198.2 v 108.2 l 1198.2,-7.3" style="fill:#0e2549;fill-opacity:1;fill-rule:nonzero;stroke:none" id="path162"/>
      <path d="m 15110.7,2539.5 c -1.4,0 -2.9,0.2 -4.3,0.6 l -217.4,65.1 c -8,2.4 -12.5,10.7 -10.1,18.6 2.4,8 10.8,12.4 18.6,10.1 l 217.5,-65 c 7.9,-2.4 12.4,-10.8 10,-18.7 -1.9,-6.5 -7.9,-10.7 -14.3,-10.7" style="fill:#0e2549;fill-opacity:1;fill-rule:nonzero;stroke:none" id="path164"/>
      <path d="m 15214,10378.2 -27,13 c 2.1,4.5 215.8,454.6 103.6,678.6 -31.3,62.3 -86,101.7 -162.7,117.2 h -450.3 c -2.6,-0.2 -342.1,-21.8 -346.8,-225.4 -4.5,-198.2 39.5,-415.1 39.9,-417.2 l -29.4,-6.1 c -0.4,2.3 -45,222.5 -40.5,424 5.3,231.2 360.8,253.8 375.9,254.6 l 454.1,0.1 1.5,-0.3 c 87,-17.1 149.3,-62 185.1,-133.4 118.8,-237.3 -94.3,-686.1 -103.4,-705.1" style="fill-opacity: 1; fill-rule: nonzero; stroke: none; fill: rgb(26, 120, 241);" id="path166"/>
      <path d="m 15002,2474.4 c -1.5,0 -2.9,0.2 -4.3,0.6 l -217.5,65.1 c -7.9,2.4 -12.4,10.7 -10,18.7 2.3,7.9 10.7,12.4 18.6,10.1 l 217.5,-65.1 c 7.9,-2.4 12.4,-10.7 10,-18.7 -1.9,-6.5 -7.9,-10.7 -14.3,-10.7" style="fill:#0e2549;fill-opacity:1;fill-rule:nonzero;stroke:none" id="path168"/>
      <path d="m 14851.3,2409.4 c -1.4,0 -2.9,0.2 -4.3,0.6 l -217.4,65 c -7.9,2.4 -12.5,10.8 -10.1,18.7 2.4,8 10.8,12.4 18.7,10.1 l 217.4,-65.1 c 7.9,-2.3 12.5,-10.7 10.1,-18.6 -2,-6.5 -7.9,-10.7 -14.4,-10.7" style="fill:#0e2549;fill-opacity:1;fill-rule:nonzero;stroke:none" id="path170"/>
      <path d="m 13376.1,2572.1 c -1.4,0 -2.9,0.2 -4.3,0.7 l -217.4,65 c -8,2.4 -12.5,10.8 -10.1,18.7 2.4,7.9 10.7,12.4 18.7,10.1 l 217.4,-65.1 c 7.9,-2.4 12.4,-10.7 10.1,-18.7 -2,-6.5 -7.9,-10.7 -14.4,-10.7" style="fill:#0e2549;fill-opacity:1;fill-rule:nonzero;stroke:none" id="path172"/>
      <path d="m 13267.4,2507.1 c -1.4,0 -2.9,0.2 -4.3,0.6 l -217.4,65.1 c -8,2.3 -12.5,10.7 -10.1,18.6 2.4,8 10.7,12.4 18.6,10.1 l 217.5,-65.1 c 7.9,-2.3 12.4,-10.7 10.1,-18.6 -2,-6.5 -8,-10.7 -14.4,-10.7" style="fill:#0e2549;fill-opacity:1;fill-rule:nonzero;stroke:none" id="path174"/>
      <path d="m 13116.7,2442 c -1.4,0 -2.8,0.2 -4.3,0.6 l -217.4,65.1 c -7.9,2.4 -12.4,10.7 -10.1,18.7 2.4,7.9 10.8,12.3 18.7,10 l 217.4,-65 c 8,-2.4 12.5,-10.8 10.1,-18.7 -1.9,-6.5 -7.9,-10.7 -14.4,-10.7" style="fill:#0e2549;fill-opacity:1;fill-rule:nonzero;stroke:none" id="path176"/>
      <path d="m 15772.3,8465.7 -17.4,-1634.3 -10.3,-973.9 -31.3,-2943.2 h -692.6 l -309.8,3002.1 -46.6,451.7 -89.7,-444.4 -607.2,-3009.4 h -666.7 l 274.7,3009.4 v 0.1 l 126.7,1388.9 73.8,808.2 935.6,161.6 362.2,62.6 698.6,120.6" style="fill:#0e2549;fill-opacity:1;fill-rule:nonzero;stroke:none" id="path178"/>
      <path d="m 14588.1,11519.4 c 0,0 49,-514.5 7.8,-571.4 -41.1,-56.9 -278.7,-161.7 -278.7,-161.7 l 398.3,-1171.2 850.7,82.2 55.1,870.8 c 0,0 -388.2,316.3 -411.7,381.2 -32.4,89.9 -32.5,570.1 -32.5,570.1 h -589" style="fill:#ffffff;fill-opacity:1;fill-rule:nonzero;stroke:none" id="path180"/>
      <path d="m 14705.2,9599 -406.6,1195.4 12.5,5.6 c 65.1,28.7 240.9,112.8 272.7,156.8 27.6,38.1 8.1,364.5 -10.6,561.2 -0.8,8.3 5.3,15.6 13.5,16.4 8.3,0.8 15.6,-5.3 16.4,-13.5 8.2,-86.9 47.3,-523.2 5,-581.7 -38.2,-52.7 -219,-137 -272.3,-161.1 l 390.1,-1147 826.1,79.9 53.9,850.3 c -60.8,49.6 -387.2,318.6 -410.4,382.9 -32.9,91.3 -33.4,555.5 -33.4,575.2 0,8.3 6.7,15 15,15 8.3,0 15,-6.7 15,-15 0,-4.7 0.5,-478.6 31.6,-565 16.2,-44.8 252.3,-248.6 407.1,-374.7 l 6,-4.9 -56.5,-891.2 -875.1,-84.6" style="fill:#0e2549;fill-opacity:1;fill-rule:nonzero;stroke:none" id="path182"/>
      <path d="m 12252.6,10508.7 c 130.1,-73.5 646.7,-619.8 646.7,-619.8 l -370.7,-177 c 0,0 -300.8,561.8 -354,568.9 -100,13.5 -402.5,4.4 -500.1,69.8 -147.6,98.9 -223.9,224.9 -206.3,264.1 9.5,21.2 265.5,-132.3 321.6,-133.8 158.7,-4.1 370,80.2 462.8,27.8" style="fill:#ffffff;fill-opacity:1;fill-rule:nonzero;stroke:none" id="path184"/>
      <path d="m 11480.5,10600.2 c 0.9,-37.4 65.9,-145.7 202.4,-237.1 67.2,-45.1 243.4,-53.3 372.1,-59.3 50.1,-2.3 93.4,-4.3 121.6,-8.1 13.2,-1.8 40.6,-5.5 207.9,-294.5 67,-115.7 130.1,-231.9 150.5,-269.6 l 339.2,162 c -83.9,88.1 -514.3,537.2 -629,602 -50.4,28.5 -144.9,11.8 -244.9,-5.8 -71.2,-12.6 -145,-25.6 -210.8,-23.9 -29.4,0.8 -92.7,31.2 -185.9,77.6 -43.2,21.5 -100.4,49.9 -123.1,56.7 z m 1041.6,-908 -6.8,12.6 c -142.2,265.7 -309.6,548.4 -343.6,561.4 -26,3.4 -68.7,5.4 -118.1,7.7 -132.2,6.1 -313.2,14.5 -387.4,64.2 -149,99.8 -234.7,231.6 -211.7,282.8 2,4.4 5.7,7.8 10.5,9.5 16,5.8 45,-6.9 152,-60.1 66.1,-32.8 148.3,-73.7 173.2,-74.4 62.8,-1.6 135.1,11.1 204.9,23.4 105.5,18.6 205.1,36.2 264.9,2.5 v 0 c 130.5,-73.8 629,-600.2 650.2,-622.6 l 14.2,-14.9 -402.3,-192.1" style="fill:#0e2549;fill-opacity:1;fill-rule:nonzero;stroke:none" id="path186"/>
      <path d="m 14187.6,10832.2 c -257.2,-93.8 -195,-1466.9 -195,-1466.9 -42,-161.5 -140.9,-1026 -140.9,-1026 l 1802.1,-359.2 212.5,1079 c 0,0 133,1816.7 -573.1,1923.1 -67.7,10.2 -274.7,-86.6 -496,-65.2 -96,9.3 -144.9,-105.3 -192.6,62.8 0,0 -361.1,-127.2 -417,-147.6" style="fill-opacity: 1; fill-rule: nonzero; stroke: none; fill: rgb(26, 120, 241);" id="path188"/>
      <path d="m 15782.7,6769.7 -23.6,-913 -14.5,0.8 -1033.7,58.9 -46.6,451.7 -89.7,-444.4 h -999.2 v 0.1 l 126.7,1388.9 371,667.4 638.4,302.4 321.8,152.4 40.4,-89.8 681.2,-1513.7 27.8,-61.7" style="fill:#091a33;fill-opacity:1;fill-rule:nonzero;stroke:none" id="path190"/>
      <path d="m 14606.2,9186.6 -171.1,1763.1 c -117.9,0 -621.6,-317 -621.6,-317 -8,16.3 -429.8,-754.1 -546.1,-1040.9 -13.4,-33.1 -622.6,635.4 -619.1,595.9 0,0 -359.5,-109.5 -356.9,-172.3 2.6,-62.8 558.2,-1132.4 967.8,-1325.7 75.9,-35.9 507.9,240.3 530.5,651 l -55.7,-1012.8 -185,-2246.8 903.6,-1.4 131.5,2093.3 22.1,1013.6" style="fill:#a1c5e2;fill-opacity:1;fill-rule:nonzero;stroke:none" id="path192"/>
      <path d="M 15249.2,11016.3 14593.5,9149 c -1.7,-148.8 -34.6,-746.6 0,-1379 46.9,-858.9 165.7,-1781.7 165.7,-1730.4 0,20.8 1102.6,-48.7 1102.6,-48.7 l 53.1,1762.8 c 0,0 417.7,289 417.7,1107.4 0,917 -50,1228.6 -172.1,1688.7 -17.6,66.5 -671.3,466.5 -911.3,466.5" style="fill:#a1c5e2;fill-opacity:1;fill-rule:nonzero;stroke:none" id="path194"/>
      <path d="m 14881.1,12514.7 c -107,2.3 -367.1,11.3 -391.3,-177.7 -27.7,-215.6 -26.9,-497.4 -23.9,-646.1 1.1,-58.7 45,-107.6 103.1,-115.1 l 650.9,-83.5 c 59.6,-7.6 115.5,30.7 129.9,89.2 48.5,196.9 147.4,614.3 131.9,681.1 -52.8,227.4 -431,248.5 -600.6,252.1" style="fill:#0e2549;fill-opacity:1;fill-rule:nonzero;stroke:none" id="path196"/>
      <path d="m 15151.4,11358 c 39.9,32 72.5,174.6 97.6,338.9 0.8,4.8 3.9,8.7 8.2,10.6 46,20 114.8,66.5 123.5,148.5 7.5,71 -45.6,62.7 -88.7,45.1 -7.7,-3.2 -15.8,3.3 -14.8,11.8 22.3,199.1 33.7,374.7 33.7,374.7 l -773.4,99.3 c 0,0 -21.2,-177.4 -39.3,-377.1 -0.8,-9 -29.1,-487.1 -16,-532.4 7.1,-24.7 24,-46.5 48,-65.7 0,0 44.4,-46.9 325.5,-83 l 295.7,29.3" style="fill:#ffffff;fill-opacity:1;fill-rule:nonzero;stroke:none" id="path198"/>
      <path d="m 14855.7,11313.7 c -0.6,0 -1.2,0.1 -1.9,0.1 -265.5,34.1 -324.4,78.1 -333.5,86.6 -27.2,21.9 -44.9,46.3 -52.5,72.9 -14.2,49.1 15.1,533.4 15.5,537.9 17.9,197.6 39.1,375.7 39.3,377.5 l 1.8,15 802.4,-103 -0.9,-14 c -0.1,-1.8 -11.4,-174.5 -33.1,-369.2 37.2,14.1 65.2,14.3 83.3,0.7 16.2,-12.1 22.7,-33.6 19.5,-63.8 -10.3,-97 -95.1,-144.3 -131.8,-160.4 -31.2,-203.3 -64.8,-317.1 -103,-347.7 -6.4,-5.2 -15.9,-4.2 -21,2.3 -5.2,6.4 -4.2,15.9 2.3,21.1 17.7,14.3 53.3,76.1 92.1,329.5 1.5,9.9 7.9,18.1 17,22.1 31.5,13.6 105.9,54.4 114.6,136.3 1.3,13 1.1,30 -7.7,36.7 -9.7,7.2 -31.7,4.6 -60.4,-7.1 -8.5,-3.4 -17.9,-2.2 -25.2,3.3 -7.4,5.6 -11.3,14.6 -10.2,24.1 18.4,164.5 29.5,314.4 32.7,360 l -744.3,95.5 c -5.5,-47 -22.7,-197.6 -37.5,-361.7 -1.6,-18.7 -28.5,-485.8 -16.6,-526.8 5.9,-20.6 20.4,-40.2 42.9,-58.1 l 1.6,-1.5 c 0.1,-0.1 50.4,-44.3 316.5,-78.4 8.2,-1.1 14,-8.6 13,-16.8 -1,-7.6 -7.4,-13.1 -14.9,-13.1" style="fill:#0e2549;fill-opacity:1;fill-rule:nonzero;stroke:none" id="path200"/>
      <path d="m 14968.7,11868.6 c -0.7,0 -1.3,0 -2,0.1 -13.8,1 -24.1,13.1 -23,26.8 l 1.3,16.1 c 1,13.8 13.2,24.1 26.8,23 13.8,-1.1 24.1,-13.1 23,-26.9 l -1.2,-16.1 c -1.1,-13.1 -12,-23 -24.9,-23" style="fill:#0e2549;fill-opacity:1;fill-rule:nonzero;stroke:none" id="path202"/>
      <path d="m 14628.9,11901.6 c -1,0 -2,0.1 -3,0.2 -13.7,1.6 -23.5,14.1 -21.9,27.8 l 2.3,18.8 c 1.6,13.8 14,23.6 27.7,21.9 13.7,-1.6 23.5,-14 21.9,-27.7 l -2.2,-18.9 c -1.5,-12.7 -12.3,-22.1 -24.8,-22.1" style="fill:#0e2549;fill-opacity:1;fill-rule:nonzero;stroke:none" id="path204"/>
      <path d="m 15064.3,11988.4 c -2.5,0 -5,0.6 -7.3,1.9 -58.9,32.8 -121.9,14.2 -122.5,14 -7.9,-2.4 -16.3,2.1 -18.8,10 -2.4,7.9 2,16.3 9.9,18.7 3.1,0.9 75.6,22.7 146,-16.5 7.2,-4 9.8,-13.1 5.8,-20.4 -2.7,-4.9 -7.8,-7.7 -13.1,-7.7" style="fill:#0e2549;fill-opacity:1;fill-rule:nonzero;stroke:none" id="path206"/>
      <path d="m 14748.5,11693 c -1.6,0 -3.3,0.3 -5,0.9 -11.2,4 -67.4,25.5 -69.3,59.7 -1.4,25.5 2,31.8 43.6,108.1 9,16.5 19.8,36.3 32.9,60.5 6.1,14.1 21,54.3 19.2,79 -0.1,1 -2.8,6.3 -14.5,13.3 -33.5,20.2 -109.9,35.4 -158,14.5 -7.5,-3.3 -16.4,0.2 -19.7,7.8 -3.3,7.6 0.2,16.4 7.8,19.7 54.3,23.7 141.5,10.3 185.8,-16.5 18,-10.9 27.6,-23.2 28.5,-36.6 2.7,-37.7 -20.9,-91.6 -21.9,-93.9 l -0.5,-1 c -13.2,-24.5 -24.2,-44.6 -33.2,-61.1 -39.8,-73 -41,-75.6 -40,-92.1 0.4,-9 26.9,-25.2 49.3,-33.1 7.8,-2.8 11.9,-11.3 9.2,-19.1 -2.2,-6.2 -8,-10.1 -14.2,-10.1" style="fill:#0e2549;fill-opacity:1;fill-rule:nonzero;stroke:none" id="path208"/>
      <path d="m 15530.7,7649.8 c -3.1,0 -6.3,1 -9,3.1 l -497.5,377.9 c -6.6,5 -7.9,14.4 -2.9,21 5.1,6.6 14.5,7.8 21.1,2.8 l 497.4,-377.8 c 6.6,-5.1 7.9,-14.5 2.9,-21.1 -3,-3.8 -7.4,-5.9 -12,-5.9" style="fill:#0e2549;fill-opacity:1;fill-rule:nonzero;stroke:none" id="path210"/>
      <path d="m 13779.6,7738.7 c -5.4,0 -10.7,3 -13.4,8.2 -3.7,7.4 -0.8,16.4 6.6,20.2 l 535.2,271.6 c 7.4,3.8 16.5,0.8 20.2,-6.6 3.8,-7.3 0.8,-16.4 -6.6,-20.1 l -535.2,-271.7 c -2.2,-1.1 -4.5,-1.6 -6.8,-1.6" style="fill:#0e2549;fill-opacity:1;fill-rule:nonzero;stroke:none" id="path212"/>
      <path d="m 14449.5,11002 -359.5,-397.1 291.4,-117 -167.5,-439.6 385,-808.7 c 1.5,-3 6,-1.7 5.7,1.6 l -155.1,1760.8" style="fill:#ffffff;fill-opacity:1;fill-rule:nonzero;stroke:none" id="path214"/>
      <path d="m 14230.2,10049 353.6,-742.6 -146.2,1660.1 -322,-355.7 285,-114.5 z m 359.4,-809.1 v -0.1 z m 12,-17 c -6.8,0 -13.2,3.9 -16.2,10.3 l -387.8,814.5 164.5,431.8 -297.6,119.6 396.9,438.4 158.1,-1795 c 0.8,-8.6 -4.7,-16.6 -13.1,-18.9 -1.6,-0.4 -3.2,-0.7 -4.8,-0.7" style="fill:#0e2549;fill-opacity:1;fill-rule:nonzero;stroke:none" id="path216"/>
      <path d="m 15249.2,11016.3 347.4,-526.6 -391.9,-34.1 88,-466.2 -664.9,-740.8 c -4.5,-5 -12.4,-0.1 -10.1,6.1 l 631.5,1761.6" style="fill:#ffffff;fill-opacity:1;fill-rule:nonzero;stroke:none" id="path218"/>
      <path d="m 15253.2,10983 -605.9,-1690.2 629.3,701.1 -89.7,475.2 383.3,33.4 z m -621.2,-1733.1 -0.1,-0.3 c 0,0.1 0,0.2 0.1,0.3 z m -8.6,-18.4 c -3.8,0 -7.6,1 -11,3.2 -8.8,5.3 -12.3,15.8 -8.7,25.4 l 641.5,1789.5 377.8,-572.7 -400.5,-34.8 86.3,-457.2 -669.9,-746.4 c -4.1,-4.6 -9.7,-7 -15.5,-7" style="fill:#0e2549;fill-opacity:1;fill-rule:nonzero;stroke:none" id="path220"/>
      <path d="m 15817,5975.9 c -0.2,0 -0.5,0 -0.7,0.1 l -1067,49 -3.8,8.5 c -93.4,210.1 -174.3,1922.6 -177.7,1995.4 l 21.8,1212.6 c 0.1,8.3 7.2,14.8 15.3,14.7 8.2,-0.2 14.8,-7 14.7,-15.3 l -21.9,-1211.6 c 0.8,-16.6 82,-1734.7 171.8,-1975.2 l 1048.2,-48.2 c 8.2,-0.4 14.6,-7.4 14.3,-15.7 -0.4,-8 -7,-14.3 -15,-14.3" style="fill:#0e2549;fill-opacity:1;fill-rule:nonzero;stroke:none" id="path222"/>
      <path d="m 14706.1,8517.3 c 0,-24.4 19.8,-44.1 44.2,-44.1 24.3,0 44.1,19.7 44.1,44.1 0,24.4 -19.8,44.1 -44.1,44.1 -24.4,0 -44.2,-19.7 -44.2,-44.1" style="fill:#ffffff;fill-opacity:1;fill-rule:nonzero;stroke:none" id="path224"/>
      <path d="m 14750.3,8546.4 c -16.1,0 -29.2,-13 -29.2,-29.1 0,-16.1 13.1,-29.1 29.2,-29.1 16,0 29.1,13 29.1,29.1 0,16.1 -13.1,29.1 -29.1,29.1 z m 0,-88.2 c -32.6,0 -59.2,26.5 -59.2,59.1 0,32.6 26.6,59.1 59.2,59.1 32.6,0 59.1,-26.5 59.1,-59.1 0,-32.6 -26.5,-59.1 -59.1,-59.1" style="fill:#0e2549;fill-opacity:1;fill-rule:nonzero;stroke:none" id="path226"/>
      <path d="m 14413.3,6066.1 h -880.5 l 1.2,16.1 270.3,3615.3 c 0.6,8.2 8,14.4 16,13.8 8.3,-0.6 14.5,-7.8 13.9,-16.1 l -269.1,-3599.1 h 848.2 c 8.3,0 15,-6.7 15,-15 0,-8.3 -6.7,-15 -15,-15" style="fill:#0e2549;fill-opacity:1;fill-rule:nonzero;stroke:none" id="path228"/>
      <path d="m 15438,10929.8 -208.9,162.8 -431.9,-175.6 138.5,-165.3 502.3,178.1" style="fill-opacity: 1; fill-rule: nonzero; stroke: none; fill: rgb(26, 120, 241);" id="path230"/>
      <path d="m 14821.9,10910.8 118.6,-141.5 466.7,165.5 -180.5,140.6 z m 109,-176.7 -158.4,189 459,186.6 237.3,-184.9 -537.9,-190.7" style="fill:#0e2549;fill-opacity:1;fill-rule:nonzero;stroke:none" id="path232"/>
      <path d="m 14320.2,10911.2 145.6,154.4 331.4,-148.6 -124.9,-152.4 -352.1,146.6" style="fill-opacity: 1; fill-rule: nonzero; stroke: none; fill: rgb(26, 120, 241);" id="path234"/>
      <path d="m 14346,10916.7 321.7,-134 105.5,128.6 -303.8,136.2 z m 330.8,-170.3 -382.5,159.3 167.9,177.9 359,-161 -144.4,-176.2" style="fill:#0e2549;fill-opacity:1;fill-rule:nonzero;stroke:none" id="path236"/>
      <path d="m 14935.7,10751.7 -138.5,165.3 -137.7,-165.3 60.2,-70.9 -161,-881.3 59,-544.8 223.3,622.7 -5.8,789.8 100.5,84.5" style="fill:#0e2549;fill-opacity:1;fill-rule:nonzero;stroke:none" id="path238"/>
      <path d="m 13999.5,2879.5 h -757.1 v 215 h 757.1 v -215" style="fill:#0e2549;fill-opacity:1;fill-rule:nonzero;stroke:none" id="path240"/>
      <path d="M 15759.1,2914.3 H 15002 v 215 h 757.1 v -215" style="fill:#0e2549;fill-opacity:1;fill-rule:nonzero;stroke:none" id="path242"/>
      <path d="m 14003.8,3079.5 c -1,0 -2,0.1 -3,0.3 -8.1,1.6 -13.3,9.6 -11.7,17.7 l 336.6,1668.5 c -71.2,-16.9 -269.8,-58.5 -335.6,-16.2 -13.1,8.3 -21.3,20 -23.7,33.7 -2.2,12.3 1,24.6 9.3,35.5 36.9,49 183,74.5 254.6,84.2 -62.2,48 -89.6,82.6 -81.5,102.9 7.9,20 36.6,16.2 46,15 74.3,-10 136.3,-51.5 166.7,-75.4 l 82.3,405.6 c 1.7,8.2 9.6,13.4 17.7,11.8 8.1,-1.7 13.4,-9.6 11.7,-17.7 l -92.8,-457.1 -19.6,18.7 c -0.8,0.7 -76.2,71.8 -170,84.3 -4.9,0.7 -8.7,0.6 -11.1,0.9 10.6,-16.9 52,-53.9 98.4,-87.2 l 32.1,-23 -39.3,-4.1 c -64.3,-6.6 -238.4,-33.3 -271.3,-76.9 -4.2,-5.7 -4.1,-9.7 -3.7,-12.2 0.6,-3.4 2.4,-8.7 10.4,-13.8 55.2,-35.4 260.6,6.5 335.1,25.7 l 23.2,6 -346.1,-1715.2 c -1.4,-7.1 -7.7,-12 -14.7,-12" style="fill:#a1c5e2;fill-opacity:1;fill-rule:nonzero;stroke:none" id="path244"/>
      <path d="m 15725.3,3127 c -0.1,0 -0.1,0 -0.1,0 -8.3,0 -15,6.7 -14.9,15 l 8,1702.1 c -66.6,-30.3 -253.5,-109.5 -326.2,-80.7 -14.5,5.7 -24.7,15.5 -29.8,28.5 -4.5,11.6 -3.7,24.3 2.3,36.7 26.7,55.1 165.2,108.4 233.5,131.7 -70.3,35.2 -103.8,63.8 -99.8,85.3 3.9,21.1 32.7,22.9 42.2,23.5 74.9,4.7 143.7,-24.1 178.1,-41.7 l 2.5,413.9 c 0,8.3 7.1,15.1 15.1,14.9 8.3,-0.1 14.9,-6.8 14.9,-15.1 l -2.8,-466.4 -22.9,14.6 c -0.8,0.5 -88.7,55.8 -183,49.9 -5,-0.4 -8.6,-0.9 -11.1,-1.4 13.7,-14.5 61.5,-42.7 113.4,-66.4 l 35.9,-16.5 -37.8,-11.5 c -61.8,-19 -227.5,-78.8 -251.2,-127.9 -3.1,-6.4 -2.3,-10.3 -1.4,-12.7 1.3,-3.3 4,-8 12.9,-11.5 61.1,-24.1 254.4,56.7 323.8,89.9 l 21.6,10.4 -8.2,-1749.7 c -0.1,-8.3 -6.8,-14.9 -15,-14.9" style="fill:#a1c5e2;fill-opacity:1;fill-rule:nonzero;stroke:none" id="path246"/>
      <path d="m 15321.7,12230.7 c 0,0 -777.6,-60.7 -1031.9,142.9 -145.2,116.2 34.8,382.4 167.9,399.2 100.2,12.6 204.9,-138 310.3,-150.2 81,-9.4 271.6,-48.3 376.2,-69.4 212.1,-42.8 287.2,-227.6 177.5,-322.5" style="fill:#0e2549;fill-opacity:1;fill-rule:nonzero;stroke:none" id="path248"/>
      <path d="m 15897.6,8106.4 -936.4,-414.6 319,-651.9 920.8,417.4 -303.4,649.1" style="fill:#ffffff;fill-opacity:1;fill-rule:nonzero;stroke:none" id="path250"/>
      <path d="m 14981.6,7684.4 305.7,-624.8 893.7,405.1 -290.8,622 z m 291.6,-664.2 -332.3,679 964.1,426.8 316,-676.1 -947.8,-429.7" style="fill:#0e2549;fill-opacity:1;fill-rule:nonzero;stroke:none" id="path252"/>
      <path d="m 15782.7,7980.1 c -17.9,-155.4 -130.4,-430.4 -212.9,-547.9 -40.5,-57.7 -175.8,-267.5 -190.3,-320.9 -8.9,-32.4 154,47.1 161.5,49 l 10,-61.1 c 0,0 32.3,-31.2 60.9,-19 24.4,10.4 36.6,49 60.2,54.8 2.1,0.6 47.2,-6.7 63,-2.8 20,4.9 35.3,45.2 49.8,57.4 10.7,9 49.3,-6.8 66.5,4.5 27.6,18.1 17,56.6 36.3,69.9 18.2,12.5 45.9,-13.8 76.7,9.6 30.1,22.8 -95.7,202.2 -93.4,242.9 8.4,142.5 585,937.1 299.5,1483.1 -128,244.8 -327.3,-493.8 -387.8,-1019.5" style="fill:#ffffff;fill-opacity:1;fill-rule:nonzero;stroke:none" id="path254"/>
      <path d="m 15564.9,7107.1 c 7.7,-6.2 26.5,-19.3 41.1,-13.1 8.2,3.5 15.9,13.5 23.4,23.2 10.7,13.8 21.8,28.1 39.1,32.4 3.2,0.8 5,0.6 15,-0.6 10.7,-1.2 39.1,-4.5 48,-2.3 6.5,1.6 17,18.1 23.4,27.9 6.7,10.4 13,20.3 20.4,26.5 9.9,8.3 24.3,6.8 39.5,5.1 9.4,-1 23.7,-2.6 28.4,0.5 10,6.5 12.6,18 15.7,31.2 3.2,13.7 6.7,29.1 20.3,38.4 12.8,8.9 26.7,6.4 39,4.2 12.8,-2.3 23.9,-4.3 35.8,4.1 3.2,16.2 -30.6,80.5 -51,119.3 -29.9,57 -48.1,92.9 -46.9,113.5 2.2,38.7 40,115.3 92.2,221.3 146.6,297.6 419.4,851.5 208.9,1254 -15.3,29.3 -30.9,42.7 -46.6,39.8 -48.6,-9 -115.1,-145.2 -177.7,-364.4 -58.6,-204.9 -109.2,-462.8 -135.3,-689.7 -18.4,-159.7 -133.9,-438.6 -215.6,-554.8 -44.6,-63.6 -157.4,-240.8 -183.6,-303.8 16.1,3.6 49.8,15.6 118.4,46.3 15.2,6.8 18.1,8.1 20.5,8.7 l 15.9,4 z m 33,-44.7 c -29.9,0 -56,24.8 -57.3,26 l -3.6,3.5 -7.7,47 c -0.1,-0.1 -0.2,-0.1 -0.2,-0.1 -117.4,-52.7 -144.6,-56.5 -158.2,-44.8 -5.9,5.1 -8.2,13 -5.9,21.2 15.8,58 157.7,276.1 192.5,325.6 79.7,113.4 192.3,385.4 210.3,541 l 14.9,-1.7 -14.9,1.7 c 48.9,425 197.2,1054.2 337.3,1080.2 30,5.6 56.6,-13 78.7,-55.4 217.5,-416 -59.7,-978.8 -208.6,-1281.1 -48.8,-99 -87.3,-177.2 -89.2,-209.9 -0.8,-13.3 24.9,-62.1 43.6,-97.7 45.4,-86.6 69.9,-136.5 43.8,-156.3 -22.9,-17.4 -45.5,-13.3 -60.5,-10.7 -7.2,1.3 -14.1,2.6 -16.7,0.7 -4,-2.7 -6,-11.3 -8.1,-20.4 -3.5,-15.4 -8.4,-36.4 -28.5,-49.6 -13.6,-9 -31.9,-7 -48,-5.2 -5.9,0.6 -14.5,1.5 -17.9,1 -3.8,-3.8 -9,-11.8 -13.6,-19 -10.9,-17 -23.3,-36.3 -41.4,-40.8 -13,-3.2 -36.1,-1 -58.6,1.6 -2.5,0.3 -4.6,0.6 -6.1,0.7 -6.7,-2.8 -13.9,-12 -20.8,-21 -9.4,-12.2 -20.1,-26 -35.5,-32.5 -6.6,-2.8 -13.3,-4 -19.8,-4" style="fill:#0e2549;fill-opacity:1;fill-rule:nonzero;stroke:none" id="path256"/>
      <path d="m 15944.2,7563.3 c 0,0 438.5,283.7 511.8,890.3 73.3,606.7 -190.5,1620.8 -190.5,1620.8 l -529.4,-521.3 c 0,0 119.9,-822.9 79.9,-1011.2 -40,-188.3 -324.3,-978.6 -324.3,-978.6 h 452.5" style="fill:#a1c5e2;fill-opacity:1;fill-rule:nonzero;stroke:none" id="path258"/>
      <path d="m 15944.2,7548.3 h -472 l 5,18.8 c 47,177.5 107.9,330.6 166.9,478.7 80.5,202.4 150.1,377.1 164.1,563.6 42.5,566.1 -145.9,1033.4 -147.8,1038.1 -3.2,7.6 0.5,16.4 8.1,19.5 7.7,3.1 16.5,-0.5 19.6,-8.2 1.9,-4.7 193,-478.5 150,-1051.7 -14.4,-191 -88.1,-376.2 -166.1,-572.4 -56.6,-141.9 -114.9,-288.6 -160.8,-456.4 h 433 c 8.3,0 15,-6.7 15,-15 0,-8.3 -6.7,-15 -15,-15" style="fill:#0e2549;fill-opacity:1;fill-rule:nonzero;stroke:none" id="path260"/>
      <path d="m 15107,9677 v -300.4 l 461.7,-0.9 V 9677 H 15107" style="fill:#ffffff;fill-opacity:1;fill-rule:nonzero;stroke:none" id="path262"/>
      <path d="m 15122,9391.6 431.7,-0.8 V 9662 H 15122 Z m 461.7,-30.9 -491.7,1 V 9692 h 491.7 v -331.3" style="fill:#0e2549;fill-opacity:1;fill-rule:nonzero;stroke:none" id="path264"/>
      <path d="m 15436.2,9677 h -188.6 v 0 c 0,40.3 32.7,73 73,73 h 42.6 c 40.3,0 73,-32.7 73,-73 v 0" style="fill:#ffffff;fill-opacity:1;fill-rule:nonzero;stroke:none" id="path266"/>
      <path d="m 15264.5,9692 h 154.8 c -6.7,24.7 -29.3,43 -56.1,43 h -42.6 c -26.8,0 -49.4,-18.3 -56.1,-43 z m 186.7,-30 h -218.6 v 15 c 0,48.5 39.5,88 88,88 h 42.6 c 48.5,0 88,-39.5 88,-88 v -15" style="fill:#0e2549;fill-opacity:1;fill-rule:nonzero;stroke:none" id="path268"/>
      <path d="m 15488.7,9568.6 h -290 c -8.3,0 -15,6.7 -15,15 0,8.3 6.7,15 15,15 h 290 c 8.3,0 15,-6.7 15,-15 0,-8.3 -6.7,-15 -15,-15" style="fill:#0e2549;fill-opacity:1;fill-rule:nonzero;stroke:none" id="path270"/>
      <path d="M 15436.2,9488.6 H 15242 c -8.3,0 -15,6.7 -15,15 0,8.3 6.7,15 15,15 h 194.2 c 8.3,0 15,-6.7 15,-15 0,-8.3 -6.7,-15 -15,-15" style="fill:#0e2549;fill-opacity:1;fill-rule:nonzero;stroke:none" id="path272"/>
      <path d="m 15310.7,10274.5 c 0,-60.9 -49.4,-110.2 -110.2,-110.2 -60.9,0 -110.2,49.3 -110.2,110.2 0,60.9 49.3,110.2 110.2,110.2 60.8,0 110.2,-49.3 110.2,-110.2" style="fill:#ebf4fe;fill-opacity:1;fill-rule:nonzero;stroke:none" id="path274"/>
      <path d="m 15200.5,10369.7 c -52.5,0 -95.2,-42.7 -95.2,-95.2 0,-52.5 42.7,-95.2 95.2,-95.2 52.5,0 95.2,42.7 95.2,95.2 0,52.5 -42.7,95.2 -95.2,95.2 z m 0,-220.4 c -69.1,0 -125.2,56.2 -125.2,125.2 0,69 56.1,125.2 125.2,125.2 69,0 125.2,-56.2 125.2,-125.2 0,-69 -56.2,-125.2 -125.2,-125.2" style="fill-opacity: 1; fill-rule: nonzero; stroke: none; fill: rgb(26, 120, 241);" id="path276"/>
      <path d="m 14465.7,9837.8 -29,7.8 c 15.9,58.6 10.3,490.4 -106.8,635.1 -26.3,32.6 -55.4,47.5 -89,45.7 -29.5,-1.6 -54.6,-14.6 -76.8,-39.7 -118.7,-134 -92.2,-546.3 -91.9,-550.5 l -29.9,-2 c -1.2,17.4 -27.6,429 99.3,572.4 27.4,31 60.3,47.7 97.7,49.7 43.2,2.4 81.6,-16.7 114,-56.7 125.2,-154.8 129.4,-598.9 112.4,-661.8" style="fill-opacity: 1; fill-rule: nonzero; stroke: none; fill: rgb(26, 120, 241);" id="path278"/>
      <path d="m 14446,9838 c -2,0 -3.7,-1.6 -3.7,-3.6 0,-2 1.7,-3.7 3.7,-3.7 2,0 3.6,1.7 3.6,3.7 0,2 -1.6,3.6 -3.6,3.6 z m 0,-37.3 c -18.6,0 -33.7,15.1 -33.7,33.7 0,18.5 15.1,33.6 33.7,33.6 18.5,0 33.6,-15.1 33.6,-33.6 0,-18.6 -15.1,-33.7 -33.6,-33.7" style="fill-opacity: 1; fill-rule: nonzero; stroke: none; fill: rgb(26, 120, 241);" id="path280"/>
      <path d="m 14054.4,9924.2 c -2,0 -3.7,-1.7 -3.7,-3.7 0,-2 1.7,-3.6 3.7,-3.6 2,0 3.6,1.6 3.6,3.6 0,2 -1.6,3.7 -3.6,3.7 z m 0,-37.3 c -18.6,0 -33.7,15.1 -33.7,33.6 0,18.6 15.1,33.7 33.7,33.7 18.5,0 33.6,-15.1 33.6,-33.7 0,-18.5 -15.1,-33.6 -33.6,-33.6" style="fill-opacity: 1; fill-rule: nonzero; stroke: none; fill: rgb(26, 120, 241);" id="path282"/>
      <path d="m 14254.4,10536.7 -28.6,9.3 c 0.8,2.2 70.6,218.7 75,416.3 2.1,88.5 51.9,202.1 278.1,240.4 l 5,-29.6 c -165.4,-28 -250.5,-99.2 -253.1,-211.5 -4.5,-202 -75.7,-422.7 -76.4,-424.9" style="fill-opacity: 1; fill-rule: nonzero; stroke: none; fill: rgb(26, 120, 241);" id="path284"/>
      <path d="m 15214,10378.2 -27,13 c 2.8,6 284.6,600.5 28.9,762 l 16,25.3 c 278.2,-175.6 -5.7,-774.9 -17.9,-800.3" style="fill-opacity: 1; fill-rule: nonzero; stroke: none; fill: rgb(26, 120, 241);" id="path286"/>
      <path d="m 14469.5,11824.3 c 0,0 -79,-326.9 14.5,-411.2 93.5,-84.3 491.3,-130.5 562.7,-98.7 71.4,31.7 197.2,401.1 197.2,401.1 0,0 -158.7,-60 -246.7,-59.4 -88,0.5 -306.4,-2.6 -405.7,58.9 -69.1,42.8 -122,109.3 -122,109.3" style="fill:#0e2549;fill-opacity:1;fill-rule:nonzero;stroke:none" id="path288"/>
      <path d="m 14836.9,11617.6 c 5.2,-23.7 -64.7,-95.2 -124.7,-84.4 -98,17.6 -106,122.3 -83.6,112.4 8.8,-3.8 38,-38.3 97.1,-47.1 63.7,-9.5 107.7,34.9 111.2,19.1" style="fill:#ffffff;fill-opacity:1;fill-rule:nonzero;stroke:none" id="path290"/>
      <path d="M 18979.8,2260.3 H 1547.11 c -8.29,0 -15,6.7 -15,15 0,8.2 6.71,15 15,15 H 18979.8 c 8.2,0 15,-6.8 15,-15 0,-8.3 -6.8,-15 -15,-15" style="fill:#0e2549;fill-opacity:1;fill-rule:nonzero;stroke:none" id="path292"/>
      <path d="m 5245.5,9810.4 22.59,412.1 h 446.81 l 131.02,-479.8 -600.42,67.7" style="fill:#ffffff;fill-opacity:1;fill-rule:nonzero;stroke:none" id="path294"/>
      <path d="m 3922.11,4271.9 -337.75,-1457.1 -467.14,-427.7 776.78,130.2 -34.91,318.6 776.81,1461 -713.79,-25" style="fill:#ffffff;fill-opacity:1;fill-rule:nonzero;stroke:none" id="path296"/>
      <path d="m 3934.13,4257.3 -336.22,-1450.5 -433.16,-396.5 712.8,119.4 -33.88,309.1 2.17,4.1 764.61,1438.1 z m -864.44,-1893.4 501.1,458.8 339.3,1463.8 751.25,26.3 -786.84,-1479.9 35.96,-328.1 -840.77,-140.9" style="fill:#0e2549;fill-opacity:1;fill-rule:nonzero;stroke:none" id="path298"/>
      <path d="m 6088.18,4296.9 -75.92,-1482.1 467.12,-427.7 -776.78,130.2 34.92,318.6 -197.91,1461 h 548.57" style="fill:#ffffff;fill-opacity:1;fill-rule:nonzero;stroke:none" id="path300"/>
      <path d="m 5719.06,2529.7 712.8,-119.4 -434.95,398.2 75.49,1473.4 h -515.62 l 195.85,-1445.8 z m 807.85,-165.8 -840.76,140.9 36.26,330.9 -199.96,1476.2 h 581.52 L 6027.6,2821 6526.91,2363.9" style="fill:#0e2549;fill-opacity:1;fill-rule:nonzero;stroke:none" id="path302"/>
      <path d="m 5684.32,2732 c -37.63,-278.6 45.06,-454.6 45.06,-454.6 h 71.25 l 21.06,206.5 267.54,-208.2 574.4,1.5 v 64.9 c 0,0 -200.28,137.8 -221.84,93.7 -66.45,-135.8 -736.28,453.1 -757.47,296.2" style="fill-opacity: 1; fill-rule: nonzero; stroke: none; fill: rgb(26, 120, 241);" id="path304"/>
      <path d="m 6600.37,3989.1 -3368.91,49.6 c 0,0 1355.31,3061.7 1526.81,3750.7 48.19,193.7 96.9,332.8 141.9,432.6 115.29,255.1 207.1,253.9 207.1,253.9 l 1070.69,-10.4 c 0,0 195.6,-104.6 294.31,-594.9 3.1,-15.6 6.2,-31.5 9.1,-47.9 95.3,-531.5 119,-3833.6 119,-3833.6" style="fill-opacity: 1; fill-rule: nonzero; stroke: none; fill: rgb(26, 120, 241);" id="path306"/>
      <path d="m 3912.29,2732 c 37.63,-278.6 -44.97,-454.6 -44.97,-454.6 h -71.24 l -21.16,206.5 -263.16,-208.2 -578.79,1.5 v 64.9 c 0,0 200.29,137.8 221.85,93.7 66.44,-135.8 736.28,453.1 757.47,296.2" style="fill-opacity: 1; fill-rule: nonzero; stroke: none; fill: rgb(26, 120, 241);" id="path308"/>
      <path d="m 5608.65,11853.1 c 0,0 281.34,-39.9 436.34,-312.2 155.01,-272.4 133.64,-315.1 58.11,-483.3 -75.53,-168.1 -116.73,-258.8 -3.83,-365 72.38,-68.1 49.49,-223.2 2.36,-273.7 -67.38,-72.1 -188.56,-220 -169.54,-301.1 68.68,-293 264.91,-390.3 264.91,-390.3 l -1657.23,-1.9 c 0,0 -433.34,174.1 -173.53,696.4 42.48,85.4 259.55,185.3 291.25,290.7 21.65,72 -48.51,278.2 13.15,358.1 112.5,145.8 192.73,132.6 191.36,311.2 -0.74,95.7 152,618.2 746.65,471.1" style="fill:#0e2549;fill-opacity:1;fill-rule:nonzero;stroke:none" id="path310"/>
      <path d="m 5974.64,10395.5 c 0,0 -413.07,155.6 -539.95,161.9 -126.88,6.4 4.17,-161.9 4.17,-161.9 l 456.92,-204.4 78.86,204.4" style="fill:#ffffff;fill-opacity:1;fill-rule:nonzero;stroke:none" id="path312"/>
      <path d="m 5448.44,10407.7 439.04,-196.5 67.71,175.6 c -73.48,27.1 -411.23,150.2 -521.25,155.7 -13.96,0.7 -31.84,-0.7 -37.24,-11 -12.03,-23.2 22.34,-85.2 51.74,-123.8 z m 455.65,-236.8 -474.77,212.5 -2.3,2.9 c -13.98,18 -82.42,110 -56.94,159 10.23,19.7 32.16,28.8 65.36,27.1 127.75,-6.4 527.53,-156.5 544.49,-162.8 l 14.15,-5.4 -89.99,-233.3" style="fill:#0e2549;fill-opacity:1;fill-rule:nonzero;stroke:none" id="path314"/>
      <path d="m 5198.86,10924.4 c 0,0 21.27,-522.7 1.31,-550.2 -68.31,-94.1 -270.69,-177 -316.88,-189.4 -46.19,-12.4 755.33,-318.2 755.33,-318.2 l 384.82,188.6 -148.33,133.8 c 0,0 -124.69,62.7 -179.48,119.3 -54.8,56.6 -81.44,588.5 -81.44,588.5 l -415.33,27.6" style="fill:#ffffff;fill-opacity:1;fill-rule:nonzero;stroke:none" id="path316"/>
      <path d="m 4912.83,10178.7 c 92.03,-48.9 475.79,-200.6 725.05,-295.7 l 359.05,175.9 -130.38,117.7 c -16.34,8.3 -128.79,66.7 -181.7,121.3 -53.83,55.6 -79.85,489.6 -84.94,584.8 l -385.39,25.7 c 6.61,-166.7 17.87,-515.4 -2.21,-543 -62.35,-85.9 -227.1,-160.5 -299.48,-186.7 z m 726.54,-328.4 -6.09,2.3 c -1.9,0.7 -191.94,73.3 -379.37,148.2 -388.92,155.4 -388.3,167.6 -387.52,183.1 0.37,7.3 5.48,13.3 13,15.4 52.38,14.1 244.14,95.8 308.12,183 12.11,31.6 4.22,348.3 -3.64,541.5 l -0.68,16.7 445.32,-29.7 0.66,-13.3 c 10.2,-203.4 40.18,-540.4 77.24,-578.7 52.37,-54.1 174.22,-115.8 175.45,-116.4 l 1.8,-0.9 166.29,-150 -410.58,-201.2" style="fill:#0e2549;fill-opacity:1;fill-rule:nonzero;stroke:none" id="path318"/>
      <path d="m 5216.6,10866.4 c -54.38,49.7 -148.13,147.9 -138.54,227.8 9.58,79.9 98.79,56.5 124.51,39.6 17.12,-11.3 60.54,389.3 60.54,389.3 l 620.35,-63.4 c 0,0 37.65,-356.1 -18.71,-572.1 -56.6,-217 -166.58,-258.2 -328.08,-240.3 -79.99,8.9 -139.71,35.9 -185.16,68.8 l -134.91,150.3" style="fill:#ffffff;fill-opacity:1;fill-rule:nonzero;stroke:none" id="path320"/>
      <path d="m 5600.25,10628.4 c -21.52,0 -43.36,1.6 -65.23,4 -73.3,8.2 -138,32.2 -192.31,71.6 -6.7,4.8 -8.2,14.2 -3.34,20.9 4.86,6.7 14.24,8.2 20.94,3.4 50.05,-36.3 109.94,-58.5 178.02,-66.1 151.29,-16.8 256.23,15.7 311.9,229.1 49.24,188.8 25.31,490.8 19.48,554.7 l -593.3,60.6 c -41.01,-374.6 -57.31,-382.3 -66.12,-386.5 -5.2,-2.4 -11.16,-2 -15.96,1.1 -14.63,9.6 -53.13,21 -77.84,9.6 -13.5,-6.3 -21.2,-18.9 -23.54,-38.4 -6.36,-53 42.4,-131.3 133.78,-215 6.11,-5.5 6.53,-15 0.94,-21.1 -5.59,-6.1 -15.08,-6.6 -21.2,-1 -70.77,64.8 -153.09,159.1 -143.31,240.7 4.52,37.7 24.62,54.5 40.69,62 29.26,13.5 67.67,6.7 92.69,-4.1 12.47,46.2 35,217.1 51.65,370.8 l 1.61,14.8 647.3,-66.1 1.28,-12.1 c 1.55,-14.7 37.29,-361.3 -19.11,-577.5 -54.49,-208.9 -162.14,-255.4 -279.02,-255.4" style="fill:#0e2549;fill-opacity:1;fill-rule:nonzero;stroke:none" id="path322"/>
      <path d="m 6247.44,10150.9 c 226.34,-179.4 826.14,-1053 810.56,-1131 -79.67,-399.1 -778.27,-585.1 -778.27,-585.1 l -178.1,281.3 353.95,205.3 -236.02,323.8 -41.59,-779.7 -415.86,-7.3 c 0,0 -821.23,-41.2 -1023.52,118.2 -301.31,237.5 -438.57,1198.9 -116.13,1530.3 109.16,112.2 205.67,123.7 258.91,123.8 160.23,0.2 861.6,-649.5 1059.59,-8 28.47,92.2 245.29,-23.1 306.48,-71.6" style="fill:#2e6b99;fill-opacity:1;fill-rule:nonzero;stroke:none" id="path324"/>
      <path d="m 5759.68,11061.4 c -0.2,0 -0.41,0 -0.62,0 -13.8,0.4 -24.71,11.8 -24.38,25.6 l 0.5,20.4 c 0.33,13.6 11.46,24.4 24.98,24.4 0.21,0 0.41,0 0.62,0 13.8,-0.3 24.72,-11.8 24.38,-25.6 l -0.5,-20.4 c -0.32,-13.6 -11.45,-24.4 -24.98,-24.4" style="fill:#0e2549;fill-opacity:1;fill-rule:nonzero;stroke:none" id="path326"/>
      <path d="m 5484.33,11092.3 c -0.2,0 -0.41,0 -0.62,0 -13.8,0.3 -24.72,11.8 -24.38,25.6 l 0.5,20.4 c 0.34,13.8 11.44,25 25.6,24.4 13.8,-0.4 24.72,-11.8 24.38,-25.6 l -0.5,-20.5 c -0.33,-13.5 -11.45,-24.3 -24.98,-24.3" style="fill:#0e2549;fill-opacity:1;fill-rule:nonzero;stroke:none" id="path328"/>
      <path d="m 5405.56,11197.9 c -5.84,0 -11.4,3.5 -13.82,9.2 -3.22,7.6 0.34,16.4 7.97,19.7 64.36,27.2 124.96,1.6 127.52,0.5 7.6,-3.2 11.1,-12.1 7.82,-19.7 -3.28,-7.6 -12.1,-11.1 -19.67,-7.8 v 0 c -0.52,0.2 -51.73,21.4 -103.98,-0.7 -1.91,-0.8 -3.89,-1.2 -5.84,-1.2" style="fill:#0e2549;fill-opacity:1;fill-rule:nonzero;stroke:none" id="path330"/>
      <path d="m 5662.47,10956.5 c -0.06,-0.5 -0.13,-0.9 -0.23,-1.4 0.1,0.5 0.17,1 0.23,1.4 z m -0.23,-1.4 c 0,0 -0.01,0 -0.01,0 0,0 0.01,0 0.01,0 z m 6.94,-16.4 c -13.51,0 -25.44,3.2 -30.26,6.9 l -7.54,5.8 1.53,10 c 1.74,8.1 9.69,13.3 17.82,11.5 2.34,-0.5 4.42,-1.5 6.17,-2.9 6.06,-1.6 22.39,-3.1 31.98,3.5 3.54,2.5 8.19,7.3 7.77,20.3 -0.41,12.7 -4.35,28.8 -9.34,49.1 -3.23,13.3 -6.9,28.2 -10.41,45.5 -10.69,52.7 -10.48,80.9 0.7,97.3 9.04,13.3 22.64,15.8 33.57,17.7 1.66,0.3 3.35,0.6 5.06,1 40.86,8.3 109.18,-18.1 116.84,-21.2 7.69,-3 11.46,-11.8 8.4,-19.5 -3.05,-7.7 -11.75,-11.4 -19.47,-8.4 -18.52,7.4 -72.51,25.3 -99.8,19.7 -1.94,-0.4 -3.87,-0.8 -5.76,-1.1 -8.59,-1.5 -12.27,-2.4 -14.03,-5 -3.23,-4.8 -7.01,-20.8 3.9,-74.5 3.38,-16.7 6.97,-31.4 10.14,-44.3 5.41,-22.1 9.67,-39.5 10.18,-55.3 0.74,-22.7 -8.62,-40.2 -26.35,-49.3 -9.66,-5 -20.83,-6.8 -31.1,-6.8" style="fill:#0e2549;fill-opacity:1;fill-rule:nonzero;stroke:none" id="path332"/>
      <path d="m 5840.86,8121.4 521.53,-81 -521.53,81" style="fill:#ffffff;fill-opacity:1;fill-rule:nonzero;stroke:none" id="path334"/>
      <path d="m 6362.41,8025.4 c -0.76,0 -1.54,0.1 -2.32,0.2 l -521.54,80.9 c -8.18,1.3 -13.79,9 -12.52,17.2 1.27,8.2 8.96,13.7 17.12,12.5 l 521.54,-81 c 8.19,-1.2 13.8,-8.9 12.53,-17.1 -1.16,-7.4 -7.54,-12.7 -14.81,-12.7" style="fill:#0e2549;fill-opacity:1;fill-rule:nonzero;stroke:none" id="path336"/>
      <path d="m 5747.8,8941.1 c -0.82,0 -1.65,0.1 -2.48,0.2 -8.17,1.3 -13.7,9.1 -12.34,17.2 98.53,592.7 -111.47,946.3 -113.6,949.8 -4.31,7.1 -2.07,16.3 5.01,20.6 7.07,4.3 16.29,2.1 20.61,-5 2.19,-3.6 217.92,-366.8 117.57,-970.3 -1.22,-7.3 -7.57,-12.5 -14.77,-12.5" style="fill:#0e2549;fill-opacity:1;fill-rule:nonzero;stroke:none" id="path338"/>
      <path d="m 5968.38,11455.7 c 0,0 -619.29,-67.4 -765.63,-335.6 0,0 -19.88,12.8 -46.14,13.8 -33.84,1.2 -50.04,-8.3 -50.04,-8.3 l 94.57,468.4 767.24,-138.3" style="fill:#0e2549;fill-opacity:1;fill-rule:nonzero;stroke:none" id="path340"/>
      <path d="m 5498.08,10885.3 c 0,0 120.32,-139.8 206.02,-18.2 0,0 -30.49,26.8 -78.62,10.9 0,0 -46.91,22.8 -127.4,7.3" style="fill-opacity: 1; fill-rule: nonzero; stroke: none; fill: rgb(26, 120, 241);" id="path342"/>
      <path d="m 5212.74,10533.1 c 0,0 119.26,-148.9 80.05,-140.3 -21.46,4.7 -43.4,13.7 -58.86,20.9 -5.19,2.4 -10.17,-3.6 -6.84,-8.3 26.05,-36.3 74.84,-114.1 34.13,-139.1 -53.74,-32.9 -179.53,37.5 -182.98,108.7 -3.14,64.8 -5.1,135 134.5,158.1" style="fill:#ffffff;fill-opacity:1;fill-rule:nonzero;stroke:none" id="path344"/>
      <path d="m 5206.56,10516.7 c -119.11,-22.2 -116.3,-80 -113.34,-141 1.4,-28.7 30.23,-62.8 71.76,-84.7 35.12,-18.6 69.81,-23.2 88.4,-11.9 4.39,2.7 6.82,6.3 7.88,11.5 4.1,20.3 -13.23,59.9 -46.35,106.1 -5.53,7.7 -5.19,17.8 0.86,25.1 6.04,7.3 15.86,9.5 24.48,5.5 10.49,-4.9 24.8,-11 39.82,-15.6 -12.45,23.4 -43.48,67 -73.51,105 z m 20.7,-273.8 c -22.94,0 -49.35,7.3 -76.31,21.5 -38.99,20.7 -85.36,61.8 -87.69,109.9 -3.04,62.5 -7.2,148.1 147.04,173.6 l 8.66,1.4 5.49,-6.9 c 104.26,-130.1 93.42,-147.6 88.22,-156 -1.72,-2.7 -8.44,-11.5 -23.08,-8.3 -11.1,2.4 -22.25,5.9 -32.57,9.7 21.45,-34.2 39.58,-73.7 33.65,-103.1 -2.7,-13.4 -10.17,-24.1 -21.61,-31.2 -11.59,-7.1 -25.86,-10.6 -41.8,-10.6" style="fill:#0e2549;fill-opacity:1;fill-rule:nonzero;stroke:none" id="path346"/>
      <path d="m 6472.27,7870.6 c -30.81,-15.5 -64.51,-48.9 -96.21,-114.2 -96.79,-198.8 -201.99,-110.3 -201.99,-110.3 l 3.89,212.8 h -76.29 c 0,0 -108.6,44.1 -167,-62.5 -58.41,-106.7 -171.91,-120 -202,-120.6 -30.1,-0.5 49.23,670.5 49.23,670.5 l -819.17,-5.1 c 76.09,134.7 144.54,134.7 144.54,134.7 l 1070.69,-10.4 c 0,0 195.6,-104.6 294.31,-594.9" style="fill-opacity: 1; fill-rule: nonzero; stroke: none; fill: rgb(26, 120, 241);" id="path348"/>
      <path d="m 6883.83,9371.9 c 0,0 170.29,-286.4 105.59,-392.3 -215.81,-353.3 -591.11,-420.7 -591.11,-420.7 0,0 -113.54,420.8 -98.54,435.8 15,15 584.06,377.2 584.06,377.2" style="fill:#1e5272;fill-opacity:1;fill-rule:nonzero;stroke:none" id="path350"/>
      <path d="m 6174.02,8014.5 c 0,0 -112.89,-332.7 0,-368.4 112.88,-35.6 202.01,368.4 202.01,368.4 h -202.01" style="fill:#0e2549;fill-opacity:1;fill-rule:nonzero;stroke:none" id="path352"/>
      <path d="m 5732.67,8044.2 c 0,0 -112.89,-332.7 0,-368.4 112.89,-35.6 202.01,368.4 202.01,368.4 h -202.01" style="fill:#0e2549;fill-opacity:1;fill-rule:nonzero;stroke:none" id="path354"/>
      <path d="m 6145.99,9357.3 c 0,0 -469.38,-267.4 -463.44,-505.1 5.95,-237.6 23.77,-849.6 23.77,-849.6 h 314.9 v -47.5 h 451.55 c 0,0 -83.18,600.1 0,748.6 83.18,148.5 326.09,272 326.09,295.7 0,23.8 16.67,372.5 16.67,372.5 l -669.54,-14.6" style="fill:#a1c5e2;fill-opacity:1;fill-rule:nonzero;stroke:none" id="path356"/>
      <path d="m 6540.68,11165 c -75.91,7.5 -260.08,27.9 -287.54,-105 -31.31,-151.6 -45.99,-351.7 -51.96,-457.5 -2.35,-41.7 26.17,-78.8 67.02,-87.3 l 457.63,-94.5 c 41.92,-8.7 83.68,15.5 97.08,56.3 45.07,137.2 137.91,428.2 130.52,476.5 -25.15,164.3 -292.56,199.7 -412.75,211.5" style="fill:#0e2549;fill-opacity:1;fill-rule:nonzero;stroke:none" id="path358"/>
      <path d="m 6424.06,10551.8 c 0,0 -17.25,-248.8 -86.87,-308.2 -69.62,-59.4 -155.55,-78.3 -173.38,-84.2 -17.82,-6 86.13,-190.2 86.13,-190.2 l 567.44,118.9 c 0,0 -166.36,112.9 -160.42,175.2 5.94,62.4 100.23,288.5 100.23,288.5 h -333.13" style="fill:#ffffff;fill-opacity:1;fill-rule:nonzero;stroke:none" id="path360"/>
      <path d="m 6178.08,10148 c 7.31,-25.4 43.9,-97.9 79.55,-161.8 l 523.09,109.5 c -51.44,38.1 -143.89,114.5 -138.69,169.1 5.06,53.1 69.14,214.1 92.77,272 h -296.91 c -4.87,-54.6 -26.54,-249.6 -90.96,-304.6 -63.1,-53.9 -139.77,-75.9 -168.85,-84.2 z m 64.19,-195.7 -5.39,9.6 c -98.77,175 -91.19,194.7 -88.7,201.2 1.95,5 5.91,8.8 10.89,10.5 2.4,0.8 5.98,1.8 10.55,3.1 29.79,8.6 99.55,28.6 157.84,78.3 53.14,45.4 76.95,230.4 81.64,297.9 l 0.97,13.9 h 369.63 l -8.66,-20.8 c -0.94,-2.2 -93.49,-224.6 -99.15,-284.1 -3.52,-36.9 87.89,-116.6 153.91,-161.4 l 29.24,-19.9 -612.77,-128.3" style="fill:#0e2549;fill-opacity:1;fill-rule:nonzero;stroke:none" id="path362"/>
      <path d="m 6646.52,10180.7 c -71.31,-73.4 -280.53,-149.7 -351.83,-7.1 -71.3,142.6 -360.86,273.5 -360.86,273.5 l -126.21,-215.8 124.47,-113.5 c 0,0 53.48,-772.4 181.22,-831.8 127.74,-59.4 743.16,-35.6 743.16,-35.6 l -27.38,470.3 249.71,4.9 c 0,0 -94.38,443 -181.64,496.9 -147.47,91.1 -216.44,-6.6 -250.64,-41.8" style="fill-opacity: 1; fill-rule: nonzero; stroke: none; fill: rgb(26, 120, 241);" id="path364"/>
      <path d="m 6769.84,9757.3 c 0,0 72.23,-228.2 64.63,-376.3 -8.25,-160.7 -76.44,-241.6 -108.82,-268.2 -41.23,-34 -217.8,-59.6 -204.09,-108.8 13.71,-49.3 71.16,4.3 93.39,-2.9 10.8,-3.5 -201.47,-112 -93.95,-159.5 107.51,-47.6 334.72,170.9 354.53,214.5 9.67,21.3 126.02,104.5 163.66,277.4 39.43,181.1 0,451.6 0,451.6 l -269.35,-27.8" style="fill:#ffffff;fill-opacity:1;fill-rule:nonzero;stroke:none" id="path366"/>
      <path d="m 6610.27,9016.8 c 3.18,0 6.27,-0.5 9.29,-1.4 l 8.9,-2.9 1.74,-9.7 c 1.57,-10.9 -4.16,-14.8 -28.25,-31.2 -27.08,-18.5 -99,-67.5 -96.38,-96.3 0.67,-7.3 7.9,-14 21.49,-20 94.5,-41.8 315.47,164.4 334.81,207 3.22,7.1 10.79,15 23.32,28.1 36.04,37.8 111.04,116.3 139.35,246.3 33.3,152.9 9,374.1 1.7,431.9 l -236.75,-24.3 c 16.82,-56.9 66.46,-237.3 59.96,-364.1 -9.21,-179.2 -89.79,-258.9 -114.26,-279 -17.84,-14.7 -54.19,-26.8 -92.68,-39.6 -36.08,-11.9 -111.16,-36.8 -106.49,-53.6 0.97,-3.5 2.72,-8 5.47,-9.4 6.48,-3.1 22.69,3.6 34.55,8.4 12.05,5 23.59,9.8 34.23,9.8 z m -55.86,-196.7 c -14.14,0 -27.4,2.4 -39.48,7.7 -24.3,10.8 -37.5,25.8 -39.23,44.8 -2.95,32.3 29.59,65 69.37,95.3 -5.74,0 -11.37,1.2 -16.75,3.8 -10.25,5 -17.39,14.5 -21.21,28.2 -12.32,44.3 54.84,66.6 125.95,90.2 34.18,11.4 69.53,23.1 83.05,34.2 15.73,13 94.58,86.2 103.38,257.5 7.37,143.6 -63.23,368.7 -63.94,371 l -5.55,17.6 301.96,31.1 2.08,-14.3 c 1.62,-11.1 39.36,-275.2 -0.19,-456.9 -30.1,-138.2 -109.04,-220.9 -146.97,-260.6 -7.6,-8 -16.21,-17 -17.74,-19.9 -18.6,-40.9 -210,-229.7 -334.73,-229.7" style="fill:#0e2549;fill-opacity:1;fill-rule:nonzero;stroke:none" id="path368"/>
      <path d="m 6021.21,7940.1 c -8.18,0 -14.87,6.5 -14.99,14.8 -0.09,5.9 -8.91,594.4 2.23,851.8 11.54,266.7 263.24,368.9 265.78,369.9 7.69,3.1 16.4,-0.7 19.44,-8.4 3.05,-7.7 -0.73,-16.4 -8.43,-19.5 -2.35,-0.9 -236.14,-96.4 -246.82,-343.3 -11.1,-256.6 -2.3,-844.2 -2.2,-850.1 0.12,-8.3 -6.49,-15.1 -14.77,-15.2 -0.08,0 -0.16,0 -0.24,0" style="fill:#0e2549;fill-opacity:1;fill-rule:nonzero;stroke:none" id="path370"/>
      <path d="m 6045.53,8806.1 c 0,0 180,-46.7 280,0 100,46.7 86.84,130.6 130.05,115.3 43.2,-15.3 5.92,-107.3 5.92,-107.3 0,0 60.69,-9.3 214.44,119.5 20.01,16.7 46.25,-134.9 -3.75,-194.2 -50,-59.2 -133.33,-140 -273.33,-143.3 -140,-3.3 -403.33,-20 -403.33,-20 l 50,230" style="fill:#ffffff;fill-opacity:1;fill-rule:nonzero;stroke:none" id="path372"/>
      <path d="m 6056.94,8788 -42.54,-195.7 c 64.02,3.9 267.7,16 384.1,18.8 133.35,3.1 213.52,80.3 262.23,138 35.1,41.6 26.37,136.2 15.82,165.5 -147.99,-121.7 -210.56,-116.4 -217.32,-115.3 l -18.73,2.9 7.1,17.6 c 8.57,21.2 19.1,61.7 10.88,79.9 -1.77,3.9 -4.21,6.3 -7.91,7.6 -6.3,2.2 -8.02,2.8 -22.16,-21.7 -15.14,-26.2 -38.03,-65.8 -96.54,-93.1 -87.48,-40.8 -228.43,-14.8 -274.93,-4.5 z m -80.29,-228.1 57.53,264.6 15.11,-3.9 c 1.75,-0.4 175.99,-44.7 269.89,-0.9 49.95,23.3 69.19,56.6 83.25,80.9 12.48,21.6 26.63,46.1 58.15,35 11.41,-4.1 20.14,-12.2 25.26,-23.6 10.48,-23.3 4.09,-57.2 -2.43,-79.9 27.74,7.4 86.1,31.9 182.9,113 8.3,6.9 19.7,6.2 27.69,-1.8 23.02,-23.1 38.78,-155.3 -10.34,-213.6 -52.45,-62.1 -139,-145.1 -284.45,-148.6 -138.1,-3.3 -400.1,-19.8 -402.74,-20 l -19.82,-1.2" style="fill:#0e2549;fill-opacity:1;fill-rule:nonzero;stroke:none" id="path374"/>
      <path d="m 5567.19,8922.8 -21.48,-469.3 632.26,12 v 415.6 l -610.78,41.7" style="fill:#2e6b99;fill-opacity:1;fill-rule:nonzero;stroke:none" id="path376"/>
      <path d="m 6177.98,8866.1 c -0.35,0 -0.7,0 -1.05,0 -101.1,7.1 -990.03,70.9 -1071.54,145.6 -82.83,75.9 -68.31,395.6 -66.38,431.9 0.45,8.2 7.69,14.4 15.78,14.1 8.27,-0.4 14.62,-7.5 14.18,-15.7 -5.02,-94.5 -4.62,-352 56.69,-408.2 55.86,-51.2 660.54,-110.4 1053.35,-137.8 8.27,-0.5 14.5,-7.7 13.92,-16 -0.55,-7.9 -7.13,-13.9 -14.95,-13.9" style="fill:#0e2549;fill-opacity:1;fill-rule:nonzero;stroke:none" id="path378"/>
      <path d="m 6715.53,9982.6 c 6.66,-23.2 0,-239.9 0,-239.9 l 363.27,-17.1 -85.08,313.8 -278.19,-56.8" style="fill-opacity: 1; fill-rule: nonzero; stroke: none; fill: rgb(26, 120, 241);" id="path380"/>
      <path d="m 7078.81,9710.6 c -0.22,0 -0.44,0 -0.66,0.1 l -406.88,17.7 49.46,296.8 c 1.36,8.2 9.1,13.8 17.26,12.4 8.17,-1.4 13.69,-9.1 12.33,-17.3 l -43.88,-263.4 373.02,-16.3 c 8.27,-0.3 14.69,-7.3 14.33,-15.6 -0.35,-8.1 -6.99,-14.4 -14.98,-14.4" style="fill:#0e2549;fill-opacity:1;fill-rule:nonzero;stroke:none" id="path382"/>
      <path d="m 6692.81,8912.3 c 0,0 -62.28,-139.1 -212.28,-156.8 l 212.28,156.8" style="fill:#ffffff;fill-opacity:1;fill-rule:nonzero;stroke:none" id="path384"/>
      <path d="m 6480.51,8740.5 c -7.5,0 -13.98,5.6 -14.88,13.2 -0.97,8.2 4.91,15.7 13.14,16.7 139.43,16.4 199.77,146.8 200.36,148.1 3.41,7.5 12.29,10.9 19.83,7.5 7.54,-3.4 10.92,-12.2 7.54,-19.8 -2.68,-6 -67.56,-147.1 -224.21,-165.6 -0.6,-0.1 -1.2,-0.1 -1.78,-0.1" style="fill:#0e2549;fill-opacity:1;fill-rule:nonzero;stroke:none" id="path386"/>
      <path d="m 6700.96,8843.6 c 0,0 -76.82,-133.8 -210.92,-146.3 l 210.92,146.3" style="fill:#ffffff;fill-opacity:1;fill-rule:nonzero;stroke:none" id="path388"/>
      <path d="m 6490.02,8682.3 c -7.65,0 -14.19,5.9 -14.91,13.6 -0.77,8.3 5.3,15.6 13.54,16.4 124.91,11.6 198.57,137.5 199.3,138.8 4.13,7.1 13.31,9.6 20.48,5.5 7.18,-4.1 9.66,-13.3 5.53,-20.5 -3.29,-5.7 -82.29,-140.6 -222.52,-153.7 -0.48,0 -0.95,-0.1 -1.42,-0.1" style="fill:#0e2549;fill-opacity:1;fill-rule:nonzero;stroke:none" id="path390"/>
      <path d="m 6726.04,10477.9 c 56.17,27.9 155.88,86 166.87,153.7 10.97,67.5 -67.47,69.3 -92.47,61.6 -16.64,-5.2 42.14,332.4 42.14,332.4 l -521.96,94.2 c 0,0 -114.58,-282.1 -119.37,-472 -4.8,-190.7 75.39,-250.2 211.62,-273.6 67.48,-11.5 122.64,-3.5 167.54,12.7 l 145.63,91" style="fill:#ffffff;fill-opacity:1;fill-rule:nonzero;stroke:none" id="path392"/>
      <path d="m 6474.83,10353.8 c -21.05,0 -42.56,1.9 -64.5,5.6 -119.64,20.5 -229.6,69.7 -224.08,288.8 4.8,190.4 115.75,465.7 120.47,477.3 l 4.58,11.3 548.62,-99.1 -2.56,-14.6 c -22.33,-128.3 -43.39,-269.3 -44.92,-312.4 23.39,2.5 55.42,-1.5 75.86,-19.3 11.81,-10.2 24.76,-29.4 19.41,-62.3 -11.36,-69.9 -101.44,-128.1 -175,-164.6 -7.42,-3.7 -16.42,-0.6 -20.1,6.8 -3.68,7.4 -0.65,16.4 6.77,20.1 93.7,46.5 151.55,98.5 158.72,142.6 2.54,15.6 -0.55,27 -9.48,34.8 -16.63,14.4 -50.34,14.2 -63.73,10.1 -5.44,-1.7 -11.19,-0.5 -15.45,3.3 -6.99,6.1 -18.62,16.3 35.82,331.3 l -495.2,89.4 c -21.06,-54.3 -109.69,-291.8 -113.81,-455.5 -4.69,-185.9 72.72,-236.7 199.15,-258.4 57.06,-9.8 110.85,-5.7 159.91,12 7.78,2.8 16.39,-1.2 19.2,-9 2.82,-7.8 -1.21,-16.4 -9.01,-19.2 -34.97,-12.7 -72.01,-19 -110.67,-19" style="fill:#0e2549;fill-opacity:1;fill-rule:nonzero;stroke:none" id="path394"/>
      <path d="m 6331.88,10995 c -68.59,18.4 -194.02,72.3 -151.71,206.3 42.31,133.9 58.6,78.8 58.6,78.8 0,0 22.03,-36.5 32.61,-40.1 10.57,-3.5 -13.4,-6.4 47.1,99.3 0,0 106.97,-2.3 137.51,-76.4 30.53,-74 70,-44.7 93.61,-15.8 20.06,24.5 55.72,-20.4 58.09,-50.3 9.21,-35 170.48,-52 212.15,-85.5 65.95,-52.9 88.15,-74 65.54,-171.4 -4.34,-18.7 -72.59,-195.6 -72.59,-195.6 l -18.84,204.8 c 0,0 -349.95,15.8 -462.07,45.9" style="fill:#0e2549;fill-opacity:1;fill-rule:nonzero;stroke:none" id="path396"/>
      <path d="m 5632.19,9584.4 c 0,-30.4 -24.62,-55 -55,-55 -30.37,0 -55,24.6 -55,55 0,30.4 24.63,55 55,55 30.38,0 55,-24.6 55,-55" style="fill:#ffffff;fill-opacity:1;fill-rule:nonzero;stroke:none" id="path398"/>
      <path d="m 5577.19,9624.4 c -22.05,0 -40,-17.9 -40,-40 0,-22 17.95,-40 40,-40 22.06,0 40,18 40,40 0,22.1 -17.94,40 -40,40 z m 0,-110 c -38.6,0 -70,31.4 -70,70 0,38.6 31.4,70 70,70 38.6,0 70,-31.4 70,-70 0,-38.6 -31.4,-70 -70,-70" style="fill:#0e2549;fill-opacity:1;fill-rule:nonzero;stroke:none" id="path400"/>
      <path d="m 5664.55,9280.7 c 0,-30.4 -24.62,-55 -55,-55 -30.38,0 -55,24.6 -55,55 0,30.3 24.62,55 55,55 30.38,0 55,-24.7 55,-55" style="fill:#ffffff;fill-opacity:1;fill-rule:nonzero;stroke:none" id="path402"/>
      <path d="m 5609.55,9320.7 c -22.05,0 -40,-18 -40,-40 0,-22.1 17.95,-40 40,-40 22.06,0 40,17.9 40,40 0,22 -17.94,40 -40,40 z m 0,-110 c -38.6,0 -70,31.4 -70,70 0,38.6 31.4,70 70,70 38.6,0 70,-31.4 70,-70 0,-38.6 -31.4,-70 -70,-70" style="fill:#0e2549;fill-opacity:1;fill-rule:nonzero;stroke:none" id="path404"/>
      <path d="m 6311.65,10736.1 c -1.95,0 -3.92,0.3 -5.88,0.9 -10.56,3.2 -16.49,14.4 -13.25,24.9 l 5.18,16.9 c 3.24,10.6 14.42,16.5 24.99,13.3 10.55,-3.3 16.48,-14.5 13.25,-25 l -5.18,-16.9 c -2.64,-8.6 -10.56,-14.1 -19.11,-14.1" style="fill:#0e2549;fill-opacity:1;fill-rule:nonzero;stroke:none" id="path406"/>
      <path d="m 6545.88,10686 c -1.94,0 -3.91,0.3 -5.87,0.9 -10.56,3.2 -16.49,14.4 -13.25,25 l 5.17,16.8 c 3.25,10.6 14.42,16.5 24.99,13.3 10.56,-3.2 16.49,-14.4 13.26,-25 l -5.18,-16.9 c -2.64,-8.6 -10.56,-14.1 -19.12,-14.1" style="fill:#0e2549;fill-opacity:1;fill-rule:nonzero;stroke:none" id="path408"/>
      <path d="m 6636.65,10764.1 c -3.52,0 -7.06,1.2 -9.91,3.7 -36.46,32.2 -83.05,28.6 -83.53,28.5 -8.3,-0.5 -15.52,5.5 -16.22,13.7 -0.71,8.3 5.41,15.5 13.66,16.2 2.43,0.2 59.94,4.7 105.92,-35.8 6.22,-5.5 6.82,-15 1.34,-21.2 -2.96,-3.4 -7.1,-5.1 -11.26,-5.1" style="fill:#0e2549;fill-opacity:1;fill-rule:nonzero;stroke:none" id="path410"/>
      <path d="m 6396.25,10639.1 h 0.09 z m -2.36,-29.4 c -17.16,0 -43.78,25.9 -44.06,26.2 -16.97,17.7 -16.31,32.3 -12.77,41.5 5.34,13.7 15.47,18.5 23.61,22.2 8.25,3.9 16.02,7.5 24.64,22.5 4.13,7.1 13.31,9.6 20.48,5.5 7.18,-4.2 9.65,-13.3 5.51,-20.5 -13.34,-23.2 -28.16,-30.1 -37.97,-34.7 -6.82,-3.1 -7.45,-3.7 -8.29,-5.9 -0.49,-6.1 19.31,-22.2 29.48,-26.7 0.28,0 0.57,0 0.87,-0.1 8.23,-0.9 14.16,-8.3 13.24,-16.5 -0.65,-5.8 -4.81,-11 -10.33,-12.8 -1.37,-0.5 -2.86,-0.7 -4.41,-0.7" style="fill:#0e2549;fill-opacity:1;fill-rule:nonzero;stroke:none" id="path412"/>
      <path d="m 6398.29,10829 c -2.6,0 -5.24,0.6 -7.64,2.1 -48.41,28.7 -83.05,21.8 -83.37,21.7 -8.09,-1.8 -16.13,3.2 -17.99,11.3 -1.87,8.1 3.17,16.1 11.24,18 1.85,0.4 46.01,10 105.43,-25.2 7.13,-4.3 9.47,-13.5 5.25,-20.6 -2.81,-4.7 -7.8,-7.3 -12.92,-7.3" style="fill:#0e2549;fill-opacity:1;fill-rule:nonzero;stroke:none" id="path414"/>
      <path d="m 6444.77,10551.6 c 3.54,-15.8 -50.86,-53.7 -96.35,-39.7 -74.22,22.7 -78.46,91 -61.57,82.1 6.62,-3.5 28.24,-29.1 73,-41.7 48.29,-13.5 82.54,10 84.92,-0.7" style="fill:#0e2549;fill-opacity:1;fill-rule:nonzero;stroke:none" id="path416"/>
    </g>
  </g>
</svg>