<?xml version="1.0" encoding="utf-8"?>
<svg viewBox="400.232 491.451 4554.932 2414.373" width="4554.932px" height="2414.373px" xmlns="http://www.w3.org/2000/svg">
  <g id="g10" transform="matrix(1.333333, 0, 0, -1.333333, 188.886124, 3482.778809)">
    <g id="g12" transform="scale(0.1)">
      <path d="M 7598.375 4327.159 C 7427.035 4327.159 7248.375 4333.559 7065.865 4348.459 L 8152.795 4348.459 C 7980.495 4335.459 7793.985 4327.159 7598.375 4327.159 M 9277.295 4656.959 L 5675.735 4656.959 C 4443.515 5144.359 3383.645 6284.959 3453.025 8786.059 C 3564.105 12789.959 8674.495 17144.859 10355.795 18705.159 C 11599.595 19859.359 13385.195 21249.159 16666.295 21249.159 C 17263.895 21249.159 17910.695 21203.159 18613.195 21101.159 C 21624.095 20664.159 28394.495 19287.959 31753.495 17452.659 C 35112.495 15617.359 35908.295 12520.259 33888.495 9117.259 C 32784.595 7257.459 31380.495 6056.059 30333.895 5348.859 C 30284.095 5492.759 30221.795 5645.059 30150.995 5792.259 C 29616.395 6902.359 28826.295 7376.959 27756.295 7376.959 C 27371.995 7376.959 26951.595 7315.759 26493.995 7200.859 L 26493.995 7200.859 C 24946.895 9329.859 23440.595 11450.059 23440.595 11450.059 L 22439.795 11672.059 L 22439.795 11672.059 L 22213.495 11722.259 L 21661.895 11844.559 C 21661.495 11845.659 21661.295 11846.259 21661.295 11846.359 C 21661.295 11846.359 21661.295 11846.359 21661.195 11846.359 L 21661.195 11846.359 L 20752.195 12535.359 L 20853.895 12868.259 C 21043.995 12743.959 21256.395 12659.559 21485.895 12624.359 C 21565.195 12612.259 21644.195 12606.359 21722.895 12606.359 C 22390.195 12606.359 23021.395 13033.259 23419.595 13702.359 C 23443.395 13716.059 23467.195 13731.659 23490.695 13748.859 C 23647.995 13863.959 23779.195 14043.259 23860.095 14253.759 C 23955.595 14502.259 23967.095 14761.659 23893.195 14959.059 C 24165.695 15134.959 24386.895 15472.759 24769.495 16113.359 L 23603.995 16453.659 C 23331.395 17055.959 22846.695 17487.259 22244.695 17579.459 C 22165.395 17591.659 22086.395 17597.559 22007.695 17597.559 C 21022.295 17597.559 20115.795 16666.759 19921.695 15399.559 C 19910.795 15328.459 19902.395 15257.659 19896.295 15187.359 L 19664.795 15221.559 L 19440.395 14691.259 L 19440.395 14691.259 L 18832.795 13255.759 L 16986.295 11923.659 L 16973.595 11919.859 L 16973.595 11919.859 L 16914.695 11901.859 L 14209.795 11075.359 L 11535.195 9163.659 C 11362.095 9077.959 11191.495 8992.759 11026.595 8909.859 L 9787.095 7914.059 L 9574.495 6555.659 L 9574.495 6555.659 L 9277.295 4656.959" style="fill:#cee3ff;fill-opacity:1;fill-rule:nonzero;stroke:none" id="path16"/>
      <path d="M 3070.645 12406.259 C 566.035 12406.259 1016.015 21533.059 6058.695 22315.959 C 6593.375 22398.959 7116.725 22434.959 7616.095 22434.959 C 10391.995 22434.959 12438.495 21321.459 11719.995 20966.859 C 6237.415 18261.559 4062.915 12609.659 3334.355 12438.159 C 3243.145 12416.659 3155.185 12406.259 3070.645 12406.259" style="fill:#cee3ff;fill-opacity:1;fill-rule:nonzero;stroke:none" id="path18"/>
      <path d="M 2586.815 13705.459 L 12092.395 13705.459 L 12092.395 18644.159 L 2586.815 18644.159 Z M 12117.395 13655.459 L 2561.815 13655.459 C 2548.005 13655.459 2536.815 13666.659 2536.815 13680.459 L 2536.815 18669.159 C 2536.815 18682.959 2548.005 18694.159 2561.815 18694.159 L 12117.395 18694.159 C 12131.195 18694.159 12142.395 18682.959 12142.395 18669.159 L 12142.395 13680.459 C 12142.395 13666.659 12131.195 13655.459 12117.395 13655.459" style="fill:#9ec8ff;fill-opacity:1;fill-rule:nonzero;stroke:none" id="path20"/>
      <path d="M 12117.395 15318.359 L 2561.815 15318.359 C 2548.005 15318.359 2536.815 15329.559 2536.815 15343.359 C 2536.815 15357.159 2548.005 15368.359 2561.815 15368.359 L 12117.395 15368.359 C 12131.195 15368.359 12142.395 15357.159 12142.395 15343.359 C 12142.395 15329.559 12131.195 15318.359 12117.395 15318.359" style="fill:#9ec8ff;fill-opacity:1;fill-rule:nonzero;stroke:none" id="path22"/>
      <path d="M 12117.395 16981.259 L 2561.815 16981.259 C 2548.005 16981.259 2536.815 16992.459 2536.815 17006.259 C 2536.815 17020.059 2548.005 17031.259 2561.815 17031.259 L 12117.395 17031.259 C 12131.195 17031.259 12142.395 17020.059 12142.395 17006.259 C 12142.395 16992.459 12131.195 16981.259 12117.395 16981.259" style="fill:#9ec8ff;fill-opacity:1;fill-rule:nonzero;stroke:none" id="path24"/>
      <path d="M 8932.195 13655.459 C 8918.395 13655.459 8907.195 13666.659 8907.195 13680.459 L 8907.195 18669.159 C 8907.195 18682.959 8918.395 18694.159 8932.195 18694.159 C 8945.995 18694.159 8957.195 18682.959 8957.195 18669.159 L 8957.195 13680.459 C 8957.195 13666.659 8945.995 13655.459 8932.195 13655.459" style="fill:#9ec8ff;fill-opacity:1;fill-rule:nonzero;stroke:none" id="path26"/>
      <path d="M 5746.995 13655.459 C 5733.185 13655.459 5721.995 13666.659 5721.995 13680.459 L 5721.995 18669.159 C 5721.995 18682.959 5733.185 18694.159 5746.995 18694.159 C 5760.805 18694.159 5771.995 18682.959 5771.995 18669.159 L 5771.995 13680.459 C 5771.995 13666.659 5760.805 13655.459 5746.995 13655.459" style="fill:#9ec8ff;fill-opacity:1;fill-rule:nonzero;stroke:none" id="path28"/>
      <path d="M 18393.495 12353.659 L 14209.795 11075.359 L 9787.095 7914.059 L 9255.095 4515.359 C 9255.095 4515.359 10995.695 4512.059 13430.995 4511.059 C 18707.895 4509.159 27246.995 4518.359 28411.195 4596.859 C 26537.695 7090.659 23440.595 11450.059 23440.595 11450.059 L 20228.795 12162.459 L 18393.495 12353.659" style="fill:#ffffff;fill-opacity:1;fill-rule:nonzero;stroke:none" id="path30"/>
      <path d="M 15271.195 4656.959 L 13430.895 4656.959 C 14124.695 4892.859 15064.395 5491.259 15064.395 5491.259 L 15271.195 4656.959" style="fill:#cdeaf3;fill-opacity:1;fill-rule:nonzero;stroke:none" id="path32"/>
      <path d="M 20430.795 4656.959 L 20237.395 4656.959 L 17686.095 8601.059 L 18318.395 9561.859 L 18022.095 9710.759 L 17773.395 10026.659 L 18742.695 9872.459 C 18742.695 9872.459 18142.095 9040.759 18227.295 8926.059 C 18312.495 8811.359 20474.095 5132.159 20474.095 5132.159 L 21872.595 9197.759 L 21287.395 9979.859 C 21287.395 9979.859 22194.895 10398.159 22166.195 10512.859 C 22150.495 10575.959 21999.095 10973.359 21866.195 11318.059 C 21882.495 11322.859 21898.495 11328.059 21914.295 11333.559 L 22366.295 10443.659 L 21659.095 9828.159 L 22059.695 9116.559 L 20430.795 4656.959 M 17346.595 10568.959 L 16895.895 11141.659 C 16895.895 11141.659 16866.295 11134.459 16811.795 11120.759 L 16781.595 11861.159 L 16914.695 11901.859 L 16973.595 11919.859 L 16980.995 11919.659 L 17346.595 10568.959" style="fill:#cdeaf3;fill-opacity:1;fill-rule:nonzero;stroke:none" id="path34"/>
      <path d="M 18843.295 13263.359 L 16980.895 11919.859 L 17480.795 10073.259 L 18742.695 9872.459 C 18742.695 9872.459 18142.095 9040.759 18227.295 8926.059 C 18312.495 8811.359 20474.095 5132.159 20474.095 5132.159 L 21872.595 9197.759 L 21287.395 9979.859 C 21287.395 9979.859 22194.895 10398.159 22166.195 10512.859 C 22137.595 10627.559 21661.195 11846.359 21661.195 11846.359 L 20416.795 12789.559 L 18843.295 13263.359" style="fill:#ffffff;fill-opacity:1;fill-rule:nonzero;stroke:none" id="path36"/>
      <path d="M 20912.695 17977.259 C 20912.695 17977.259 19450.295 17919.859 18962.795 17231.659 C 18475.295 16543.459 19020.095 15586.359 18733.395 15032.559 C 18446.595 14478.859 18735.495 13591.059 18951.095 13535.259 C 19166.695 13479.559 20912.695 17977.259 20912.695 17977.259" style="fill:#303c60;fill-opacity:1;fill-rule:nonzero;stroke:none" id="path38"/>
      <path d="M 19664.795 15221.559 L 18278.795 11946.659 L 20266.095 7914.059 L 20852.395 11752.359 L 20611.095 12073.859 L 21490.595 14951.759 L 19664.795 15221.559" style="fill:#f09959;fill-opacity:1;fill-rule:nonzero;stroke:none" id="path40"/>
      <path d="M 23209.295 4656.959 L 22685.795 4656.959 C 22827.395 5197.659 23438.395 7642.159 23421.495 9518.759 C 23421.495 9518.759 23536.195 8065.759 23478.795 7009.159 C 23430.995 6128.659 23263.695 5006.459 23209.295 4656.959" style="fill:#cdeaf3;fill-opacity:1;fill-rule:nonzero;stroke:none" id="path42"/>
      <path d="M 9574.495 6555.659 L 9574.495 6555.659 L 9787.095 7914.059 L 9574.495 6555.659 M 9787.095 7914.059 L 11026.595 8909.859 C 11191.495 8992.759 11362.095 9077.959 11535.195 9163.659 L 9787.095 7914.059" style="fill:#b4dcf3;fill-opacity:1;fill-rule:nonzero;stroke:none" id="path44"/>
      <path d="M 11447.595 4656.959 L 9809.695 4656.959 C 9789.195 5028.759 9730.095 6008.659 9675.295 6071.859 C 9654.295 6095.859 9616.595 6293.659 9574.495 6555.659 L 9787.095 7914.059 L 11535.195 9163.659 C 12468.695 9625.559 13474.795 10101.659 14047.395 10305.259 C 15144.895 10695.659 16469.195 11035.059 16811.795 11120.759 L 16845.295 10301.859 L 18022.095 9710.759 L 18067.295 9653.359 C 18067.295 9653.359 17838.995 9197.759 16666.495 9002.559 C 16686.395 8913.059 16775.295 8606.659 16666.495 8434.459 C 16147.195 7612.859 14285.795 6222.759 13938.995 5905.459 C 13112.595 5149.159 12202.495 4810.259 11447.595 4656.959" style="fill:#cdeaf3;fill-opacity:1;fill-rule:nonzero;stroke:none" id="path46"/>
      <path d="M 18022.095 9710.759 L 16845.295 10301.859 L 16811.795 11120.759 C 16866.295 11134.459 16895.895 11141.659 16895.895 11141.659 L 17346.595 10568.959 L 17480.795 10073.259 L 17773.395 10026.659 L 18022.095 9710.759" style="fill:#b4e0ed;fill-opacity:1;fill-rule:nonzero;stroke:none" id="path48"/>
      <path d="M 17773.395 10026.659 L 17480.795 10073.259 L 17346.595 10568.959 L 17773.395 10026.659" style="fill:#cdeaf3;fill-opacity:1;fill-rule:nonzero;stroke:none" id="path50"/>
      <path d="M 17408.895 11491.859 C 17841.195 11626.459 18176.595 11581.359 18033.995 11363.459 C 17975.795 11274.659 17834.995 11141.659 17834.995 11141.659 L 16895.895 11283.059 L 17408.895 11491.859" style="fill:#9ec8ff;fill-opacity:1;fill-rule:nonzero;stroke:none" id="path52"/>
      <path d="M 23875.495 9044.659 L 23818.395 8890.159 L 16853.295 11338.259 L 16991.895 11713.559 L 23875.495 9044.659" style="fill:#ffffff;fill-opacity:1;fill-rule:nonzero;stroke:none" id="path54"/>
      <path d="M 16879.095 11350.359 L 23806.495 8915.559 L 23849.895 9033.159 L 17003.595 11687.559 Z M 23830.395 8864.759 L 23811.795 8871.259 L 16827.495 11326.059 L 16980.195 11739.559 L 16999.195 11732.159 L 23901.095 9056.259 L 23830.395 8864.759" style="fill:#2e5b9a;fill-opacity:1;fill-rule:nonzero;stroke:none" id="path56"/>
      <path d="M 26493.995 7200.859 C 28225.895 7635.959 29424.495 7301.059 30150.995 5792.259 C 30420.695 5231.959 30565.195 4598.959 30377.195 4627.959 C 30189.195 4656.959 27416.995 4596.859 27416.995 4596.859 L 26493.995 7200.859" style="fill:#ffffff;fill-opacity:1;fill-rule:nonzero;stroke:none" id="path58"/>
      <path d="M 17359.795 11463.459 C 17289.195 11225.659 16921.495 11125.059 16538.495 11238.759 C 16155.595 11352.559 15902.495 11637.659 15973.195 11875.459 C 16043.795 12113.359 16411.495 12213.859 16794.395 12100.159 C 17177.395 11986.359 17430.495 11701.359 17359.795 11463.459" style="fill:#f39892;fill-opacity:1;fill-rule:nonzero;stroke:none" id="path60"/>
      <path d="M 19930.495 9849.459 C 19839.895 10019.959 18878.195 10400.259 19039.395 10345.559 C 19200.495 10290.959 19714.395 10114.559 19552.595 10304.159 C 19390.795 10493.659 18154.895 11332.259 17761.495 11343.059 C 17392.995 11353.159 16876.795 11417.759 16617.195 11218.359 C 15974.195 10724.359 15412.195 10531.159 15412.195 10531.159 C 15412.195 10531.159 15026.395 10382.359 15009.195 10379.259 C 14192.595 10235.359 13757.395 7301.059 13757.395 7301.059 C 13860.995 7303.359 15643.595 8719.459 16491.195 9390.859 C 16659.195 9332.259 17190.395 9358.259 17609.595 9576.059 C 17838.795 9695.159 18158.995 9927.359 18158.995 9927.359 C 18158.995 9927.359 18731.695 9762.159 18898.195 9717.459 C 19345.795 9597.459 20021.195 9679.059 19930.495 9849.459" style="fill:#9ec8ff;fill-opacity:1;fill-rule:nonzero;stroke:none" id="path62"/>
      <path d="M 9548.795 7732.659 C 8828.195 6869.559 8664.405 4711.359 9429.595 4607.059 C 11224.795 4362.359 16375.895 8609.059 16375.895 8609.059 L 15540.395 10612.559 C 15540.395 10612.559 10576.295 8963.359 9548.795 7732.659" style="fill:#ffffff;fill-opacity:1;fill-rule:nonzero;stroke:none" id="path64"/>
      <path d="M 35022.295 4348.459 L 2526.655 4348.459 C 2441.465 4348.459 2372.415 4417.559 2372.415 4502.759 C 2372.415 4587.959 2441.465 4656.959 2526.655 4656.959 L 35022.295 4656.959 C 35107.495 4656.959 35176.495 4587.959 35176.495 4502.759 C 35176.495 4417.559 35107.495 4348.459 35022.295 4348.459" style="fill:#2e5b9a;fill-opacity:1;fill-rule:nonzero;stroke:none" id="path66"/>
      <path d="M 23755.995 8952.559 C 23750.295 8952.559 23744.495 8953.459 23738.895 8955.559 L 22915.895 9256.659 C 22889.995 9266.159 22876.595 9294.859 22886.095 9320.859 C 22895.595 9346.759 22924.395 9360.059 22950.295 9350.559 L 23773.195 9049.459 C 23799.095 9039.959 23812.495 9011.259 23802.995 8985.359 C 23795.595 8965.059 23776.395 8952.559 23755.995 8952.559" style="fill:#9ec8ff;fill-opacity:1;fill-rule:nonzero;stroke:none" id="path68"/>
      <path d="M 22795.595 9303.959 C 22789.795 9303.959 22783.995 9304.959 22778.395 9307.059 L 22576.895 9380.759 C 22550.995 9390.259 22537.595 9418.959 22547.095 9444.859 C 22556.595 9470.759 22585.395 9484.159 22611.195 9474.659 L 22812.695 9400.959 C 22838.695 9391.459 22851.995 9362.759 22842.495 9336.759 C 22835.095 9316.559 22815.895 9303.959 22795.595 9303.959" style="fill:#9ec8ff;fill-opacity:1;fill-rule:nonzero;stroke:none" id="path70"/>
      <path d="M 22446.795 9431.559 C 22441.095 9431.559 22435.295 9432.559 22429.695 9434.559 L 20723.995 10058.659 C 20698.095 10068.159 20684.695 10096.859 20694.195 10122.859 C 20703.695 10148.759 20732.495 10162.159 20758.395 10152.559 L 22463.995 9528.559 C 22489.895 9519.059 22503.295 9490.359 22493.795 9464.359 C 22486.395 9444.159 22467.195 9431.559 22446.795 9431.559" style="fill:#9ec8ff;fill-opacity:1;fill-rule:nonzero;stroke:none" id="path72"/>
      <path d="M 20430.795 10169.159 C 20425.095 10169.159 20419.295 10170.159 20413.695 10172.259 L 19949.395 10342.159 C 19923.395 10351.659 19910.095 10380.359 19919.595 10406.259 C 19929.095 10432.259 19957.795 10445.559 19983.695 10436.059 L 20447.995 10266.159 C 20473.995 10256.659 20487.295 10227.959 20477.795 10202.059 C 20470.395 10181.759 20451.195 10169.159 20430.795 10169.159" style="fill:#9ec8ff;fill-opacity:1;fill-rule:nonzero;stroke:none" id="path74"/>
      <path d="M 19749.395 10418.559 C 19743.695 10418.559 19737.895 10419.459 19732.295 10421.559 L 19338.595 10565.659 C 19312.595 10575.059 19299.295 10603.859 19308.795 10629.759 C 19318.295 10655.659 19346.995 10669.059 19372.895 10659.559 L 19766.595 10515.459 C 19792.595 10505.959 19805.895 10477.259 19796.395 10451.359 C 19788.995 10431.059 19769.795 10418.559 19749.395 10418.559" style="fill:#9ec8ff;fill-opacity:1;fill-rule:nonzero;stroke:none" id="path76"/>
      <path d="M 22864.095 5094.959 C 22690.495 5094.959 22549.695 5235.659 22549.695 5409.259 L 22549.695 8601.059 L 23178.395 8601.059 L 23178.395 5409.259 C 23178.395 5235.659 23037.695 5094.959 22864.095 5094.959" style="fill:#ffffff;fill-opacity:1;fill-rule:nonzero;stroke:none" id="path78"/>
      <path d="M 22569.695 8581.059 L 22569.695 5409.259 C 22569.695 5246.959 22701.795 5114.959 22864.095 5114.959 C 23026.395 5114.959 23158.395 5246.959 23158.395 5409.259 L 23158.395 8581.059 Z M 22864.095 5074.959 C 22679.695 5074.959 22529.695 5224.859 22529.695 5409.259 L 22529.695 8621.059 L 23198.395 8621.059 L 23198.395 5409.259 C 23198.395 5224.859 23048.395 5074.959 22864.095 5074.959" style="fill:#2e5b9a;fill-opacity:1;fill-rule:nonzero;stroke:none" id="path80"/>
      <path d="M 23875.495 5094.959 C 23701.895 5094.959 23561.195 5235.659 23561.195 5409.259 L 23561.195 8601.059 L 24189.895 8601.059 L 24189.895 5409.259 C 24189.895 5235.659 24049.095 5094.959 23875.495 5094.959" style="fill:#ffffff;fill-opacity:1;fill-rule:nonzero;stroke:none" id="path82"/>
      <path d="M 23581.195 8581.059 L 23581.195 5409.259 C 23581.195 5246.959 23713.195 5114.959 23875.495 5114.959 C 24037.795 5114.959 24169.895 5246.959 24169.895 5409.259 L 24169.895 8581.059 Z M 23875.495 5074.959 C 23691.195 5074.959 23541.195 5224.859 23541.195 5409.259 L 23541.195 8621.059 L 24209.895 8621.059 L 24209.895 5409.259 C 24209.895 5224.859 24059.895 5074.959 23875.495 5074.959" style="fill:#2e5b9a;fill-opacity:1;fill-rule:nonzero;stroke:none" id="path84"/>
      <path d="M 24928.795 5094.959 C 24755.195 5094.959 24614.495 5235.659 24614.495 5409.259 L 24614.495 8601.059 L 25243.095 8601.059 L 25243.095 5409.259 C 25243.095 5235.659 25102.395 5094.959 24928.795 5094.959" style="fill:#ffffff;fill-opacity:1;fill-rule:nonzero;stroke:none" id="path86"/>
      <path d="M 24634.495 8581.059 L 24634.495 5409.259 C 24634.495 5246.959 24766.495 5114.959 24928.795 5114.959 C 25091.095 5114.959 25223.095 5246.959 25223.095 5409.259 L 25223.095 8581.059 Z M 24928.795 5074.959 C 24744.395 5074.959 24594.495 5224.859 24594.495 5409.259 L 24594.495 8621.059 L 25263.095 8621.059 L 25263.095 5409.259 C 25263.095 5224.859 25113.095 5074.959 24928.795 5074.959" style="fill:#2e5b9a;fill-opacity:1;fill-rule:nonzero;stroke:none" id="path88"/>
      <path d="M 24928.795 5241.859 C 24805.695 5241.859 24705.895 5341.659 24705.895 5464.759 L 24705.895 7727.659 L 25151.595 7727.659 L 25151.595 5464.759 C 25151.595 5341.659 25051.895 5241.859 24928.795 5241.859" style="fill:#9ec8ff;fill-opacity:1;fill-rule:nonzero;stroke:none" id="path90"/>
      <path d="M 23875.495 5241.859 C 23752.495 5241.859 23652.695 5341.659 23652.695 5464.759 L 23652.695 6794.459 L 24098.395 6794.459 L 24098.395 5464.759 C 24098.395 5341.659 23998.595 5241.859 23875.495 5241.859" style="fill:#9ec8ff;fill-opacity:1;fill-rule:nonzero;stroke:none" id="path92"/>
      <path d="M 25940.295 5094.959 C 25766.695 5094.959 25625.895 5235.659 25625.895 5409.259 L 25625.895 8601.059 L 26254.595 8601.059 L 26254.595 5409.259 C 26254.595 5235.659 26113.895 5094.959 25940.295 5094.959" style="fill:#ffffff;fill-opacity:1;fill-rule:nonzero;stroke:none" id="path94"/>
      <path d="M 25645.895 8581.059 L 25645.895 5409.259 C 25645.895 5246.959 25777.995 5114.959 25940.295 5114.959 C 26102.595 5114.959 26234.595 5246.959 26234.595 5409.259 L 26234.595 8581.059 Z M 25940.295 5074.959 C 25755.895 5074.959 25605.895 5224.859 25605.895 5409.259 L 25605.895 8621.059 L 26274.595 8621.059 L 26274.595 5409.259 C 26274.595 5224.859 26124.595 5074.959 25940.295 5074.959" style="fill:#2e5b9a;fill-opacity:1;fill-rule:nonzero;stroke:none" id="path96"/>
      <path d="M 25940.295 5240.059 C 25820.595 5240.059 25723.695 5337.059 25723.695 5456.659 L 25723.695 7958.859 L 26156.895 7958.859 L 26156.895 5456.659 C 26156.895 5337.059 26059.895 5240.059 25940.295 5240.059" style="fill:#9ec8ff;fill-opacity:1;fill-rule:nonzero;stroke:none" id="path98"/>
      <path d="M 23925.495 7950.159 L 23950.495 7406.159 C 23952.395 7364.759 23920.395 7329.659 23878.995 7327.759 C 23837.595 7325.859 23802.495 7357.859 23800.595 7399.259 C 23800.395 7401.559 23800.495 7403.959 23800.595 7406.159 L 23825.495 7950.159 C 23826.795 7977.759 23850.195 7999.059 23877.795 7997.859 C 23903.795 7996.659 23924.295 7975.559 23925.495 7950.159" style="fill:#9ec8ff;fill-opacity:1;fill-rule:nonzero;stroke:none" id="path100"/>
      <path d="M 23925.495 8849.559 L 23947.195 8288.359 C 23948.695 8248.859 23917.895 8215.459 23878.295 8213.959 C 23838.695 8212.459 23805.395 8243.259 23803.895 8282.859 C 23803.795 8284.659 23803.795 8286.659 23803.895 8288.359 L 23825.495 8849.559 C 23826.595 8877.159 23849.895 8898.759 23877.495 8897.659 C 23903.695 8896.659 23924.495 8875.359 23925.495 8849.559" style="fill:#9ec8ff;fill-opacity:1;fill-rule:nonzero;stroke:none" id="path102"/>
      <path d="M 26844.595 6153.959 L 21986.595 6153.959 C 21924.095 6153.959 21872.895 6205.059 21872.895 6267.659 L 21872.895 6371.059 C 21872.895 6433.659 21924.095 6484.759 21986.595 6484.759 L 26844.595 6484.759 C 26907.095 6484.759 26958.295 6433.659 26958.295 6371.059 L 26958.295 6267.659 C 26958.295 6205.059 26907.095 6153.959 26844.595 6153.959" style="fill:#f5dc95;fill-opacity:1;fill-rule:nonzero;stroke:none" id="path104"/>
      <path d="M 26844.595 4656.959 L 21986.595 4656.959 C 21924.095 4656.959 21872.895 4708.059 21872.895 4770.659 L 21872.895 4874.059 C 21872.895 4936.659 21924.095 4987.759 21986.595 4987.759 L 26844.595 4987.759 C 26907.095 4987.759 26958.295 4936.659 26958.295 4874.059 L 26958.295 4770.659 C 26958.295 4708.059 26907.095 4656.959 26844.595 4656.959" style="fill:#f5dc95;fill-opacity:1;fill-rule:nonzero;stroke:none" id="path106"/>
      <path d="M 22233.795 4822.359 L 22099.995 4822.359 C 22046.395 4822.359 22002.495 4866.259 22002.495 4919.859 L 22002.495 6221.859 C 22002.495 6275.459 22046.395 6319.359 22099.995 6319.359 L 22233.795 6319.359 C 22287.395 6319.359 22331.295 6275.459 22331.295 6221.859 L 22331.295 4919.859 C 22331.295 4866.259 22287.395 4822.359 22233.795 4822.359" style="fill:#f5dc95;fill-opacity:1;fill-rule:nonzero;stroke:none" id="path108"/>
      <path d="M 26736.795 4822.359 L 26621.595 4822.359 C 26570.195 4822.359 26528.095 4864.459 26528.095 4915.859 L 26528.095 6225.859 C 26528.095 6277.259 26570.195 6319.359 26621.595 6319.359 L 26736.795 6319.359 C 26788.195 6319.359 26830.295 6277.259 26830.295 6225.859 L 26830.295 4915.859 C 26830.295 4864.459 26788.195 4822.359 26736.795 4822.359" style="fill:#f5dc95;fill-opacity:1;fill-rule:nonzero;stroke:none" id="path110"/>
      <path d="M 22439.795 11672.059 L 22213.495 11722.259 L 22439.795 11672.059 L 22439.795 11672.059 M 21661.295 11846.359 C 21661.295 11846.359 21661.295 11846.359 21661.195 11846.359 C 21661.295 11846.359 21661.295 11846.359 21661.295 11846.359" style="fill:#c0dbff;fill-opacity:1;fill-rule:nonzero;stroke:none" id="path112"/>
      <path d="M 21914.295 11333.559 L 21685.495 11784.159 C 21672.595 11817.259 21664.295 11838.459 21661.895 11844.559 L 22213.495 11722.259 L 22439.795 11672.059 C 22310.995 11548.259 22130.595 11409.059 21914.295 11333.559" style="fill:#e2eeff;fill-opacity:1;fill-rule:nonzero;stroke:none" id="path114"/>
      <path d="M 21866.195 11318.059 C 21790.595 11514.359 21720.895 11693.459 21685.495 11784.159 L 21914.295 11333.559 C 21898.495 11328.059 21882.495 11322.859 21866.195 11318.059" style="fill:#bfe0f7;fill-opacity:1;fill-rule:nonzero;stroke:none" id="path116"/>
      <path d="M 21564.395 11277.559 C 21374.095 11277.559 21094.395 11280.759 20799.595 11406.559 L 20852.395 11752.359 L 20611.095 12073.859 L 20752.195 12535.359 L 21661.195 11846.359 L 21661.195 11846.359 C 21661.295 11846.359 21661.295 11846.359 21661.295 11846.359 C 21661.295 11846.259 21661.595 11845.559 21661.895 11844.559 L 21661.895 11844.559 C 21664.295 11838.459 21672.595 11817.259 21685.495 11784.159 C 21720.895 11693.459 21790.595 11514.359 21866.195 11318.059 C 21780.395 11292.559 21689.295 11277.559 21593.995 11277.559 C 21584.395 11277.559 21574.495 11277.559 21564.395 11277.559" style="fill:#e2eeff;fill-opacity:1;fill-rule:nonzero;stroke:none" id="path118"/>
      <path d="M 19664.795 15221.559 L 19440.395 14691.259 C 19540.095 12423.459 20181.195 11533.059 20779.895 11277.559 L 20852.395 11752.359 L 20611.095 12073.859 L 21490.595 14951.759 L 19664.795 15221.559" style="fill:#e38540;fill-opacity:1;fill-rule:nonzero;stroke:none" id="path120"/>
      <path d="M 24769.495 16113.359 C 24152.995 15081.059 23955.595 14835.059 23287.195 14785.959 C 22618.895 14736.959 23344.595 16529.359 23344.595 16529.359 L 24769.495 16113.359" style="fill:#303c60;fill-opacity:1;fill-rule:nonzero;stroke:none" id="path122"/>
      <path d="M 23808.895 14804.259 C 23599.295 13435.959 22559.295 12459.959 21485.895 12624.359 C 20412.495 12788.759 19712.195 14031.259 19921.695 15399.559 C 20131.295 16767.859 21171.295 17743.859 22244.695 17579.459 C 23318.195 17415.059 24018.495 16172.559 23808.895 14804.259" style="fill:#f09959;fill-opacity:1;fill-rule:nonzero;stroke:none" id="path124"/>
      <path d="M 31895.695 5564.059 C 31618.495 5564.059 31393.795 5788.759 31393.795 6065.959 L 31393.795 11012.759 L 32397.595 11012.759 L 32397.595 6065.959 C 32397.595 5788.759 32172.895 5564.059 31895.695 5564.059" style="fill:#ffffff;fill-opacity:1;fill-rule:nonzero;stroke:none" id="path126"/>
      <path d="M 31413.795 10992.759 L 31413.795 6065.959 C 31413.795 5800.259 31629.895 5584.059 31895.695 5584.059 C 32161.395 5584.059 32377.595 5800.259 32377.595 6065.959 L 32377.595 10992.759 Z M 31895.695 5544.059 C 31607.895 5544.059 31373.795 5778.159 31373.795 6065.959 L 31373.795 11032.759 L 32417.595 11032.759 L 32417.595 6065.959 C 32417.595 5778.159 32183.395 5544.059 31895.695 5544.059" style="fill:#2e5b9a;fill-opacity:1;fill-rule:nonzero;stroke:none" id="path128"/>
      <path d="M 31895.695 5792.259 C 31697.795 5792.259 31537.395 5952.659 31537.395 6150.459 L 31537.395 9153.059 L 32253.895 9153.059 L 32253.895 6150.459 C 32253.895 5952.659 32093.495 5792.259 31895.695 5792.259" style="fill:#a2dff2;fill-opacity:1;fill-rule:nonzero;stroke:none" id="path130"/>
      <path d="M 32738.895 7009.159 L 30965.995 7009.159 C 30885.395 7009.159 30820.095 7074.559 30820.095 7155.159 C 30820.095 7235.759 30885.395 7301.059 30965.995 7301.059 L 32738.895 7301.059 C 32819.495 7301.059 32884.795 7235.759 32884.795 7155.159 C 32884.795 7074.559 32819.495 7009.159 32738.895 7009.159" style="fill:#f5dc95;fill-opacity:1;fill-rule:nonzero;stroke:none" id="path132"/>
      <path d="M 32681.695 4676.459 L 31023.195 4676.459 C 30910.995 4676.459 30820.095 4767.359 30820.095 4879.559 L 30820.095 5038.759 C 30820.095 5150.959 30910.995 5241.859 31023.195 5241.859 L 32681.695 5241.859 C 32793.895 5241.859 32884.795 5150.959 32884.795 5038.759 L 32884.795 4879.559 C 32884.795 4767.359 32793.895 4676.459 32681.695 4676.459" style="fill:#f5dc95;fill-opacity:1;fill-rule:nonzero;stroke:none" id="path134"/>
      <path d="M 31278.895 4987.759 L 31011.295 4987.759 L 31011.295 7155.159 L 31278.895 7155.159 L 31278.895 4987.759" style="fill:#f5dc95;fill-opacity:1;fill-rule:nonzero;stroke:none" id="path136"/>
      <path d="M 32770.095 4987.759 L 32502.395 4987.759 L 32502.395 7155.159 L 32770.095 7155.159 L 32770.095 4987.759" style="fill:#f5dc95;fill-opacity:1;fill-rule:nonzero;stroke:none" id="path138"/>
      <path d="M 32170.295 9719.459 C 32170.295 9644.259 32109.295 9583.259 32034.095 9583.259 C 31958.795 9583.259 31897.795 9644.259 31897.795 9719.459 C 31897.795 9794.659 31958.795 9855.659 32034.095 9855.659 C 32109.295 9855.659 32170.295 9794.659 32170.295 9719.459" style="fill:#a2dff2;fill-opacity:1;fill-rule:nonzero;stroke:none" id="path140"/>
      <path d="M 31780.695 10350.359 C 31780.695 10313.359 31750.795 10283.459 31713.795 10283.459 C 31676.895 10283.459 31646.895 10313.359 31646.895 10350.359 C 31646.895 10387.259 31676.895 10417.259 31713.795 10417.259 C 31750.795 10417.259 31780.695 10387.259 31780.695 10350.359" style="fill:#a2dff2;fill-opacity:1;fill-rule:nonzero;stroke:none" id="path142"/>
      <path d="M 32148.795 10710.359 C 32148.795 10617.959 32073.895 10543.159 31981.495 10543.159 C 31889.095 10543.159 31814.195 10617.959 31814.195 10710.359 C 31814.195 10802.759 31889.095 10877.659 31981.495 10877.659 C 32073.895 10877.659 32148.795 10802.759 32148.795 10710.359" style="fill:#a2dff2;fill-opacity:1;fill-rule:nonzero;stroke:none" id="path144"/>
      <path d="M 31897.795 11306.259 C 31897.795 11260.059 31860.395 11222.559 31814.195 11222.559 C 31767.995 11222.559 31730.595 11260.059 31730.595 11306.259 C 31730.595 11352.459 31767.995 11389.859 31814.195 11389.859 C 31860.395 11389.859 31897.795 11352.459 31897.795 11306.259" style="fill:#ffffff;fill-opacity:1;fill-rule:nonzero;stroke:none" id="path146"/>
      <path d="M 32220.495 10015.759 C 32220.495 9976.159 32188.395 9944.059 32148.795 9944.059 C 32109.195 9944.059 32077.095 9976.159 32077.095 10015.759 C 32077.095 10055.359 32109.195 10087.459 32148.795 10087.459 C 32188.395 10087.459 32220.495 10055.359 32220.495 10015.759" style="fill:#a2dff2;fill-opacity:1;fill-rule:nonzero;stroke:none" id="path148"/>
      <path d="M 31852.395 8797.059 C 31852.395 8720.459 31790.395 8658.359 31713.795 8658.359 C 31637.295 8658.359 31575.195 8720.459 31575.195 8797.059 C 31575.195 8873.559 31637.295 8935.659 31713.795 8935.659 C 31790.395 8935.659 31852.395 8873.559 31852.395 8797.059" style="fill:#ffffff;fill-opacity:1;fill-rule:nonzero;stroke:none" id="path150"/>
      <path d="M 32098.595 8534.159 C 32098.595 8498.459 32069.695 8469.659 32034.095 8469.659 C 31998.395 8469.659 31969.495 8498.459 31969.495 8534.159 C 31969.495 8569.759 31998.395 8598.659 32034.095 8598.659 C 32069.695 8598.659 32098.595 8569.759 32098.595 8534.159" style="fill:#ffffff;fill-opacity:1;fill-rule:nonzero;stroke:none" id="path152"/>
      <path d="M 31897.795 7659.459 C 31897.795 7634.459 31877.495 7614.059 31852.395 7614.059 C 31827.395 7614.059 31806.995 7634.459 31806.995 7659.459 C 31806.995 7684.559 31827.395 7704.959 31852.395 7704.959 C 31877.495 7704.959 31897.795 7684.559 31897.795 7659.459" style="fill:#ffffff;fill-opacity:1;fill-rule:nonzero;stroke:none" id="path154"/>
      <path d="M 32098.595 6703.659 C 32098.595 6632.359 32040.795 6574.559 31969.495 6574.559 C 31898.295 6574.559 31840.495 6632.359 31840.495 6703.659 C 31840.495 6774.859 31898.295 6832.659 31969.495 6832.659 C 32040.795 6832.659 32098.595 6774.859 32098.595 6703.659" style="fill:#ffffff;fill-opacity:1;fill-rule:nonzero;stroke:none" id="path156"/>
      <path d="M 31895.695 6349.959 C 31895.695 6300.959 31855.995 6261.259 31806.995 6261.259 C 31758.095 6261.259 31718.395 6300.959 31718.395 6349.959 C 31718.395 6398.859 31758.095 6438.559 31806.995 6438.559 C 31855.995 6438.559 31895.695 6398.859 31895.695 6349.959" style="fill:#ffffff;fill-opacity:1;fill-rule:nonzero;stroke:none" id="path158"/>
      <path d="M 32235.595 11831.959 C 32235.595 11744.459 32164.595 11673.459 32077.095 11673.459 C 31989.495 11673.459 31918.595 11744.459 31918.595 11831.959 C 31918.595 11919.559 31989.495 11990.459 32077.095 11990.459 C 32164.595 11990.459 32235.595 11919.559 32235.595 11831.959" style="fill:#ffffff;fill-opacity:1;fill-rule:nonzero;stroke:none" id="path160"/>
      <path d="M 31718.595 12258.959 C 31718.595 12202.659 31672.995 12156.959 31616.695 12156.959 C 31560.295 12156.959 31514.695 12202.659 31514.695 12258.959 C 31514.695 12315.259 31560.295 12360.859 31616.695 12360.859 C 31672.995 12360.859 31718.595 12315.259 31718.595 12258.959" style="fill:#ffffff;fill-opacity:1;fill-rule:nonzero;stroke:none" id="path162"/>
      <path d="M 6934.295 8947.359 L 6934.295 10728.359 L 5752.825 10728.359 L 5752.825 8947.359 C 5752.825 8917.559 5749.225 8887.859 5742.085 8858.859 L 4812.765 5086.659 C 4755.295 4853.359 4931.875 4627.959 5172.135 4627.959 L 7514.995 4627.959 C 7755.255 4627.959 7931.835 4853.359 7874.365 5086.659 L 6945.045 8858.859 C 6937.905 8887.859 6934.295 8917.559 6934.295 8947.359" style="fill:#ffffff;fill-opacity:1;fill-rule:nonzero;stroke:none" id="path164"/>
      <path d="M 5772.825 10708.359 L 5772.825 8947.359 C 5772.825 8915.959 5769.015 8884.559 5761.505 8854.059 L 4832.185 5081.859 C 4806.275 4976.659 4829.725 4867.459 4896.545 4782.159 C 4963.355 4696.859 5063.805 4647.959 5172.135 4647.959 L 7514.995 4647.959 C 7623.325 4647.959 7723.775 4696.859 7790.585 4782.159 C 7857.395 4867.459 7880.855 4976.659 7854.945 5081.859 L 6925.625 8854.059 C 6918.105 8884.559 6914.295 8915.959 6914.295 8947.359 L 6914.295 10708.359 Z M 7514.995 4607.959 L 5172.135 4607.959 C 5051.425 4607.959 4939.505 4662.459 4865.055 4757.459 C 4790.615 4852.459 4764.475 4974.159 4793.345 5091.359 L 5722.665 8863.659 C 5729.415 8890.959 5732.825 8919.159 5732.825 8947.359 L 5732.825 10748.359 L 6954.295 10748.359 L 6954.295 8947.359 C 6954.295 8919.159 6957.715 8890.959 6964.465 8863.659 L 7893.785 5091.359 C 7922.655 4974.159 7896.515 4852.459 7822.075 4757.459 C 7747.625 4662.459 7635.695 4607.959 7514.995 4607.959" style="fill:#2e5b9a;fill-opacity:1;fill-rule:nonzero;stroke:none" id="path166"/>
      <path d="M 6890.885 8586.559 C 6771.725 8589.259 6240.295 8408.659 5737.445 8434.459 L 4995.495 5334.259 C 4950.345 5106.159 5089.075 4885.859 5277.825 4885.859 L 7409.305 4885.859 C 7598.055 4885.859 7736.775 5106.159 7691.625 5334.259 L 6890.885 8586.559" style="fill:#9ec8ff;fill-opacity:1;fill-rule:nonzero;stroke:none" id="path168"/>
      <path d="M 6947.565 7556.659 C 6947.565 7433.659 6847.915 7334.059 6724.975 7334.059 C 6602.035 7334.059 6502.375 7433.659 6502.375 7556.659 C 6502.375 7679.559 6602.035 7779.259 6724.975 7779.259 C 6847.915 7779.259 6947.565 7679.559 6947.565 7556.659" style="fill:#ffffff;fill-opacity:1;fill-rule:nonzero;stroke:none" id="path170"/>
      <path d="M 6177.375 8686.859 C 6177.375 8632.059 6132.955 8587.659 6078.165 8587.659 C 6023.365 8587.659 5978.945 8632.059 5978.945 8686.859 C 5978.945 8741.659 6023.365 8786.059 6078.165 8786.059 C 6132.955 8786.059 6177.375 8741.659 6177.375 8686.859" style="fill:#9ec8ff;fill-opacity:1;fill-rule:nonzero;stroke:none" id="path172"/>
      <path d="M 6574.125 9702.959 C 6574.125 9646.559 6528.395 9600.759 6471.985 9600.759 C 6415.575 9600.759 6369.845 9646.559 6369.845 9702.959 C 6369.845 9759.359 6415.575 9805.059 6471.985 9805.059 C 6528.395 9805.059 6574.125 9759.359 6574.125 9702.959" style="fill:#9ec8ff;fill-opacity:1;fill-rule:nonzero;stroke:none" id="path174"/>
      <path d="M 6437.745 10260.659 C 6437.745 10142.359 6341.915 10046.559 6223.705 10046.559 C 6105.495 10046.559 6009.665 10142.359 6009.665 10260.659 C 6009.665 10378.859 6105.495 10474.659 6223.705 10474.659 C 6341.915 10474.659 6437.745 10378.859 6437.745 10260.659" style="fill:#9ec8ff;fill-opacity:1;fill-rule:nonzero;stroke:none" id="path176"/>
      <path d="M 6502.375 6051.459 C 6502.375 5941.859 6413.545 5852.959 6303.955 5852.959 C 6194.365 5852.959 6105.525 5941.859 6105.525 6051.459 C 6105.525 6161.059 6194.365 6249.859 6303.955 6249.859 C 6413.545 6249.859 6502.375 6161.059 6502.375 6051.459" style="fill:#ffffff;fill-opacity:1;fill-rule:nonzero;stroke:none" id="path178"/>
      <path d="M 6071.605 8146.859 C 6071.605 8066.559 6006.445 8001.359 5926.065 8001.359 C 5845.675 8001.359 5780.515 8066.559 5780.515 8146.859 C 5780.515 8227.259 5845.675 8292.459 5926.065 8292.459 C 6006.445 8292.459 6071.605 8227.259 6071.605 8146.859" style="fill:#ffffff;fill-opacity:1;fill-rule:nonzero;stroke:none" id="path180"/>
      <path d="M 5769.955 6854.959 C 5769.955 6807.659 5731.625 6769.359 5684.335 6769.359 C 5637.055 6769.359 5598.725 6807.659 5598.725 6854.959 C 5598.725 6902.259 5637.055 6940.559 5684.335 6940.559 C 5731.625 6940.559 5769.955 6902.259 5769.955 6854.959" style="fill:#ffffff;fill-opacity:1;fill-rule:nonzero;stroke:none" id="path182"/>
      <path d="M 5684.335 5216.359 C 5684.335 5131.259 5615.345 5062.259 5530.235 5062.259 C 5445.125 5062.259 5376.125 5131.259 5376.125 5216.359 C 5376.125 5301.459 5445.125 5370.459 5530.235 5370.459 C 5615.345 5370.459 5684.335 5301.459 5684.335 5216.359" style="fill:#ffffff;fill-opacity:1;fill-rule:nonzero;stroke:none" id="path184"/>
      <path d="M 8050.705 7872.059 L 8050.705 9197.759 L 7171.285 9197.759 L 7171.285 7872.059 C 7171.285 7849.859 7168.595 7827.759 7163.285 7806.159 L 6471.555 4998.359 C 6428.775 4824.759 6560.215 4656.959 6739.045 4656.959 L 8482.945 4656.959 C 8661.775 4656.959 8793.195 4824.759 8750.395 4998.359 L 8058.705 7806.159 C 8053.385 7827.759 8050.705 7849.859 8050.705 7872.059" style="fill:#ffffff;fill-opacity:1;fill-rule:nonzero;stroke:none" id="path186"/>
      <path d="M 7191.285 9177.759 L 7191.285 7872.059 C 7191.285 7848.259 7188.395 7824.559 7182.705 7801.359 L 6490.975 4993.559 C 6472.065 4916.859 6489.185 4837.059 6537.945 4774.859 C 6586.695 4712.659 6659.995 4676.959 6739.045 4676.959 L 8482.945 4676.959 C 8561.985 4676.959 8635.285 4712.659 8683.995 4774.859 C 8732.795 4837.059 8749.895 4916.859 8730.995 4993.559 L 8039.285 7801.359 C 8033.595 7824.559 8030.705 7848.259 8030.705 7872.059 L 8030.705 9177.759 Z M 8482.945 4636.959 L 6739.045 4636.959 C 6647.615 4636.959 6562.845 4678.259 6506.455 4750.159 C 6450.065 4822.159 6430.265 4914.359 6452.135 5003.159 L 7143.865 7810.959 C 7148.785 7830.959 7151.285 7851.559 7151.285 7872.059 L 7151.285 9217.759 L 8070.705 9217.759 L 8070.705 7872.059 C 8070.705 7851.559 8073.195 7830.959 8078.125 7810.959 L 8769.895 5003.159 C 8791.695 4914.359 8771.895 4822.159 8715.495 4750.159 C 8659.145 4678.259 8574.365 4636.959 8482.945 4636.959" style="fill:#2e5b9a;fill-opacity:1;fill-rule:nonzero;stroke:none" id="path188"/>
      <path d="M 8254.635 6440.759 C 8197.275 6382.759 7969.775 6372.659 7846.775 6382.759 C 7461.305 6414.059 7343.085 6509.759 6985.915 6528.059 L 6653.475 5127.759 C 6621.405 4965.759 6719.935 4809.259 6854.005 4809.259 L 8367.985 4809.259 C 8502.055 4809.259 8600.585 4965.759 8568.515 5127.759 L 8254.635 6440.759" style="fill:#9bd6e8;fill-opacity:1;fill-rule:nonzero;stroke:none" id="path190"/>
      <path d="M 8101.685 6727.459 C 8101.685 6635.959 8027.505 6561.859 7935.995 6561.859 C 7844.485 6561.859 7770.305 6635.959 7770.305 6727.459 C 7770.305 6819.059 7844.485 6893.159 7935.995 6893.159 C 8027.505 6893.159 8101.685 6819.059 8101.685 6727.459" style="fill:#9bd6e8;fill-opacity:1;fill-rule:nonzero;stroke:none" id="path192"/>
      <path d="M 7958.865 7334.059 C 7958.865 7293.259 7925.805 7260.159 7885.015 7260.159 C 7844.225 7260.159 7811.165 7293.259 7811.165 7334.059 C 7811.165 7374.859 7844.225 7407.859 7885.015 7407.859 C 7925.805 7407.859 7958.865 7374.859 7958.865 7334.059" style="fill:#9bd6e8;fill-opacity:1;fill-rule:nonzero;stroke:none" id="path194"/>
      <path d="M 7655.155 8510.459 C 7655.155 8468.559 7621.115 8434.459 7579.135 8434.459 C 7537.135 8434.459 7503.105 8468.559 7503.105 8510.459 C 7503.105 8552.459 7537.135 8586.559 7579.135 8586.559 C 7621.115 8586.559 7655.155 8552.459 7655.155 8510.459" style="fill:#9bd6e8;fill-opacity:1;fill-rule:nonzero;stroke:none" id="path196"/>
      <path d="M 7738.445 8134.059 C 7738.445 8046.059 7667.115 7974.759 7579.135 7974.759 C 7491.145 7974.759 7419.815 8046.059 7419.815 8134.059 C 7419.815 8222.059 7491.145 8293.359 7579.135 8293.359 C 7667.115 8293.359 7738.445 8222.059 7738.445 8134.059" style="fill:#9bd6e8;fill-opacity:1;fill-rule:nonzero;stroke:none" id="path198"/>
      <path d="M 7510.155 5491.259 C 7510.155 5409.659 7444.035 5343.559 7362.465 5343.559 C 7280.885 5343.559 7214.765 5409.659 7214.765 5491.259 C 7214.765 5572.759 7280.885 5638.959 7362.465 5638.959 C 7444.035 5638.959 7510.155 5572.759 7510.155 5491.259" style="fill:#ffffff;fill-opacity:1;fill-rule:nonzero;stroke:none" id="path200"/>
      <path d="M 7447.925 6249.859 C 7447.925 6190.059 7399.425 6141.559 7339.595 6141.559 C 7279.765 6141.559 7231.255 6190.059 7231.255 6249.859 C 7231.255 6309.659 7279.765 6358.159 7339.595 6358.159 C 7399.425 6358.159 7447.925 6309.659 7447.925 6249.859" style="fill:#ffffff;fill-opacity:1;fill-rule:nonzero;stroke:none" id="path202"/>
      <path d="M 7948.745 5427.459 C 7948.745 5392.259 7920.215 5363.759 7885.015 5363.759 C 7849.825 5363.759 7821.295 5392.259 7821.295 5427.459 C 7821.295 5462.659 7849.825 5491.259 7885.015 5491.259 C 7920.215 5491.259 7948.745 5462.659 7948.745 5427.459" style="fill:#ffffff;fill-opacity:1;fill-rule:nonzero;stroke:none" id="path204"/>
      <path d="M 7120.295 5094.959 C 7120.295 5031.559 7068.945 4980.259 7005.595 4980.259 C 6942.245 4980.259 6890.885 5031.559 6890.885 5094.959 C 6890.885 5158.259 6942.245 5209.659 7005.595 5209.659 C 7068.945 5209.659 7120.295 5158.259 7120.295 5094.959" style="fill:#ffffff;fill-opacity:1;fill-rule:nonzero;stroke:none" id="path206"/>
      <path d="M 8280.115 5057.859 C 8280.115 4962.859 8203.085 4885.859 8108.055 4885.859 C 8013.025 4885.859 7935.995 4962.859 7935.995 5057.859 C 7935.995 5152.859 8013.025 5229.959 8108.055 5229.959 C 8203.085 5229.959 8280.115 5152.859 8280.115 5057.859" style="fill:#ffffff;fill-opacity:1;fill-rule:nonzero;stroke:none" id="path208"/>
      <path d="M 22930.195 14891.159 C 22924.895 14896.559 22796.495 15023.759 22540.395 15002.259 L 22523.695 15201.559 C 22880.295 15231.459 23067.295 15037.359 23075.095 15029.059 L 22929.495 14891.959 L 22930.195 14891.159" style="fill:#ffffff;fill-opacity:1;fill-rule:nonzero;stroke:none" id="path210"/>
      <path d="M 21679.395 14080.959 L 21679.395 14080.959 C 21617.995 14080.959 21556.895 14090.759 21497.895 14111.359 C 21389.395 14149.259 21298.695 14218.859 21231.095 14315.159 L 22475.395 14894.859 C 22465.795 14816.459 22446.095 14737.159 22416.195 14659.559 C 22281.795 14309.759 21975.995 14080.959 21679.395 14080.959 M 21106.795 14812.959 C 21113.795 14905.159 21134.895 14999.059 21170.095 15090.659 C 21183.095 15124.559 21197.795 15157.259 21213.795 15188.759 L 22143.495 15616.259 C 22235.695 15572.259 22312.495 15503.159 22370.295 15412.659 C 21979.395 15226.759 21507.295 15002.559 21106.795 14812.959" style="fill:#e5bfa2;fill-opacity:1;fill-rule:nonzero;stroke:none" id="path212"/>
      <path d="M 22924.295 14751.559 C 23065.295 15007.259 23282.895 15172.259 23478.495 15172.259 C 23514.995 15172.259 23550.695 15166.559 23584.995 15154.559 C 23610.195 15145.859 23633.895 15133.859 23655.995 15118.759 L 22924.295 14751.559" style="fill:#e5bfa2;fill-opacity:1;fill-rule:nonzero;stroke:none" id="path214"/>
      <path d="M 23810.795 14816.659 C 23813.295 14833.459 23815.595 14849.959 23817.895 14866.759 C 23821.395 14853.159 23824.595 14839.359 23827.395 14825.359 L 23810.795 14816.659" style="fill:#d5e4f5;fill-opacity:1;fill-rule:nonzero;stroke:none" id="path216"/>
      <path d="M 22782.995 14281.159 C 22786.695 14339.059 22795.895 14398.759 22810.495 14458.959 L 23777.895 14973.959 C 23779.995 14969.659 23782.095 14965.359 23784.095 14960.959 C 23797.795 14931.459 23809.095 14899.959 23817.895 14866.759 C 23815.595 14849.959 23813.295 14833.459 23810.795 14816.659 L 22782.995 14281.159" style="fill:#e5bfa2;fill-opacity:1;fill-rule:nonzero;stroke:none" id="path218"/>
      <path d="M 23537.295 13921.359 C 23594.295 14039.259 23644.495 14163.259 23686.895 14292.359 L 23788.795 14351.959 C 23782.095 14331.159 23774.795 14310.359 23766.795 14289.659 C 23710.595 14143.459 23629.695 14017.359 23537.295 13921.359" style="fill:#d5e4f5;fill-opacity:1;fill-rule:nonzero;stroke:none" id="path220"/>
      <path d="M 23144.095 13721.359 C 23107.595 13721.359 23071.895 13727.159 23037.595 13739.059 C 22985.595 13757.259 22939.695 13789.159 22901.595 13833.259 L 23686.895 14292.359 C 23644.495 14163.259 23594.295 14039.259 23537.295 13921.359 C 23416.195 13795.559 23275.195 13721.359 23144.095 13721.359" style="fill:#e5bfa2;fill-opacity:1;fill-rule:nonzero;stroke:none" id="path222"/>
      <path d="M 21906.995 15669.259 C 21610.395 15669.259 21304.595 15440.459 21170.095 15090.659 C 21080.995 14858.659 21082.295 14612.459 21173.695 14415.159 C 21242.695 14266.359 21354.895 14161.259 21497.895 14111.359 C 21556.895 14090.759 21617.995 14080.959 21679.395 14080.959 C 21975.995 14080.959 22281.695 14309.759 22416.195 14659.559 C 22505.395 14891.559 22504.095 15137.759 22412.595 15335.059 C 22343.595 15483.959 22231.495 15588.959 22088.395 15638.859 C 22029.395 15659.459 21968.395 15669.259 21906.995 15669.259 M 21677.895 13981.259 C 21605.995 13981.259 21534.295 13992.759 21464.995 14016.959 C 21298.195 14075.059 21162.495 14201.559 21082.995 14373.159 C 20980.195 14594.759 20977.995 14869.459 21076.795 15126.559 C 21258.295 15598.659 21726.795 15870.859 22121.395 15733.259 C 22288.195 15675.159 22423.795 15548.659 22503.395 15377.159 C 22606.195 15155.459 22608.395 14880.859 22509.595 14623.659 C 22359.995 14234.559 22015.395 13981.259 21677.895 13981.259" style="fill:#ffffff;fill-opacity:1;fill-rule:nonzero;stroke:none" id="path224"/>
      <path d="M 23478.495 15172.259 C 23247.395 15172.259 22985.695 14941.959 22855.795 14603.959 C 22762.495 14361.359 22756.095 14110.459 22838.495 13932.659 C 22883.395 13835.759 22952.195 13768.859 23037.595 13739.059 C 23289.195 13651.259 23616.395 13898.359 23766.795 14289.659 C 23860.095 14532.259 23866.495 14783.259 23784.095 14960.959 C 23739.195 15057.859 23670.395 15124.859 23584.995 15154.559 C 23550.695 15166.559 23514.995 15172.259 23478.495 15172.259 M 23143.195 13621.459 C 23095.595 13621.459 23049.095 13629.159 23004.595 13644.659 C 22893.195 13683.559 22804.295 13768.559 22747.695 13890.659 C 22654.195 14092.459 22659.695 14372.559 22762.495 14639.859 C 22843.395 14850.359 22974.595 15029.759 23131.895 15144.859 C 23295.195 15264.359 23467.795 15301.359 23617.995 15248.959 C 23729.395 15210.159 23818.295 15125.059 23874.895 15003.059 C 23968.395 14801.259 23962.895 14521.159 23860.095 14253.759 C 23779.195 14043.259 23647.995 13863.959 23490.695 13748.859 C 23375.795 13664.759 23256.195 13621.459 23143.195 13621.459" style="fill:#ffffff;fill-opacity:1;fill-rule:nonzero;stroke:none" id="path226"/>
      <path d="M 23686.895 14292.359 C 23740.395 14455.259 23781.695 14626.459 23808.895 14804.259 C 23809.495 14808.359 23810.195 14812.559 23810.795 14816.659 L 23827.395 14825.359 C 23855.295 14684.059 23842.195 14517.659 23788.795 14351.959 L 23686.895 14292.359" style="fill:#dfebf7;fill-opacity:1;fill-rule:nonzero;stroke:none" id="path228"/>
      <path d="M 22901.595 13833.259 C 22877.195 13861.559 22855.995 13894.859 22838.495 13932.659 C 22792.895 14031.059 22774.495 14151.759 22782.995 14281.159 L 23810.795 14816.659 C 23810.195 14812.559 23809.495 14808.359 23808.895 14804.259 C 23781.695 14626.459 23740.395 14455.259 23686.895 14292.359 L 22901.595 13833.259" style="fill:#ebcfb9;fill-opacity:1;fill-rule:nonzero;stroke:none" id="path230"/>
      <path d="M 22857.995 13807.759 C 22770.195 13914.159 22725.695 14073.859 22731.895 14254.559 L 22782.995 14281.159 C 22774.495 14151.759 22792.895 14031.059 22838.495 13932.659 C 22855.995 13894.859 22877.195 13861.559 22901.595 13833.259 L 22857.995 13807.759 M 23788.795 14351.959 C 23842.195 14517.659 23855.295 14684.059 23827.395 14825.359 L 23873.195 14849.159 C 23902.395 14714.059 23896.995 14553.859 23851.895 14388.859 L 23788.795 14351.959" style="fill:#ffffff;fill-opacity:1;fill-rule:nonzero;stroke:none" id="path232"/>
      <path d="M 22810.495 14458.959 C 22822.095 14507.259 22837.295 14555.759 22855.795 14603.959 C 22875.695 14655.859 22898.795 14705.159 22924.295 14751.559 L 23655.995 15118.759 C 23705.495 15085.059 23746.795 15036.159 23777.895 14973.959 L 22810.495 14458.959" style="fill:#ebcfb9;fill-opacity:1;fill-rule:nonzero;stroke:none" id="path234"/>
      <path d="M 22752.495 14428.159 C 22765.295 14491.859 22784.095 14556.959 22809.095 14621.959 C 22821.195 14653.459 22834.395 14683.959 22848.595 14713.559 L 22924.295 14751.559 C 22898.795 14705.159 22875.695 14655.859 22855.795 14603.959 C 22837.295 14555.759 22822.095 14507.259 22810.495 14458.959 L 22752.495 14428.159 M 23777.895 14973.959 C 23746.795 15036.159 23705.495 15085.059 23655.995 15118.759 L 23705.895 15143.859 C 23753.295 15106.159 23792.295 15056.459 23821.995 14997.359 L 23777.895 14973.959" style="fill:#ffffff;fill-opacity:1;fill-rule:nonzero;stroke:none" id="path236"/>
      <path d="M 21231.095 14315.159 C 21209.495 14345.859 21190.395 14379.259 21173.695 14415.159 C 21118.395 14534.559 21096.095 14671.759 21106.795 14812.959 C 21507.295 15002.559 21979.395 15226.759 22370.295 15412.659 C 22385.795 15388.259 22399.995 15362.359 22412.595 15335.059 C 22473.495 15203.759 22494.395 15050.859 22475.395 14894.859 L 21231.095 14315.159" style="fill:#ebcfb9;fill-opacity:1;fill-rule:nonzero;stroke:none" id="path238"/>
      <path d="M 21185.395 14293.959 C 21093.395 14428.359 21046.895 14602.459 21055.495 14788.659 C 21072.395 14796.659 21089.595 14804.759 21106.795 14812.959 C 21096.095 14671.759 21118.395 14534.559 21173.695 14415.159 C 21190.395 14379.259 21209.495 14345.859 21231.095 14315.159 L 21185.395 14293.959 M 22475.395 14894.859 C 22494.395 15050.859 22473.495 15203.759 22412.595 15335.059 C 22399.995 15362.359 22385.795 15388.259 22370.295 15412.659 C 22385.495 15419.859 22400.495 15426.959 22415.495 15434.059 C 22504.395 15292.459 22545.195 15111.159 22527.995 14919.459 L 22475.395 14894.859" style="fill:#ffffff;fill-opacity:1;fill-rule:nonzero;stroke:none" id="path240"/>
      <path d="M 21213.795 15188.759 C 21363.695 15482.659 21639.095 15669.259 21906.995 15669.259 C 21968.395 15669.259 22029.395 15659.459 22088.395 15638.859 C 22107.395 15632.259 22125.695 15624.759 22143.495 15616.259 L 21213.795 15188.759" style="fill:#ebcfb9;fill-opacity:1;fill-rule:nonzero;stroke:none" id="path242"/>
      <path d="M 21143.095 15156.259 C 21293.995 15499.059 21603.895 15719.259 21907.095 15719.259 C 21973.995 15719.259 22040.495 15708.559 22104.895 15686.059 C 22138.595 15674.359 22170.595 15659.659 22200.795 15642.559 L 22143.495 15616.259 C 22125.695 15624.759 22107.395 15632.259 22088.395 15638.859 C 22029.395 15659.459 21968.395 15669.259 21906.995 15669.259 C 21639.095 15669.259 21363.695 15482.659 21213.795 15188.759 L 21143.095 15156.259" style="fill:#ffffff;fill-opacity:1;fill-rule:nonzero;stroke:none" id="path244"/>
      <path d="M 20357.795 14986.459 C 20023.595 14831.459 20167.895 15407.059 20161.695 15890.159 C 20157.495 16210.159 19581.495 17948.559 20430.795 18335.659 C 21280.195 18722.759 22038.995 18452.759 22532.095 18653.459 C 23025.095 18854.259 24425.395 18450.359 24568.795 17776.459 C 24682.495 17241.959 24960.195 16873.659 25151.595 16529.359 C 25342.995 16185.059 24661.695 15592.659 24109.995 15554.159 C 23287.195 15496.859 22189.295 17059.659 21593.995 16930.559 C 20998.695 16801.559 20634.595 15114.759 20357.795 14986.459" style="fill:#303c60;fill-opacity:1;fill-rule:nonzero;stroke:none" id="path246"/>
      <path d="M 19914.895 16421.859 L 21330.795 15460.559 L 21160.595 15236.459 L 19854.395 16342.259 L 19914.895 16421.859" style="fill:#ffffff;fill-opacity:1;fill-rule:nonzero;stroke:none" id="path248"/>
      <path d="M 20167.895 15755.959 C 20167.895 15294.259 19959.295 14857.359 19664.095 14857.359 C 19368.795 14857.359 19129.495 15231.659 19129.495 15693.359 C 19129.495 16155.059 19368.795 16529.359 19664.095 16529.359 C 19959.295 16529.359 20167.895 16217.759 20167.895 15755.959" style="fill:#f09959;fill-opacity:1;fill-rule:nonzero;stroke:none" id="path250"/>
      <path d="M 29795.195 4656.959 L 28907.195 4656.959 C 28467.595 4701.259 28111.495 4789.759 28094.095 4822.359 C 28067.095 4873.059 28478.195 6918.659 28478.195 6918.659 C 29309.795 6727.459 29749.495 6237.159 29921.495 5717.659 C 30082.495 5231.759 30339.195 4760.559 29795.195 4656.959" style="fill:#cdeaf3;fill-opacity:1;fill-rule:nonzero;stroke:none" id="path252"/>
      <path d="M 29399.095 4630.859 C 29232.195 4630.859 29064.395 4641.059 28907.195 4656.959 L 29795.195 4656.959 C 29757.595 4649.759 29715.995 4644.359 29670.395 4640.859 C 29581.595 4633.959 29490.495 4630.859 29399.095 4630.859" style="fill:#6599c1;fill-opacity:1;fill-rule:nonzero;stroke:none" id="path254"/>
      <path d="M 28946.495 6794.459 C 29864.195 6397.759 29748.895 5008.659 29468.995 4892.159 C 28162.695 4348.459 27504.495 4707.659 26958.295 4987.759 C 26411.995 5267.859 26528.095 5792.259 26528.095 5792.259 C 26528.095 5792.259 26553.395 6075.659 27417.095 6438.559 C 28047.995 6703.659 28946.495 6794.459 28946.495 6794.459" style="fill:#9ec8ff;fill-opacity:1;fill-rule:nonzero;stroke:none" id="path256"/>
      <path d="M 29273.295 6574.559 C 28578.395 7265.259 27618.695 7178.559 27187.695 7009.159 C 26756.695 6839.759 26028.495 6548.059 26528.095 6484.759 C 27027.695 6421.459 27684.795 6512.859 27914.195 6438.559 C 28143.595 6364.259 29273.295 6574.559 29273.295 6574.559" style="fill:#9ec8ff;fill-opacity:1;fill-rule:nonzero;stroke:none" id="path258"/>
      <path d="M 11567.395 16133.359 L 12536.395 16133.359 L 13020.895 16972.459 L 12536.395 17811.659 L 11567.395 17811.659 L 11082.995 16972.459 Z M 12565.295 16033.359 L 11538.595 16033.359 C 11520.695 16033.359 11504.195 16042.859 11495.295 16058.359 L 10981.895 16947.459 C 10972.995 16962.959 10972.995 16982.059 10981.895 16997.459 L 11495.295 17886.659 C 11504.195 17902.059 11520.695 17911.659 11538.595 17911.659 L 12565.295 17911.659 C 12583.095 17911.659 12599.595 17902.059 12608.595 17886.659 L 13121.895 16997.459 C 13130.795 16982.059 13130.795 16962.959 13121.895 16947.459 L 12608.595 16058.359 C 12599.595 16042.859 12583.095 16033.359 12565.295 16033.359" style="fill:#ffffff;fill-opacity:1;fill-rule:nonzero;stroke:none" id="path260"/>
      <path d="M 12839.095 16947.459 C 12830.495 16947.459 12822.095 16951.959 12817.495 16959.959 L 12423.895 17641.759 C 12416.995 17653.659 12421.095 17668.959 12432.995 17675.859 C 12444.995 17682.759 12460.295 17678.659 12467.195 17666.759 L 12860.795 16984.959 C 12867.695 16973.059 12863.595 16957.759 12851.595 16950.859 C 12847.695 16948.559 12843.395 16947.459 12839.095 16947.459" style="fill:#ffffff;fill-opacity:1;fill-rule:nonzero;stroke:none" id="path262"/>
      <path d="M 11264.695 16947.459 C 11260.495 16947.459 11256.195 16948.559 11252.195 16950.859 C 11240.295 16957.759 11236.195 16973.059 11243.095 16984.959 L 11636.695 17666.759 C 11643.595 17678.659 11658.895 17682.759 11670.795 17675.859 C 11682.795 17668.959 11686.895 17653.659 11679.995 17641.759 L 11286.395 16959.959 C 11281.795 16951.959 11273.295 16947.459 11264.695 16947.459" style="fill:#ffffff;fill-opacity:1;fill-rule:nonzero;stroke:none" id="path264"/>
      <path d="M 12445.495 16265.759 L 11658.295 16265.759 C 11644.495 16265.759 11633.295 16276.959 11633.295 16290.759 C 11633.295 16304.559 11644.495 16315.759 11658.295 16315.759 L 12445.495 16315.759 C 12459.295 16315.759 12470.495 16304.559 12470.495 16290.759 C 12470.495 16276.959 12459.295 16265.759 12445.495 16265.759" style="fill:#ffffff;fill-opacity:1;fill-rule:nonzero;stroke:none" id="path266"/>
      <path d="M 14628.095 16033.359 C 14610.795 16033.359 14593.995 16042.359 14584.795 16058.359 L 14071.395 16947.459 C 14062.495 16962.959 14062.495 16982.059 14071.395 16997.459 L 14584.795 17886.659 C 14593.695 17902.059 14610.195 17911.659 14628.095 17911.659 L 15654.695 17911.659 C 15682.395 17911.659 15704.695 17889.259 15704.695 17861.659 C 15704.695 17834.059 15682.395 17811.659 15654.695 17811.659 L 14656.895 17811.659 L 14172.495 16972.459 L 14671.395 16108.359 C 14685.195 16084.459 14676.995 16053.859 14653.095 16040.059 C 14645.195 16035.559 14636.595 16033.359 14628.095 16033.359" style="fill:#ffffff;fill-opacity:1;fill-rule:nonzero;stroke:none" id="path268"/>
      <path d="M 11010.295 15144.259 C 11001.795 15144.259 10993.295 15146.359 10985.395 15150.959 C 10961.495 15164.759 10953.295 15195.359 10967.095 15219.259 L 11480.395 16108.359 C 11494.195 16132.259 11524.795 16140.459 11548.695 16126.659 C 11572.595 16112.859 11580.795 16082.259 11566.995 16058.359 L 11053.695 15169.259 C 11044.395 15153.159 11027.595 15144.259 11010.295 15144.259" style="fill:#ffffff;fill-opacity:1;fill-rule:nonzero;stroke:none" id="path270"/>
      <path d="M 15654.695 17811.659 C 15646.195 17811.659 15637.595 17813.759 15629.695 17818.359 C 15605.795 17832.159 15597.595 17862.759 15611.395 17886.659 L 16124.795 18775.759 C 16138.595 18799.659 16169.095 18807.859 16193.095 18794.059 C 16216.995 18780.259 16225.195 18749.659 16211.395 18725.759 L 15697.995 17836.659 C 15688.795 17820.559 15671.995 17811.659 15654.695 17811.659" style="fill:#ffffff;fill-opacity:1;fill-rule:nonzero;stroke:none" id="path272"/>
      <path d="M 14114.695 16922.459 L 13087.995 16922.459 C 13070.195 16922.459 13053.695 16932.059 13044.695 16947.459 L 12531.395 17836.659 C 12522.495 17852.059 12522.495 17871.159 12531.395 17886.659 L 13044.695 18775.759 C 13058.495 18799.659 13089.095 18807.859 13112.995 18794.059 C 13136.995 18780.259 13145.195 18749.659 13131.295 18725.759 L 12632.395 17861.659 L 13116.895 17022.459 L 14114.695 17022.459 C 14142.295 17022.459 14164.695 17000.159 14164.695 16972.459 C 14164.695 16944.859 14142.295 16922.459 14114.695 16922.459" style="fill:#ffffff;fill-opacity:1;fill-rule:nonzero;stroke:none" id="path274"/>
      <path d="M 17926.595 19016.259 L 16481.695 19016.259 C 16408.495 19016.259 16348.595 19076.159 16348.595 19149.359 C 16348.595 19222.559 16408.495 19282.459 16481.695 19282.459 L 17926.595 19282.459 C 17999.795 19282.459 18059.595 19222.559 18059.595 19149.359 C 18059.595 19076.159 17999.795 19016.259 17926.595 19016.259" style="fill:#ffffff;fill-opacity:1;fill-rule:nonzero;stroke:none" id="path276"/>
      <path d="M 17926.595 19415.459 L 16481.695 19415.459 C 16408.495 19415.459 16348.595 19475.359 16348.595 19548.559 C 16348.595 19621.759 16408.495 19681.659 16481.695 19681.659 L 17926.595 19681.659 C 17999.795 19681.659 18059.595 19621.759 18059.595 19548.559 C 18059.595 19475.359 17999.795 19415.459 17926.595 19415.459" style="fill:#ffffff;fill-opacity:1;fill-rule:nonzero;stroke:none" id="path278"/>
      <path d="M 16764.295 17571.359 L 16141.995 17571.359 C 16062.195 17571.359 15996.895 17636.659 15996.895 17716.459 C 15996.895 17796.359 16062.195 17861.659 16141.995 17861.659 L 16764.295 17861.659 C 16844.095 17861.659 16909.395 17796.359 16909.395 17716.459 C 16909.395 17636.659 16844.095 17571.359 16764.295 17571.359" style="fill:#ffffff;fill-opacity:1;fill-rule:nonzero;stroke:none" id="path280"/>
      <path d="M 13896.095 18921.259 L 13354.195 18921.259 C 13260.095 18921.259 13183.095 18998.159 13183.095 19092.359 L 13183.095 19111.359 C 13183.095 19205.459 13260.095 19282.459 13354.195 19282.459 L 13896.095 19282.459 C 13990.195 19282.459 14067.195 19205.459 14067.195 19111.359 L 14067.195 19092.359 C 14067.195 18998.159 13990.195 18921.259 13896.095 18921.259" style="fill:#ffffff;fill-opacity:1;fill-rule:nonzero;stroke:none" id="path282"/>
      <path d="M 16053.895 15508.559 L 14989.195 15508.559 C 14895.095 15508.559 14818.095 15585.559 14818.095 15679.659 L 14818.095 15755.759 C 14818.095 15849.859 14895.095 15926.859 14989.195 15926.859 L 16053.895 15926.859 C 16147.995 15926.859 16224.995 15849.859 16224.995 15755.759 L 16224.995 15679.659 C 16224.995 15585.559 16147.995 15508.559 16053.895 15508.559" style="fill:#ffffff;fill-opacity:1;fill-rule:nonzero;stroke:none" id="path284"/>
      <path d="M 10749.595 14729.159 L 10141.195 14729.159 C 10047.095 14729.159 9970.095 14806.159 9970.095 14900.259 L 9970.095 14909.759 C 9970.095 15003.859 10047.095 15080.859 10141.195 15080.859 L 10749.595 15080.859 C 10843.695 15080.859 10920.695 15003.859 10920.695 14909.759 L 10920.695 14900.259 C 10920.695 14806.159 10843.695 14729.159 10749.595 14729.159" style="fill:#ffffff;fill-opacity:1;fill-rule:nonzero;stroke:none" id="path286"/>
      <path d="M 29296.895 14785.159 L 30050.595 14785.159 L 30427.495 15437.859 L 30050.595 16090.659 L 29296.895 16090.659 L 28920.095 15437.859 Z M 30079.495 14685.159 L 29268.095 14685.159 C 29250.195 14685.159 29233.695 14694.659 29224.795 14710.159 L 28818.995 15412.859 C 28810.095 15428.359 28810.095 15447.459 28818.995 15462.859 L 29224.795 16165.659 C 29233.695 16181.059 29250.195 16190.659 29268.095 16190.659 L 30079.495 16190.659 C 30097.395 16190.659 30113.895 16181.059 30122.795 16165.659 L 30528.495 15462.859 C 30537.495 15447.459 30537.495 15428.359 30528.495 15412.859 L 30122.795 14710.159 C 30113.895 14694.659 30097.395 14685.159 30079.495 14685.159" style="fill:#ffffff;fill-opacity:1;fill-rule:nonzero;stroke:none" id="path288"/>
      <path d="M 30543.995 14065.159 L 31297.795 14065.159 L 31674.595 14717.859 L 31297.795 15370.559 L 30543.995 15370.559 L 30167.195 14717.859 Z M 31326.595 13965.159 L 30515.195 13965.159 C 30497.295 13965.159 30480.795 13974.659 30471.895 13990.159 L 30066.195 14692.859 C 30057.195 14708.359 30057.195 14727.359 30066.195 14742.859 L 30471.895 15445.559 C 30480.795 15461.059 30497.295 15470.559 30515.195 15470.559 L 31326.595 15470.559 C 31344.495 15470.559 31360.995 15461.059 31369.895 15445.559 L 31775.595 14742.859 C 31784.595 14727.359 31784.595 14708.359 31775.595 14692.859 L 31369.895 13990.159 C 31360.995 13974.659 31344.495 13965.159 31326.595 13965.159" style="fill:#ffffff;fill-opacity:1;fill-rule:nonzero;stroke:none" id="path290"/>
      <path d="M 28832.295 13965.159 C 28823.795 13965.159 28815.195 13967.259 28807.295 13971.859 C 28783.395 13985.659 28775.195 14016.259 28788.995 14040.159 L 29194.695 14742.859 C 29208.495 14766.759 29239.095 14774.959 29262.995 14761.159 C 29286.895 14747.359 29295.095 14716.759 29281.295 14692.859 L 28875.595 13990.159 C 28866.395 13974.159 28849.495 13965.159 28832.295 13965.159" style="fill:#ffffff;fill-opacity:1;fill-rule:nonzero;stroke:none" id="path292"/>
      <path d="M 32956.195 13972.759 C 32938.895 13972.759 32922.095 13981.759 32912.795 13997.759 L 32507.095 14700.559 C 32493.295 14724.459 32501.495 14754.959 32525.395 14768.859 C 32549.295 14782.659 32579.895 14774.459 32593.695 14750.459 L 32999.395 14047.759 C 33013.195 14023.859 33005.095 13993.259 32981.095 13979.459 C 32973.295 13974.959 32964.695 13972.759 32956.195 13972.759" style="fill:#ffffff;fill-opacity:1;fill-rule:nonzero;stroke:none" id="path294"/>
      <path d="M 28832.295 15370.559 L 28020.895 15370.559 C 27993.295 15370.559 27970.895 15392.959 27970.895 15420.559 C 27970.895 15448.259 27993.295 15470.559 28020.895 15470.559 L 28832.295 15470.559 C 28859.895 15470.559 28882.295 15448.259 28882.295 15420.559 C 28882.295 15392.959 28859.895 15370.559 28832.295 15370.559" style="fill:#ffffff;fill-opacity:1;fill-rule:nonzero;stroke:none" id="path296"/>
      <path d="M 32543.795 14685.159 L 31732.295 14685.159 C 31714.495 14685.159 31697.995 14694.659 31688.995 14710.159 L 31283.295 15412.859 C 31274.395 15428.359 31274.395 15447.459 31283.295 15462.859 L 31688.995 16165.659 C 31702.795 16189.559 31733.395 16197.759 31757.295 16183.959 C 31781.295 16170.159 31789.395 16139.559 31775.595 16115.659 L 31384.395 15437.859 L 31761.195 14785.159 L 32543.795 14785.159 C 32571.395 14785.159 32593.795 14762.759 32593.795 14735.159 C 32593.795 14707.559 32571.395 14685.159 32543.795 14685.159" style="fill:#ffffff;fill-opacity:1;fill-rule:nonzero;stroke:none" id="path298"/>
      <path d="M 31530.195 14680.459 C 31521.595 14680.459 31513.195 14684.959 31508.595 14692.959 L 31181.495 15259.559 C 31174.495 15271.459 31178.595 15286.759 31190.595 15293.659 C 31202.495 15300.559 31217.795 15296.559 31224.795 15284.559 L 31551.895 14717.959 C 31558.795 14706.059 31554.695 14690.759 31542.695 14683.859 C 31538.795 14681.559 31534.495 14680.459 31530.195 14680.459" style="fill:#ffffff;fill-opacity:1;fill-rule:nonzero;stroke:none" id="path300"/>
      <path d="M 29362.295 14858.759 C 29353.695 14858.759 29345.295 14863.259 29340.595 14871.359 L 29013.495 15437.859 C 29006.595 15449.859 29010.695 15465.159 29022.695 15472.059 C 29034.595 15478.959 29049.895 15474.859 29056.795 15462.859 L 29383.895 14896.359 C 29390.795 14884.359 29386.695 14869.059 29374.795 14862.159 C 29370.795 14859.859 29366.495 14858.759 29362.295 14858.759" style="fill:#ffffff;fill-opacity:1;fill-rule:nonzero;stroke:none" id="path302"/>
      <path d="M 30289.795 15412.859 C 30281.095 15412.859 30272.695 15417.359 30268.095 15425.359 L 29940.995 15991.959 C 29934.095 16003.959 29938.195 16019.159 29950.095 16026.159 C 29962.095 16032.959 29977.395 16028.959 29984.295 16016.959 L 30311.395 15450.359 C 30318.295 15438.459 30314.195 15423.159 30302.195 15416.259 C 30298.295 15413.959 30293.995 15412.859 30289.795 15412.859" style="fill:#ffffff;fill-opacity:1;fill-rule:nonzero;stroke:none" id="path304"/>
      <path d="M 33286.695 14847.159 L 32625.595 14847.159 C 32551.195 14847.159 32490.295 14907.959 32490.295 14982.359 L 32490.295 14995.159 C 32490.295 15069.559 32551.195 15130.459 32625.595 15130.459 L 33286.695 15130.459 C 33361.095 15130.459 33421.895 15069.559 33421.895 14995.159 L 33421.895 14982.359 C 33421.895 14907.959 33361.095 14847.159 33286.695 14847.159" style="fill:#ffffff;fill-opacity:1;fill-rule:nonzero;stroke:none" id="path306"/>
      <path d="M 32002.795 16309.659 L 31461.895 16309.659 C 31387.495 16309.659 31326.595 16370.559 31326.595 16444.959 L 31326.595 16568.859 C 31326.595 16643.259 31387.495 16704.159 31461.895 16704.159 L 32002.795 16704.159 C 32077.195 16704.159 32138.095 16643.259 32138.095 16568.859 L 32138.095 16444.959 C 32138.095 16370.559 32077.195 16309.659 32002.795 16309.659" style="fill:#ffffff;fill-opacity:1;fill-rule:nonzero;stroke:none" id="path308"/>
      <path d="M 33680.095 13590.959 L 32819.795 13590.959 C 32745.395 13590.959 32684.595 13651.759 32684.595 13726.159 L 32684.595 13759.959 C 32684.595 13834.359 32745.395 13895.159 32819.795 13895.159 L 33680.095 13895.159 C 33754.495 13895.159 33815.295 13834.359 33815.295 13759.959 L 33815.295 13726.159 C 33815.295 13651.759 33754.495 13590.959 33680.095 13590.959" style="fill:#ffffff;fill-opacity:1;fill-rule:nonzero;stroke:none" id="path310"/>
      <path d="M 28832.295 13599.359 L 28020.895 13599.359 C 27946.495 13599.359 27885.695 13660.259 27885.695 13734.559 L 27885.695 13751.559 C 27885.695 13825.859 27946.495 13886.759 28020.895 13886.759 L 28832.295 13886.759 C 28906.695 13886.759 28967.595 13825.859 28967.595 13751.559 L 28967.595 13734.559 C 28967.595 13660.259 28906.695 13599.359 28832.295 13599.359" style="fill:#ffffff;fill-opacity:1;fill-rule:nonzero;stroke:none" id="path312"/>
      <path d="M 27750.495 15272.059 L 27074.295 15272.059 C 26999.895 15272.059 26939.095 15332.959 26939.095 15407.259 L 26939.095 15475.759 C 26939.095 15550.159 26999.895 15610.959 27074.295 15610.959 L 27750.495 15610.959 C 27824.795 15610.959 27885.695 15550.159 27885.695 15475.759 L 27885.695 15407.259 C 27885.695 15332.959 27824.795 15272.059 27750.495 15272.059" style="fill:#ffffff;fill-opacity:1;fill-rule:nonzero;stroke:none" id="path314"/>
      <path d="M 4389.465 15194.259 C 4389.465 14935.659 4179.835 14726.059 3921.245 14726.059 C 3662.655 14726.059 3453.025 14935.659 3453.025 15194.259 C 3453.025 15452.859 3662.655 15662.459 3921.245 15662.459 C 4179.835 15662.459 4389.465 15452.859 4389.465 15194.259" style="fill:#ffffff;fill-opacity:1;fill-rule:nonzero;stroke:none" id="path316"/>
      <path d="M 6697.485 14221.659 L 3471.975 14221.659 C 3424.655 14221.659 3385.945 14260.459 3385.945 14307.759 C 3385.945 14355.059 3424.655 14393.759 3471.975 14393.759 L 6697.485 14393.759 C 6744.805 14393.759 6783.515 14355.059 6783.515 14307.759 C 6783.515 14260.459 6744.805 14221.659 6697.485 14221.659" style="fill:#ffffff;fill-opacity:1;fill-rule:nonzero;stroke:none" id="path318"/>
      <path d="M 6697.485 13858.959 L 3471.975 13858.959 C 3424.655 13858.959 3385.945 13897.659 3385.945 13944.959 C 3385.945 13992.259 3424.655 14030.959 3471.975 14030.959 L 6697.485 14030.959 C 6744.805 14030.959 6783.515 13992.259 6783.515 13944.959 C 6783.515 13897.659 6744.805 13858.959 6697.485 13858.959" style="fill:#ffffff;fill-opacity:1;fill-rule:nonzero;stroke:none" id="path320"/>
      <path d="M 9752.195 11408.359 C 9752.195 10954.359 9384.095 10586.359 8930.095 10586.359 C 8476.105 10586.359 8108.055 10954.359 8108.055 11408.359 C 8108.055 11862.359 8476.105 12230.459 8930.095 12230.459 C 9384.095 12230.459 9752.195 11862.359 9752.195 11408.359" style="fill:#ffffff;fill-opacity:1;fill-rule:nonzero;stroke:none" id="path322"/>
      <path d="M 8930.095 11951.759 C 8630.505 11951.759 8386.755 11707.959 8386.755 11408.359 C 8386.755 11108.759 8630.505 10865.059 8930.095 10865.059 C 9229.695 10865.059 9473.495 11108.759 9473.495 11408.359 C 9473.495 11707.959 9229.695 11951.759 8930.095 11951.759 Z M 8930.095 10815.059 C 8602.945 10815.059 8336.755 11081.159 8336.755 11408.359 C 8336.755 11735.559 8602.945 12001.759 8930.095 12001.759 C 9257.295 12001.759 9523.495 11735.559 9523.495 11408.359 C 9523.495 11081.159 9257.295 10815.059 8930.095 10815.059" style="fill:#9ec8ff;fill-opacity:1;fill-rule:nonzero;stroke:none" id="path324"/>
      <path d="M 9837.895 11830.859 C 9819.895 11830.859 9802.395 11840.659 9793.495 11857.759 C 9780.795 11882.259 9790.295 11912.459 9814.795 11925.259 L 12768.895 13463.059 C 12793.295 13475.859 12823.495 13466.359 12836.295 13441.859 C 12848.995 13417.359 12839.495 13387.159 12814.995 13374.459 L 9860.995 11836.559 C 9853.595 11832.659 9845.695 11830.859 9837.895 11830.859" style="fill:#ffffff;fill-opacity:1;fill-rule:nonzero;stroke:none" id="path326"/>
      <path d="M 11605.195 11358.359 L 11602.995 11358.459 L 9967.995 11429.459 C 9940.395 11430.659 9918.995 11453.959 9920.195 11481.559 C 9921.395 11509.159 9944.795 11530.259 9972.295 11529.359 L 11607.295 11458.359 C 11634.895 11457.159 11656.295 11433.759 11655.095 11406.259 C 11653.895 11379.359 11631.795 11358.359 11605.195 11358.359" style="fill:#ffffff;fill-opacity:1;fill-rule:nonzero;stroke:none" id="path328"/>
      <path d="M 13621.095 13671.659 C 13621.095 13474.359 13461.095 13314.359 13263.695 13314.359 C 13066.395 13314.359 12906.395 13474.359 12906.395 13671.659 C 12906.395 13869.059 13066.395 14029.059 13263.695 14029.059 C 13461.095 14029.059 13621.095 13869.059 13621.095 13671.659" style="fill:#ffffff;fill-opacity:1;fill-rule:nonzero;stroke:none" id="path330"/>
      <path d="M 12590.795 11408.359 C 12590.795 11197.259 12419.595 11026.059 12208.495 11026.059 C 11997.295 11026.059 11826.095 11197.259 11826.095 11408.359 C 11826.095 11619.559 11997.295 11790.759 12208.495 11790.759 C 12419.595 11790.759 12590.795 11619.559 12590.795 11408.359" style="fill:#ffffff;fill-opacity:1;fill-rule:nonzero;stroke:none" id="path332"/>
      <path d="M 27013.495 12363.159 C 26977.895 12363.159 26948.795 12334.159 26948.795 12298.459 L 26948.795 11682.559 C 26948.795 11646.859 26977.895 11617.859 27013.495 11617.859 L 27629.495 11617.859 C 27665.195 11617.859 27694.195 11646.859 27694.195 11682.559 L 27694.195 12298.459 C 27694.195 12334.159 27665.195 12363.159 27629.495 12363.159 Z M 27629.495 11517.859 L 27013.495 11517.859 C 26922.695 11517.859 26848.795 11591.659 26848.795 11682.559 L 26848.795 12298.459 C 26848.795 12389.259 26922.695 12463.159 27013.495 12463.159 L 27629.495 12463.159 C 27720.295 12463.159 27794.195 12389.259 27794.195 12298.459 L 27794.195 11682.559 C 27794.195 11591.659 27720.295 11517.859 27629.495 11517.859" style="fill:#ffffff;fill-opacity:1;fill-rule:nonzero;stroke:none" id="path334"/>
      <path d="M 27013.495 10985.259 C 26977.895 10985.259 26948.795 10956.259 26948.795 10920.559 L 26948.795 10304.659 C 26948.795 10268.959 26977.895 10239.959 27013.495 10239.959 L 27629.495 10239.959 C 27665.195 10239.959 27694.195 10268.959 27694.195 10304.659 L 27694.195 10920.559 C 27694.195 10956.259 27665.195 10985.259 27629.495 10985.259 Z M 27629.495 10139.959 L 27013.495 10139.959 C 26922.695 10139.959 26848.795 10213.759 26848.795 10304.659 L 26848.795 10920.559 C 26848.795 11011.359 26922.695 11085.259 27013.495 11085.259 L 27629.495 11085.259 C 27720.295 11085.259 27794.195 11011.359 27794.195 10920.559 L 27794.195 10304.659 C 27794.195 10213.759 27720.295 10139.959 27629.495 10139.959" style="fill:#ffffff;fill-opacity:1;fill-rule:nonzero;stroke:none" id="path336"/>
      <path d="M 27321.495 11762.859 C 27320.595 11762.859 27319.695 11762.859 27318.795 11762.959 C 27304.595 11763.759 27291.395 11770.459 27282.495 11781.559 L 27014.895 12114.859 C 26997.595 12136.359 27000.995 12167.859 27022.595 12185.159 C 27044.095 12202.459 27075.595 12198.959 27092.795 12177.459 L 27325.595 11887.659 L 27840.595 12402.659 C 27860.095 12422.159 27891.795 12422.159 27911.295 12402.659 C 27930.795 12383.059 27930.795 12351.459 27911.295 12331.959 L 27356.895 11777.459 C 27347.495 11768.059 27334.695 11762.859 27321.495 11762.859" style="fill:#f39892;fill-opacity:1;fill-rule:nonzero;stroke:none" id="path338"/>
      <path d="M 27321.495 10418.559 C 27320.595 10418.559 27319.695 10418.559 27318.795 10418.559 C 27304.595 10419.359 27291.395 10426.159 27282.495 10437.259 L 27014.895 10770.559 C 26997.595 10792.059 27000.995 10823.559 27022.595 10840.859 C 27044.095 10858.159 27075.595 10854.659 27092.795 10833.159 L 27325.595 10543.259 L 27840.595 11058.259 C 27860.095 11077.859 27891.795 11077.859 27911.295 11058.259 C 27930.795 11038.759 27930.795 11007.159 27911.295 10987.559 L 27356.895 10433.159 C 27347.495 10423.759 27334.695 10418.559 27321.495 10418.559" style="fill:#f39892;fill-opacity:1;fill-rule:nonzero;stroke:none" id="path340"/>
      <path d="M 30204.595 11919.859 L 28511.795 11919.859 C 28464.895 11919.859 28426.595 11958.159 28426.595 12004.959 C 28426.595 12051.759 28464.895 12090.059 28511.795 12090.059 L 30204.595 12090.059 C 30251.395 12090.059 30289.695 12051.759 30289.695 12004.959 C 30289.695 11958.159 30251.395 11919.859 30204.595 11919.859" style="fill:#ffffff;fill-opacity:1;fill-rule:nonzero;stroke:none" id="path342"/>
      <path d="M 30204.595 11588.359 L 28511.795 11588.359 C 28464.895 11588.359 28426.595 11626.659 28426.595 11673.459 C 28426.595 11720.259 28464.895 11758.559 28511.795 11758.559 L 30204.595 11758.559 C 30251.395 11758.559 30289.695 11720.259 30289.695 11673.459 C 30289.695 11626.659 30251.395 11588.359 30204.595 11588.359" style="fill:#ffffff;fill-opacity:1;fill-rule:nonzero;stroke:none" id="path344"/>
      <path d="M 30204.595 10527.459 L 28511.795 10527.459 C 28464.895 10527.459 28426.595 10565.759 28426.595 10612.559 C 28426.595 10659.359 28464.895 10697.659 28511.795 10697.659 L 30204.595 10697.659 C 30251.395 10697.659 30289.695 10659.359 30289.695 10612.559 C 30289.695 10565.759 30251.395 10527.459 30204.595 10527.459" style="fill:#ffffff;fill-opacity:1;fill-rule:nonzero;stroke:none" id="path346"/>
      <path d="M 29540.095 10198.259 L 28511.795 10198.259 C 28464.895 10198.259 28426.595 10236.659 28426.595 10283.459 C 28426.595 10330.259 28464.895 10368.559 28511.795 10368.559 L 29540.095 10368.559 C 29586.895 10368.559 29625.195 10330.259 29625.195 10283.459 C 29625.195 10236.659 29586.895 10198.259 29540.095 10198.259" style="fill:#ffffff;fill-opacity:1;fill-rule:nonzero;stroke:none" id="path348"/>
      <path d="M 32888.795 20710.159 L 32458.695 20710.159 C 32395.595 20710.159 32343.995 20761.759 32343.995 20824.859 L 32343.995 21254.959 C 32343.995 21318.059 32395.595 21369.659 32458.695 21369.659 L 32888.795 21369.659 C 32951.895 21369.659 33003.495 21318.059 33003.495 21254.959 L 33003.495 20824.859 C 33003.495 20761.759 32951.895 20710.159 32888.795 20710.159" style="fill:#cee3ff;fill-opacity:1;fill-rule:nonzero;stroke:none" id="path350"/>
      <path d="M 34211.595 20710.159 L 33781.495 20710.159 C 33718.395 20710.159 33666.795 20761.759 33666.795 20824.859 L 33666.795 21254.959 C 33666.795 21318.059 33718.395 21369.659 33781.495 21369.659 L 34211.595 21369.659 C 34274.695 21369.659 34326.295 21318.059 34326.295 21254.959 L 34326.295 20824.859 C 34326.295 20761.759 34274.695 20710.159 34211.595 20710.159" style="fill:#cee3ff;fill-opacity:1;fill-rule:nonzero;stroke:none" id="path352"/>
      <path d="M 35632.395 20710.159 L 35202.295 20710.159 C 35139.195 20710.159 35087.495 20761.759 35087.495 20824.859 L 35087.495 21254.959 C 35087.495 21318.059 35139.195 21369.659 35202.295 21369.659 L 35632.395 21369.659 C 35695.495 21369.659 35747.095 21318.059 35747.095 21254.959 L 35747.095 20824.859 C 35747.095 20761.759 35695.495 20710.159 35632.395 20710.159" style="fill:#9ec8ff;fill-opacity:1;fill-rule:nonzero;stroke:none" id="path354"/>
      <path d="M 5524.965 18315.059 L 4064.975 18315.059 C 4017.655 18315.059 3978.945 18353.859 3978.945 18401.159 C 3978.945 18448.459 4017.655 18487.159 4064.975 18487.159 L 5524.965 18487.159 C 5572.285 18487.159 5610.995 18448.459 5610.995 18401.159 C 5610.995 18353.859 5572.285 18315.059 5524.965 18315.059" style="fill:#ffffff;fill-opacity:1;fill-rule:nonzero;stroke:none" id="path356"/>
      <path d="M 5524.965 18008.059 L 4064.975 18008.059 C 4017.655 18008.059 3978.945 18046.759 3978.945 18094.159 C 3978.945 18141.459 4017.655 18180.159 4064.975 18180.159 L 5524.965 18180.159 C 5572.285 18180.159 5610.995 18141.459 5610.995 18094.159 C 5610.995 18046.759 5572.285 18008.059 5524.965 18008.059" style="fill:#ffffff;fill-opacity:1;fill-rule:nonzero;stroke:none" id="path358"/>
      <path d="M 5524.965 17639.359 L 4064.975 17639.359 C 4017.655 17639.359 3978.945 17678.059 3978.945 17725.359 C 3978.945 17772.759 4017.655 17811.459 4064.975 17811.459 L 5524.965 17811.459 C 5572.285 17811.459 5610.995 17772.759 5610.995 17725.359 C 5610.995 17678.059 5572.285 17639.359 5524.965 17639.359" style="fill:#ffffff;fill-opacity:1;fill-rule:nonzero;stroke:none" id="path360"/>
      <path d="M 8604.725 15519.559 L 6864.725 15519.559 C 6787.545 15519.559 6724.975 15582.159 6724.975 15659.359 L 6724.975 16279.859 C 6724.975 16356.959 6787.545 16419.559 6864.725 16419.559 L 8604.725 16419.559 C 8681.895 16419.559 8744.495 16356.959 8744.495 16279.859 L 8744.495 15659.359 C 8744.495 15582.159 8681.895 15519.559 8604.725 15519.559" style="fill:#9ec8ff;fill-opacity:1;fill-rule:nonzero;stroke:none" id="path362"/>
      <path d="M 34554.795 19548.559 L 28609.695 19548.559 C 28543.695 19548.559 28489.695 19602.559 28489.695 19668.559 L 28489.695 19749.559 C 28489.695 19815.559 28543.695 19869.559 28609.695 19869.559 L 34554.795 19869.559 C 34620.795 19869.559 34674.795 19815.559 34674.795 19749.559 L 34674.795 19668.559 C 34674.795 19602.559 34620.795 19548.559 34554.795 19548.559" style="fill:#cee3ff;fill-opacity:1;fill-rule:nonzero;stroke:none" id="path364"/>
      <path d="M 34554.795 18941.359 L 28609.695 18941.359 C 28543.695 18941.359 28489.695 18995.359 28489.695 19061.359 L 28489.695 19142.259 C 28489.695 19208.259 28543.695 19262.259 28609.695 19262.259 L 34554.795 19262.259 C 34620.795 19262.259 34674.795 19208.259 34674.795 19142.259 L 34674.795 19061.359 C 34674.795 18995.359 34620.795 18941.359 34554.795 18941.359" style="fill:#cee3ff;fill-opacity:1;fill-rule:nonzero;stroke:none" id="path366"/>
    </g>
  </g>
</svg>