<svg xmlns="http://www.w3.org/2000/svg" width="20.2" height="15.986" viewBox="0 0 20.2 15.986">
  <g id="Group_39853" data-name="Group 39853" transform="translate(-224.526 -607.333)">
    <path id="Path_78023" data-name="Path 78023" d="M224.626,610.009c.031-.132.059-.265.095-.4a2.954,2.954,0,0,1,2.855-2.179q6.414,0,12.829,0a2.949,2.949,0,0,1,2.964,2.943c.005.579,0,1.159,0,1.738v.218a1.362,1.362,0,0,1,1.037.6,1.331,1.331,0,0,1,.22.736c0,1.068,0,2.135,0,3.2a1.3,1.3,0,0,1-1.123,1.4l-.133.032c0,.074,0,.151,0,.228-.011.709.014,1.421-.041,2.126a2.905,2.905,0,0,1-2.458,2.518,5.085,5.085,0,0,1-.6.037c-4.192,0-8.383-.014-12.575.009a2.992,2.992,0,0,1-3.033-2.493.415.415,0,0,0-.034-.09Zm17.706,8.255h-.285c-1.855,0-3.71,0-5.565,0a3.52,3.52,0,0,1-.773-.075,2.95,2.95,0,0,1-2.071-3.9,2.857,2.857,0,0,1,2.8-1.938c1.875,0,3.749,0,5.624,0h.229c.006-.076.013-.12.013-.165,0-.579,0-1.159,0-1.738a2.151,2.151,0,0,0-.041-.446,1.9,1.9,0,0,0-1.945-1.5q-6.317,0-12.634,0a2.348,2.348,0,0,0-.541.057,1.883,1.883,0,0,0-1.46,1.878q0,3.848,0,7.7c0,.71-.006,1.419,0,2.129a1.873,1.873,0,0,0,1.839,1.871q6.473.008,12.947,0a1.768,1.768,0,0,0,1.762-1.431A23.027,23.027,0,0,0,242.332,618.264Zm-2.55-1.035h3.4c.314,0,.391-.079.392-.393q0-1.5,0-3.008c0-.337-.074-.412-.412-.412q-3.339,0-6.679,0a2.325,2.325,0,0,0-.522.052,1.9,1.9,0,0,0-1.242,2.7,1.779,1.779,0,0,0,1.746,1.057C237.569,617.234,238.675,617.229,239.782,617.229Z" transform="translate(0)" fill="#737b8c" stroke="#737b8c" stroke-width="0.2"/>
    <path id="Path_78024" data-name="Path 78024" d="M398.289,717.705a.847.847,0,0,1-.871.855.865.865,0,0,1-.838-.854.855.855,0,0,1,.854-.834A.806.806,0,0,1,398.289,717.705Z" transform="translate(-160.927 -102.42)" fill="#737b8c" stroke="#737b8c" stroke-width="0.2"/>
  </g>
</svg>
