<svg xmlns="http://www.w3.org/2000/svg" width="98.788" height="95.321" viewBox="0 0 98.788 95.321">
  <g id="Group_39926" data-name="Group 39926" transform="translate(0.159 0.162)">
    <path id="Path_78020" data-name="Path 78020" d="M491.481,384.061c-.09.3-.185.6-.269.9a7.25,7.25,0,0,1-4.143,4.911c-4.3,1.927-8.625,3.815-12.92,5.76a2.636,2.636,0,0,0-1.143,1.049q-5.063,9.143-10.051,18.327a5.709,5.709,0,0,1-2.631,2.57c-1.1.522-2.166,1.121-3.26,1.66a4.141,4.141,0,0,1-5.826-5.3c1.208-3.177,2.442-6.345,3.662-9.518.145-.377.277-.759.479-1.314l-6.741,2.653c-2.089.822-4.182,1.632-6.263,2.471a4.4,4.4,0,0,1-4.3-.446c-4.8-3.114-9.613-6.2-14.411-9.309-3.1-2.013-3.021-5.6.157-7.466,1.246-.732,2.514-1.428,3.754-2.169a4.472,4.472,0,0,1,4.411-.236q4.072,1.854,8.173,3.647a1.474,1.474,0,0,0,.972.16c3.764-1.464,7.513-2.968,11.387-4.511-.3-.226-.5-.4-.72-.54q-3.97-2.647-7.943-5.289c-3.079-2.053-2.865-5.771.429-7.493,1.167-.61,2.348-1.193,3.5-1.827a4.4,4.4,0,0,1,4.818.186c4.532,2.869,9.089,5.7,13.617,8.575a1.8,1.8,0,0,0,1.859.194q6.545-2.679,13.129-5.263a7.328,7.328,0,0,1,9.983,4.895c.09.333.194.662.292.993ZM455.047,415.6c1.14-.579,2.026-1.067,2.944-1.483a3.174,3.174,0,0,0,1.539-1.489q4.312-7.957,8.685-15.882c.741-1.349,1.255-2.96,2.333-3.948s2.729-1.351,4.135-1.974c3.489-1.547,6.989-3.071,10.471-4.635a3.18,3.18,0,0,0,1.779-4.435c-.8-1.611-2.5-2.139-4.46-1.358q-20.457,8.167-40.92,16.318a2.324,2.324,0,0,1-1.61-.029c-3.095-1.328-6.155-2.737-9.235-4.1-.3-.133-.744-.287-.981-.163-1.373.719-2.7,1.519-4.088,2.315a3.737,3.737,0,0,0,.309.269c4.693,3.032,9.38,6.074,14.1,9.07a1.664,1.664,0,0,0,1.3.065c6.753-2.631,13.491-5.3,20.233-7.96.3-.118.6-.225,1.092-.406Zm7.207-31.6a2.619,2.619,0,0,0-.322-.3q-5.706-3.583-11.425-7.147a.959.959,0,0,0-.776-.1c-1.256.6-2.485,1.263-3.752,1.919a1.614,1.614,0,0,0,.234.281q5.325,3.553,10.662,7.087a.984.984,0,0,0,.773.079C459.174,385.24,460.684,384.623,462.254,384Z" transform="translate(-393.003 -324.798)" fill="#4468e2" stroke="#4468e2" stroke-linecap="round" stroke-linejoin="round" stroke-width="0.3"/>
    <path id="Path_78021" data-name="Path 78021" d="M321.579,160.439c-1.234-.063-2.365-.031-3.469-.193a6.1,6.1,0,0,1-5.141-7.469c.649-2.812,1.353-5.612,2.092-8.4a6.124,6.124,0,0,1,5.942-4.61c2.117-.037,4.236-.007,6.649-.007a28.281,28.281,0,0,0-11.5-6.9,27.968,27.968,0,0,0-13.142-.957c-10.932,1.8-21.61,11.193-22.928,20.2H281.1q5.161,0,10.323,0c3.637.006,5.828,1.71,6.72,5.238q.943,3.73,1.845,7.471a6.179,6.179,0,0,1-6.07,7.891c-.925.015-1.284.2-1.417,1.413a55.567,55.567,0,0,1-1.735,8.585,1.085,1.085,0,0,0,.5,1.413,29.409,29.409,0,0,0,8.417,3.932,2.03,2.03,0,0,1,1.463,1.915v.052a2.044,2.044,0,0,1-2.589,1.995,32.923,32.923,0,1,1,41.823-33.882,2.067,2.067,0,0,1-2.065,2.174h0a2.068,2.068,0,0,1-2.059-1.888c-.058-.665-.122-1.33-.207-1.992a27.6,27.6,0,0,0-4.511-11.956,1.444,1.444,0,0,0-1.048-.575c-3.028-.046-6.056-.037-9.084-.021a2.119,2.119,0,0,0-2.4,1.879c-.662,2.611-1.322,5.223-1.957,7.84a2,2,0,0,0,2.012,2.6c1.768.024,3.537.018,5.306,0,.484-.005.753.087.843.644.648,4.017,1.321,8.031,1.988,12.045a2.05,2.05,0,0,1-1.544,2.329l-.05.012a2.051,2.051,0,0,1-2.5-1.655Zm-32.191,8.1c1.634,0,3.143.025,4.651-.007a2.007,2.007,0,0,0,1.967-2.568q-.956-3.921-1.967-7.828a2.154,2.154,0,0,0-2.464-1.919c-3.888-.012-7.777.015-11.665-.022-.724-.007-.938.264-1.007.921a29,29,0,0,0,1.751,13.524,28.375,28.375,0,0,0,6.327,9.85Z" transform="translate(-274.607 -127.401)" fill="#4468e2" stroke="#4468e2" stroke-linecap="round" stroke-linejoin="round" stroke-width="0.3"/>
  </g>
</svg>
