<svg xmlns="http://www.w3.org/2000/svg" width="89.273" height="82.404" viewBox="0 0 89.273 82.404">
  <g id="Group_39925" data-name="Group 39925" transform="translate(224.861 1036.083)">
    <path id="Path_78035" data-name="Path 78035" d="M-180.356-1036.058c10.216,0,20.433.03,30.649-.024a3.684,3.684,0,0,1,3.849,3.766,6.4,6.4,0,0,0,6.61,6.544,3.464,3.464,0,0,1,3.659,3.745q0,27.159,0,54.319a3.446,3.446,0,0,1-3.563,3.721c-3.444.139-5.809,1.947-6.526,5.024a9.169,9.169,0,0,0-.2,1.713,3.479,3.479,0,0,1-3.68,3.569q-30.677.005-61.355,0a3.433,3.433,0,0,1-3.641-3.584c-.115-3.538-2.108-5.967-5.432-6.586a12.9,12.9,0,0,0-1.61-.143,3.41,3.41,0,0,1-3.239-3.117c-.02-.222-.024-.446-.024-.669q0-27.1-.006-54.208a3.667,3.667,0,0,1,1-2.75,3.775,3.775,0,0,1,2.453-1.048,10.327,10.327,0,0,0,2.776-.507c2.84-1.111,4-3.393,4.082-6.319a3.349,3.349,0,0,1,2.13-3.238,3.075,3.075,0,0,1,1.193-.2Q-195.792-1036.066-180.356-1036.058Zm-27.95,75.5h.471q27.606,0,55.212.009a.563.563,0,0,0,.648-.482,13.235,13.235,0,0,1,8.994-9.016.6.6,0,0,0,.516-.685q-.017-24.144,0-48.289c0-.411-.136-.563-.521-.687a13.2,13.2,0,0,1-8.953-8.913.7.7,0,0,0-.8-.595q-27.494.019-54.988,0a.666.666,0,0,0-.775.555,13.142,13.142,0,0,1-8.927,8.932c-.486.157-.563.384-.563.824q.013,24.033.007,48.066v.6A13.612,13.612,0,0,1-208.305-960.558Z" transform="translate(0 0)" fill="#4468e2"/>
    <path id="Path_78036" data-name="Path 78036" d="M-73.764-605.65q13.729,0,27.459,0a3.48,3.48,0,0,1,3.519,2.39,3.438,3.438,0,0,1-3.171,4.487c-.278.018-.558.01-.837.01q-26.873,0-53.746,0a8.208,8.208,0,0,1-1.5-.082,3.4,3.4,0,0,1-2.743-3.661,3.418,3.418,0,0,1,3.391-3.141Q-87.577-605.656-73.764-605.65Z" transform="translate(-106.656 -382.37)" fill="#4468e2"/>
    <path id="Path_78037" data-name="Path 78037" d="M-85.79-506.528q-7.785,0-15.57,0a3.457,3.457,0,0,1-3.48-3.413,3.435,3.435,0,0,1,3.47-3.471q15.542-.007,31.084,0a3.448,3.448,0,0,1,3.566,2.959,3.4,3.4,0,0,1-2.4,3.749,4.828,4.828,0,0,1-1.32.164q-7.673.016-15.347.007Z" transform="translate(-106.619 -464.306)" fill="#4468e2"/>
    <path id="Path_78038" data-name="Path 78038" d="M-101.83-848.663c1.895,0,3.679-.009,5.463.017.136,0,.362.232.388.384q.926,5.387,1.811,10.78c.2,1.191.374,2.385.67,3.585l1.985-14.746h5.731c-.03.185-.044.343-.083.5q-2.438,9.62-4.871,19.242a.6.6,0,0,1-.717.544c-1.71-.027-3.421-.011-5.142-.011Z" transform="translate(-109.294 -166.492)" fill="#4468e2"/>
    <path id="Path_78039" data-name="Path 78039" d="M328.684-831.392a2.19,2.19,0,0,1-.29.041c-1.58,0-3.16,0-4.812,0-.186-1.012-.377-2.008-.549-3.007-.206-1.19-.2-1.192-1.419-1.191q-1,0-2.009.008a.843.843,0,0,0-.149.034l-.7,4.118h-5.114c.025-.162.037-.307.07-.447q2.3-9.654,4.59-19.309c.09-.382.224-.512.622-.507,1.711.023,3.423.02,5.135,0,.367,0,.507.106.583.473q1.994,9.751,4.013,19.5C328.671-831.591,328.673-831.5,328.684-831.392Zm-5.873-7.615c-.122-.718-.237-1.373-.344-2.029s-.223-1.317-.3-1.979-.1-1.332-.2-1.993c-.089-.633-.236-1.259-.357-1.887l-.21.01-1.235,7.878Z" transform="translate(-478.372 -163.839)" fill="#4468e2"/>
    <path id="Path_78040" data-name="Path 78040" d="M182.954-846.694a6.7,6.7,0,0,0-3.535-.711,4.1,4.1,0,0,0-1.339.333,1.534,1.534,0,0,0-.32,2.657c.641.5,1.413.817,2.089,1.273a18.2,18.2,0,0,1,2.869,2.086,5.631,5.631,0,0,1-1.16,8.864,10.028,10.028,0,0,1-5.966,1.248c-.979-.057-1.951-.243-2.923-.387a4.054,4.054,0,0,1-.662-.224l.954-4.143a19.161,19.161,0,0,0,2.3.49,22.29,22.29,0,0,0,3.156.066,1.372,1.372,0,0,0,1.351-1.07,1.735,1.735,0,0,0-.608-1.955,17.468,17.468,0,0,0-1.969-1.149,12.094,12.094,0,0,1-3.429-2.545,5.6,5.6,0,0,1,1.572-8.666,9.7,9.7,0,0,1,5.254-.958,25.594,25.594,0,0,1,2.687.442c.323.058.44.22.364.592C183.387-849.235,183.188-848.008,182.954-846.694Z" transform="translate(-352.554 -163.956)" fill="#4468e2"/>
    <path id="Path_78041" data-name="Path 78041" d="M303.56-506.553c-1.767,0-3.534,0-5.3,0a3.464,3.464,0,0,1-3.455-3.44,3.44,3.44,0,0,1,3.443-3.444q5.272-.015,10.545,0a3.437,3.437,0,0,1,3.42,2.441,3.423,3.423,0,0,1-1.355,3.832,3.516,3.516,0,0,1-2.054.6H303.56Z" transform="translate(-461.641 -464.281)" fill="#4468e2"/>
    <path id="Path_78042" data-name="Path 78042" d="M80.068-848.507h5.065v20.23H80.068Z" transform="translate(-270.881 -166.632)" fill="#4468e2"/>
  </g>
</svg>
