<svg xmlns="http://www.w3.org/2000/svg" width="30.712" height="29.643" viewBox="0 0 30.712 29.643">
  <g id="Group_39851" data-name="Group 39851" transform="translate(0.153 0.154)">
    <path id="Path_78020" data-name="Path 78020" d="M443.029,375.8c-.028.092-.057.184-.083.277a2.239,2.239,0,0,1-1.279,1.516c-1.329.6-2.663,1.178-3.99,1.779a.814.814,0,0,0-.353.324q-1.563,2.823-3.1,5.659a1.763,1.763,0,0,1-.813.794c-.34.161-.669.346-1.007.513a1.279,1.279,0,0,1-1.8-1.638c.373-.981.754-1.959,1.131-2.939.045-.116.086-.234.148-.406l-2.082.819c-.645.254-1.291.5-1.934.763a1.36,1.36,0,0,1-1.328-.138c-1.481-.962-2.968-1.914-4.45-2.875a1.277,1.277,0,0,1,.049-2.305c.385-.226.776-.441,1.159-.67a1.381,1.381,0,0,1,1.362-.073q1.257.572,2.524,1.126a.455.455,0,0,0,.3.049c1.162-.452,2.32-.916,3.516-1.393-.093-.07-.155-.122-.222-.167l-2.453-1.633a1.278,1.278,0,0,1,.133-2.314c.36-.188.725-.368,1.081-.564a1.359,1.359,0,0,1,1.488.057c1.4.886,2.807,1.76,4.2,2.648a.556.556,0,0,0,.574.06q2.021-.827,4.054-1.625a2.263,2.263,0,0,1,3.083,1.511c.028.1.06.2.09.307Zm-11.25,9.738c.352-.179.625-.33.909-.458a.98.98,0,0,0,.475-.46q1.331-2.457,2.682-4.9a2.428,2.428,0,0,1,2-1.829c1.077-.478,2.158-.948,3.233-1.431a.982.982,0,0,0,.549-1.369,1,1,0,0,0-1.377-.419q-6.317,2.522-12.636,5.039a.717.717,0,0,1-.5-.009c-.956-.41-1.9-.845-2.852-1.266-.093-.041-.23-.089-.3-.05-.424.222-.835.469-1.262.715a1.148,1.148,0,0,0,.1.083c1.449.936,2.9,1.876,4.353,2.8a.514.514,0,0,0,.4.02c2.085-.813,4.166-1.637,6.248-2.458.092-.037.186-.069.337-.125ZM434,375.785a.806.806,0,0,0-.1-.094q-1.762-1.106-3.528-2.207a.3.3,0,0,0-.24-.031c-.388.187-.767.39-1.159.592a.5.5,0,0,0,.072.087q1.644,1.1,3.292,2.188a.3.3,0,0,0,.239.024C433.052,376.169,433.519,375.978,434,375.785Z" transform="translate(-412.62 -357.505)" fill="#737b8c" stroke="#737b8c" stroke-linecap="round" stroke-linejoin="round" stroke-width="0.3"/>
    <path id="Path_78021" data-name="Path 78021" d="M289.111,137.6c-.381-.019-.73-.01-1.071-.06a1.885,1.885,0,0,1-1.587-2.306c.2-.868.418-1.733.646-2.594a1.891,1.891,0,0,1,1.835-1.424c.654-.011,1.308,0,2.053,0a8.733,8.733,0,0,0-3.552-2.131,8.636,8.636,0,0,0-4.058-.3c-3.376.557-6.673,3.456-7.08,6.239h.316q1.594,0,3.188,0a1.932,1.932,0,0,1,2.075,1.617q.291,1.152.57,2.307a1.908,1.908,0,0,1-1.874,2.437c-.286,0-.4.06-.437.436a17.158,17.158,0,0,1-.536,2.651.335.335,0,0,0,.156.436,9.081,9.081,0,0,0,2.6,1.214.627.627,0,0,1,.452.591v.016a.631.631,0,0,1-.8.616,10.166,10.166,0,1,1,12.914-10.462.638.638,0,0,1-.638.671h0a.638.638,0,0,1-.636-.583c-.018-.205-.038-.411-.064-.615a8.521,8.521,0,0,0-1.393-3.692.446.446,0,0,0-.324-.178c-.935-.014-1.87-.011-2.805-.006a.654.654,0,0,0-.74.58c-.2.806-.408,1.613-.6,2.421a.616.616,0,0,0,.621.8c.546.007,1.092.006,1.638,0,.15,0,.232.027.26.2.2,1.241.408,2.48.614,3.719a.633.633,0,0,1-.477.719l-.016,0a.633.633,0,0,1-.772-.511Zm-9.94,2.5c.5,0,.971.008,1.436,0a.62.62,0,0,0,.608-.793q-.3-1.211-.607-2.417a.665.665,0,0,0-.761-.593c-1.2,0-2.4,0-3.6-.007-.223,0-.29.082-.311.284a8.956,8.956,0,0,0,.541,4.176,8.762,8.762,0,0,0,1.954,3.042Z" transform="translate(-274.607 -127.401)" fill="#737b8c" stroke="#737b8c" stroke-linecap="round" stroke-linejoin="round" stroke-width="0.3"/>
  </g>
</svg>
