<svg xmlns="http://www.w3.org/2000/svg" width="20" height="18.461" viewBox="0 0 20 18.461">
  <g id="Group_39901" data-name="Group 39901" transform="translate(224.861 1036.083)">
    <path id="Path_78035" data-name="Path 78035" d="M-214.89-1036.077c2.289,0,4.578.007,6.866-.005a.825.825,0,0,1,.862.844,1.433,1.433,0,0,0,1.481,1.466.776.776,0,0,1,.82.839q0,6.085,0,12.169a.772.772,0,0,1-.8.834,1.435,1.435,0,0,0-1.462,1.125,2.056,2.056,0,0,0-.044.384.779.779,0,0,1-.825.8h-13.745a.769.769,0,0,1-.816-.8,1.438,1.438,0,0,0-1.217-1.476,2.873,2.873,0,0,0-.361-.032.764.764,0,0,1-.726-.7c0-.05-.005-.1-.005-.15q0-6.072,0-12.144a.822.822,0,0,1,.224-.616.846.846,0,0,1,.55-.235,2.314,2.314,0,0,0,.622-.114,1.418,1.418,0,0,0,.914-1.416.75.75,0,0,1,.477-.725.688.688,0,0,1,.267-.044Q-218.349-1036.079-214.89-1036.077Zm-6.262,16.914h.106q6.185,0,12.369,0a.126.126,0,0,0,.145-.108,2.965,2.965,0,0,1,2.015-2.02.135.135,0,0,0,.116-.153q0-5.409,0-10.818c0-.092-.03-.126-.117-.154a2.956,2.956,0,0,1-2.006-2,.157.157,0,0,0-.179-.133q-6.16,0-12.319,0a.149.149,0,0,0-.174.124,2.944,2.944,0,0,1-2,2c-.109.035-.126.086-.126.185q0,5.384,0,10.768v.135A3.049,3.049,0,0,1-221.152-1019.163Z" fill="#737b8c"/>
    <path id="Path_78036" data-name="Path 78036" d="M-97.846-605.651h6.152a.78.78,0,0,1,.788.536.77.77,0,0,1-.71,1.005c-.062,0-.125,0-.187,0h-12.041a1.84,1.84,0,0,1-.336-.018.762.762,0,0,1-.615-.82.766.766,0,0,1,.76-.7Z" transform="translate(-117.059 -419.664)" fill="#737b8c"/>
    <path id="Path_78037" data-name="Path 78037" d="M-100.573-511.873h-3.488a.774.774,0,0,1-.78-.765.77.77,0,0,1,.777-.778q3.482,0,6.964,0a.772.772,0,0,1,.8.663.762.762,0,0,1-.538.84,1.08,1.08,0,0,1-.3.037q-1.719,0-3.438,0Z" transform="translate(-117.018 -509.592)" fill="#737b8c"/>
    <path id="Path_78038" data-name="Path 78038" d="M-101.83-848.664c.424,0,.824,0,1.224,0,.03,0,.081.052.087.086q.207,1.207.406,2.415c.044.267.084.534.15.8l.445-3.3h1.284c-.007.041-.01.077-.019.111q-.546,2.155-1.091,4.311a.135.135,0,0,1-.161.122c-.383-.006-.766,0-1.152,0Z" transform="translate(-119.953 -182.73)" fill="#737b8c"/>
    <path id="Path_78039" data-name="Path 78039" d="M317.01-847.112a.492.492,0,0,1-.065.009h-1.078c-.042-.227-.084-.45-.123-.674-.046-.267-.045-.267-.318-.267l-.45,0a.191.191,0,0,0-.033.008l-.157.922h-1.146c.006-.036.008-.069.016-.1q.515-2.163,1.028-4.326c.02-.085.05-.115.139-.113.383.005.767,0,1.15,0,.082,0,.114.024.131.106q.447,2.184.9,4.368C317.007-847.156,317.007-847.136,317.01-847.112Zm-1.316-1.706c-.027-.161-.053-.308-.077-.455s-.05-.295-.068-.443-.023-.3-.044-.446-.053-.282-.08-.423l-.047,0-.277,1.765Z" transform="translate(-525.029 -179.819)" fill="#737b8c"/>
    <path id="Path_78040" data-name="Path 78040" d="M174.459-850.438a1.5,1.5,0,0,0-.792-.159.919.919,0,0,0-.3.075.344.344,0,0,0-.072.6c.144.111.317.183.468.285a4.083,4.083,0,0,1,.643.467,1.262,1.262,0,0,1-.26,1.986,2.247,2.247,0,0,1-1.337.28c-.219-.013-.437-.054-.655-.087a.907.907,0,0,1-.148-.05l.214-.928a4.3,4.3,0,0,0,.515.11,5,5,0,0,0,.707.015.307.307,0,0,0,.3-.24.389.389,0,0,0-.136-.438,3.906,3.906,0,0,0-.441-.258,2.71,2.71,0,0,1-.768-.57,1.254,1.254,0,0,1,.352-1.942,2.172,2.172,0,0,1,1.177-.215,5.748,5.748,0,0,1,.6.1c.072.013.1.049.081.133C174.557-851.007,174.512-850.732,174.459-850.438Z" transform="translate(-386.94 -179.947)" fill="#737b8c"/>
    <path id="Path_78041" data-name="Path 78041" d="M296.766-511.9c-.4,0-.792,0-1.187,0a.776.776,0,0,1-.774-.771.771.771,0,0,1,.771-.771q1.181,0,2.362,0a.77.77,0,0,1,.766.547.767.767,0,0,1-.3.859.788.788,0,0,1-.46.135h-1.175Z" transform="translate(-506.667 -509.565)" fill="#737b8c"/>
    <path id="Path_78042" data-name="Path 78042" d="M80.068-848.507H81.2v4.532H80.068Z" transform="translate(-297.301 -182.883)" fill="#737b8c"/>
  </g>
</svg>
