<svg id="Group_39852" data-name="Group 39852" xmlns="http://www.w3.org/2000/svg" width="19.808" height="21.705" viewBox="0 0 19.808 21.705">
  <path id="Path_78022" data-name="Path 78022" d="M-420.087,69.816h-2.008a10.04,10.04,0,0,1,6-9.06,6.892,6.892,0,0,1-2.983-6.269,6.636,6.636,0,0,1,2.236-4.562,6.9,6.9,0,0,1,9.6.267,6.957,6.957,0,0,1-1.027,10.561,10.039,10.039,0,0,1,5.983,9.06h-2a7.853,7.853,0,0,0-3.089-6.228,7.6,7.6,0,0,0-4.93-1.634,7.663,7.663,0,0,0-5.5,2.337A7.81,7.81,0,0,0-420.087,69.816Zm7.894-9.861a4.933,4.933,0,0,0,4.939-4.912,4.934,4.934,0,0,0-4.931-4.949,4.938,4.938,0,0,0-4.941,4.941A4.939,4.939,0,0,0-412.193,59.955Z" transform="translate(422.095 -48.112)" fill="#737b8c"/>
</svg>
