<svg xmlns="http://www.w3.org/2000/svg" width="18.593" height="18.593" viewBox="0 0 18.593 18.593">
  <path id="Icon_feather-message-circle" data-name="Icon feather-message-circle" d="M21.393,12.477a7.864,7.864,0,0,1-.845,3.566,7.977,7.977,0,0,1-7.132,4.411,7.864,7.864,0,0,1-3.566-.845L4.5,21.393l1.783-5.349a7.864,7.864,0,0,1-.845-3.566A7.977,7.977,0,0,1,9.849,5.345,7.864,7.864,0,0,1,13.416,4.5h.469a7.958,7.958,0,0,1,7.508,7.508Z" transform="translate(-3.65 -3.65)" fill="none" stroke="#737b8c" stroke-linecap="round" stroke-linejoin="round" stroke-width="1.7"/>
</svg>
