<svg xmlns="http://www.w3.org/2000/svg" width="20.4" height="19.635" viewBox="0 0 20.4 19.635">
  <path id="Icon_ionic-ios-heart-empty" data-name="Icon ionic-ios-heart-empty" d="M17.918,3.937H17.87a5.443,5.443,0,0,0-4.545,2.488A5.443,5.443,0,0,0,8.781,3.937H8.733A5.408,5.408,0,0,0,3.375,9.343a11.645,11.645,0,0,0,2.287,6.348,40.072,40.072,0,0,0,7.664,7.381,40.072,40.072,0,0,0,7.664-7.381,11.645,11.645,0,0,0,2.287-6.348A5.408,5.408,0,0,0,17.918,3.937ZM19.908,14.9a36.691,36.691,0,0,1-6.582,6.487A36.746,36.746,0,0,1,6.743,14.9,10.32,10.32,0,0,1,4.714,9.343,4.059,4.059,0,0,1,8.742,5.282h.043a4.011,4.011,0,0,1,1.966.517,4.18,4.18,0,0,1,1.454,1.363,1.344,1.344,0,0,0,2.248,0A4.222,4.222,0,0,1,15.908,5.8a4.011,4.011,0,0,1,1.966-.517h.043a4.059,4.059,0,0,1,4.028,4.061A10.451,10.451,0,0,1,19.908,14.9Z" transform="translate(-3.125 -3.688)" fill="#737b8c" stroke="#737b8c" stroke-linecap="round" stroke-linejoin="round" stroke-width="0.5"/>
</svg>
