<svg xmlns="http://www.w3.org/2000/svg" width="27.002" height="17.729" viewBox="0 0 27.002 17.729">
  <path id="Icon_material-group" data-name="Icon material-group" d="M18.888,14.455a3.478,3.478,0,1,0-3.478-3.478A3.463,3.463,0,0,0,18.888,14.455Zm-9.273,0a3.478,3.478,0,1,0-3.478-3.478A3.463,3.463,0,0,0,9.614,14.455Zm0,2.318c-2.7,0-8.114,1.356-8.114,4.057v2.9H17.729v-2.9C17.729,18.13,12.315,16.773,9.614,16.773Zm9.273,0c-.336,0-.719.023-1.124.058a4.892,4.892,0,0,1,2.284,4v2.9H27v-2.9C27,18.13,21.589,16.773,18.888,16.773Z" transform="translate(-0.75 -6.75)" fill="none" stroke="#737b8c" stroke-linecap="round" stroke-linejoin="round" stroke-width="1.5"/>
</svg>
