<svg width="63" height="99" viewBox="0 0 63 99" fill="none" xmlns="http://www.w3.org/2000/svg">
<path d="M53.8789 34.9771H38.2168V86.459C38.2168 89.4238 37.5562 91.6313 36.2349 93.0815C34.9136 94.4995 33.2056 95.2085 31.1108 95.2085C28.9839 95.2085 27.2437 94.4834 25.8901 93.0332C24.5688 91.583 23.9082 89.3916 23.9082 86.459V34.9771H8.24609C5.79688 34.9771 3.97607 34.4453 2.78369 33.3818C1.59131 32.2861 0.995117 30.8521 0.995117 29.0796C0.995117 27.2427 1.60742 25.7925 2.83203 24.729C4.08887 23.6655 5.89355 23.1338 8.24609 23.1338H53.8789C56.3604 23.1338 58.1973 23.6816 59.3896 24.7773C60.6143 25.873 61.2266 27.3071 61.2266 29.0796C61.2266 30.8521 60.6143 32.2861 59.3896 33.3818C58.165 34.4453 56.3281 34.9771 53.8789 34.9771Z" fill="white"/>
<circle cx="55.5244" cy="16.4814" r="7" fill="#AEAEAE"/>
</svg>
