<svg width="275" height="207" viewBox="0 0 275 207" fill="none" xmlns="http://www.w3.org/2000/svg">
<path d="M0.57666 83.6207H21.8759V100.013H0.57666V83.6207Z" fill="white"/>
<path d="M19.4053 83.6207H40.7305V100.013H19.4053V83.6207Z" fill="white"/>
<path d="M38.2598 83.6207H59.585V100.013H38.2598V83.6207Z" fill="white"/>
<path fill-rule="evenodd" clip-rule="evenodd" d="M137.76 66.2392C137.76 83.9329 126.135 99.8572 106.292 99.8572C96.462 99.8572 88.426 96.2404 82.5226 90.3338C77.1653 96.1623 69.5194 99.3888 59.585 99.9352C58.5621 99.9873 57.5219 100.013 56.4643 100.013H52.1992V83.6206H53.8376C68.9213 83.6206 72.8482 78.2085 73.1863 63.6112C73.1863 46.2298 85.3053 30.3055 104.81 30.3055C126.135 30.3055 137.76 46.3859 137.76 66.2392ZM121.376 64.1056C121.376 52.4486 116.305 44.0962 106.292 44.0962C94.6676 44.0962 89.5703 52.4486 89.5703 66.2392C89.5703 77.8702 94.6676 86.0665 104.81 86.0665C116.461 86.0665 121.376 77.8702 121.376 64.1056Z" fill="white"/>
<path d="M121.376 64.1056C121.376 77.8702 116.461 86.0666 104.81 86.0666C94.6675 86.0666 89.5703 77.8702 89.5703 66.2393C89.5703 52.4486 94.6676 44.0962 106.292 44.0962C116.305 44.0962 121.376 52.4486 121.376 64.1056Z" fill="#EAB977"/>
<path d="M274.553 13.2624V72.1459C274.553 87.3936 265.373 99.3628 251.174 100.013H162.258C148.11 100.013 139.06 95.9282 139.06 88.3824V83.6207H172.4V0.616693H180.93C185.534 0.616693 191.411 4.57174 191.411 9.98392V83.6207H245.218C252.916 82.9702 255.699 78.7029 255.699 71.1571V0.460571H261.602C270.132 0.460571 274.553 4.88399 274.553 13.2624Z" fill="white"/>
<path d="M40.5745 20.2358C40.5745 28.302 37.6878 33.0897 30.8741 33.0897C24.9447 33.0897 21.98 28.302 21.98 21.4847C21.98 13.4185 24.9447 8.52673 31.7324 8.52673C37.6098 8.52673 40.5745 13.4185 40.5745 20.2358Z" fill="#EAB977"/>
<path d="M62.0556 206.175H55.424C34.957 206.175 23.6963 194.778 23.6963 173.988V118.436H30.77C37.8437 118.436 41.5886 122.469 41.5886 131.133V172.844C41.5886 185.958 44.6054 190.875 57.5825 190.875H62.0556C70.2736 190.875 77.0613 189.002 80.234 187.701V193.608C80.234 201.257 76.4891 206.175 62.0556 206.175Z" fill="white"/>
<path fill-rule="evenodd" clip-rule="evenodd" d="M141.089 168.082V183.069C141.089 196.938 130.868 206.591 116.435 206.591H113.106C97.5543 206.591 86.8657 197.797 86.8657 185.827C86.8657 174.118 95.3698 165.324 119.478 165.324H125.095V164.465C125.095 155.228 120.778 152.496 111.104 152.496C99.2707 152.496 92.7952 156.945 90.3246 159.99H89.7524V154.786C89.7524 147.448 96.254 138.783 113.418 138.783C127.982 138.783 141.089 145.574 141.089 168.082ZM125.225 177.007H119.478C107.073 177.007 103.588 179.895 103.588 185.229C103.588 190.277 107.645 193.321 114.849 193.321C121.766 193.321 125.225 189.861 125.225 183.225V177.007Z" fill="white"/>
<path d="M125.225 177.007V183.226C125.225 189.861 121.766 193.321 114.848 193.321C107.645 193.321 103.588 190.277 103.588 185.229C103.588 179.895 107.072 177.007 119.478 177.007H125.225Z" fill="#EAB977"/>
<path d="M247.403 205.447C238.613 205.447 235.128 201.257 235.128 193.607V168.368C235.128 157.544 230.239 152.912 223.165 152.912C216.533 152.912 212.06 157.544 212.06 166.495V205.447H207.743C200.513 205.447 195.91 201.257 195.91 193.607V168.368C195.91 157.544 190.865 152.912 183.791 152.912C177.446 152.912 172.687 157.96 172.687 166.911V205.447H168.37C161.712 205.447 156.537 201.127 156.537 193.607V168.212C156.537 150.466 165.899 138.497 185.664 138.497C194.168 138.497 200.799 142.374 205.559 148.723C209.329 142.66 216.377 138.497 224.309 138.497C239.315 138.497 251.434 147.578 251.434 166.182V205.447H247.403Z" fill="white"/>
<path d="M204.856 18.6486H242.67C244.49 18.6486 245.946 17.1915 245.946 15.3961V11.8834C245.946 10.088 244.49 8.63086 242.67 8.63086H204.856C203.036 8.63086 201.58 10.088 201.58 11.8834V15.3961C201.58 17.1915 203.036 18.6486 204.856 18.6486Z" fill="#EAB977"/>
<path d="M204.856 43.4717H242.67C244.49 43.4717 245.946 42.0146 245.946 40.1932V36.7065C245.946 34.9111 244.49 33.454 242.67 33.454H204.856C203.036 33.454 201.58 34.9111 201.58 36.7065V40.1932C201.58 42.0146 203.036 43.4717 204.856 43.4717Z" fill="#EAB977"/>
<path d="M204.856 68.2949H242.67C244.49 68.2949 245.946 66.8117 245.946 65.0163V61.5296C245.946 59.7082 244.49 58.2511 242.67 58.2511H204.856C203.036 58.2511 201.58 59.7082 201.58 61.5296V65.0163C201.58 66.8117 203.036 68.2949 204.856 68.2949Z" fill="#EAB977"/>
<path fill-rule="evenodd" clip-rule="evenodd" d="M50.1707 21.4848C50.1707 31.8408 43.3571 41.156 31.7322 41.156C25.9848 41.156 21.3037 39.0223 17.8449 35.5877C17.8449 35.5877 12.4096 31.1122 12.3835 19.6113V19.5593C12.3835 19.5073 12.3835 19.4812 12.3835 19.4292C12.6176 9.46351 19.6653 0.460571 30.874 0.460571C43.3571 0.460571 50.1707 9.85381 50.1707 21.4848ZM40.5744 20.2358C40.5744 13.4186 37.6097 8.52679 31.7322 8.52679C24.9446 8.52679 21.9799 13.4186 21.9799 21.4848C21.9799 28.302 24.9446 33.0897 30.874 33.0897C37.6877 33.0897 40.5744 28.302 40.5744 20.2358Z" fill="white"/>
</svg>
