<svg width="14" height="16" viewBox="0 0 14 16" fill="none" xmlns="http://www.w3.org/2000/svg">
<path d="M9.33337 12.3359C9.33337 13.8087 8.1394 15.0026 6.66663 15.0026C5.19385 15.0026 4 13.8087 4 12.3359" stroke="black"/>
<path d="M12.5948 10.6581C12.1976 10.3218 11.8656 9.92965 11.5989 9.5022C8.22918 9.46575 5.5 6.7141 5.5 3.33594C5.5 2.46464 5.68467 1.63725 6.0127 0.887208C4.02501 1.20197 2.5 2.92778 2.5 5.00256V6.86121C2.5 8.32776 1.85717 9.7122 0.731833 10.6641C0.584718 10.7901 0.5 10.974 0.5 11.1692C0.5 11.5365 0.799492 11.8359 1.16663 11.8359H12.1666C12.5339 11.8359 12.8334 11.5365 12.8334 11.1692C12.8334 10.9761 12.7503 10.7914 12.5948 10.6581ZM12.5948 10.6581C12.5945 10.6579 12.5942 10.6576 12.5939 10.6573L12.9187 10.2772L12.5957 10.6589C12.5954 10.6586 12.5951 10.6584 12.5948 10.6581Z" stroke="black"/>
</svg>
