<svg width="14" height="14" viewBox="0 0 14 14" fill="none" xmlns="http://www.w3.org/2000/svg">
    <path d="M11.957 5.94449H10.2712C8.8887 5.94449 7.76286 4.81866 7.76286 3.43616V1.75033C7.76286 1.42949 7.50036 1.16699 7.17953 1.16699H4.7062C2.90953 1.16699 1.45703 2.33366 1.45703 4.41616V9.58449C1.45703 11.667 2.90953 12.8337 4.7062 12.8337H9.2912C11.0879 12.8337 12.5404 11.667 12.5404 9.58449V6.52783C12.5404 6.20699 12.2779 5.94449 11.957 5.94449ZM7.16203 9.20533L5.99536 10.372C5.95453 10.4128 5.90203 10.4478 5.84953 10.4653C5.79703 10.4887 5.74453 10.5003 5.6862 10.5003C5.62786 10.5003 5.57536 10.4887 5.52286 10.4653C5.4762 10.4478 5.42953 10.4128 5.39453 10.3778C5.3887 10.372 5.38286 10.372 5.38286 10.3662L4.2162 9.19949C4.04703 9.03033 4.04703 8.75033 4.2162 8.58116C4.38536 8.41199 4.66536 8.41199 4.83453 8.58116L5.2487 9.00699V6.56283C5.2487 6.32366 5.44703 6.12533 5.6862 6.12533C5.92536 6.12533 6.1237 6.32366 6.1237 6.56283V9.00699L6.5437 8.58699C6.71286 8.41783 6.99286 8.41783 7.16203 8.58699C7.3312 8.75616 7.3312 9.03616 7.16203 9.20533Z" fill="#E6A935"/>
    <path d="M10.1667 5.13945C10.7208 5.14528 11.4908 5.14528 12.15 5.14528C12.4825 5.14528 12.6575 4.75445 12.4242 4.52111C11.5842 3.67528 10.0792 2.15278 9.21583 1.28945C8.97667 1.05028 8.5625 1.21361 8.5625 1.54611V3.58195C8.5625 4.43361 9.28583 5.13945 10.1667 5.13945Z" fill="#E6A935"/>
</svg>
