<svg width="16" height="16" viewBox="0 0 16 16" fill="none" xmlns="http://www.w3.org/2000/svg">
    <path d="M10.9856 3.60534L12.3971 5.01683L10.9856 3.60534ZM11.8931 2.36193L8.075 6.18003C7.878 6.37708 7.74367 6.62804 7.689 6.90127L7.33594 8.66667L9.10134 8.3136C9.37454 8.25893 9.62554 8.1246 9.82254 7.9276L13.6407 4.10949C14.1233 3.62691 14.1233 2.84451 13.6407 2.36193C13.1581 1.87936 12.3757 1.87935 11.8931 2.36193Z" fill="#1DAE6D"/>
    <path d="M10.9856 3.60534L12.3971 5.01683M11.8931 2.36193L8.075 6.18003C7.878 6.37708 7.74367 6.62804 7.689 6.90127L7.33594 8.66667L9.10134 8.3136C9.37454 8.25893 9.62554 8.1246 9.82254 7.9276L13.6407 4.10949C14.1233 3.62691 14.1233 2.84451 13.6407 2.36193C13.1581 1.87936 12.3757 1.87935 11.8931 2.36193Z" stroke="#1DAE6D" stroke-width="2" stroke-linecap="round" stroke-linejoin="round"/>
    <path d="M12.668 9.99967V11.9997C12.668 12.7361 12.071 13.333 11.3346 13.333H4.0013C3.26492 13.333 2.66797 12.7361 2.66797 11.9997V4.66634C2.66797 3.92996 3.26492 3.33301 4.0013 3.33301H6.0013" stroke="#1DAE6D" stroke-width="1.5" stroke-linecap="round" stroke-linejoin="round"/>
</svg>
