<svg width="14" height="14" viewBox="0 0 14 14" fill="none" xmlns="http://www.w3.org/2000/svg">
    <g clip-path="url(#clip0_4826_20286)">
        <path d="M4.81526 10.901H9.24314C9.35693 10.901 9.44902 10.8089 9.44902 10.6951C9.44902 10.5813 9.35693 10.4893 9.24314 10.4893H4.81526C4.70146 10.4893 4.60938 10.5813 4.60938 10.6951C4.60938 10.8089 4.70146 10.901 4.81526 10.901Z" fill="#0A3A81"/>
        <path d="M4.81526 12.443H9.24314C9.35693 12.443 9.44902 12.3509 9.44902 12.2371C9.44902 12.1233 9.35693 12.0312 9.24314 12.0312H4.81526C4.70146 12.0312 4.60938 12.1233 4.60938 12.2371C4.60938 12.3509 4.70146 12.443 4.81526 12.443Z" fill="#0A3A81"/>
        <path d="M12.8797 4.59547H11.9552V3.60105C11.9552 3.36224 11.7617 3.1687 11.5229 3.1687H10.9547V2.19076C10.9547 2.19076 10.9547 2.1887 10.9547 2.18664C10.9485 2.13723 10.9258 2.09399 10.8929 2.06105L9.09968 0.269878C9.06671 0.234882 9.02142 0.212237 8.97201 0.208116H8.96995C8.96789 0.208116 8.96583 0.206055 8.96171 0.206055H3.31025C3.19494 0.206055 3.10436 0.298704 3.10436 0.411937V3.1687H2.53613C2.29732 3.1687 2.10172 3.36223 2.10172 3.60105V4.59547H1.12174C0.631714 4.59547 0.234375 4.99282 0.234375 5.48076V10.4384C0.234375 10.9264 0.631714 11.3237 1.12174 11.3237H3.49555V13.3619C3.49555 13.6008 3.68909 13.7943 3.92789 13.7943H10.1291C10.3679 13.7943 10.5635 13.6008 10.5635 13.3619V11.3237H12.8797C13.3676 11.3237 13.765 10.9264 13.765 10.4384V5.48076C13.765 4.99282 13.3676 4.59547 12.8797 4.59547ZM3.51613 0.617819H8.74555V2.20724C8.74555 2.32253 8.83821 2.41312 8.95143 2.41312H10.5429V4.59547H3.51613V0.617819ZM10.4503 6.38046C10.4503 6.6084 10.2652 6.79223 10.0385 6.79223C9.81178 6.79223 9.62673 6.6084 9.62673 6.38046C9.62673 6.15375 9.81178 5.9687 10.0385 5.9687C10.2652 5.9687 10.4503 6.15375 10.4503 6.38046ZM10.1517 13.3619C10.1517 13.3743 10.1414 13.3825 10.1291 13.3825H3.92789C3.91553 13.3825 3.90731 13.3743 3.90731 13.3619V9.72605H10.1517V13.3619ZM10.6397 9.31429H3.41936C3.27382 9.31429 3.15583 9.1963 3.15583 9.05076C3.15583 8.90522 3.27382 8.78723 3.41936 8.78723H10.6397C10.7852 8.78723 10.9032 8.90521 10.9032 9.05076C10.9032 9.1963 10.7852 9.31429 10.6397 9.31429ZM11.933 6.79264C11.7061 6.79264 11.5208 6.60863 11.5208 6.38046C11.5208 6.15352 11.7061 5.96829 11.933 5.96829C12.1612 5.96829 12.3464 6.15352 12.3464 6.38046C12.3464 6.60863 12.1612 6.79264 11.933 6.79264Z" fill="#0A3A81"/>
        <path d="M6.07281 1.10449H4.42073C4.30693 1.10449 4.21484 1.19658 4.21484 1.31037C4.21484 1.42417 4.30693 1.51626 4.42073 1.51626H6.07281C6.18661 1.51626 6.27869 1.42417 6.27869 1.31037C6.27869 1.19658 6.18661 1.10449 6.07281 1.10449Z" fill="#0A3A81"/>
        <path d="M6.8625 1.10449H6.78791C6.67412 1.10449 6.58203 1.19658 6.58203 1.31037C6.58203 1.42417 6.67412 1.51626 6.78791 1.51626H6.8625C6.9763 1.51626 7.06839 1.42417 7.06839 1.31037C7.06839 1.19658 6.9763 1.10449 6.8625 1.10449Z" fill="#0A3A81"/>
    </g>
    <defs>
        <clipPath id="clip0_4826_20286">
            <rect width="14" height="14" fill="white"/>
        </clipPath>
    </defs>
</svg>
