<svg width="21" height="21" viewBox="0 0 21 21" fill="none" xmlns="http://www.w3.org/2000/svg">
<path d="M10.5 13.125C11.9498 13.125 13.125 11.9498 13.125 10.5C13.125 9.05021 11.9498 7.875 10.5 7.875C9.05021 7.875 7.875 9.05021 7.875 10.5C7.875 11.9498 9.05021 13.125 10.5 13.125Z" stroke="#979797" stroke-width="1.5" stroke-miterlimit="10" stroke-linecap="round" stroke-linejoin="round"/>
<path d="M1.75 11.2697V9.72973C1.75 8.81973 2.49375 8.06726 3.4125 8.06726C4.99625 8.06726 5.64375 6.94726 4.8475 5.57351C4.3925 4.78601 4.66375 3.76226 5.46 3.30726L6.97375 2.44101C7.665 2.02976 8.5575 2.27476 8.96875 2.96601L9.065 3.13226C9.8525 4.50601 11.1475 4.50601 11.9438 3.13226L12.04 2.96601C12.4513 2.27476 13.3438 2.02976 14.035 2.44101L15.5488 3.30726C16.345 3.76226 16.6163 4.78601 16.1613 5.57351C15.365 6.94726 16.0125 8.06726 17.5963 8.06726C18.5063 8.06726 19.2588 8.81098 19.2588 9.72973V11.2697C19.2588 12.1797 18.515 12.9322 17.5963 12.9322C16.0125 12.9322 15.365 14.0522 16.1613 15.426C16.6163 16.2222 16.345 17.2372 15.5488 17.6922L14.035 18.5585C13.3438 18.9697 12.4513 18.7247 12.04 18.0335L11.9438 17.8672C11.1563 16.4935 9.86125 16.4935 9.065 17.8672L8.96875 18.0335C8.5575 18.7247 7.665 18.9697 6.97375 18.5585L5.46 17.6922C4.66375 17.2372 4.3925 16.2135 4.8475 15.426C5.64375 14.0522 4.99625 12.9322 3.4125 12.9322C2.49375 12.9322 1.75 12.1797 1.75 11.2697Z" stroke="#979797" stroke-width="1.5" stroke-miterlimit="10" stroke-linecap="round" stroke-linejoin="round"/>
</svg>
