<svg width="19" height="19" viewBox="0 0 19 19" fill="none" xmlns="http://www.w3.org/2000/svg">
<g clip-path="url(#clip0_2285_2148)">
<path d="M17.4167 8.62933V3.246C17.4167 2.0585 16.91 1.5835 15.6513 1.5835H12.4529C11.1942 1.5835 10.6875 2.0585 10.6875 3.246V8.62933C10.6875 9.81683 11.1942 10.2918 12.4529 10.2918H15.6513C16.91 10.2918 17.4167 9.81683 17.4167 8.62933Z" stroke="#979797" stroke-width="1.5" stroke-linecap="round" stroke-linejoin="round"/>
<path d="M17.4167 15.7545V14.3295C17.4167 13.142 16.91 12.667 15.6513 12.667H12.4529C11.1942 12.667 10.6875 13.142 10.6875 14.3295V15.7545C10.6875 16.942 11.1942 17.417 12.4529 17.417H15.6513C16.91 17.417 17.4167 16.942 17.4167 15.7545Z" stroke="#979797" stroke-width="1.5" stroke-linecap="round" stroke-linejoin="round"/>
<path d="M8.31242 10.371V15.7543C8.31242 16.9418 7.80575 17.4168 6.547 17.4168H3.34867C2.08992 17.4168 1.58325 16.9418 1.58325 15.7543V10.371C1.58325 9.1835 2.08992 8.7085 3.34867 8.7085H6.547C7.80575 8.7085 8.31242 9.1835 8.31242 10.371Z" stroke="#979797" stroke-width="1.5" stroke-linecap="round" stroke-linejoin="round"/>
<path d="M8.31242 3.246V4.671C8.31242 5.8585 7.80575 6.3335 6.547 6.3335H3.34867C2.08992 6.3335 1.58325 5.8585 1.58325 4.671V3.246C1.58325 2.0585 2.08992 1.5835 3.34867 1.5835H6.547C7.80575 1.5835 8.31242 2.0585 8.31242 3.246Z" stroke="#979797" stroke-width="1.5" stroke-linecap="round" stroke-linejoin="round"/>
</g>
<defs>
<clipPath id="clip0_2285_2148">
<rect width="19" height="19" fill="white"/>
</clipPath>
</defs>
</svg>
