<svg width="19" height="19" viewBox="0 0 19 19" fill="none" xmlns="http://www.w3.org/2000/svg">
<path d="M6.95 18H12.05C16.3 18 18 16.3 18 12.05V6.95C18 2.7 16.3 1 12.05 1H6.95C2.7 1 1 2.7 1 6.95V12.05C1 16.3 2.7 18 6.95 18Z" stroke="#979797" stroke-width="1.5" stroke-linecap="round" stroke-linejoin="round"/>
<path d="M1 10.3503H4.196C4.842 10.3503 5.4285 10.7158 5.7175 11.2938L6.474 12.8153C6.95 13.7503 7.8 13.7503 8.004 13.7503H11.0045C11.6505 13.7503 12.237 13.3848 12.526 12.8068L13.2825 11.2853C13.5715 10.7073 14.158 10.3418 14.804 10.3418H17.983" stroke="#979797" stroke-width="1.5" stroke-linecap="round" stroke-linejoin="round"/>
<path d="M8.08911 5.25H10.9196" stroke="#979797" stroke-width="1.5" stroke-linecap="round" stroke-linejoin="round"/>
<path d="M7.375 7.7998H11.625" stroke="#979797" stroke-width="1.5" stroke-linecap="round" stroke-linejoin="round"/>
</svg>
