<svg width="16" height="20" viewBox="0 0 16 20" fill="none" xmlns="http://www.w3.org/2000/svg">
<path d="M14.3333 6.87484V14.9998C14.3333 17.4998 12.8417 18.3332 11 18.3332H4.33333C2.49167 18.3332 1 17.4998 1 14.9998V6.87484C1 4.1665 2.49167 3.5415 4.33333 3.5415C4.33333 4.05817 4.54164 4.52484 4.88331 4.8665C5.22498 5.20817 5.69167 5.4165 6.20833 5.4165H9.125C10.1583 5.4165 11 4.57484 11 3.5415C12.8417 3.5415 14.3333 4.1665 14.3333 6.87484Z" stroke="#979797" stroke-width="1.5" stroke-linecap="round" stroke-linejoin="round"/>
<path d="M10.9999 3.5415C10.9999 4.57484 10.1583 5.4165 9.12492 5.4165H6.20825C5.69159 5.4165 5.22489 5.20817 4.88323 4.8665C4.54156 4.52484 4.33325 4.05817 4.33325 3.5415C4.33325 2.50817 5.17492 1.6665 6.20825 1.6665H9.12492C9.64159 1.6665 10.1083 1.87484 10.4499 2.2165C10.7916 2.55817 10.9999 3.02484 10.9999 3.5415Z" stroke="#979797" stroke-width="1.5" stroke-linecap="round" stroke-linejoin="round"/>
<path d="M4.33325 10.833H7.66659" stroke="#979797" stroke-width="1.5" stroke-linecap="round" stroke-linejoin="round"/>
<path d="M4.33325 14.1665H10.9999" stroke="#979797" stroke-width="1.5" stroke-linecap="round" stroke-linejoin="round"/>
</svg>
