<svg width="25" height="25" viewBox="0 0 25 25" fill="none" xmlns="http://www.w3.org/2000/svg">
<g clip-path="url(#clip0_2285_2091)">
<path d="M16.638 2.68626L15.9055 1.72465L16.638 0.763163C16.7971 0.554532 16.757 0.256436 16.5484 0.0973292C16.4653 0.0339959 16.3637 -0.000230292 16.2592 7.80281e-06H12.5092C12.2448 -0.00148029 12.0284 0.210067 12.0239 0.474472V4.70239H12.9763V3.45239H16.2592C16.5228 3.45179 16.736 3.23763 16.7354 2.97406C16.7352 2.87007 16.7009 2.769 16.638 2.68626Z" fill="#E6A935"/>
<path d="M1.59889 15C1.21098 14.998 0.894846 15.3108 0.892822 15.6986C0.892822 15.7017 0.892822 15.7048 0.892822 15.7079V25H6.90473V15H1.59889ZM3.15473 22.381C3.15473 22.6439 2.94151 22.8572 2.67854 22.8572C2.41556 22.8572 2.20235 22.6439 2.20235 22.381V21.3577C2.20235 21.0947 2.41556 20.8815 2.67854 20.8815C2.94151 20.8815 3.15473 21.0947 3.15473 21.3577V22.381ZM3.15473 18.3954C3.15473 18.6583 2.94151 18.8716 2.67854 18.8716C2.41556 18.8716 2.20235 18.6583 2.20235 18.3954V17.372C2.20235 17.1091 2.41556 16.8958 2.67854 16.8958C2.94151 16.8958 3.15473 17.1091 3.15473 17.372V18.3954ZM5.5952 22.381C5.5952 22.6439 5.38199 22.8572 5.11901 22.8572C4.85604 22.8572 4.64282 22.6439 4.64282 22.381V21.3577C4.64282 21.0947 4.85604 20.8815 5.11901 20.8815C5.38199 20.8815 5.5952 21.0947 5.5952 21.3577V22.381ZM5.5952 18.3954C5.5952 18.6583 5.38199 18.8716 5.11901 18.8716C4.85604 18.8716 4.64282 18.6583 4.64282 18.3954V17.372C4.64282 17.1091 4.85604 16.8958 5.11901 16.8958C5.38199 16.8958 5.5952 17.1091 5.5952 17.372V18.3954Z" fill="#0A3A81"/>
<path d="M12.4235 8.36328L7.85718 12.2474V25.0002H9.94051V20.0412C9.9342 19.7947 10.1289 19.5898 10.3754 19.5835C10.3834 19.5833 10.3915 19.5833 10.3995 19.5835H14.4928C14.7342 19.5774 14.9348 19.7682 14.9409 20.0095C14.9411 20.0201 14.941 20.0306 14.9405 20.0412V25.0002H16.9643V12.243L12.4235 8.36328ZM14.4928 16.9049H10.3726C10.1096 16.9049 9.8964 16.6917 9.8964 16.4288C9.8964 16.1658 10.1096 15.9526 10.3726 15.9526H14.4928C14.7558 15.9526 14.969 16.1658 14.969 16.4288C14.969 16.6917 14.7558 16.9049 14.4928 16.9049Z" fill="#0A3A81"/>
<path d="M23.4104 15C23.4073 15 23.4042 15 23.4012 15H17.9167V25H24.1072V15.7079C24.1103 15.32 23.7983 15.0031 23.4104 15ZM20.3572 22.381C20.3572 22.6439 20.144 22.8571 19.881 22.8571C19.6181 22.8571 19.4048 22.6439 19.4048 22.381V21.3577C19.4048 21.0947 19.6181 20.8815 19.881 20.8815C20.144 20.8815 20.3572 21.0947 20.3572 21.3577V22.381ZM20.3572 18.3954C20.3572 18.6583 20.144 18.8715 19.881 18.8715C19.6181 18.8715 19.4048 18.6583 19.4048 18.3954V17.372C19.4048 17.109 19.6181 16.8958 19.881 16.8958C20.144 16.8958 20.3572 17.109 20.3572 17.372V18.3954ZM22.7382 22.381C22.7382 22.6439 22.525 22.8571 22.262 22.8571C21.999 22.8571 21.7858 22.6439 21.7858 22.381V21.3577C21.7858 21.0947 21.999 20.8815 22.262 20.8815C22.525 20.8815 22.7382 21.0947 22.7382 21.3577V22.381ZM22.7382 18.3954C22.7382 18.6583 22.525 18.8715 22.262 18.8715C21.999 18.8715 21.7858 18.6583 21.7858 18.3954V17.372C21.7858 17.109 21.999 16.8958 22.262 16.8958C22.525 16.8958 22.7382 17.109 22.7382 17.372V18.3954Z" fill="#0A3A81"/>
<path d="M12.4465 5.34717L5.63208 11.1811L6.49327 12.1832L12.1374 7.37395C12.3157 7.22205 12.5779 7.22229 12.7559 7.37461L18.3765 12.1851L19.2575 11.1784L12.4465 5.34717Z" fill="#E6A935"/>
<path d="M13.9881 20.5356H10.8928V24.9999H13.9881V20.5356Z" fill="#E6A935"/>
</g>
<defs>
<clipPath id="clip0_2285_2091">
<rect width="25" height="25" fill="white"/>
</clipPath>
</defs>
</svg>
