<svg width="18" height="20" viewBox="0 0 18 20" fill="none" xmlns="http://www.w3.org/2000/svg">
<path d="M17.2 4.58184C14.203 4.28484 11.188 4.13184 8.182 4.13184C6.4 4.13184 4.618 4.22184 2.836 4.40184L1 4.58184" stroke="#979797" stroke-width="1.5" stroke-linecap="round" stroke-linejoin="round"/>
<path d="M5.94995 3.673L6.14795 2.494C6.29195 1.639 6.39995 1 7.92095 1H10.279C11.8 1 11.917 1.675 12.052 2.503L12.25 3.673" stroke="#979797" stroke-width="1.5" stroke-linecap="round" stroke-linejoin="round"/>
<path d="M15.265 7.42627L14.68 16.4893C14.581 17.9023 14.5 19.0003 11.989 19.0003H6.21106C3.70006 19.0003 3.61906 17.9023 3.52006 16.4893L2.93506 7.42627" stroke="#979797" stroke-width="1.5" stroke-linecap="round" stroke-linejoin="round"/>
<path d="M7.59692 14.0498H10.5939" stroke="#979797" stroke-width="1.5" stroke-linecap="round" stroke-linejoin="round"/>
<path d="M6.8501 10.4502H11.3501" stroke="#979797" stroke-width="1.5" stroke-linecap="round" stroke-linejoin="round"/>
</svg>
