<svg width="18" height="19" viewBox="0 0 18 19" fill="none" xmlns="http://www.w3.org/2000/svg">
<path d="M6.67928 8.39167C6.59595 8.38333 6.49595 8.38333 6.40428 8.39167C4.42095 8.325 2.84595 6.7 2.84595 4.7C2.84595 2.65833 4.49595 1 6.54595 1C8.58765 1 10.246 2.65833 10.246 4.7C10.2376 6.7 8.66265 8.325 6.67928 8.39167Z" stroke="#979797" stroke-width="1.5" stroke-linecap="round" stroke-linejoin="round"/>
<path d="M12.7209 2.6665C14.3375 2.6665 15.6375 3.97484 15.6375 5.58317C15.6375 7.15817 14.3875 8.4415 12.8292 8.49984C12.7625 8.4915 12.6875 8.4915 12.6125 8.49984" stroke="#979797" stroke-width="1.5" stroke-linecap="round" stroke-linejoin="round"/>
<path d="M2.5125 11.4665C0.495833 12.8165 0.495833 15.0165 2.5125 16.3582C4.80417 17.8915 8.56253 17.8915 10.8542 16.3582C12.8709 15.0082 12.8709 12.8082 10.8542 11.4665C8.57086 9.9415 4.8125 9.9415 2.5125 11.4665Z" stroke="#979797" stroke-width="1.5" stroke-linecap="round" stroke-linejoin="round"/>
<path d="M14.3293 16C14.9293 15.875 15.496 15.6333 15.9627 15.275C17.2627 14.3 17.2627 12.6917 15.9627 11.7167C15.5043 11.3667 14.946 11.1333 14.3543 11" stroke="#979797" stroke-width="1.5" stroke-linecap="round" stroke-linejoin="round"/>
</svg>
