<svg width="20" height="19" viewBox="0 0 20 19" fill="none" xmlns="http://www.w3.org/2000/svg">
<path d="M18.7185 8.1495L17.8359 11.914C17.0794 15.1652 15.5844 16.4801 12.7745 16.2099C12.3242 16.1739 11.8379 16.0928 11.3156 15.9668L9.80253 15.6065C6.04697 14.7149 4.88519 12.8597 5.76778 9.09513L6.65038 5.3216C6.8305 4.55608 7.04664 3.88964 7.31682 3.34027C8.37057 1.1608 10.1628 0.575403 13.1708 1.28688L14.6748 1.63812C18.4484 2.52071 19.6011 4.38497 18.7185 8.1495Z" stroke="#134085" stroke-width="1.5" stroke-linecap="round" stroke-linejoin="round"/>
<path d="M12.7746 16.21C12.2162 16.5883 11.5137 16.9035 10.6581 17.1827L9.23519 17.651C5.65976 18.8038 3.77748 17.8401 2.6157 14.2647L1.46292 10.7073C0.310147 7.13189 1.26479 5.24061 4.8402 4.08784L6.26316 3.61952C6.63241 3.50244 6.98364 3.40337 7.31687 3.34033C7.04669 3.8897 6.83054 4.55615 6.65042 5.32167L5.76782 9.09523C4.88523 12.8598 6.04702 14.715 9.80257 15.6066L11.3156 15.9669C11.8379 16.0929 12.3243 16.174 12.7746 16.21Z" stroke="#134085" stroke-width="1.5" stroke-linecap="round" stroke-linejoin="round"/>
<path d="M10.5952 6.4292L14.9632 7.53695" stroke="#134085" stroke-width="1.5" stroke-linecap="round" stroke-linejoin="round"/>
<path d="M9.71265 9.91455L12.3244 10.581" stroke="#134085" stroke-width="1.5" stroke-linecap="round" stroke-linejoin="round"/>
</svg>
