<svg width="16" height="19" viewBox="0 0 16 19" fill="none" xmlns="http://www.w3.org/2000/svg">
<path d="M14.3333 6.20833V14.3333C14.3333 16.8333 12.8417 17.6667 11 17.6667H4.33333C2.49167 17.6667 1 16.8333 1 14.3333V6.20833C1 3.5 2.49167 2.875 4.33333 2.875C4.33333 3.39167 4.54164 3.85833 4.88331 4.2C5.22498 4.54167 5.69167 4.75 6.20833 4.75H9.125C10.1583 4.75 11 3.90833 11 2.875C12.8417 2.875 14.3333 3.5 14.3333 6.20833Z" stroke="#134085" stroke-width="1.5" stroke-linecap="round" stroke-linejoin="round"/>
<path d="M10.9999 2.875C10.9999 3.90833 10.1583 4.75 9.12492 4.75H6.20825C5.69159 4.75 5.22489 4.54167 4.88323 4.2C4.54156 3.85833 4.33325 3.39167 4.33325 2.875C4.33325 1.84167 5.17492 1 6.20825 1H9.12492C9.64159 1 10.1083 1.20833 10.4499 1.55C10.7916 1.89167 10.9999 2.35833 10.9999 2.875Z" stroke="#134085" stroke-width="1.5" stroke-linecap="round" stroke-linejoin="round"/>
<path d="M4.33325 10.1667H7.66659" stroke="#134085" stroke-width="1.5" stroke-linecap="round" stroke-linejoin="round"/>
<path d="M4.33325 13.5H10.9999" stroke="#134085" stroke-width="1.5" stroke-linecap="round" stroke-linejoin="round"/>
</svg>
