<svg width="18" height="19" viewBox="0 0 18 19" fill="none" xmlns="http://www.w3.org/2000/svg">
<path d="M15.875 9.1375V5.41001C15.875 1.88376 15.0525 1 11.745 1H5.13C1.8225 1 1 1.88376 1 5.41001V15.2625C1 17.59 5.1825 17.1875 6.6875 17.1875" stroke="#134085" stroke-width="1.5" stroke-linecap="round" stroke-linejoin="round"/>
<path d="M4.9375 5.375H11.9375" stroke="#134085" stroke-width="1.5" stroke-linecap="round" stroke-linejoin="round"/>
<path d="M5.8125 8.875H11.0625" stroke="#134085" stroke-width="1.5" stroke-linecap="round" stroke-linejoin="round"/>
<path d="M13.8721 12.174L10.7746 15.2715C10.6521 15.394 10.5384 15.6215 10.5121 15.7878L10.3459 16.969C10.2846 17.3978 10.5821 17.6953 11.0109 17.634L12.1921 17.4678C12.3584 17.4415 12.5946 17.3278 12.7084 17.2053L15.8059 14.1078C16.3396 13.574 16.5934 12.9528 15.8059 12.1653C15.0271 11.3865 14.4059 11.6403 13.8721 12.174Z" stroke="#134085" stroke-width="1.5" stroke-miterlimit="10" stroke-linecap="round" stroke-linejoin="round"/>
<path d="M13.4243 12.6204C13.6868 13.5654 14.4218 14.3004 15.3668 14.5629" stroke="#134085" stroke-width="1.5" stroke-miterlimit="10" stroke-linecap="round" stroke-linejoin="round"/>
</svg>
