<svg width="347" height="394" viewBox="0 0 347 394" fill="none" xmlns="http://www.w3.org/2000/svg">
<g clip-path="url(#clip0_517_7386)">
<path d="M237.138 330.607L240.437 393.964C240.437 393.964 100.915 261.116 83.5331 222.247C66.1512 183.377 98.8701 87.2256 98.8701 87.2256L171.465 127.118L237.138 330.607Z" fill="#9F616A"/>
<path d="M23.2076 60.6306L1.73585 62.6764C1.73585 62.6764 -9.5113 87.2257 25.2526 89.2714L23.2076 60.6306Z" fill="#9F616A"/>
<path d="M23.2076 98.4773L1.73585 100.523C1.73585 100.523 -9.5113 125.072 25.2526 127.118L23.2076 98.4773Z" fill="#9F616A"/>
<path d="M23.2076 139.393L1.73585 141.439C1.73585 141.439 -9.5113 165.988 25.2526 168.034L23.2076 139.393Z" fill="#9F616A"/>
<path d="M29.3424 180.308L7.87062 182.354C7.87062 182.354 -3.37654 206.903 31.3873 208.949L29.3424 180.308Z" fill="#9F616A"/>
<path d="M12.7543 70.4929H14.3835V25.8425C14.3835 22.4488 15.0517 19.0883 16.3498 15.953C17.648 12.8176 19.5507 9.96879 21.9494 7.56909C24.3482 5.1694 27.1958 3.26586 30.3299 1.96715C33.464 0.668444 36.823 2.60009e-06 40.2153 0H134.774C138.167 -6.9334e-06 141.526 0.668423 144.66 1.96712C147.794 3.26582 150.642 5.16935 153.04 7.56904C155.439 9.96873 157.342 12.8176 158.64 15.9529C159.938 19.0883 160.606 22.4487 160.606 25.8424V270.798C160.606 274.192 159.938 277.552 158.64 280.687C157.342 283.823 155.439 286.672 153.04 289.071C150.642 291.471 147.794 293.375 144.66 294.673C141.526 295.972 138.167 296.64 134.775 296.64H40.2154C33.3644 296.641 26.794 293.918 21.9495 289.071C17.1051 284.225 14.3835 277.652 14.3835 270.798V102.276H12.7543V70.4929Z" fill="#3F3D56"/>
<path d="M39.173 6.72341H51.5161C50.9485 8.11562 50.7318 9.6261 50.8852 11.1218C51.0386 12.6175 51.5572 14.0526 52.3956 15.3005C53.2339 16.5484 54.3661 17.571 55.6925 18.278C57.0189 18.9851 58.4988 19.3549 60.0017 19.3551H114.173C115.676 19.355 117.156 18.9851 118.483 18.278C119.809 17.571 120.941 16.5484 121.78 15.3005C122.618 14.0526 123.137 12.6175 123.29 11.1218C123.443 9.6261 123.227 8.1156 122.659 6.72339H134.188C139.304 6.72338 144.211 8.75664 147.828 12.3759C151.446 15.9951 153.479 20.9038 153.479 26.0222V270.618C153.479 273.153 152.98 275.662 152.01 278.004C151.041 280.345 149.62 282.473 147.828 284.265C146.037 286.057 143.91 287.478 141.57 288.448C139.229 289.418 136.721 289.917 134.188 289.917H39.173C36.6397 289.917 34.1312 289.418 31.7907 288.448C29.4502 287.478 27.3236 286.057 25.5323 284.265C23.7409 282.473 22.32 280.345 21.3505 278.004C20.381 275.662 19.8821 273.153 19.8821 270.618V26.0222C19.8821 23.4879 20.381 20.9783 21.3505 18.6369C22.32 16.2954 23.7409 14.168 25.5323 12.3759C27.3236 10.5838 29.4502 9.16229 31.7907 8.19243C34.1312 7.22258 36.6397 6.72341 39.173 6.72341Z" fill="white"/>
<path d="M107.037 75.2471H66.3236V85.0756H107.037V75.2471Z" fill="black"/>
<path d="M108.975 117.48H64.3854V127.308H108.975V117.48Z" fill="#E5E5E5"/>
<path d="M136.441 138.593H36.92V148.421H136.441V138.593Z" fill="#E5E5E5"/>
<path d="M136.441 159.706H36.92V169.534H136.441V159.706Z" fill="#E5E5E5"/>
<path d="M346.67 393.634L219.01 232.987L214.92 149.11L171.977 77.5081L159.707 46.8215C159.707 46.8215 131.078 49.8902 154.595 108.195L164.308 139.393C155.552 158.259 151.016 178.81 151.016 199.611V271.101C151.016 287.934 231.202 379.627 240.536 393.634H346.67Z" fill="#9F616A"/>
<path opacity="0.2" d="M163.074 83.5756L171.611 79.3782L171.32 78.7856L163.432 82.6642L151.524 51.4326L150.908 51.6682L163.074 83.5756Z" fill="black"/>
<path opacity="0.2" d="M1.85025 62.3657L1.62219 62.9851L14.2691 67.6457L14.4972 67.0264L1.85025 62.3657Z" fill="black"/>
<path opacity="0.2" d="M1.85025 100.644L1.62219 101.263L14.2691 105.924L14.4972 105.304L1.85025 100.644Z" fill="black"/>
<path opacity="0.2" d="M1.85025 141.562L1.62219 142.181L14.2691 146.842L14.4972 146.222L1.85025 141.562Z" fill="black"/>
<path opacity="0.2" d="M8.47595 182.492L8.19055 183.087L14.3478 186.043L14.6332 185.448L8.47595 182.492Z" fill="black"/>
<path d="M86.7308 254.355C102.481 254.355 115.249 241.581 115.249 225.824C115.249 210.067 102.481 197.294 86.7308 197.294C70.9804 197.294 58.2122 210.067 58.2122 225.824C58.2122 241.581 70.9804 254.355 86.7308 254.355Z" fill="black"/>
<path d="M84.0129 237.868L75.4778 226.888L80.4413 223.026L84.4826 228.224L98.1364 213.805L102.702 218.133L84.0129 237.868Z" fill="white"/>
</g>
<defs>
<clipPath id="clip0_517_7386">
<rect width="347" height="394" fill="white"/>
</clipPath>
</defs>
</svg>
