<svg width="25" height="25" viewBox="0 0 25 25" fill="none" xmlns="http://www.w3.org/2000/svg">
<path d="M14.3158 22.1842V16.5341C14.3158 16.2837 14.4448 16.0509 14.6572 15.9182L23.6586 10.2924C23.871 10.1596 24 9.92679 24 9.67645V8.58819C24 8.1156 23.5559 7.76891 23.0975 7.88354L15.2183 9.85331C14.7598 9.96795 14.3158 9.62125 14.3158 9.14866V5.56648C14.3158 5.35694 14.4062 5.15768 14.5638 5.0198L17.1789 2.73167C17.7337 2.24613 17.296 1.33847 16.5707 1.47042L12.6299 2.18693C12.5441 2.20255 12.4559 2.20255 12.3701 2.18693L8.42925 1.47042C7.70402 1.33847 7.2663 2.24613 7.82108 2.73167L10.4362 5.0198C10.5938 5.15768 10.6842 5.35694 10.6842 5.56648V9.14866C10.6842 9.62125 10.2402 9.96795 9.78177 9.85331L1.90246 7.88354C1.44403 7.76891 1.00001 8.1156 1.00001 8.58819V9.67645C1.00001 9.92679 1.12905 10.1596 1.34138 10.2924L10.3428 15.9182C10.5552 16.0509 10.6842 16.2837 10.6842 16.5341V22.1842C10.6842 23.187 11.4972 24 12.5 24C13.5028 24 14.3158 23.187 14.3158 22.1842Z" stroke="white" stroke-width="2" stroke-linecap="round" stroke-linejoin="round"/>
</svg>
