<svg width="320" height="256" viewBox="0 0 320 256" fill="none" xmlns="http://www.w3.org/2000/svg">
<path d="M316.371 191.619C312.645 214.423 295.853 232.079 277.977 247.51C275.481 249.665 272.979 251.778 270.471 253.849C270.454 253.859 270.437 253.879 270.419 253.889C270.298 253.988 270.177 254.088 270.066 254.186C269.548 254.613 269.03 255.04 268.517 255.462L268.839 255.562L269.842 255.868C269.498 255.774 269.158 255.685 268.814 255.591C268.711 255.562 268.604 255.537 268.502 255.508C256.649 252.324 244.556 248.831 234.867 241.372C224.814 233.625 217.892 220.418 221.358 208.25C221.815 206.656 222.449 205.117 223.248 203.663C223.575 203.054 223.935 202.466 224.314 201.885C226.605 198.307 229.813 195.4 233.608 193.463C237.403 191.526 241.649 190.629 245.908 190.865C250.167 191.1 254.286 192.46 257.842 194.803C261.398 197.147 264.262 200.39 266.139 204.199C265.97 190.792 253.655 181.015 242.104 174.095C230.549 167.18 217.466 159.709 213.833 146.79C211.808 139.602 213.512 132.199 217.489 125.944C217.612 125.754 217.736 125.564 217.864 125.377C222.742 118.063 230.215 112.848 238.79 110.773C254.792 107.163 271.561 113.812 284.686 123.61C305.809 139.372 320.607 165.691 316.371 191.619Z" fill="#F2F2F2"/>
<path d="M282.432 166.428C286.123 170.868 289.143 175.819 291.397 181.126C293.335 185.878 294.548 190.892 294.995 196.001C295.967 206.495 293.965 217.103 289.972 226.815C286.866 234.188 282.836 241.142 277.976 247.51C275.48 249.665 272.979 251.778 270.471 253.849C270.453 253.859 270.436 253.878 270.419 253.889C270.298 253.988 270.177 254.087 270.065 254.186C269.548 254.613 269.03 255.04 268.516 255.462L268.838 255.562L269.842 255.868C269.498 255.774 269.158 255.685 268.813 255.591C268.711 255.562 268.604 255.537 268.501 255.508C268.517 247.127 266.512 238.863 262.655 231.411C258.797 223.959 253.2 217.534 246.332 212.676C239.459 207.905 231.549 204.817 223.248 203.663C223.575 203.054 223.935 202.466 224.314 201.885C227.526 202.381 230.688 203.157 233.762 204.207C244.749 207.926 254.239 215.065 260.829 224.566C266.755 233.2 270.081 243.336 270.416 253.785C270.83 253.311 271.243 252.827 271.643 252.35C279.271 243.36 285.797 233.306 289.687 222.139C293.087 212.67 294.094 202.514 292.619 192.566C290.883 181.734 285.305 172.175 277.933 164.155C270.036 155.571 260.554 148.275 250.632 142.158C240.467 135.88 229.568 130.863 218.177 127.217C217.92 127.133 217.705 126.954 217.577 126.717C217.449 126.48 217.417 126.204 217.489 125.944C217.534 125.713 217.669 125.51 217.864 125.377C217.966 125.319 218.079 125.283 218.196 125.274C218.313 125.265 218.431 125.283 218.541 125.325C219.947 125.776 221.345 126.237 222.736 126.725C234.321 130.794 245.352 136.278 255.577 143.052C265.451 149.576 274.931 157.244 282.432 166.428Z" fill="white"/>
<path d="M174.862 40.2487C174.203 38.6939 173.101 37.3652 171.691 36.4271C170.281 35.489 168.625 34.9826 166.929 34.9706H8.58357C6.30744 34.9718 4.12488 35.8715 2.51542 37.472C0.905951 39.0725 0.00122303 41.2429 0 43.5063V242.713C0.00122303 244.976 0.905951 247.146 2.51542 248.747C4.12488 250.347 6.30744 251.247 8.58357 251.248H166.935C169.21 251.245 171.392 250.345 173.001 248.745C174.61 247.145 175.515 244.976 175.518 242.713V43.5063C175.522 42.3882 175.301 41.2806 174.867 40.2487H174.862ZM173.606 242.713C173.604 244.473 172.9 246.161 171.648 247.406C170.396 248.65 168.699 249.351 166.929 249.353H8.58357C6.81291 249.353 5.11482 248.653 3.86266 247.408C2.6105 246.163 1.90676 244.475 1.90616 242.714V43.5075C1.90857 41.7471 2.61286 40.0596 3.8646 38.8148C5.11633 37.57 6.81335 36.8697 8.58357 36.8673H166.935C168.268 36.8723 169.57 37.2723 170.674 38.0163C171.778 38.7603 172.634 39.8145 173.132 41.0443C173.23 41.2894 173.313 41.5395 173.384 41.7935C173.535 42.3524 173.612 42.9287 173.612 43.5075L173.606 242.713Z" fill="#3F3D56"/>
<path d="M141.816 82.0027H94.1205C93.1085 82.0027 92.1379 81.6029 91.4223 80.8913C90.7067 80.1797 90.3047 79.2145 90.3047 78.2081C90.3047 77.2018 90.7067 76.2366 91.4223 75.525C92.1379 74.8134 93.1085 74.4136 94.1205 74.4136H141.816C142.828 74.4136 143.799 74.8134 144.515 75.525C145.23 76.2366 145.632 77.2018 145.632 78.2081C145.632 79.2145 145.23 80.1797 144.515 80.8913C143.799 81.6029 142.828 82.0027 141.816 82.0027Z" fill="#3F3D56"/>
<path d="M141.818 101.923H94.1217C93.6202 101.924 93.1234 101.826 92.6599 101.636C92.1963 101.445 91.7751 101.166 91.4202 100.814C91.0653 100.461 90.7838 100.043 90.5917 99.582C90.3997 99.1212 90.3008 98.6274 90.3008 98.1287C90.3008 97.6299 90.3997 97.1361 90.5917 96.6754C90.7838 96.2147 91.0653 95.7961 91.4202 95.4437C91.7751 95.0913 92.1963 94.8119 92.6599 94.6215C93.1234 94.4311 93.6202 94.3334 94.1217 94.3341H141.818C142.319 94.3334 142.816 94.4311 143.279 94.6215C143.743 94.8119 144.164 95.0913 144.519 95.4437C144.874 95.7961 145.155 96.2147 145.347 96.6754C145.54 97.1361 145.638 97.6299 145.638 98.1287C145.638 98.6274 145.54 99.1212 145.347 99.582C145.155 100.043 144.874 100.461 144.519 100.814C144.164 101.166 143.743 101.445 143.279 101.636C142.816 101.826 142.319 101.924 141.818 101.923Z" fill="#3F3D56"/>
<path d="M69.6488 113.266H34.7929C33.6547 113.265 32.5635 112.815 31.7587 112.014C30.9539 111.214 30.5012 110.129 30.5 108.997V68.0933C30.5012 66.9615 30.9539 65.8764 31.7587 65.076C32.5635 64.2757 33.6547 63.8255 34.7929 63.8243H69.6488C70.787 63.8255 71.8782 64.2757 72.683 65.076C73.4879 65.8764 73.9405 66.9615 73.9417 68.0933V108.997C73.9405 110.129 73.4879 111.214 72.683 112.014C71.8782 112.815 70.787 113.265 69.6488 113.266Z" fill="#073374"/>
<path d="M141.487 142.713H33.6947C32.6827 142.713 31.7121 142.314 30.9965 141.602C30.2809 140.89 29.8789 139.925 29.8789 138.919C29.8789 137.912 30.2809 136.947 30.9965 136.236C31.7121 135.524 32.6827 135.124 33.6947 135.124H141.487C142.499 135.124 143.47 135.524 144.185 136.236C144.901 136.947 145.303 137.912 145.303 138.919C145.303 139.925 144.901 140.89 144.185 141.602C143.47 142.314 142.499 142.713 141.487 142.713Z" fill="#CCCCCC"/>
<path d="M141.487 162.634H33.6947C32.6827 162.634 31.7121 162.234 30.9965 161.523C30.2809 160.811 29.8789 159.846 29.8789 158.839C29.8789 157.833 30.2809 156.868 30.9965 156.156C31.7121 155.445 32.6827 155.045 33.6947 155.045H141.487C142.499 155.045 143.47 155.445 144.185 156.156C144.901 156.868 145.303 157.833 145.303 158.839C145.303 159.846 144.901 160.811 144.185 161.523C143.47 162.234 142.499 162.634 141.487 162.634Z" fill="#CCCCCC"/>
<path d="M141.486 182.555H33.6935C32.6824 182.553 31.7131 182.153 30.9986 181.442C30.2841 180.73 29.8828 179.766 29.8828 178.76C29.8828 177.755 30.2841 176.79 30.9986 176.079C31.7131 175.367 32.6824 174.967 33.6935 174.966H141.486C141.987 174.965 142.484 175.063 142.948 175.253C143.411 175.443 143.832 175.723 144.187 176.075C144.542 176.428 144.824 176.846 145.016 177.307C145.208 177.768 145.307 178.261 145.307 178.76C145.307 179.259 145.208 179.753 145.016 180.213C144.824 180.674 144.542 181.093 144.187 181.445C143.832 181.798 143.411 182.077 142.948 182.267C142.484 182.458 141.987 182.555 141.486 182.555Z" fill="#CCCCCC"/>
<path d="M141.487 202.475H33.6947C32.6827 202.475 31.7121 202.075 30.9965 201.364C30.2809 200.652 29.8789 199.687 29.8789 198.681C29.8789 197.674 30.2809 196.709 30.9965 195.998C31.7121 195.286 32.6827 194.886 33.6947 194.886H141.487C142.499 194.886 143.47 195.286 144.185 195.998C144.901 196.709 145.303 197.674 145.303 198.681C145.303 199.687 144.901 200.652 144.185 201.364C143.47 202.075 142.499 202.475 141.487 202.475Z" fill="#CCCCCC"/>
<path d="M176.046 73.2398C196.383 73.2398 212.871 56.8445 212.871 36.6199C212.871 16.3953 196.383 0 176.046 0C155.708 0 139.221 16.3953 139.221 36.6199C139.221 56.8445 155.708 73.2398 176.046 73.2398Z" fill="#073374"/>
<path d="M172.396 50.5893C171.567 50.5907 170.761 50.3241 170.098 49.8299L170.057 49.7992L161.402 43.2158C161.002 42.9102 160.665 42.5291 160.413 42.0943C160.16 41.6594 159.996 41.1793 159.93 40.6814C159.863 40.1835 159.897 39.6775 160.027 39.1923C160.158 38.7071 160.383 38.2523 160.69 37.8537C160.998 37.4551 161.381 37.1206 161.818 36.8693C162.255 36.618 162.738 36.4548 163.239 36.389C163.739 36.3232 164.248 36.3562 164.736 36.486C165.224 36.6157 165.682 36.8398 166.082 37.1454L171.688 41.4201L184.934 24.235C185.241 23.8366 185.625 23.5022 186.062 23.251C186.499 22.9998 186.981 22.8367 187.482 22.771C187.982 22.7052 188.491 22.7381 188.979 22.8679C189.466 22.9976 189.924 23.2216 190.324 23.527L190.325 23.5279L190.243 23.6414L190.328 23.5279C191.136 24.1456 191.665 25.0571 191.798 26.0621C191.931 27.0672 191.658 28.0838 191.039 28.8888L175.458 49.0932C175.098 49.5587 174.634 49.9354 174.104 50.1941C173.573 50.4527 172.99 50.5864 172.399 50.5847L172.396 50.5893Z" fill="white"/>
<path d="M319.319 251.57H68.7804C68.5999 251.57 68.4267 251.499 68.299 251.372C68.1713 251.245 68.0996 251.073 68.0996 250.893C68.0996 250.713 68.1713 250.541 68.299 250.414C68.4267 250.287 68.5999 250.216 68.7804 250.216H319.319C319.5 250.216 319.673 250.287 319.801 250.414C319.928 250.541 320 250.713 320 250.893C320 251.073 319.928 251.245 319.801 251.372C319.673 251.499 319.5 251.57 319.319 251.57Z" fill="#3F3D56"/>
</svg>
