<svg width="23" height="23" viewBox="0 0 23 23" fill="none" xmlns="http://www.w3.org/2000/svg">
<path d="M20.2973 10.7651V6.29204C20.2973 2.06052 19.2303 1 14.9395 1H6.35784C2.06703 1 1 2.06052 1 6.29204V18.1151C1 20.9081 2.65731 21.5696 4.6665 19.5746L4.67783 19.5641C5.60864 18.6506 7.02756 18.7241 7.8335 19.7216L8.98 21.1391" stroke="#0A3A81" stroke-width="1.5" stroke-linecap="round" stroke-linejoin="round"/>
<path d="M17.6866 21.3702C19.6927 21.3702 21.319 19.8658 21.319 18.0102C21.319 16.1545 19.6927 14.6501 17.6866 14.6501C15.6804 14.6501 14.0541 16.1545 14.0541 18.0102C14.0541 19.8658 15.6804 21.3702 17.6866 21.3702Z" stroke="#0A3A81" stroke-width="1.5" stroke-linecap="round" stroke-linejoin="round"/>
<path d="M22 22.0001L20.8649 20.9501" stroke="#0A3A81" stroke-width="1.5" stroke-linecap="round" stroke-linejoin="round"/>
<path d="M6.10809 6.25H15.1892" stroke="#0A3A81" stroke-width="1.5" stroke-linecap="round" stroke-linejoin="round"/>
<path d="M7.24329 10.4501H14.0541" stroke="#0A3A81" stroke-width="1.5" stroke-linecap="round" stroke-linejoin="round"/>
</svg>
