<svg width="23" height="23" viewBox="0 0 23 23" fill="none" xmlns="http://www.w3.org/2000/svg">
<path d="M21.4089 11.2685V6.56485C21.4089 2.11519 20.2804 1 15.7424 1H6.66647C2.12849 1 1 2.11519 1 6.56485V18.9974C1 21.9344 6.7385 21.4265 8.8034 21.4265" stroke="#0A3A81" stroke-width="1.5" stroke-linecap="round" stroke-linejoin="round"/>
<path d="M6.40247 6.52075H16.0066" stroke="#0A3A81" stroke-width="1.5" stroke-linecap="round" stroke-linejoin="round"/>
<path d="M6.48816 10.937H14.8061M6.48816 14.8803H14.8061" stroke="#0A3A81" stroke-width="1.5" stroke-linecap="round" stroke-linejoin="round"/>
<path d="M18.6609 15.1002L14.411 19.0089C14.243 19.1634 14.0869 19.4505 14.0509 19.6603L13.8228 21.1509C13.7388 21.6919 14.1469 22.0673 14.7352 21.99L16.3559 21.7802C16.584 21.7471 16.9081 21.6036 17.0642 21.449L21.3141 17.5404C22.0464 16.8668 22.3945 16.0829 21.3141 15.0892C20.2456 14.1065 19.3932 14.4267 18.6609 15.1002Z" stroke="#0A3A81" stroke-width="1.5" stroke-miterlimit="10" stroke-linecap="round" stroke-linejoin="round"/>
<path d="M18.0465 15.6633C18.4067 16.8558 19.4151 17.7833 20.7117 18.1145" stroke="#0A3A81" stroke-width="1.5" stroke-miterlimit="10" stroke-linecap="round" stroke-linejoin="round"/>
</svg>
