<svg width="23" height="23" viewBox="0 0 23 23" fill="none" xmlns="http://www.w3.org/2000/svg">
<path d="M8.77839 10.417C8.68256 10.4075 8.56756 10.4075 8.46214 10.417C6.18131 10.3404 4.37006 8.47163 4.37006 6.17163C4.37006 3.82371 6.26756 1.91663 8.62506 1.91663C10.973 1.91663 12.8801 3.82371 12.8801 6.17163C12.8705 8.47163 11.0593 10.3404 8.77839 10.417Z" stroke="#0A3A81" stroke-width="1.5" stroke-linecap="round" stroke-linejoin="round"/>
<path d="M15.7263 3.83325C17.5854 3.83325 19.0804 5.33784 19.0804 7.18742C19.0804 8.99867 17.6429 10.4745 15.8509 10.5416C15.7742 10.532 15.6879 10.532 15.6017 10.5416" stroke="#0A3A81" stroke-width="1.5" stroke-linecap="round" stroke-linejoin="round"/>
<path d="M3.98663 13.9533C1.66746 15.5058 1.66746 18.0358 3.98663 19.5787C6.62205 21.342 10.9442 21.342 13.5796 19.5787C15.8987 18.0262 15.8987 15.4962 13.5796 13.9533C10.9537 12.1995 6.63163 12.1995 3.98663 13.9533Z" stroke="#0A3A81" stroke-width="1.5" stroke-linecap="round" stroke-linejoin="round"/>
<path d="M17.5759 19.1666C18.2659 19.0229 18.9176 18.745 19.4543 18.3329C20.9493 17.2116 20.9493 15.362 19.4543 14.2408C18.9272 13.8383 18.2851 13.57 17.6047 13.4166" stroke="#0A3A81" stroke-width="1.5" stroke-linecap="round" stroke-linejoin="round"/>
</svg>
