<svg width="25" height="25" viewBox="0 0 25 25" fill="none" xmlns="http://www.w3.org/2000/svg">
<path d="M13.5418 22.9168H5.2085C3.12516 22.9168 2.0835 21.8752 2.0835 19.7918V11.4585C2.0835 9.37516 3.12516 8.3335 5.2085 8.3335H10.4168V19.7918C10.4168 21.8752 11.4585 22.9168 13.5418 22.9168Z" stroke="white" stroke-width="1.5" stroke-miterlimit="10" stroke-linecap="round" stroke-linejoin="round"/>
<path d="M10.5314 4.16699C10.4481 4.47949 10.4168 4.82324 10.4168 5.20866V8.33366H5.2085V6.25033C5.2085 5.10449 6.146 4.16699 7.29183 4.16699H10.5314Z" stroke="white" stroke-width="1.5" stroke-miterlimit="10" stroke-linecap="round" stroke-linejoin="round"/>
<path d="M14.5835 8.3335V13.5418" stroke="white" stroke-width="1.5" stroke-miterlimit="10" stroke-linecap="round" stroke-linejoin="round"/>
<path d="M18.75 8.3335V13.5418" stroke="white" stroke-width="1.5" stroke-miterlimit="10" stroke-linecap="round" stroke-linejoin="round"/>
<path d="M17.7085 17.7085H15.6252C15.0522 17.7085 14.5835 18.1772 14.5835 18.7502V22.9168H18.7502V18.7502C18.7502 18.1772 18.2814 17.7085 17.7085 17.7085Z" stroke="white" stroke-width="1.5" stroke-miterlimit="10" stroke-linecap="round" stroke-linejoin="round"/>
<path d="M6.25 13.542V17.7087" stroke="white" stroke-width="1.5" stroke-miterlimit="10" stroke-linecap="round" stroke-linejoin="round"/>
<path d="M10.417 19.7918V5.2085C10.417 3.12516 11.4587 2.0835 13.542 2.0835H19.792C21.8753 2.0835 22.917 3.12516 22.917 5.2085V19.7918C22.917 21.8752 21.8753 22.9168 19.792 22.9168H13.542C11.4587 22.9168 10.417 21.8752 10.417 19.7918Z" stroke="white" stroke-width="1.5" stroke-miterlimit="10" stroke-linecap="round" stroke-linejoin="round"/>
</svg>
