<svg width="18" height="18" viewBox="0 0 18 18" fill="none" xmlns="http://www.w3.org/2000/svg">
<path d="M12.2 1H5.8C2.6 1 1 2.6 1 5.8V16.2C1 16.64 1.36 17 1.8 17H12.2C15.4 17 17 15.4 17 12.2V5.8C17 2.6 15.4 1 12.2 1Z" stroke="#0A3A81" stroke-width="1.5" stroke-linecap="round" stroke-linejoin="round"/>
<path d="M9.72789 5.67202L5.57593 9.82402C5.41593 9.98402 5.26393 10.296 5.23193 10.52L5.00792 12.104C4.92792 12.68 5.32793 13.08 5.90393 13L7.48789 12.776C7.71189 12.744 8.02389 12.592 8.18389 12.432L12.3359 8.28002C13.0479 7.56802 13.3919 6.73602 12.3359 5.68002C11.2799 4.61602 10.4479 4.95202 9.72789 5.67202Z" stroke="#0A3A81" stroke-width="1.5" stroke-miterlimit="10" stroke-linecap="round" stroke-linejoin="round"/>
<path d="M9.13574 6.26379C9.48774 7.51977 10.4717 8.51177 11.7357 8.86377" stroke="#0A3A81" stroke-width="1.5" stroke-miterlimit="10" stroke-linecap="round" stroke-linejoin="round"/>
</svg>
