<svg width="26" height="23" viewBox="0 0 26 23" fill="none" xmlns="http://www.w3.org/2000/svg">
<path d="M1 7.17627H12.5051" stroke="#0A3A81" stroke-width="1.5" stroke-miterlimit="10" stroke-linecap="round" stroke-linejoin="round"/>
<path d="M5.84424 17.0591H8.26637" stroke="#0A3A81" stroke-width="1.5" stroke-miterlimit="10" stroke-linecap="round" stroke-linejoin="round"/>
<path d="M11.294 17.0591H16.1383" stroke="#0A3A81" stroke-width="1.5" stroke-miterlimit="10" stroke-linecap="round" stroke-linejoin="round"/>
<path d="M5.84894 12.7356H16.7485" stroke="#0A3A81" stroke-width="1.5" stroke-miterlimit="10" stroke-linecap="round" stroke-linejoin="round"/>
<path d="M25.2213 11.5371V16.5771C25.2213 20.9129 24.1435 22 19.8442 22H6.37714C2.07785 22 1 20.9129 1 16.5771V6.42294C1 2.08706 2.07785 1 6.37714 1H16.1383" stroke="#0A3A81" stroke-width="1.5" stroke-linecap="round" stroke-linejoin="round"/>
<path d="M21.685 1.77814L17.192 6.36108C17.0224 6.53402 16.8529 6.8799 16.8165 7.12696L16.5743 8.88108C16.4895 9.51113 16.9255 9.95584 17.5432 9.86937L19.2629 9.62231C19.5051 9.58525 19.8442 9.41231 20.0138 9.23937L24.5068 4.65637C25.2819 3.86579 25.6452 2.95167 24.5068 1.79049C23.3563 0.616962 22.4601 0.98755 21.685 1.77814Z" stroke="#0A3A81" stroke-width="1.5" stroke-miterlimit="10" stroke-linecap="round" stroke-linejoin="round"/>
<path d="M21.0432 2.43286C21.4307 3.82874 22.4964 4.9158 23.8528 5.29874" stroke="#0A3A81" stroke-width="1.5" stroke-miterlimit="10" stroke-linecap="round" stroke-linejoin="round"/>
</svg>
