<svg width="43" height="42" viewBox="0 0 43 42" fill="none" xmlns="http://www.w3.org/2000/svg">
<path d="M22.9032 20.6011H22.1284V18.901C22.1284 18.5531 21.8465 18.2711 21.4985 18.2711C21.1506 18.2711 20.8687 18.5531 20.8687 18.901V21.231C20.8687 21.5788 21.1506 21.8609 21.4985 21.8609H22.9032C23.2511 21.8609 23.5331 21.5788 23.5331 21.231C23.5331 20.8831 23.2511 20.6011 22.9032 20.6011Z" fill="#5A380A"/>
<path d="M21.4989 15.3246C18.5944 15.3246 16.2314 17.6976 16.2314 20.6144C16.2314 23.5313 18.5944 25.9043 21.4989 25.9043C24.4034 25.9043 26.7664 23.5313 26.7664 20.6144C26.7664 17.6976 24.4034 15.3246 21.4989 15.3246ZM21.4989 24.6445C19.2891 24.6445 17.4912 22.8367 17.4912 20.6144C17.4912 18.3923 19.289 16.5844 21.4989 16.5844C23.7088 16.5844 25.5066 18.3922 25.5066 20.6144C25.5066 22.8367 23.7088 24.6445 21.4989 24.6445Z" fill="#5A380A"/>
<path d="M4.89146 27.1562H10.7123C11.2249 27.1562 11.6421 26.7392 11.6421 26.2264V23.3276C11.6421 22.815 11.2249 22.3978 10.7123 22.3978H4.89146C4.37747 22.3978 3.95923 22.8149 3.95923 23.3276V26.2264C3.95931 26.7392 4.37747 27.1562 4.89146 27.1562ZM8.43057 23.6577H10.3823V25.8965H8.43057V23.6577ZM5.21908 23.6577H7.1708V25.8965H5.21908V23.6577Z" fill="#5A380A"/>
<path d="M3.95931 32.5238C3.95931 33.0378 4.37747 33.456 4.89154 33.456H10.7123C11.225 33.456 11.6421 33.0378 11.6421 32.5238V29.6275C11.6421 29.1135 11.225 28.6953 10.7123 28.6953H4.89146C4.37747 28.6953 3.95923 29.1135 3.95923 29.6275L3.95931 32.5238ZM8.43057 29.9551H10.3823V32.1963H8.43057V29.9551ZM5.21908 29.9551H7.1708V32.1963H5.21908V29.9551Z" fill="#5A380A"/>
<path d="M32.2879 27.1562H38.1087C38.6214 27.1562 39.0385 26.7392 39.0385 26.2264V23.3276C39.0385 22.815 38.6214 22.3978 38.1087 22.3978H32.2879C31.774 22.3978 31.3557 22.8149 31.3557 23.3276V26.2264C31.3558 26.7392 31.774 27.1562 32.2879 27.1562ZM35.8271 23.6577H37.7788V25.8965H35.8271V23.6577ZM32.6156 23.6577H34.5673V25.8965H32.6156V23.6577Z" fill="#5A380A"/>
<path d="M32.2879 33.456H38.1087C38.6214 33.456 39.0385 33.0378 39.0385 32.5238V29.6275C39.0385 29.1135 38.6214 28.6953 38.1087 28.6953H32.2879C31.774 28.6953 31.3557 29.1135 31.3557 29.6275V32.5238C31.3558 33.0378 31.774 33.456 32.2879 33.456ZM35.8271 29.9551H37.7788V32.1963H35.8271V29.9551ZM32.6156 29.9551H34.5673V32.1963H32.6156V29.9551Z" fill="#5A380A"/>
<path d="M42.1536 15.6269H30.0063V13.7427H30.7787C31.2847 13.7427 31.6966 13.3299 31.6966 12.8224V10.1997C31.6966 9.69224 31.2848 9.27945 30.7787 9.27945H22.1287V7.42633H27.122C27.7489 7.42633 28.2589 6.91529 28.2589 6.28717V2.65761C28.2589 2.02949 27.7489 1.51844 27.122 1.51844H22.1287V1.1416C22.1287 0.793739 21.8467 0.511719 21.4988 0.511719C21.1508 0.511719 20.8689 0.793739 20.8689 1.1416V2.14833V6.79645V9.27954H12.2214C11.714 9.27954 11.3011 9.69241 11.3011 10.1998V12.8225C11.3011 13.3299 11.714 13.7428 12.2214 13.7428H12.9938V15.627H0.844129C0.378686 15.6269 0 16.0066 0 16.4734V18.6844C0 19.1512 0.378686 19.5309 0.844129 19.5309H1.25221V27.9258C1.25221 28.2737 1.53415 28.5557 1.88209 28.5557C2.23004 28.5557 2.51198 28.2737 2.51198 27.9258V19.5309H12.9938V40.7403H2.51198V30.8341C2.51198 30.4862 2.23004 30.2042 1.88209 30.2042C1.53415 30.2042 1.25221 30.4862 1.25221 30.8341V40.9894C1.25221 41.5467 1.70673 42.0001 2.26531 42.0001H40.7347C41.292 42.0001 41.7454 41.5467 41.7454 40.9894V19.5308H42.1535C42.6203 19.5308 43 19.1511 43 18.6843V16.4733C43.0001 16.0066 42.6204 15.6269 42.1536 15.6269ZM22.1287 2.77821H26.9992V6.16657H22.1287V2.77821ZM12.9938 18.271H1.25977V16.8866H12.9938V18.271ZM41.7403 16.8867V18.2711H41.1156H30.0063V16.8867H41.7403ZM25.8541 40.7403H17.1436V39.2084H17.7018H25.2961H25.8542L25.8541 40.7403ZM18.3316 37.9486V30.6214H20.8689V37.9486H18.3316ZM22.1287 37.9486V30.6214H24.6661V37.9486H22.1287ZM25.9259 37.9502V30.4366C25.9259 29.8438 25.4436 29.3617 24.8508 29.3617H18.1492C17.5551 29.3617 17.0718 29.8439 17.0718 30.4366V37.9503C16.4138 37.9682 15.8837 38.488 15.8837 39.1259V40.7403H14.2534V13.7427H19.9656C20.3136 13.7427 20.5955 13.4607 20.5955 13.1128C20.5955 12.765 20.3136 12.483 19.9656 12.483H12.5608V10.5393H30.4368V12.483H22.7701C22.4222 12.483 22.1403 12.765 22.1403 13.1128C22.1403 13.4607 22.4222 13.7427 22.7701 13.7427H28.7466V40.7403H27.1139V39.1259C27.1139 38.4873 26.5837 37.9669 25.9259 37.9502ZM40.4858 40.7403H30.0063V19.5308H40.4857L40.4858 40.7403Z" fill="#5A380A"/>
</svg>
