<svg width="19" height="19" viewBox="0 0 19 19" fill="none" xmlns="http://www.w3.org/2000/svg">
<path d="M8.55005 16.4668H10.45V17.4168H8.55005V16.4668Z" fill="#E6A935"/>
<path d="M8.55005 15.2002H10.45V15.8335H8.55005V15.2002Z" fill="#E6A935"/>
<path d="M9.13878 6.0169C8.8788 4.89748 7.3151 2.6957 3.27032 1.21623C3.22362 1.19915 3.17344 1.1938 3.12419 1.20065C3.07494 1.20749 3.02812 1.22633 2.98785 1.2555C2.94523 1.28449 2.91038 1.3235 2.88636 1.36911C2.86234 1.41471 2.84989 1.46552 2.8501 1.51707V3.71505L8.0827 6.22653C8.14158 6.1608 8.21361 6.10817 8.29413 6.07205C8.37464 6.03594 8.46185 6.01715 8.5501 6.0169H9.13878Z" fill="#0A3A81"/>
<path d="M8.55005 8.2334H10.45V8.86673H8.55005V8.2334Z" fill="#E6A935"/>
<path d="M0.949979 3.53906C0.890398 3.53938 0.832116 3.5565 0.781829 3.58846C0.736054 3.61658 0.698324 3.65605 0.672301 3.70304C0.646279 3.75004 0.632848 3.80296 0.633312 3.85668V13.218C0.633692 13.2775 0.650706 13.3357 0.682434 13.3861C0.714161 13.4365 0.759338 13.4769 0.812862 13.503L7.91665 16.9135V6.84918L1.0871 3.57073C1.04431 3.55011 0.99747 3.5393 0.949979 3.53906ZM5.03498 9.32488C5.0164 9.36211 4.99067 9.39532 4.95926 9.4226C4.92784 9.44988 4.89136 9.4707 4.85189 9.48388C4.81243 9.49705 4.77075 9.50232 4.72925 9.49938C4.68775 9.49644 4.64723 9.48535 4.61001 9.46675L2.71001 8.51675C2.63485 8.47921 2.57767 8.41334 2.55107 8.33364C2.52446 8.25395 2.5306 8.16695 2.56815 8.09178C2.60569 8.01661 2.67155 7.95944 2.75125 7.93283C2.83094 7.90623 2.91795 7.91237 2.99311 7.94991L4.89311 8.89991C4.93034 8.91849 4.96355 8.94422 4.99083 8.97563C5.01811 9.00705 5.03894 9.04353 5.05211 9.083C5.06529 9.12246 5.07055 9.16414 5.06762 9.20564C5.06468 9.24715 5.05359 9.28766 5.03498 9.32488ZM1.93165 6.20065C1.94907 6.16289 1.97376 6.12893 2.00431 6.10071C2.03486 6.07249 2.07066 6.05057 2.10968 6.03619C2.1487 6.02181 2.19017 6.01526 2.23173 6.01691C2.27328 6.01855 2.3141 6.02837 2.35186 6.0458L6.46853 7.9458C6.50629 7.96322 6.54025 7.98791 6.56846 8.01846C6.59668 8.04901 6.6186 8.08481 6.63298 8.12383C6.64736 8.16285 6.65392 8.20433 6.65227 8.24588C6.65062 8.28743 6.6408 8.32825 6.62338 8.36601C6.60595 8.40377 6.58126 8.43773 6.55072 8.46595C6.52017 8.49416 6.48436 8.51609 6.44534 8.53047C6.40632 8.54485 6.36485 8.5514 6.3233 8.54975C6.28174 8.5481 6.24092 8.53829 6.20316 8.52086L2.0865 6.62086C2.04851 6.60367 2.0143 6.57915 1.98582 6.5487C1.95734 6.51825 1.93515 6.48248 1.92053 6.44344C1.90591 6.4044 1.89914 6.36285 1.90061 6.32119C1.90208 6.27952 1.91177 6.23856 1.92911 6.20065H1.93165Z" fill="#0A3A81"/>
<path d="M8.55005 9.5H10.45V14.5667H8.55005V9.5Z" fill="#E6A935"/>
<path d="M12.6667 10.9027L16.7834 8.98146V6.51367L12.6667 8.43489V10.9027Z" fill="#E6A935"/>
<path d="M8.55005 6.6499H10.45V7.5999H8.55005V6.6499Z" fill="#E6A935"/>
<path d="M18.2187 3.5886C18.1736 3.55958 18.1217 3.54269 18.0681 3.53959C18.0145 3.53648 17.961 3.54725 17.9128 3.57087L11.0833 6.84932V16.9136L18.187 13.5041C18.2406 13.478 18.2857 13.4375 18.3175 13.3872C18.3492 13.3368 18.3662 13.2786 18.3666 13.2191V3.85682C18.3671 3.80316 18.3538 3.75028 18.3279 3.70329C18.302 3.6563 18.2644 3.61679 18.2187 3.5886ZM17.4166 8.98175C17.4164 9.10229 17.3819 9.22028 17.3171 9.32194C17.2523 9.4236 17.16 9.50474 17.0508 9.55587L12.9342 11.4768C12.8377 11.5218 12.7314 11.5417 12.6252 11.5347C12.5189 11.5278 12.4162 11.4941 12.3264 11.4369C12.2366 11.3797 12.1626 11.3008 12.1114 11.2075C12.0602 11.1142 12.0333 11.0094 12.0333 10.903V8.43519C12.0335 8.31465 12.068 8.19666 12.1327 8.095C12.1975 7.99334 12.2898 7.9122 12.399 7.86107L16.5157 5.94017C16.6122 5.89519 16.7184 5.87526 16.8247 5.88222C16.9309 5.88919 17.0337 5.92282 17.1235 5.98001C17.2133 6.03721 17.2872 6.11611 17.3384 6.20944C17.3897 6.30277 17.4165 6.40751 17.4166 6.51397V8.98175Z" fill="#0A3A81"/>
<path d="M16.15 1.51707C16.1502 1.46552 16.1378 1.41471 16.1138 1.36911C16.0897 1.3235 16.0549 1.28449 16.0123 1.2555C15.972 1.22633 15.9252 1.20749 15.8759 1.20065C15.8267 1.1938 15.7765 1.19915 15.7298 1.21623C11.685 2.6957 10.1213 4.89748 9.86133 6.0169H10.45C10.5383 6.01715 10.6255 6.03594 10.706 6.07205C10.7865 6.10817 10.8585 6.1608 10.9174 6.22653L16.15 3.71505V1.51707Z" fill="#0A3A81"/>
</svg>
