<svg width="18" height="18" viewBox="0 0 18 18" fill="none" xmlns="http://www.w3.org/2000/svg">
<g clip-path="url(#clip0_2285_2580)">
<path d="M15.8381 11.4316C13.3755 12.5361 10.4821 11.4262 9.39204 8.95262C8.32807 6.5383 9.4008 3.68948 11.7933 2.57731C12.2682 2.35657 12.7598 2.21911 13.2521 2.1586C13.5553 2.12134 13.5907 1.69461 13.2973 1.60964C11.8221 1.18231 10.1937 1.25495 8.6821 1.93061C5.277 3.4527 3.76212 7.41485 5.28365 10.8202C6.80173 14.2178 10.7881 15.738 14.1825 14.2157C15.6969 13.5365 16.8373 12.3664 17.5003 10.9773C17.6312 10.7031 17.2889 10.446 17.0608 10.6466C16.7039 10.9604 16.2945 11.2269 15.8381 11.4316Z" fill="#0A3A81"/>
<path d="M12.0031 14.7818C11.9248 13.9394 11.488 13.1869 10.8135 12.7029C10.7738 11.6468 9.91734 10.7962 8.85892 10.7659C8.09621 9.57964 6.7762 8.84326 5.33426 8.84326C5.1344 8.84326 4.93784 8.8575 4.74536 8.88471C4.82499 9.54016 5.00313 10.1949 5.28751 10.829C6.4902 13.5106 9.23169 15.0194 12.0031 14.7818Z" fill="#E6A935"/>
<path d="M9.86502 13.1775C9.91139 13.0536 9.93688 12.9195 9.93688 12.7794C9.93688 12.1518 9.4281 11.643 8.80049 11.643C8.65104 11.643 8.50848 11.6722 8.3778 11.7246C7.87032 10.5462 6.69874 9.72119 5.33433 9.72119C3.50494 9.72119 2.02191 11.2042 2.02191 13.0336C0.905238 13.0336 0 13.9389 0 15.0555C0 16.1722 0.905238 17.0775 2.02194 17.0775H9.11602C10.2327 17.0775 11.138 16.1722 11.138 15.0555C11.1379 14.2036 10.6108 13.4752 9.86502 13.1775Z" fill="#EFF3F5"/>
<path d="M9.86502 13.1775C9.91139 13.0536 9.93688 12.9195 9.93688 12.7794C9.93688 12.1518 9.4281 11.643 8.80049 11.643C8.65104 11.643 8.50848 11.6722 8.3778 11.7246C7.87032 10.5462 6.69874 9.72119 5.33433 9.72119C3.50494 9.72119 2.02191 11.2042 2.02191 13.0336C0.905238 13.0336 0 13.9389 0 15.0555C0 16.1722 0.905238 17.0775 2.02194 17.0775H9.11602C10.2327 17.0775 11.138 16.1722 11.138 15.0555C11.1379 14.2036 10.6108 13.4752 9.86502 13.1775Z" fill="#EFF3F5"/>
<path d="M9.86513 13.1776C9.9115 13.0536 9.93699 12.9196 9.93699 12.7795C9.93699 12.1518 9.42821 11.6431 8.8006 11.6431C8.73067 11.6431 8.66233 11.6497 8.59592 11.6618C8.66869 11.9912 8.7074 12.3334 8.7074 12.6846C8.7074 14.681 7.46793 16.3878 5.71655 17.0775H9.11609C10.2328 17.0775 11.138 16.1722 11.138 15.0555C11.138 14.2036 10.6109 13.4753 9.86513 13.1776Z" fill="#C9E2E7"/>
<path d="M17.1471 6.25694C17.1782 6.1739 17.1953 6.08404 17.1953 5.99018C17.1953 5.56964 16.8544 5.22869 16.4338 5.22869C16.3337 5.22869 16.2382 5.2482 16.1505 5.28336C15.8105 4.49379 15.0254 3.94092 14.1111 3.94092C12.8853 3.94092 11.8915 4.93468 11.8915 6.16054C11.1432 6.16054 10.5366 6.76713 10.5366 7.51543C10.5366 8.2637 11.1432 8.87032 11.8915 8.87032H16.6452C17.3934 8.87032 18 8.26373 18 7.51543C18.0001 6.94449 17.6468 6.45642 17.1471 6.25694Z" fill="#EFF3F5"/>
<path d="M17.1471 6.25694C17.1782 6.1739 17.1953 6.08404 17.1953 5.99018C17.1953 5.56964 16.8544 5.22869 16.4338 5.22869C16.3337 5.22869 16.2382 5.2482 16.1505 5.28336C15.8105 4.49379 15.0254 3.94092 14.1111 3.94092C12.8853 3.94092 11.8915 4.93468 11.8915 6.16054C11.1432 6.16054 10.5366 6.76713 10.5366 7.51543C10.5366 8.2637 11.1432 8.87032 11.8915 8.87032H16.6452C17.3934 8.87032 18 8.26373 18 7.51543C18.0001 6.94449 17.6468 6.45642 17.1471 6.25694Z" fill="#EFF3F5"/>
<path d="M17.1471 6.25677C17.1782 6.17373 17.1953 6.08387 17.1953 5.99C17.1953 5.56946 16.8544 5.22852 16.4338 5.22852C16.3869 5.22852 16.3411 5.23295 16.2966 5.2411C16.3454 5.46181 16.3713 5.6911 16.3713 5.92647C16.3713 7.26417 15.5407 8.40791 14.3672 8.87007H16.6452C17.3934 8.87007 18.0001 8.26348 18.0001 7.51518C18.0001 6.94432 17.6468 6.45624 17.1471 6.25677Z" fill="#C9E2E7"/>
<path d="M1.5265 4.8373L1.7015 5.19188C1.73223 5.25415 1.79161 5.29728 1.86034 5.30727L2.25163 5.36411C2.42463 5.38925 2.49371 5.60188 2.36852 5.7239L2.08537 5.99992C2.03566 6.04836 2.01299 6.11818 2.0247 6.18663L2.09153 6.57634C2.12109 6.74864 1.94021 6.88005 1.78546 6.7987L1.43548 6.61469C1.37402 6.58238 1.30062 6.58238 1.23916 6.61469L0.889184 6.7987C0.734426 6.88005 0.553582 6.74864 0.583113 6.57634L0.649945 6.18663C0.661687 6.11822 0.639012 6.0484 0.589266 5.99992L0.306117 5.7239C0.180926 5.60188 0.250008 5.38925 0.423012 5.36411L0.814301 5.30727C0.882996 5.29728 0.94241 5.25415 0.973137 5.19188L1.14814 4.8373C1.22556 4.68054 1.44912 4.68054 1.5265 4.8373Z" fill="#E6A935"/>
<path d="M15.9373 15.1181L16.0648 15.3763C16.0955 15.4385 16.1549 15.4817 16.2236 15.4917L16.5086 15.5331C16.6816 15.5582 16.7507 15.7708 16.6255 15.8929L16.4192 16.0939C16.3695 16.1423 16.3468 16.2122 16.3586 16.2806L16.4072 16.5644C16.4368 16.7367 16.2559 16.8681 16.1012 16.7868L15.8463 16.6528C15.7848 16.6205 15.7114 16.6205 15.65 16.6528L15.3951 16.7868C15.2403 16.8681 15.0595 16.7367 15.089 16.5644L15.1377 16.2806C15.1495 16.2122 15.1268 16.1424 15.077 16.0939L14.8708 15.8929C14.7456 15.7708 14.8147 15.5582 14.9877 15.5331L15.2727 15.4917C15.3414 15.4817 15.4008 15.4385 15.4315 15.3763L15.559 15.1181C15.6364 14.9613 15.8599 14.9613 15.9373 15.1181Z" fill="#E6A935"/>
<path d="M4.64587 1.00075L4.79838 1.30974C4.81888 1.35126 4.85846 1.38002 4.90427 1.38666L5.24525 1.4362C5.3606 1.45297 5.40665 1.59472 5.32319 1.67607L5.07647 1.91657C5.04331 1.94888 5.0282 1.99543 5.03604 2.04106L5.09429 2.38067C5.11398 2.49556 4.99343 2.58314 4.89024 2.52892L4.58526 2.36858C4.54431 2.34703 4.49537 2.34703 4.45438 2.36858L4.1494 2.52892C4.04621 2.58317 3.92566 2.49556 3.94535 2.38067L4.0036 2.04106C4.01144 1.99543 3.99629 1.94888 3.96317 1.91657L3.71645 1.67607C3.63299 1.59472 3.67904 1.45297 3.79439 1.4362L4.13537 1.38666C4.18118 1.38002 4.22076 1.35123 4.24126 1.30974L4.39377 1.00075C4.44527 0.896233 4.5943 0.896233 4.64587 1.00075Z" fill="#E6A935"/>
</g>
<defs>
<clipPath id="clip0_2285_2580">
<rect width="18" height="18" fill="white"/>
</clipPath>
</defs>
</svg>
