<svg width="53" height="53" viewBox="0 0 53 53" fill="none" xmlns="http://www.w3.org/2000/svg">
<rect x="0.5" y="0.5" width="52" height="52" rx="4.5" stroke="#D9D9D9"/>
<path d="M14.7779 21.6667C17.1712 21.6667 19.1113 19.7266 19.1113 17.3333C19.1113 14.9401 17.1712 13 14.7779 13C12.3847 13 10.4446 14.9401 10.4446 17.3333C10.4446 19.7266 12.3847 21.6667 14.7779 21.6667Z" fill="#E6A935"/>
<path d="M19.53 24.6564C18.0762 25.5636 16.8771 26.8259 16.0458 28.3244C15.2144 29.8229 14.778 31.5083 14.7778 33.222H11.8889C11.1234 33.2197 10.3899 32.9146 9.84866 32.3733C9.30739 31.832 9.00229 31.0986 9 30.3331V27.4442C9.00343 26.296 9.46108 25.1958 10.273 24.3838C11.0849 23.5719 12.1851 23.1143 13.3333 23.1108H16.2222C16.8528 23.1123 17.4755 23.2513 18.0469 23.5182C18.6182 23.7852 19.1243 24.1736 19.53 24.6564Z" fill="#E6A935"/>
<path d="M37.8888 21.6667C40.282 21.6667 42.2221 19.7266 42.2221 17.3333C42.2221 14.9401 40.282 13 37.8888 13C35.4955 13 33.5554 14.9401 33.5554 17.3333C33.5554 19.7266 35.4955 21.6667 37.8888 21.6667Z" fill="#E6A935"/>
<path d="M43.667 27.4442V30.3331C43.6647 31.0986 43.3596 31.832 42.8183 32.3733C42.2771 32.9146 41.5436 33.2197 40.7781 33.222H37.8892C37.889 31.5083 37.4526 29.8229 36.6212 28.3244C35.7899 26.8259 34.5908 25.5636 33.137 24.6564C33.5427 24.1736 34.0488 23.7852 34.6201 23.5182C35.1915 23.2513 35.8141 23.1123 36.4448 23.1108H39.3336C40.4819 23.1143 41.5821 23.5719 42.394 24.3838C43.2059 25.1958 43.6636 26.296 43.667 27.4442Z" fill="#E6A935"/>
<path d="M26.3332 24.5556C29.5242 24.5556 32.111 21.9688 32.111 18.7778C32.111 15.5868 29.5242 13 26.3332 13C23.1422 13 20.5554 15.5868 20.5554 18.7778C20.5554 21.9688 23.1422 24.5556 26.3332 24.5556Z" fill="#0A3A81"/>
<path d="M35.0013 33.2222V34.6667C34.9979 35.8149 34.5403 36.9151 33.7284 37.727C32.9164 38.539 31.8162 38.9966 30.668 39H22.0013C20.8531 38.9966 19.7529 38.539 18.941 37.727C18.129 36.9151 17.6714 35.8149 17.668 34.6667V33.2222C17.668 31.3068 18.4289 29.4698 19.7833 28.1153C21.1377 26.7609 22.9748 26 24.8902 26H27.7791C29.6946 26 31.5316 26.7609 32.886 28.1153C34.2404 29.4698 35.0013 31.3068 35.0013 33.2222Z" fill="#0A3A81"/>
</svg>
