<svg width="16" height="15" viewBox="0 0 16 15" fill="none" xmlns="http://www.w3.org/2000/svg">
<path d="M2.79309 0.711699C2.78553 0.324131 3.09522 0.00464477 3.48284 0.000137405C3.87687 -0.00451549 4.19663 0.317717 4.18895 0.711699V1.4069H6.98067V0.711699C6.97311 0.323604 7.28363 0.00389312 7.67178 0.000137405C8.06581 -0.00451556 8.38558 0.317717 8.37789 0.711699V1.4069H11.1696V0.711699C11.1621 0.325706 11.4693 0.00688762 11.8553 0.000137405C12.2514 -0.00763734 12.5746 0.315539 12.5668 0.711699V1.4069H13.262C14.4099 1.4069 15.3586 2.3569 15.3586 3.50478V4.19999H0V3.50478C0 2.3569 0.949988 1.4069 2.09788 1.4069H2.79309V0.711699Z" fill="#0A3A81"/>
<path fill-rule="evenodd" clip-rule="evenodd" d="M0 5.22607V12.9033C0 14.0512 0.949988 14.9998 2.09788 14.9998H13.262C14.4099 14.9998 15.3586 14.0512 15.3586 12.9033V5.22607H0ZM3.49238 8.0178C3.87784 8.0178 4.19031 8.33027 4.19031 8.71573C4.19031 9.10118 3.87784 9.41366 3.49238 9.41366C3.10692 9.41366 2.79445 9.10118 2.79445 8.71573C2.79445 8.33027 3.10692 8.0178 3.49238 8.0178ZM7.67996 8.0178C8.06542 8.0178 8.37789 8.33027 8.37789 8.71573C8.37789 9.10118 8.06542 9.41366 7.67996 9.41366C7.29451 9.41366 6.98203 9.10118 6.98203 8.71573C6.98203 8.33027 7.29451 8.0178 7.67996 8.0178ZM11.8675 8.0178C12.253 8.0178 12.5655 8.33027 12.5655 8.71573C12.5655 9.10118 12.253 9.41366 11.8675 9.41366C11.4821 9.41366 11.1696 9.10118 11.1696 8.71573C11.1696 8.33027 11.4821 8.0178 11.8675 8.0178ZM3.49238 10.8095C3.87784 10.8095 4.19031 11.122 4.19031 11.5074C4.19031 11.8929 3.87784 12.2054 3.49238 12.2054C3.10692 12.2054 2.79445 11.8929 2.79445 11.5074C2.79445 11.122 3.10692 10.8095 3.49238 10.8095ZM7.67996 10.8095C8.06542 10.8095 8.37789 11.122 8.37789 11.5074C8.37789 11.8929 8.06542 12.2054 7.67996 12.2054C7.29451 12.2054 6.98203 11.8929 6.98203 11.5074C6.98203 11.122 7.29451 10.8095 7.67996 10.8095ZM11.8675 10.8095C12.253 10.8095 12.5655 11.122 12.5655 11.5074C12.5655 11.8929 12.253 12.2054 11.8675 12.2054C11.4821 12.2054 11.1696 11.8929 11.1696 11.5074C11.1696 11.122 11.4821 10.8095 11.8675 10.8095Z" fill="#E6A935"/>
</svg>
