<svg width="53" height="53" viewBox="0 0 53 53" fill="none" xmlns="http://www.w3.org/2000/svg">
<rect x="0.5" y="0.5" width="52" height="52" rx="4.5" stroke="#D9D9D9"/>
<path d="M42.2087 34.7604C41.9033 32.4926 40.7925 30.4103 39.0789 28.8937C37.3654 27.3771 35.1635 26.5275 32.8753 26.5C31.2896 26.4975 29.7309 26.9105 28.3545 27.6979C30.2163 29.5164 31.4217 31.9016 31.7816 34.4792C31.8918 35.2804 31.8348 36.0957 31.6143 36.8737C31.3938 37.6518 31.0145 38.3758 30.5003 39H38.5941C39.1134 38.9987 39.6264 38.8865 40.0989 38.6709C40.5713 38.4553 40.9923 38.1414 41.3337 37.75C41.6851 37.3434 41.9451 36.8661 42.0961 36.3503C42.2471 35.8345 42.2854 35.2923 42.2087 34.7604Z" fill="#E6A935"/>
<path d="M20.3753 24.4167C23.2518 24.4167 25.5837 22.0848 25.5837 19.2083C25.5837 16.3318 23.2518 14 20.3753 14C17.4988 14 15.167 16.3318 15.167 19.2083C15.167 22.0848 17.4988 24.4167 20.3753 24.4167Z" fill="#0A3A81"/>
<path d="M20.3749 26.5C18.086 26.5279 15.8835 27.378 14.1692 28.8949C12.4549 30.4119 11.3433 32.4946 11.037 34.7631C10.9618 35.2943 11.0014 35.8354 11.1532 36.35C11.305 36.8645 11.5655 37.3405 11.917 37.7457C12.2572 38.1387 12.6779 38.454 13.1505 38.6704C13.6231 38.8868 14.1366 38.9992 14.6564 39H26.0934C26.6132 38.9992 27.1268 38.8868 27.5994 38.6704C28.072 38.454 28.4926 38.1387 28.8329 37.7457C29.1844 37.3405 29.4448 36.8645 29.5966 36.35C29.7484 35.8354 29.788 35.2943 29.7128 34.7631C29.4066 32.4946 28.2949 30.4119 26.5806 28.8949C24.8664 27.378 22.6638 26.5279 20.3749 26.5Z" fill="#0A3A81"/>
<path d="M32.8753 24.4167C35.7518 24.4167 38.0837 22.0848 38.0837 19.2083C38.0837 16.3318 35.7518 14 32.8753 14C29.9988 14 27.667 16.3318 27.667 19.2083C27.667 22.0848 29.9988 24.4167 32.8753 24.4167Z" fill="#E6A935"/>
</svg>
