<svg width="53" height="53" viewBox="0 0 53 53" fill="none" xmlns="http://www.w3.org/2000/svg">
<rect x="0.5" y="0.5" width="52" height="52" rx="4.5" stroke="#D9D9D9"/>
<path d="M20.0396 19.0526C20.0396 22.3901 22.7547 25.1053 26.0923 25.1053C29.4299 25.1053 32.145 22.3901 32.145 19.0526C32.145 15.7152 29.4299 13 26.0923 13C22.7547 13 20.0396 15.7152 20.0396 19.0526Z" fill="#0A3A81"/>
<path d="M16.4468 39.0984H35.7382C36.5372 39.0984 37.185 38.4506 37.185 37.6516C37.185 31.5352 32.2089 26.5591 26.0925 26.5591C19.9761 26.5591 15 31.5352 15 37.6516C15 38.4506 15.6478 39.0984 16.4468 39.0984Z" fill="#E6A935"/>
<circle cx="33.4951" cy="35.23" r="4.77" fill="#0A3A81"/>
<path d="M31.7849 35.1401H35.0249" stroke="white" stroke-linecap="round" stroke-linejoin="round"/>
</svg>
