<svg width="53" height="53" viewBox="0 0 53 53" fill="none" xmlns="http://www.w3.org/2000/svg">
<rect x="0.5" y="0.5" width="52" height="52" rx="4.5" stroke="#D9D9D9"/>
<path d="M21 39.5L25.35 36L29.5 39.5" stroke="#0A3A81" stroke-width="1.5" stroke-linecap="round"/>
<path d="M25.5 36.5V15.5" stroke="#0A3A81" stroke-width="1.5" stroke-linecap="round"/>
<path d="M14 15H37V31C37 32.1046 36.1046 33 35 33H16C14.8954 33 14 32.1046 14 31V15Z" fill="#E6A935"/>
<path d="M14 14H38" stroke="#0A3A81" stroke-width="2" stroke-linecap="round"/>
<path d="M21.7972 26.0673L24.2847 23.5798M21.7972 26.0673L24.2847 23.5798M21.7972 26.0673C21.5536 26.3109 21.1763 26.3109 20.9327 26.0673C20.6891 25.8237 20.6891 25.4464 20.9327 25.2028L23.8524 22.2831C23.9037 22.2318 23.9649 22.1834 24.0417 22.1493C24.1196 22.1146 24.2008 22.1004 24.2847 22.1004C24.3686 22.1004 24.4497 22.1146 24.5276 22.1493C24.6045 22.1834 24.6657 22.2318 24.7169 22.2831L26.3285 23.8946M21.7972 26.0673L26.3285 23.8946M24.2847 23.5798L25.8962 25.1914C26.1398 25.435 26.5171 25.435 26.7607 25.1914L30.1549 21.7972C30.3985 21.5536 30.3985 21.1763 30.1549 20.9327C29.9113 20.6891 29.534 20.6891 29.2904 20.9327L26.3285 23.8946M24.2847 23.5798L26.3285 23.8946" fill="#0A3A81" stroke="#0A3A81" stroke-width="0.5"/>
</svg>
