<svg width="53" height="53" viewBox="0 0 53 53" fill="none" xmlns="http://www.w3.org/2000/svg">
<rect x="0.5" y="0.5" width="52" height="52" rx="4.5" stroke="#D9D9D9"/>
<path d="M20.8525 18.8285C20.8525 22.0424 23.4671 24.6569 26.6811 24.6569C29.8951 24.6569 32.5097 22.0424 32.5097 18.8285C32.5097 15.6146 29.8951 13 26.6811 13C23.4671 13 20.8525 15.6146 20.8525 18.8285Z" fill="#0A3A81"/>
<path d="M17.3933 38.1316H35.9701C36.7395 38.1316 37.3633 37.5078 37.3633 36.7383C37.3633 30.8484 32.5715 26.0566 26.6817 26.0566C20.7918 26.0566 16 30.8484 16 36.7383C16 37.5078 16.6238 38.1316 17.3933 38.1316Z" fill="#E6A935"/>
<circle cx="33.7669" cy="34.4068" r="4.59333" fill="#0A3A81"/>
<path d="M32.1208 34.6625L33.0427 35.5843L35.3472 33.2798" stroke="white" stroke-linecap="round" stroke-linejoin="round"/>
</svg>
